<svg width="3366" height="1955" viewBox="0 0 3366 1955" fill="none" xmlns="http://www.w3.org/2000/svg">
    <path d="M1 981.383L1691.14 1L3364.86 978.269L1674.72 1953.94L1 981.383Z" stroke="#CCCCCC" stroke-opacity="0.3"
          stroke-miterlimit="10"/>
    <path d="M838.703 1468.12L2528.84 492.453" stroke="#CCCCCC" stroke-opacity="0.3" stroke-miterlimit="10"/>
    <path d="M925.994 1518.2L2618.57 541.02" stroke="#CCCCCC" stroke-opacity="0.3" stroke-miterlimit="10"/>
    <path d="M1006.88 1566.26L2697.02 590.508" stroke="#CCCCCC" stroke-opacity="0.3" stroke-miterlimit="10"/>
    <path d="M1080.79 1611.38L2774.55 633.602" stroke="#CCCCCC" stroke-opacity="0.3" stroke-miterlimit="10"/>
    <path d="M1165.55 1660.28L2858.13 683.094" stroke="#CCCCCC" stroke-opacity="0.3" stroke-miterlimit="10"/>
    <path d="M1257.64 1712.97L2949.3 736.285" stroke="#CCCCCC" stroke-opacity="0.3" stroke-miterlimit="10"/>
    <path d="M1347.87 1763.05L3039.19 786.535" stroke="#CCCCCC" stroke-opacity="0.3" stroke-miterlimit="10"/>
    <path d="M1419.67 1807.49L3109.81 831.734" stroke="#CCCCCC" stroke-opacity="0.3" stroke-miterlimit="10"/>
    <path d="M1504.36 1855.88L3194.49 880.129" stroke="#CCCCCC" stroke-opacity="0.3" stroke-miterlimit="10"/>
    <path d="M1589.04 1904.79L3279.17 929.031" stroke="#CCCCCC" stroke-opacity="0.3" stroke-miterlimit="10"/>
    <path d="M754.275 1419.05L2442.9 439.512" stroke="#CCCCCC" stroke-opacity="0.3" stroke-miterlimit="10"/>
    <path d="M669.428 1369.82L2361.76 393.895" stroke="#CCCCCC" stroke-opacity="0.3" stroke-miterlimit="10"/>
    <path d="M586.52 1321.59L2277 344.57" stroke="#CCCCCC" stroke-opacity="0.3" stroke-miterlimit="10"/>
    <path d="M502.68 1272.86L2195.09 295.84" stroke="#CCCCCC" stroke-opacity="0.3" stroke-miterlimit="10"/>
    <path d="M417.832 1223.62L2109.32 247.023" stroke="#CCCCCC" stroke-opacity="0.3" stroke-miterlimit="10"/>
    <path d="M333.91 1174.89L2026.83 198.711" stroke="#CCCCCC" stroke-opacity="0.3" stroke-miterlimit="10"/>
    <path d="M250.072 1126.07L1943.49 149.641" stroke="#CCCCCC" stroke-opacity="0.3" stroke-miterlimit="10"/>
    <path d="M167.164 1077.92L1859.66 101.242" stroke="#CCCCCC" stroke-opacity="0.3" stroke-miterlimit="10"/>
    <path d="M74.2324 1023.97L1775.73 52.2578" stroke="#CCCCCC" stroke-opacity="0.3" stroke-miterlimit="10"/>
    <path d="M1604.1 51.5L3281.7 1026.24" stroke="#CCCCCC" stroke-opacity="0.3" stroke-miterlimit="10"/>
    <path d="M1520.85 101.242L3196.93 1075.14" stroke="#CCCCCC" stroke-opacity="0.3" stroke-miterlimit="10"/>
    <path d="M1436.09 148.883L3113.27 1123.54" stroke="#CCCCCC" stroke-opacity="0.3" stroke-miterlimit="10"/>
    <path d="M1351.58 197.953L3028.5 1172.44" stroke="#CCCCCC" stroke-opacity="0.3" stroke-miterlimit="10"/>
    <path d="M1266.9 246.266L2944.08 1223.2" stroke="#CCCCCC" stroke-opacity="0.3" stroke-miterlimit="10"/>
    <path d="M1182.64 297.184L2858.13 1270.75" stroke="#CCCCCC" stroke-opacity="0.3" stroke-miterlimit="10"/>
    <path d="M1098.05 344.992L2763.27 1325.54" stroke="#CCCCCC" stroke-opacity="0.3" stroke-miterlimit="10"/>
    <path d="M1014.88 394.82L2689.7 1368.05" stroke="#CCCCCC" stroke-opacity="0.3" stroke-miterlimit="10"/>
    <path d="M931.211 444.309L2605.02 1416.95" stroke="#CCCCCC" stroke-opacity="0.3" stroke-miterlimit="10"/>
    <path d="M844.006 490.012L2521.77 1464.92" stroke="#CCCCCC" stroke-opacity="0.3" stroke-miterlimit="10"/>
    <path d="M760.338 542.953L2432.88 1514.84" stroke="#CCCCCC" stroke-opacity="0.3" stroke-miterlimit="10"/>
    <path d="M675.574 590.09L2352.08 1564.33" stroke="#CCCCCC" stroke-opacity="0.3" stroke-miterlimit="10"/>
    <path d="M592.41 638.316L2266.89 1612.05" stroke="#CCCCCC" stroke-opacity="0.3" stroke-miterlimit="10"/>
    <path d="M508.658 686.883L2181.71 1659.1" stroke="#CCCCCC" stroke-opacity="0.3" stroke-miterlimit="10"/>
    <path d="M424.484 735.699L2097.62 1709.85" stroke="#CCCCCC" stroke-opacity="0.3" stroke-miterlimit="10"/>
    <path d="M338.791 784.77L2015.46 1759.09" stroke="#CCCCCC" stroke-opacity="0.3" stroke-miterlimit="10"/>
    <path d="M252.514 834.594L1929.77 1809.17" stroke="#CCCCCC" stroke-opacity="0.3" stroke-miterlimit="10"/>
    <path d="M162.949 887.453L1836.67 1860.01" stroke="#CCCCCC" stroke-opacity="0.3" stroke-miterlimit="10"/>
    <path d="M80.291 935.344L1756.37 1909.33" stroke="#CCCCCC" stroke-opacity="0.3" stroke-miterlimit="10"/>
</svg>
