<svg width="3821" height="2214" viewBox="0 0 3821 2214" fill="none" xmlns="http://www.w3.org/2000/svg">
    <path d="M962.149 552.798L1919.83 0L2875.98 555.557L3821 1104.74L3338.83 1383.14L2858.85 1660.2L2381.15 1936.13L1901.17 2213.19L0 1108.26L962.149 552.798ZM1521.87 1883.89L1621.12 1826.8L1523.39 1769.72L1424.24 1826.8L1521.87 1883.89ZM1045.13 1606.92L1144.28 1549.83L1049.12 1494.36L949.969 1551.45L1045.13 1606.92ZM1423.1 1826.8L1522.54 1769.72L1428.9 1715.29L1329.75 1772.38L1423.38 1826.8H1423.1ZM569.334 1330.71L668.489 1273.62L574.853 1219.2L475.603 1276.29L569.334 1330.71ZM1328.22 1771.71L1427.47 1714.63L1333.74 1660.2L1234.59 1717.29L1328.22 1771.71ZM379.683 1220.53L478.838 1163.44L385.202 1109.02L285.952 1166.11L379.683 1220.63V1220.53ZM1233.45 1716.62L1332.6 1659.54L1238.97 1605.11L1139.81 1662.2L1233.45 1716.62ZM853.763 1495.98L952.919 1438.89L859.282 1384.47L760.032 1441.56L853.763 1495.98ZM948.922 1551.07L1048.08 1493.98L954.441 1439.56L855.191 1496.65L948.541 1550.88L948.922 1551.07ZM758.89 1440.89L858.045 1383.8L764.409 1329.38L665.254 1386.47L758.89 1440.89ZM474.461 1275.62L573.711 1218.53L479.98 1164.11L380.825 1221.2L474.461 1275.62ZM284.905 1165.44L384.06 1108.36L290.329 1053.93L191.174 1111.02L284.905 1165.44ZM1802.3 2047.16L1901.46 1990.07L1808.01 1935.46L1708.86 1992.55L1802.49 2046.97L1802.3 2047.16ZM1897.46 2102.25L1996.62 2045.16L1902.89 1990.74L1803.73 2047.83L1897.46 2102.25ZM1707.81 1992.07L1806.97 1934.98L1712.86 1880.37L1613.7 1937.46L1707.34 1991.88L1707.81 1992.07ZM2005.56 1605.21L2100.72 1550.59L2002.99 1493.51L1908.31 1548.12L2006.04 1605.21H2005.56ZM1718.28 1771.05L1813.44 1716.43L1715.71 1659.35L1621.03 1713.96L1718.76 1771.05H1718.28ZM1622.26 1826.8L1716.85 1772.19L1619.12 1715.1L1524.54 1769.72L1622.26 1826.8ZM2101.1 1550.88L2195.69 1496.17L2097.96 1439.08L2003.37 1493.7L2101.1 1550.78V1550.88ZM2676.05 1217.87L2770.73 1163.25L2673.01 1106.17L2578.8 1160.78L2676.43 1217.87H2676.05ZM3059.16 996.749L3153.75 941.945L3056.11 884.858L2960.96 939.471L3058.68 996.559L3059.16 996.749ZM2196.83 1494.55L2291.42 1440.03L2193.69 1382.95L2099.1 1437.56L2196.83 1494.65V1494.55ZM2963.34 1052.03L3058.02 997.415L2960.29 940.328L2865.7 994.941L2963.34 1052.03ZM2484.5 1328.43L2579.66 1273.81L2481.93 1216.73L2387.34 1271.34L2484.97 1328.43H2484.5ZM2580.32 1273.15L2674.91 1218.53L2577.28 1161.45L2482.59 1216.06L2580.32 1273.15ZM3154.89 941.945L3249.57 887.331L3151.84 830.244L3057.26 884.858L3154.89 941.945ZM1813.82 1715.77L1908.31 1661.15L1810.58 1604.07L1716.09 1658.68L1813.82 1715.77ZM2868.18 1106.83L2962.19 1052.5L2864.56 995.417L2770.45 1049.65L2868.18 1106.74V1106.83ZM2771.88 1162.4L2865.89 1108.17L2768.26 1051.08L2673.96 1105.88L2771.69 1162.97L2771.88 1162.4ZM1910.6 1659.63L2004.14 1605.68L1906.41 1548.6L1812.87 1602.54L1910.6 1659.63ZM2292.56 1439.18L2386.01 1385.23L2288.28 1328.14L2194.83 1382.09L2292.56 1439.18ZM1990.24 2156.2L2089.4 2099.11L1997.47 2045.64L1898.32 2102.73L1990.24 2156.2ZM190.317 1110.35L289.473 1053.27L197.549 999.794L98.394 1056.88L190.317 1110.35ZM2390.77 1382.76L2483.74 1329.09L2386.01 1272.01L2293.32 1326.05L2390.96 1383.14L2390.77 1382.76ZM3250.62 886.19L3343.59 832.527L3245.86 775.44L3152.99 829.102L3250.62 886.19ZM664.112 1385.8L763.267 1328.71L672.01 1275.62L572.855 1332.71L664.112 1385.8ZM2582.32 719.779L2677 665.07L2581.84 609.695L2487.26 664.309L2582.42 719.779H2582.32ZM2199.31 940.898L2293.89 886.19L2198.74 830.815L2104.05 885.428L2199.21 940.898H2199.31ZM1528.44 1328.14L1623.12 1273.53L1527.96 1218.06L1433.37 1272.67L1528.53 1328.14H1528.44ZM1624.26 1272.86L1718.85 1218.15L1623.69 1162.78L1528.82 1217.87L1623.98 1273.34L1624.26 1272.86ZM1241.25 1493.79L1335.84 1439.18L1240.68 1383.71L1146.09 1438.32L1241.25 1493.79ZM2007.85 1051.46L2102.53 996.844L2007.37 941.374L1912.69 995.988L2007.85 1051.46ZM2486.69 775.059L2581.27 720.35L2486.11 664.975L2391.53 719.589L2486.69 775.059ZM2103.58 996.178L2198.16 941.945L2103.01 886.475L2007.85 940.708L2103.01 996.178H2103.58ZM1145.42 1549.26L1240.01 1494.65L1144.85 1439.18L1049.69 1493.79L1144.85 1549.26H1145.42ZM2678.14 664.404L2772.73 609.79L2677.57 554.416L2582.7 608.934L2677.86 664.309L2678.14 664.404ZM1719.99 1217.87L1814.58 1163.25L1719.42 1107.78L1624.74 1162.4L1719.9 1217.87H1719.99ZM1336.98 1438.7L1431.47 1384.09L1336.31 1328.62L1241.82 1383.23L1336.98 1438.7ZM2391.43 829.768L2485.45 775.535L2390.29 720.065L2296.27 774.298L2391.43 829.768ZM2295.13 885.428L2389.15 831.1L2293.99 775.63L2199.97 829.958L2295.13 885.428ZM1433.76 1382.57L1527.3 1328.62L1432.14 1273.15L1338.6 1327.1L1433.76 1382.57ZM1815.82 1162.11L1909.17 1108.17L1814.01 1052.69L1720.66 1106.64L1815.82 1162.11ZM1913.74 1105.03L2006.61 1051.46L1911.45 995.988L1818.48 1049.65L1913.64 1105.03H1913.74ZM2773.87 608.934L2866.84 555.272L2771.69 499.802L2678.72 553.464L2773.87 608.934ZM1906.5 1547.45L2001.09 1492.84L1907.45 1438.42L1812.77 1493.79L1906.5 1548.22V1547.45ZM2577.28 1160.78L2672.44 1106.17L2578.7 1051.74L2483.64 1106.07L2577.28 1160.5V1160.78ZM2960.39 939.376L3054.59 884.858L2960.96 830.434L2866.65 884.858L2960.39 939.281V939.376ZM1431.95 1272.39L1526.53 1217.77L1432.9 1163.35L1337.74 1217.96L1431.47 1272.39H1431.95ZM2103.01 884.858L2197.69 830.244L2103.96 775.82L2009.37 830.434L2103.01 884.858ZM2387.91 1050.41L2483.07 995.798L2388.48 941.279L2293.89 995.893L2387.53 1050.32L2387.91 1050.41ZM2483.07 1105.5L2577.66 1050.89L2483.64 996.369L2388.48 1050.98L2482.21 1105.41L2483.07 1105.5ZM2007.85 829.673L2103.01 775.059L2009.27 720.636L1914.69 775.249L2007.85 829.673ZM2011.65 388.196L2106.24 333.582L2012.61 279.158L1917.92 333.772L2011.65 388.196ZM2106.81 443.285L2201.5 388.671L2107.76 334.248L2013.18 388.862L2106.81 443.285ZM1916.97 333.011L2011.56 278.397L1917.83 223.878L1823.24 278.587L1916.97 333.011ZM2770.73 829.102L2865.32 774.488L2771.69 720.065L2677 774.678L2770.73 829.102ZM1716.85 1437.56L1811.44 1382.95L1717.8 1328.52L1622.65 1383.14L1716.38 1437.56H1716.85ZM2865.51 884.287L2960.19 829.673L2866.46 775.249L2771.88 829.863L2865.51 884.287ZM2485.83 663.643L2580.42 608.934L2486.78 554.511L2392.1 608.934L2485.83 663.358V663.643ZM1811.63 1492.65L1906.79 1438.04L1813.06 1383.61L1718.47 1438.23L1812.11 1492.65H1811.63ZM1913.16 774.583L2007.85 719.97L1914.12 666.022L1818.96 720.636L1912.69 775.059L1913.16 774.583ZM1723.51 664.404L1818.1 609.79L1724.46 555.367L1629.88 609.981L1723.51 664.404ZM1628.35 609.315L1722.94 554.701L1629.21 500.278L1534.62 554.891L1628.74 608.934L1628.35 609.315ZM2295.8 553.464L2390.38 498.85L2296.75 444.427L2202.16 499.041L2295.8 553.464ZM1533.48 554.225L1628.07 499.611L1534.43 445.188L1439.85 499.802L1533.48 554.225ZM1241.92 1161.83L1336.5 1107.21L1242.87 1052.79L1148.28 1107.4L1241.92 1161.83ZM863.089 941.945L957.676 887.331L863.945 832.908L769.358 887.522L863.089 941.945ZM958.247 997.035L1052.45 941.945L958.818 887.522L864.136 941.945L957.867 996.369L958.247 997.035ZM1337.55 1217.39L1432.14 1162.78L1338.41 1108.36L1243.82 1162.97L1337.55 1217.39ZM2390.96 608.934L2485.64 554.32L2391.91 499.897L2297.32 554.511L2390.96 608.934ZM1052.64 1051.65L1147.33 997.035L1053.6 942.611L959.009 997.225L1052.64 1051.65ZM1822.1 278.017L1917.26 223.403L1823.52 168.979L1728.94 223.593L1822.57 278.017H1822.1ZM768.216 886.38L863.374 831.766L769.167 777.343L674.58 831.956L768.216 886.38ZM1439.08 499.136L1533.67 444.522L1440.04 390.098L1344.88 444.712L1438.61 499.136H1439.08ZM2385.72 1271.05L2480.88 1216.44L2387.15 1162.02L2292.56 1216.63L2386.2 1271.05H2385.72ZM2864.56 995.132L2959.72 940.518L2865.99 886.094L2771.4 940.708L2865.04 995.132H2864.56ZM1523.39 1768.86L1618.08 1714.24L1524.35 1659.82L1429.76 1714.44L1523.39 1768.86ZM2002.23 1492.94L2097.39 1438.32L2003.66 1383.9L1909.07 1438.51L2002.71 1492.94H2002.23ZM2481.55 1216.25L2576.13 1161.64L2482.5 1107.21L2387.82 1161.83L2481.55 1216.25ZM1619.22 1713.58L1713.81 1658.97L1620.17 1604.54L1525.49 1659.16L1619.22 1713.58ZM2285.33 1768.1L2379.92 1713.48L2286.28 1659.06L2191.12 1713.67L2284.85 1768.1H2285.33ZM2380.49 1823.19L2475.65 1768.57L2381.92 1714.15L2287.33 1768.76L2380.96 1823.19H2380.49ZM2956.48 1380.85L3051.17 1326.24L2957.44 1271.82L2862.85 1326.43L2956.48 1380.85ZM3051.64 1435.94L3146.23 1381.33L3052.59 1326.91L2957.91 1381.52L3051.64 1435.94ZM3434.66 1214.82L3529.34 1160.21L3435.23 1105.79L3340.73 1160.78L3434.37 1215.2L3434.66 1214.82ZM3339.5 1159.73L3434.08 1105.12L3340.45 1050.7L3245.77 1105.31L3339.5 1159.73ZM1907.36 1437.37L2001.95 1382.76L1908.31 1328.33L1813.15 1382.95L1906.88 1437.37H1907.36ZM2200.45 608.934L2295.04 554.32L2201.3 499.897L2106.72 554.511L2200.45 608.934ZM670.583 1162.4L765.171 1107.78L671.534 1053.36L576.947 1107.97L670.583 1162.4ZM765.742 1217.49L860.329 1162.87L766.598 1108.45L672.01 1163.06L765.456 1217.87L765.742 1217.49ZM1342.59 664.785L1436.9 610.171L1343.16 555.748L1248.58 610.361L1342.21 664.785H1342.59ZM1437.75 719.874L1532.05 665.261L1438.32 610.837L1343.74 665.451L1436.9 719.874H1437.75ZM1532.91 774.964L1627.59 720.35L1532.91 666.022L1438.32 720.636L1532.05 774.964H1532.91ZM2010.8 498.565L2105.38 443.951L2011.75 389.528L1917.07 444.141L2010.8 498.565ZM955.012 1327.67L1049.6 1273.05L955.964 1218.63L861.376 1273.24L955.012 1327.67ZM1721.61 884.858L1816.2 830.244L1722.37 776.106L1627.21 830.719L1721.61 884.858ZM1816.77 939.947L1911.93 885.333L1817.53 831.195L1722.37 885.809L1816.01 940.232L1816.77 939.947ZM1911.93 995.037L2006.61 940.423L1912.88 885.999L1817.53 940.898L1911.17 995.322L1911.93 995.037ZM2295.23 663.833L2389.81 608.934L2296.18 554.511L2201.59 609.124L2295.23 663.548V663.833ZM1049.89 1382.76L1144.47 1328.14L1050.74 1273.72L956.154 1328.33L1049.89 1382.76ZM2390 718.923L2484.59 664.309L2390.96 609.886L2296.37 664.499L2390 718.923ZM2196.17 1160.78L2290.75 1106.17L2197.02 1051.74L2102.43 1106.36L2196.17 1160.78ZM2291.32 1215.87L2385.91 1161.26L2292.28 1106.83L2197.59 1161.45L2291.32 1215.87ZM2674.91 884.858L2769.59 830.244L2675.86 775.44L2581.27 830.053L2674.91 884.858ZM1916.02 443.475L2010.61 388.862L1916.88 334.438L1822.29 389.052L1916.02 443.475ZM2769.78 939.566L2864.27 884.858L2770.64 830.434L2676.05 884.858L2769.78 939.281V939.566ZM1812.58 1382.28L1907.74 1327.67L1814.01 1273.24L1719.42 1327.86L1813.06 1382.28H1812.58ZM1438.13 609.505L1532.72 554.891L1439.08 500.468L1344.4 555.082L1438.13 609.505ZM1533.29 664.595L1627.21 609.981L1533.58 555.557L1438.99 610.171L1532.62 664.595H1533.29ZM1628.45 719.684L1722.37 665.07L1628.74 610.647L1534.05 665.261L1627.78 719.684H1628.45ZM1430.23 1603.4L1524.82 1548.79L1431.19 1494.36L1336.03 1548.98L1429.76 1603.4H1430.23ZM1525.39 1658.49L1620.08 1603.88L1526.34 1549.45L1431.76 1604.07L1525.39 1658.49ZM575.805 1107.31L670.393 1052.69L576.661 998.271L482.074 1052.89L575.805 1107.31ZM1821.15 388.386L1915.73 333.772L1822.1 279.349L1727.51 333.962L1821.15 388.386ZM1817.34 829.863L1911.93 775.249L1818.29 720.826L1723.7 775.44L1817.53 829.863H1817.34ZM1428.62 1713.77L1523.2 1659.16L1429.57 1604.73L1334.89 1659.35L1428.62 1713.77ZM1912.69 884.858L2007.28 830.244L1912.69 775.915L1818.1 830.529L1912.69 884.858ZM959.294 886.094L1053.88 831.481L960.246 776.962L865.658 831.671L959.294 886.094ZM1528.15 1216.63L1622.74 1162.02L1529.1 1107.59L1434.52 1162.21L1528.15 1216.63ZM1334.22 1658.58L1429.38 1603.97L1335.65 1549.55L1241.06 1604.16L1334.69 1658.58H1334.22ZM2006.99 940.042L2101.58 885.428L2007.85 831.005L1913.16 885.619L2006.9 940.042H2006.99ZM1048.84 1493.13L1144 1438.51L1050.27 1384.09L955.678 1438.7L1049.31 1493.13H1048.84ZM1432.9 1161.64L1527.49 1107.02L1433.85 1052.6L1339.26 1107.21L1432.9 1161.64ZM954.06 1437.56L1048.74 1382.95L955.012 1328.52L860.424 1383.14L954.06 1437.56ZM1338.12 1106.07L1432.71 1051.46L1338.98 997.035L1244.39 1051.65L1338.12 1106.07ZM859.282 1382.95L953.87 1328.33L860.234 1273.91L765.075 1328.52L858.807 1382.95H859.282ZM1148.47 996.369L1243.06 941.945L1149.42 887.522L1054.26 942.135L1147.99 996.559L1148.47 996.369ZM1053.31 941.279L1147.9 886.665L1054.17 832.242L959.58 886.856L1053.31 941.279ZM1144.28 1437.85L1238.87 1383.23L1145.14 1328.81L1050.55 1383.42L1144.28 1437.85ZM479.98 1162.59L575.139 1107.97L481.408 1053.55L386.82 1108.17L480.456 1162.59H479.98ZM669.631 1272.77L764.219 1217.87L670.583 1163.44L575.995 1218.06L669.631 1272.48V1272.77ZM2291.9 1105.6L2386.48 1050.98L2293.32 996.559L2198.16 1051.17L2291.9 1105.6ZM2387.05 1160.69L2481.74 1106.07L2388.01 1051.65L2293.32 1106.26L2386.96 1160.69H2387.05ZM575.234 1217.77L669.822 1163.16L576.09 1108.74L481.503 1163.35L574.853 1217.87L575.234 1217.77ZM481.312 1052.31L576.471 997.701L482.74 943.277L388.152 997.891L481.788 1052.31H481.312ZM1343.74 554.511L1438.32 499.897L1344.59 445.473L1250 500.087L1343.74 554.511ZM385.202 1107.5L479.79 1052.89L386.154 998.462L291.566 1053.08L385.202 1107.5ZM1726.37 333.011L1820.96 278.397L1727.32 223.974L1632.73 278.587L1726.37 333.011ZM864.04 831.1L958.628 776.486L864.992 722.063L770.785 776.677L864.421 831.1H864.04ZM1247.53 609.695L1341.74 555.082L1248.1 500.658L1153.51 555.272L1247.15 609.695H1247.53ZM3056.11 884.096L3150.8 829.483L3057.07 775.059L2962.48 829.673L3056.11 884.096ZM1903.17 1989.22L1997.76 1934.6L1903.17 1880.18L1808.58 1934.79L1902.32 1989.22H1903.17ZM1998.33 1933.94L2092.92 1879.32L1999.28 1824.9L1904.7 1879.51L1998.33 1933.94ZM2476.22 1767.91L2570.81 1713.29L2477.17 1658.87L2382.49 1713.48L2476.22 1767.91ZM2381.06 1712.82L2475.74 1658.2L2382.01 1603.78L2287.42 1658.39L2381.06 1712.82ZM2860.37 1436.13L2954.96 1381.52L2861.32 1327.1L2766.74 1381.71L2860.37 1436.13ZM2955.53 1491.22L3050.69 1436.61L2956.96 1382.19L2861.9 1436.7L2955.53 1491.13V1491.22ZM2093.49 1989.03L2188.17 1934.41L2094.44 1879.99L1999.85 1934.6L2093.49 1989.03ZM3243.77 1215.01L3338.45 1160.4L3244.91 1105.98L3149.75 1160.78L3243.39 1215.2L3243.77 1215.01ZM2765.02 1491.41L2859.61 1436.8L2765.98 1382.38L2671.29 1436.7L2765.02 1491.13V1491.41ZM3338.64 1270.1L3433.23 1215.49L3340.07 1160.78L3244.91 1215.68L3338.64 1270.1ZM1997.47 2044.31L2092.06 1989.69L1998.33 1935.27L1903.74 1989.88L1997.38 2044.31H1997.47ZM2859.8 1546.5L2954.39 1491.89L2860.75 1437.47L2766.17 1492.08L2859.8 1546.5ZM2486.78 553.274L2581.37 498.66L2487.73 444.237L2392.57 498.85L2486.3 553.274H2486.78ZM2012.7 277.826L2107.29 223.212L2013.65 168.694L1919.06 223.308L2012.7 277.826ZM2961.34 829.007L3055.92 774.393L2962.29 719.97L2867.61 774.583L2961.34 829.007ZM2202.35 388.005L2296.94 333.011L2203.3 278.587L2108.62 333.201L2202.35 387.625V388.005ZM2866.46 773.917L2961.15 719.304L2867.41 664.88L2772.83 719.494L2866.46 773.917ZM2392 497.994L2486.59 443.38L2392.86 388.957L2298.27 443.57L2392 497.994ZM2107.48 333.011L2202.16 278.397L2108.43 223.878L2013.84 278.587L2107.48 333.011ZM2581.56 608.458L2676.15 553.845L2582.51 499.326L2487.92 554.035L2581.56 608.458ZM1917.92 222.737L2012.51 168.123L1918.87 114.175L1823.72 168.789L1917.45 223.212L1917.92 222.737ZM3530.39 1159.54L3624.97 1104.93L3531.34 1050.51L3436.65 1105.12L3530.39 1159.54ZM3435.23 1104.45L3529.91 1049.84L3436.18 995.417L3341.59 1050.03L3435.23 1104.45ZM2097.96 1437.47L2192.55 1382.85L2098.82 1328.43L2004.23 1383.04L2097.96 1437.47ZM1433.76 1051.55L1528.34 996.939L1434.71 941.945L1340.12 996.559L1433.85 1050.98L1433.76 1051.55ZM1054.55 830.91L1149.14 776.296L1055.5 721.872L961.102 776.486L1054.74 830.91H1054.55ZM2003.18 1382.09L2097.77 1327.48L2004.14 1273.05L1909.55 1327.67L2003.18 1382.09ZM1908.03 1327L2002.61 1272.39L1909.26 1217.87L1814.68 1272.48L1908.41 1326.91L1908.03 1327ZM1528.25 1106.36L1622.84 1051.74L1529.2 997.32L1434.61 1051.93L1528.25 1106.36ZM1623.41 1161.45L1717.9 1106.83L1624.26 1052.41L1529.68 1107.02L1623.41 1161.45ZM1149.42 885.999L1244.01 831.385L1150.28 776.962L1055.69 831.576L1149.42 885.999ZM1244.58 941.089L1339.17 886.475L1245.53 832.051L1150.94 886.665L1244.58 941.089ZM959.77 775.82L1054.36 721.206L961.102 666.783L865.944 721.397L959.58 775.82H959.77ZM2477.26 1657.54L2571.85 1602.92L2478.12 1548.5L2383.53 1603.11L2477.26 1657.54ZM2572.42 1712.63L2667.01 1658.01L2573.37 1603.59L2478.79 1658.2L2572.42 1712.63ZM3244.91 1104.64L3339.59 1050.03L3245.96 995.607L3151.27 1050.22L3244.91 1104.64ZM2190.84 1712.63L2286 1658.01L2192.36 1603.59L2097.2 1658.2L2190.84 1712.63ZM2861.71 1325.38L2956.29 1270.77L2862.66 1216.35L2768.07 1270.96L2861.71 1325.38ZM1903.17 1878.85L1998.33 1824.23L1904.6 1769.72L1809.44 1824.33L1903.08 1878.75L1903.17 1878.85ZM3148.61 1159.92L3243.2 1105.31L3149.75 1050.89L3055.16 1105.5L3148.8 1159.92H3148.61ZM2670.15 1436.7L2764.74 1382.09L2671.1 1327.67L2576.52 1382.28L2670.15 1436.7ZM2765.98 1381.42L2860.56 1326.81L2766.93 1272.39L2672.24 1327L2765.98 1381.42ZM2286.66 1657.73L2381.25 1603.11L2287.61 1548.69L2193.03 1603.3L2286.66 1657.73ZM1808.01 1934.13L1902.6 1879.51L1808.97 1825.09L1714.38 1879.7L1808.01 1934.13ZM3340.73 1049.27L3435.32 994.656L3341.69 940.232L3247.1 994.846L3340.73 1049.27ZM2382.39 1602.45L2476.98 1547.83L2383.34 1493.79L2288.76 1548.41L2382.39 1602.83V1602.45ZM1714.95 1658.3L1809.44 1603.78L1715.81 1549.26L1621.31 1603.88L1714.95 1658.3ZM861.186 1162.21L955.678 1107.69L862.042 1053.17L767.55 1107.78L861.186 1162.21ZM1620.17 1603.21L1714.66 1548.69L1620.93 1493.79L1526.44 1548.41L1620.17 1602.83V1603.21ZM1050.74 1272.39L1145.33 1217.87L1051.6 1163.35L957.106 1217.87L1050.74 1272.29V1272.39ZM1525.3 1548.31L1619.79 1493.7L1526.15 1439.27L1431.66 1493.79L1525.3 1548.22V1548.31ZM766.312 1107.12L860.9 1052.5L767.169 998.081L672.676 1052.69L766.312 1107.12ZM1145.61 1327.48L1240.11 1272.96L1146.47 1218.44L1051.98 1273.05L1145.61 1327.48ZM1240.77 1382.57L1335.27 1327.95L1241.63 1273.53L1147.14 1328.14L1240.77 1382.57ZM671.534 1052.03L766.027 997.415L672.391 942.992L577.898 997.605L671.534 1052.03ZM576.376 996.939L671.249 941.945L577.613 887.902L483.025 942.516L576.756 996.939H576.376ZM2093.78 1878.66L2188.27 1824.14L2095.01 1769.72L2000.52 1824.23L2094.16 1878.66H2093.78ZM2188.93 1933.75L2283.43 1879.23L2189.7 1824.8L2095.2 1879.32L2188.93 1933.75ZM1999.28 1823.57L2093.78 1768.95L2000.14 1714.63L1905.65 1769.14L1999.28 1823.57ZM1138.57 1661.82L1237.73 1604.73L1148.85 1553.07L1049.69 1610.16L1138.57 1661.82ZM2769.12 1049.65L2863.13 995.322L2769.5 940.898L2675.38 995.132L2769.12 1049.65ZM2673.96 994.561L2769.12 940.232L2674.91 885.809L2580.89 940.042L2674.53 994.561H2673.96ZM2294.27 773.822L2388.29 719.589L2294.66 665.166L2200.54 719.399L2294.27 773.822ZM1820.77 498.375L1914.78 444.141L1821.15 390.098L1727.13 444.332L1820.77 498.755V498.375ZM2200.07 718.828L2294.08 664.499L2200.35 610.076L2106.34 664.309L2200.07 718.828ZM2104.91 663.643L2198.93 609.41L2105.29 554.986L2011.56 608.934L2105.19 663.358L2104.91 663.643ZM1725.99 443.285L1820 389.052L1726.37 334.628L1632.26 388.862L1725.99 443.285ZM1915.64 553.559L2009.66 499.231L1915.92 444.807L1821.91 499.041L1915.64 553.559ZM2579.75 939.376L2673.96 884.858L2580.32 830.434L2486.02 884.858L2579.75 939.281V939.376ZM1631.21 388.196L1725.23 333.962L1631.49 279.539L1537.48 333.772L1631.21 388.196ZM3148.61 1270.01L3242.63 1215.68L3148.99 1161.26L3054.97 1215.49L3148.61 1270.01ZM3243.77 1325.1L3337.88 1270.77L3244.15 1216.35L3150.13 1270.58L3243.77 1325.1ZM2673.48 1105.22L2767.5 1050.89L2673.96 996.464L2579.85 1050.79L2673.58 1105.22H2673.48ZM2483.64 995.037L2577.66 940.708L2483.64 886.285L2389.53 940.613L2483.26 995.037H2483.64ZM2103.96 774.393L2198.16 720.065L2104.05 666.022L2010.04 720.35L2103.77 774.774L2103.96 774.393ZM2008.8 719.304L2103.01 664.975L2009.37 610.552L1915.35 664.88L2008.99 719.304H2008.8ZM2198.16 829.483L2292.18 775.154L2198.45 720.731L2104.43 775.059L2198.16 829.483ZM1629.69 498.945L1723.7 444.617L1629.97 390.098L1535.96 444.427L1629.69 498.85V498.945ZM2578.23 1050.13L2672.34 995.798L2578.8 941.374L2484.78 995.703L2578.42 1050.13H2578.23ZM1819.34 608.934L1913.35 554.606L1819.62 500.182L1725.61 554.511L1819.34 608.934ZM1724.18 553.845L1818.2 499.516L1724.56 445.093L1630.54 499.421L1724.18 553.845ZM1534.81 443.856L1628.93 389.528L1535.19 335.104L1441.18 389.432L1534.81 443.856ZM3052.31 1325.57L3146.33 1271.25L3052.69 1216.82L2958.67 1271.15L3052.31 1325.57ZM3147.47 1380.66L3241.58 1326.33L3147.85 1271.91L3053.83 1326.24L3147.47 1380.66ZM3054.21 1214.82L3148.23 1160.59L3054.59 1106.17L2960.1 1160.78L3053.83 1215.11L3054.21 1214.82ZM2957.82 1270.48L3051.93 1216.16L2958.29 1161.73L2864.27 1216.06L2957.91 1270.48H2957.82ZM1612.75 1936.98L1711.9 1879.89L1623.41 1828.52L1524.25 1885.6L1612.75 1936.98ZM1811.82 1602.45L1905.36 1548.41L1811.63 1493.79L1718.09 1547.83L1811.82 1602.26V1602.45ZM1337.17 1326.53L1430.81 1272.58L1337.07 1217.87L1243.53 1271.82L1337.17 1326.24V1326.53ZM863.184 1051.17L956.725 997.225L862.994 942.801L769.453 996.749L863.184 1051.17ZM1147.61 1216.54L1241.15 1162.49L1147.42 1108.07L1053.88 1162.02L1147.61 1216.54ZM1716.95 1547.36L1810.49 1493.32L1716.85 1438.89L1623.22 1492.84L1716.95 1547.36ZM1242.39 1271.44L1335.93 1217.39L1242.3 1162.97L1148.76 1216.92L1242.39 1271.44ZM1622.17 1491.98L1715.71 1438.04L1621.98 1383.61L1528.44 1437.56L1622.17 1491.98ZM957.962 1106.17L1051.5 1052.12L957.867 997.701L864.326 1051.65L957.962 1106.17ZM768.311 996.083L861.852 941.945L768.216 887.712L674.675 941.945L768.311 996.369V996.083ZM673.152 941.089L766.693 887.046L673.057 832.622L579.516 886.57L673.152 941.089ZM2190.65 1822.81L2284.19 1768.76L2190.46 1714.34L2096.92 1768.29L2190.65 1822.81ZM2285.81 1877.9L2379.35 1823.85L2285.71 1769.72L2192.17 1823.76L2285.81 1878.18V1877.9ZM2096.15 1767.72L2189.7 1713.67L2096.06 1659.25L2002.52 1713.29L2096.15 1767.72ZM2193.79 1381.9L2287.14 1328.05L2193.5 1273.53L2100.06 1327.48L2193.79 1381.9ZM1245.15 830.719L1338.5 776.772L1244.87 722.348L1151.42 776.296L1245.15 830.719ZM1340.31 885.809L1433.76 831.861L1340.02 777.438L1246.58 831.385L1340.21 885.809H1340.31ZM1529.96 995.988L1622.93 941.945L1529.29 887.522L1435.94 941.945L1529.58 996.369L1529.96 995.988ZM1625.12 1051.08L1718.47 997.13L1624.74 942.706L1531.39 996.654L1625.12 1051.08ZM1720.28 1106.17L1813.63 1052.22L1719.9 997.796L1626.55 1051.74L1720.28 1106.17ZM1150.37 775.63L1243.72 721.682L1149.99 667.259L1056.26 721.206L1149.99 775.63H1150.37ZM2004.14 1271.72L2097.49 1217.77L2003.85 1163.35L1910.4 1217.3L2004.14 1271.72ZM2099.29 1326.81L2192.74 1272.86L2099.01 1218.44L2005.66 1272.39L2099.29 1326.81ZM1055.5 720.54L1148.95 666.593L1055.21 612.169L961.863 666.022L1055.5 720.445V720.54ZM2667.77 1657.35L2761.22 1603.4L2667.49 1548.98L2574.14 1602.92L2667.77 1657.35ZM2572.61 1602.26L2665.96 1548.31L2572.71 1493.79L2479.26 1547.74L2572.99 1602.16L2572.61 1602.26ZM2477.46 1547.17L2570.9 1493.22L2477.26 1438.8L2383.82 1492.75L2477.46 1547.17ZM2291.71 1325.38L2384.68 1271.72L2290.94 1217.3L2198.16 1270.96L2291.8 1325.38H2291.71ZM3151.84 828.817L3244.91 775.154L3151.18 720.731L3058.3 774.393L3151.94 828.817H3151.84ZM1722.37 994.561L1815.25 940.898L1721.61 886.475L1628.64 940.137L1722.37 994.561ZM1437.94 829.292L1530.82 775.63L1436.9 721.206L1343.93 774.869L1437.66 829.292H1437.94ZM1817.53 1049.65L1910.4 995.988L1816.39 941.945L1723.42 995.512L1817.15 1050.03L1817.53 1049.65ZM1343.07 774.203L1436.04 720.54L1342.31 666.022L1249.43 719.589L1343.07 774.108V774.203ZM2196.93 1270.29L2289.8 1216.63L2196.17 1162.21L2103.01 1215.87L2196.74 1270.29H2196.93ZM1627.21 939.471L1720.18 885.809L1627.21 831.385L1533.86 884.858L1627.21 939.471ZM1248.29 719.113L1341.74 665.451L1248.01 610.932L1155.04 664.595L1248.77 719.113H1248.29ZM2102.05 1215.2L2195.02 1161.54L2101.29 1107.12L2008.42 1160.78L2102.05 1215.2ZM1153.51 664.024L1246.58 610.361L1152.94 555.938L1059.97 609.6L1153.7 664.024H1153.51ZM2670.91 1545.74L2763.88 1492.08L2670.15 1437.66L2577.28 1491.32L2670.91 1545.74ZM2766.07 1600.83L2858.95 1547.17L2765.31 1492.75L2672.34 1546.41L2766.07 1600.83ZM2298.08 333.011L2391.05 279.349L2297.32 224.925L2204.44 278.587L2298.08 333.011ZM2202.92 277.921L2295.8 224.259L2202.16 169.836L2109.19 223.498L2202.92 277.921ZM2107.76 222.832L2200.73 169.17L2107.67 114.175L2014.7 167.837L2108.43 222.261L2107.76 222.832ZM2487.07 443.19L2579.94 389.528L2486.3 335.104L2393.33 388.766L2487.07 443.19ZM2676.62 553.369L2769.59 499.707L2675.86 445.283L2582.99 498.945L2676.62 553.369ZM2581.46 498.279L2674.43 444.617L2581.75 390.098L2488.87 443.761L2582.51 498.184L2581.46 498.279ZM3056.02 774.203L3149.75 720.065L3056.3 666.022L2963.34 719.684L3057.07 774.108L3056.02 774.203ZM2960.86 719.113L3053.83 665.451L2960.1 611.027L2867.22 664.69L2960.86 719.113ZM2013.65 167.457L2106.62 114.175L2012.89 59.7517L1919.92 113.414L2013.65 167.837V167.457ZM3625.54 1104.26L3718.51 1050.6L3625.54 996.178L3532.57 1049.84L3626.31 1104.26H3625.54ZM3530.39 1049.17L3623.36 995.512L3530.39 941.089L3437.42 994.751L3531.05 1049.17H3530.39ZM2575.47 1490.65L2668.34 1436.99L2574.71 1382.57L2482.5 1436.7L2576.13 1491.13L2575.47 1490.65ZM3435.61 994.085L3528.58 940.423L3435.23 885.999L3342.26 939.662L3435.89 994.085H3435.61ZM3143.76 1490.08L3238.44 1435.47L3146.42 1382L3052.5 1436.7L3144.42 1490.18L3143.76 1490.08ZM3526.86 1268.96L3621.45 1214.25L3530.39 1160.78L3435.23 1215.39L3527.25 1268.87L3526.86 1268.96ZM2474.12 1877.33L2568.71 1822.71L2476.31 1769.72L2381.15 1824.33L2473.17 1877.8L2474.12 1877.33ZM1727.32 222.927L1821.91 168.313L1729.98 114.841L1634.83 169.455L1726.84 222.927H1727.32ZM1344.31 444.046L1438.89 389.432L1346.88 335.96L1252.29 390.574L1344.31 444.046ZM673.438 831.29L768.025 776.677L676.102 723.109L581.419 777.818L673.438 831.29ZM3048.69 1544.89L3143.28 1490.27L3051.36 1436.8L2956.2 1491.41L3048.22 1544.89H3048.69ZM2569.28 1822.05L2663.97 1767.43L2571.95 1713.96L2477.36 1768.57L2569.28 1822.05ZM2952.87 1600.64L3047.46 1546.03L2955.44 1492.55L2860.85 1547.17L2952.87 1600.64ZM3431.61 1324.72L3526.29 1270.1L3434.28 1216.63L3340.07 1270.77L3431.99 1324.24L3431.61 1324.72ZM2186.36 2043.16L2280.95 1988.55L2188.65 1935.08L2093.97 1989.69L2185.98 2043.16H2186.36ZM2090.54 2098.44L2185.22 2043.83L2093.49 1990.36L1998.33 2044.97L2090.25 2098.44H2090.54ZM1248.48 499.326L1343.07 444.712L1251.15 391.24L1156.56 445.854L1248.48 499.326ZM386.154 997.13L480.741 942.516L388.818 889.044L294.23 943.658L386.154 997.13ZM1152.75 554.606L1247.34 499.992L1155.42 446.52L1060.26 501.134L1152.28 554.606H1152.75ZM1631.59 278.683L1726.18 224.069L1634.16 170.597L1539.57 225.211L1631.59 278.683ZM290.424 1052.41L385.012 997.796L292.993 944.324L198.406 999.033L290.424 1052.5V1052.41ZM769.167 776.486L864.326 721.872L771.832 667.925L677.244 722.539L769.167 776.011V776.486ZM3623.26 1214.16L3717.94 1159.45L3625.54 1105.6L3530.96 1160.21L3622.88 1213.68L3623.26 1214.16ZM1823.05 167.647L1917.73 113.033L1825.71 59.5614L1731.13 114.175L1823.05 167.647ZM2665.2 1766.77L2759.6 1712.63L2667.58 1659.16L2572.99 1713.77L2665.01 1767.24L2665.2 1766.77ZM864.992 720.731L959.58 666.022L867.561 612.55L772.974 667.164L864.992 720.636V720.731ZM2282.09 1987.88L2376.59 1933.27L2284.66 1879.89L2190.17 1934.41L2282.09 1987.88ZM481.978 941.945L576.471 887.331L484.453 833.954L390.15 888.378L481.978 941.945ZM3336.74 1379.62L3430.75 1325.38L3338.83 1271.91L3244.91 1325.76L3336.93 1379.14L3336.74 1379.62ZM1536.34 333.011L1630.35 278.778L1538.43 225.306L1444.41 279.634L1536.34 333.011ZM3240.25 1434.8L3334.26 1380.47L3242.34 1327L3148.23 1381.33L3240.25 1434.8ZM1440.04 388.766L1534.05 334.438L1442.13 280.966L1348.11 335.294L1440.04 388.766ZM2201.3 498.375L2295.99 443.761L2204.64 390.669L2110.05 445.283L2201.3 498.375ZM2105.58 553.654L2200.16 499.041L2108.81 445.949L2014.22 500.563L2105.58 553.654ZM2297.13 443.095L2391.72 388.481L2300.36 335.39L2205.78 390.098L2297.13 443.19V443.095ZM1147.52 1106.74L1242.11 1052.12L1150.75 999.033L1056.26 1053.65L1147.61 1106.74H1147.52ZM1818.29 719.494L1912.69 664.88L1821.34 611.789L1726.18 666.402L1817.53 719.494H1818.29ZM1722.37 774.774L1817.53 720.16L1726.18 667.068L1631.59 721.682L1722.94 774.774H1722.37ZM1243.06 1051.46L1337.64 996.844L1246.58 943.753L1151.42 998.367L1242.77 1051.46H1243.06ZM1627.21 830.053L1722.37 775.44L1631.02 722.348L1536.43 776.962L1627.21 830.053ZM1338.98 996.178L1433.56 941.945L1342.31 888.854L1247.72 943.467L1338.98 996.559V996.178ZM764.409 1327.86L859.568 1273.24L768.216 1220.15L673.152 1274.96L764.409 1328.05V1327.86ZM860.234 1272.58L954.822 1217.96L863.565 1164.87L768.406 1219.49L859.758 1272.58H860.234ZM955.964 1217.3L1050.46 1162.68L959.199 1109.69L864.707 1164.21L955.964 1217.3ZM2378.97 1931.94L2472.51 1877.99L2380.49 1824.52L2286.95 1878.56L2378.97 1931.94ZM578.755 885.999L672.296 831.956L580.468 778.484L486.736 832.527L578.755 885.999ZM2010.42 608.934L2104.43 554.701L2013.08 501.61L1919.06 555.843L2010.42 608.934ZM2760.93 1711.87L2854.28 1657.92L2762.36 1604.45L2668.91 1658.39L2760.93 1711.87ZM961.102 665.451L1054.45 611.503L962.53 558.126L869.084 611.979L961.102 665.451ZM1433.28 1935.55L1521.21 1884.84L1423.48 1827.75L1335.55 1878.56L1433.28 1935.65V1935.55ZM1914.12 664.214L2007.85 609.886L1916.49 556.794L1822.48 611.123L1913.83 664.214H1914.12ZM2858.85 1654.87L2951.82 1601.31L2859.8 1547.83L2766.93 1601.5L2858.85 1654.87ZM3718.99 1158.4L3811.96 1104.74L3720.04 1051.27L3627.07 1104.93L3718.99 1158.4ZM1058.64 608.934L1151.42 555.272L1059.4 501.8L966.526 555.462L1058.64 608.934ZM1918.78 112.367L2011.75 58.7051L1919.83 5.23303L1827.05 58.8954L1918.97 112.367H1918.78ZM1052.84 1161.35L1146.38 1107.4L1055.12 1054.31L961.102 1108.36L1052.36 1161.35H1052.84ZM1434.9 940.898L1528.25 886.951L1436.9 833.954L1343.54 887.807L1434.9 940.898ZM2392.86 387.815L2485.83 334.153L2394.48 281.061L2301.51 334.724L2392.86 387.815ZM1532.72 884.858L1625.69 831.195L1534.34 778.104L1441.37 831.766L1532.72 884.858ZM2675.96 774.108L2770.54 719.494L2681.57 667.734L2586.98 722.348L2675.96 774.108ZM2293.32 995.227L2388.48 940.613L2299.41 888.854L2204.83 943.563L2293.32 995.227ZM2197.59 1050.51L2292.18 995.893L2203.21 944.229L2108.14 999.033L2197.12 1050.7L2197.59 1050.51ZM2101.77 1105.79L2196.93 1051.17L2107.95 999.508L2013.27 1054.12L2102.24 1105.79H2101.77ZM2580.61 829.863L2675.29 775.249L2585.75 723.109L2491.16 777.818L2580.13 829.483L2580.61 829.863ZM2772.16 719.304L2866.75 664.69L2777.78 612.93L2683.19 667.544L2772.16 719.304ZM1622.07 1382.47L1716.66 1327.86L1627.78 1276.19L1533.2 1330.81L1622.07 1382.47ZM1717.8 1327.19L1812.49 1272.58L1723.61 1220.91L1628.93 1275.53L1717.8 1327.19ZM1334.79 1548.31L1429.38 1493.7L1340.5 1442.03L1245.91 1496.65L1334.79 1548.31ZM1238.97 1603.59L1334.12 1548.98L1245.25 1497.31L1150.09 1551.93L1238.97 1603.59ZM1813.63 1271.91L1908.22 1217.3L1819.34 1165.63L1724.75 1220.25L1813.63 1271.91ZM1430.52 1493.03L1525.01 1438.51L1436.13 1386.85L1341.74 1441.37L1430.61 1493.03H1430.52ZM956.154 1658.58L1043.99 1607.78L948.827 1552.31L860.995 1603.11L956.154 1658.58ZM2096.06 1657.92L2190.74 1603.3L2102.15 1551.83L2007.85 1606.44L2096.34 1657.92H2096.06ZM3149.75 1049.56L3244.91 994.941L3156.32 943.467L3061.73 998.081L3150.23 1049.56H3149.75ZM3054.59 1104.84L3149.18 1050.22L3060.3 999.033L2965.14 1053.65L3053.74 1105.12L3054.59 1104.84ZM2192.26 1602.64L2286.85 1548.02L2198.35 1496.55L2103.01 1550.88L2191.6 1602.35L2192.26 1602.64ZM3245.77 994.275L3340.07 939.662L3251.57 888.188L3156.41 942.801L3245 994.275H3245.77ZM2287.61 1547.36L2382.2 1492.75L2293.7 1441.27L2199.12 1495.88L2287.61 1547.36ZM2766.93 1270.67L2861.52 1216.06L2773.02 1164.59L2678.43 1219.2L2766.93 1270.67ZM2575.37 1381.23L2669.96 1326.62L2581.46 1275.24L2486.88 1329.86L2575.37 1381.23ZM2671.1 1325.95L2765.79 1271.34L2677.29 1219.87L2582.13 1274.58L2670.63 1325.95H2671.1ZM1808.78 1823.76L1903.46 1769.14L1814.96 1717.77L1720.37 1772.38L1808.78 1823.76ZM1712.86 1879.04L1807.44 1824.42L1719.04 1773.05L1624.36 1827.66L1712.86 1879.04ZM2484.97 884.858L2578.8 830.053L2489.83 778.389L2395.81 832.622L2484.97 884.858ZM2388.48 939.947L2482.5 885.619L2393.53 833.954L2299.51 888.188L2388.48 939.947ZM1904.41 1768.48L1998.9 1713.96L1910.4 1662.49L1815.91 1717.1L1904.41 1768.48ZM2958.77 1159.54L3052.88 1105.22L2964.29 1053.74L2870.27 1108.07L2958.77 1159.54ZM2862.47 1215.11L2956.58 1160.78L2868.08 1109.4L2773.97 1163.64L2862.47 1215.11ZM1527.3 1437.18L1620.93 1383.14L1532.05 1331.47L1438.51 1385.52L1527.3 1437.18ZM1909.36 1216.63L2002.71 1162.68L1913.83 1111.11L1820.48 1164.97L1909.36 1216.63ZM2001.38 1712.63L2094.92 1658.58L2006.42 1607.11L1912.69 1661.15L2001.19 1712.63H2001.38ZM2007.28 1160.11L2100.25 1106.45L2011.18 1054.69L1918.3 1108.36L2007.28 1160.11ZM2867.41 663.548L2960.39 609.886L2871.41 558.221L2778.63 611.884L2867.61 663.548H2867.41ZM2383.34 1492.08L2476.79 1438.13L2388.2 1386.75L2294.85 1440.61L2383.34 1492.08ZM1334.12 1878.18L1421.96 1827.47L1328.32 1772.95L1240.39 1823.76L1334.12 1878.18ZM290.614 1271.91L378.541 1221.1L284.905 1166.68L196.978 1217.87L290.614 1272.29V1271.91ZM1144.47 1768L1232.3 1717.19L1138.67 1662.77L1050.74 1713.58L1144.47 1768ZM669.917 1492.08L757.843 1441.27L664.112 1386.85L576.186 1437.66L669.917 1492.08ZM765.075 1547.17L852.907 1496.46L759.271 1441.94L671.344 1492.75L765.075 1547.17ZM385.488 1327L473.414 1276.19L379.683 1221.77L291.852 1272.58L385.488 1327ZM1239.25 1823.09L1327.18 1772.38L1233.45 1717.86L1145.61 1768.67L1239.25 1823.09ZM859.568 1602.45L947.399 1551.64L853.763 1497.22L765.837 1548.02L859.568 1602.45ZM480.266 1382.09L568.192 1331.38L474.556 1276.86L386.63 1327.67L480.266 1382.09ZM195.836 1216.82L283.763 1166.01L190.317 1111.59L102.391 1162.4L196.027 1216.82H195.836ZM1713.33 2098.54L1801.26 2047.83L1707.53 1993.31L1619.6 2044.12L1713.33 2098.54ZM1808.49 2153.63L1896.42 2102.92L1802.69 2048.49L1714.85 2099.21L1808.49 2153.63ZM1618.84 2043.45L1706.77 1992.64L1613.13 1938.31L1525.2 1989.03L1618.84 2043.45ZM3341.5 938.996L3434.47 885.333L3345.87 833.859L3252.9 887.522L3341.5 938.996ZM2481.36 1435.56L2574.23 1381.9L2485.73 1330.43L2392.86 1384.09L2481.36 1435.56ZM1901.27 2207.39L1988.82 2156.96L1896.8 2103.58L1808.87 2154.3L1901.27 2207.39ZM101.058 1161.73L188.985 1110.92L96.9666 1057.55L9.51586 1108.26L101.439 1161.73H101.058ZM575.139 1437.66L662.97 1386.85L571.713 1333.85L483.786 1384.56L575.139 1437.66ZM1049.69 1713.58L1137.53 1662.87L1048.65 1611.2L961.102 1661.25L1049.98 1712.91L1049.69 1713.58ZM1523.68 1988.55L1611.61 1937.84L1523.11 1886.36L1435.28 1937.17L1523.68 1988.55ZM481.693 1382.47L569.334 1332.04L481.503 1382.85L481.693 1382.47ZM1628.93 720.35L1723.51 666.022L1628.93 720.636V720.35ZM1439.08 829.958L1532.05 776.296L1439.18 829.958H1439.08Z"
          fill="#7C7C7C"/>
</svg>
