<svg width="210" height="213" viewBox="0 0 210 213" fill="none" xmlns="http://www.w3.org/2000/svg">
    <g opacity="0.2">
        <path opacity="0.09"
              d="M56.0123 119.151C56.0123 119.151 61.1971 117.04 61.4007 117.003C64.7523 115.151 67.4002 111.762 70.0111 113.299L135.802 149L141.134 151.888L201.592 184.7C203.218 185.532 204.609 186.761 205.635 188.272C206.66 189.784 207.289 191.529 207.462 193.348C207.48 193.705 207.48 194.064 207.462 194.422C207.242 196.319 206.554 198.132 205.458 199.697C204.362 201.262 202.893 202.529 201.185 203.384C201.185 203.384 199.463 204.31 197.259 205.384C191.982 207.957 183.057 211.883 180.038 211.735C176.65 211.704 173.322 210.833 170.354 209.198L110.119 173.868L49.8277 138.519C48.2347 137.66 46.8757 136.425 45.8689 134.921C44.862 133.417 44.2378 131.69 44.0504 129.89C43.9208 126.039 51.7164 121.632 56.0123 119.151Z"
              fill="black"/>
        <path opacity="0.18"
              d="M56.9767 120.782C56.9767 120.782 61.8281 118.819 62.254 118.727C65.513 117.004 68.1979 113.931 70.6977 115.375L134.822 150.15L140.025 152.964L198.946 184.906C201.927 186.628 204.945 190.054 204.945 193.072C204.945 193.387 205.056 193.757 204.945 194.072C204.841 195.902 204.257 197.673 203.253 199.207C202.249 200.741 200.859 201.984 199.223 202.812C199.223 202.812 197.372 203.812 195.52 204.775C190.428 207.274 181.892 210.848 178.855 210.533C175.61 210.392 172.442 209.505 169.596 207.941L111.102 173.648L52.7548 139.391C51.2425 138.547 49.9354 137.379 48.9271 135.97C47.9188 134.562 47.2341 132.948 46.922 131.244C46.6628 127.596 52.7919 123.208 56.9767 120.782Z"
              fill="black"/>
        <path opacity="0.27"
              d="M57.941 122.413C57.941 122.413 62.4776 120.561 63.1072 120.561C66.2736 118.95 68.9955 116.191 71.3842 117.561L133.842 151.299L138.878 154.04L196.281 185.13C198.91 186.648 202.41 190.129 202.41 192.814C202.41 193.092 202.576 193.481 202.576 193.758C202.592 195.516 202.115 197.242 201.198 198.741C200.282 200.241 198.963 201.452 197.392 202.239C197.392 202.239 195.54 203.332 193.688 204.091C188.781 206.517 180.634 209.646 177.634 209.276C174.514 209.011 171.485 208.089 168.746 206.572L112.214 173.427L55.6819 140.263C53.034 138.726 50.1268 135.282 49.7935 132.616C49.3862 129.135 53.8487 124.783 57.941 122.413Z"
              fill="black"/>
        <path opacity="0.36"
              d="M58.9208 124.023C58.9208 124.023 63.1056 122.338 63.9389 122.171C67.0312 120.709 69.7717 118.227 72.0678 119.561L132.859 152.447L137.803 155.113L193.668 185.314C195.983 186.647 199.945 190.165 199.945 192.517C199.945 192.758 200.205 193.147 200.186 193.387C200.964 196.313 199.297 199.479 195.538 201.646C195.538 201.646 193.576 202.812 192.039 203.498C187.317 205.831 179.558 208.682 176.559 208.071C173.565 207.699 170.673 206.749 168.041 205.275L113.249 173.204L58.606 141.133C56.2914 139.8 53.051 136.3 52.6621 133.967C52.1251 130.652 54.9026 126.375 58.9208 124.023Z"
              fill="black"/>
        <path opacity="0.45"
              d="M59.8813 125.683C59.8813 125.683 63.7514 124.146 64.7883 123.831C67.788 122.498 70.5656 120.331 72.7506 121.59L131.893 153.643L136.689 156.236L191.018 185.566C192.999 186.714 197.425 190.27 197.425 192.288C197.425 192.492 197.777 192.899 197.74 193.103C198.851 195.843 197.351 198.973 193.647 201.12C193.647 201.12 191.61 202.343 190.296 202.972C185.759 205.231 178.371 207.731 175.482 206.972C172.613 206.482 169.85 205.498 167.316 204.065L114.302 172.975L61.5293 141.996C59.548 140.848 55.5484 137.348 55.5484 135.33C54.1966 132.349 55.9557 127.942 59.8813 125.683Z"
              fill="black"/>
        <path opacity="0.55"
              d="M60.8655 127.319C60.8655 127.319 64.4023 125.93 65.6429 125.652C68.5686 124.449 71.3646 122.578 73.42 123.801L130.915 154.742L135.563 157.353L188.373 185.814C190.021 186.758 194.928 190.387 194.928 192.054C194.928 192.239 195.335 192.628 195.317 192.795C196.724 195.368 195.317 198.479 191.78 200.572C191.78 200.572 189.651 201.886 188.558 202.423C184.207 204.627 177.207 206.756 174.244 205.83C171.511 205.223 168.884 204.212 166.449 202.831L115.361 172.759L64.4578 142.873C62.7913 141.91 58.3843 138.373 58.3843 136.688C57.9267 135.912 57.6279 135.052 57.505 134.159C57.3821 133.266 57.4377 132.357 57.6685 131.485C57.8993 130.614 58.3007 129.797 58.8495 129.082C59.3983 128.367 60.0835 127.767 60.8655 127.319Z"
              fill="black"/>
        <path opacity="0.64"
              d="M61.8267 128.948C61.8267 128.948 65.0301 127.707 66.4929 127.374C69.326 126.3 72.2147 124.744 74.0663 125.874L129.932 155.89L134.45 158.334L185.723 185.905C187.038 186.683 192.408 190.35 192.408 191.683C192.408 191.831 192.908 192.238 192.889 192.368C194.593 194.757 193.482 197.923 189.889 199.904C189.889 199.904 187.686 201.293 186.816 201.756C182.631 203.885 176.039 205.663 173.095 204.589C170.505 203.867 168.017 202.822 165.688 201.478L116.396 172.536L67.3632 143.743C66.0485 142.983 61.2527 139.391 61.2527 138.058C59.401 135.503 58.0863 131.114 61.8267 128.948Z"
              fill="black"/>
        <path opacity="0.73"
              d="M62.7912 130.574C64.2827 130.006 65.8032 129.518 67.3464 129.111C70.0869 128.167 72.9014 126.889 74.7531 127.963L128.915 157.035L133.322 159.405L183.058 186.106C184.058 186.68 189.891 190.402 189.891 191.402C189.891 191.513 190.447 191.92 190.447 192.032C192.446 194.235 191.521 197.272 187.984 199.309C187.984 199.309 185.706 200.809 185.058 201.16C181.059 203.197 174.855 204.623 171.911 203.382C169.44 202.546 167.059 201.467 164.801 200.161L117.398 172.385L70.3646 144.61C69.3832 144.036 64.1985 140.425 64.1985 139.407C61.995 137.073 59.1434 132.685 62.7912 130.574Z"
              fill="black"/>
        <path opacity="0.82"
              d="M63.7718 132.201C65.221 131.665 66.6984 131.207 68.1973 130.831C70.8452 130.017 73.7524 128.98 75.4744 130.054L127.97 158.199L132.229 160.477L180.373 186.4C181.039 186.789 187.353 190.548 187.353 191.233C187.353 191.233 187.983 191.696 187.965 191.77C190.279 193.807 189.538 196.825 186.113 198.825C186.113 198.825 183.761 200.399 183.317 200.677C179.613 202.64 173.707 203.695 170.781 202.325C168.468 201.373 166.222 200.266 164.059 199.01L118.508 172.161L73.2154 145.478C72.5488 145.089 66.9937 141.441 66.9937 140.775C64.605 138.645 60.2165 134.257 63.7718 132.201Z"
              fill="black"/>
        <path opacity="0.91"
              d="M64.8089 133.834C66.2175 133.338 67.6515 132.918 69.1048 132.575C71.6787 131.889 74.6599 131.223 76.2338 132.167L126.989 159.35L131.118 161.553L177.762 186.514C180.209 187.835 182.582 189.288 184.872 190.866C184.872 190.866 185.576 191.31 185.576 191.347C188.187 193.199 187.631 196.18 184.206 198.161C184.206 198.161 181.78 199.809 181.558 199.92C177.854 201.772 172.522 202.513 169.596 200.976C169.244 200.976 163.504 197.717 163.245 197.569L119.545 171.867L76.1412 146.351C73.9586 145.073 71.8561 143.663 69.8455 142.129C67.1976 140.24 61.2722 135.833 64.8089 133.834Z"
              fill="black"/>
        <path d="M168.503 199.791L120.581 171.645L72.7149 143.5C69.8078 141.815 62.3269 137.426 65.697 135.482C65.697 135.482 73.9185 132.575 76.8071 134.26L130.006 162.628L183.168 190.995C186.094 192.681 185.723 195.625 182.353 197.569L179.835 199.31C178.114 200.265 176.193 200.806 174.226 200.89C172.259 200.973 170.299 200.597 168.503 199.791Z"
              fill="black"/>
    </g>
    <path d="M116.526 29.8982V40.1381L47.773 0.456399C47.213 0.154016 46.5845 0.00106326 45.9482 0.0122957C45.3118 0.0235281 44.6891 0.198567 44.1401 0.520526C43.5911 0.842485 43.1343 1.3005 42.8139 1.85038C42.4934 2.40026 42.32 3.02344 42.3105 3.65982V130.093L173.484 206.346C174.995 207.219 176.713 207.667 178.458 207.64C180.202 207.614 181.907 207.116 183.391 206.197L186.205 204.457C187.468 203.675 188.511 202.585 189.236 201.29C189.962 199.994 190.346 198.535 190.353 197.05V71.9316C190.352 70.19 189.894 68.4792 189.022 66.971C188.151 65.4629 186.899 64.2105 185.391 63.3397L121.989 26.7504C121.433 26.4499 120.809 26.2967 120.177 26.3054C119.546 26.314 118.926 26.4842 118.379 26.7997C117.831 27.1152 117.374 27.5656 117.049 28.1079C116.725 28.6503 116.545 29.2666 116.526 29.8982Z"
          fill="url(#paint0_linear_1271_468)"/>
    <g style="mix-blend-mode:color-dodge">
        <path d="M46.292 1.70021L115.027 41.4004V39.271L47.7734 0.459578C46.9748 0.0197163 46.0421 -0.110149 45.1538 0.0948463C44.2655 0.299842 43.484 0.825293 42.959 1.57059C43.4832 1.31952 44.0607 1.2001 44.6416 1.22269C45.2224 1.24528 45.7889 1.40919 46.292 1.70021Z"
              fill="url(#paint1_radial_1271_468)"/>
        <path d="M185.392 63.3419L121.99 26.7525C121.192 26.3127 120.259 26.1828 119.371 26.3878C118.482 26.5928 117.701 27.1183 117.176 27.8636C117.698 27.6157 118.272 27.4979 118.849 27.5205C119.426 27.5431 119.989 27.7053 120.49 27.9932L183.892 64.6011C185.404 65.4695 186.66 66.7209 187.535 68.2292C188.409 69.7375 188.871 71.4495 188.873 73.1929V198.256C188.869 200.501 188.008 202.66 186.466 204.292C187.664 203.493 188.648 202.411 189.329 201.142C190.01 199.873 190.369 198.456 190.373 197.015V71.9337C190.371 70.1903 189.909 68.4783 189.034 66.97C188.16 65.4617 186.904 64.2104 185.392 63.3419Z"
              fill="url(#paint2_radial_1271_468)"/>
    </g>
    <path d="M35.5508 118.841L183.593 204.296V91.9544L35.5508 6.48047V118.841Z" fill="white"/>
    <g style="mix-blend-mode:multiply" opacity="0.7">
        <path d="M35.5508 122.577L180.964 206.532V101.467L35.5508 17.5117V122.577Z" fill="#C7BCD6"/>
    </g>
    <path d="M36.6998 127.134L173.725 206.257C175.128 207.068 176.716 207.506 178.337 207.529C179.958 207.552 181.558 207.158 182.983 206.387L183.891 205.905L182.946 206.257C182.43 206.456 181.873 206.525 181.323 206.46C180.774 206.395 180.249 206.197 179.793 205.884C179.337 205.57 178.965 205.15 178.707 204.66C178.45 204.171 178.316 203.625 178.317 203.072V109.006C178.32 107.264 177.863 105.552 176.991 104.043C176.12 102.534 174.865 101.282 173.354 100.415L35.7555 20.9586C35.205 20.6605 34.5879 20.5068 33.9618 20.5118C33.3358 20.5169 32.7213 20.6806 32.1757 20.9876C31.6301 21.2946 31.1712 21.7349 30.842 22.2674C30.5127 22.7999 30.3239 23.4071 30.293 24.0324V116.024C30.2907 118.276 30.8816 120.488 32.0064 122.439C33.1311 124.389 34.75 126.009 36.6998 127.134Z"
          fill="url(#paint3_linear_1271_468)"/>
    <path style="mix-blend-mode:color-dodge"
          d="M182.965 206.255C182.448 206.454 181.891 206.524 181.342 206.459C180.792 206.393 180.267 206.196 179.811 205.882C179.356 205.568 178.983 205.149 178.726 204.659C178.469 204.169 178.335 203.624 178.335 203.071V109.005C178.339 107.262 177.881 105.55 177.01 104.041C176.138 102.533 174.884 101.281 173.373 100.413L35.7554 20.957C35.0243 20.5536 34.1784 20.4091 33.3549 20.5469C32.5314 20.6847 31.7786 21.0968 31.2188 21.7162C31.7323 21.4907 32.292 21.3899 32.8519 21.4221C33.4119 21.4543 33.9563 21.6185 34.4407 21.9014L172.058 101.339C173.566 102.21 174.819 103.462 175.69 104.97C176.561 106.478 177.02 108.189 177.021 109.931V204.015C177.031 204.831 177.334 205.616 177.874 206.228C178.414 206.84 179.156 207.237 179.965 207.348C181.029 207.198 182.057 206.86 183.002 206.348L183.909 205.867L182.965 206.255Z"
          fill="url(#paint4_radial_1271_468)"/>
    <path d="M143.079 102.712C131.228 95.972 119.637 85.1396 109.915 71.7519H109.786C100.064 73.9369 88.4728 71.3816 76.622 64.3452L76.1591 64.0859L69.9004 67.6597L77.0849 72.3815C79.344 102.397 91.0467 127.025 109.897 156.207L110.36 156.467C113.748 155.133 108.619 158.207 111.526 156.467L119.915 151.967C132.987 144.56 141.061 132.95 142.894 110.693L143.542 102.897L143.079 102.712Z"
          fill="url(#paint5_linear_1271_468)"/>
    <path d="M143.081 102.71C131.23 95.9701 119.639 85.1377 109.917 71.75H109.788H109.603L85.7344 85.508L134.6 107.913L143.544 102.969L143.081 102.71Z"
          fill="url(#paint6_linear_1271_468)"/>
    <path style="mix-blend-mode:screen"
          d="M137.58 105.782C125.729 99.0423 114.138 88.2285 104.416 74.8222H104.287C94.5655 77.0072 82.9739 74.4334 71.1231 67.4155L70.6602 67.1562L71.3082 75.6925C73.5673 105.69 85.27 130.317 104.12 159.481L104.583 159.759C123.433 152.352 135.154 141.242 137.395 113.837L138.043 106.023L137.58 105.782Z"
          fill="url(#paint7_radial_1271_468)"/>
    <path d="M136.709 106.112C124.858 99.39 113.267 88.5761 103.545 75.1699H103.416C93.6944 77.3549 82.1028 74.781 70.252 67.7631L69.7891 67.5039L70.3631 76.0217C72.6036 106.038 84.3248 130.665 103.175 159.829L103.638 160.107C122.488 152.7 134.191 141.59 136.45 114.166L137.079 106.371L136.709 106.112Z"
          fill="url(#paint8_linear_1271_468)"/>
    <path style="mix-blend-mode:color-dodge"
          d="M136.711 106.118L136.119 105.785L135.489 113.507C133.323 140.801 121.62 151.929 102.918 159.317L103.251 159.836L103.714 160.114C122.564 152.707 134.267 141.597 136.526 114.173L137.156 106.378L136.711 106.118Z"
          fill="url(#paint9_radial_1271_468)"/>
    <path d="M104.917 155.643C87.9742 129.126 76.3086 105.184 74.0681 75.7423L73.9199 73.8906C80.8596 77.4278 88.5019 79.37 96.2883 79.5753C98.1477 79.5822 100.005 79.446 101.843 79.1679C110.355 90.846 121.044 100.768 133.322 108.388L132.859 113.943C130.804 139.07 120.675 148.921 104.917 155.643Z"
          fill="url(#paint10_linear_1271_468)"/>
    <path d="M107.121 135.778L99.2324 131.223V95.0781L107.121 99.6333V135.778Z" fill="url(#paint11_linear_1271_468)"/>
    <path style="mix-blend-mode:multiply" opacity="0.7"
          d="M101.64 129.668V96.4669L99.2324 95.0781V131.223L107.121 135.778V132.853L101.64 129.668Z"
          fill="url(#paint12_linear_1271_468)"/>
    <g opacity="0.2">
        <path opacity="0.09"
              d="M102.197 135.69C102.197 135.69 98.4935 134.153 98.3638 134.134C97.1788 133.505 93.3273 136.079 89.3646 139.282C84.6799 143.097 79.1989 147.948 78.2545 148.541L49.6089 164.761L45.9055 166.854L13.6676 185.334C11.932 186.33 10.6163 187.922 9.96424 189.815C9.78459 190.416 9.68498 191.039 9.66797 191.666C9.71854 193.182 10.1837 194.655 11.013 195.925C11.8422 197.195 13.0037 198.214 14.3713 198.869C14.3713 198.869 16.0193 199.74 18.0746 200.721C21.8891 202.573 27.5182 205.017 29.5366 204.999C30.8285 204.986 32.1146 204.824 33.3696 204.517C34.4417 204.233 35.4743 203.816 36.4434 203.277L64.8113 184.982L70.6626 181.278L93.3087 166.78C94.4692 166.18 95.4546 165.291 96.1685 164.197C96.8825 163.103 97.3008 161.843 97.3825 160.54C98.0373 157.584 98.8532 154.666 99.8267 151.8C101.715 145.133 104.197 136.838 102.197 135.69Z"
              fill="black"/>
        <path opacity="0.18"
              d="M98.8831 138.714C98.8831 138.714 95.439 137.306 95.1797 137.269C93.9576 136.64 90.2542 138.917 86.5879 141.88C82.3845 145.287 76.885 149.99 75.9777 150.509L48.9431 165.933L45.5545 167.896L15.0386 185.302C13.3544 186.223 12.0446 187.703 11.3353 189.487C11.1517 190.013 11.0396 190.561 11.002 191.116C11.0028 192.549 11.4128 193.951 12.1837 195.158C12.9546 196.366 14.0543 197.327 15.3534 197.931C15.3534 197.931 16.9829 198.819 18.8531 199.782C22.4454 201.504 27.7042 203.763 29.6855 203.708C30.8981 203.695 32.1046 203.533 33.2778 203.226C34.2868 202.947 35.2571 202.542 36.1664 202.023L63.0529 184.765L68.608 181.228L89.9024 167.544C90.9922 166.976 91.9233 166.145 92.6119 165.127C93.3004 164.108 93.7247 162.935 93.8465 161.712C93.8465 160.804 95.2723 157.286 96.3278 153.694C98.1424 147.546 100.883 139.862 98.8831 138.714Z"
              fill="black"/>
        <path opacity="0.27"
              d="M95.5698 141.73C95.5698 141.73 92.4219 140.453 92.1441 140.379C90.885 139.786 87.3483 141.768 83.9782 144.471C80.2748 147.471 74.7197 152.026 73.905 152.489L48.4258 167.025L45.1668 168.876L16.4101 185.264C14.8904 186.168 13.6874 187.519 12.9659 189.134C12.7883 189.625 12.6642 190.134 12.5956 190.652C12.5646 191.996 12.9265 193.32 13.637 194.461C14.3474 195.603 15.3756 196.512 16.5952 197.077C16.5952 197.077 18.2247 197.966 19.8727 198.781C23.2243 200.392 28.1313 202.484 30.0755 202.355C31.1802 202.301 32.2743 202.114 33.3345 201.799C34.2699 201.519 35.1706 201.134 36.0195 200.651L61.2209 184.449L66.3871 181.134L86.4039 168.173C87.4079 167.65 88.2788 166.904 88.9497 165.993C89.6205 165.081 90.0735 164.028 90.2739 162.914C90.2739 162.099 91.8479 158.71 92.8293 155.507C94.5513 149.952 97.5511 142.879 95.5698 141.73Z"
              fill="black"/>
        <path opacity="0.36"
              d="M92.2374 144.731C92.2374 144.731 89.3858 143.583 89.034 143.49C87.7378 142.934 84.3493 144.601 81.294 147.045C78.2387 149.489 72.4614 154.082 71.7763 154.452L47.8525 168.117L44.7972 169.858L17.7811 185.246C16.3339 186.092 15.1632 187.34 14.411 188.838C14.222 189.29 14.0853 189.762 14.0036 190.245C13.9338 191.509 14.2509 192.763 14.9126 193.842C15.5743 194.92 16.5491 195.771 17.707 196.282C17.707 196.282 19.2994 197.17 20.7438 197.893C23.8731 199.411 28.4097 201.244 30.317 201.133C31.3758 201.087 32.4258 200.919 33.4463 200.633C34.3199 200.361 35.1588 199.988 35.9461 199.522L59.444 184.301L64.2769 181.172L82.9975 169.117C83.9363 168.606 84.7534 167.898 85.3927 167.042C86.0319 166.185 86.4782 165.2 86.7009 164.155C86.7009 163.451 88.4415 160.192 89.3303 157.433C90.9783 152.378 94.2373 145.879 92.2374 144.731Z"
              fill="black"/>
        <path opacity="0.45"
              d="M88.8828 147.747C88.8828 147.747 86.3275 146.729 85.8831 146.618C84.5499 146.081 81.3279 147.432 78.5689 149.636C75.8099 151.839 70.1808 156.117 69.5882 156.469L47.2569 169.208L44.4423 170.819L19.1482 185.133C17.8264 185.927 16.72 187.033 15.9263 188.355C15.7343 188.766 15.5794 189.194 15.4634 189.632C15.3651 190.786 15.63 191.942 16.221 192.938C16.812 193.934 17.6995 194.721 18.7594 195.187C18.7594 195.187 20.3333 196.113 21.5925 196.724C24.4811 198.132 28.6474 199.761 30.5176 199.613C31.5025 199.558 32.4779 199.39 33.4248 199.113C34.2209 198.832 34.9895 198.479 35.7209 198.058L57.6263 183.892L62.1259 180.985L79.6244 169.893C81.0872 169.06 83.1981 166.857 83.1981 165.375C83.1981 164.764 85.0498 161.672 85.9386 159.302C87.4015 154.802 90.9012 148.895 88.8828 147.747Z"
              fill="black"/>
        <path opacity="0.55"
              d="M85.5877 150.766C85.5877 150.766 83.3286 149.951 82.8102 149.729C81.4399 149.211 78.3846 150.266 75.9219 152.21C73.4591 154.155 67.9781 158.154 67.4782 158.45L46.6652 170.32L44.0173 171.838L20.5194 185.133C19.2986 185.886 18.246 186.882 17.427 188.059C17.232 188.426 17.0709 188.81 16.9456 189.207C16.7769 190.284 16.9732 191.387 17.5033 192.34C18.0334 193.293 18.8669 194.041 19.8713 194.466C19.8713 194.466 21.4452 195.392 22.4821 195.91C25.0418 197.305 27.8573 198.168 30.7592 198.447C31.6762 198.382 32.5831 198.214 33.4627 197.947C34.1904 197.66 34.896 197.32 35.5736 196.929L55.8125 183.782L59.9788 181.097L76.07 170.635C77.2921 169.986 79.6252 167.839 79.6252 166.616C79.6252 166.116 81.7177 163.135 82.4398 161.191C83.8286 157.191 87.569 151.914 85.5877 150.766Z"
              fill="black"/>
        <path opacity="0.64"
              d="M82.2722 153.778C82.2722 153.778 80.4205 153 79.6984 152.852C78.5422 152.705 77.368 152.802 76.2517 153.137C75.1353 153.471 74.1017 154.037 73.2175 154.796C71.3658 156.278 65.8107 160.203 65.3293 160.351L46.0717 171.295L43.6275 172.702L21.8887 185.127C21.148 185.553 19.1482 186.978 18.9445 187.719C18.7118 188.034 18.5305 188.384 18.4075 188.756C17.852 190.478 18.7778 192.33 20.9998 193.608C20.9998 193.608 22.5367 194.552 23.37 194.959C25.7262 196.25 28.3366 197.008 31.0175 197.181C31.8539 197.093 32.6792 196.919 33.4802 196.663C34.1149 196.377 34.7331 196.055 35.3319 195.7L53.9414 183.571L57.7559 181.09L72.5694 171.443C73.5322 170.887 75.9024 168.776 75.9024 167.739C75.9024 167.332 78.18 164.499 78.791 162.962C80.2539 159.592 84.2535 154.926 82.2722 153.778Z"
              fill="black"/>
        <path opacity="0.73"
              d="M78.9383 156.803C78.9383 156.803 77.3089 156.155 76.5682 155.97C75.5196 155.767 74.4402 155.788 73.4002 156.031C72.3602 156.273 71.3828 156.732 70.5317 157.377C69.1059 158.488 63.4767 162.247 63.1249 162.413L45.4413 172.468L43.1822 173.746L23.2581 185.134C22.2017 185.726 21.2557 186.496 20.462 187.411C20.2216 187.68 20.0276 187.986 19.888 188.319C19.2399 189.874 20.0361 191.596 22.11 192.8C22.11 192.8 23.6469 193.762 24.258 194.059C26.4113 195.239 28.8206 195.875 31.2759 195.91C32.0399 195.823 32.7915 195.649 33.5164 195.392C34.0885 195.087 34.6447 194.753 35.1829 194.392L52.1444 183.282L55.6256 181.004L69.1614 172.172C69.8836 171.764 72.3834 169.709 72.3834 168.968C72.3834 168.654 74.8461 165.987 75.3461 164.839C76.6793 161.988 80.9197 157.932 78.9383 156.803Z"
              fill="black"/>
        <path opacity="0.82"
              d="M75.6271 159.819C75.6271 159.819 74.2753 159.301 73.4606 159.079C72.5233 158.837 71.5462 158.791 70.5904 158.944C69.6345 159.097 68.7205 159.445 67.9055 159.968C66.9426 160.69 61.295 164.282 61.0913 164.393L44.9631 173.652L42.9262 174.818L24.6316 185.132C23.6749 185.645 22.7802 186.267 21.9651 186.984C21.723 187.217 21.5171 187.486 21.3541 187.78C20.6319 189.15 21.3541 190.743 23.2058 191.854C23.2058 191.854 24.7056 192.835 25.0574 193.039C27.0129 194.107 29.2189 194.631 31.4458 194.557C32.1304 194.453 32.8012 194.273 33.4456 194.02C33.6678 194.02 34.7973 193.261 34.9825 193.168L50.296 183.077L53.4438 181.003L65.6094 172.985C66.1094 172.689 68.7017 170.689 68.7017 170.207C68.7017 170.004 71.5533 167.541 71.7755 166.726C73.6272 164.763 77.5898 160.949 75.6271 159.819Z"
              fill="black"/>
        <path opacity="0.91"
              d="M72.2165 162.914C72.2165 162.914 71.1796 162.544 70.3649 162.303C68.6599 161.729 66.7976 161.849 65.1801 162.637C64.6802 162.988 59.014 166.34 58.9029 166.488L44.3301 174.747L42.4784 175.784L25.9243 185.135C25.049 185.634 24.2078 186.191 23.406 186.801C23.1536 186.985 22.9344 187.21 22.7579 187.468C21.9432 188.634 22.4987 190.116 24.2763 191.171C24.2763 191.171 25.7577 192.171 25.9799 192.264C27.7363 193.21 29.7335 193.616 31.7201 193.43C32.3554 193.321 32.9765 193.141 33.5718 192.893C33.6644 192.893 34.8124 192.134 34.905 192.078L48.5705 183.005L51.3851 181.153L62.2545 173.932C63.3087 173.243 64.3002 172.462 65.2172 171.599C66.3147 170.709 67.3654 169.764 68.365 168.766C70.0871 167.099 74.2719 163.97 72.2165 162.914Z"
              fill="black"/>
        <path d="M33.5945 191.485L49.2412 181.004L64.8139 170.524C66.5175 169.542 70.8875 166.987 68.9247 165.839C68.9247 165.839 64.1288 164.154 62.4068 165.135L43.7417 175.745L25.0026 186.356C23.2991 187.337 23.5028 189.059 25.4841 190.189L26.9469 191.207C27.9536 191.777 29.0814 192.099 30.2372 192.148C31.393 192.196 32.5438 191.969 33.5945 191.485Z"
              fill="black"/>
    </g>
    <path d="M103.435 97.543L46.8848 129.67V162.834L103.713 130.022L105.343 124.207L106.898 99.5428L103.435 97.543Z"
          fill="url(#paint13_linear_1271_468)"/>
    <path d="M106.897 99.4844L50.3652 131.611V164.775L106.897 132.13V99.4844Z" fill="url(#paint14_linear_1271_468)"/>
    <path d="M106.896 106.781L58.5117 134.408V150.777L106.896 123.15V106.781Z" fill="url(#paint15_linear_1271_468)"/>
    <path d="M106.896 121.406L58.5117 149.033V150.774L106.896 123.147V121.406Z" fill="#7A52C3"/>
    <path d="M52.6249 114.356L47.0698 111.523C46.2465 111.083 45.3151 110.886 44.384 110.955C43.453 111.024 42.5606 111.356 41.811 111.912L18.0909 125.652C16.0021 127.005 14.2626 128.832 13.0141 130.985C11.7655 133.137 11.0433 135.555 10.9064 138.04V186.498C10.7718 187.481 10.9542 188.482 11.4271 189.354C11.8999 190.227 12.6386 190.926 13.5358 191.35L19.0908 194.331V191.535L19.4426 191.35L43.2368 177.61C45.3246 176.256 47.0633 174.429 48.3117 172.276C49.5601 170.124 50.283 167.707 50.4214 165.222V116.764C50.4214 116.504 50.4214 116.264 50.4214 116.023L52.6249 114.356ZM34.8857 161.908C34.7621 164.158 34.109 166.347 32.9797 168.297C31.8503 170.247 30.2764 171.902 28.3863 173.129L27.0161 173.907C23.4238 175.981 20.5166 174.333 20.5166 170.203V163.741L25.1273 136.688C25.6848 136.134 26.3064 135.649 26.979 135.244L28.3493 134.447C31.9415 132.373 34.8487 134.04 34.8487 138.151L34.8857 161.908Z"
          fill="url(#paint16_linear_1271_468)"/>
    <path d="M47.4592 114.763L23.665 128.577C21.5773 129.93 19.8385 131.758 18.5901 133.911C17.3417 136.063 16.6189 138.48 16.4805 140.964V189.423C16.4805 193.978 19.7024 195.811 23.665 193.515L47.4592 179.776C49.5501 178.425 51.2912 176.598 52.54 174.445C53.7888 172.292 54.5097 169.873 54.6438 167.388V118.929C54.6438 114.374 51.4403 112.541 47.4592 114.763ZM38.997 164.073C38.8749 166.321 38.2224 168.508 37.0927 170.455C35.963 172.402 34.3884 174.054 32.4976 175.276L31.1273 176.072C27.535 178.146 24.6279 176.498 24.6279 172.369V148.612C24.7642 146.38 25.4235 144.212 26.5526 142.282C27.6816 140.352 29.2487 138.714 31.1273 137.502L32.4976 136.705C36.0898 134.632 38.997 136.28 38.997 140.409V164.073Z"
          fill="url(#paint17_linear_1271_468)"/>
    <g style="mix-blend-mode:color-dodge">
        <path d="M31.8864 176.065L33.2566 175.269C35.1474 174.047 36.7221 172.395 37.8518 170.448C38.9814 168.501 39.634 166.314 39.7561 164.066V140.309C39.7561 137.606 38.4969 135.976 36.6452 135.754C37.3441 136.197 37.9041 136.828 38.261 137.575C38.618 138.321 38.7575 139.154 38.6636 139.976V163.751C38.5363 165.996 37.8835 168.179 36.7577 170.125C35.632 172.071 34.0649 173.725 32.1827 174.954L30.8124 175.75C29.8003 176.383 28.6148 176.681 27.4238 176.602C28.1527 176.896 28.9439 177 29.724 176.906C30.5041 176.813 31.2479 176.523 31.8864 176.065Z"
              fill="url(#paint18_radial_1271_468)"/>
        <path d="M17.24 189.419V140.961C17.3784 138.476 18.1012 136.059 19.3496 133.907C20.598 131.754 22.3368 129.927 24.4245 128.573L48.1447 114.759C49.2701 114.032 50.6056 113.7 51.9406 113.815C51.1404 113.513 50.2786 113.411 49.43 113.517C48.5814 113.624 47.7716 113.936 47.0707 114.426L23.3506 128.24C21.2545 129.598 19.5104 131.434 18.2614 133.597C17.0125 135.76 16.2944 138.189 16.166 140.683V189.16C16.166 192.104 17.5177 193.9 19.5546 194.178C18.7478 193.696 18.0992 192.989 17.6881 192.144C17.277 191.299 17.1213 190.352 17.24 189.419Z"
              fill="url(#paint19_radial_1271_468)"/>
    </g>
    <path style="mix-blend-mode:color-dodge"
          d="M17.2948 149.812C26.8464 149.812 34.5895 142.069 34.5895 132.517C34.5895 122.966 26.8464 115.223 17.2948 115.223C7.74313 115.223 0 122.966 0 132.517C0 142.069 7.74313 149.812 17.2948 149.812Z"
          fill="url(#paint20_radial_1271_468)"/>
    <path d="M106.843 109.539C105.92 110.329 105.166 111.297 104.625 112.385C104.085 113.473 103.768 114.659 103.695 115.872C103.695 118.075 105.029 119.131 106.825 118.594L106.843 109.539Z"
          fill="url(#paint21_linear_1271_468)"/>
    <path d="M76.3657 126.687C75.1874 127.453 74.2061 128.486 73.5016 129.702C72.797 130.918 72.389 132.284 72.3105 133.687C72.3105 136.261 74.1622 137.39 76.3657 136.001C77.5441 135.235 78.5253 134.202 79.2299 132.986C79.9345 131.77 80.3425 130.405 80.4209 129.002C80.4209 126.428 78.6063 125.391 76.3657 126.687Z"
          fill="url(#paint22_linear_1271_468)"/>
    <path d="M65.8833 132.631C64.705 133.397 63.7237 134.43 63.0192 135.646C62.3146 136.862 61.9066 138.227 61.8281 139.631C61.8281 142.204 63.6798 143.241 65.8833 141.945C67.0641 141.18 68.0482 140.148 68.7559 138.932C69.4636 137.716 69.8751 136.35 69.957 134.946C69.957 132.372 68.1239 131.428 65.8833 132.631Z"
          fill="url(#paint23_linear_1271_468)"/>
    <path d="M97.3061 114.763C96.1233 115.526 95.1377 116.558 94.4297 117.774C93.7217 118.99 93.3115 120.357 93.2324 121.762C93.2324 124.336 95.0841 125.466 97.3061 124.077C98.4849 123.307 99.4661 122.271 100.17 121.051C100.875 119.832 101.283 118.465 101.361 117.059C101.361 114.559 99.5467 113.522 97.3061 114.763Z"
          fill="url(#paint24_linear_1271_468)"/>
    <path d="M86.8247 120.743C85.6498 121.508 84.6709 122.538 83.9666 123.75C83.2623 124.963 82.8523 126.324 82.7695 127.723C82.7695 130.297 84.6212 131.334 86.8247 130.038C88.0051 129.274 88.988 128.242 89.6928 127.025C90.3976 125.809 90.8044 124.443 90.8799 123.039C90.8799 120.483 89.0653 119.446 86.8247 120.743Z"
          fill="url(#paint25_linear_1271_468)"/>
    <defs>
        <linearGradient id="paint0_linear_1271_468" x1="116.211" y1="102.077" x2="130.618" y2="-91.8503"
                        gradientUnits="userSpaceOnUse">
            <stop offset="0.03" stop-color="#7C1DC9"/>
            <stop offset="0.21" stop-color="#6E41D2"/>
            <stop offset="0.62" stop-color="#4C9BE8"/>
            <stop offset="1" stop-color="#2AF6FF"/>
        </linearGradient>
        <radialGradient id="paint1_radial_1271_468" cx="0" cy="0" r="1" gradientUnits="userSpaceOnUse"
                        gradientTransform="translate(78.9928 20.68) scale(29.3863 29.3863)">
            <stop stop-color="white"/>
            <stop offset="1"/>
        </radialGradient>
        <radialGradient id="paint2_radial_1271_468" cx="0" cy="0" r="1" gradientUnits="userSpaceOnUse"
                        gradientTransform="translate(138.729 84.6919) scale(52.9768 52.9768)">
            <stop stop-color="white"/>
            <stop offset="1"/>
        </radialGradient>
        <linearGradient id="paint3_linear_1271_468" x1="37.8108" y1="386.038" x2="143.024" y2="-25.8706"
                        gradientUnits="userSpaceOnUse">
            <stop offset="0.03" stop-color="#7C1DC9"/>
            <stop offset="0.21" stop-color="#6E41D2"/>
            <stop offset="0.62" stop-color="#4C9BE8"/>
            <stop offset="1" stop-color="#2AF6FF"/>
        </linearGradient>
        <radialGradient id="paint4_radial_1271_468" cx="0" cy="0" r="1" gradientUnits="userSpaceOnUse"
                        gradientTransform="translate(86.7509 114.43) scale(85.3258 85.3258)">
            <stop stop-color="white"/>
            <stop offset="1"/>
        </radialGradient>
        <linearGradient id="paint5_linear_1271_468" x1="130.543" y1="142.264" x2="93.5094" y2="60.6603"
                        gradientUnits="userSpaceOnUse">
            <stop offset="0.03" stop-color="#7C1DC9"/>
            <stop offset="0.21" stop-color="#6E41D2"/>
            <stop offset="0.62" stop-color="#4C9BE8"/>
            <stop offset="1" stop-color="#2AF6FF"/>
        </linearGradient>
        <linearGradient id="paint6_linear_1271_468" x1="108.529" y1="129.912" x2="117.898" y2="75.1756"
                        gradientUnits="userSpaceOnUse">
            <stop offset="0.03" stop-color="#7C1DC9"/>
            <stop offset="0.21" stop-color="#6E41D2"/>
            <stop offset="0.62" stop-color="#4C9BE8"/>
            <stop offset="1" stop-color="#2AF6FF"/>
        </linearGradient>
        <radialGradient id="paint7_radial_1271_468" cx="0" cy="0" r="1" gradientUnits="userSpaceOnUse"
                        gradientTransform="translate(129.192 99.9867) scale(54.4582 54.4582)">
            <stop offset="0.36" stop-color="white"/>
            <stop offset="0.43" stop-color="#E1E1E1"/>
            <stop offset="0.64" stop-color="#828282"/>
            <stop offset="0.81" stop-color="#3C3C3C"/>
            <stop offset="0.94" stop-color="#111111"/>
            <stop offset="1"/>
        </radialGradient>
        <linearGradient id="paint8_linear_1271_468" x1="73.5295" y1="169.013" x2="142.931" y2="-3.11949"
                        gradientUnits="userSpaceOnUse">
            <stop offset="0.03" stop-color="#7C1DC9"/>
            <stop offset="0.21" stop-color="#6E41D2"/>
            <stop offset="0.62" stop-color="#4C9BE8"/>
            <stop offset="1" stop-color="#2AF6FF"/>
        </linearGradient>
        <radialGradient id="paint9_radial_1271_468" cx="0" cy="0" r="1" gradientUnits="userSpaceOnUse"
                        gradientTransform="translate(131.545 159.891) scale(22.6832)">
            <stop stop-color="#FF63CE"/>
            <stop offset="1"/>
        </radialGradient>
        <linearGradient id="paint10_linear_1271_468" x1="60.273" y1="201.546" x2="126.6" y2="43.2452"
                        gradientUnits="userSpaceOnUse">
            <stop offset="0.03" stop-color="#7C1DC9"/>
            <stop offset="0.21" stop-color="#6E41D2"/>
            <stop offset="0.62" stop-color="#4C9BE8"/>
            <stop offset="1" stop-color="#2AF6FF"/>
        </linearGradient>
        <linearGradient id="paint11_linear_1271_468" x1="121.804" y1="128.02" x2="91.048" y2="107.225"
                        gradientUnits="userSpaceOnUse">
            <stop stop-color="#9F79C8"/>
            <stop offset="0.14" stop-color="#A27DCA"/>
            <stop offset="0.27" stop-color="#AC88CF"/>
            <stop offset="0.4" stop-color="#BC9BD7"/>
            <stop offset="0.52" stop-color="#D1B4E3"/>
            <stop offset="0.65" stop-color="#DBC4E9"/>
            <stop offset="0.9" stop-color="#F4EDF8"/>
            <stop offset="1" stop-color="white"/>
        </linearGradient>
        <linearGradient id="paint12_linear_1271_468" x1="101.936" y1="115.761" x2="162.93" y2="99.1889"
                        gradientUnits="userSpaceOnUse">
            <stop offset="0.03" stop-color="#7C1DC9"/>
            <stop offset="0.21" stop-color="#6E41D2"/>
            <stop offset="0.62" stop-color="#4C9BE8"/>
            <stop offset="1" stop-color="#2AF6FF"/>
        </linearGradient>
        <linearGradient id="paint13_linear_1271_468" x1="12.9433" y1="151.686" x2="133.618" y2="110.005"
                        gradientUnits="userSpaceOnUse">
            <stop stop-color="#9F79C8"/>
            <stop offset="0.14" stop-color="#A27DCA"/>
            <stop offset="0.27" stop-color="#AC88CF"/>
            <stop offset="0.4" stop-color="#BC9BD7"/>
            <stop offset="0.52" stop-color="#D1B4E3"/>
            <stop offset="0.65" stop-color="#DBC4E9"/>
            <stop offset="0.9" stop-color="#F4EDF8"/>
            <stop offset="1" stop-color="white"/>
        </linearGradient>
        <linearGradient id="paint14_linear_1271_468" x1="62.4197" y1="143.703" x2="219.573" y2="28.9906"
                        gradientUnits="userSpaceOnUse">
            <stop stop-color="#9F79C8"/>
            <stop offset="0.14" stop-color="#A27DCA"/>
            <stop offset="0.27" stop-color="#AC88CF"/>
            <stop offset="0.4" stop-color="#BC9BD7"/>
            <stop offset="0.52" stop-color="#D1B4E3"/>
            <stop offset="0.65" stop-color="#DBC4E9"/>
            <stop offset="0.9" stop-color="#F4EDF8"/>
            <stop offset="1" stop-color="white"/>
        </linearGradient>
        <linearGradient id="paint15_linear_1271_468" x1="52.9567" y1="96.0044" x2="98.4712" y2="146.167"
                        gradientUnits="userSpaceOnUse">
            <stop stop-color="#9F79C8"/>
            <stop offset="0.14" stop-color="#A27DCA"/>
            <stop offset="0.27" stop-color="#AC88CF"/>
            <stop offset="0.4" stop-color="#BC9BD7"/>
            <stop offset="0.52" stop-color="#D1B4E3"/>
            <stop offset="0.65" stop-color="#DBC4E9"/>
            <stop offset="0.9" stop-color="#F4EDF8"/>
            <stop offset="1" stop-color="white"/>
        </linearGradient>
        <linearGradient id="paint16_linear_1271_468" x1="54.9025" y1="213.107" x2="10.9064" y2="95.2471"
                        gradientUnits="userSpaceOnUse">
            <stop stop-color="#9F79C8"/>
            <stop offset="0.14" stop-color="#A27DCA"/>
            <stop offset="0.27" stop-color="#AC88CF"/>
            <stop offset="0.4" stop-color="#BC9BD7"/>
            <stop offset="0.52" stop-color="#D1B4E3"/>
            <stop offset="0.65" stop-color="#DBC4E9"/>
            <stop offset="0.9" stop-color="#F4EDF8"/>
            <stop offset="1" stop-color="white"/>
        </linearGradient>
        <linearGradient id="paint17_linear_1271_468" x1="48.8295" y1="147.853" x2="144.469" y2="102.264"
                        gradientUnits="userSpaceOnUse">
            <stop stop-color="#9F79C8"/>
            <stop offset="0.14" stop-color="#A27DCA"/>
            <stop offset="0.27" stop-color="#AC88CF"/>
            <stop offset="0.4" stop-color="#BC9BD7"/>
            <stop offset="0.52" stop-color="#D1B4E3"/>
            <stop offset="0.65" stop-color="#DBC4E9"/>
            <stop offset="0.9" stop-color="#F4EDF8"/>
            <stop offset="1" stop-color="white"/>
        </linearGradient>
        <radialGradient id="paint18_radial_1271_468" cx="0" cy="0" r="1" gradientUnits="userSpaceOnUse"
                        gradientTransform="translate(46.5888 170.436) scale(15.2024 15.2024)">
            <stop stop-color="white"/>
            <stop offset="1"/>
        </radialGradient>
        <radialGradient id="paint19_radial_1271_468" cx="0" cy="0" r="1" gradientUnits="userSpaceOnUse"
                        gradientTransform="translate(29.1093 134.332) scale(31.1824)">
            <stop stop-color="white"/>
            <stop offset="1"/>
        </radialGradient>
        <radialGradient id="paint20_radial_1271_468" cx="0" cy="0" r="1" gradientUnits="userSpaceOnUse"
                        gradientTransform="translate(17.2948 132.517) scale(17.2948)">
            <stop stop-color="#A56EF4"/>
            <stop offset="0.12" stop-color="#8055BD"/>
            <stop offset="0.24" stop-color="#5E3F8B"/>
            <stop offset="0.36" stop-color="#412B60"/>
            <stop offset="0.48" stop-color="#2A1C3E"/>
            <stop offset="0.61" stop-color="#171023"/>
            <stop offset="0.74" stop-color="#0A070F"/>
            <stop offset="0.86" stop-color="#030204"/>
            <stop offset="1"/>
        </radialGradient>
        <linearGradient id="paint21_linear_1271_468" x1="45.9411" y1="144.147" x2="133.656" y2="100.818"
                        gradientUnits="userSpaceOnUse">
            <stop offset="0.1" stop-color="#45108A"/>
            <stop offset="1" stop-color="#7C1DC9"/>
        </linearGradient>
        <linearGradient id="paint22_linear_1271_468" x1="46.8313" y1="145.945" x2="134.527" y2="102.597"
                        gradientUnits="userSpaceOnUse">
            <stop offset="0.1" stop-color="#45108A"/>
            <stop offset="1" stop-color="#7C1DC9"/>
        </linearGradient>
        <linearGradient id="paint23_linear_1271_468" x1="47.1257" y1="146.556" x2="134.84" y2="103.208"
                        gradientUnits="userSpaceOnUse">
            <stop offset="0.1" stop-color="#45108A"/>
            <stop offset="1" stop-color="#7C1DC9"/>
        </linearGradient>
        <linearGradient id="paint24_linear_1271_468" x1="46.218" y1="144.705" x2="133.914" y2="101.375"
                        gradientUnits="userSpaceOnUse">
            <stop offset="0.1" stop-color="#45108A"/>
            <stop offset="1" stop-color="#7C1DC9"/>
        </linearGradient>
        <linearGradient id="paint25_linear_1271_468" x1="46.5135" y1="145.333" x2="134.228" y2="101.985"
                        gradientUnits="userSpaceOnUse">
            <stop offset="0.1" stop-color="#45108A"/>
            <stop offset="1" stop-color="#7C1DC9"/>
        </linearGradient>
    </defs>
</svg>
