<svg xmlns="http://www.w3.org/2000/svg" viewBox="0 0 383.15 366.66"><defs><style>.cls-1{fill:#41599a;}.cls-2{fill:#84c1f3;}.cls-3{fill:#1e3075;}.cls-4{fill:#2e4386;}.cls-5{fill:#f9dc60;}.cls-6{fill:#172862;}.cls-7{fill:#f3b44f;}.cls-8{fill:#f09437;}.cls-9{fill:#85c1f2;}.cls-10{fill:#d49c49;}</style></defs><g id="Слой_2" data-name="Слой 2"><g id="Слой_1-2" data-name="Слой 1"><path class="cls-1" d="M351,110.1a66.45,66.45,0,0,0,13.34,6.39c9.53,3.62,16.05,9.79,18.82,19.71v9.72c-1.3,1.13-1.3,2.85-1.9,4.28-2.95,7-8.46,11.15-15.26,13.88-1.22,1.71-3.1,2.45-4.9,3.28-15.55,7.21-31.2,14.21-46.79,21.36-5,2.27-10,4.44-14.9,6.85-1.52.74-3.09,1.83-4.85.47-1.39-3.87-1-7.94-.59-11.8,1.2-11.28-4-18.66-13.15-24.31C270,153.22,258.12,149.32,246,146c-2-.55-4.28-.73-5.09-3.21a18.18,18.18,0,0,1-.37-4.82q0-35.79,0-71.58a17.83,17.83,0,0,1,.32-4.44c.83-2.49,2.49-1.42,3.91-.81q11.13,4.8,22.12,9.91C289,81.24,311.22,91.2,333.36,101.37c5.08,2.33,10.18,4.63,15.26,7A6.87,6.87,0,0,1,351,110.1Z"/><path class="cls-2" d="M295,196.23c10.33-4.62,20.67-9.2,31-13.87q20-9.09,40.05-18.28c0,7.59.94,15.14.72,22.75-1.25,42.1-14.84,79.62-41.38,112.38a183.29,183.29,0,0,1-207.12,55.47c-9.08-3.4-18-7.25-26.16-12.63,1.17-1.3,2.68-1.08,4.16-.93a511.88,511.88,0,0,0,51.64,2.68c11.45.36,22.84-.63,34.26-1.29a386.9,386.9,0,0,0,42.94-5.26,286.73,286.73,0,0,0,33-8.06,14.26,14.26,0,0,0,10.37-4.08,61.44,61.44,0,0,0,17.43-9.77c4.75-3.92,8.25-8.58,8-15.19-.29-33.52.15-67,0-100.52a7.55,7.55,0,0,1,.27-2.22A2.56,2.56,0,0,1,295,196.23Z"/><path class="cls-3" d="M12.88,250.68c-5.72-13.55-9-27.74-11.3-42.22C-.24,196.73-.06,184.92.08,173.11c0-1.86-.16-3.76.78-5.49,2.87-5.47,7.85-8.56,13-11.39,13.8-7.58,28.79-11.76,44.05-15.09,17.68-3.86,35.63-5.86,53.63-7.37,2.28-.2,4.75-.71,6.83,1,.74,1.79-.5,2.8-1.59,3.8a36.3,36.3,0,0,1-4.25,3c-6.41,4.37-9.81,10.22-9.71,18.2.18,14.8,0,29.61.07,44.41,0,7.16,1.82,13.76,6.53,19.39,1.26,1.51,2.64,3.1,1.56,5.35-2.76,1.82-6,1.45-9,1.72C80.73,232.55,59.79,236,39.3,241.94a142.9,142.9,0,0,0-21.87,8.56C16,251.17,14.47,252.82,12.88,250.68Z"/><path class="cls-2" d="M351,110.1c-7.11-2.36-13.7-5.89-20.48-9q-44.37-20.08-88.64-40.4c-1.58-1.33-1.07-3.19-1.12-4.85-.09-3.59.14-7.18-.92-10.69-2.37-7.85-7.41-13-15.29-15.29C218.69,29,213,29,207.56,32c-4.68,2.53-9.36,5.13-14.5,6.71-3.37-.1-6.11-2-9.06-3.25-5.38-2.3-10.67-4.81-16-7.31-14.41-6.8-28.77-7.3-43.22-.2-2,1-4.09,1.85-6.18,2.65C97.13,40.54,75.49,50.21,54,60.1c-2.38,1.09-4.64,3-7.61,2.06,3.5-5.57,8.51-9.77,13.27-14.1A182.46,182.46,0,0,1,130.46,7.79,187.12,187.12,0,0,1,168.86.63a181.54,181.54,0,0,1,84,13,179.36,179.36,0,0,1,51.19,31.76,184.91,184.91,0,0,1,44.2,57.77C349.37,105.41,350.66,107.57,351,110.1Z"/><path class="cls-3" d="M148.23,344.84a437.74,437.74,0,0,1-52.46-2.65c-1.23-.13-2.48-.09-3.72-.14a147.36,147.36,0,0,1-26.83-18.61,172.36,172.36,0,0,1-36.88-42.6c-.14-2.64,2.1-2.79,3.73-3.39a189.47,189.47,0,0,1,30.31-8c12.83-2.43,25.66-5.11,38.84-4.84a58.65,58.65,0,0,1,36.86,17.67c2.82,2.89,6.2,3.94,10,4.43a76.19,76.19,0,0,1,25.3,18.08c7,7.69,8.21,17.28,2.72,23.62a40.25,40.25,0,0,1-10.78,9.09A71.91,71.91,0,0,1,148.23,344.84Z"/><path class="cls-4" d="M46.35,62.16c9-3.2,17.45-7.7,26.16-11.57C87.81,43.8,103,36.84,118.28,30c2,1.28-.08,1.91-.55,2.51-2.93,3.71-6.48,6.86-9.39,10.61-7.6,9.83-14,20.25-16.78,32.55-3.51,15.54.4,29,11.32,40.49A92.37,92.37,0,0,0,115.58,127c2.42,1.78,4.25,3.92,3.08,7.27-.13.14-.27.27-.41.4-12.77.25-25.41,1.88-38,3.64-16.37,2.29-32.5,5.56-48.12,11-11.58,4-22.68,9-31.22,18.25.7-15.23,4.19-29.91,9.12-44.25A180.86,180.86,0,0,1,42.37,66,16.22,16.22,0,0,1,46.35,62.16Z"/><path class="cls-4" d="M101.82,265.63c-19.95.31-39.27,4.52-58.47,9.44-4.2,1.08-8.28,2.62-12.43,3.87-1.13.35-2.12.72-2.58,1.9-5.22-7-8.73-14.87-12.46-22.66-1.16-2.42-2-5-3-7.5a2.16,2.16,0,0,0,2.44-.15c17.41-9.37,36.45-13.5,55.63-17A311.07,311.07,0,0,1,110.76,229l.39.46c.6,2.61-1.16,4.26-2.68,5.79-6.86,6.93-8.58,15.09-6.23,24.35C102.75,261.59,103.34,263.7,101.82,265.63Z"/><path class="cls-4" d="M295,196.23a1.46,1.46,0,0,1-.18.58c-.6,1.31-.29,2.7-.29,4.05q0,30.76,0,61.55c0,1.28.44,2.68-.4,3.85a1.42,1.42,0,0,1-1.6-.83c-6-9.29-15.32-13.9-25-18.09a33.61,33.61,0,0,1-4.42-2,3.79,3.79,0,0,1-1.34-2.93c-1.17-8.59-5.55-15.18-12.59-20.1a5.1,5.1,0,0,1-2-2.1c-.9-4.07-.54-8.2-.4-12.29.26-7.75-.31-15.18-5.8-21.34-.78-7.57-.21-15.17-.34-22.75-.09-5.1-.07-10.21,0-15.31,0-1.7-.23-3.54,1.32-4.85,9.27,2.65,18.62,5.08,27.44,9.06,8.48,3.83,16.93,7.81,22.46,15.87a16.68,16.68,0,0,1,3.12,10.1C294.77,184.56,294.93,190.4,295,196.23Z"/><path class="cls-5" d="M241.87,143.7,241.66,187c-4,.24-8.11-1.1-12.19.17-1.37.43-1.91-.85-2.1-2a30.22,30.22,0,0,1-.16-4.85q0-59.49,0-119a28.13,28.13,0,0,0-.22-5.58,8.55,8.55,0,0,1-.27-1.24c.68-5.92-2-9.83-7.29-12.23-2-1.83-3.3-4-3.1-6.78.33-4.5,3.57-6.92,8.39-6.38,8.84,1.35,16.67,10.92,17,20.84.11,3.59.11,7.19.16,10.78Z"/><path class="cls-6" d="M148.23,344.84c4.2-2.89,9.15-4.19,13.65-6.49,5.42-2.77,10.32-6.27,13.87-11.05,4.82-6.54,4-13.62-3.15-21.87-6.21-7.14-13.85-12.43-22.27-16.65a21.64,21.64,0,0,1-2.14-1.44c11.33-10.39,23-20.17,39.07-22.26a74.26,74.26,0,0,1,20.79.58,4,4,0,0,1,2.56,1.41c.8,1.44.36,2.9,0,4.36q-4.92,23-10,45.94c-1.24,5.61,1.11,9.92,6,11.11,4.69,1.16,8.81-1.85,10.14-7.48,2.25-9.56,4.08-19.22,6.4-28.77.3-1.26-.05-3.11,2-3.4,1.46,1.4,1.07,3.22,1.08,4.91,0,7.91,0,15.82,0,23.74a12.28,12.28,0,0,0,.43,4.39c1.82,4.9,5.05,7.3,9,6.68,4.43-.68,7.08-4.08,7.14-9.48.1-8.83,0-17.66.06-26.49,0-1.64-.48-3.58,1.5-4.64,1.52.86,1.54,2.49,1.86,3.89,1.67,7.16,3.35,14.32,4.68,21.54,1.16,6.33,2.63,12.32,8,16.49-19.44,6.39-39.43,10-59.74,12.18A421,421,0,0,1,148.23,344.84Z"/><path class="cls-1" d="M262.83,244.67c12.23,4.13,23.71,9.39,31.28,21.33V249.32q0-24.3,0-48.59c0-1.32-.47-2.76.65-3.92q0,52.4,0,104.79a2,2,0,0,1-2.11-1.22c-5.53-9.41-14.9-13.63-24.18-18-2.37-1.1-5-1.66-7.22-3-2.48-5.55-3-11.57-4.24-17.42C259.49,256.38,261,250.46,262.83,244.67Z"/><path class="cls-5" d="M257.49,261.89c2.15,5.56,2.34,11.61,4.31,17.21a4.84,4.84,0,0,1,1.42,3c2.64,11.77,5.33,23.52,7.64,35.36.57,2.93,1,6-2.09,8.1-2.31,3.56-5.76,4.56-9.74,4.34-4.66-1.74-6.78-5.19-7.7-10-2-10.59-4.42-21.1-6.67-31.64-3-5.26-1.72-10.84-1.11-16.34.11-1,1.14-1.63,2-2.09a34.62,34.62,0,0,0,10.2-7.47A1.52,1.52,0,0,1,257.49,261.89Z"/><path class="cls-6" d="M268.77,325.52c1.73-2.68,1.68-5.54,1-8.55-2.71-12.61-5.34-25.24-8-37.87,11.2,3.88,22,8.39,29.77,18,1.17,1.44,1.42,3.5,3.16,4.51a12.53,12.53,0,0,1-2.92,8.6C285.89,317.9,278,322.72,268.77,325.52Z"/><path class="cls-4" d="M110.76,229A5.61,5.61,0,0,0,109,224.6c-5.2-5.58-7.12-12.4-7.17-19.79-.1-15.3.06-30.61-.06-45.9-.06-7.81,3.49-13.4,9.58-17.88,2.49-1.83,6-2.66,6.9-6.32l.06-.05c1.91-1.74,4.31-1.83,6.67-1.84,13.7-.06,27.41-.51,41.08.1,19.13.85,38.25,2.28,57.12,5.87,1.59.3,3.23.46,4.42,1.75.61,5,.22,9.93.25,14.9.08,10,0,19.92.06,29.88a7.21,7.21,0,0,1-1.68,5.14c-2.16,2.48-2.76,5.47-2.8,8.68-.08,6.6.25,13.2-.18,19.78a2.6,2.6,0,0,1-.68,1.69,65,65,0,0,0-12.26,11.75c-.23.27-.67.3-1,.41-7.48-.14-14.83-1.64-22.3-2.09-8.44-.51-16.87-1.17-25.34-1.36-11.19-.25-22.38-.09-33.57.06a83.65,83.65,0,0,0-11.18.56c-2.07.31-4.25.56-6.09-.94Z"/><path class="cls-1" d="M227.5,140.75c-36.14-6.69-72.57-8.07-109.2-6.09.21-3.12-1-5.27-3.64-7.17C107.43,122.38,100.82,116.57,96,109c-7.7-12.2-8.37-25.12-4-38.53C96.06,57.79,103.3,47,112.12,37.24c2.13-2.36,4.56-4.47,6.16-7.29,9-4.6,18.25-8.47,28.7-8.22,8.93.22,17,3.33,24.94,7,7,3.26,13.88,6.73,21.12,9.4,6,1.24,11.05,4.85,16.74,6.88,4.43,1.87,8.69,4.11,13.15,5.93,1.69.69,3.44,1.41,4.58,3l.35.95q.06,41.46,0,82.9C227.86,138.82,228.11,139.84,227.5,140.75Z"/><path class="cls-7" d="M209.53,45.72A122,122,0,0,1,193,38.17c5.86-2.87,11.62-6,17.6-8.56a19.6,19.6,0,0,1,14.07-.49c-3.37-.14-5.52,1.43-7,4.49-1.65,3.55.48,5.84,2.29,8.32C216.63,43.44,213.37,45.38,209.53,45.72Z"/><path class="cls-1" d="M110.8,229c9.91-1.06,19.87-.41,29.78-.87,10.92-.51,21.82-.08,32.68.35,12.33.49,24.6,2.27,36.89,3.49a2.12,2.12,0,0,1,.13,2.13,29.48,29.48,0,0,0,1.9,25.8,4.2,4.2,0,0,1,.32,1.06c0,2.3.12,4.62-2.18,6.08-18-3.58-34.77-.9-49.54,10.68a41.12,41.12,0,0,0-4.64,4.31,18.59,18.59,0,0,1-7.95,5.31c-3.74.16-7.14-.58-9.85-3.45a58.25,58.25,0,0,0-36.52-18.26c.52-4.78-1.77-9.2-1.62-14a23.84,23.84,0,0,1,6.67-16.11C108.63,233.6,110.64,231.87,110.8,229Z"/><path class="cls-7" d="M211.94,261.2c-6.07-9.41-6.4-19.17-1.79-29.23A33.83,33.83,0,0,1,222.32,220c1.21-1.62,3-2.17,4.83-2.57a32.69,32.69,0,0,1,16.55.26,6.51,6.51,0,0,1,4.08,3c9.72,5,14.2,13.36,15,24,0,6.29-2.14,11.92-5.34,17.22a29.57,29.57,0,0,1-11.59,8.78c-1.67.7-2,2-1.94,3.58.08,4.66-.25,9.34.7,14-1.16,1.14-.6,2.58-.61,3.87-.06,9.55,0,19.09-.08,28.63a9.14,9.14,0,0,1-8.22,9.07c-4.48.6-8.41-2.26-9.8-7.14-.67-9-.18-18.05-.27-27.07a38.94,38.94,0,0,0-1-10.28,37.31,37.31,0,0,1-.37-9.26c.1-2.69-.86-4.27-3.3-5.57C217.08,268.38,213.24,266,211.94,261.2Z"/><path class="cls-8" d="M247.78,220.7c-6.75-4-13.92-3.73-21.2-2-1.45.34-2.84.89-4.26,1.35q0-11.19-.07-22.38a11.72,11.72,0,0,1,3.61-8.7c1-1,1.83-1.85,1.82-3.44-.1-14.92-.13-29.84-.18-44.75q.08-32.28.16-64.56c0-7.08.13-14.17.2-21.25.68,1.3.32,2.69.32,4q0,61.65,0,123.31v4.54c4.76-2.24,9.16-2.17,13.44.19,4.39,3.22,5.76,7.73,5.82,12.95C247.54,206.88,247,213.8,247.78,220.7Z"/><path class="cls-9" d="M209.53,45.72c3.28-1.89,6.54-3.84,10.52-3.79,6.78,3,7.88,4.83,7.46,12.06C221.41,51.46,215.36,48.84,209.53,45.72Z"/><path class="cls-8" d="M211.94,261.2c3,4,6.57,7.49,11.32,9.33,1.81.7,2.07,1.77,2,3.39-.07,3.48,0,7,0,10.44a4.75,4.75,0,0,1-.66,4.7c-2.4,11.3-4.64,22.64-7.27,33.89a8.84,8.84,0,0,1-10.93,6.58c-5.27-1.34-8.1-5.91-6.91-11.42C203,302.06,206.47,286,209.94,270c.2-1,.26-2,.38-2.94Z"/><path class="cls-10" d="M224.63,289.06l.66-4.7c.92.74.74,1.79.74,2.77q0,17.75-.08,35.51c-1-1.33-.6-2.87-.61-4.33,0-8.45,0-16.9,0-25.36C225.29,291.64,225.76,290.2,224.63,289.06Z"/><path class="cls-5" d="M239.81,252.94c-7.29.86-14-6.57-14-13.7.06-8.17,7.25-14,13.52-14,7.42,0,14.32,6.61,14.33,13.85A13.63,13.63,0,0,1,239.81,252.94Z"/></g></g></svg>