<svg xmlns="http://www.w3.org/2000/svg" viewBox="0 0 135.11 153.16">
    <defs>
        <style>
            .cls-1{isolation:isolate;}.cls-2{fill:#72b5e8;}.cls-3{fill:#a8cff0;}.cls-4{fill:#d1ebff;}.cls-5,.cls-7{mix-blend-mode:color-dodge;}.cls-6,.cls-7{fill:#fff;}.cls-8{fill:#f76195;}.cls-9{fill:#eb4680;}.cls-10{fill:#3ecfcd;}.cls-11{fill:#0ba19f;}.cls-12{fill:#03336e;}.cls-13{fill:#084c94;}.cls-14{fill:#1568bf;}.cls-15{fill:#0fbab8;}
        </style>
    </defs>
    <g class="cls-1">
        <g id="Слой_2" data-name="Слой 2">
            <g id="Layer_1" data-name="Layer 1">
                <path class="cls-2"
                      d="M44.43,102.43c-7.67-4.43-13.88-15.15-13.88-24,0-3.27.86-5.79,2.33-7.47-4.21.31-7.06,3.83-7.06,9.78,0,8.8,6.22,19.52,13.89,23.95,4.82,2.78,9,2.4,11.54-.44A12.14,12.14,0,0,1,44.43,102.43Z"/>
                <path class="cls-3"
                      d="M57.93,99.52a27.53,27.53,0,0,0-.24-3.36l5.61-.71A50.24,50.24,0,0,0,60.76,87L54.36,85a43.53,43.53,0,0,0-4-6.87l1.54-6.46a51.54,51.54,0,0,0-6.13-6.45l-3.44,4.45a29.63,29.63,0,0,0-2.82-1.9,22.36,22.36,0,0,0-2.81-1.35L33.28,58a17,17,0,0,0-6.13-.61l1.53,8.22a8.83,8.83,0,0,0-4,2.27l-6.39-5.45A16.57,16.57,0,0,0,15.76,68l5.62,7.19a20.07,20.07,0,0,0-.24,3.09,26,26,0,0,0,.24,3.37l-5.62.71a50.84,50.84,0,0,0,2.55,8.5l6.39,1.93a45.63,45.63,0,0,0,4,6.87l-1.53,6.45a51,51,0,0,0,6.13,6.46l3.44-4.46a26.17,26.17,0,0,0,2.81,1.9,21.16,21.16,0,0,0,2.82,1.35l3.44,8.43a17,17,0,0,0,6.13.62l-1.54-8.22a8.82,8.82,0,0,0,4-2.27l6.4,5.45a16.75,16.75,0,0,0,2.54-5.56l-5.61-7.19A21.66,21.66,0,0,0,57.93,99.52Zm-18.22,5.22C32,100.31,25.82,89.59,25.82,80.79S32,68.44,39.71,72.87,53.6,88,53.6,96.82,47.38,109.17,39.71,104.74Z"/>
                <polygon class="cls-2" points="42.1 63.35 38.66 54.92 33.28 58.01 36.72 66.44 42.1 63.35"/>
                <path class="cls-4"
                      d="M36.72,66.44a22.36,22.36,0,0,1,2.81,1.35,29.63,29.63,0,0,1,2.82,1.9l3.44-4.45h0s-.58-.37-.88-.54a22.36,22.36,0,0,0-2.81-1.35Z"/>
                <path class="cls-4" d="M38.66,54.92a17,17,0,0,0-6.13-.61L27.15,57.4a17,17,0,0,1,6.13.61Z"/>
                <path class="cls-4" d="M57.3,68.6a51.54,51.54,0,0,0-6.13-6.45l-5.38,3.09a51.54,51.54,0,0,1,6.13,6.45Z"/>
                <polygon class="cls-2" points="51.92 71.69 50.38 78.15 55.76 75.06 57.3 68.6 51.92 71.69"/>
                <path class="cls-2" d="M50.38,78.15a43.53,43.53,0,0,1,4,6.87l5.38-3.09a43.53,43.53,0,0,0-4-6.87Z"/>
                <polygon class="cls-4" points="54.37 85.02 60.76 86.95 66.14 83.86 59.74 81.92 54.37 85.02"/>
                <path class="cls-2" d="M60.76,87a50.24,50.24,0,0,1,2.54,8.5l5.38-3.09a50.24,50.24,0,0,0-2.54-8.5Z"/>
                <path class="cls-2"
                      d="M28.68,65.62l-.44-2.39-4.55-3.88-5.38,3.09,6.39,5.45A8.83,8.83,0,0,1,28.68,65.62Z"/>
                <path class="cls-2"
                      d="M63.3,109.81a16.75,16.75,0,0,1-2.54,5.56l5.38-3.09a16.75,16.75,0,0,0,2.54-5.56Z"/>
                <path class="cls-2"
                      d="M63.07,99.53a21.66,21.66,0,0,0,.24-3.1c0-.32,0-.65,0-1l-5.58.71a27.53,27.53,0,0,1,.24,3.36,21.66,21.66,0,0,1-.24,3.1Z"/>
                <polygon class="cls-4" points="57.69 102.61 63.3 109.81 68.68 106.72 63.07 99.53 57.69 102.61"/>
                <path class="cls-2" d="M54.36,109.92a8.82,8.82,0,0,1-4,2.27l1.54,8.22,5.38-3.09-1.09-5.83Z"/>
                <path class="cls-4" d="M21.17,79.18l-5.41,3.18,5.62-.71C21.27,80.82,21.21,80,21.17,79.18Z"/>
                <path class="cls-2" d="M36.72,108.11l-3.44,4.46,5.42-3.09C38,109.06,37.37,108.6,36.72,108.11Z"/>
                <g class="cls-5">
                    <path class="cls-6" d="M28,66l0-.08c-.25.1-.5.21-.74.33C27.52,66.15,27.77,66.06,28,66Z"/>
                    <path class="cls-6" d="M20.69,81.74,16,82.33c0,.09,0,.18.07.28L20.72,82Z"/>
                    <path class="cls-6"
                          d="M51.62,72.05,50.08,78.5a43.53,43.53,0,0,1,4,6.87l6.4,1.93a51.22,51.22,0,0,1,2.48,8.23l.64-.11A51.8,51.8,0,0,0,61,86.92L54.64,85a44.85,44.85,0,0,0-4-6.87l1.54-6.45a51,51,0,0,0-6.13-6.46l-.21.71A51.1,51.1,0,0,1,51.62,72.05Z"/>
                    <path class="cls-6"
                          d="M39.76,104.63c-7.67-4.43-13.89-15.15-13.89-23.95,0-3.89,1.22-6.74,3.24-8.33-2.33,1.5-3.77,4.49-3.77,8.71,0,8.8,6.22,19.52,13.89,24,3.87,2.23,7.37,2.43,9.89.95a5.45,5.45,0,0,1-.58.14C46.15,107,43.09,106.56,39.76,104.63Z"/>
                    <path class="cls-6" d="M51.42,111.91A9,9,0,0,0,54,110.49l-.24-.2A8.9,8.9,0,0,1,51.42,111.91Z"/>
                    <path class="cls-6" d="M24.5,68c-.23,0,0-.19.24-.38l-6.16-5.25c-.18.25-.33.51,0,.54Z"/>
                    <path class="cls-7"
                          d="M50.23,112.56l1.47,7.87c-.17,0,.16,0,.49-.05l-1.52-8.14C50.36,112.36,50.05,112.47,50.23,112.56Z"/>
                    <path class="cls-6"
                          d="M58.2,99.5A27.19,27.19,0,0,0,58,96.41l-.56,0a27.83,27.83,0,0,1,.24,3.37,21.52,21.52,0,0,1-.24,3.09L63,110.1a17.45,17.45,0,0,1-2,4.8l0,.44a16.77,16.77,0,0,0,2.55-5.56L58,102.59A21.41,21.41,0,0,0,58.2,99.5Z"/>
                    <path class="cls-6"
                          d="M33,58.24l3.45,8.43A20.43,20.43,0,0,1,39.3,68a26.17,26.17,0,0,1,2.81,1.9l.11-.54a24.78,24.78,0,0,0-2.42-1.61A21.72,21.72,0,0,0,37,66.42L33.55,58a17,17,0,0,0-6.13-.62l.07.35A20,20,0,0,1,33,58.24Z"/>
                    <path class="cls-6" d="M36.07,108.49l-2.88,3.72.36.33,2.91-3.77Z"/>
                </g>
                <path class="cls-2"
                      d="M82.94,78.39c-11.54-6.67-20.89-22.8-20.89-36,0-4.91,1.3-8.71,3.51-11.23C59.23,31.59,55,36.89,55,45.83c0,13.24,9.35,29.37,20.88,36,7.25,4.19,13.62,3.61,17.36-.67A18.08,18.08,0,0,1,82.94,78.39Z"/>
                <path class="cls-3"
                      d="M103.24,74a39.92,39.92,0,0,0-.36-5.07l8.45-1.07A76.32,76.32,0,0,0,107.5,55.1l-9.62-2.91a67.72,67.72,0,0,0-6-10.33l2.31-9.71A78.91,78.91,0,0,0,85,22.44l-5.18,6.7a41.79,41.79,0,0,0-4.23-2.85,32.42,32.42,0,0,0-4.23-2L66.16,11.58a25.47,25.47,0,0,0-9.22-.93L59.25,23a13.18,13.18,0,0,0-6,3.41l-9.62-8.2a25.12,25.12,0,0,0-3.83,8.37l8.45,10.81a31.14,31.14,0,0,0-.36,4.66,39.9,39.9,0,0,0,.36,5.06L39.81,48.2A76,76,0,0,0,43.64,61l9.62,2.91a67.72,67.72,0,0,0,6,10.33l-2.31,9.71a76.75,76.75,0,0,0,9.22,9.71l5.18-6.7a41.79,41.79,0,0,0,4.23,2.85,32.53,32.53,0,0,0,4.23,2L85,104.51a25.64,25.64,0,0,0,9.22.92L91.89,93.06a13.18,13.18,0,0,0,6-3.41l9.62,8.2a25.16,25.16,0,0,0,3.83-8.36l-8.45-10.82A31.11,31.11,0,0,0,103.24,74ZM75.83,81.86C64.3,75.2,55,59.07,55,45.83S64.3,27.26,75.83,33.92,96.72,56.71,96.72,70,87.37,88.52,75.83,81.86Z"/>
                <polygon class="cls-2" points="79.43 19.61 74.25 6.93 66.16 11.58 71.34 24.25 79.43 19.61"/>
                <path class="cls-4"
                      d="M71.34,24.26a32.42,32.42,0,0,1,4.23,2,41.79,41.79,0,0,1,4.23,2.85L85,22.45h0l-1.32-.81a32.42,32.42,0,0,0-4.23-2Z"/>
                <path class="cls-4" d="M74.25,6.93A25.66,25.66,0,0,0,65,6l-8.09,4.65a25.47,25.47,0,0,1,9.22.93Z"/>
                <path class="cls-4"
                      d="M102.29,27.51a76.79,76.79,0,0,0-9.22-9.71L85,22.44a78.91,78.91,0,0,1,9.22,9.71Z"/>
                <polygon class="cls-2" points="94.19 32.16 91.89 41.86 99.98 37.22 102.29 27.51 94.19 32.16"/>
                <path class="cls-2" d="M91.89,41.86a67.72,67.72,0,0,1,6,10.33L106,47.55a67.72,67.72,0,0,0-6-10.33Z"/>
                <polygon class="cls-4" points="97.88 52.19 107.5 55.1 115.59 50.45 105.97 47.55 97.88 52.19"/>
                <path class="cls-2"
                      d="M107.5,55.1a76.32,76.32,0,0,1,3.83,12.78l8.09-4.64a76.43,76.43,0,0,0-3.83-12.79Z"/>
                <path class="cls-2" d="M59.25,23l-.67-3.6-6.85-5.84-8.09,4.65,9.62,8.2A13.18,13.18,0,0,1,59.25,23Z"/>
                <path class="cls-2"
                      d="M111.33,89.49a25.16,25.16,0,0,1-3.83,8.36l8.09-4.65a25.06,25.06,0,0,0,3.83-8.36Z"/>
                <path class="cls-2"
                      d="M111,74a31,31,0,0,0,.36-4.65c0-.49,0-1-.06-1.48L102.88,69a39.92,39.92,0,0,1,.36,5.07,31.11,31.11,0,0,1-.36,4.65Z"/>
                <polygon class="cls-4" points="102.88 78.67 111.33 89.48 119.42 84.84 110.97 74.02 102.88 78.67"/>
                <path class="cls-2" d="M97.88,89.65a13.18,13.18,0,0,1-6,3.41l2.31,12.37,8.09-4.64L100.65,92Z"/>
                <path class="cls-4" d="M48,43.42,39.81,48.2l8.45-1.07C48.1,45.88,48,44.64,48,43.42Z"/>
                <path class="cls-2" d="M71.34,86.94l-5.18,6.7L74.31,89C73.31,88.36,72.31,87.67,71.34,86.94Z"/>
                <g class="cls-5">
                    <path class="cls-6" d="M58.26,23.58l0-.13c-.39.15-.75.33-1.12.51A11.72,11.72,0,0,1,58.26,23.58Z"/>
                    <path class="cls-6" d="M47.23,47.27l-7,.89.09.41,7-.88C47.25,47.55,47.25,47.41,47.23,47.27Z"/>
                    <path class="cls-6"
                          d="M93.74,32.68l-2.3,9.71a67.72,67.72,0,0,1,6,10.33l9.62,2.91A77.3,77.3,0,0,1,110.78,68l1-.15a77.33,77.33,0,0,0-3.82-12.79l-9.62-2.91a68.1,68.1,0,0,0-6-10.32l2.3-9.71a76.72,76.72,0,0,0-9.21-9.71l-.32,1.06A77.64,77.64,0,0,1,93.74,32.68Z"/>
                    <path class="cls-6"
                          d="M75.91,81.7C64.37,75,55,58.91,55,45.67c0-5.85,1.83-10.13,4.87-12.53-3.51,2.25-5.67,6.76-5.67,13.1,0,13.24,9.36,29.37,20.89,36C80.94,85.63,86.2,85.93,90,83.7c-.28.09-.58.14-.87.21C85.52,85.21,80.92,84.6,75.91,81.7Z"/>
                    <path class="cls-6"
                          d="M93.44,92.64a13.09,13.09,0,0,0,3.81-2.13l-.36-.3A12.91,12.91,0,0,1,93.44,92.64Z"/>
                    <path class="cls-6" d="M53,26.65c-.36,0,0-.27.35-.56l-9.26-7.9c-.27.37-.5.77-.07.81Z"/>
                    <path class="cls-7"
                          d="M91.66,93.62l2.21,11.84c-.26,0,.25,0,.73-.06L92.32,93.15C91.86,93.33,91.39,93.49,91.66,93.62Z"/>
                    <path class="cls-6"
                          d="M103.65,74a38.94,38.94,0,0,0-.32-4.65l-.84.06a41.85,41.85,0,0,1,.36,5.07,32.49,32.49,0,0,1-.36,4.65l8.44,10.82a25.55,25.55,0,0,1-3.08,7.21l.06.67a25.25,25.25,0,0,0,3.82-8.36l-8.44-10.82A32.38,32.38,0,0,0,103.65,74Z"/>
                    <path class="cls-6"
                          d="M65.8,11.91,71,24.59a32.63,32.63,0,0,1,4.24,2,41.79,41.79,0,0,1,4.23,2.85l.16-.8A41,41,0,0,0,76,26.25a32.52,32.52,0,0,0-4.24-2L66.56,11.54a25.62,25.62,0,0,0-9.21-.93l.1.53A30.13,30.13,0,0,1,65.8,11.91Z"/>
                    <path class="cls-6" d="M70.35,87.5,66,93.1l.54.5L71,87.93Z"/>
                </g>
                <path class="cls-4"
                      d="M126,88l-1-.25.78-3L117,73.5v-.2c0-.62.08-1.24.09-1.85V71l9.29-1.17-1.33-6.55a82.65,82.65,0,0,0-4.13-13.82l-1.1-2.79-9.91-3-.1-.19c-1.07-2.06-2.25-4.09-3.49-6l-.12-.18,2.38-10-1.9-2.36a82.51,82.51,0,0,0-10-10.49l-5-4.36-5.68,7.35-.38-.21c-.56-.31-1.15-.61-1.75-.9l-.17-.09L78.4,3.06l-2.93-.81A33.15,33.15,0,0,0,66.66,1V0a34.22,34.22,0,0,1,9.07,1.28l3.41.94L84.57,15.5c.42.21.84.42,1.25.64l5.81-7.52,5.76,5.06A84.5,84.5,0,0,1,107.47,24.3l2.2,2.75-2.39,10.06c1.19,1.85,2.3,3.78,3.33,5.74l10,3,1.28,3.24a83.84,83.84,0,0,1,4.18,14l1.54,7.59-9.5,1.21c0,.42,0,.84-.07,1.27l8.85,11.34Z"/>
                <path class="cls-8"
                      d="M3.49,53.44a.54.54,0,0,1-.21,0A.49.49,0,0,1,3,52.73c.29-.63.61-1.24.94-1.81a.49.49,0,0,1,.68-.19.51.51,0,0,1,.19.68q-.48.84-.9,1.74A.52.52,0,0,1,3.49,53.44Zm2.58-4.27a.54.54,0,0,1-.3-.1.52.52,0,0,1-.1-.71c.42-.54.87-1.06,1.33-1.56a.5.5,0,0,1,.73.69c-.44.47-.86,1-1.26,1.48A.51.51,0,0,1,6.07,49.17ZM38.58,47a.47.47,0,0,1-.25-.07l-.71-.4a.49.49,0,0,1-.19-.68.5.5,0,0,1,.68-.19l.72.41a.5.5,0,0,1-.25.93Zm-29-1.37a.51.51,0,0,1-.4-.2.5.5,0,0,1,.09-.7A18.91,18.91,0,0,1,11,43.58a.49.49,0,0,1,.68.17.5.5,0,0,1-.16.69,16.86,16.86,0,0,0-1.61,1.09A.5.5,0,0,1,9.59,45.64Zm25.61-.41a.59.59,0,0,1-.22,0q-.9-.43-1.8-.81a.52.52,0,0,1-.27-.66.5.5,0,0,1,.66-.26c.61.25,1.22.53,1.84.83a.5.5,0,0,1-.21.95Zm-4.63-1.88-.16,0q-1-.31-1.89-.57a.5.5,0,0,1,.26-1c.64.18,1.29.37,1.94.59a.5.5,0,0,1-.15,1Zm-16.65-.18a.51.51,0,0,1-.47-.31.51.51,0,0,1,.28-.65,18.62,18.62,0,0,1,1.95-.66.5.5,0,0,1,.27,1,19.17,19.17,0,0,0-1.85.63Zm11.8-1h-.08c-.65-.11-1.31-.19-1.95-.25a.49.49,0,0,1-.45-.54.51.51,0,0,1,.54-.45c.67.06,1.35.14,2,.26a.48.48,0,0,1,.41.57A.49.49,0,0,1,25.72,42.14Zm-7-.19a.51.51,0,0,1-.5-.44.5.5,0,0,1,.44-.56c.66-.08,1.35-.14,2-.16a.51.51,0,0,1,.51.49.5.5,0,0,1-.48.51q-1,0-2,.15Z"/>
                <path class="cls-8"
                      d="M6.1,94.77a.51.51,0,0,1-.47-.31c-.25-.63-.5-1.25-.74-1.88a.49.49,0,0,1,.29-.64.5.5,0,0,1,.65.29c.23.61.48,1.23.73,1.85a.51.51,0,0,1-.27.65A.72.72,0,0,1,6.1,94.77ZM4.34,90.08a.49.49,0,0,1-.47-.34c-.22-.63-.43-1.27-.63-1.91a.51.51,0,0,1,.33-.63.5.5,0,0,1,.62.33c.2.63.41,1.26.62,1.89a.51.51,0,0,1-.31.64ZM2.87,85.3a.49.49,0,0,1-.48-.37q-.27-1-.51-2a.51.51,0,0,1,.37-.6.51.51,0,0,1,.61.37c.15.64.32,1.28.49,1.92a.5.5,0,0,1-.35.62ZM1.72,80.44a.51.51,0,0,1-.49-.4c-.13-.67-.26-1.33-.37-2a.5.5,0,0,1,1-.17c.11.65.23,1.31.36,2a.51.51,0,0,1-.39.59ZM.92,75.5a.5.5,0,0,1-.49-.44q-.13-1-.21-2a.49.49,0,0,1,.45-.54.5.5,0,0,1,.54.45q.09,1,.21,2A.51.51,0,0,1,1,75.5Zm-.39-5A.5.5,0,0,1,0,70c0-.61,0-1.21,0-1.81a.5.5,0,0,1,1,0C1,68.81,1,69.4,1,70a.5.5,0,0,1-.48.51Z"/>
                <path class="cls-8"
                      d="M57.13,139.59a.5.5,0,0,1-.5-.46.51.51,0,0,1,.47-.54c.66,0,1.31-.11,1.94-.21a.49.49,0,0,1,.57.41.51.51,0,0,1-.41.58c-.66.1-1.34.18-2,.22Zm-3,0h0c-.66,0-1.34-.11-2-.21a.5.5,0,0,1-.43-.56.51.51,0,0,1,.56-.43c.66.09,1.32.16,2,.2a.5.5,0,0,1,0,1Zm-4.93-.77-.12,0c-.64-.15-1.3-.34-1.95-.54a.49.49,0,0,1-.33-.63.48.48,0,0,1,.62-.32c.64.19,1.27.37,1.9.52a.5.5,0,0,1-.12,1ZM62,138.68a.5.5,0,0,1-.15-1,15.29,15.29,0,0,0,1.81-.69.5.5,0,0,1,.41.92c-.62.27-1.27.52-1.92.73Zm-17.58-1.4a.43.43,0,0,1-.19,0c-.61-.24-1.23-.51-1.86-.79a.51.51,0,0,1-.25-.67.5.5,0,0,1,.67-.24c.61.27,1.21.53,1.81.77a.5.5,0,0,1,.28.65A.49.49,0,0,1,44.45,137.28Zm22.07-.75a.49.49,0,0,1-.41-.22.5.5,0,0,1,.14-.7,17.4,17.4,0,0,0,1.56-1.15.5.5,0,1,1,.64.76,19.62,19.62,0,0,1-1.65,1.23A.57.57,0,0,1,66.52,136.53Zm-26.6-1.37a.46.46,0,0,1-.23-.06l-1.36-.76a.49.49,0,0,1-.18-.68.51.51,0,0,1,.68-.19l1.33.75a.5.5,0,0,1,.21.67A.51.51,0,0,1,39.92,135.16Zm30.35-1.91a.48.48,0,0,1-.33-.13.48.48,0,0,1,0-.7c.42-.48.83-1,1.21-1.53a.5.5,0,0,1,.69-.11.49.49,0,0,1,.12.69c-.4.56-.83,1.1-1.27,1.61A.52.52,0,0,1,70.27,133.25Zm2.82-4.11a.46.46,0,0,1-.23-.06.5.5,0,0,1-.21-.68c.31-.57.59-1.16.85-1.76a.5.5,0,0,1,.66-.26.5.5,0,0,1,.26.66c-.27.62-.57,1.24-.89,1.83A.5.5,0,0,1,73.09,129.14ZM75,124.53l-.15,0a.51.51,0,0,1-.33-.63c.19-.61.37-1.25.53-1.9a.51.51,0,0,1,.61-.36.5.5,0,0,1,.36.6c-.16.67-.35,1.33-.54,2A.51.51,0,0,1,75,124.53Zm1.13-4.86h-.08a.51.51,0,0,1-.42-.57c.11-.64.19-1.29.27-2a.5.5,0,1,1,1,.11c-.07.68-.16,1.35-.27,2A.5.5,0,0,1,76.14,119.67Zm.48-5h0a.5.5,0,0,1-.48-.52c0-.65,0-1.3,0-2a.51.51,0,0,1,.5-.5.5.5,0,0,1,.5.5c0,.69,0,1.36,0,2A.5.5,0,0,1,76.62,114.69Z"/>
                <path class="cls-8"
                      d="M53.73,129.54c-4.25,0-9-1.42-13.91-4.26C23,115.53,9.21,91.85,9.21,72.48c0-9.49,3.25-16.57,9.15-19.93l.49.87c-5.57,3.17-8.64,9.94-8.64,19.06,0,19,13.51,42.35,30.11,51.93,9.4,5.42,18,5.5,23.64.21l.69.73A15.54,15.54,0,0,1,53.73,129.54Z"/>
                <path class="cls-9"
                      d="M66.11,125.33c0,.94-.69,1.35-1.44.92a2.93,2.93,0,0,1-1.27-2.48c0-.93.68-1.34,1.43-.91A2.94,2.94,0,0,1,66.11,125.33Z"/>
                <path class="cls-9"
                      d="M17.69,55.91a.45.45,0,0,1-.25-.07.49.49,0,0,1-.18-.68l1.15-2-2.88.41a.51.51,0,0,1-.57-.42.5.5,0,0,1,.43-.57l3.9-.56a.53.53,0,0,1,.49.22.51.51,0,0,1,0,.53l-1.68,2.87A.5.5,0,0,1,17.69,55.91Z"/>
                <polygon class="cls-10"
                         points="84.17 69.99 74.48 61.42 71.92 48.84 78.98 44.77 88.66 53.34 91.26 65.95 84.17 69.99"/>
                <polygon class="cls-11" points="84.17 69.99 74.48 61.42 88.66 53.34 91.26 65.95 84.17 69.99"/>
                <path class="cls-12"
                      d="M131.07,128.21,106.2,85.32,98.54,55.11a11,11,0,0,0-3.32-5.48l-9.78-8.78a3.55,3.55,0,0,0-4.14-.45l-3,1.66,1.21,1a3.53,3.53,0,0,0,1.17,3.12l7.22,6.38,3.76,18.31L81.39,76.73,67.33,64.29l-1.94-9.42a3.58,3.58,0,0,0-5.28-2.39l-3,1.66,1.18,1.33a3.64,3.64,0,0,0,.06.87L61.1,69.07a11,11,0,0,0,3.11,5.6L86.69,96.45l24.86,42.89c4.51,7.78,11.37,12.58,16.64,12.14l-.1.78,3-1.65h0C136.46,147.54,136.46,137.51,131.07,128.21Zm-5.72,12.54c-2.21,1.26-5.79-.81-8-4.63s-2.22-7.92,0-9.18,5.79.81,8,4.62S127.56,139.49,125.35,140.75Z"/>
                <path class="cls-13"
                      d="M78.32,42.06h0a3.56,3.56,0,0,0-.59,5.76l7.21,6.39,3.77,18.31-10.3,5.86L64.35,65.94l-1.93-9.42a3.58,3.58,0,0,0-5.28-2.38h0A3.56,3.56,0,0,0,55.41,58l2.72,12.73a10.91,10.91,0,0,0,3.1,5.6L83.71,98.1,108.58,141c5.39,9.3,14.12,14.34,19.51,11.27h0c5.39-3.07,5.39-13.1,0-22.4L103.23,87,95.56,56.76a11.07,11.07,0,0,0-3.31-5.48L82.47,42.5A3.58,3.58,0,0,0,78.32,42.06ZM122.38,142.4c-2.22,1.26-5.8-.81-8-4.62s-2.21-7.93,0-9.19,5.79.81,8,4.62S124.59,141.14,122.38,142.4Z"/>
                <path class="cls-14"
                      d="M114.92,128.48l0,0a2.59,2.59,0,0,0-.6.24c-2.21,1.26-2.21,5.37,0,9.19s5.74,5.85,8,4.64c-2.22.64-5.39-1.38-7.41-4.86C112.71,133.85,112.71,129.74,114.92,128.48Z"/>
                <path class="cls-14"
                      d="M62.42,56.63l1.93,9.42L78.41,78.49l.49-.27-14-12.39L63,56.41a3.58,3.58,0,0,0-5.08-2.48A3.58,3.58,0,0,1,62.42,56.63Z"/>
                <path class="cls-14"
                      d="M128.64,129.75,103.78,86.87,96.11,56.65a11.07,11.07,0,0,0-3.31-5.48L83,42.39a3.54,3.54,0,0,0-4-.52,3.52,3.52,0,0,1,3.42.74l9.78,8.78a11.07,11.07,0,0,1,3.31,5.48l7.67,30.22L128.09,130c5.39,9.29,5.39,19.32,0,22.39h0c-.17.1-.35.19-.54.28a6.31,6.31,0,0,0,1.09-.5h0C134,149.08,134,139.05,128.64,129.75Z"/>
                <polygon class="cls-15"
                         points="77.11 74.03 67.43 65.46 64.83 52.85 71.92 48.81 81.61 57.38 84.2 69.99 77.11 74.03"/>
            </g>
        </g>
    </g>
</svg>