<svg xmlns="http://www.w3.org/2000/svg" viewBox="0 0 340.29 374.16"><defs><style>.cls-1{fill:#e0e5e8;}.cls-2{fill:#eaeff2;}.cls-3{fill:#44c3a0;}.cls-4{fill:#27a1da;}.cls-5{fill:#2d92b9;}</style></defs><g id="Слой_2" data-name="Слой 2"><g id="Layer_1" data-name="Layer 1"><path class="cls-1" d="M65,0H260.65c1.43,1.44,1.44,3.28,1.44,5.11q0,21,0,41.94c0,1.7,0,3.42-1.1,4.89-2,1.67-4.35,1.32-6.63,1.32q-31.38,0-62.76,0c-1.46,0-2.93-.05-4.38,0-3.37.24-4.44,1.36-4.66,4.8,0,.73,0,1.46,0,2.19q0,31.58,0,63.14c0,5.72.76,6.49,6.6,6.49q69.88.06,139.77,0c2.38,0,4.92-.53,7,1.36-.43,2.38-2.45,2.07-4,2.17-3.52.22-7.06.08-10.59.08q-26.82,0-53.65,0c-5.36,0-5.5.14-5.5,5.55q0,113,0,226c0,9.05,0,9.05-9.14,9.05H6.24c-5.79,0-6.17-.33-6.18-6.14q0-41.62,0-83.23,0-107,0-213.9c0-2.52-.47-5.15,1.08-7.46,2-1.49,4.34-1.35,6.64-1.35q25.34,0,50.68,0c5,0,5.08-.13,5.09-5.14q0-25.33,0-50.69C63.58,4.05,63.44,1.82,65,0Z"/><path class="cls-2" d="M1.52,63.53c1-1.09,1.86-2.24,2.88-3.26q28.49-28.52,57-57c1-1,1.93-2.16,2.89-3.25H65c0,19.82-.07,39.65.07,59.47,0,3.21-.87,4.14-4.09,4.12C41.16,63.45,21.34,63.52,1.52,63.53Z"/><path class="cls-3" d="M260.68,51.72l71.42.11c7,0,8.16,1.17,8.16,8.3,0,21.51,0,43,0,64.51,0,3.37-.67,6-4.43,6.88q-37.2,0-74.4-.08-37,0-74,0c-5,0-6.46-1.46-6.47-6.57q0-33.19,0-66.38c0-5.17,1.56-6.68,6.79-6.69Q224.21,51.77,260.68,51.72Z"/><path class="cls-4" d="M75.87,237.33c-4.33-1.21-8.67-2.37-13-3.65-1.86-.55-2.84-.57-2.82,1.92q.12,28.65,0,57.3c0,2.58,1.33,4.65,2.29,6.85,1.85,4.23,3.77,8.43,5.72,12.62,1,2.15.55,3.2-2,3.18q-10.77,0-21.53,0c-2.33,0-2.73-1.11-1.89-3a39.77,39.77,0,0,1,2.1-4.65c5-8.32,6.18-17.28,5.88-26.9-.49-15.8-.19-31.63-.07-47.44,0-2.5-.63-3.83-3.17-4.28a41.47,41.47,0,0,1-6-1.65c-3-1-5.11-2.82-5.06-6.31s2-5.35,5.11-6.25q15.75-4.56,31.52-9.05c17.87-5.11,35.75-10.17,53.6-15.34a14.82,14.82,0,0,1,8.55,0q41.85,12.06,83.72,24c4.71,1.35,6.64,3.2,6.63,6.59,0,3.59-2.14,5.55-5.35,6.47q-17,4.86-34,9.63c-.84,1.53-2.35,2-3.89,2.45q-23.47,6.75-47,13.43a16.74,16.74,0,0,1-9.36-.13q-23.16-6.56-46.28-13.2A6.29,6.29,0,0,1,75.87,237.33Z"/><path class="cls-5" d="M75.87,237.33q26.05,7.48,52.12,15c3.47,1,6.7-.2,10-1.14q24.14-6.94,48.27-13.85c0,13.26-.24,26.52,0,39.78.07,4.67-2,7.23-5.95,8.92-7,3-14.46,4.25-21.94,5.09a232.3,232.3,0,0,1-58.2-.52,71.24,71.24,0,0,1-18-4.43c-5-2.08-6.13-3.76-6.15-9Z"/><path class="cls-2" d="M199.1,89c0-5.83,0-11.66,0-17.49,0-1.18-.22-2.72,1.6-2.68,7.71.18,15.57-1.12,23,1.88a19.32,19.32,0,0,1,12,19.74c-1,9.15-7.18,16.1-15.75,17.72-6.26,1.18-12.59.41-18.89.63-2,.07-2-1.29-2-2.68C199.11,100.41,199.1,94.7,199.1,89Z"/><path class="cls-2" d="M259.86,68.6c11.57,0,21.14,9.19,21,20.22-.11,11.18-9.58,20.36-21,20.35a20.84,20.84,0,0,1-21-20.31C238.73,77.78,248.23,68.61,259.86,68.6Z"/><path class="cls-2" d="M305.1,68.6a20.17,20.17,0,0,1,12.24,4.05c1,.71,2.93,1.36,1.21,3.32-1.28,1.45-2,2.51-4.28.8-8-6.07-19-3.38-23.16,5.35a15.35,15.35,0,0,0,3.57,18c5.31,4.71,13,5.11,19.28,1.1,1-.61,1.63-2.31,3.35-1,2.51,1.84,2.51,2.85-.24,4.87-7.09,5.18-17.52,5.37-24.26.45C285.36,100.05,282.25,91,285,82.63S295.76,68.59,305.1,68.6Z"/><path class="cls-3" d="M211.9,103.74c-7.45,0-7.45,0-7.45-7.33,0-6.55.11-13.1,0-19.64-.06-2.46.8-3.19,3.13-3,3.38.25,6.79-.25,10.16.39C226,75.71,230.69,82,230,90.68c-.57,7.36-6.55,12.76-14.48,13.06C214.32,103.78,213.11,103.74,211.9,103.74Z"/><path class="cls-3" d="M259.89,73.59a15.27,15.27,0,0,1,15.35,15.16,15.36,15.36,0,1,1-30.71,0A15.19,15.19,0,0,1,259.89,73.59Z"/></g></g></svg>