<svg xmlns="http://www.w3.org/2000/svg" viewBox="0 0 408.65 408.64"><defs><style>.cls-1{fill:#fdc957;}.cls-2{fill:#1dd0a0;}.cls-3{fill:#15b98a;}.cls-4{fill:#fe6b6b;}.cls-5{fill:#57d9b6;}.cls-6{fill:#fe9393;}.cls-7{fill:#fdda8d;}.cls-8{fill:#fe9999;}.cls-9{fill:#fe8484;}.cls-10{fill:#fdd273;}.cls-11{fill:#fe7c7c;}.cls-12{fill:#40d7af;}.cls-13{fill:#549ffe;}.cls-14{fill:#338cee;}.cls-15{fill:#ed5253;}</style></defs><g id="Слой_2" data-name="Слой 2"><g id="Layer_1" data-name="Layer 1"><path class="cls-1" d="M408.65,221.08c-1.86,4.32-1.54,9-2.24,13.51q-9.8,63-53.3,109.6c-27.34,29.13-60.49,48.49-99.17,58.33a189,189,0,0,1-49.61,6c-1.16-1.14-1.24-2.62-1.24-4.08C203,386,203,367.5,203.1,349a8.46,8.46,0,0,1,.35-2.35c.84-2.28,2.86-2.09,4.68-2.11,26.65-.37,51.05-8.32,73.18-22.82a138.41,138.41,0,0,0,48.29-54c8-15.88,12.55-32.67,14.72-50.21.37-3,.1-6.1.24-9.15.08-1.68-.25-3.54,1.56-4.66,3.31-1,6.7-.48,10.06-.55,5.83-.07,11.65-.15,17.48,0,9.78-.15,19.56-.07,29.33-.07,2,0,4-.18,5.66,1.27v2.4c-.86,1.56-.2,3.24-.41,4.86.21,1.83-.46,3.73.41,5.51Z"/><path class="cls-2" d="M201.93,0h2.4c1.45,1.65,1.27,3.68,1.27,5.65,0,10.55.12,21.1-.08,31.64.13,5.81.09,11.61,0,17.41,0,2.61.3,5.23-.5,7.79-1.08,1.84-2.94,1.55-4.62,1.6-40.13,1.18-73.62,17.07-100.51,46.5-19.72,21.57-31.17,47.27-34.93,76.34a81.67,81.67,0,0,0-.84,12.3c0,1.83.21,3.77-1.36,5.22A6.09,6.09,0,0,1,59,205.51c-10.42.09-20.84.15-31.26,0a6.4,6.4,0,0,1-1.94-.36c-2.51-1.16-2.08-3.51-2-5.55A202,202,0,0,1,31.5,147.7,208.94,208.94,0,0,1,162.39,7.93,148.5,148.5,0,0,1,191.23.43c2.13,0,4.25,0,6.38,0C199,.22,200.56.84,201.93,0Z"/><path class="cls-3" d="M190.78.77C184.18,3,177.25,4,170.62,6.22c-13.18,4.5-26,9.63-38.25,16.45A220.18,220.18,0,0,0,100.82,44a207.45,207.45,0,0,0-66,96.36,185.36,185.36,0,0,0-8.63,39.79,216.47,216.47,0,0,0-1.5,24.13l-.53.55c-8,1-16.08,1.81-24-.47a186.25,186.25,0,0,1,16.13-80C43.5,63.19,89.55,23.66,154.25,6.17A162.27,162.27,0,0,1,186.73.78c.65,0,1.35,0,1.64-.78h2.39c.27.16.37.33.29.5S190.87.77,190.78.77Z"/><path class="cls-4" d="M220.29,0C225,1.76,230,1.17,234.82,2.32c1.27.3,2.55.55,3.83.82.59,1.83-.91,2.64-1.86,3.6Q222.5,21.17,208.08,35.46c-1,1-1.85,2.37-3.62,2Q204.4,18.74,204.33,0h2.39c1.54.87,3.2.2,4.79.41C213.1.2,214.77.86,216.3,0Z"/><path class="cls-4" d="M405.6,169.78c1.28,5.19,1.51,10.52,2.22,15.79.13,1-.4,2.15.83,2.79v4.79c-.83,1.75-.21,3.62-.41,5.42.19,1.38-.42,2.84.41,4.16v1.59l-35.11-.09c-.31-2.09,1.41-3,2.55-4.17,7.24-7.32,14.54-14.57,21.82-21.85A69,69,0,0,0,405.6,169.78Z"/><path class="cls-5" d="M190.78.77a6.6,6.6,0,0,1,0-.77h7.18c.27.18.35.35.26.52s-.19.25-.28.25Z"/><path class="cls-6" d="M407.88,198.71c.31-1.85-.81-3.89.77-5.56v5.59C408.38,199.1,408.12,199.09,407.88,198.71Z"/><path class="cls-7" d="M408.65,217.09c-1.6-1.66-.45-3.71-.77-5.56.25-.38.5-.39.77,0Z"/><path class="cls-8" d="M216.3,0c-1.39,1.51-3.17.51-4.76.76-.28-.16-.37-.32-.29-.5s.17-.26.26-.26Z"/><path class="cls-9" d="M211.51,0c0,.25,0,.51,0,.76-1.62-.18-3.4.66-4.82-.76Z"/><path class="cls-10" d="M408.65,211.51l-.77,0c.2-1.61-.66-3.39.77-4.81Z"/><path class="cls-11" d="M407.88,198.71l.77,0v4C407.33,201.59,408,200.07,407.88,198.71Z"/><path class="cls-12" d="M197.92.77c0-.26,0-.51,0-.77h4C200.8,1.31,199.28.63,197.92.77Z"/><path class="cls-13" d="M24.72,204.23c11.78,0,23.57.08,35.35.07a12.82,12.82,0,0,0,2.66-.58c1.83,1,1.31,2.74,1.35,4.23,1.13,40.29,17,73.91,46.57,100.91C132.24,328.58,158,339.93,187,343.74a95.73,95.73,0,0,0,13.1.84c1.48,0,3.25-.47,4.19,1.37q0,31.29,0,62.58c-4.84-.15-9.71.63-14.51-.56-14.6-2.33-28.44-7.09-41.91-13.09a210.78,210.78,0,0,1-53.77-34.57A204.06,204.06,0,0,1,51,307.39c-13.78-24.32-22.82-50.29-25.8-78.21-.72-6.74-1.67-13.45-1.52-20.24,0-1.57-.24-3.23,1.06-4.52Z"/><path class="cls-14" d="M24.78,204.42a200.7,200.7,0,0,0,16.91,81.77,211.59,211.59,0,0,0,36,56.31,207.29,207.29,0,0,0,67.52,50.09,173.85,173.85,0,0,0,44.4,14.51c.11,0,.29.12.29.17a5.37,5.37,0,0,1-.11.7c-37.34-2.2-71.32-14.29-101.82-35.67C42.6,340.46,14.49,297,3.5,242.67A157.16,157.16,0,0,1,.14,204.31Z"/><path class="cls-4" d="M346,204.29l-1.14-17.56a11.3,11.3,0,0,1,2.52-3.53q22.79-22.75,45.57-45.52c1-1,1.84-2.37,3.61-2a119.4,119.4,0,0,1,6.4,21.58c-.43,1.64-1.7,2.66-2.82,3.78q-20,20-40.05,40.07a13.7,13.7,0,0,1-4.1,3.11Z"/><path class="cls-15" d="M356,204.22c10.35-10.46,20.68-21,31.06-31.38,5.24-5.26,10.61-10.39,15.91-15.58a57,57,0,0,1,2.6,12.52c.08,2.09-1.26,3.36-2.6,4.7q-14.76,14.85-29.47,29.75Z"/><path class="cls-4" d="M225.87,64.52c-7.11-1.5-14.37-1.22-21.55-1.92.05-2.53.1-5.05.14-7.58a13.07,13.07,0,0,1,3.36-4.37L248,10.46a33.91,33.91,0,0,0,4.2-4.76,147.21,147.21,0,0,1,22.39,6.94c.57,2.34-1.48,3.22-2.67,4.43q-21.42,21.56-42.94,43C227.69,61.37,226.23,62.56,225.87,64.52Z"/><path class="cls-15" d="M252.22,5.7c.67,1,.22,1.67-.52,2.4Q228.08,31.55,204.46,55V37.48C216.07,26.25,227.64,15,238.65,3.14,243.31,3.28,247.74,4.61,252.22,5.7Z"/><path class="cls-4" d="M260.2,74.18a182,182,0,0,0-24.08-7.85c5.5-4.21,10-9.42,14.94-14.26,10.56-10.47,21-21,31.56-31.52,1.21-1.2,2.23-2.68,4-3.15a132.47,132.47,0,0,1,19.05,9.74c.52,1.44-.56,2.24-1.36,3C289.63,44.86,275.09,59.7,260.2,74.18Z"/><path class="cls-4" d="M342.29,171.65q-3.42-10.44-6.85-20.88c.26-1.57,1.44-2.5,2.46-3.52q20.27-20.3,40.56-40.53c1.06-1,1.92-2.67,3.89-2.18A119.05,119.05,0,0,1,391.67,123c-.25,1.57-1.43,2.5-2.45,3.52q-21.51,21.54-43.05,43C345.12,170.57,344.27,172.21,342.29,171.65Z"/><path class="cls-4" d="M330.39,139.75c-3.48-6.28-7.19-12.43-11.27-18.35.31-1.55,1.56-2.42,2.57-3.44q19.1-19.12,38.24-38.21c1.13-1.12,2-2.92,4.16-2.38a104.63,104.63,0,0,1,11.68,16.07,5.22,5.22,0,0,1-1.66,2.67C359.54,110.66,345.07,125.31,330.39,139.75Z"/><path class="cls-4" d="M288.15,90.16,270.53,79.05c.23-1.43,1.34-2.25,2.26-3.17Q292.86,55.78,313,35.72c.93-.93,1.76-2,3.17-2.28,5.59,3.6,11.17,7.22,16,11.85.66,1.64-.65,2.46-1.52,3.33q-19.86,20-39.83,39.86A4.59,4.59,0,0,1,288.15,90.16Z"/><path class="cls-4" d="M312.09,112.5A189.35,189.35,0,0,0,297,97.35C311,82.87,325.47,68.76,339.72,54.46a4.34,4.34,0,0,1,2-1.2A148.91,148.91,0,0,1,356.1,67.77a3.54,3.54,0,0,1-1.18,2C340.65,84,326.53,98.43,312.09,112.5Z"/><path class="cls-15" d="M342.29,171.65c1.19-1,2.46-2,3.58-3.12q22.92-22.75,45.8-45.54a59.91,59.91,0,0,1,4.93,12.69Q379,153.16,361.34,170.62c-5.46,5.39-11,10.74-16.44,16.11Z"/><path class="cls-15" d="M286.64,17.4c-.85,1-1.63,2.08-2.55,3q-21.64,21.67-43.31,43.33c-1.31,1.32-2.53,2.77-4.66,2.59l-10.25-1.81c-1.94-1.19-.64-2,.29-3q5.93-5.89,11.83-11.82,16.89-16.89,33.78-33.8c1-1,1.9-2.19,2.84-3.29A57.2,57.2,0,0,1,286.64,17.4Z"/><path class="cls-15" d="M330.39,139.75a3.63,3.63,0,0,1,1.21-2.42l44.17-43.89a48.38,48.38,0,0,1,6.58,11.1c-3.71,3.58-7.46,7.11-11.12,10.73Q353.3,133,335.44,150.77Z"/><path class="cls-15" d="M312.09,112.5a3.82,3.82,0,0,1,1.53-2.69Q334.2,89.24,354.8,68.67a8.1,8.1,0,0,1,1.3-.9,45.19,45.19,0,0,1,8,9.6C361.65,78.82,360,81.08,358,83q-17.82,17.71-35.56,35.51c-1,1-2.2,1.91-3.3,2.85Z"/><path class="cls-15" d="M341.75,53.26c-1.35,2.34-3.5,4-5.35,5.81q-17.77,17.87-35.63,35.64c-1.09,1.08-1.94,2.6-3.78,2.64l-8.84-7.19c9.69-9.81,19.42-19.58,29.05-29.45,5-5.12,10.47-9.77,14.91-15.42C335.82,47.35,338.75,50.34,341.75,53.26Z"/><path class="cls-15" d="M316.12,33.44c-1.93,2.91-4.67,5.06-7.09,7.5q-17.56,17.67-35.22,35.24c-1,1-2.18,1.92-3.28,2.87L260.2,74.18c0-1.86,1.56-2.7,2.65-3.79q19.95-20,39.95-40c1-1,1.93-2.17,2.89-3.26A49,49,0,0,1,316.12,33.44Z"/></g></g></svg>