<svg xmlns="http://www.w3.org/2000/svg" viewBox="0 0 383.61 383.53"><defs><style>.cls-1{fill:#d3e7fd;}.cls-2{fill:#52a4f8;}.cls-3{fill:#91c6fb;}</style></defs><g id="Слой_2" data-name="Слой 2"><g id="Layer_1" data-name="Layer 1"><path class="cls-1" d="M0,319.18V64.76c.58-7.59,1.63-15,4.94-22C15.15,21.1,31.73,7.13,54.91,1.2,59.36.06,64,.05,68.64.05Q191.31,0,314,0c22.78,0,40.6,9.86,54.6,27.05,10.15,12.46,15,26.9,15,43.22-.17,81.29-.36,162.58.07,243.86.17,31.81-23.68,60-52.35,67.85-4.09,1.12-8.37.75-12.51,1.55H64.35a59.56,59.56,0,0,1-23.24-5.74q-30.81-15-39.88-48C.28,326.34.76,322.68,0,319.18Z"/><path class="cls-2" d="M191.17,279.62c-23.32,0-46.64-.4-69.95.14a25,25,0,0,1-25.56-25.6q.5-62.28,0-124.58A25,25,0,0,1,121,104.17q70.51.57,141,0a25,25,0,0,1,25.37,25.41q-.45,62.47,0,125a24.77,24.77,0,0,1-25.16,25.21C238.57,279.28,214.87,279.62,191.17,279.62Z"/><path class="cls-1" d="M191.45,263.8H121.87c-7.22,0-10.27-3-10.28-10.17,0-35.3,0-70.59-.07-105.88,0-3,.9-3.74,3.8-3.73q76.32.12,152.63,0c2.76,0,3.62.7,3.62,3.54-.1,35.42-.05,70.83-.08,106.25,0,7-3.09,10-10.08,10Z"/><path class="cls-3" d="M191.68,223.94c-4.85-1.05-9-3.46-13.3-5.31-12-5.15-23.92-10.45-35.86-15.7-.8-.35-1.55-.83-2.37-1.12a6.13,6.13,0,0,1-4.48-5.83c0-2.95,2-4.89,4.73-6.09q23.76-10.33,47.46-20.83a8.13,8.13,0,0,1,7.12-.13q23.7,10.48,47.48,20.8c2.86,1.24,5,3.19,5,6.33-.06,2.93-2.13,4.78-4.89,6-15.5,6.76-30.94,13.64-46.42,20.44C194.66,223.13,193.07,223.49,191.68,223.94Z"/><path class="cls-3" d="M151.86,225.13c0-5.21,0-5.23,4.76-3.12,9.07,4.07,18.19,8.05,27.26,12.14,5.48,2.47,10.77,2.07,16.17-.36,9.41-4.24,18.92-8.24,28.35-12.44,2-.91,2.73-.81,2.9,1.7.49,7-2.22,11.78-8.26,15.4-9.39,5.63-19.49,9.13-30.27,9.42-11.5.3-22.23-3.28-32.2-9.17C155.27,235.57,151.52,231.74,151.86,225.13Z"/></g></g></svg>