<svg xmlns="http://www.w3.org/2000/svg" xmlns:xlink="http://www.w3.org/1999/xlink" viewBox="0 0 81.64 125.67">
    <defs>
        <style>
            .cls-1{isolation:isolate;}.cls-2{opacity:0.2;}.cls-3{opacity:0;}.cls-4{opacity:0.09;}.cls-5{opacity:0.18;}.cls-6{opacity:0.27;}.cls-7{opacity:0.36;}.cls-8{opacity:0.45;}.cls-9{opacity:0.55;}.cls-10{opacity:0.64;}.cls-11{opacity:0.73;}.cls-12{opacity:0.82;}.cls-13{opacity:0.91;}.cls-14{fill:url(#linear-gradient);}.cls-15,.cls-17,.cls-21,.cls-22{mix-blend-mode:color-dodge;}.cls-15{fill:url(#radial-gradient);}.cls-16{fill:url(#New_Gradient_Swatch_copy_26);}.cls-17{fill:url(#Radial_Gradient_1);}.cls-18,.cls-19{mix-blend-mode:multiply;}.cls-18{fill:url(#linear-gradient-2);}.cls-19{fill:url(#linear-gradient-3);}.cls-20{fill:url(#New_Gradient_Swatch_copy_34);}.cls-21{fill:url(#radial-gradient-2);}.cls-22{fill:url(#radial-gradient-3);}.cls-23{fill:url(#New_Gradient_Swatch_copy_34-2);}.cls-24{fill:url(#New_Gradient_Swatch_copy_34-3);}.cls-25,.cls-26,.cls-28,.cls-29{mix-blend-mode:screen;}.cls-25,.cls-26{opacity:0.5;}.cls-25{fill:url(#linear-gradient-4);}.cls-27{fill:url(#linear-gradient-5);}.cls-28{fill:url(#linear-gradient-6);}.cls-29{fill:url(#linear-gradient-7);}.cls-30{fill:#25054d;}.cls-31{fill:url(#New_Gradient_Swatch_copy_26-2);}
        </style>
        <linearGradient id="linear-gradient" x1="70.54" y1="82.65" x2="3.35" y2="82.65" gradientUnits="userSpaceOnUse">
            <stop offset="0.06" stop-color="#7c1dc9"/>
            <stop offset="0.09" stop-color="#6e41d2"/>
            <stop offset="0.15" stop-color="#4c9be8"/>
            <stop offset="0.21" stop-color="#2af6ff"/>
            <stop offset="0.23" stop-color="#34dbf8"/>
            <stop offset="0.28" stop-color="#43b3ee"/>
            <stop offset="0.33" stop-color="#4f93e6"/>
            <stop offset="0.37" stop-color="#5979e0"/>
            <stop offset="0.42" stop-color="#6067dc"/>
            <stop offset="0.48" stop-color="#645cd9"/>
            <stop offset="0.54" stop-color="#6559d8"/>
            <stop offset="0.66" stop-color="#645dd9"/>
            <stop offset="0.78" stop-color="#5f68dc"/>
            <stop offset="0.9" stop-color="#587be1"/>
            <stop offset="0.99" stop-color="#5090e6"/>
        </linearGradient>
        <radialGradient id="radial-gradient" cx="-5358.38" cy="144.35" r="22.13"
                        gradientTransform="translate(1528.3 -63.74) scale(0.27 1.08)" gradientUnits="userSpaceOnUse">
            <stop offset="0" stop-color="#fff"/>
            <stop offset="0.02" stop-color="#f7f7f7"/>
            <stop offset="0.13" stop-color="#bebebe"/>
            <stop offset="0.25" stop-color="#8b8b8b"/>
            <stop offset="0.37" stop-color="#606060"/>
            <stop offset="0.49" stop-color="#3e3e3e"/>
            <stop offset="0.62" stop-color="#232323"/>
            <stop offset="0.74" stop-color="#0f0f0f"/>
            <stop offset="0.87" stop-color="#040404"/>
            <stop offset="1"/>
        </radialGradient>
        <linearGradient id="New_Gradient_Swatch_copy_26" x1="39.22" y1="23.53" x2="35.99" y2="65.43"
                        gradientUnits="userSpaceOnUse">
            <stop offset="0.03" stop-color="#7c1dc9"/>
            <stop offset="0.21" stop-color="#6e41d2"/>
            <stop offset="0.62" stop-color="#4c9be8"/>
            <stop offset="1" stop-color="#2af6ff"/>
        </linearGradient>
        <radialGradient id="Radial_Gradient_1" cx="-233.42" cy="-51.94" r="27.98"
                        gradientTransform="translate(257.03 103.04) scale(0.93)" gradientUnits="userSpaceOnUse">
            <stop offset="0" stop-color="#fff"/>
            <stop offset="1"/>
        </radialGradient>
        <linearGradient id="linear-gradient-2" x1="24.72" y1="39.59" x2="14.57" y2="48.61"
                        gradientUnits="userSpaceOnUse">
            <stop offset="0" stop-color="#fff"/>
            <stop offset="1" stop-color="#4b61b8"/>
        </linearGradient>
        <linearGradient id="linear-gradient-3" x1="58.57" y1="60.03" x2="48.42" y2="69.05"
                        xlink:href="#linear-gradient-2"/>
        <linearGradient id="New_Gradient_Swatch_copy_34" x1="77.3" y1="54.23" x2="-11.34" y2="0.23"
                        gradientUnits="userSpaceOnUse">
            <stop offset="0" stop-color="#9f79c8"/>
            <stop offset="0.14" stop-color="#a27dca"/>
            <stop offset="0.27" stop-color="#ac88cf"/>
            <stop offset="0.4" stop-color="#bc9bd7"/>
            <stop offset="0.52" stop-color="#d1b4e3"/>
            <stop offset="0.65" stop-color="#dbc4e9"/>
            <stop offset="0.9" stop-color="#f4edf8"/>
            <stop offset="1" stop-color="#fff"/>
        </linearGradient>
        <radialGradient id="radial-gradient-2" cx="-266.92" cy="-58.32" r="40.73"
                        gradientTransform="translate(257.03 103.04) scale(0.93)" gradientUnits="userSpaceOnUse">
            <stop offset="0" stop-color="#f49587"/>
            <stop offset="0.12" stop-color="#bd7368"/>
            <stop offset="0.24" stop-color="#8b554d"/>
            <stop offset="0.36" stop-color="#603b35"/>
            <stop offset="0.48" stop-color="#3e2622"/>
            <stop offset="0.61" stop-color="#231513"/>
            <stop offset="0.74" stop-color="#0f0908"/>
            <stop offset="0.86" stop-color="#040202"/>
            <stop offset="1"/>
        </radialGradient>
        <radialGradient id="radial-gradient-3" cx="-234.7" cy="-33.74" r="48.55" xlink:href="#radial-gradient-2"/>
        <linearGradient id="New_Gradient_Swatch_copy_34-2" x1="24.92" y1="28.38" x2="-0.07" y2="13.15"
                        xlink:href="#New_Gradient_Swatch_copy_34"/>
        <linearGradient id="New_Gradient_Swatch_copy_34-3" x1="55.73" y1="39.14" x2="-7.75" y2="18.82"
                        xlink:href="#New_Gradient_Swatch_copy_34"/>
        <linearGradient id="linear-gradient-4" x1="33.68" y1="33.78" x2="13.91" y2="21.74"
                        gradientUnits="userSpaceOnUse">
            <stop offset="0" stop-color="#ffe4a7"/>
            <stop offset="1"/>
        </linearGradient>
        <linearGradient id="linear-gradient-5" x1="75.79" y1="51.71" x2="7.79" y2="10.28"
                        xlink:href="#linear-gradient-4"/>
        <linearGradient id="linear-gradient-6" x1="24.77" y1="4.98" x2="28.99" y2="11.96"
                        xlink:href="#linear-gradient-4"/>
        <linearGradient id="linear-gradient-7" x1="50.53" y1="17.5" x2="5.43" y2="33.15"
                        xlink:href="#linear-gradient-4"/>
        <linearGradient id="New_Gradient_Swatch_copy_26-2" x1="10.25" y1="85.96" x2="35.08" y2="83.32"
                        xlink:href="#New_Gradient_Swatch_copy_26"/>
    </defs>
    <g class="cls-1">
        <g id="Слой_2" data-name="Слой 2">
            <g id="Layer_1" data-name="Layer 1">
                <g class="cls-2">
                    <path class="cls-3"
                          d="M59.4,125.67a10.77,10.77,0,0,1-5.38-1.3L28.55,109.74,3.09,95.11A5.7,5.7,0,0,1,0,90.19C0,88,5.11,85.61,7.48,84.25l9.68-3.64c1.85-1.07,5.88-.86,7.35,0l27,13.65,27,13.64a5.7,5.7,0,0,1,3.09,4.93c0,2.18-1.35,4.22-3.72,5.59C77.92,118.41,61.77,125.67,59.4,125.67Z"/>
                    <path class="cls-4"
                          d="M7.26,84.7s5.33-2.08,5.47-2l4-1.25c1.69-1,5.82-.54,7.16.24L48.21,94l2.1,1.06,26.44,13.38a5.92,5.92,0,0,1,3.18,4.67,6.55,6.55,0,0,1,0,1,6.35,6.35,0,0,1-3.33,4.45s-.88.42-2.07,1c-2.07.92-5.33,2.18-8.28,3.31A35.62,35.62,0,0,1,58.6,125a11.13,11.13,0,0,1-5.2-1.36L31.17,110.87l-2.52-1.45L3.9,95.2A5.85,5.85,0,0,1,.76,90.53,2.42,2.42,0,0,1,1.41,89,25.42,25.42,0,0,1,7.26,84.7Z"/>
                    <path class="cls-5"
                          d="M7,85.14s5.07-2,5.36-1.88l3.88-1c1.52-.87,5.76-.2,7,.49L47,94.84l2,1L74.94,109c1.6.93,3.28,2.79,3.28,4.42,0,.29.08.64,0,.92a5.69,5.69,0,0,1-3,4.36s-.94.47-2,1c-2,.92-5.27,2-8.06,3a32.74,32.74,0,0,1-7.36,1.68,11.41,11.41,0,0,1-5-1.42L31.19,110.5l-2.45-1.4L4.7,95.28c-1.6-.92-3.19-2.77-3.19-4.41A2.34,2.34,0,0,1,2,89.4,19.9,19.9,0,0,1,7,85.14Z"/>
                    <path class="cls-6"
                          d="M6.82,85.59s4.81-2,5.24-1.77l3.78-.7c1.35-.78,5.7.12,6.77.73L45.86,95.68l2,1,25.27,12.85c1.43.82,3.38,2.71,3.38,4.16,0,.26.13.61.12.87a5.06,5.06,0,0,1-2.75,4.27s-1,.52-1.93,1c-2,.93-5.22,1.84-7.85,2.7a30.59,30.59,0,0,1-7.1,1.17,12.05,12.05,0,0,1-4.84-1.48l-20.95-12-2.37-1.36L5.51,95.37c-1.43-.83-3.24-2.7-3.24-4.16a2.32,2.32,0,0,1,.29-1.38A14.45,14.45,0,0,1,6.82,85.59Z"/>
                    <path class="cls-7"
                          d="M6.6,86s4.55-2,5.13-1.66L15.4,84c1.18-.68,5.64.44,6.57,1L44.69,96.51l1.94,1,24.69,12.58c1.25.72,3.48,2.65,3.48,3.92,0,.23.24.58.19.8.35,1.47-.53,3.07-2.46,4.18,0,0-1,.57-1.86,1a65.72,65.72,0,0,1-7.64,2.4,29.11,29.11,0,0,1-6.83.66,12.87,12.87,0,0,1-4.66-1.53L31.23,109.78l-2.3-1.32-22.61-13C5.07,94.73,3,92.83,3,91.56c0-.35-.22-1,.11-1.3A7.92,7.92,0,0,1,6.6,86Z"/>
                    <path class="cls-8"
                          d="M6.38,86.49s4.29-2,5-1.55L15,84.8c1-.59,5.57.76,6.38,1.22L43.51,97.35l1.9,1,24.1,12.31c1.07.62,3.58,2.58,3.58,3.67,0,.19.31.55.27.74.52,1.38-.27,3-2.17,4.09,0,0-1.08.61-1.79,1-2,.93-5.08,1.48-7.43,2.08-2,.53-6,.16-6.58.16a14.15,14.15,0,0,1-4.47-1.59L31.25,109.42,29,108.14,7.12,95.54C6.05,94.92,3.78,93,3.78,91.9c0-.3-.35-.91-.07-1.21A5.54,5.54,0,0,1,6.38,86.49Z"/>
                    <path class="cls-9"
                          d="M6.16,86.94s4-1.94,4.89-1.44l3.47.14c.85-.49,5.51,1.08,6.18,1.47L42.34,98.19l1.84.94L67.7,111.18c.9.51,3.68,2.51,3.68,3.41,0,.16.37.53.34.68.7,1.31,0,2.91-1.88,4,0,0-1.13.67-1.72,1A20.44,20.44,0,0,1,60.91,122c-1.62.66-5.87-.35-6.32-.35A15.48,15.48,0,0,1,50.3,120l-19-11-2.15-1.24L7.93,95.62c-.89-.51-3.4-2.47-3.4-3.38,0-.25-.48-.87-.25-1.12A4.06,4.06,0,0,1,6.16,86.94Z"/>
                    <path class="cls-10"
                          d="M5.94,87.39s3.78-1.91,4.78-1.33l3.37.42c.67-.39,5.44,1.4,6,1.71L41.16,99,43,100,65.9,111.72c.71.42,3.77,2.44,3.77,3.17,0,.13.44.49.42.62.87,1.22.28,2.82-1.6,3.91,0,0-1.17.72-1.64.94a16.08,16.08,0,0,1-7,1.48c-1.3.53-5.71-.86-6.06-.86a17.81,17.81,0,0,1-4.1-1.71l-18.4-10.58-2.07-1.2L8.73,95.71c-.71-.41-3.44-2.4-3.44-3.13,0-.2-.62-.82-.43-1C4.42,90.37,4.14,88.43,5.94,87.39Z"/>
                    <path class="cls-11"
                          d="M5.73,87.83S9.24,86,10.38,86.62l3.27.69c.5-.29,5.38,1.73,5.78,2L40,99.86l1.74.9,22.36,11.51c.53.31,3.87,2.37,3.87,2.91,0,.1.51.47.49.56,1,1.15.56,2.75-1.31,3.82,0,0-1.21.78-1.57,1a12.86,12.86,0,0,1-6.79,1.17c-1,.4-5.53-1.37-5.79-1.37a21.72,21.72,0,0,1-3.92-1.77L31.31,108.33l-2-1.16L9.54,95.79C9,95.48,6,93.47,6,92.92c0-.15-.75-.78-.61-.93C4.71,90.87,3.92,88.88,5.73,87.83Z"/>
                    <path class="cls-12"
                          d="M5.51,88.28s3.25-1.85,4.54-1.11l3.16,1c.34-.19,5.32,2,5.58,2.21l20,10.34,1.7.87,21.77,11.25c.36.2,4,2.3,4,2.66,0,.06.59.43.57.5,1.23,1.07.84,2.66-1,3.73,0,0-1.27.83-1.5.94a10.52,10.52,0,0,1-6.58.87c-.65.26-5.36-1.88-5.53-1.88a31.54,31.54,0,0,1-3.74-1.82L31.34,108l-1.94-1.11-19-11C10,95.67,6.8,93.63,6.8,93.26c0-.1-.89-.74-.79-.84C5,91.37,3.69,89.33,5.51,88.28Z"/>
                    <path class="cls-13"
                          d="M5.29,88.73s3-1.82,4.42-1L12.77,89c.17-.1,5.25,2.37,5.39,2.45l19.47,10.09,1.65.86,21.19,11c.18.11,4.06,2.24,4.06,2.42,0,0,.65.4.65.43,1.4,1,1.1,2.58-.73,3.64,0,0-1.31.89-1.43.94a8.59,8.59,0,0,1-6.36.57c-.32.13-5.19-2.39-5.28-2.39s-3.42-1.81-3.55-1.88L31.36,107.6l-1.86-1.07L11.15,96A36.52,36.52,0,0,1,7.56,93.6s-1-.7-1-.75C5.29,91.87,3.47,89.78,5.29,88.73Z"/>
                    <path d="M55.6,121.19l-24.22-14-24.22-14c-1.58-.91-3.91-3-2.09-4.1,0,0,2.73-1.8,4.31-.89l27.08,14.08,27.08,14.08c1.58.91,1.38,2.5-.44,3.55l-1.35.94A6.84,6.84,0,0,1,55.6,121.19Z"/>
                </g>
                <path class="cls-14"
                      d="M69.9,67,3.8,42.3v49c-.22,1.59.63,3.14,2.58,4.27l44.7,25.89c3.87,2.24,10.64,2,15.11-.63h0c2.36-1.36,3.61-3.1,3.69-4.76h0Z"/>
                <ellipse class="cls-15" cx="56.36" cy="92.56" rx="6.08" ry="23.96"/>
                <path class="cls-16"
                      d="M51.08,72.23,6.38,46.34C2.51,44.11,3,40.2,7.46,37.62h0C11.93,35,18.7,34.76,22.57,37l44.7,25.88c3.88,2.24,3.39,6.15-1.08,8.73h0C61.72,74.19,55,74.47,51.08,72.23Z"/>
                <path class="cls-17"
                      d="M66.4,71.18h0c-4.47,2.59-11.24,2.87-15.11.63L6.59,45.92c-2-1.14-2.81-2.71-2.57-4.32-.82,1.94-.09,3.94,2.29,5.31L51,72.8c3.87,2.23,10.64,2,15.11-.63h0c2.19-1.27,3.42-2.85,3.65-4.4A7.55,7.55,0,0,1,66.4,71.18Z"/>
                <path class="cls-18"
                      d="M27.48,43.49c0,2.3-3.2,4.16-7.15,4.16s-7.15-1.86-7.15-4.16,3.2-4.16,7.15-4.16S27.48,41.19,27.48,43.49Z"/>
                <path class="cls-19"
                      d="M61.33,63.93c0,2.3-3.2,4.16-7.15,4.16S47,66.23,47,63.93s3.2-4.16,7.15-4.16S61.33,61.63,61.33,63.93Z"/>
                <path class="cls-20"
                      d="M41.26,2.53h0A18.72,18.72,0,0,0,13.18,18.75v24.7h0v0c0,2,2.75,3.58,6.15,3.58s6.14-1.6,6.14-3.58v-.07h.06v-22A7.93,7.93,0,0,1,37.42,14.5h0a19.77,19.77,0,0,1,9.93,17.15V63.78h.07c.07,1.95,2.79,3.51,6.14,3.51s6.11-1.58,6.14-3.54h0V34.45A36.85,36.85,0,0,0,41.26,2.53Z"/>
                <path class="cls-21"
                      d="M17,45.14h0V21.71A17.5,17.5,0,0,1,34.47,4.23a17.18,17.18,0,0,1,8.69,2.36,34.44,34.44,0,0,1,5,3.45,35.13,35.13,0,0,0-7.49-5.78A17.24,17.24,0,0,0,31.94,1.9,17.51,17.51,0,0,0,14.45,19.39V42.81h0v1.36c0,.74,1,1.53,2.54,2Z"/>
                <path class="cls-22"
                      d="M51.18,65.88h0V35A21.13,21.13,0,0,0,43,18.35a21.13,21.13,0,0,1,5.67,14.36V63.56h0l0,1.23c0,.74,1,1.54,2.52,2Z"/>
                <path class="cls-23"
                      d="M28.41,8.65A10.07,10.07,0,0,0,18.35,18.71V44.3l-.07,2.2c0,.19,3.44-.1,3.53-.42l.06-2.2V18.29A10.07,10.07,0,0,1,29,8.67,5.43,5.43,0,0,0,28.41,8.65Z"/>
                <path class="cls-24"
                      d="M39.14,5.52a16.33,16.33,0,0,0-8.26-2.24,16,16,0,0,0-3.62.42h.09A16.3,16.3,0,0,1,35.62,6,34.81,34.81,0,0,1,53,36V67c0,.17,3.52-.13,3.52-.42V35.62A34.83,34.83,0,0,0,39.14,5.52Z"/>
                <path class="cls-25"
                      d="M22.36,22.36V46c1.39-.43,2.3-1.18,2.34-1.89v0l.06-1.36V21.94a9.22,9.22,0,0,1,6.42-8.78A9.22,9.22,0,0,0,22.36,22.36Z"/>
                <g class="cls-26">
                    <path class="cls-27"
                          d="M41.41,4.33a17.51,17.51,0,0,0-4-1.69,39,39,0,0,1,19,33.4v30.3c1.67-.41,2.79-1.26,2.8-2V35.08A35.57,35.57,0,0,0,41.41,4.33Z"/>
                </g>
                <path class="cls-28"
                      d="M34.45,4.3a19.5,19.5,0,0,1,9.14,2.29A35.39,35.39,0,0,0,40.2,4.36a16.39,16.39,0,0,0-8.26-2.25A16.69,16.69,0,0,0,15.29,18.75v.05A20.11,20.11,0,0,1,34.45,4.3Z"/>
                <path class="cls-29"
                      d="M49.47,32.16a21.57,21.57,0,0,0-5.78-17.82c-5.35-5.65-11.8-7.12-15.2-1.7a10,10,0,0,1,10,0,22,22,0,0,1,11,19Z"/>
                <path class="cls-30"
                      d="M34.91,81.74a11,11,0,0,0-5-8.65c-2.77-1.6-5-.32-5,2.86a11,11,0,0,0,2.54,6.46V92.48l5,2.86V85.27C33.89,85.15,34.91,83.88,34.91,81.74Z"/>
                <path class="cls-31"
                      d="M29.77,91.42V81.35a10.93,10.93,0,0,1-2.54-6.46,4.27,4.27,0,0,1,.67-2.48c-1.77-.14-3,1.17-3,3.54a11,11,0,0,0,2.54,6.46V92.48l5,2.86V92.93Z"/>
            </g>
        </g>
    </g>
</svg>