<svg width="861" height="1355" viewBox="0 0 861 1355" fill="none" xmlns="http://www.w3.org/2000/svg">
    <path d="M860.683 599.788C860.562 576.141 852.699 553.186 838.296 534.435C823.894 515.684 803.746 502.17 780.936 495.961C765.057 491.856 748.596 490.478 732.255 491.884C721.659 492.609 718.987 488.985 719.077 478.566C719.576 419.179 719.304 359.746 719.304 300.358C719.522 279.986 718.129 259.628 715.138 239.476C691.499 89.1269 538.21 -21.8114 388.996 3.64686C239.783 29.1052 142.013 145.208 141.606 297.142C141.606 354.854 140.79 412.61 142.058 470.277C142.466 488.396 137.53 492.337 120.005 492.156C44.7867 491.205 0 536.55 0 611.837V1234.84C0 1310.67 43.9716 1354.75 119.733 1354.84C223.073 1354.84 326.383 1354.84 429.662 1354.84C535.221 1354.84 640.78 1355.2 746.339 1354.84C812.591 1354.57 860.547 1309.54 860.683 1246.66C861.106 1030.98 861.106 815.353 860.683 599.788ZM193.185 244.278C212.839 132.614 314.367 48.7198 430.206 48.4933C546.044 48.2668 647.573 131.98 667.77 243.553C670.641 259.701 672.051 276.075 671.981 292.476C671.981 354.129 671.981 415.781 671.981 477.434C671.981 487.49 670.849 492.156 658.713 492.066C619.677 491.794 619.677 492.383 619.677 452.61C619.677 398.839 620.357 345.114 619.677 291.389C617.911 180.405 528.61 95.4236 420.741 101.131C319.892 106.477 242.545 188.514 241.368 292.295C240.643 353.948 240.87 415.645 241.368 477.253C241.368 489.348 238.153 492.156 226.469 491.975C188.973 491.431 188.973 491.975 188.973 454.331V365.68C190.921 330.075 185.668 286.995 193.185 244.278ZM288.917 288.082C290.411 214.335 344.889 156.714 418.069 148.877C485.227 141.765 549.395 187.517 567.509 255.285C570.893 268.407 572.552 281.915 572.445 295.466C572.445 355.941 572.128 416.461 572.717 476.936C572.717 488.578 570.045 492.247 557.954 492.02C515.703 491.25 473.407 491.703 431.157 491.703C388.906 491.703 345.432 491.341 302.593 491.975C291.634 491.975 288.328 489.348 288.419 478.023C288.917 414.694 287.694 351.365 288.917 288.082ZM813.406 1237.69C813.406 1282.99 789.722 1307.23 744.89 1307.23C535.402 1307.41 325.93 1307.41 116.473 1307.23C71.1877 1307.23 47.5038 1283.18 47.4585 1238.15C47.4585 1132.87 47.4585 1027.61 47.4585 922.365C47.4585 817.633 47.4585 712.931 47.4585 608.259C47.4585 563.865 72.184 539.222 116.835 539.222H743.531C789.088 539.222 813.406 563.729 813.406 609.482C813.466 818.886 813.466 1028.29 813.406 1237.69Z"
          fill="black"/>
    <path d="M541.521 722.987C512.107 694.047 472.468 677.882 431.209 678.001C389.95 678.12 350.404 694.513 321.158 723.622C291.912 752.73 275.327 792.203 275.005 833.469C274.683 874.735 290.649 914.463 319.437 944.024C323.261 947.622 326.266 952 328.25 956.862C330.234 961.723 331.149 966.954 330.935 972.2C330.475 1016.02 329.613 1059.83 331.567 1103.59C333.222 1128.96 344.476 1152.75 363.041 1170.11C381.605 1187.48 406.085 1197.12 431.503 1197.08C456.921 1197.03 481.368 1187.31 499.872 1169.88C518.376 1152.45 529.548 1128.62 531.115 1103.25C532.495 1080.25 531.115 1057.25 531.115 1034.25H531.633C531.633 1014.12 532.207 993.994 531.633 973.925C531.185 968.338 531.985 962.721 533.973 957.48C535.962 952.239 539.089 947.506 543.131 943.622C571.976 914.05 587.988 874.287 587.686 832.973C587.385 791.66 570.795 752.134 541.521 722.987ZM493.114 908.086C485.654 913.537 479.739 920.834 475.95 929.262C472.16 937.69 470.626 946.958 471.498 956.157C472.475 976.916 471.498 997.789 471.498 1018.6C471.498 1041.61 471.498 1064.61 471.498 1087.61C471.153 1119.18 455.803 1137.52 430.508 1137.12C405.212 1136.71 391.069 1118.77 390.84 1088.47C390.84 1043.96 390.265 999.399 390.84 954.892C391.487 946.085 389.91 937.256 386.253 929.217C382.596 921.179 376.977 914.189 369.913 908.891C354.601 896.313 343.541 879.317 338.242 860.221C332.942 841.125 333.661 820.859 340.3 802.186C346.939 783.514 359.175 767.344 375.34 755.883C391.504 744.422 410.81 738.228 430.623 738.144C450.437 738.061 469.794 744.093 486.055 755.417C502.315 766.741 514.687 782.807 521.483 801.423C528.279 820.039 529.169 840.298 524.03 859.438C518.891 878.578 507.975 895.667 492.769 908.373L493.114 908.086Z"
          fill="black"/>
</svg>
