<svg xmlns="http://www.w3.org/2000/svg" viewBox="0 0 137.96 137.58"><defs><style>.cls-1{fill:#405d9d;}.cls-2{fill:#7293ce;}.cls-3{fill:#2e437a;}.cls-4{fill:#2e4379;}.cls-5{fill:#f4c46b;}.cls-6{fill:#fbea75;}.cls-7{fill:#f4bf6c;}.cls-8{fill:#dde3ec;}.cls-9{fill:#e8ecf0;}.cls-10{fill:#ebeff2;}.cls-11{fill:#f9dd83;}</style></defs><g id="Слой_2" data-name="Слой 2"><g id="Слой_1-2" data-name="Слой 1"><path class="cls-1" d="M.81,61.62C2.33,33,27.82,5.4,56.82.94,86.33-3.59,113,8.38,128.3,33.75c8.49,14.08,11.64,29.49,8.42,45.88a10.57,10.57,0,0,1-14.37,3.26,56.66,56.66,0,0,1-5.65-4.08c-3.17-2.31-6.38-4-10.59-2.43s-6-2.71-8.76-4.39c-6.1.72-5.94,7.78-10.5,10.09-4,.21-6.68-3.59-10.59-3.72a3.53,3.53,0,0,1-1.82-2.26c-1.62-6.86-2.58-13.75-1.49-20,2.27-1.9,4.07-1.2,6.29-1.79-2-8-1.42-15.48,5.94-20.11-.12-1.11-.31-1.44-.67-1.47C76.14,32.21,71.07,27.43,68,20c-1.94-.27-2.09,1.4-2.5,2.51-2.19,5.9-6.24,9.18-12.64,9.45a6.67,6.67,0,0,0-3.67,1.19c1.71,3.71,6.06,5.54,7.33,9.49s-1,7.82-.53,11.75c1.62,1.22,3.78-.27,5.23,1.24,1.74,1.89,1.66,4.23,1.63,6.53-.09,6.27-1.42,12.39-2.49,18.53A6.49,6.49,0,0,1,58.05,85c-6.61.58-11.36-3.22-16-7-2.55-2.06-4-5.27-6.83-6.83-3.34-.18-5.61,1.49-7.77,3.32-2.75,2.32-5.72,3.24-9.2,1.86a10.63,10.63,0,0,0-4.41-.51C4.65,76.09-.27,70.71.81,61.62Z"/><path class="cls-2" d="M134.18,91.56c-8.78,22.33-24.3,37.54-47.7,43.71C52.41,144.24,18,126.47,5,93.63c2-2.43,4.78-2,7.36-2a36.22,36.22,0,0,0,14.07-2.26c5.87-2.25,9.25-.59,11.91,5.24,1.65,3.6,2.44,7.55,4.64,10.93,1.26,1.94,2.57,3.48,5.17,2.45,6-2.45,9.26,2.32,13.23,5.15,4.59,1.37,9.2,2.66,13.43,5,1.28.25,2.52.85,4.18.27,3.08-2.34,4.07-6.87,7.71-9.11,4.65-2.84,8.54.25,13.09,1.9,3.67-4.55,7.25-9.22,9.75-14.56,3.7-7.92,5.91-9.25,14.7-7.79a24.93,24.93,0,0,0,6.9.12C132.87,88.8,134.52,89.06,134.18,91.56Z"/><path class="cls-3" d="M134.18,91.56c-.31-.86-.84-1.5-1.82-1.09-3.78,1.59-7.5.66-11.17-.28-4.57-1.18-7.67.64-8.91,4.81-2.18,7.38-8.32,12.16-11.33,19.08-4.94-1.18-8.52-6.51-14-3.41-2.09-.27-3-1.85-3.77-3.51a98.23,98.23,0,0,1-7.69-23.8c-.34-2-.58-3.93,1.07-5.53,4.6-3.14,6.38,2.94,10.51,3.08,2.25-4.4,4-9.65,10.14-11.79,3,.66,3.84,4.87,6.33,6.3,2.55.15,3.29-1.83,5.18-2.43,3.62,1.27,7.53,2.34,10.56,5.52,5.38,5.67,11.34,5.13,17.44,1.12C136.67,83.78,135.26,87.64,134.18,91.56Z"/><path class="cls-4" d="M48.94,109.66c-1.44.74-2.68,2-4.86,1.58a44.67,44.67,0,0,1-5.91-11.06c-1.3-3.83-1.68-8.25-6.71-10.73-8,4.32-17.15,5-26.51,4.18C1.39,83.24-1.46,72.76.81,61.62c.11,1.49.23,3,.34,4.42,2.66,3,4.18,7,9,8.45,3.67-1.24,7.88-1.49,11.4,1.32,4.09-1.21,5.88-4.9,9.38-6.26,3.28-1.27,6.13-1.22,7.86,1.82C43,78.63,50.55,81,57.1,84.8a2.93,2.93,0,0,1,1.08,2.64C56.62,95.46,55.47,103.69,48.94,109.66Z"/><path class="cls-5" d="M76.56,77.83C78,89.41,81.92,100.22,87,110.67c-1.64,2.44-3.3,4.86-4.91,7.32-1.9,2.88-4.12,4.23-7.28,1.73a10.82,10.82,0,0,1-2.84-6.24A431.36,431.36,0,0,1,67.85,59c0-1.82-.19-3.67.64-5.38,1-2.17,3.31-2.54,5.46-3.67,0-4.73-.23-9.6,3.25-13.26-1.11-2.07-3-1.88-4.45-2.53C68.85,32.42,65,24.56,66,20.3a2.41,2.41,0,0,1,2.76-2.18c3,3,3.69,7.33,6.64,10.69l15.06,2.8L79.67,43c.65,4.92,1.31,10,2,15.49l-7.27-3.25C74.21,63.14,74.63,70.53,76.56,77.83Z"/><path class="cls-6" d="M68.72,18.12c-2.62,4.47,1,13.6,5.73,14.66,2,.45,4.07,1,7.19,1.72-4.63,5.13-3,18.09.07,24-4.71-1.72-9.6-6.1-11.91-5.78a7.27,7.27,0,0,1-3.59,1.48c-2,.66-3.89,2.13-6.2,1.06l-6.1,3.12c-.53-5.38,1.43-10.08,1.38-15.47L45,32.1c5-2.16,10.19-1.77,15.2-3.49l6.64-12.44C68.31,16.18,67.71,17.87,68.72,18.12Z"/><path class="cls-7" d="M60,55.24l5.77-2.47C69.43,56.2,68,60.68,67.6,64.54,66.53,74,67.32,83.42,66,92.81c-.82,5.73-1,11.54-2.08,17.25-.36,2.06-.9,3.9-3.09,4.7-3.12-1-4.41-4.31-7-5.8-1.83-.72-3.23.68-4.85.7,3.22-8.13,6.92-16.09,8.16-24.86C59.54,75.09,62.07,65.39,60,55.24Z"/><path class="cls-8" d="M35.14,60.31c1.61-2.8,3.08-2.79,4.8-.08C38.28,63.3,36.81,63.13,35.14,60.31Z"/><path class="cls-9" d="M107.83,45.81c.91-1.74,1.91-2.76,3.53-1.42a1.74,1.74,0,0,1,0,2.94C109.66,48.58,108.67,47.59,107.83,45.81Z"/><path class="cls-10" d="M52.15,20c-1,3.13-2.2,3.62-4.35.78C48.9,18.35,50.15,17.9,52.15,20Z"/><path class="cls-11" d="M60.82,114.76c2.07-6.33,2.27-13,2.81-19.5,1.17-14.13,1.49-28.33,2.15-42.49a3.47,3.47,0,0,1,4-.07C70,74,71.13,95.22,74.7,116.25a22.28,22.28,0,0,1,.06,3.47Z"/></g></g></svg>