<svg xmlns="http://www.w3.org/2000/svg" viewBox="0 0 289.85 396.1"><defs><style>.cls-1{fill:#ecf5fe;}.cls-2{fill:#cce1fe;}.cls-3{fill:#ef7281;}.cls-4{fill:#7a8c98;}.cls-5{fill:#7a8b97;}.cls-6{fill:#b5c3ce;}.cls-7{fill:#7a8c97;}.cls-8{font-size:72px;fill:#d41d00;font-family:Times-Roman, Times;}.cls-9{fill:#d73724;}.cls-10{fill:#ee5227;}.cls-11{fill:#9c9ea6;}.cls-12{fill:#868490;}.cls-13{fill:#9c9fa7;}.cls-14{fill:#f0f1f1;}.cls-15{fill:#dde0e0;}.cls-16{fill:#868491;}.cls-17{fill:#868390;}.cls-18{fill:#9ea1a9;}.cls-19{fill:#77777e;}.cls-20{fill:#9b9ea6;}.cls-21{fill:#9c9fa6;}</style></defs><g id="Слой_2" data-name="Слой 2"><g id="Layer_1" data-name="Layer 1"><path class="cls-1" d="M259.43,396.1H11c-6.77-1.69-9.69-5-10.73-12.05a38.83,38.83,0,0,1-.26-5.6q0-174,0-348c0-4.41.21-8.79,2.75-12.6a10.85,10.85,0,0,1,8.6-5.26c.88,0,1.75-.07,2.62-.07q122.51,0,245,0c7.8,1.57,11.3,5.64,11.34,13.7.1,18.89.05,37.79,0,56.68,0,1.6.08,3.26-1,4.63-2.07.69-1.79-1.2-2.15-2.14-.71-1.86-.92-3.89-1.65-5.75-1.13-2.89-3.38-4.25-5.73-3.58-2.51.72-3.83,3.22-3.13,6.32,1.37,6.09,2.34,12.12,1.64,18.47-3.53,31.85-40.67,49.31-67.54,31.64a44,44,0,0,1,17-80.29c11.29-1.91,21.48.88,31,6.79,1.48.92,2.82,2.07,4.37,2.88,2.58,1.37,5.35.84,6.64-1.28,1.51-2.48.64-4.58-1.36-6.29a49.65,49.65,0,0,0-23.06-11c-18.17-3.53-34.26,1.19-47.67,13.71a50.69,50.69,0,0,0-16.05,32.5,53.74,53.74,0,0,0,6,31.44c.71,1.35,1.9,2.91-.31,4.14-2.19.73-4.45.5-6.68.5H54.12a41.13,41.13,0,0,0-6,.2c-3.25.48-5,2.1-4.92,4.61s1.83,4.16,5,4.53a45.44,45.44,0,0,0,5.22.13h117a55.81,55.81,0,0,1,6.34.2c2,0,3.51,1.06,5,2.25,24.33,19.68,64.06,14.22,80.83-18.18A51.39,51.39,0,0,0,267,106.75c.26-1.22-.13-3.49,2.48-3,1.1,1.69.94,3.6.94,5.45q0,136.29,0,272.58c0,.49,0-.13,0,.37C270.26,390.51,267.4,394.14,259.43,396.1Z"/><path class="cls-2" d="M259.44,12.91H272.9c8.52,0,13.7,4.9,14.19,13.43.06,1,0,2,0,3q0,175.23,0,350.46c0,7.58-2.5,13.28-9.77,16.32H259.43c3.55-1.74,7.2-3.26,8.71-7.53a15.65,15.65,0,0,0,1-5.42q0-138,0-276c0-1.23.27-2.5-.44-3.65-1.78-1.81-.77-4-.64-6,.2-3.24-1.2-6.6.61-9.73.8-1.26.47-2.67.47-4,0-18.18-.26-36.37.14-54.55C269.46,21.25,267.15,15.66,259.44,12.91Z"/><path class="cls-3" d="M268.67,87.75a63.53,63.53,0,0,1,0,15.71c-4.54,23.3-17.88,38.88-41,44.93-17,4.45-32.78.75-46.78-10-1-.75-2-1.44-3-2.16a21.12,21.12,0,0,1-9.64-11.68c-4.2-7.73-7.29-15.75-7.84-24.69C159.25,80,166.48,63.9,182.2,52,202.13,37,228.82,37.59,248.47,53c3.6,2.82,4.32,6,2,8.93-2.13,2.65-5.52,2.74-9,.23-25-18.23-57.35-8.66-67.5,20-8.68,24.48,8.29,51.87,33.87,56a43.37,43.37,0,0,0,49.78-41.44A41.73,41.73,0,0,0,255.73,83c-1.2-4.09.2-7.07,3.61-8.11s6.32.8,7.46,4.85C267.54,82.39,268.06,85.08,268.67,87.75Z"/><path class="cls-4" d="M143.43,348.25h93.5a23.5,23.5,0,0,1,3.36.07c3.25.47,5.34,2.4,5.43,5.67.07,3.07-1.78,5.12-4.88,5.71a21.38,21.38,0,0,1-4.08.29q-92.94,0-185.87,0a24.27,24.27,0,0,1-4.82-.41A5.13,5.13,0,0,1,41.62,354c.06-3.22,1.92-5,5-5.63a19.27,19.27,0,0,1,3.73-.11Z"/><path class="cls-5" d="M143.59,251.79q-47.48,0-95,0c-4.45,0-6.69-1.65-7-5a5.61,5.61,0,0,1,5-6.28,26.88,26.88,0,0,1,3.36-.06H237.32c1,0,2-.05,3,0a5.91,5.91,0,0,1,5.48,5.62,5.69,5.69,0,0,1-5.36,5.67c-1.24.12-2.49.06-3.74.06Z"/><path class="cls-4" d="M168.29,124.53a107.51,107.51,0,0,0,9.64,11.68q-31.62,0-63.23.1-32.36,0-64.72,0a16.45,16.45,0,0,1-3.72-.16c-2.84-.68-4.59-2.49-4.64-5.53S43,125.6,46,125a21.33,21.33,0,0,1,4.45-.35Z"/><path class="cls-4" d="M83.6,159.49h-34a11.18,11.18,0,0,1-4.41-.57,5.28,5.28,0,0,1-3.56-5.18,5.13,5.13,0,0,1,3.68-5.44,11.9,11.9,0,0,1,3.66-.55q34.76,0,69.51,0c3.41,0,6.28.88,7.07,4.65.89,4.21-1.86,7.08-6.81,7.1C107,159.52,95.31,159.49,83.6,159.49Z"/><path class="cls-5" d="M84,263.55q17.37,0,34.73,0c4.71,0,7,2,7,5.83s-2.3,5.56-6.85,5.56q-35.1,0-70.21,0c-4.63,0-7.08-2.09-7-5.82.07-3.58,2.45-5.56,6.9-5.57Q66.23,263.53,84,263.55Z"/><path class="cls-4" d="M70.49,60.79c-7.36,0-14.72,0-22.08,0-4.36,0-6.77-2-6.89-5.64-.11-3.83,2.35-6.23,6.75-6.24q22.26-.09,44.52,0c4.12,0,7.21,2.79,7.11,6.12-.11,3.49-3,5.76-7.34,5.77C85.2,60.81,77.85,60.79,70.49,60.79Z"/><path class="cls-4" d="M70.49,90q-11,0-22.07,0c-4.38,0-6.79-2-6.9-5.54-.11-3.79,2.31-6.23,6.76-6.28,10.59-.11,21.19,0,31.79,0,4.24,0,8.48-.09,12.71,0s7.17,2.76,7.11,6.16S97.07,90,92.55,90Q81.53,90,70.49,90Z"/><path class="cls-6" d="M143.59,293.54c7.81,0,13.37,5.65,13.35,13.52a13.39,13.39,0,0,1-13.2,13.42c-7.39,0-13.72-6.22-13.72-13.46A13.45,13.45,0,0,1,143.59,293.54Z"/><path class="cls-7" d="M83.52,204.63a13.18,13.18,0,0,1-13.45-13.45,13.51,13.51,0,0,1,13.57-13.49A13.8,13.8,0,0,1,97,191.12,13.42,13.42,0,0,1,83.52,204.63Z"/><path class="cls-6" d="M67.08,307c0-7.85,5.56-13.47,13.37-13.49A13.45,13.45,0,0,1,94,307c0,7.1-6.53,13.47-13.77,13.46A13.4,13.4,0,0,1,67.08,307Z"/><path class="cls-6" d="M203.6,204.55c-7.89,0-13.14-5.46-13.08-13.55a13.37,13.37,0,0,1,13.2-13.38c6.93,0,13.87,6.47,13.61,13.3C217,198.47,212.14,204.67,203.6,204.55Z"/><path class="cls-6" d="M143.79,204.55c-7.65,0-13.78-5.84-13.78-13.18,0-7.07,6.4-13.54,13.58-13.74,7-.21,13.3,6.09,13.35,13.29C157,198.78,151.45,204.53,143.79,204.55Z"/><path class="cls-7" d="M191.94,306.5c.14-7.54,6.14-13.17,13.87-13a13.51,13.51,0,0,1,13,13.63A13.91,13.91,0,0,1,205,320.45,13.45,13.45,0,0,1,191.94,306.5Z"/><text/><text class="cls-8" transform="translate(198.63 120.77)">5</text><path class="cls-9" d="M210.2,175.2c-2.29-1.32-4.94-1.18-7.4-1.78-9.28-2.23-17.62-6.47-25.51-11.69-4.31-1.87-7.63-5-10.63-8.48-1.22-1.41-2.4-2.86-3.68-4.22a69.53,69.53,0,0,1-15.41-43.92c-.08-20.75,7.44-38.35,22.67-52.56.94-.88,1.81-2.19,3.48-1.5.86,2.21-.42,4.07-1.08,6a57.1,57.1,0,0,0-3.4,16.17,10.77,10.77,0,0,1-1.06,3.46,62.76,62.76,0,0,0-6.7,21.75,47.79,47.79,0,0,0,0,12,59.22,59.22,0,0,0,8.89,25.69,80.71,80.71,0,0,0,7.66,9.63c10.1,9.24,21.57,15.52,35.51,16.48,3.47.37,6.94.84,10.41,0,.38,0,.76,0,1.14,0A53.81,53.81,0,0,0,252,152.54c2.14-1.46,4.21-3,6.22-4.69a9.25,9.25,0,0,1,2.84-1.82,65.56,65.56,0,0,0,16.55-8.37c1.33-.87,2.59-2.59,4.61-1.34-9.44,18.92-24.65,30.8-44.8,36.59-3.28.94-6.66,1.53-10,2.29Z"/><path class="cls-10" d="M173.52,50.9c9.09-8.07,19.74-13,31.52-15.6.71-.15,1.4-.41,2.1-.62,2.92-2,6.36-1.54,9.61-2a47.23,47.23,0,0,1,14.83,1.51c.34.28.67.58,1,.87,11.66,2.25,21.93,7.49,31.41,14.49,6.63,4.72,12.31,10.28,15.63,17.89,7.63,13.44,11.34,27.77,10,43.28a66.15,66.15,0,0,1-7.36,25.56c-3.89,1.15-6.72,4.13-10.22,6s-7,3.65-10.95,4.46a1.11,1.11,0,0,1-.14-1c2.35-3.24,5.29-6,7.3-9.54a57.49,57.49,0,0,0,9-26.76c0-3.29,0-6.58,0-9.86a56.22,56.22,0,0,0-10.42-28.54,40.31,40.31,0,0,0-7.94-9.33c-9.75-8.66-20.94-14-34.08-15a28.74,28.74,0,0,0-11.09,0c-11.4.73-21.38,5-30.32,12-1.27,1-2.52,2-3.78,3-3.14,2.5-5.42,5.76-7.81,8.91-1,1.12-1.46,2.89-3.36,3-.34-6.39,1.68-12.3,3.72-18.21C172.65,54,173.06,52.42,173.52,50.9Z"/><path class="cls-11" d="M232.57,35.1l-.37,0-.33-.14c-1.65-2.33-1-5-1.05-7.54-.1-6,0-6-6.2-6.05-2.44,0-4.93.35-7.32-.54a2.16,2.16,0,0,1-.93-.94c-1.14-4.42-.39-8.93-.57-13.39-.17-4.16-.37-4.45-4.5-4.52-3-.05-6,0-9,0-1.47,0-3,.09-4.17-1.17,6.11-1.45,12.31-.44,18.47-.65C221.71,0,226.81.09,231.91.07c2.61,0,5.22.08,7.83.15s4.11,1.43,4.1,4.2c0,3.85-.07,7.71,0,11.57.08,3.24-1.5,4.34-4.59,4.35-6.73,0-6.73.11-6.73,6.93Z"/><path class="cls-12" d="M279.61,67.48A110,110,0,0,0,264,49.59l5.26-4.66a2.93,2.93,0,0,1,3.07.86,70.85,70.85,0,0,1,12.55,14.7,1.83,1.83,0,0,1,.21,1.77Z"/><path class="cls-13" d="M285.07,62.26A83,83,0,0,0,272.59,47.2a27,27,0,0,0-3.35-2.27c4.61-4.84,5.4-4.8,9.8.25,2.28,2.62,4.61,5.19,6.94,7.76C290.16,57.53,290.1,58.21,285.07,62.26Z"/><path class="cls-14" d="M261.15,146.07c0,.22-.07.45-.11.68l-2.27,1.48c-6.72,3.61-14.08,3.47-21.37,3.45-3.8,0-7.7.33-11.4-1.05a5.23,5.23,0,0,1-2.25-1.84c-3-3.67-4-3.85-8.12-1.63a3.85,3.85,0,0,1-1,.26c-6.57-1.45-12.2-4.9-17.56-8.71a73,73,0,0,1-20-21.36,19.92,19.92,0,0,1-3.07-6.74,1.6,1.6,0,0,1,.41-1c2.34-1.49,4.1-3.34,3.17-6.38-.86-2.84-3.2-3.5-5.85-3.53a4.27,4.27,0,0,1-1.8-.45,2.82,2.82,0,0,1-.85-.87c-1.89-7.26-3.9-14.49-1.54-22l.88-2.71,2.77-3.27c2,.43,3.35,2,5,3.12a4.5,4.5,0,0,0,6.35-.59c1.84-1.92,1.37-4-.08-6.06-1.25-1.76-3.64-2.71-3.77-5.27a55.86,55.86,0,0,1,34.68-15.83c1.36,1.89.82,4.07.91,6.15.1,2.23-.16,4.49.38,6.69.6,2.46,1.77,4.56,4.63,4.55,3.1,0,4.21-2.31,4.66-4.92s.13-5.21.21-7.82c0-1.6-.17-3.27,1-4.63,13.48,1.06,25,6.54,34.73,15.78-.12,2.25-2.12,3.18-3.33,4.66-2.06,2.51-2.29,4.6-.45,6.58,2,2.17,4.19,2.12,6.61.53,1.52-1,2.65-2.62,4.59-3,6.65,8.33,9.83,18,10.87,28.47-1.28,1.31-3,1-4.54,1.09-2.59.08-5.2-.14-7.78.13-3.12.32-5,2.09-5,4.48s1.95,4.2,5,4.43c2.71.2,5.44,0,8.15.09,1.46,0,3-.15,4.14,1.15a54,54,0,0,1-9.61,26.92c-2.26.18-3.49-1.57-5-2.71-2.9-2.15-5.78-2.19-7.61-.06s-1.32,4.91,1.48,7.35C258.82,143,260.6,144,261.15,146.07Z"/><path class="cls-15" d="M174.34,110.22c8.62,17.51,21.8,30,40.33,36.53-.77,5.45.63,11.08-1.39,16.42A55,55,0,0,1,177.41,146c.35-2.09,2.18-2.9,3.57-4.09,3-2.52,3.51-5.05,1.65-7.41s-4.91-2.36-7.92,0c-1.41,1.14-2.51,2.88-4.72,2.54a54.71,54.71,0,0,1-9.41-26.45,1.54,1.54,0,0,1,1.24-1.24C166,109,170.31,107.85,174.34,110.22Z"/><path class="cls-15" d="M225.25,149.73a88.6,88.6,0,0,0,33.52-1.5,54.07,54.07,0,0,1-33.56,14.91A17.78,17.78,0,0,1,225.25,149.73Z"/><path class="cls-16" d="M213.28,163.17c0-4,0-7.92,0-11.87a9.64,9.64,0,0,1,1.4-4.55l.72-.16a16.5,16.5,0,0,1,3,.17c5.93,1.25,6.48,1.84,6.4,7.88,0,2.84.4,5.7-.31,8.52A28,28,0,0,1,213.28,163.17Z"/><path class="cls-17" d="M174.34,110.22c-4.58.19-9.2-.55-13.76.44a33.25,33.25,0,0,1,0-12.42c3.13-.57,6.26-1.11,9.27.52l.68.25c1.72,3.52,3.68,6.95,3.74,11Z"/><path class="cls-16" d="M170,137.11c1.64-1.3,3.27-2.62,4.93-3.89,2.92-2.22,6.22-2.07,8.32.34,2.31,2.64,2,5.85-1,8.47-1.56,1.39-3.23,2.67-4.86,4C174.35,143.55,172.19,140.31,170,137.11Z"/><path class="cls-15" d="M169.82,98.76c-3.09-.1-6.25.79-9.27-.52.81-7.77,2.82-15.16,7-21.87C167.09,84,168.39,91.37,169.82,98.76Z"/><path class="cls-18" d="M224.45,163.16c0-.25,0-.5,0-.75.47-7.27,1.39-14.79-9.05-15.82,4.1-3.4,6.88-2.52,9.86,3.14q0,6.71,0,13.41Z"/><path class="cls-16" d="M198.15.8c5.2,0,10.4.13,15.6,0C216.15.74,217,1.49,217,4c-.15,5.44,0,10.9,0,16.35a10.35,10.35,0,0,1-9.94.05c-2.36,0-4.71-.1-7.06-.05-2.07,0-3.55-.93-3.64-2.9-.21-4.69-.15-9.4-.07-14.1A2.76,2.76,0,0,1,198.15.8Z"/><path class="cls-19" d="M207,20.36l9.94-.05h0a17.11,17.11,0,0,1,0,13.43l-9.8.94Z"/><path class="cls-13" d="M225.1,45.78c0,4,.06,7.92,0,11.87-.11,4.17-2.42,6.77-5.82,6.78s-5.59-2.35-5.83-6.42-.08-8.17-.1-12.25A29.76,29.76,0,0,1,225.1,45.78Z"/><path class="cls-16" d="M216.94,33.74q0-6.72,0-13.43c4,0,7.92.12,11.86-.06,2.51-.11,3.21.88,3.12,3.24-.15,3.82,0,7.66,0,11.49A99.58,99.58,0,0,0,216.94,33.74Z"/><path class="cls-20" d="M278.12,110.2c-4.24,0-8.48,0-12.72-.07-3.55-.08-5.78-2.2-5.87-5.41s2.15-5.7,5.88-5.82c4.23-.13,8.47-.06,12.71-.07A56.11,56.11,0,0,1,278.12,110.2Z"/><path class="cls-13" d="M261.15,146.07c-1.73-1.41-3.49-2.78-5.17-4.25-2.6-2.26-3-5.43-1-8a5.73,5.73,0,0,1,8-1.06c1.93,1.34,3.72,2.88,5.58,4.32A32.9,32.9,0,0,1,261.15,146.07Z"/><path class="cls-21" d="M178.65,61.59c1.5,1.5,3.07,2.92,4.48,4.49,2.11,2.37,2.24,5,.22,7.45a5.43,5.43,0,0,1-7.69.76c-1.56-1.2-3.38-2.15-4.47-3.9A30.77,30.77,0,0,1,178.65,61.59Z"/><path class="cls-13" d="M267.25,70.36a16,16,0,0,1-4.74,4.16c-2.73,1.87-5.31,1.18-7.32-1.11a5.05,5.05,0,0,1,.15-7.39c1.45-1.54,3-3,4.49-4.47A31.41,31.41,0,0,1,267.25,70.36Z"/><path class="cls-13" d="M218.87,109.35a5.13,5.13,0,0,1-4.5-2.85c-1.13-2.21-1.14-4.58.51-6.31C220.82,94,226.82,87.8,233.1,81.93c2.14-2,5.13-1.83,7.44.49s2.39,5.38-.37,8.31c-4.7,5-9.62,9.77-14.46,14.63-.79.8-1.56,1.61-2.4,2.37A5.75,5.75,0,0,1,218.87,109.35Z"/><path class="cls-13" d="M174.24,110c-1.45-3.61-3.55-7-3.74-11,2.22-.15,4.43-.54,6.39,1.15a5.59,5.59,0,0,1,1.9,5.7A4.75,4.75,0,0,1,174.24,110Z"/></g></g></svg>