<svg xmlns="http://www.w3.org/2000/svg" xmlns:xlink="http://www.w3.org/1999/xlink" viewBox="0 0 60.23 120.83">
    <defs>
        <style>
            .cls-1{isolation:isolate;}.cls-2{opacity:0.2;}.cls-3{opacity:0;}.cls-4{opacity:0.09;}.cls-5{opacity:0.18;}.cls-6{opacity:0.27;}.cls-7{opacity:0.36;}.cls-8{opacity:0.45;}.cls-9{opacity:0.55;}.cls-10{opacity:0.64;}.cls-11{opacity:0.73;}.cls-12{opacity:0.82;}.cls-13{opacity:0.91;}.cls-14{fill:url(#linear-gradient);}.cls-15{mix-blend-mode:screen;opacity:0.6;fill:url(#radial-gradient);}.cls-16{fill:#fff;}.cls-17{fill:url(#New_Gradient_Swatch_copy_34);}.cls-18{fill:url(#New_Gradient_Swatch_copy_36);}.cls-19{fill:#bcbec0;mix-blend-mode:multiply;}.cls-20{opacity:0.5;fill:url(#New_Gradient_Swatch_copy_36-2);}.cls-21{fill:url(#New_Gradient_Swatch_copy_34-2);}.cls-22,.cls-25{mix-blend-mode:color-dodge;}.cls-22{fill:url(#radial-gradient-2);}.cls-23{fill:url(#New_Gradient_Swatch_copy_26);}.cls-24{fill:#45108a;}.cls-25{fill:url(#radial-gradient-3);}
        </style>
        <linearGradient id="linear-gradient" x1="-1231.01" y1="2.05" x2="-1191.69" y2="70.16"
                        gradientTransform="translate(1224.61)" gradientUnits="userSpaceOnUse">
            <stop offset="0.06" stop-color="#9f79b8"/>
            <stop offset="0.26" stop-color="#a17bba"/>
            <stop offset="0.36" stop-color="#a783bf"/>
            <stop offset="0.43" stop-color="#b290c9"/>
            <stop offset="0.49" stop-color="#c1a1d5"/>
            <stop offset="0.51" stop-color="#c4a5d7"/>
            <stop offset="0.52" stop-color="#cdb3dd"/>
            <stop offset="0.53" stop-color="#dbc8e7"/>
            <stop offset="0.55" stop-color="#efe7f4"/>
            <stop offset="0.56" stop-color="#fff"/>
            <stop offset="0.57" stop-color="#ece0f3"/>
            <stop offset="0.58" stop-color="#ddc8ea"/>
            <stop offset="0.59" stop-color="#d4b9e5"/>
            <stop offset="0.6" stop-color="#d1b4e3"/>
            <stop offset="0.66" stop-color="#b395d6"/>
            <stop offset="0.72" stop-color="#9c7dcb"/>
            <stop offset="0.77" stop-color="#8e6ec5"/>
            <stop offset="0.81" stop-color="#8969c3"/>
            <stop offset="1" stop-color="#b086cc"/>
        </linearGradient>
        <radialGradient id="radial-gradient" cx="-1182.37" cy="26.26" r="41.99" gradientTransform="translate(1224.61)"
                        gradientUnits="userSpaceOnUse">
            <stop offset="0" stop-color="#af8afc"/>
            <stop offset="1" stop-color="#10054d"/>
        </radialGradient>
        <linearGradient id="New_Gradient_Swatch_copy_34" x1="-1176.55" y1="114.46" x2="-1237.68" y2="-14.69"
                        gradientTransform="translate(1224.61)" gradientUnits="userSpaceOnUse">
            <stop offset="0" stop-color="#9f79c8"/>
            <stop offset="0.14" stop-color="#a27dca"/>
            <stop offset="0.27" stop-color="#ac88cf"/>
            <stop offset="0.4" stop-color="#bc9bd7"/>
            <stop offset="0.52" stop-color="#d1b4e3"/>
            <stop offset="0.65" stop-color="#dbc4e9"/>
            <stop offset="0.9" stop-color="#f4edf8"/>
            <stop offset="1" stop-color="#fff"/>
        </linearGradient>
        <linearGradient id="New_Gradient_Swatch_copy_36" x1="43.2" y1="142.28" x2="10.01" y2="7.55"
                        gradientUnits="userSpaceOnUse">
            <stop offset="0.1" stop-color="#45108a"/>
            <stop offset="1" stop-color="#7c1dc9"/>
        </linearGradient>
        <linearGradient id="New_Gradient_Swatch_copy_36-2" x1="46.67" y1="50.61" x2="39.79" y2="32"
                        xlink:href="#New_Gradient_Swatch_copy_36"/>
        <linearGradient id="New_Gradient_Swatch_copy_34-2" x1="-1176.87" y1="47.5" x2="-1184.09" y2="47.19"
                        xlink:href="#New_Gradient_Swatch_copy_34"/>
        <radialGradient id="radial-gradient-2" cx="-1180.06" cy="44.43" r="4.24" gradientTransform="translate(1224.61)"
                        gradientUnits="userSpaceOnUse">
            <stop offset="0" stop-color="#711f56"/>
            <stop offset="0.16" stop-color="#6c1e52"/>
            <stop offset="0.36" stop-color="#5c1946"/>
            <stop offset="0.58" stop-color="#431233"/>
            <stop offset="0.82" stop-color="#200918"/>
            <stop offset="1"/>
        </radialGradient>
        <linearGradient id="New_Gradient_Swatch_copy_26" x1="40.11" y1="115.35" x2="3.18" y2="-4.5"
                        gradientUnits="userSpaceOnUse">
            <stop offset="0.03" stop-color="#7c1dc9"/>
            <stop offset="0.21" stop-color="#6e41d2"/>
            <stop offset="0.62" stop-color="#4c9be8"/>
            <stop offset="1" stop-color="#2af6ff"/>
        </linearGradient>
        <radialGradient id="radial-gradient-3" cx="447.8" cy="-8087.12" r="10.53"
                        gradientTransform="matrix(0.62, -0.34, 0.16, 0.29, 1060.28, 2511.21)"
                        gradientUnits="userSpaceOnUse">
            <stop offset="0" stop-color="#4b61b8"/>
            <stop offset="0.13" stop-color="#38498a"/>
            <stop offset="0.27" stop-color="#273360"/>
            <stop offset="0.41" stop-color="#19203e"/>
            <stop offset="0.55" stop-color="#0e1223"/>
            <stop offset="0.7" stop-color="#06080f"/>
            <stop offset="0.84" stop-color="#020204"/>
            <stop offset="1"/>
        </radialGradient>
    </defs>
    <g class="cls-1">
        <g id="Слой_2" data-name="Слой 2">
            <g id="Layer_1" data-name="Layer 1">
                <g class="cls-2">
                    <path class="cls-3"
                          d="M39.25,120.83a10.23,10.23,0,0,1-5.15-1.25l-15.57-9L3,101.6a5.47,5.47,0,0,1-3-4.72c0-2.09,1.3-4,3.56-5.35l11.15-7A12.76,12.76,0,0,1,21,83a10.37,10.37,0,0,1,5.16,1.24l15.57,9,15.57,9a5.46,5.46,0,0,1,3,4.71c0,2.1-8.58,8.71-10.84,10l-3.88,2.29A12.64,12.64,0,0,1,39.25,120.83Z"/>
                    <path class="cls-4"
                          d="M3.7,91.77l7.88-4.94c.07,0,2.91-1.79,3-1.81a12.59,12.59,0,0,1,6.11-1.45,12.77,12.77,0,0,1,2.19.24,10.14,10.14,0,0,1,2.8,1l15.16,8.76,3.69,2.14L56,102.36a5.62,5.62,0,0,1,3,4.47c0,.85-1.28,2.66-3.13,4.43a47.38,47.38,0,0,1-6.44,5.31l-3.82,2.29a13.71,13.71,0,0,1-2.8,1.19,13.85,13.85,0,0,1-3.37.49,10.24,10.24,0,0,1-5.11-1.16l-.86-.48-14.56-8.42-2.79-1.61L3.48,101.58A6.05,6.05,0,0,1,.42,97.37c0-.1,0-.21,0-.31C.22,95,1.43,93.08,3.7,91.77Z"/>
                    <path class="cls-5"
                          d="M3.84,92l7.66-4.82c.12-.07,2.76-1.68,2.91-1.71a12.19,12.19,0,0,1,6-1.31,11.69,11.69,0,0,1,2.11.27,10.69,10.69,0,0,1,2.71,1L39.94,94l3.59,2.08,11.14,6.43c1.54.89,3.06,2.67,3.06,4.23a8.18,8.18,0,0,1-2.44,4.2,37.23,37.23,0,0,1-5.85,5.27l-3.78,2.28a14.82,14.82,0,0,1-2.75,1.22,13.88,13.88,0,0,1-3.32.54,10.14,10.14,0,0,1-5.07-1.07l-.85-.47-14.42-8.33-2.75-1.59L4,101.57a6.81,6.81,0,0,1-3.18-4l-.06-.31C.44,95.29,1.55,93.33,3.84,92Z"/>
                    <path class="cls-6"
                          d="M4,92.24l7.44-4.68c.19-.12,2.62-1.58,2.85-1.63a11.94,11.94,0,0,1,5.8-1.17,12.94,12.94,0,0,1,2.05.31,11.22,11.22,0,0,1,2.61,1.05L39.05,94.4l3.5,2,10.82,6.25c1.37.79,3.11,2.59,3.11,4a7,7,0,0,1-1.75,4c-1.56,1.82-3.68,4.31-5.27,5.23l-3.73,2.27a17,17,0,0,1-2.7,1.24,13.52,13.52,0,0,1-3.26.6,10.14,10.14,0,0,1-5-1c-.08,0-.78-.43-.85-.47l-14.26-8.24-2.73-1.57L4.52,101.55c-1.29-.74-3-2.58-3.3-3.85,0-.1-.06-.19-.08-.29C.65,95.54,1.68,93.57,4,92.24Z"/>
                    <path class="cls-7"
                          d="M4.11,92.48l7.21-4.56c.26-.15,2.49-1.47,2.79-1.54a11.63,11.63,0,0,1,5.65-1,12.2,12.2,0,0,1,2,.34,12.86,12.86,0,0,1,2.51,1l13.92,8,3.4,2,10.5,6.07c1.2.69,3.17,2.52,3.17,3.74,0,.6.27,2.56-1.07,3.75a13.35,13.35,0,0,1-4.69,5.18l-3.68,2.25A19.08,19.08,0,0,1,43.15,119a13.55,13.55,0,0,1-3.21.65,10,10,0,0,1-5-.89c-.11,0-.75-.4-.84-.46L20,110.17l-2.7-1.56L5,101.54C3.91,100.89,1.7,99,1.63,97.86a2.33,2.33,0,0,1-.11-.28C.87,95.79,1.8,93.81,4.11,92.48Z"/>
                    <path class="cls-8"
                          d="M4.25,92.72l7-4.44A27.37,27.37,0,0,1,14,86.83a11.55,11.55,0,0,1,5.5-.88,12.29,12.29,0,0,1,1.9.38,13.92,13.92,0,0,1,2.42,1l13.51,7.8,3.29,1.91L50.77,103c1,.59,3.22,2.46,3.22,3.5,0,.51.77,2.5-.38,3.52a9.47,9.47,0,0,1-4.1,5.13l-3.64,2.25a24.14,24.14,0,0,1-2.59,1.31,13.27,13.27,0,0,1-3.17.7,9.82,9.82,0,0,1-5-.81c-.13,0-.72-.37-.84-.44l-14-8.07-2.68-1.54-12.11-7C4.6,101,2.1,99,2,98a2.1,2.1,0,0,1-.13-.26C1.08,96,1.93,94.05,4.25,92.72Z"/>
                    <path class="cls-9"
                          d="M4.38,93l6.77-4.31a22.17,22.17,0,0,1,2.66-1.36,11.32,11.32,0,0,1,5.35-.73A11.38,11.38,0,0,1,21,87,18.31,18.31,0,0,1,23.32,88l13.09,7.57,3.19,1.84,9.87,5.7c.85.49,3.27,2.39,3.27,3.26,0,.42,1.27,2.44.31,3.29,0,1.73-1.59,4-3.52,5.09L46,117c-.4.22-2.1,1.19-2.55,1.34a13.81,13.81,0,0,1-3.12.75,9.72,9.72,0,0,1-4.92-.72,9.23,9.23,0,0,1-.83-.43l-13.82-8-2.64-1.53-12-6.92C5.28,101,2.49,99,2.44,98.18l-.16-.24C1.29,96.28,2.06,94.29,4.38,93Z"/>
                    <path class="cls-10"
                          d="M4.52,93.19,11.06,89a17.88,17.88,0,0,1,2.6-1.27,11.06,11.06,0,0,1,5.19-.59,12.56,12.56,0,0,1,1.76.45,21,21,0,0,1,2.24,1L35.53,96l3.09,1.78,9.55,5.52c.68.4,3.33,2.32,3.33,3,0,.34,1.76,2.39,1,3.07.43,1.63-.89,3.86-2.93,5L46,116.62c-.32.18-2.14,1.25-2.5,1.38a14,14,0,0,1-3.07.81,9.72,9.72,0,0,1-4.88-.64c-.18-.07-.67-.33-.83-.42l-13.67-7.9-2.61-1.51L6.6,101.49C6,101.12,2.89,99,2.84,98.35c-.06-.08-.13-.16-.18-.24C1.5,96.53,2.18,94.54,4.52,93.19Z"/>
                    <path class="cls-11"
                          d="M4.66,93.43,11,89.36a14.67,14.67,0,0,1,2.54-1.17,10.71,10.71,0,0,1,5-.46,12.94,12.94,0,0,1,1.69.48c.29.09,1.91.93,2.14,1.06l12.27,7.09,3,1.73,9.23,5.33c.51.3,3.38,2.25,3.38,2.77,0,.26,2.26,2.34,1.68,2.85.87,1.53-.2,3.75-2.35,5l-3.49,2.22c-.23.14-2.18,1.31-2.45,1.41a14.63,14.63,0,0,1-3,.86,9.72,9.72,0,0,1-4.84-.55c-.21-.08-.64-.31-.83-.41l-13.51-7.81-2.59-1.5L7.12,101.48c-.48-.28-3.84-2.49-3.87-3A2.13,2.13,0,0,1,3,98.29C1.71,96.79,2.31,94.78,4.66,93.43Z"/>
                    <path class="cls-12"
                          d="M4.79,93.66l6.09-3.93a11.74,11.74,0,0,1,2.48-1.09,10.45,10.45,0,0,1,4.89-.31,14,14,0,0,1,1.62.51c.19.06,1.88,1,2,1.07l11.86,6.85,2.88,1.66,8.92,5.16c.34.19,3.43,2.18,3.43,2.52,0,.17,2.76,2.28,2.38,2.62,1.29,1.44.49,3.64-1.77,5l-3.45,2.21c-.15.09-2.21,1.37-2.39,1.44a15,15,0,0,1-3,.91,9.45,9.45,0,0,1-4.79-.47,5.78,5.78,0,0,1-.83-.4L21.8,109.64l-2.56-1.48-11.6-6.7c-.32-.18-4-2.47-4-2.79l-.23-.21C1.92,97,2.44,95,4.79,93.66Z"/>
                    <path class="cls-13"
                          d="M4.93,93.9l5.87-3.81a9.94,9.94,0,0,1,2.41-1,10.28,10.28,0,0,1,4.73-.17,14,14,0,0,1,1.55.55c.1,0,1.87,1,2,1.07l11.44,6.61,2.79,1.61,8.6,5A38,38,0,0,1,47.75,106c0,.09,3.26,2.23,3.07,2.4,1.72,1.34,1.19,3.53-1.19,4.9l-3.4,2.2c-.07,0-2.25,1.43-2.34,1.46a13.8,13.8,0,0,1-2.93,1,9.34,9.34,0,0,1-4.75-.38,5.28,5.28,0,0,1-.83-.39l-13.22-7.63-2.52-1.46L8.17,101.45C8,101.36,4.07,99,4.06,98.83a2.93,2.93,0,0,1-.26-.19C2.13,97.29,2.56,95.26,4.93,93.9Z"/>
                    <path d="M35.6,117,20,108,4.46,99c-2.16-1.24-1.88-3.42.6-4.85l5.65-3.69C13.2,89,17,88.86,19.12,90.1l15.57,9,15.57,9c2.15,1.24,1.88,3.42-.61,4.86L44,116.63C41.52,118.07,37.75,118.23,35.6,117Z"/>
                </g>
                <path class="cls-14"
                      d="M39.76,116.39,10.68,99.6c-3.27-1.89-5.93-7-5.93-11.34V6.18C4.75,4,2.92,3.47,4,2.67c0,0,4.53-2.26,4.58-2.28a4.28,4.28,0,0,1,4,.23L41.7,17.41c3.28,1.89,5.94,7,5.94,11.34v82.08c0,2.32-.76,4-2,4.73-.07,0-5.09,2.58-5.17,2.61C39.46,118.52,41.19,117.22,39.76,116.39Z"/>
                <path class="cls-15"
                      d="M37.5,112.77,8.43,96c-3.28-1.9-5.94-7-5.94-11.35V7.22c0-4.38,2.66-6.39,5.94-4.49L37.5,19.51c3.28,1.9,5.94,7,5.94,11.35v77.42C43.44,112.65,40.78,114.66,37.5,112.77Z"/>
                <path class="cls-16"
                      d="M37,117.7,7.91,100.91C4.63,99,2,93.94,2,89.57V7.5C2,3.12,4.63,1.11,7.91,3L37,19.79c3.28,1.9,5.94,7,5.94,11.35v82.07C42.92,117.58,40.26,119.59,37,117.7Z"/>
                <path class="cls-17"
                      d="M2.78,90.08V7.92C2.78,4.08,5.11,2.32,8,4L36.9,20.68c2.88,1.66,5.21,6.11,5.21,9.94v82.17c0,3.83-2.33,5.6-5.21,3.94L8,100C5.11,98.37,2.78,93.92,2.78,90.08Z"/>
                <path class="cls-18"
                      d="M3.94,85.91V8.78c0-3.21,1.95-4.68,4.36-3.29L36.6,21.83C39,23.22,41,26.94,41,30.15v77.13c0,3.21-2,4.68-4.35,3.29L8.3,94.23C5.89,92.84,3.94,89.12,3.94,85.91Z"/>
                <path class="cls-19"
                      d="M8.62,6.34C6.35,5,4.52,6.08,4.52,8.68v78a9,9,0,0,0,4.1,7.09l27.65,16c2.27,1.31,4.11.26,4.11-2.34v-78a9,9,0,0,0-4.11-7.08Z"/>
                <path class="cls-20"
                      d="M44.05,52.36V44.09a3.43,3.43,0,0,1,1.44-2.74h0c.79-.46,1.43,0,1.43,1.08v8.28a3.45,3.45,0,0,1-1.43,2.74h0C44.69,53.91,44.05,53.42,44.05,52.36Z"/>
                <path class="cls-21"
                      d="M44.92,53.31c-.41,0-.56-.51-.56-1V44.09a3.15,3.15,0,0,1,1.28-2.47.82.82,0,0,1,.42-.13c.41,0,.55.51.55.94v8.28a3.12,3.12,0,0,1-1.28,2.47A.81.81,0,0,1,44.92,53.31Z"/>
                <path class="cls-22"
                      d="M44.79,52.58V44.3a3.12,3.12,0,0,1,1.28-2.47.81.81,0,0,1,.36-.12.42.42,0,0,0-.37-.22.82.82,0,0,0-.42.13,3.15,3.15,0,0,0-1.28,2.47v8.27c0,.44.15,1,.56,1h0A1.42,1.42,0,0,1,44.79,52.58Z"/>
                <path class="cls-23"
                      d="M40,107.38a3,3,0,0,1-.55,1.92,1.69,1.69,0,0,1-1.36.63h0a3.39,3.39,0,0,1-1.66-.52L8.8,93.45a8.69,8.69,0,0,1-3.93-6.78v-78c0-1.57.73-2.55,1.91-2.55a3.39,3.39,0,0,1,1.66.52l27.65,16A8.66,8.66,0,0,1,40,29.38Z"/>
                <path class="cls-24"
                      d="M22.06,65.57a.86.86,0,0,1-.22,0,1,1,0,0,1-.75-1.2,59,59,0,0,0,1.34-12.91v-.3a1,1,0,0,1,2,0v.3A61.35,61.35,0,0,1,23,64.8,1,1,0,0,1,22.06,65.57Z"/>
                <path class="cls-24"
                      d="M16.58,70.77l-.23,0a1,1,0,0,1-.74-1.21,101.86,101.86,0,0,0,2.28-21,4.24,4.24,0,0,1,1.37-3.38,1,1,0,1,1,1.26,1.56,2.27,2.27,0,0,0-.63,1.82A104.63,104.63,0,0,1,17.56,70,1,1,0,0,1,16.58,70.77Z"/>
                <path class="cls-24"
                      d="M27.59,54.53a1,1,0,0,1-1-1,8.63,8.63,0,0,0-3.85-6.63,1,1,0,0,1-.37-1.37,1,1,0,0,1,1.37-.36,10.52,10.52,0,0,1,4.85,8.36A1,1,0,0,1,27.59,54.53Z"/>
                <path class="cls-24"
                      d="M24.45,76.47a.93.93,0,0,1-.23,0,1,1,0,0,1-.75-1.2,154.32,154.32,0,0,0,2.71-15.6,1,1,0,1,1,2,.23A152.63,152.63,0,0,1,25.42,75.7,1,1,0,0,1,24.45,76.47Z"/>
                <path class="cls-24"
                      d="M33.67,77.93a1.17,1.17,0,0,1-.26,0,1,1,0,0,1-.71-1.22,70.5,70.5,0,0,0,2.19-18v-.31c0-7.68-5.45-17.08-12.15-21-3.07-1.77-5.91-2.09-8-.89s-3.17,3.75-3.17,7.24A74.6,74.6,0,0,1,9.92,59.89a1,1,0,0,1-1.2.76A1,1,0,0,1,8,59.46,73.21,73.21,0,0,0,9.59,43.72c0-4.23,1.48-7.42,4.17-9s6.26-1.25,10,.9C31,39.83,36.89,50,36.89,58.32v.31a72.2,72.2,0,0,1-2.26,18.55A1,1,0,0,1,33.67,77.93Z"/>
                <path class="cls-24"
                      d="M12.51,66.08a1,1,0,0,1-1-1.25A69.59,69.59,0,0,0,13,57.57a1,1,0,0,1,1.13-.85A1,1,0,0,1,15,57.85a68.73,68.73,0,0,1-1.48,7.48A1,1,0,0,1,12.51,66.08Z"/>
                <path class="cls-24"
                      d="M14.24,56.48h-.11a1,1,0,0,1-.89-1.11,84.15,84.15,0,0,0,.5-9.26,8.26,8.26,0,0,1,1.32-4.79,1,1,0,0,1,1.63,1.16,6.3,6.3,0,0,0-1,3.63,85.69,85.69,0,0,1-.51,9.48A1,1,0,0,1,14.24,56.48Z"/>
                <path class="cls-24"
                      d="M30.56,51.3a1,1,0,0,1-.93-.63,17.63,17.63,0,0,0-6.89-8.53,5.81,5.81,0,0,0-4.25-.92,1,1,0,0,1-1.21-.72A1,1,0,0,1,18,39.28a7.77,7.77,0,0,1,5.75,1.12,19.46,19.46,0,0,1,7.75,9.53,1,1,0,0,1-.56,1.3A1,1,0,0,1,30.56,51.3Z"/>
                <path class="cls-24"
                      d="M28.6,77.9a.91.91,0,0,1-.32-.06,1,1,0,0,1-.63-1.26l.17-.51a63.32,63.32,0,0,0,2.92-19.84v-.3a1,1,0,0,1,2,0v.3a65.24,65.24,0,0,1-3,20.47l-.17.51A1,1,0,0,1,28.6,77.9Z"/>
                <path class="cls-25"
                      d="M46.6,21.31c1.08,2-1.42,5.4-5.58,7.71s-3.07.68-4.16-1.27-3.92-3.48.24-5.79S45.51,19.36,46.6,21.31Z"/>
            </g>
        </g>
    </g>
</svg>