<svg xmlns="http://www.w3.org/2000/svg" viewBox="0 0 131.14 154.28">
    <defs>
        <style>
            .cls-1{fill:#a8cff0;}.cls-2{fill:#72b5e8;}.cls-3{fill:#d1ebff;}.cls-4{fill:#fff;}.cls-5{fill:#d62d69;}.cls-6{fill:#f76195;}.cls-7{fill:#0fbab8;}.cls-8{fill:#eb4680;}
        </style>
    </defs>
    <g id="Слой_2" data-name="Слой 2">
        <g id="Layer_1" data-name="Layer 1">
            <path class="cls-1"
                  d="M98.9,73.48a15.52,15.52,0,0,0-6.6-2.2c0-.14,0-.27,0-.41,0-20-14.11-44.33-31.52-54.38-14-8.08-25.86-4.44-30,7.68a32.3,32.3,0,0,0-3.29-2.23C16.05,15.31,6.74,20.62,6.74,33.79S16.05,63,27.53,69.64L98.9,110.85c9,5.19,16.28,1,16.28-9.28S107.89,78.67,98.9,73.48Z"/>
            <polygon class="cls-2" points="18.17 71.81 25.34 67.83 52.83 43.12 51.27 41.54 18.17 71.81"/>
            <path class="cls-3"
                  d="M127.59,109.06l-.82-.58a20.34,20.34,0,0,0,3.37-11.85c0-12.58-8.59-27.39-19.54-33.71a25.26,25.26,0,0,0-3.27-1.6l-.28-.12,0-.3c-2.08-21.5-16.6-44.62-34.53-55A33.78,33.78,0,0,0,55.6,1a25.55,25.55,0,0,0-14,4.13L41,4.29A26.56,26.56,0,0,1,55.6,0,34.73,34.73,0,0,1,73,5.06C91.1,15.52,105.78,38.79,108,60.5a29,29,0,0,1,3.11,1.55c11.23,6.49,20,21.68,20,34.58A21.35,21.35,0,0,1,127.59,109.06Z"/>
            <path class="cls-2"
                  d="M123.64,96.63c0-10.31-7.3-22.89-16.29-28.08a15.43,15.43,0,0,0-6.6-2.2c0-.14,0-.27,0-.41,0-20-14.12-44.33-31.53-54.38C59.47,5.92,51,6.67,45,10.68L34.91,16.42c-5.69-3-10.77-2.93-14.35-.46L7,24.07c3.67-1.6,8.48-1.08,13.76,2a32.3,32.3,0,0,1,3.29,2.23c4.11-12.12,16-15.76,30-7.67C71.46,30.64,85.57,55,85.57,75c0,.14,0,.27,0,.41a15.3,15.3,0,0,1,6.6,2.2c9,5.19,16.28,17.76,16.28,28.08,0,4.37-1.31,7.63-3.5,9.54l13.42-7.81,0,0C121.59,105.83,123.64,102.09,123.64,96.63Z"/>
            <path class="cls-4"
                  d="M93.35,77.05a15.52,15.52,0,0,0-6.6-2.2c0-.14,0-.27,0-.41,0-20-14.11-44.33-31.52-54.38-8.35-4.82-15.93-5.47-21.56-2.65,5.49-2.18,12.6-1.31,20.37,3.18C71.46,30.64,85.57,55,85.57,75c0,.14,0,.27,0,.41a15.3,15.3,0,0,1,6.6,2.2c9,5.19,16.28,17.76,16.28,28.08,0,5.22-1.87,8.86-4.88,10.52,3.7-1.29,6.07-5.17,6.07-11.05C109.63,94.81,102.34,82.24,93.35,77.05Z"/>
            <path class="cls-4"
                  d="M20.79,26a32.3,32.3,0,0,1,3.29,2.23c.13-.37.26-.74.4-1.1A29.93,29.93,0,0,0,22,25.51c-5.57-3.22-10.63-3.62-14.36-1.68C11.2,22.53,15.79,23.15,20.79,26Z"/>
            <path class="cls-3"
                  d="M92.16,77.58a15.3,15.3,0,0,0-6.6-2.2c0-.14,0-.27,0-.41,0-20-14.11-44.33-31.52-54.38-14-8.09-25.86-4.45-30,7.67A32.3,32.3,0,0,0,20.79,26C9.31,19.41,0,24.71,0,37.89,0,50,7.85,64.5,18,71.93L51.27,41.54l33.39,69.08,7.5,4.33c9,5.19,16.28,1,16.28-9.29S101.15,82.77,92.16,77.58Z"/>
            <path class="cls-5"
                  d="M42.54,125.74,61,136.4v-7.57L42.54,118.17Zm0,6.15L61,142.54V139.3L42.54,128.65Zm0-54.48v38.2L61,126.27V88.06l13.13,7.58L51.76,49.41,29.41,69.83Z"/>
            <polygon class="cls-5" points="71.86 96.89 74.11 95.64 51.76 49.41 49.46 50.98 71.86 96.89"/>
            <polygon class="cls-5" points="58.74 143.8 60.98 142.54 60.98 139.3 58.74 140.55 58.74 143.8"/>
            <polygon class="cls-5" points="58.74 137.65 60.98 136.4 60.98 128.83 58.74 130.08 58.74 137.65"/>
            <polygon class="cls-5" points="58.74 127.52 60.98 126.27 60.98 88.06 58.74 89.31 58.74 127.52"/>
            <polygon class="cls-6" points="40.29 129.9 42.53 128.65 60.98 139.3 58.74 140.55 40.29 129.9"/>
            <polygon class="cls-6" points="40.29 119.5 42.53 118.24 60.98 128.89 58.74 130.15 40.29 119.5"/>
            <path class="cls-7"
                  d="M69.84,148.72a.5.5,0,0,1-.5-.5V146.3a.5.5,0,0,1,.5-.5.5.5,0,0,1,.5.5v1.92A.5.5,0,0,1,69.84,148.72Zm0-4.92a.5.5,0,0,1-.5-.5v-2a.5.5,0,0,1,.5-.5.5.5,0,0,1,.5.5v2A.5.5,0,0,1,69.84,143.8Zm0-5a.5.5,0,0,1-.5-.5v-2a.5.5,0,0,1,.5-.5.5.5,0,0,1,.5.5v2A.5.5,0,0,1,69.84,138.8Zm0-5a.5.5,0,0,1-.5-.5v-2a.5.5,0,0,1,.5-.5.5.5,0,0,1,.5.5v2A.5.5,0,0,1,69.84,133.8Zm0-5a.5.5,0,0,1-.5-.5v-2a.5.5,0,0,1,.5-.5.5.5,0,0,1,.5.5v2A.5.5,0,0,1,69.84,128.8Zm0-5a.5.5,0,0,1-.5-.5v-2a.5.5,0,0,1,.5-.5.5.5,0,0,1,.5.5v2A.5.5,0,0,1,69.84,123.8Zm0-5a.5.5,0,0,1-.5-.5v-2a.5.5,0,0,1,.5-.5.5.5,0,0,1,.5.5v2A.5.5,0,0,1,69.84,118.8Zm0-5a.5.5,0,0,1-.5-.5v-2a.5.5,0,0,1,.5-.5.5.5,0,0,1,.5.5v2A.5.5,0,0,1,69.84,113.8Z"/>
            <path class="cls-7"
                  d="M64.79,154.28,34.24,136.64V122.53a.5.5,0,0,1,1,0v13.53l28.55,16.48V98.93a.5.5,0,0,1,.5-.5.5.5,0,0,1,.5.5Z"/>
            <path class="cls-8"
                  d="M40.29,127l18.45,10.65v-7.57L40.29,119.43Zm0,6.15L58.74,143.8v-3.25L40.29,129.9Zm0-54.49v38.21l18.45,10.65V89.31l13.12,7.58L49.51,50.66,27.17,71.09Z"/>
            <path class="cls-7"
                  d="M65.85,104.05a.51.51,0,0,1-.48-.36l-1.09-3.63-1.13,2.84a.5.5,0,0,1-.65.28.5.5,0,0,1-.28-.65l1.67-4.17a.47.47,0,0,1,.48-.31.5.5,0,0,1,.46.36l1.5,5A.5.5,0,0,1,66,104Z"/>
            <path class="cls-7"
                  d="M36.19,122.32c0,.9-.63,1.26-1.42.81a3.11,3.11,0,0,1-1.41-2.44c0-.89.63-1.26,1.41-.8A3.09,3.09,0,0,1,36.19,122.32Z"/>
        </g>
    </g>
</svg>