<svg width="153" height="235" viewBox="0 0 153 235" fill="none" xmlns="http://www.w3.org/2000/svg">
    <path d="M144.405 81.6859C121.409 68.6873 98.9456 46.508 80.1048 18.2378L79.9094 18.0069C61.0153 24.524 38.5518 20.7594 15.5557 7.21028L14.6855 6.69531L15.9819 49.7221C20.3325 116.296 43.0445 145.258 79.5898 207.162L80.4777 207.676C117.023 187.983 139.735 185.213 144.086 123.683L145.329 82.1654L144.405 81.6859Z"
          fill="url(#paint0_linear_1271_530)"/>
    <path d="M152.129 74.9018C129.151 61.9032 106.67 39.7239 87.8288 11.4537L87.5802 11.3116C68.7393 17.7577 46.2759 14.0463 23.2975 0.514972L22.4096 0L14.9336 6.8367L15.5551 7.20961C38.6401 20.7587 61.0147 24.5233 79.8556 18.0063L80.1042 18.1483C98.9451 46.4185 121.409 68.5978 144.405 81.6852L145.275 82.1824L144.032 123.7C141.191 163.868 130.518 178.979 113.311 190.113C134.816 177.417 148.56 162.145 151.774 117.005L152.999 75.4878L152.129 74.9018Z"
          fill="url(#paint1_linear_1271_530)"/>
    <path d="M153.001 75.3999L152.131 74.9027C129.152 61.9041 106.671 39.7248 87.8301 11.4546L87.5815 11.3125L79.9102 18.0071L80.1588 18.1492C98.9464 46.4194 121.41 68.5987 144.406 81.6861L145.276 82.1833L153.001 75.3999Z"
          fill="url(#paint2_linear_1271_530)"/>
    <path d="M145.276 82.097L144.033 123.614C141.192 163.782 130.52 178.894 113.312 190.028C134.817 177.331 148.561 162.06 151.776 116.92L153.001 75.4023L145.276 82.097Z"
          fill="url(#paint3_linear_1271_530)"/>
    <path d="M142.06 83.266C119.596 70.5515 97.6657 48.8516 79.1978 21.2207L78.9491 21.0786C60.4812 27.4536 38.515 23.7601 15.9805 10.5306L15.1281 10.0156L7.86523 16.7103L8.48675 17.0832C30.9502 30.3126 52.8809 33.9885 71.3489 27.6312L71.5975 27.7733C90.0122 55.4042 111.978 77.0863 134.46 89.8008L135.312 90.298L134.104 130.892C131.405 170.154 120.893 184.946 104.058 195.832C125.084 183.401 138.508 168.467 141.651 124.304L142.877 83.7099L142.06 83.266Z"
          fill="url(#paint4_linear_1271_530)"/>
    <path d="M142.879 83.7488L142.062 83.2694C119.599 70.5549 97.6679 48.855 79.1999 21.2241L78.9513 21.082L71.4043 27.6346L71.6529 27.7767C90.0143 55.4076 111.981 77.0897 134.462 89.8042L135.314 90.3014L142.879 83.7488Z"
          fill="url(#paint5_linear_1271_530)"/>
    <path d="M135.312 90.299L134.105 130.893C131.405 170.155 120.893 184.947 104.059 195.833C125.084 183.402 138.508 168.468 141.652 124.305L142.877 83.7109L135.312 90.299Z"
          fill="url(#paint6_linear_1271_530)"/>
    <path style="mix-blend-mode:color-dodge"
          d="M145.31 80.9565C122.225 67.9579 99.8499 45.7608 81.0091 17.5084L80.7605 17.3663C61.9196 23.8656 39.4561 20.101 16.46 6.56966L15.5898 6.05469V8.20336C38.3729 21.4506 60.6055 25.1087 79.2866 18.6449L79.5352 18.7869C98.4293 47.0571 120.893 69.2542 143.836 82.2351L144.706 82.7323L143.516 124.303C141.261 156.267 134.016 172.355 122.526 183.223C134.957 172.337 142.664 156.267 145.025 122.971L146.268 81.4537L145.31 80.9565Z"
          fill="url(#paint7_radial_1271_530)"/>
    <path style="mix-blend-mode:multiply" opacity="0.4"
          d="M87.2625 234.175C121.98 234.175 150.125 222.178 150.125 207.378C150.125 192.579 121.98 180.582 87.2625 180.582C52.5447 180.582 24.4004 192.579 24.4004 207.378C24.4004 222.178 52.5447 234.175 87.2625 234.175Z"
          fill="url(#paint8_radial_1271_530)"/>
    <path d="M129.72 94.9331C106.724 81.9344 84.2601 59.7374 65.4192 31.4849L65.1706 31.3429C46.3297 37.8422 23.8663 34.0776 0.870125 20.5462L0 20.0312L1.24304 62.9693C5.59366 129.632 28.3057 158.523 64.851 220.409L65.7389 220.924C102.284 201.23 124.996 198.478 129.347 136.948L130.59 95.4303L129.72 94.9331Z"
          fill="url(#paint9_linear_1271_530)"/>
    <path d="M137.446 88.2409C114.467 75.2246 91.9861 53.0453 73.163 24.8638L72.8966 24.704C54.0735 31.2211 31.5923 27.4565 8.61386 13.9251L7.72597 13.4102L0.25 20.1758L0.871518 20.5487C23.9565 34.0801 46.3311 37.8447 65.172 31.3454L65.4206 31.4875C84.2615 59.7399 106.725 81.937 129.721 94.9356L130.591 95.4328L129.348 136.95C126.507 177.1 115.835 192.23 98.6274 203.364C120.132 190.649 133.876 175.396 137.091 130.256L138.334 88.7914L137.446 88.2409Z"
          fill="url(#paint10_linear_1271_530)"/>
    <path d="M138.331 88.7905L137.444 88.2933C114.465 75.2237 91.984 53.0443 73.1609 24.8629L72.8945 24.7031L65.1699 31.3445L65.4185 31.4866C84.2594 59.739 106.723 81.9361 129.719 94.9347L130.589 95.4319L138.331 88.7905Z"
          fill="url(#paint11_linear_1271_530)"/>
    <path d="M130.589 95.4304L129.346 136.948C126.505 177.098 115.832 192.227 98.625 203.361C120.13 190.647 133.874 175.393 137.088 130.253L138.331 88.7891L130.589 95.4304Z"
          fill="url(#paint12_linear_1271_530)"/>
    <path d="M60.7492 192.242C32.3369 145.184 18.1308 121.513 14.6681 69.856L13.8867 42.7578C32.1061 50.9796 49.5619 53.6077 65.3839 50.4824C81.1172 71.7916 98.573 89.3184 116.792 102.104L116.011 128.314C112.566 175.994 98.2534 183.185 69.9299 197.569L65.3839 199.86L60.7492 192.242Z"
          fill="url(#paint13_linear_1271_530)"/>
    <path d="M65.2949 50.4844C81.0282 71.7936 98.484 89.3204 116.703 102.106L115.922 128.316C112.477 175.996 98.1644 183.187 69.8409 197.571L65.2949 199.862V50.4844Z"
          fill="url(#paint14_linear_1271_530)"/>
    <path style="mix-blend-mode:color-dodge"
          d="M130.624 94.2963C107.539 81.28 85.1644 59.1007 66.3235 30.8482L66.0749 30.6884C47.234 37.2943 24.8594 33.4408 1.77442 19.9095L0.904297 19.3945V21.5255C23.7406 34.7904 45.991 38.4485 64.6543 31.967L64.9029 32.109C83.7438 60.3792 106.207 82.5763 129.203 95.5749L130.074 96.0721L128.83 137.59C126.575 169.553 119.33 185.695 107.752 196.563C120.182 185.677 127.889 169.607 130.251 136.293L131.494 94.7936L130.624 94.2963Z"
          fill="url(#paint15_radial_1271_530)"/>
    <path style="mix-blend-mode:color-dodge"
          d="M60.7492 192.242C32.3369 145.184 18.1308 121.513 14.6681 69.856L13.8867 42.7578C32.1061 50.9796 49.5619 53.6077 65.3839 50.4824C81.1172 71.7916 98.573 89.3184 116.792 102.104L116.011 128.314C112.566 175.994 98.2534 183.185 69.9299 197.569L65.3839 199.86L60.7492 192.242Z"
          fill="url(#paint16_radial_1271_530)"/>
    <path style="mix-blend-mode:color-dodge"
          d="M65.2951 50.4824C49.5619 53.6077 32.1061 50.9796 13.8867 42.7578V44.4093C31.6444 52.2226 48.7095 54.691 64.0876 51.6366C79.9097 72.9281 97.33 90.5614 115.549 103.276L114.768 129.468C112.832 156.105 107.523 170.116 98.2711 179.776C108.251 170.062 113.916 156.034 115.922 128.279L116.704 102.068C98.4842 89.3184 81.0284 71.7738 65.2951 50.4824Z"
          fill="url(#paint17_radial_1271_530)"/>
    <defs>
        <linearGradient id="paint0_linear_1271_530" x1="3.44495" y1="131.354" x2="241.717" y2="2.30919"
                        gradientUnits="userSpaceOnUse">
            <stop stop-color="#9F79C8"/>
            <stop offset="0.14" stop-color="#A27DCA"/>
            <stop offset="0.27" stop-color="#AC88CF"/>
            <stop offset="0.4" stop-color="#BC9BD7"/>
            <stop offset="0.52" stop-color="#D1B4E3"/>
            <stop offset="0.65" stop-color="#DBC4E9"/>
            <stop offset="0.9" stop-color="#F4EDF8"/>
            <stop offset="1" stop-color="white"/>
        </linearGradient>
        <linearGradient id="paint1_linear_1271_530" x1="-41.8021" y1="75.7187" x2="95.0562" y2="99.727"
                        gradientUnits="userSpaceOnUse">
            <stop stop-color="#9F79C8"/>
            <stop offset="0.14" stop-color="#A27DCA"/>
            <stop offset="0.27" stop-color="#AC88CF"/>
            <stop offset="0.4" stop-color="#BC9BD7"/>
            <stop offset="0.52" stop-color="#D1B4E3"/>
            <stop offset="0.65" stop-color="#DBC4E9"/>
            <stop offset="0.9" stop-color="#F4EDF8"/>
            <stop offset="1" stop-color="white"/>
        </linearGradient>
        <linearGradient id="paint2_linear_1271_530" x1="54.3214" y1="-13.2286" x2="184.165" y2="118.64"
                        gradientUnits="userSpaceOnUse">
            <stop stop-color="#9F79C8"/>
            <stop offset="0.14" stop-color="#A27DCA"/>
            <stop offset="0.27" stop-color="#AC88CF"/>
            <stop offset="0.4" stop-color="#BC9BD7"/>
            <stop offset="0.52" stop-color="#D1B4E3"/>
            <stop offset="0.65" stop-color="#DBC4E9"/>
            <stop offset="0.9" stop-color="#F4EDF8"/>
            <stop offset="1" stop-color="white"/>
        </linearGradient>
        <linearGradient id="paint3_linear_1271_530" x1="125.388" y1="128.302" x2="239.001" y2="192.834"
                        gradientUnits="userSpaceOnUse">
            <stop stop-color="#9F79C8"/>
            <stop offset="0.14" stop-color="#A27DCA"/>
            <stop offset="0.27" stop-color="#AC88CF"/>
            <stop offset="0.4" stop-color="#BC9BD7"/>
            <stop offset="0.52" stop-color="#D1B4E3"/>
            <stop offset="0.65" stop-color="#DBC4E9"/>
            <stop offset="0.9" stop-color="#F4EDF8"/>
            <stop offset="1" stop-color="white"/>
        </linearGradient>
        <linearGradient id="paint4_linear_1271_530" x1="-47.5919" y1="84.0651" x2="86.212" y2="107.523"
                        gradientUnits="userSpaceOnUse">
            <stop offset="0.1" stop-color="#45108A"/>
            <stop offset="1" stop-color="#7C1DC9"/>
        </linearGradient>
        <linearGradient id="paint5_linear_1271_530" x1="46.3838" y1="-2.90856" x2="173.351" y2="126.03"
                        gradientUnits="userSpaceOnUse">
            <stop offset="0.1" stop-color="#45108A"/>
            <stop offset="1" stop-color="#7C1DC9"/>
        </linearGradient>
        <linearGradient id="paint6_linear_1271_530" x1="115.867" y1="135.475" x2="226.959" y2="198.567"
                        gradientUnits="userSpaceOnUse">
            <stop offset="0.1" stop-color="#45108A"/>
            <stop offset="1" stop-color="#7C1DC9"/>
        </linearGradient>
        <radialGradient id="paint7_radial_1271_530" cx="0" cy="0" r="1" gradientUnits="userSpaceOnUse"
                        gradientTransform="translate(93.6282 94.4349) scale(77.4777 77.4777)">
            <stop stop-color="white"/>
            <stop offset="1"/>
        </radialGradient>
        <radialGradient id="paint8_radial_1271_530" cx="0" cy="0" r="1" gradientUnits="userSpaceOnUse"
                        gradientTransform="translate(99.9869 197.835) scale(62.5782 27.0957)">
            <stop stop-color="#231F20"/>
            <stop offset="0.06" stop-color="#353132"/>
            <stop offset="0.32" stop-color="#7C7A7A"/>
            <stop offset="0.55" stop-color="#B4B3B3"/>
            <stop offset="0.75" stop-color="#DDDCDC"/>
            <stop offset="0.91" stop-color="#F6F6F6"/>
            <stop offset="1" stop-color="white"/>
        </radialGradient>
        <linearGradient id="paint9_linear_1271_530" x1="-11.2406" y1="144.672" x2="227.032" y2="15.6451"
                        gradientUnits="userSpaceOnUse">
            <stop stop-color="#9F79C8"/>
            <stop offset="0.14" stop-color="#A27DCA"/>
            <stop offset="0.27" stop-color="#AC88CF"/>
            <stop offset="0.4" stop-color="#BC9BD7"/>
            <stop offset="0.52" stop-color="#D1B4E3"/>
            <stop offset="0.65" stop-color="#DBC4E9"/>
            <stop offset="0.9" stop-color="#F4EDF8"/>
            <stop offset="1" stop-color="white"/>
        </linearGradient>
        <linearGradient id="paint10_linear_1271_530" x1="-56.4857" y1="89.0578" x2="80.3726" y2="113.066"
                        gradientUnits="userSpaceOnUse">
            <stop stop-color="#9F79C8"/>
            <stop offset="0.14" stop-color="#A27DCA"/>
            <stop offset="0.27" stop-color="#AC88CF"/>
            <stop offset="0.4" stop-color="#BC9BD7"/>
            <stop offset="0.52" stop-color="#D1B4E3"/>
            <stop offset="0.65" stop-color="#DBC4E9"/>
            <stop offset="0.9" stop-color="#F4EDF8"/>
            <stop offset="1" stop-color="white"/>
        </linearGradient>
        <linearGradient id="paint11_linear_1271_530" x1="39.6344" y1="0.108768" x2="169.478" y2="131.977"
                        gradientUnits="userSpaceOnUse">
            <stop stop-color="#9F79C8"/>
            <stop offset="0.14" stop-color="#A27DCA"/>
            <stop offset="0.27" stop-color="#AC88CF"/>
            <stop offset="0.4" stop-color="#BC9BD7"/>
            <stop offset="0.52" stop-color="#D1B4E3"/>
            <stop offset="0.65" stop-color="#DBC4E9"/>
            <stop offset="0.9" stop-color="#F4EDF8"/>
            <stop offset="1" stop-color="white"/>
        </linearGradient>
        <linearGradient id="paint12_linear_1271_530" x1="110.718" y1="141.636" x2="224.314" y2="206.167"
                        gradientUnits="userSpaceOnUse">
            <stop stop-color="#9F79C8"/>
            <stop offset="0.14" stop-color="#A27DCA"/>
            <stop offset="0.27" stop-color="#AC88CF"/>
            <stop offset="0.4" stop-color="#BC9BD7"/>
            <stop offset="0.52" stop-color="#D1B4E3"/>
            <stop offset="0.65" stop-color="#DBC4E9"/>
            <stop offset="0.9" stop-color="#F4EDF8"/>
            <stop offset="1" stop-color="white"/>
        </linearGradient>
        <linearGradient id="paint13_linear_1271_530" x1="7.58275" y1="161.326" x2="105.214" y2="60.6043"
                        gradientUnits="userSpaceOnUse">
            <stop offset="0.03" stop-color="#7C1DC9"/>
            <stop offset="0.21" stop-color="#6E41D2"/>
            <stop offset="0.62" stop-color="#4C9BE8"/>
            <stop offset="1" stop-color="#2AF6FF"/>
        </linearGradient>
        <linearGradient id="paint14_linear_1271_530" x1="153.071" y1="124.8" x2="45.4951" y2="125.209"
                        gradientUnits="userSpaceOnUse">
            <stop offset="0.03" stop-color="#7C1DC9"/>
            <stop offset="0.21" stop-color="#6E41D2"/>
            <stop offset="0.62" stop-color="#4C9BE8"/>
            <stop offset="1" stop-color="#2AF6FF"/>
        </linearGradient>
        <radialGradient id="paint15_radial_1271_530" cx="0" cy="0" r="1" gradientUnits="userSpaceOnUse"
                        gradientTransform="translate(79.0215 107.702) scale(77.4777 77.4777)">
            <stop stop-color="white"/>
            <stop offset="1"/>
        </radialGradient>
        <radialGradient id="paint16_radial_1271_530" cx="0" cy="0" r="1" gradientUnits="userSpaceOnUse"
                        gradientTransform="translate(110.114 33.629) scale(123.193 123.193)">
            <stop offset="0.02" stop-color="#4B61B8"/>
            <stop offset="0.11" stop-color="#4154A0"/>
            <stop offset="0.34" stop-color="#2A3768"/>
            <stop offset="0.55" stop-color="#181F3B"/>
            <stop offset="0.74" stop-color="#0B0E1B"/>
            <stop offset="0.89" stop-color="#030407"/>
            <stop offset="1"/>
        </radialGradient>
        <radialGradient id="paint17_radial_1271_530" cx="0" cy="0" r="1" gradientUnits="userSpaceOnUse"
                        gradientTransform="translate(78.1274 110.986) scale(60.3045 60.3045)">
            <stop stop-color="white"/>
            <stop offset="1"/>
        </radialGradient>
    </defs>
</svg>
