<svg width="215" height="201" viewBox="0 0 215 201" fill="none" xmlns="http://www.w3.org/2000/svg">
    <g opacity="0.2">
        <path opacity="0.09"
              d="M30.7299 129.658L42.0843 123.302C42.37 123.141 60.1873 113.304 60.4908 113.376C61.717 112.749 63.0108 112.263 64.347 111.93C66.0388 111.543 67.7714 111.363 69.5065 111.394C72.1015 111.394 74.655 112.044 76.9334 113.286L116.674 135.906L122.226 139.066L167.519 164.864C168.781 165.505 169.846 166.476 170.6 167.673C171.355 168.871 171.771 170.251 171.804 171.666C171.701 173.299 171.166 174.876 170.253 176.234C169.34 177.593 168.082 178.684 166.609 179.396L155.254 185.752C154.969 185.912 137.151 195.749 136.848 195.678C135.617 196.308 134.317 196.794 132.974 197.124C131.288 197.51 129.562 197.69 127.832 197.66C125.237 197.662 122.683 197.011 120.405 195.767L80.6468 173.13L75.1123 169.988L29.8372 144.136C28.5775 143.494 27.5154 142.523 26.764 141.325C26.0127 140.127 25.6001 138.748 25.5703 137.334C25.6789 135.714 26.2132 134.151 27.1191 132.803C28.025 131.455 29.2705 130.37 30.7299 129.658Z"
              fill="black"/>
        <path opacity="0.18"
              d="M34.0499 130.335L44.8867 124.319C45.458 123.998 61.9184 115.071 62.5254 115.25C63.7059 114.714 64.9383 114.301 66.2031 114.018C67.8107 113.727 69.4444 113.608 71.077 113.661C73.5395 113.734 75.9498 114.388 78.1111 115.571L115.977 137.137L121.244 140.154L164.412 164.738C165.615 165.34 166.63 166.262 167.345 167.401C168.059 168.541 168.447 169.856 168.465 171.201C168.357 172.755 167.839 174.252 166.964 175.541C166.089 176.83 164.888 177.864 163.484 178.538L152.647 184.555C152.094 184.876 135.616 193.803 135.026 193.624C133.84 194.16 132.601 194.572 131.331 194.856C129.723 195.146 128.09 195.266 126.457 195.213C123.995 195.137 121.585 194.483 119.423 193.303L81.6103 171.736L76.2544 168.719L33.1037 144.136C31.901 143.531 30.8863 142.61 30.169 141.471C29.4516 140.332 29.0589 139.019 29.0332 137.673C29.1431 136.115 29.6657 134.614 30.5473 133.324C31.4289 132.035 32.6378 131.003 34.0499 130.335Z"
              fill="black"/>
        <path opacity="0.27"
              d="M37.3703 131.052L47.6893 125.374C48.5284 124.892 63.6678 116.912 64.5604 117.162C65.7167 116.718 66.9122 116.383 68.131 116.162C69.6527 115.974 71.188 115.92 72.7192 116.002C75.0511 116.129 77.3229 116.789 79.3605 117.93L115.334 138.425L120.351 141.282L161.413 164.651C162.553 165.228 163.514 166.105 164.193 167.187C164.873 168.269 165.245 169.515 165.269 170.792C165.153 172.269 164.652 173.689 163.815 174.91C162.979 176.132 161.837 177.113 160.502 177.755L150.183 183.432C149.344 183.914 134.205 191.895 133.312 191.645C132.156 192.089 130.96 192.424 129.742 192.645C128.22 192.833 126.685 192.887 125.153 192.805C122.822 192.678 120.55 192.018 118.512 190.877L82.5383 170.382L77.5216 167.525L36.4598 144.156C35.3199 143.579 34.3586 142.702 33.6792 141.62C32.9998 140.538 32.628 139.292 32.6035 138.014C32.7195 136.538 33.2207 135.118 34.0572 133.897C34.8936 132.675 36.036 131.694 37.3703 131.052Z"
              fill="black"/>
        <path opacity="0.36"
              d="M40.7099 131.786L50.5111 126.43C51.618 125.787 65.4005 118.753 66.5788 119.074C67.6664 118.741 68.776 118.485 69.8995 118.307C71.3377 118.2 72.7817 118.2 74.2199 118.307C76.4142 118.508 78.5424 119.164 80.4684 120.235L114.55 139.677L119.299 142.372L158.147 164.546C159.228 165.087 160.141 165.913 160.786 166.936C161.432 167.959 161.784 169.139 161.807 170.348C161.684 171.747 161.197 173.089 160.396 174.241C159.594 175.394 158.505 176.316 157.236 176.918L147.435 182.274C146.31 182.917 132.546 189.951 131.367 189.629C130.272 189.949 129.157 190.194 128.029 190.361C126.591 190.468 125.147 190.468 123.708 190.361C121.514 190.16 119.386 189.504 117.46 188.433L83.3964 169.027L78.6475 166.331L39.7815 144.158C38.7128 143.609 37.8149 142.779 37.1854 141.756C36.5558 140.733 36.2188 139.557 36.2109 138.356C36.327 136.964 36.8027 135.627 37.5914 134.476C38.3802 133.324 39.4548 132.397 40.7099 131.786Z"
              fill="black"/>
        <path opacity="0.45"
              d="M44.1179 132.504L53.4014 127.505C54.794 126.684 67.2375 120.596 68.7193 121.007C69.7538 120.756 70.8033 120.571 71.8614 120.454C73.2094 120.446 74.5565 120.518 75.8961 120.668C77.9528 120.944 79.9392 121.604 81.7519 122.614L113.887 141.002L118.368 143.555L155.092 164.497C156.114 165.005 156.975 165.786 157.58 166.753C158.185 167.721 158.51 168.837 158.52 169.978C158.393 171.299 157.925 172.565 157.161 173.651C156.397 174.737 155.364 175.606 154.164 176.173L144.898 181.189C143.488 181.993 131.062 188.099 129.562 187.688C128.531 187.923 127.488 188.102 126.438 188.223C125.09 188.231 123.743 188.159 122.403 188.009C120.342 187.731 118.35 187.071 116.53 186.063L84.3942 167.693L79.9131 165.122L43.2073 144.18C42.1834 143.673 41.3197 142.893 40.7116 141.926C40.1035 140.958 39.7748 139.842 39.7617 138.699C39.8886 137.378 40.3568 136.112 41.1205 135.026C41.8842 133.94 42.9171 133.071 44.1179 132.504Z"
              fill="black"/>
        <path opacity="0.55"
              d="M47.3526 133.23L56.1184 128.553C57.7966 127.589 68.8832 122.411 70.6685 122.911C71.6326 122.697 72.7216 122.911 73.6143 122.608C74.5069 122.304 76.5243 123.001 77.3813 123.001C79.2999 123.343 81.1469 124.007 82.8443 124.964L113.194 142.264L117.426 144.674L151.989 164.42C152.953 164.891 153.765 165.622 154.336 166.531C154.907 167.439 155.213 168.488 155.22 169.561C155.087 170.803 154.635 171.989 153.91 173.005C153.184 174.021 152.209 174.834 151.078 175.363L142.313 180.041C140.634 181.023 129.548 186.182 127.762 185.682C126.798 185.897 125.781 185.861 124.817 186.004C123.853 186.147 121.907 185.593 121.05 185.593C119.129 185.259 117.281 184.595 115.587 183.629L85.2366 166.33L81.0233 163.92L46.4599 144.174C45.4963 143.703 44.6834 142.972 44.1126 142.063C43.5417 141.155 43.2355 140.105 43.2285 139.033C43.3638 137.794 43.8137 136.611 44.5356 135.595C45.2574 134.579 46.2272 133.765 47.3526 133.23Z"
              fill="black"/>
        <path opacity="0.64"
              d="M50.6896 133.963L58.9199 129.607C60.8837 128.482 70.6136 124.251 72.7024 124.822C73.6217 124.716 74.5503 124.716 75.4696 124.822C76.6425 124.936 77.8059 125.133 78.9509 125.411C80.7281 125.814 82.4364 126.476 84.0212 127.375L112.443 143.621L116.389 145.889L148.81 164.42C149.715 164.855 150.48 165.537 151.016 166.386C151.553 167.235 151.84 168.218 151.845 169.223C151.685 170.373 151.24 171.466 150.551 172.401C149.862 173.336 148.951 174.085 147.899 174.578L139.669 178.917C137.705 180.042 127.957 184.273 125.869 183.701C124.952 183.829 124.024 183.859 123.101 183.791C121.935 183.662 120.778 183.459 119.638 183.184C117.856 182.778 116.142 182.116 114.55 181.22L86.1457 164.974L82.1823 162.724L49.7613 144.193C48.8566 143.754 48.0937 143.069 47.5601 142.216C47.0265 141.364 46.7438 140.378 46.7441 139.372C46.891 138.211 47.3299 137.105 48.0199 136.159C48.7099 135.213 49.6284 134.458 50.6896 133.963Z"
              fill="black"/>
        <path opacity="0.73"
              d="M54.0115 134.679L61.7239 130.68C63.9555 129.377 72.4357 126.092 74.7387 126.735C75.6049 126.698 76.4725 126.752 77.3274 126.896C78.4073 127.094 79.4744 127.356 80.5231 127.681C82.1488 128.156 83.7127 128.821 85.1828 129.663L111.694 144.838L115.39 146.944L145.74 164.262C146.586 164.668 147.299 165.307 147.795 166.104C148.292 166.901 148.551 167.822 148.543 168.761C148.391 169.843 147.97 170.869 147.318 171.746C146.666 172.622 145.804 173.321 144.812 173.777L137.099 177.794C134.868 179.08 126.477 182.383 124.084 181.722C123.219 181.764 122.351 181.716 121.496 181.579C121.032 181.704 118.818 180.794 118.3 180.794C116.666 180.31 115.091 179.645 113.605 178.812L87.093 163.637L83.3975 161.512L53.0474 144.195C52.1995 143.794 51.4836 143.159 50.9839 142.366C50.4843 141.572 50.2216 140.652 50.2266 139.714C50.3838 138.624 50.8129 137.592 51.4744 136.712C52.1359 135.832 53.0084 135.133 54.0115 134.679Z"
              fill="black"/>
        <path opacity="0.82"
              d="M57.3288 135.411L64.47 131.733C66.9873 130.287 74.0392 127.913 76.7172 128.662C77.5322 128.695 78.3408 128.821 79.1273 129.037C79.4308 129.037 81.6981 130.001 82.0373 130.001C83.5228 130.551 84.9617 131.22 86.3399 132.001L110.977 146.123L114.387 148.069L142.523 164.136C143.314 164.503 143.981 165.091 144.444 165.829C144.907 166.568 145.145 167.425 145.13 168.296C144.961 169.303 144.546 170.253 143.924 171.063C143.301 171.872 142.489 172.516 141.559 172.938L134.418 176.616C131.901 178.062 124.849 180.418 122.171 179.686C121.357 179.646 120.549 179.52 119.761 179.311C119.439 179.311 117.19 178.329 116.851 178.329C115.361 177.79 113.921 177.121 112.548 176.33L87.911 162.226L84.4832 160.262L56.3647 144.195C55.5769 143.829 54.9116 143.244 54.4491 142.509C53.9865 141.774 53.7466 140.921 53.7582 140.053C53.9214 139.043 54.3332 138.091 54.9566 137.28C55.5799 136.47 56.3952 135.827 57.3288 135.411Z"
              fill="black"/>
        <path opacity="0.91"
              d="M60.6698 136.128L67.329 132.789C70.1319 131.182 75.827 129.754 78.8084 130.575C79.5733 130.691 80.3221 130.894 81.0401 131.182C81.1829 131.182 83.5038 132.343 83.6645 132.343C83.8251 132.343 87.3779 134.235 87.5743 134.36L110.319 147.393L113.479 149.178L139.455 164.085C140.186 164.417 140.804 164.955 141.233 165.634C141.661 166.314 141.881 167.103 141.865 167.906C141.691 168.828 141.299 169.695 140.721 170.434C140.144 171.173 139.397 171.763 138.545 172.155L131.868 175.493C129.082 177.118 123.37 178.528 120.388 177.707C119.629 177.6 118.886 177.402 118.174 177.118C118.014 177.118 115.711 175.94 115.532 175.94C115.354 175.94 111.819 174.047 111.622 173.94L88.8776 160.89L85.7175 159.104L59.7415 144.197C59.0107 143.867 58.3938 143.328 57.9682 142.648C57.5426 141.968 57.3272 141.178 57.3492 140.377C57.5217 139.454 57.9134 138.587 58.4913 137.847C59.0692 137.108 59.8163 136.518 60.6698 136.128Z"
              fill="black"/>
        <path d="M116.532 174.932L89.7528 159.561L62.9733 144.207C59.7062 142.422 60.1169 139.03 63.8838 136.852L70.0253 133.852C71.9598 132.772 74.121 132.16 76.335 132.067C78.549 131.974 80.7539 132.402 82.7723 133.317L109.552 148.67L136.331 164.024C139.598 165.916 139.206 169.219 135.421 171.397L129.279 174.396C127.342 175.468 125.181 176.074 122.969 176.167C120.757 176.26 118.553 175.837 116.532 174.932Z"
              fill="black"/>
    </g>
    <path d="M140.86 127.46C137.796 125.59 134.347 124.442 130.773 124.103C130.773 123.889 130.773 123.693 130.773 123.479C130.773 92.95 109.207 55.7622 82.57 40.4086C61.1465 28.0544 43.0614 33.6066 36.7772 52.1202C35.18 50.8822 33.5043 49.7492 31.7605 48.7282C14.211 38.5877 0 46.6929 0 66.831C0 86.9692 14.2824 111.464 31.7605 121.604L140.789 184.554C154.518 192.48 165.658 186.125 165.658 170.271C165.658 154.418 154.589 135.387 140.86 127.46Z"
          fill="url(#paint0_linear_1272_551)"/>
    <path d="M152.019 178.579C149.708 178.406 147.476 177.664 145.521 176.419L36.4211 113.541C21.7281 105.061 9.32031 83.673 9.32031 66.8376C9.32031 61.928 10.3915 53.6978 17.497 53.6978C20.9103 53.9018 24.2156 54.9708 27.1019 56.8042C28.5029 57.6355 29.8505 58.5538 31.1367 59.5537C32.3146 60.4468 33.6877 61.0474 35.1431 61.3062C36.5985 61.565 38.0946 61.4745 39.5082 61.0423C40.9218 60.61 42.2126 59.8482 43.2743 58.8197C44.3361 57.7912 45.1384 56.5252 45.6154 55.1261C48.3112 47.1636 53.4886 43.1289 60.969 43.1289C66.9818 43.4346 72.8155 45.2788 77.9114 48.4848C101.424 62.0709 121.312 96.2951 121.401 123.289V124.11C121.401 126.474 122.298 128.75 123.912 130.477C125.527 132.204 127.737 133.253 130.096 133.411C132.244 133.671 134.309 134.396 136.148 135.536C146.86 141.767 156.357 158.031 156.357 170.367C156.516 172.875 155.892 175.37 154.572 177.508C154.263 177.904 153.859 178.215 153.396 178.412C152.934 178.609 152.43 178.685 151.93 178.633L152.019 178.579Z"
          fill="url(#paint1_linear_1272_551)"/>
    <path d="M47.2391 53.1773C47.8878 51.2088 48.8071 49.3402 49.9706 47.625C48.0169 49.7852 46.5551 52.3433 45.6859 55.1232C45.4456 55.7484 45.1404 56.3468 44.7754 56.9085C45.8911 55.8864 46.7374 54.6048 47.2391 53.1773Z"
          fill="url(#paint2_linear_1272_551)"/>
    <path d="M153.572 176.792C151.261 176.618 149.029 175.876 147.074 174.631L38.0455 111.682C23.3525 103.202 10.9447 81.8136 10.9447 64.9783C10.8201 61.7 11.494 58.4405 12.9085 55.4805C9.96275 58.1406 9.33789 63.3894 9.33789 66.9243C9.33789 83.7597 21.7458 105.147 36.4388 113.628L145.467 176.577C147.422 177.822 149.654 178.564 151.965 178.738C152.465 178.789 152.97 178.713 153.432 178.517C153.894 178.32 154.299 178.009 154.608 177.613C154.896 177.233 155.136 176.82 155.322 176.381C154.787 176.674 154.182 176.816 153.572 176.792Z"
          fill="url(#paint3_linear_1272_551)"/>
    <path d="M214.306 142.206C214.306 126.441 203.165 107.232 189.418 99.3585C186.363 97.484 182.918 96.3358 179.349 96.0022C179.349 95.7879 179.349 95.5916 179.349 95.3773C179.349 64.8487 157.783 27.6609 131.146 12.2895C116.221 3.6665 103.206 4.82695 94.0657 10.9505L78.6942 19.7164C70.0177 15.2174 62.2517 15.2353 56.7887 19.0201L10.7637 45.7996C16.3695 43.3716 23.7071 44.1571 31.7766 48.8167C33.5204 49.8377 35.1962 50.9708 36.7933 52.2087C43.0775 33.6952 61.1983 28.1429 82.5862 40.4972C109.187 55.8508 130.789 93.0386 130.789 123.567C130.789 123.781 130.789 123.978 130.789 124.192C134.363 124.531 137.812 125.679 140.876 127.548C154.605 135.475 165.745 154.685 165.745 170.395C165.745 177.073 163.746 182.054 160.39 184.981L206.236 158.684C211.181 156.256 214.306 150.543 214.306 142.206Z"
          fill="url(#paint4_linear_1272_551)"/>
    <path style="mix-blend-mode:color-dodge"
          d="M108.202 47.0429C127.928 38.9365 140.942 25.1197 137.269 16.1822C133.596 7.24469 114.628 6.571 94.9013 14.6774C75.1749 22.7839 62.161 36.6007 65.8338 45.5382C69.5066 54.4757 88.4754 55.1494 108.202 47.0429Z"
          fill="url(#paint5_radial_1272_551)"/>
    <path style="mix-blend-mode:color-dodge"
          d="M188.636 119.249C191.439 124.302 181.28 135.317 165.963 143.797C150.645 152.277 155.126 147.153 152.305 142.012C149.484 136.87 140.469 133.906 155.876 125.408C171.283 116.91 185.815 114.179 188.636 119.249Z"
          fill="url(#paint6_radial_1272_551)"/>
    <path style="mix-blend-mode:screen"
          d="M31.0641 50.0336C32.8099 51.067 34.4912 52.2057 36.0987 53.4434C36.4492 52.3934 36.8544 51.3625 37.3127 50.3549C36.0776 49.4302 34.79 48.5778 33.4564 47.8019C22.3876 41.4106 12.6577 42.3032 6.98047 48.8731C12.7648 44.4098 21.3878 44.4277 31.0641 50.0336Z"
          fill="url(#paint7_radial_1272_551)"/>
    <path style="mix-blend-mode:screen"
          d="M142.467 126.496C139.401 124.632 135.953 123.484 132.381 123.14C132.381 122.926 132.381 122.729 132.381 122.515C132.381 91.9863 110.814 54.7986 84.1775 39.4451C67.842 30.0008 53.4346 31.0542 44.7402 40.3199C53.5596 33.1787 66.8601 33.0716 81.7852 41.6767C108.386 57.0303 129.988 94.2358 129.988 124.764C129.988 124.979 129.988 125.175 129.988 125.389C133.563 125.72 137.015 126.869 140.075 128.746C153.822 136.672 164.944 155.882 164.944 171.593C165.187 176.275 163.806 180.898 161.035 184.679C164.944 181.894 167.355 176.645 167.355 169.361C167.337 153.579 156.196 134.441 142.467 126.496Z"
          fill="url(#paint8_radial_1272_551)"/>
    <path d="M95.0665 95.6807L94.7094 95.4844V85.7366C94.5194 82.3074 93.5231 78.9714 91.8014 75.9996C90.0798 73.0278 87.6814 70.504 84.801 68.6334L77.9633 64.688C72.4824 61.528 68.0371 64.0631 68.0371 70.3473V80.1486L67.6978 79.9522C65.1449 78.4704 63.0918 79.6487 63.0918 82.5766V105.785C63.1776 107.382 63.6395 108.935 64.44 110.319C65.2405 111.703 66.3568 112.878 67.6978 113.748L95.0665 129.548C97.6016 131.012 99.6725 129.833 99.6725 126.906V103.59C99.5757 102.003 99.1087 100.461 98.3088 99.0881C97.509 97.7147 96.3985 96.5477 95.0665 95.6807ZM83.0872 107.249V114.855L79.6772 112.891V105.268C78.2855 103.762 77.4644 101.817 77.3563 99.769C77.3563 97.2339 79.1416 96.1985 81.3732 97.4839C82.5428 98.2386 83.5168 99.26 84.2151 100.464C84.9133 101.668 85.3161 103.021 85.3902 104.411C85.3902 106.25 84.444 107.303 83.0872 107.249ZM88.9607 92.1636L73.8036 83.3979V75.5425C73.8036 71.9719 76.3209 70.5258 79.4451 72.329L83.3192 74.5785C84.9545 75.6466 86.3167 77.0832 87.2964 78.7729C88.2761 80.4626 88.8462 82.3585 88.9607 84.3084V92.1636Z"
          fill="url(#paint9_linear_1272_551)"/>
    <defs>
        <linearGradient id="paint0_linear_1272_551" x1="159.088" y1="72.6333" x2="-41.4189" y2="189.338"
                        gradientUnits="userSpaceOnUse">
            <stop stop-color="#BF9DD4"/>
            <stop offset="0.26" stop-color="#B999D3"/>
            <stop offset="0.59" stop-color="#AA8CD2"/>
            <stop offset="0.67" stop-color="#A588D1"/>
            <stop offset="0.94" stop-color="#B086CC"/>
            <stop offset="0.96" stop-color="#B289CD"/>
            <stop offset="0.98" stop-color="#BC97D5"/>
        </linearGradient>
        <linearGradient id="paint1_linear_1272_551" x1="126.864" y1="208.965" x2="32.1899" y2="17.4385"
                        gradientUnits="userSpaceOnUse">
            <stop offset="0.03" stop-color="#7C1DC9"/>
            <stop offset="0.21" stop-color="#6E41D2"/>
            <stop offset="0.62" stop-color="#4C9BE8"/>
            <stop offset="1" stop-color="#2AF6FF"/>
        </linearGradient>
        <linearGradient id="paint2_linear_1272_551" x1="54.1839" y1="48.3391" x2="36.581" y2="58.5868"
                        gradientUnits="userSpaceOnUse">
            <stop stop-color="#25054D"/>
            <stop offset="0.5" stop-color="#45108A"/>
            <stop offset="1" stop-color="#25054D"/>
        </linearGradient>
        <linearGradient id="paint3_linear_1272_551" x1="135.255" y1="86.6339" x2="-13.139" y2="173.007"
                        gradientUnits="userSpaceOnUse">
            <stop stop-color="#25054D"/>
            <stop offset="0.5" stop-color="#45108A"/>
            <stop offset="1" stop-color="#25054D"/>
        </linearGradient>
        <linearGradient id="paint4_linear_1272_551" x1="67.2327" y1="12.3788" x2="167.781" y2="179.072"
                        gradientUnits="userSpaceOnUse">
            <stop stop-color="#BF9DD4"/>
            <stop offset="0.01" stop-color="#C3A3D6"/>
            <stop offset="0.02" stop-color="#CDB2DD"/>
            <stop offset="0.03" stop-color="#D4BDE2"/>
            <stop offset="0.05" stop-color="#D3BBE1"/>
            <stop offset="0.06" stop-color="#CEB4DE"/>
            <stop offset="0.07" stop-color="#C1A1D5"/>
            <stop offset="0.09" stop-color="#C8ABDA"/>
            <stop offset="0.12" stop-color="#DAC6E6"/>
            <stop offset="0.16" stop-color="#F7F2F9"/>
            <stop offset="0.17" stop-color="white"/>
            <stop offset="0.2" stop-color="#F9F5FB"/>
            <stop offset="0.25" stop-color="#E9DBF2"/>
            <stop offset="0.3" stop-color="#D1B4E3"/>
            <stop offset="0.39" stop-color="#B395D6"/>
            <stop offset="0.48" stop-color="#9C7DCB"/>
            <stop offset="0.56" stop-color="#8E6EC5"/>
            <stop offset="0.63" stop-color="#8969C3"/>
            <stop offset="0.65" stop-color="#8B6BC4"/>
            <stop offset="0.66" stop-color="#9B7DCC"/>
            <stop offset="0.67" stop-color="#A588D1"/>
            <stop offset="0.78" stop-color="#E3CEF0"/>
            <stop offset="0.8" stop-color="#D7BDE8"/>
            <stop offset="0.86" stop-color="#C29FD9"/>
            <stop offset="0.91" stop-color="#B58DCF"/>
            <stop offset="0.94" stop-color="#B086CC"/>
            <stop offset="0.96" stop-color="#B289CD"/>
            <stop offset="0.98" stop-color="#BC97D5"/>
        </linearGradient>
        <radialGradient id="paint5_radial_1272_551" cx="0" cy="0" r="1" gradientUnits="userSpaceOnUse"
                        gradientTransform="translate(109.393 49.8473) rotate(-22.34) scale(38.616 17.3772)">
            <stop stop-color="#972A74"/>
            <stop offset="0.04" stop-color="#8A266A"/>
            <stop offset="0.19" stop-color="#601B4A"/>
            <stop offset="0.35" stop-color="#3D112F"/>
            <stop offset="0.51" stop-color="#230A1B"/>
            <stop offset="0.67" stop-color="#0F040C"/>
            <stop offset="0.83" stop-color="#040103"/>
            <stop offset="1"/>
        </radialGradient>
        <radialGradient id="paint6_radial_1272_551" cx="0" cy="0" r="1" gradientUnits="userSpaceOnUse"
                        gradientTransform="translate(159.119 97.4021) rotate(-29.389) scale(27.2562 9.04076)">
            <stop stop-color="#4B61B8"/>
            <stop offset="0.13" stop-color="#38498A"/>
            <stop offset="0.27" stop-color="#273360"/>
            <stop offset="0.41" stop-color="#19203E"/>
            <stop offset="0.55" stop-color="#0E1223"/>
            <stop offset="0.7" stop-color="#06080F"/>
            <stop offset="0.84" stop-color="#020204"/>
            <stop offset="1"/>
        </radialGradient>
        <radialGradient id="paint7_radial_1272_551" cx="0" cy="0" r="1" gradientUnits="userSpaceOnUse"
                        gradientTransform="translate(24.0301 51.2832) scale(11.3009 11.3009)">
            <stop stop-color="white"/>
            <stop offset="1"/>
        </radialGradient>
        <radialGradient id="paint8_radial_1272_551" cx="0" cy="0" r="1" gradientUnits="userSpaceOnUse"
                        gradientTransform="translate(98.8705 81.8995) scale(69.0018)">
            <stop stop-color="white"/>
            <stop offset="1"/>
        </radialGradient>
        <linearGradient id="paint9_linear_1272_551" x1="105.225" y1="143.616" x2="14.5318" y2="-25.4874"
                        gradientUnits="userSpaceOnUse">
            <stop offset="0.1" stop-color="#45108A"/>
            <stop offset="1" stop-color="#7C1DC9"/>
        </linearGradient>
    </defs>
</svg>
