<svg xmlns="http://www.w3.org/2000/svg" viewBox="0 0 382.76 408.8"><defs><style>.cls-1{fill:#fe6b6b;}.cls-2{fill:#549ffe;}.cls-3{fill:#1dd0a0;}.cls-4{fill:#338cee;}.cls-5{fill:#ed5253;}.cls-6{fill:#15b98a;}.cls-7{fill:#fdc957;}.cls-8{fill:#cbd1da;}.cls-9{fill:#febeab;}.cls-10{fill:#feccbe;}.cls-11{fill:#3e4b5a;}.cls-12{fill:#febdaa;}.cls-13{fill:#f3b437;}.cls-14{fill:#303f49;}.cls-15{fill:#f6ae9e;}</style></defs><g id="Слой_2" data-name="Слой 2"><g id="Layer_1" data-name="Layer 1"><path class="cls-1" d="M321.51,308.32l8-.24a17,17,0,0,1,12.79,0c9.29,0,18.57.1,27.86.13,9,0,12.5,3.48,12.52,12.54.05,20.57,0,41.13,0,61.7,0,4.51-.11,9,0,13.54.17,6-1.76,10.6-7.73,12.83H321.55c-6.11-2.06-8.19-4.88-8.39-11.4-.33-10.44-.21-10.57,10-10.58,11.71,0,23.41,0,35.12,0,5.14,0,7.41-1.47,7.53-4.61s-2.3-4.86-7.66-4.88c-12.9,0-25.8,0-38.7-.05-2.18,0-5,.5-5.8-2.29-.94-3.19-1.26-6.67.41-9.71,1.09-2,3.52-1.55,5.47-1.56,11.84-.07,23.68,0,35.51,0a25.79,25.79,0,0,0,6-.34c2.66-.63,4.88-1.92,4.77-5-.1-2.84-2.24-4-4.74-4.62a25.24,25.24,0,0,0-5.56-.35c-11.84,0-23.68.05-35.52,0-2.28,0-5.25.68-6.25-2.22a12.68,12.68,0,0,1,.27-9.73c.94-1.92,3.22-1.6,5.05-1.61,11.7-.07,23.41,0,35.11,0a61.69,61.69,0,0,0,6.38-.11c3.37-.34,5.43-2.24,5.2-4.86-.26-3.1-2.34-4.33-5.17-4.45-5.72-.23-11.44-.07-17.16-.09-8.11,0-16.22.07-24.34-.05-4.91-.06-5.77-1-5.92-5.87-.06-2-.07-4,0-6C313.44,312.54,315.85,309.66,321.51,308.32Z"/><path class="cls-2" d="M53.42,308.1q14.14,0,28.29.1c8,0,11.61,3.63,11.62,11.73,0,25.38-.1,50.75.09,76.13,0,5.95-1.85,10.22-7.3,12.74H31.85c-7-2.61-10.88-12-7.9-19.14.85-2,2.53-2.6,4.47-2.73,3.19-.22,6.38-.1,9.57-.1q14.35,0,28.71,0c1.07,0,2.13,0,3.19,0,4.36-.15,6.7-1.78,6.66-4.65s-2.32-4.74-6.61-4.79c-12.49-.14-25,0-37.48-.06a42.33,42.33,0,0,1-4.78-.15,4.22,4.22,0,0,1-4.1-4.11,24.31,24.31,0,0,1-.12-3.19c.06-5.12.93-6.1,6-6.14,12.23-.1,24.46,0,36.69,0a21,21,0,0,0,6.32-.6c2.32-.72,4.17-1.95,4.07-4.71s-2-3.91-4.29-4.58a19.84,19.84,0,0,0-5.55-.42c-12.1,0-24.19,0-36.29,0-2.29,0-5.25.7-6.34-2.09a12.58,12.58,0,0,1,.13-9.73c1-2.14,3.42-1.73,5.36-1.74,12.63-.06,25.26,0,37.89,0a20.27,20.27,0,0,0,5.16-.35c2.44-.66,4-2.16,3.86-4.83-.17-2.48-1.86-3.69-4.17-4.12a26.31,26.31,0,0,0-4.78-.21c-12.23,0-24.46,0-36.68,0-6.33,0-7.4-1.16-7.43-7.49a30.52,30.52,0,0,1,.2-4.38c.67-5,2.8-8.84,8.17-10l8.75-.23A17,17,0,0,1,53.42,308.1Z"/><path class="cls-3" d="M176.29,308.3l8.76-.23a17.15,17.15,0,0,1,12.83,0q13.74.06,27.47.12c9.26,0,12.56,3.23,12.56,12.35,0,25.35-.09,50.7.08,76,0,5.87-2,9.91-7.42,12.21H177.1c-6.15-1.61-8.21-4.23-8.39-10.72-.06-1.86-.07-3.72,0-5.58.18-4.62,1.06-5.59,5.76-5.64,11.83-.12,23.67,0,35.5,0,1.6,0,3.19,0,4.79,0,4.07-.19,6.21-1.78,6.28-4.64s-2-4.59-6.09-4.8c-1.33-.07-2.66,0-4,0-11.83,0-23.66.05-35.5,0-2.29,0-5.27.67-6.21-2.26-1-3.16-1.26-6.66.37-9.71,1.08-2,3.51-1.6,5.46-1.61,11.7-.07,23.4,0,35.1,0a42.27,42.27,0,0,0,4.78-.12c3.88-.43,6.1-2.29,6.09-5.07s-2.09-4.77-6.09-5c-7.31-.36-14.62-.1-21.94-.14-6,0-12,.05-18,0-5.55-.07-6.35-.95-6.38-6.61,0-6.15.71-7,6.78-7,12.1-.05,24.2,0,36.3,0,1.33,0,2.66,0,4-.07,3.43-.33,5.37-2.08,5.31-4.75s-2-4.31-5.48-4.61c-1.33-.12-2.66-.07-4-.07H177.69c-8.86,0-9-.2-9-9.24,0-.79,0-1.59,0-2.39C168.94,312.78,170.82,310.23,176.29,308.3Z"/><path class="cls-4" d="M31.82,308.3c-7.73,4-7.44,11.14-7.09,18.27.14,2.78,2.35,2.39,4.18,2.4H70.4c5.07,0,7.84,2.1,7.74,5.84-.11,4-2.77,6.13-7.68,6.14-13.83,0-27.66.09-41.49-.06-3.17,0-4.51.64-4.36,4.13.35,8.39-1,7,7.3,7.09,12.5.08,25,.05,37.5,0a11.63,11.63,0,0,1,6.09,1.48c2.14,1.24,2.73,3.14,2.62,5.4A4.9,4.9,0,0,1,75,363.67a16.75,16.75,0,0,1-6.58,1.25c-13.17-.06-26.34.07-39.5-.1-3.24,0-4.41.78-4.32,4.19.21,7.06,0,7.06,7.23,7.06H69.34c.79,0,1.59,0,2.39,0,4,.22,6.58,2.87,6.41,6.61-.15,3.17-2.78,5.35-6.62,5.36-14,0-27.93.12-41.89-.07-3.8-.05-5.45,1-5,5,.23,2,0,4,.13,6,.37,4.69,3.43,7.51,7.07,9.89H7.11C1.48,405.88,0,401.05,0,395q.26-36.81,0-73.62c-.06-7.38,2.89-13.94,13.13-13.28C19.34,308.5,25.59,308.25,31.82,308.3Z"/><path class="cls-5" d="M321.51,308.32c-4.94,2.44-7.55,6-7.26,11.93.42,8.71.11,8.72,8.91,8.73h36.71c5,0,7.65,2.15,7.53,6.14-.11,3.62-2.94,5.83-7.54,5.84-13.7,0-27.4.12-41.1-.08-3.48-.05-4.64.84-4.48,4.43.36,7.93-.89,6.77,6.78,6.81,12.37.06,24.74,0,37.11,0,5.8,0,9.41,2.47,9.42,6.37s-3.62,6.38-9.41,6.38c-13.17,0-26.34.09-39.5-.06-3.13,0-4.55.56-4.39,4.1.36,8.44-1,7.07,7.26,7.12,13,.08,26.07,0,39.1,0,5.51,0,8.24,4.45,5.8,9.15-1.33,2.56-3.59,2.83-6.09,2.83-14,0-27.93.1-41.89-.09-3.42,0-4.46,1.08-4.15,4.32.27,2.9-.16,5.9.33,8.74.66,3.84,3.82,5.86,6.9,7.76H296c-5.28-3.09-6.63-7.74-6.57-13.69.26-25,.1-49.95.12-74.92,0-8.53,3.5-12,12-12C308.23,308.17,314.87,308.26,321.51,308.32Z"/><path class="cls-6" d="M176.29,308.3c-8.19,4.28-6.39,11.93-6.28,18.93,0,2.5,2.3,1.71,3.71,1.72,14.22.05,28.45.08,42.67,0a5.89,5.89,0,0,1,6,4.25c.94,2.73-.17,5.14-2.59,6.94-1.33,1-2.75.82-4.19.82-13.82,0-27.64.1-41.46-.06-3.21,0-4.47.71-4.33,4.16.33,8.27-1,7,6.91,7.07,12.5.07,25,0,37.48,0,2.71,0,5.41.21,7.17,2.6a5.86,5.86,0,0,1,.62,6.4c-1.42,2.82-4.06,3.71-7,3.73-8.11.07-16.21,0-24.32,0-5.85,0-11.7.07-17.55,0-2.3,0-3.38.55-3.32,3.11.22,10-1.11,8,7.86,8.07,12.62.13,25.25,0,37.88,0,4.6,0,7.07,2.21,7,6.18-.08,3.66-2.61,5.79-7,5.79-14,0-27.91.08-41.87-.05-2.89,0-4.25.69-3.87,3.77a19.6,19.6,0,0,1,0,4.78c-.75,6,2,9.85,7.22,12.25H151.56c-5.45-2.92-6.81-7.65-6.77-13.55.19-24.7.25-49.4,0-74.09-.09-8.75,3.91-13.69,13.2-13.07C164.06,308.49,170.18,308.25,176.29,308.3Z"/><path class="cls-7" d="M185.1,242.06l-46.34-.25c-1.53-1.66-1.16-3.74-1.16-5.69,0-12,0-23.92,0-35.88a33.12,33.12,0,0,0-.17-4.78c-.42-2.85-1.5-5.31-4.81-5.37s-4.42,2.45-5,5.21a24.16,24.16,0,0,0-.31,5.17q0,18.53,0,37.07c0,1.45.28,2.93-.42,4.31h-4a6.9,6.9,0,0,1-.44-3.51q.07-32.23,0-64.48c0-9.13,3.09-16.82,10-22.87l29.44-11.29c3.21,1.3,5,4.2,7.38,6.47,5.82,5.61,12.5,9.21,20.71,9.59,8.55.85,15.84-2.14,22.26-7.5,2.62-2.2,5.39-4.26,7.43-7.11.84-1.17,2.06-2.11,3.75-1.45,13.59,5.25,27.22,10.41,40.77,15.77,13.77,5.43,22,17.43,22.11,32.4.14,15.66.05,31.32,0,47,0,5.53-1.6,7.08-7.14,7.07-6.9,0-13.8-.07-20.69-.11-1.53-1.66-1.17-3.74-1.18-5.69,0-12.48,0-25,0-37.44a15.26,15.26,0,0,0-.48-5.13c-.79-2.23-2.31-3.63-4.76-3.45-2.29.17-3.49,1.73-4,3.84a20.49,20.49,0,0,0-.28,4.76c0,12.49,0,25,0,37.45,0,2,.33,4-1.18,5.69l-48.73.21A15.84,15.84,0,0,1,185.1,242.06Z"/><path class="cls-8" d="M185.1,242.06h12.73c0,7.58.2,15.17-.1,22.74-.14,3.67,1.15,4.37,4.54,4.36q62.43-.17,124.86-.07c10.44,0,15.15,4.68,15.16,15q0,12,0,23.94l-12.79,0c0-7.84-.05-15.68.09-23.52,0-2.52-.65-3.51-3.35-3.5q-62.58.1-125.17,0c-2.7,0-3.38,1-3.34,3.49.15,7.84.09,15.68.11,23.52H185.05c0-7.84,0-15.68.1-23.52,0-2.53-.63-3.5-3.33-3.49q-62.59.1-125.19,0c-2.72,0-3.37,1-3.33,3.52.14,7.84.09,15.68.12,23.52l-12.85,0c0-8.51,0-17,.08-25.53.05-8.12,5.37-13.44,13.54-13.44q63,0,126.07.07c3.74,0,5.11-.8,4.94-4.77C184.88,257,185.11,249.51,185.1,242.06Z"/><path class="cls-9" d="M238.62,87.26q0-9.32-.06-18.63c0-1-.25-2.14.67-3,1.82-.65,1-2.21,1.05-3.36.1-5.76,0-1.54,0-7.29,1.35,5.72.4,1.55.6,7.31a13.8,13.8,0,0,0,1.83,7.07C246.76,76.11,245,83.06,238.62,87.26Z"/><path class="cls-10" d="M228.17,90.27c-.78,10.62-5.06,19.5-13.23,26.4a5.65,5.65,0,0,0-2,4.88c.1,4,0,7.91,0,11.87-1.89-.27-1.6-1.86-1.76-3.07a35.54,35.54,0,0,1-.08-4.38c0-4.41,0-4.44-4.13-3.2-3.38,1-6.28-.19-9.07-1.85-12.38-7.38-18.14-18.65-18.65-32.72-.33-9.41-.09-18.84-.05-28.26,0-1.73,0-3.49,1.35-4.85,4.4-2.27,9.36-2.93,13.91-4.79a92.81,92.81,0,0,0,15.38-7.53c2.88-1.84,5.51-1.45,7.93,1,3.49,3.47,6.52,7.35,9.91,10.92,2.35,2.48,1.32,5.83,1.69,8.81.14,7.18.07,14.35.06,21.52C229.41,86.82,229.57,88.74,228.17,90.27Z"/><path class="cls-11" d="M228.23,62.3c.59-4.15-1-7.33-4-10.13a94.85,94.85,0,0,1-7.29-7.83c-1.88-2.16-3.83-2.52-6.26-1a93,93,0,0,1-29.57,12,20.75,20.75,0,0,1-12.5,1.87c-2.56-4.6-1.65-9.64-1-14.31,2.52-18.47,12.35-31.82,29.37-39.68a14.71,14.71,0,0,1,6.52-1.57c19.5,3.82,34.76,21.72,36.9,43.32.26,6.8,1.54,14.29,1,21.09C237.09,66.15,232.16,63.66,228.23,62.3Z"/><path class="cls-12" d="M168.31,56.67l12.75-1.27c-.12.24-.34.47-.34.71-.13,14.92-2.41,30,1.95,44.64,2.83,9.51,9.42,16.13,18.22,20.55a7.41,7.41,0,0,0,8.25-.74c2.9-2.19,3-.65,3.12,1.9.18,3.65-.91,7.4.67,11,.59,3.26,3.66,3.3,5.85,4.43,1.47.76,3.08,1.25,4.62,1.86-4.14,2-6.39,6-9.78,8.9a37.38,37.38,0,0,1-21.52,8.65,6.78,6.78,0,0,1-2.24-.66c-1.36-1.56-1.13-3.47-1.14-5.31,0-6.9-.1-13.81,0-20.71,0-3-.78-4.71-4-5.17a34.28,34.28,0,0,1-8.32-2.69c-2.11-.89-3-.22-2.93,2a40.68,40.68,0,0,1-.08,5.18c-.15,1.33.27,3.06-1.75,3.51a13.25,13.25,0,0,1,0-2c1-7.69-.47-14-7.11-19.4-5.22-4.26-7.82-11-8.08-18-.17-4.39-3.73-3.12-5.78-4.37,2.81-1.2,3.57-2.42,1.42-5.43-3.53-5-3.46-10.45,0-15.59,1.45-2.14,2.65-4.26,2.39-7,1-5,2.08-5.94,7-6C163.79,55.62,166.21,55.14,168.31,56.67Z"/><path class="cls-13" d="M132.43,151c-.33,2.9-3,4.33-4.34,6.61a31.08,31.08,0,0,0-4.5,16.61c.08,20.87,0,41.74,0,62.61,0,1.71.29,3.48-.78,5l-18.72.11c-3.65,0-5.41-1.91-5.4-5.41,0-18.07-.55-36.18.45-54.2.66-11.75,7.92-20.37,18.49-25.61C122.36,154.41,127.49,152.89,132.43,151Z"/><path class="cls-14" d="M168.31,56.67c-2.39,0-4.77.11-7.15.13-4.72,0-5.27.57-5.65,5.51-3.19,1.93-7,2.24-10.3,4-1.56.81-2.68,1-2.65-.54.14-5.42.4-12.07.83-17.49A48.44,48.44,0,0,1,177,2.44c8.76-2.67,17.57-3.49,26.47-.73-3.11,2-6.76,2.71-10,4.52-13.38,7.41-21.13,18.68-24.35,33.43C167.84,45.32,168.59,51,168.31,56.67Z"/><path class="cls-13" d="M126.82,241.85c-1-1.41-.78-3-.78-4.62,0-13,0-26,0-39a14.14,14.14,0,0,1,1.13-6.2,5.5,5.5,0,0,1,5.69-3.48c2.57.21,4.49,1.31,5.32,4a14.26,14.26,0,0,1,.65,4.29q0,22.5,0,45Z"/><path class="cls-15" d="M171.65,133.4c1.43-3.31.54-6.78.61-10.17.06-2.69.39-3.63,3.3-2.23,3.79,1.82,7.72,3.56,12.06,3.64,2.49,0,2.24,1.71,2.24,3.3q0,14.33,0,28.66c-7.57.25-13.71-3.23-19.23-7.83a49.81,49.81,0,0,1-8.76-9.06c1.86-1.56,4.26-1.92,6.39-2.86C169.94,136.11,171.21,135.24,171.65,133.4Z"/><path class="cls-13" d="M246.56,241.85q0-23.31,0-46.63c0-4,2.3-6.7,5.65-6.71,3.74,0,6.29,2.55,6.31,6.68,0,15.54,0,31.09,0,46.63Z"/><path class="cls-15" d="M154.21,85.37c.78.95,1.78,1.92,1.12,3.14-1.06,2-3.14.61-4.69,1.09-10.52-2.2-14.66-12.11-8.73-21.08a5.22,5.22,0,0,0,.78-2v0c4.07-2.24,8.47-4.56,12.82-4.24a7.32,7.32,0,0,1-1.84,5.78C149.18,73.88,149.48,79.68,154.21,85.37Z"/><path class="cls-15" d="M228.23,62.3c4,0,8,.21,11,3.36.64,7.22,1.52,14.45-.61,21.6-2.94,2.88-6.65,3.09-10.45,3Z"/></g></g></svg>