<svg xmlns="http://www.w3.org/2000/svg" viewBox="0 0 265.05 291.27"><defs><style>.cls-1{fill:#9dc7fb;}.cls-2{fill:#ecf5fe;}.cls-3{fill:#cce1fe;}.cls-4{fill:#fecf64;}.cls-5{fill:#eaaf44;}.cls-6{fill:#7e8b96;}.cls-7{fill:#7e8a95;}.cls-8{fill:#7e8b95;}.cls-9{fill:#5f6c75;}.cls-10{fill:#7d8a95;}.cls-11{fill:#dfbaa3;}.cls-12{fill:#d7ab8c;}</style></defs><g id="Слой_2" data-name="Слой 2"><g id="Layer_1" data-name="Layer 1"><path class="cls-1" d="M23.88,291.27c-5-2.63-6.91-6.77-6.28-12.3a45.27,45.27,0,0,0,0-5.34c1.54-1.33,3.42-.88,5.17-.88q68.61,0,137.22,0c10.7,0,21.4-.07,32.1,0,4.08,0,7.5-.86,9.64-4.67.35-.62.88-1.43,1.73-1.17.64.2.8,1,.86,1.69a19.37,19.37,0,0,1-.63,8.15,8.63,8.63,0,0,1-5.59,5.7c.5-.55,1.61-.59,2.67-.6,5.68-.05,11.37-.11,17.05,0,1.22,0,3.08-.33,2.86,2-.38,3.94-3.26,5.73-6.32,7.37Z"/><path class="cls-2" d="M9.06,0,194.28,0c5.33,0,9.15,3.88,9.3,9.38.07,2.75,0,5.5,0,8.24,1,1.09.91,2.45.91,3.76q0,33.74,0,67.45a8.25,8.25,0,0,1-.45,3.34c-1.54,1.81-2.29.06-3-.81-2.59-3-4.78-6.36-7.63-9.16-2.72-1.68-4.63-.92-5.32,2.16a27.14,27.14,0,0,0-.23,4.77c-.05,1.1.18,2.28-.8,3.16-1.21.08-1.79-.94-2.63-1.5-2.11-1.43-4.14-.68-4.83,1.76a10.76,10.76,0,0,0-.22,2.83V125c0,4.59,2,8.65,3.45,12.83q8.31,23.91,16.62,47.8c1.64,4.75,3.6,9.38,4.77,14.29a5.43,5.43,0,0,1,.18,1.55c.3,19.25.07,38.48.14,57.72V260c-.05,4.93-.51,5.36-5.31,5.46-59.3,1.29-118.6.21-177.9.56a21.39,21.39,0,0,1-5.64-.49,9.81,9.81,0,0,1-7.46-9c-.07-1,0-2.08,0-3.13q0-124,0-247.92C8.18,3.65,7.75,1.68,9.06,0Z"/><path class="cls-3" d="M9.06,0Q9.07,127.16,9,254.3c0,6.7,4.28,10.87,11,10.86,56.48-.12,113-.05,169.46-.1,4.14,0,8.28-.77,12.44-.53,1.23.06,1.71-.55,1.67-1.73,0-.75,0-1.51,0-2.27q0-29.86,0-59.73c1.4.08,1.5,1.31,1.83,2.22,4.94,13.63,9.58,27.36,14.35,41,.28.8.27,1.68.54,2.48a14.35,14.35,0,0,1-.47-4.07q0-11.8,0-23.6c0-1.13-.1-2.3.69-3.26,1.42,0,1.07.84.72,1.65q0,31.68-.09,63.36c0,1.09.41,2.28-.46,3.27-.37-1.69-1.74-1.15-2.77-1.16-6.82,0-13.64,0-20.83-.2,7.07-3.08,6.73-9.08,6.37-15.1-.77-.08-.8.64-1,1.08-1.73,3.7-4.72,5.13-8.69,5.13q-33.1,0-66.2,0H9.12A8.92,8.92,0,0,1,0,264.74v-.85q0-127,0-254.07C0,3.87,3.27.36,9.06,0Z"/><path class="cls-4" d="M221.16,123.49c2.94,8.67,5.83,17.36,8.84,26q17.08,49.14,34.22,98.25c.54,1.57,1.43,3.16.25,4.85-.88-1.35-1.88-1.48-3.33-.7a39.08,39.08,0,0,1-12.82,4.39c-3.8.57-5.37-.4-6.67-4-6.52-18.27-12.81-36.62-19.22-54.93q-12.94-37-25.83-74a21.08,21.08,0,0,1-1.27-4.35,1.54,1.54,0,0,1,.25-.86,6,6,0,0,1,2.75-1.39c4.95-1.6,9.84-3.35,14.74-5.09,1.14-.41,2.3-.94,3.57-.46,2.38,2.74,2.86,6.28,4,9.55C220.92,121.61,220.82,122.6,221.16,123.49Z"/><path class="cls-3" d="M221.16,123.49l-4.51-12c-3.54-4.95-7.33-9.69-11.15-14.42-.86-1.43-2.57-2.38-2.41-4.36.88-1,.48-2.18.48-3.27q0-35.91,0-71.82H211c6.47,0,10.15,3.6,10.22,10.17.07,7.38,0,14.76,0,22.15Q221.19,86.71,221.16,123.49Z"/><path class="cls-5" d="M195.62,118.86c1.35,3.6,2.78,7.19,4,10.82q9.94,28.48,19.81,57,10.51,30.22,21.08,60.43c.68,2,1.52,3.87,2.12,5.85.76,2.51,2.5,3.06,4.8,2.74a43.77,43.77,0,0,0,14.13-4.79c2.73-1.41,2.75-1.38,2.87,1.71a9.8,9.8,0,0,1-3.65,5.24,23.54,23.54,0,0,1-17.89,5.54,8,8,0,0,1-7.49-5.85c-4.27-12.6-8.7-25.14-13.08-37.69-.31-.88-.73-1.72-1.09-2.57a2,2,0,0,0-.58-1.7c-1.63-1.83-2.11-4.21-2.85-6.42C213,195,208,180.89,203.07,166.73c-4.72-13.86-9.69-27.64-14.37-41.52-.44-1.32-1.18-2.62-.7-4.11C190.24,119.33,192.63,118.08,195.62,118.86Z"/><path class="cls-6" d="M101.67,128.6h64.26a14,14,0,0,1,2.83.08c2.16.44,3.65,1.74,3.77,4a4,4,0,0,1-3.39,4.55,15.28,15.28,0,0,1-3.1.28H37.54c-4.3,0-6.69-1.6-6.72-4.45s2.23-4.49,6.6-4.49Z"/><path class="cls-6" d="M101.55,216.64h-64c-4.32,0-6.7-1.56-6.76-4.4s2.36-4.55,6.87-4.55H165.91c4.39,0,6.65,1.47,6.73,4.37s-2.28,4.58-6.84,4.58Z"/><path class="cls-7" d="M101.78,102.32H166a16.2,16.2,0,0,1,3.12.12,4.31,4.31,0,0,1-.1,8.45,16.64,16.64,0,0,1-2.83.09h-129c-.57,0-1.14,0-1.71,0-2.78-.13-4.66-1.91-4.62-4.36s1.89-4.15,4.72-4.28c.85,0,1.71,0,2.56,0Z"/><path class="cls-7" d="M102.09,181.44h64.24a14,14,0,0,1,2.83.1,4,4,0,0,1,3.38,4.29A3.93,3.93,0,0,1,169,190a17.9,17.9,0,0,1-2.84.09H37.42c-4.52,0-6.65-1.42-6.59-4.39s2.12-4.25,6.73-4.25Z"/><path class="cls-7" d="M101.81,242.91q-32.55,0-65.1,0c-2.18,0-4.17-.2-5.31-2.42a4.19,4.19,0,0,1,3.16-6.19,23.14,23.14,0,0,1,3.12-.09h128.2c4.73,0,6.63,1.2,6.7,4.22s-2.17,4.47-6.81,4.47Z"/><path class="cls-6" d="M95.75,163.82H37.49a13.39,13.39,0,0,1-3.11-.16,4.2,4.2,0,0,1-3.51-4.25,4,4,0,0,1,3.51-4.19,21.56,21.56,0,0,1,3.67-.31q57.83,0,115.66,0a18.76,18.76,0,0,1,3.67.32,4,4,0,0,1,3.48,4.49,4.11,4.11,0,0,1-3.73,4,16.76,16.76,0,0,1-2.84.09Z"/><path class="cls-3" d="M188.22,121.17c4.08,11.9,8.18,23.79,12.21,35.7,1.09,3.22,2.54,6.32,3.19,9.69,1.14,4.16.89,8.42.9,12.67,0,5.49,0,11,0,16.46,0,1.39.21,2.87-.94,4q-4.94-14.14-9.85-28.3-7.16-20.6-14.33-41.18a15.5,15.5,0,0,1-.83-5.27c0-9.94,0-19.89,0-29.83,0-2.28-.22-4.64,2.45-5.78s4,.75,5.41,2.38a3.18,3.18,0,0,0,.71.45c1.49,2.2.64,4.68.83,7a29,29,0,0,1-.05,4.17C188,109.31,188,115.24,188.22,121.17Z"/><path class="cls-6" d="M101.8,31.88h41.47a8.15,8.15,0,0,1,3.35.39,4.22,4.22,0,0,1,2.83,4.19,4,4,0,0,1-3.11,4,13.09,13.09,0,0,1-3.36.39q-41.17,0-82.36,0c-.57,0-1.14,0-1.71,0-3.06-.28-4.89-2-4.87-4.49,0-2.7,1.92-4.41,5.16-4.41C73.4,31.87,87.6,31.89,101.8,31.88Z"/><path class="cls-8" d="M79.36,75.63q21.17,0,42.33,0c3.49,0,5.57,2,5.12,4.89-.39,2.51-2,3.75-4.54,3.76q-7,0-13.92,0l-70.72.4c-.47,0-1,0-1.42,0C33,84.64,31,83,30.81,80.43s2.11-4.6,5.38-4.63c10.32-.08,20.64-.07,31-.09H79.36Z"/><path class="cls-1" d="M203.56,199.7l.06-33.14c3.42,9.62,6.86,19.23,10.23,28.87,2.34,6.69,4.57,13.43,6.84,20.14v31.82l-.38.12c-.76-2-1.57-3.9-2.26-5.89q-6.87-19.65-13.71-39.33a13.69,13.69,0,0,0-.73-1.49C203.59,200.43,203.57,200.07,203.56,199.7Z"/><path class="cls-9" d="M187.35,103.44l-.21-11.27c.05-2.64,0-5.28.16-7.91a3.8,3.8,0,0,1,2.52-3.74,3.31,3.31,0,0,1,4.23,1.21c1,2.15.82,4.43.77,6.69-.1,4,.31,8.11-.26,12.15A6.69,6.69,0,0,1,187.35,103.44Z"/><path class="cls-10" d="M193.91,101.2q.06-9.74.14-19.47l9,11,2.88,4c-.07,1.21-1.07,1.48-1.92,1.76a95.07,95.07,0,0,1-9.35,3A1,1,0,0,1,193.91,101.2Z"/><path class="cls-11" d="M194.49,101.26c2.73-1.54,5.83-2.06,8.7-3.21a7.24,7.24,0,0,0,2.78-1.3c3.17,4,6.38,7.89,9.49,11.91a11.74,11.74,0,0,1,1.19,2.83c-6.73,1.61-13,4.57-19.64,6.47l-1.36.37a4.23,4.23,0,0,1-1.79-3.39,80,80,0,0,1-.14-11.89A3,3,0,0,1,194.49,101.26Z"/><path class="cls-12" d="M194.49,101.26c0,3.4.11,6.79,0,10.18a19.87,19.87,0,0,0,1.2,6.89l0,.53a38.47,38.47,0,0,0-7.4,2.31c-1.33-2.71-1-5.62-1-8.49,0-3.08.11-6.16.17-9.24l6.56-2.24Z"/></g></g></svg>