<svg xmlns="http://www.w3.org/2000/svg" xmlns:xlink="http://www.w3.org/1999/xlink" viewBox="0 0 2389 2356.62"><defs><style>.cls-1{fill:url(#Fading_Sky);}.cls-2{fill:url(#Fading_Sky-2);}.cls-3{fill:url(#Fading_Sky-3);}.cls-4{fill:url(#Fading_Sky-4);}.cls-5{fill:url(#Fading_Sky-5);}.cls-6{fill:url(#Fading_Sky-6);}.cls-7{fill:url(#Fading_Sky-7);}.cls-8{fill:url(#Fading_Sky-8);}.cls-9{fill:#ffd835;}.cls-10,.cls-11,.cls-12,.cls-13,.cls-15,.cls-17,.cls-18,.cls-19,.cls-20,.cls-21,.cls-22,.cls-9{fill-rule:evenodd;}.cls-10{fill:#e0af00;}.cls-11{fill:#575756;}.cls-12,.cls-14{fill:#3c3c3b;}.cls-13{fill:#666;}.cls-15{fill:#ffea82;}.cls-16,.cls-18{fill:#7f7f7f;}.cls-17{fill:#333;}.cls-19{fill:#b2b2b2;}.cls-20{fill:url(#GradientFill_9);}.cls-21{fill:#4c4c4c;}.cls-22{fill:#999;}.cls-23{fill:#fff;}.cls-24{fill:#3788cd;}.cls-25{fill:#828282;}.cls-26{fill:#c98200;}.cls-27{fill:#ffbb40;}.cls-28{fill:#ffa400;}.cls-29{fill:#f9ae37;}.cls-30{fill:#f5d04f;}.cls-31{fill:#f6d45c;}.cls-32{fill:#f6d561;}.cls-33{fill:#f7dc7c;}.cls-34{fill:#fee162;}.cls-35{fill:#efe2e6;}.cls-36{fill:#e3d0d6;}.cls-37{fill:#f7f2f4;}.cls-38{fill:#f5c619;}.cls-39{fill:#fad959;}.cls-40{fill:#f9d857;}.cls-41{fill:#f6e2a7;}.cls-42{fill:#82b5f6;}.cls-43{fill:#c6defe;}.cls-44{fill:#b7d6fe;}.cls-45{fill:#a2cafe;}.cls-46{fill:#3e618d;}.cls-47{fill:#2d4f7a;}.cls-48{fill:#1f3c61;}.cls-49{fill:#3e618e;}.cls-50{fill:#6485b0;}.cls-51{fill:#7696bf;}</style><linearGradient id="Fading_Sky" x1="919.98" y1="1664.57" x2="1503.32" y2="1664.57" gradientUnits="userSpaceOnUse"><stop offset="0" stop-color="#2484c6"/><stop offset="1" stop-color="#2484c6"/></linearGradient><linearGradient id="Fading_Sky-2" x1="852.24" y1="1664.57" x2="1578.65" y2="1664.57" xlink:href="#Fading_Sky"/><linearGradient id="Fading_Sky-3" x1="778.29" y1="1664.58" x2="1652.18" y2="1664.58" xlink:href="#Fading_Sky"/><linearGradient id="Fading_Sky-4" x1="620.64" y1="1663.31" x2="1802.66" y2="1663.31" xlink:href="#Fading_Sky"/><linearGradient id="Fading_Sky-5" x1="554.73" y1="1664.57" x2="1868.59" y2="1664.57" xlink:href="#Fading_Sky"/><linearGradient id="Fading_Sky-6" x1="324.13" y1="1664.57" x2="2099.17" y2="1664.57" xlink:href="#Fading_Sky"/><linearGradient id="Fading_Sky-7" x1="193.09" y1="1664.57" x2="2230.21" y2="1664.57" xlink:href="#Fading_Sky"/><linearGradient id="Fading_Sky-8" x1="100.19" y1="1668.82" x2="2323.11" y2="1668.82" xlink:href="#Fading_Sky"/><linearGradient id="GradientFill_9" x1="1087.51" y1="259.64" x2="1169.27" y2="99.19" gradientUnits="userSpaceOnUse"><stop offset="0" stop-color="#c6c6c6"/><stop offset="1" stop-color="#fff"/></linearGradient></defs><g id="Слой_2" data-name="Слой 2"><g id="Layer_2" data-name="Layer 2"><g id="Circle_Landing" data-name="Circle Landing"><path class="cls-1" d="M1417.2,1545.1c-114.26-66-298.94-66-412.45,0-.54.32-1.06.62-1.58.94-73.09,43.1-98,103.36-74.83,158.26,12.3,29.22,38.22,56.93,77.72,79.74,114.27,66,299,66,412.53,0s112.89-173-1.39-238.93Z"/><path class="cls-2" d="M1470.41,1514.18c-143.63-82.92-376.52-82.92-519.22,0q-5.75,3.35-11.17,6.78l7.29,2.9c3.26-2.06,6.62-4.08,10.08-6.1,139.27-80.93,366.68-80.93,506.86,0s141,212.68,1.69,293.61-366.71,81-506.93,0c-51.43-29.7-84.12-66.23-98-104.59l-8.81.31c14,39.58,47.61,77.26,100.61,107.86,143.64,82.93,376.58,82.93,519.29,0s141.91-217.84-1.73-300.77Z"/><path class="cls-3" d="M1522.27,1484.05c-172.38-99.52-452-99.52-623.27,0q-10.54,6.14-20.24,12.58l19.42,7.7q8.36-5.47,17.37-10.72c162.19-94.26,427-94.26,590.27,0s164.15,247.68,2,341.93-427,94.28-590.34,0c-62-35.81-100.59-80.15-115.7-126.55l-23.45.86c15.59,49.58,56.49,97,122.7,135.25,172.42,99.54,452.05,99.54,623.35,0s170.34-261.5-2.07-361Z"/><path class="cls-4" d="M1628.36,1422.39c-231.27-133.53-606.38-133.53-836.15,0s-228.59,350.83,2.68,484.36c97.34,56.19,220.13,88.75,346.84,97.63l-1.22-29c-113.57-8.84-223.3-38.48-310.67-88.92-211.87-122.32-213-321.39-2.46-443.74s554.17-122.33,766,0c137.27,79.25,186.1,190.69,146.25,292.61l47,9.82c45.92-112.15-7-235.37-158.29-322.74Z"/><path class="cls-5" d="M756.88,1928.86c-252.41-145.72-253.77-382.84-3-528.57s660.15-145.73,912.56,0,253.72,382.85,3,528.58-660.1,145.73-912.51,0Zm917.77-533.35c-124.48-71.87-289.67-111.45-465.14-111.45s-340.22,39.58-463.89,111.46-191.48,167.42-190.89,269,69.43,197.21,193.91,269.08,289.7,111.44,465.17,111.44,340.2-39.57,463.87-111.45,191.46-167.43,190.9-269.06-69.45-197.2-193.93-269.07Z"/><path class="cls-6" d="M2048.22,1493.63l-20.1,3.47c89.46,145.84,59.49,310.84-90.2,443.35l16.8,6.93c94.56-83.21,145-180.73,144.44-282.81-.33-59.14-17.78-116.75-50.94-170.94Zm-242.53-209.91c-164-86.11-374.39-133.23-596.94-133.23-237,0-459.65,53.46-626.72,150.56s-258.69,226.22-257.9,363.52,93.8,266.42,262,363.52,391.38,150.58,628.44,150.56c142,0,278.68-19.16,401.44-55.4l-10.23-10.52c-324.76,95.22-733,64.2-1005.26-93-339.18-195.83-341-514.47-4-710.31,326.74-189.89,853.85-195.66,1194.76-17.31l14.41-8.38Z"/><path class="cls-7" d="M1929.53,1247.37c-97.52-56.3-211.17-99.91-337.68-129.59-122.18-28.66-251.22-43.2-383.52-43.2s-261.16,14.53-383,43.2c-126.17,29.69-239.33,73.29-336.22,129.6s-171.8,122-222.65,195.18c-49.1,70.69-73.78,145.39-73.33,222s25.93,151.35,75.83,222q4.86,6.89,10,13.68l19.69-3.77c-160.7-211.68-92.64-467.8,205-640.75,387.89-225.42,1021.14-225.42,1411.58,0s392.51,592.23,4.62,817.65c-241.38,140.27-577.75,193.28-891.51,159l-5,11.79a1742.16,1742.16,0,0,0,191.7,10.41c132.28,0,261.16-14.52,383-43.19,126.2-29.69,239.3-73.29,336.22-129.61s171.82-122,222.65-195.17c49.09-70.69,73.74-145.38,73.31-222s-25.92-151.32-75.82-222c-51.64-73.18-127.3-138.86-224.85-195.19Z"/><path class="cls-8" d="M1995,1209.33c-106.42-61.44-230.39-109-368.46-141.4a1770.17,1770.17,0,0,0-237.82-38.67l1.47,3.87c219.86,21.08,431,80.62,600.71,178.59,432.49,249.7,434.78,656,5.13,905.69s-1131.13,249.71-1563.63,0-434.74-656-5.06-905.69c51.54-30,107-56.32,165.49-79.07l-1.38-3.68c-60.09,23.34-116.31,50.18-168.24,80.36-105.77,61.47-187.53,133.12-243,213-53.58,77.13-80.48,158.64-80,242.25S128.52,1829.7,183,1906.84c56.35,79.86,138.91,151.52,245.33,213s230.43,109,368.5,141.43c133.35,31.28,274.15,47.13,418.49,47.14s285-15.87,418-47.14c137.69-32.38,261.15-80,366.91-141.43s187.48-133.11,242.93-213c53.56-77.14,80.5-158.66,80-242.26s-28.31-165.12-82.75-242.25c-56.36-79.88-138.91-151.52-245.37-213Z"/></g><path class="cls-9" d="M958.06,701.77c14.58,21.67,25,28.63,55.07,20.87,18.73-30.8,57-111,77.39-164.57,20.11-52.9,197-274.57,89.86-326.16-65.91-31.74-111.22,5-132.75,67.17C1031.92,344.48,1008.24,459,985,529.81,941.85,653.23,932.38,685.78,958.06,701.77Z"/><path class="cls-10" d="M1092.72,356.31c-17.7,24.59-19.5,61-38.22,91.71-46.29,75.93-3.59,44.71-13.27,64.55-62.64,128.38,3.4,94.58-37.36,157.41-11.22,17.28-25.34,26.66-56.84,20,21.21,32.86,39,45,66.1,32.68,16.79-1.36,57-111,77.39-164.57,16.33-43,13.27-54.34,59.4-66.47,4.6-2.51,8.86-5,12.88-7.56C1138.44,441.93,1128.38,330.05,1092.72,356.31Z"/><path class="cls-11" d="M1218.28,1448.66c6.68,30.55,18.78,54,9.72,93.5-26,23.73-65.39,48.12-100.35,67.61v.22c-63.33,37.19-141.53,58.67-162.81,9.63-3.36-12.95,7.8-31,17.76-40.08,30.11-27.48,78.42-36,88.89-80,2.74-11.51,3.63-24.69,3.29-38.51Z"/><path class="cls-12" d="M1231.19,1518.46c-17.09,35.48-37.3,27.91-54.51,40.54-52.67,38.65-64.65,74.73-140.86,85.27-30.79,4.26-67.27-8.64-71.94-27.51l1.92,20c5.66,16,42,31.23,72,26.15,46.72-7.91,82.31-31.7,129.85-64.81,35.38-24.63,63.1-32.71,71.58-47.8C1246.68,1535.88,1233.87,1529.07,1231.19,1518.46Z"/><path class="cls-11" d="M1457.94,1588.93c6.67,30.55,18.78,54,9.72,93.5-26,23.72-65.39,48.12-100.35,67.61v.22c-63.33,37.19-141.53,58.67-162.82,9.63-3.35-13,7.81-31,17.76-40.08,30.12-27.48,78.43-36,88.89-80,2.74-11.51,3.63-24.69,3.29-38.5Z"/><path class="cls-13" d="M1243.75,1717.88c46.42-40.88,68.85-19.83,84.22-64.86,33,17,100.41,1.14,125.4-34.13h0c15.88,53.21-17.78,41.73-53.51,65.58-34.41,23-91.5,80.83-137.84,80.83C1225.07,1765.3,1223.67,1735.56,1243.75,1717.88Z"/><path class="cls-12" d="M1470.84,1658.73c-17.08,35.48-37.29,27.91-54.5,40.54-52.67,38.65-64.66,74.73-140.86,85.28-30.79,4.25-67.27-8.65-71.94-27.52l1.92,20c5.65,16,42,31.23,72,26.15,83.06-14.06,193.24-96.77,201.42-112.61C1486.34,1676.15,1473.53,1669.33,1470.84,1658.73Z"/><path class="cls-9" d="M1455.36,351s-6.79,102.75-13.25,143.72c-11.87,47.53,8.42,140.38-12.34,206.09-16.18,51.2-14.68,73.92-17.27,113.2-86.55,122.58-276,89.36-363.29-91.56,10-83.4-10.94-226.08,45.79-372.14,16.82-43.3,29.59-147.35,127-110.7C1364.15,255.28,1457.53,348.88,1455.36,351Z"/><path class="cls-9" d="M1051,711.71s-38.5,217.14-40.6,464.23c-1,123.57.92,257.8,63.28,267.08,11,67.46,145,58.84,139.28-24.36,23.29,7.67-26.17-207.31-3.86-369,15,164.18,29.54,542.15,103.47,529.8.2,60.28,136.44,96.79,139.28-24.37,53.18-19.65-25.15-285-25.93-464.31-13.58-172.33-14-270.3-13.21-300.09-23.15,96.7-322.16,65.81-305.34-39.68Z"/><path class="cls-10" d="M1051,711.71s-38.5,217.14-40.6,464.23c-1,123.57.92,257.8,63.28,267.08,5.87,55.49,57.31,57.9,110.77,27.16-114.68,11.65,19.29-168.77-60.4-192.12-42-12.32-81.91-34.76-82.93-52.58-9.2-159.78,36.82-330.23,28.47-481-1.9-7.26-7.92-19.18-15.8-30.81Z"/><path class="cls-10" d="M1209.12,1049.62c15,164.18,29.54,542.15,103.47,529.8.14,41.63,70.63,84.37,148.28,21.53-9-3.43-52.12,18.26-65,10.16-88.86-55.66-8.74-226-28.53-245.84-29.07-29.11-65.56-7.58-71.94-46.9-18.52-114.1,5.84-315.94,38.08-423.23-17.49-6.85-89.43,92.48-137.29,72.2-13-5.5-68.9-40.86-95.85-150.74C1066.23,853.8,1188.89,1029,1209.12,1049.62Z"/><path class="cls-14" d="M1311,1607.85c-.44-5.56,1.17-34,1.61-28.44,10.26,58.33,145,44.4,139.28-24.36.33-2.8,11.64,33,10.49,40.77C1449.76,1653.45,1315.54,1665,1311,1607.85Z"/><path class="cls-12" d="M999.85,728.85c-11.08-7.09-43.43-29.88-45.28-11.6-4.84,15.29-22.92,74.4-23.38,78.77a142.49,142.49,0,0,0-.94,19.57c-.07,10.44,1.75,14.34,7.68,23.1,4.55,7.59,17,29.76,21.67,36.2,9.52,10.73,20.48,26.33,31.33,34,2.48-1.55,4.63-3.57,4.5-7.22,4.07,3.14,9.55,10,14.2,5.6,7.31-7.48,1.85-17.45,1.85-17.45l3.82,4.43c9.72-.57,9.19-17.45,7.41-23s-12.41-19.42-14.39-24.89c-4.76-13.3-15.94-43.91-2.26-13.54,5.76,13.27,16.25,30.24,20.79,23.63,9.33-13.64-2.83-21.11-7.3-35-3.95-12.24-10.51-37.55-8.31-51.33C1016,740.43,1012.24,736.76,999.85,728.85Z"/><path class="cls-11" d="M987.82,761.82c4.07,12.65-9.57,27.87-16.15,38.74-7.42,12.28,6.94,30.46-6.29,45.91-12.7,14.84-16.33-54.73-16.48-64.39-.12-7.77,5.56-34,15.83-35.71C982.61,743.42,982.41,752.63,987.82,761.82Z"/><path class="cls-11" d="M958.06,701.77c29.23,11.41,24.26,15.82,60.26,18.78-7.9,16.92-6.3,20-6.3,20-30.72,4.67-49.64-1.42-59.81-15.77C950.84,717.64,951.11,710.22,958.06,701.77Z"/><path class="cls-14" d="M1072.1,1471.45c-.44-5.56,1.17-34,1.61-28.44,10.26,58.33,145,44.4,139.27-24.36.34-2.81,11.65,33,10.49,40.77C1210.88,1517.05,1076.65,1528.61,1072.1,1471.45Z"/><path class="cls-13" d="M1005.26,1582.8c46.43-40.88,68.86-19.82,84.23-64.86,33,17,100.41,1.15,125.39-34.13h0c15.87,53.2-17.78,41.72-53.51,65.58-34.42,23-91.51,80.83-137.85,80.83C986.59,1630.23,985.19,1600.49,1005.26,1582.8Z"/><path class="cls-11" d="M1435.28,1011.5c-1.2,14.81-13.85,19.25-26,28.08-13.74,10-15.36,40.78-36.94,51.83-11,5.64-10.07-12.43-1.61-28.85s5.11-31.76,12.42-44.91c4.33-7.79,21.47-33.43,33.59-31.24C1437.81,990.23,1433.44,999.79,1435.28,1011.5Z"/><path class="cls-12" d="M1475.61,954.93c-4.53-13.91-26.23-36.42-32.4-16.57-9,16-51.25,66.52-52.74,71.27-2.63,7.93,4.26,24.79,2.62,33.09-2.36,11.51-1.08,16.11,4,26.77,3.67,9.15,13.41,35.7,17.47,43.59,8.81,13.43,22.47,45.35,29.29,42.8,3.28-1.23,8.86-5.15,9.51-9.2,3.26,4.85,5.73,14.13,12.79,10.56,10.2-7,6-18.92,6-18.92l3.5,5.51c10.18,3.54,12.47-15.35,11.6-21.79-.86-6.27-8.16-25.84-9.27-32.21-2.68-15.46-9.08-51.12.31-15.31,3.84,15.61,13.21,36.72,19.2,29.56,10.36-12.41.29-24.89-1.92-40.95-2-14.17-8.63-44.17-3-59C1491.31,986.71,1481.84,974.09,1475.61,954.93Z"/><path class="cls-11" d="M1412.34,1001.61c-9,14-12.9,30.68-17.49,47.54,4.18,11.35,13.85,18,26.34,12.27,8.76,6.26,19.8,5.7,24-.56,9.32,4.16,16.71,1.58,22.44-5.8,7.89-2.73,10.82-5,14.68-9.23,4.3-12.32,1.62-23.72,4.2-39C1458.66,1007.56,1424.66,1012.83,1412.34,1001.61Z"/><path class="cls-10" d="M1596.51,718.4c7.35,98.32-55,250.73-98.65,254.62-35.91,11.14-55.36,20.79-73.67-12.53-24-19.5,17.79-101.19,19.73-172.16,2.12-77-9.57-155.7-59.63-190.24-92.52-121.08,43-268.26,67.31-249.06,5.59,3.77,22.21,11.5,40.58,35C1535.72,439.52,1583.93,550.18,1596.51,718.4Z"/><path class="cls-9" d="M1596.51,718.4c7.34,98.32-58,254.14-91.62,248.33-8.45-3.73,8.44-24.56-25.36-11.19-4.34,1.72-19.23,1.69-21.35-4.48-2.75-8,3.52-20.47,9.82-36.88,18.72-48.73,38.81-140.06,23.2-196.32-17.6-63.4-134.16-182.21-132-237.13,3.34-86.5,58.45-159.94,100.78-126.55,5.59,3.76,13.89,6.35,32.25,29.79C1535.71,439.52,1584,550.19,1596.51,718.4Z"/><path class="cls-11" d="M1420,954.44c29.23,11.42,41.85,15.61,77.86,18.58-7.91,16.91-13.39,27.24-13.39,27.24-39.09,4.85-66.82-2.42-70-22.67C1416.27,971.11,1417.93,963.24,1420,954.44Z"/><path class="cls-15" d="M1076.74,406.39c-8.34,70.14,88.62,143,183.21,130.1,34.26-4.66,50.45-12,73.23-68.83,20.77-51.82,45.25-30.41,70.59-22.83,18.63,5.57,23.46,17,42.9,12.41,4.74-46.53,8.69-106.23,8.69-106.23,2.17-2.13-91.21-95.73-233.4-111.39-97.37-36.65-110.14,67.4-127,110.7A540.1,540.1,0,0,0,1076.74,406.39Z"/><path class="cls-10" d="M1363.83,110.57c.37,19.58-7.49,138.22,14.71,181.25-128,122.22-225.8,117-180.65-19,27.42-20.13,41.75-9.56,14.4-84.14C1207.09,165.07,1363.83,110.57,1363.83,110.57Z"/><path class="cls-16" d="M1184.57,945.45a11.71,11.71,0,0,1-11.12-8c-27.84-83.95-35-204.69-21.81-369.15,5-62.1,22.44-113.13,36.48-154.14,15.14-44.24,27.1-79.18,15.43-105a11.71,11.71,0,0,1,21.35-9.63c15.49,34.27,2.2,73.09-14.63,122.23C1196,463.56,1179.73,511,1175,570.14c-12.9,161.28-6.14,279,20.69,359.91a11.7,11.7,0,0,1-7.42,14.8A12,12,0,0,1,1184.57,945.45Z"/><path class="cls-9" d="M1141.16,128.53c1.15,10.27,13.5,11,.75,54.09-7.84,26.62-3.54,26.68,10.49,70.49,7.95,24.8,48.33,73.26,76.25,55.08,8.74-5.69,40.64-56.82,61.52-8.44,6.18,14.33,21.22-12.21,29.81-50.31,2.14-9.5,16.28-109.62,19.11-49.13,4.33,92.44,40.07-104.59,17.17-143.06-22.65-39.93-84.19-80.33-181-41.53-38.4,15.4-77.56,60.89-57.21,100.41C1123.86,127.36,1142.16,112.3,1141.16,128.53Z"/><path class="cls-15" d="M1131.72,64c21.62-3,79.12-9.3,101.48,37,4.53,9.38,52.23,101.06,44.07,36.37-3.34-26.54,23.68-22,25.43-9.73,23.1,163.39,22.22-28.29,39.85-.2,2.56,4.07,4.51,14.77,4.43,25.13,15.44-38.89,11.88-73.78.36-93.14C1303.1-18.56,1172.68-12.9,1131.72,64Z"/><path class="cls-15" d="M1367.58,428.55c15.62,27.84,42.33,53.26,65.63,65.1,36.07,18.33,7.66,17.12,6.2,39.51-1.91,28.92,59.45,11.23,52.63,73.61-3.76,34.4,35.43,91.46,50.31,117.77,25.19,44.52,41.26,9.29,51-40.38-16.13-149.1-60.68-248.5-101.19-300.19-18.36-23.44-26.66-26-32.25-29.79C1426.54,327.85,1385.19,368,1367.58,428.55Z"/><path class="cls-10" d="M1179.32,80.62c34.38,21.52,83.07,90.93,86.62,146.91s-4.37,59.37-15.81,68.82c-9.68,5.14-17.6,9.31-21.48,11.84-27.92,18.18-68.3-30.28-76.25-55.08-14-43.8-18.33-43.87-10.48-70.49,12.74-43.1.39-43.82-.75-54.1,1-16.22-17.31-1.16-23.09-12.39a50.58,50.58,0,0,1-4-10.44C1126,74.08,1144.94,59.11,1179.32,80.62Z"/><path class="cls-17" d="M1178.77,91.31c36.93,22.88,69.49,87.18,71.81,151.69s-34.88,86.58-71.81,63.7S1111.9,217,1111.9,157.57,1141.85,68.43,1178.77,91.31Z"/><path class="cls-18" d="M1112.72,150.67l-18.88,98.53L1144.93,324c19.28-6.64,29.87-9.14,48.84-16.53l.47-.19c64.74-26.48,19.27-174.36-22.71-200.38C1142,88.59,1117.41,108.08,1112.72,150.67Z"/><path class="cls-19" d="M1138.2,314.16c51.12-9,72.16-95.52,68.17-159.32-10-22.33-22.57-40.33-34.84-47.93-29.57-18.32-54.12,1.17-58.81,43.76l-18.88,98.53Z"/><path class="cls-20" d="M1135.54,104.08l-34.08,156.28,15,3.79,65-149.8a72.39,72.39,0,0,0-9.88-7.44C1158,98.53,1145.54,98,1135.54,104.08Z"/><path class="cls-21" d="M1053,276.05l40.2-34.51a8.88,8.88,0,0,1,1.8-1.11c30.57-16,92.36,58.78,66.35,82.47h0l-39.08,33.54Z"/><path class="cls-17" d="M1114.81,304.33l36.31-30.7c6.89,9.38,11.88,19.62,13.16,28.61l-36.62,30.94C1126.43,324.53,1122.08,314.33,1114.81,304.33Z"/><path class="cls-17" d="M1118.69,359.08c-13.7,7.18-39-5.94-56.46-29.29s-20.54-48.14-6.84-55.32,39,5.93,56.46,29.29S1132.39,351.9,1118.69,359.08Z"/><path class="cls-17" d="M1107,294.9l36.33-30.64c1.59,1.69,3.14,3.45,4.62,5.26l-36.32,30.64C1110.1,298.32,1108.55,296.57,1107,294.9Z"/><path class="cls-21" d="M1047.2,286.72l7.93-6.8a8.54,8.54,0,0,1,1.66-1c28.32-14.85,85.54,54.43,61.45,76.38h0l-6.89,5.91Z"/><path class="cls-17" d="M1108.05,363.62c-12.68,6.66-36.1-5.5-52.29-27.13s-19-44.57-6.34-51.23,36.12,5.5,52.29,27.13S1120.73,357,1108.05,363.62Z"/><path class="cls-22" d="M1105.8,239.47,1068,271.74a41.62,41.62,0,0,1,16,5.27l39-31.44C1117.08,242.1,1111.23,239.88,1105.8,239.47Z"/><path class="cls-23" d="M1249.14,2083.82c-5-6.83-16-13.05-32.15-8.48l-106.08,40.38-8.51-5.28,110-68.18c23.12-11.59,32-21.62,24-28.59a43,43,0,0,0-36-5.6l-135.14,82.84-15-7.6,127.86-96.3c17.6-12.15-6.88-22-6.88-22s-20-8-38.5,3.79l-126.44,94.54c-1.81.75-19.51-5.18-19.51-5.18l72.89-88c8.6-7.16,5.52-17-6.89-22,0,0-26.42-8.26-38.5,3.8L889.52,2086.17s-10.29,6.21-24.38,14.3L860.42,2065c-1.45-19.43-13.77-28-36-26.5-38.38,2.06-23.05,37.83-23.05,37.83S799,2163,805,2170.63c5,6.32,3.75,13.69-3,19.43l-30.55,25.85,135.75,54.35,32.62-27.16c6.28-5.22,15.26-9.14,25.71-11.15,16.59-3.18,42-8.63,54.68-14.14,9.16-4,91.11-62.16,91.11-62.16l124.28-55.77C1246,2094.7,1252.12,2087.88,1249.14,2083.82Z"/><path class="cls-24" d="M824.81,2139.46l.12-.22c2.29-4.33,6.39-8.27,11.94-11.47l28.66-16.55c9.59-5.54,22.81-8.47,36.35-8.07l1.11,0c23.21.7,42.2,10.91,45,24.23l4.73,22.22c2,9.32-4.36,18.59-16.86,24.61l-13.73,6.6c-19,9.15-47,8.42-64.51-1.69l-20.91-12.08C824.23,2159.87,819.64,2149.24,824.81,2139.46Z"/><path class="cls-24" d="M1055.62,2143.33c-32.77-24.71-72.75-45.92-118.15-62.7-9.79-3.62-13.37-11.05-7.65-16.88l.21-.21c5.71-5.84,19.47-7.58,30.34-3.56,49.55,18.3,93.2,41.47,129,68.44,7.84,5.91,6,14-3.59,17.75l-.34.14C1075.82,2150.09,1062.7,2148.66,1055.62,2143.33Z"/><path class="cls-25" d="M1212.41,2042.26l-110,68.18,8.51,5.28,28.35-10.79,73.15-45.34c17.28-8.66,26.57-16.46,26.85-22.75h.06V2019h-.13C1239.39,2025.41,1230.14,2033.37,1212.41,2042.26Z"/><path class="cls-25" d="M986.79,2058.21s6,2,11.42,3.55l61.47-74.22c3.39-3.63,4.91-7,4.82-10.11h0l0-15.9c-.1,3-1.67,6-4.85,8.68Z"/><path class="cls-25" d="M801.08,2092.75c.15-9.75.33-16.47.33-16.47a43.78,43.78,0,0,1-3-14.19v17.79h0A44.33,44.33,0,0,0,801.08,2092.75Z"/><path class="cls-25" d="M805,2170.63c-3-3.76-3.89-26.67-4-49-.18,25.26.27,59.21,3.74,65.59C809,2182,809.23,2176,805,2170.63Z"/><path class="cls-25" d="M1178.12,1987l-127.86,96.3,13.77,7,114.09-85.92c4.38-3,6.16-5.91,6.34-8.53h0v-17.34C1184.28,1981.1,1182.51,1984,1178.12,1987Z"/><path class="cls-25" d="M1249.83,2085.74c.38,4.08-5.36,9.7-14.25,14.14l-124.28,55.77s-82,58.17-91.11,62.16c-12.64,5.51-38.09,11-54.68,14.14-10.44,2-19.43,5.93-25.71,11.15l-32.62,27.16-121.84-48.79-13.91,11.76,135.75,54.36,32.62-27.16c6.28-5.22,15.27-9.15,25.71-11.16,16.59-3.18,42-8.62,54.68-14.14,9.16-4,91.11-62.15,91.11-62.15l124.28-55.78c8.56-4.27,14.15-9.61,14.22-13.66h.09v-17.8Z"/><polygon class="cls-26" points="904.4 2294.61 762.01 2237.61 762.01 2220.27 904.4 2277.29 904.4 2294.61"/><polygon class="cls-27" points="904.4 2277.29 762.01 2220.27 768.62 2214.78 911 2271.8 904.4 2277.29"/><path class="cls-24" d="M1023.67,1996.09l-34.08-10.41,28.14-27.74c4.93-5.38,16.48-7.43,25.8-4.58l.34.1c9.31,2.84,12.87,9.51,7.94,14.89Z"/><path class="cls-24" d="M849.55,2085.62l-38.55.25-.09-29.09c-.12-6.09,8.33-11.08,18.87-11.15h.39c10.54-.06,19.18,4.82,19.29,10.9Z"/><path class="cls-24" d="M1132.82,2011.64l-30.91-13.31,34.31-23.77c6.3-4.88,18.26-5.88,26.71-2.24l.31.13c8.45,3.64,10.19,10.55,3.88,15.43Z"/><path class="cls-24" d="M1183.35,2052.35l-24.87-13.44,38-21.44c6.36-3.92,17-4.13,23.83-.45l.25.13c6.8,3.68,7.15,9.84.78,13.77Z"/><path class="cls-24" d="M1194,2109.94l-19.11-13.46,38.49-14.17c6.37-3,15.78-2.48,21,1.2l.19.14c5.23,3.68,4.29,9.11-2.09,12.12Z"/><polygon class="cls-28" points="911 2271.8 904.4 2277.29 904.4 2294.61 911 2289.12 911 2271.8"/><path class="cls-23" d="M1654.91,2264.94c1.22-7.37-3.38-15.87-21.32-16.28L1507,2255.08l-3.15-7,152.92-29.81c29.88-3.85,45.92-10.26,44.64-18.56,0,0-3.79-14.33-27-14.81l-187.09,35.81-7-10.81,191.76-49.64c25.49-5.88,12-21.22,12-21.22s-11-12.55-37-7.22l-189.08,48.5c-2.2.16-12.9-9.92-12.9-9.92L1581.71,2113c13.47-3.95,18.85-13.44,12-21.22,0,0-16.43-14.52-37-7.22l-220.19,83.78s-14.18,2.64-33.22,5.89l25.08-32.55c14.72-17.49,10.92-28.39-9.82-33.18-35.46-8.71-51.42,27-51.42,27s-73.53,75.62-74.5,84c-.81,6.93-8,13.07-18.66,16.26l-48.14,14.36,74.69,85.07,51.06-14.94a84.71,84.71,0,0,1,31.8-2.76c17.22,1.74,44.09,3.94,59.75,2.56,11.35-1,131.32-29.7,131.32-29.7l155.27-15C1643.17,2273.64,1654.18,2269.34,1654.91,2264.94Z"/><path class="cls-25" d="M1328.41,2141.68l-25.08,32.55c5.19-.88,10-1.72,14.26-2.47l10.82-14c6-7.2,8.8-13.22,8.7-18.21h.13v-14.73C1336.84,2129.51,1333.92,2135.13,1328.41,2141.68Z"/><path class="cls-25" d="M1581.71,2113l-136.56,57.43s10.7,10.08,12.9,9.92l4.22-1.08L1581.71,2129c9.61-2.81,15-8.45,14.88-14.28h.06v-16.21h-.06C1596.83,2104.43,1591.42,2110.16,1581.71,2113Z"/><path class="cls-25" d="M1672.1,2160.29l-191.76,49.64,7,10.81,50.62-9.69,134.16-34.73c12.8-3,15.78-8.29,15.56-12.88h0v-15.62h0C1687.66,2152.31,1684.53,2157.43,1672.1,2160.29Z"/><path class="cls-25" d="M1656.8,2218.3l-152.92,29.81,3.15,7,58.57-3,91.2-17.78c29.88-3.85,45.92-10.26,44.64-18.56V2200.4h-.07C1701.69,2208.38,1685.85,2214.55,1656.8,2218.3Z"/><path class="cls-25" d="M1654.91,2264.94c-.73,4.4-11.74,8.7-25.15,10.42l-155.27,15s-120,28.7-131.32,29.7c-15.66,1.38-42.53-.82-59.75-2.56a84.71,84.71,0,0,0-31.8,2.76l-51.06,14.94L1137,2262.8l-11.15,3.33,74.69,85.07,51.06-14.95a84.71,84.71,0,0,1,31.8-2.76c17.22,1.74,44.09,4,59.75,2.56,11.35-1,131.32-29.7,131.32-29.7l155.27-15c13.41-1.72,24.42-6,25.15-10.42a13.42,13.42,0,0,0,.12-1.91h0v-16.63h0A13.18,13.18,0,0,1,1654.91,2264.94Z"/><polygon class="cls-26" points="1192.33 2356.62 1113.98 2267.39 1113.98 2251.36 1192.33 2340.58 1192.33 2356.62"/><polygon class="cls-29" points="1192.33 2340.58 1113.98 2251.36 1124.32 2248.33 1202.66 2337.55 1192.33 2340.58"/><polygon class="cls-28" points="1202.66 2337.55 1192.33 2340.58 1192.33 2356.62 1202.66 2353.59 1202.66 2337.55"/><path class="cls-30" d="M2088.1,1263.5c-1.76-9.75,5.6-14.27,11.92-18,17.4-10.22,36.72-15.31,56.36-19.78,12.84-2.92,25.74-4.45,38.7-6,.57-.07,1.08-.62,1.62-1h8.13c2,1.1,4.19.26,6.27.52,2.64-.29,5.37.63,8-.52h5.08a13.28,13.28,0,0,0,8.13,0h11.18c5.67,2.36,11.81,2,17.71,2.86,9.16,1.33,17.38,5,25.66,8.68,3,1.33,5.68,3.44,6,7s2.43,3.64,5.2,3.6a271.24,271.24,0,0,1,48,3.19c8.65,1.41,16.35,4.9,23.91,9,2.46,1.33,4.38,3.2,4.7,6.21,1.24,3.84-.12,6.79-2.88,9.54a45.08,45.08,0,0,1-15.12,9.92c-24.53,9.93-50.18,14.83-76.32,17.65-2.36-.34-4.34.71-6.35,1.71-7.77,1.9-15.79,2.18-23.65,2.32-16.53.3-33.11,1.16-49.61-.8a61.72,61.72,0,0,1-9-1.47c-1.6-.51-2.88-1.87-4.72-1.78-6.68-1.16-13.2-2.85-19.37-6.7-.55,8.2.65,15.88,1.34,23.53,2.1,23.25,4.18,46.5,6.73,69.71,2.67,24.39,5.41,48.77,8.46,73.11,4.23,33.76,8.93,67.46,12.68,101.28,1.76,15.82,2.38,31.71-.8,47.54-4,19.69-14.29,34.46-32.54,43.3-5.92,2.87-11.61,6.28-18.2,7.62-3.14.63-6.19,1.8-8.33,1.42-1.82,0-1.06.88-1.25.23,0-.13.11-.2.46-.17a39.28,39.28,0,0,1,17.33,5.14c7.41,4.37,15,8.34,21.65,14,10,8.53,17.46,18.93,24.06,29.92a163.65,163.65,0,0,1,17.37,41.6c.52,1.91,1.51,3.85.43,5.9-5.72,3.38-12.24,2.45-18.34,2.89-11.44.82-22.92,1.82-34.45,1.32-19.11-.83-38.26-1.92-56.74-7.17-18-5.13-34.79-13-48.12-26.83-2.16-7.1.56-13.66,2.83-20,6.22-17.5,18-30.07,34.94-37.81.92-.43,1.81-.9,2.71-1.36,2.41-1.23,2.21-2.62.34-4.22-2.8-2.4-5.95-4.37-8.47-7.1a1.78,1.78,0,0,1,.73-1.42,53.71,53.71,0,0,1,13.14-6.52c14.67-5.19,29.07-11.09,43.72-16.33,5.75-2,10.82-5.54,15.81-9a11.51,11.51,0,0,0,4.83-8c1.41-9.2,2.38-18.43,3.06-27.73a339.27,339.27,0,0,0,.8-35.5c-.55-17.05-1.61-34.09-2.66-51.13-1.4-22.81-3.72-45.52-6.47-68.18-5.8-47.89-12.38-95.68-23.38-142.72-1.85-7.92-2.71-8.36-11.06-8.74-12.21-.56-24.31-1.67-35.37-7.7C2091.84,1268.8,2088.81,1267.33,2088.1,1263.5Z"/><path class="cls-31" d="M2219.06,1218.75c-2.52,2-5.45.59-8.16,1-.32-.24-.42-.46-.31-.68s.23-.32.34-.32Z"/><path class="cls-32" d="M2232.27,1218.75a7.59,7.59,0,0,1-8.13,0Z"/><path class="cls-33" d="M2210.93,1218.75c0,.33,0,.66,0,1-2-.34-4.31.9-6.07-1Z"/><path class="cls-34" d="M2190.61,1297c18.64,2.71,37.41,2.24,56.14,2,9.41-.14,18.8-1.26,28.2-1.94,1.31-1.64,3.79-.34,5.09-2a345.59,345.59,0,0,0,55.75-10.26c7.05-2,13.71-5.29,20.7-7.53,5.82-1.87,10.18-5.56,14.53-9.57,2.55-2.36,4-4.9,3.61-8.37,2.63,12.35,4.24,24.86,5.92,37.35q4.92,36.41,6.87,73.09a962.42,962.42,0,0,1,.66,96.84c-.72,15.37-1.9,30.68-3.13,46-2.11,26.43-5.12,52.83-4.31,79.42.21,7.09.69,14.16,1.05,21.25-3.34,2.86-7.77,3.16-11.66,4.59-11.2,4.15-18.52,12.35-24.15,22.14-12,20.8-16.43,43.82-18.73,67.37-.72,7.36-2.06,14.71-1.09,22.16-.47,1.48-1.75,2-3,2.42a355.84,355.84,0,0,1-58.55,14.87c-1.76-.18-3,1-4.48,1.64-12.77,3.28-25.87,4.47-38.87,6.31a4.19,4.19,0,0,1-4.14-1.32c-3.92-12.39-8-24.7-13.63-36.48a145.47,145.47,0,0,0-21.16-31.9,67.54,67.54,0,0,0-17.69-14.92c-9.92-5.63-19.66-11.88-31.72-12.21.74-1.6,2.23-1.08,3.28-1.52,1.21-.51,2.65-.41,4-.7a87.28,87.28,0,0,0,32.1-14.17c12.4-8.8,19.68-21.47,22.47-36.51a131.24,131.24,0,0,0,2.09-29.22c-.53-13-2.15-25.8-3.84-38.64-1.55-11.66-2.82-23.37-4.32-35-1.53-12-3.29-24-4.77-36-1.56-12.68-2.88-25.4-4.37-38.09-1.21-10.34-2.59-20.67-3.76-31-1.2-10.7-2.26-21.41-3.33-32.12-1.34-13.21-2.69-26.43-3.92-39.65-.83-9-1.48-18.12-2.18-27.19-.29-3.77-.47-7.56-.74-12,6.6,5.78,14.25,7.59,22.07,8.93C2188.32,1296.05,2189.82,1296,2190.61,1297Z"/><path class="cls-34" d="M2088.1,1263.5c6.3,6.6,14.47,9.31,23.07,11.17s17.39,1.62,26,2.84c2.79.39,3.8,1.67,4.35,3.93,4.56,18.63,8.32,37.43,11.42,56.35,2.69,16.41,5.4,32.82,7.79,49.28,2,14.13,3.74,28.32,5.42,42.5,1.75,14.85,3.35,29.72,4.93,44.59.44,4.18.81,8.41,1,12.57,1.43,28.65,4.27,57.27,3.1,86-.57,13.93-1.41,27.91-4.06,41.65-1.19,6.18-7,8.28-11.59,11.26-8.16,5.26-17.48,7.74-26.48,11-11.05,4-21.94,8.5-33,12.55-2.81,1-4.59,4.26-8.09,3.63-7-4.92-14.94-8.24-22.47-12.25-4.27-2.28-9.68-1.46-13.36-5.16,2.59-.65,5.17-1.4,7.79-2a79.4,79.4,0,0,0,31.84-14.72c13-9.85,19.3-23.92,21.53-39.85,2.66-18.94.73-37.77-1.58-56.59-2.55-20.78-5-41.56-7.55-62.33-2.2-17.93-4.58-35.83-6.68-53.77q-2.94-25.15-5.43-50.35-3.1-31-5.85-62C2089.37,1283.73,2088.81,1273.61,2088.1,1263.5Z"/><path class="cls-35" d="M2217,1753.4c13.37-.83,26.5-3.32,39.68-5.49,1.32-.22,2.64-.4,4-.59.91-.89,2.31-.93,3.2-1.85,21.14-3.68,41.94-8.65,62-16.27.88-1.43,2.4-1.88,3.84-2.24,11.21-2.78,21.25-8.55,32-12.44a45.42,45.42,0,0,0,10.61-5.84c2.12-1.48,4.11-3.67,7.19-3.06-.83,7.58-3,14.84-5.42,22-2.73,8.18-9.31,12-16.92,15.44-12.71,5.75-25.94,10.09-38.76,15.52-7.72,3.28-16.13,4.88-24.1,7.62a381.72,381.72,0,0,1-51.11,13.26c-3.29.64-6.63,1-10,1.5-.79,1-2.28,1-3.07,2-9.66,1.14-19.31,2.47-29,3.37-16.77,1.55-33.52,2.54-50.4,1-8.88-.8-17.82-1-26.46-3.28-15.82-4.11-32-7.3-46.18-16.16-1.43-.89-3-1.53-4.52-2.28-9.91-3.17-15.24-10.3-15.54-20.9-.11-4-.05-8-.05-12.07.19-3.21-1-6.66,1.58-9.47a119.28,119.28,0,0,0,45.27,25.46c14.07,4.28,28.68,5.86,43.35,7,20.47,1.63,40.83.32,61.21-1.24C2212,1754.27,2214.5,1753.76,2217,1753.4Z"/><path class="cls-30" d="M2056.2,1635.43c11.75,2,22,7.73,32.14,13.49a7.77,7.77,0,0,1,3.69,3.92c0,.32,0,.64,0,1-.37,1.52-1.68,2-2.88,2.61-11.68,5.95-22.21,13.41-30.84,23.4a57.69,57.69,0,0,0-13.74,31c-.65,5-1.52,10-.23,15.09a5.12,5.12,0,0,1-.81,4.37,4,4,0,0,1-3.38.6c-20.44-3.72-38.46-12.33-53.63-26.66a11.13,11.13,0,0,1-2-2.9,62.78,62.78,0,0,1,11.73-34.38c9.17-13,21.78-20.92,36.63-26.15A93.73,93.73,0,0,1,2056.2,1635.43Z"/><path class="cls-30" d="M2379.56,1705.62c-9.12,6.82-19.63,10.83-30,15.36a162.9,162.9,0,0,1-23.7,8.22c-2.06-.26-2.25-1.7-2.09-3.35,2.11-20.88,3.76-41.85,10.16-62,4.4-13.9,10.59-26.95,20.44-37.87a32.72,32.72,0,0,1,9.41-6.73c5.62-2.86,11.36-5.69,17.88-6,4.42,25.63,4.26,51.33.95,77C2382,1695.44,2381.35,1700.65,2379.56,1705.62Z"/><path class="cls-35" d="M1984.48,1701.33c7.4,5.2,13.54,12,21.85,16.1,11.79,5.85,23.75,10.93,36.89,12.73a3.33,3.33,0,0,1,1.12,1.18c1.68,10.61,5.58,20.71,7,31.38-8.21-.76-16.17-2.31-23.73-6-4.67-2.26-9.8-3.57-14.75-5.24-7.29-2.46-13.18-7.39-19.74-11.13-6-3.43-8.32-9.33-8.69-15.71C1984,1716.93,1984.42,1709.12,1984.48,1701.33Z"/><path class="cls-36" d="M2051.33,1762.72c-4.25-10.23-6.54-21-7.92-31.89,5.58-1.7,10.79-.42,15.86,2,.08,3.35.24,6.71.21,10.06-.07,9.73,3.63,17.2,12.64,21.59a9.7,9.7,0,0,1,1.55,1.21A103.91,103.91,0,0,1,2051.33,1762.72Z"/><path class="cls-37" d="M2230.22,1783c.13-2,1.59-2,3.07-2C2233.17,1783,2231.71,1783,2230.22,1783Z"/><path class="cls-38" d="M2059.27,1732.8l-15.86-2a2,2,0,0,0-.19-.67,68.07,68.07,0,0,1,2.88-31.78,54.47,54.47,0,0,1,9.53-17.57,93.93,93.93,0,0,1,36.39-27c5.19.93,7.92,5.32,11.54,8.4,1.23,1,.55,2.41-1.19,3-1.27.41-2.42,1.19-3.69,1.63-9,3.18-16.24,9.16-22.4,15.89a61.73,61.73,0,0,0-16.62,40.53Z"/><path class="cls-39" d="M2280,1295c-.68,3.25-3.3,1.6-5.09,2C2275.62,1293.78,2278.24,1295.43,2280,1295Z"/><path class="cls-40" d="M2190.61,1297c-1.49,0-3,0-3.06-2C2189,1295,2190.5,1295,2190.61,1297Z"/><path class="cls-41" d="M2263.84,1745.47c-.29,2-1.66,2-3.19,1.85C2260.93,1745.37,2262.31,1745.28,2263.84,1745.47Z"/><path class="cls-42" d="M0,1474.41c.35,0,.7,0,1,.09,13.16,6.63,26.12,13.61,39.52,19.81,39.32,18.18,79.44,34.38,120,49.56,42.75,16,86.14,30,130.62,40.5,13.6,3.21,27.56,4.66,41,8.73,12.17,3.69,23.78,8.36,33.62,16.74s14.81,19.26,15.54,32a174.31,174.31,0,0,1-1.09,27.3c-1.48,14.84-1.8,29.83-5.08,44.46-3.34,14.95-8.13,29.22-20,39.9-3.65,3.28-7.52,6.14-12.54,6.93-1.79,1.06-3.95.84-5.82,1.62-4.23.81-8.45,1.73-12.8,1.17-1.58-1.83-.51-3.72,0-5.5,10.83-37,.34-68.67-23.93-97.1-20.75-24.3-46.67-41.93-74.08-57.47-46.8-26.51-96.74-45.65-148-61.49-23.73-7.33-47.63-14-71.76-19.9A12.06,12.06,0,0,1,1.3,1520c-.43-.43-.86-.85-1.3-1.26Z"/><path class="cls-43" d="M1.08,1532.72c-.36,0-.72,0-1.08,0v-8.16a1.26,1.26,0,0,1,1.77.44C2.94,1527.67,3.3,1530.31,1.08,1532.72Z"/><path class="cls-44" d="M1.13,1524.54l-1.13,0v-5.82l1.11.08C2.41,1520.69,3,1522.61,1.13,1524.54Z"/><path class="cls-45" d="M1.13,1524.54c0-1.93,0-3.85,0-5.77,21.3,5.59,42.66,11,63.76,17.32,32.45,9.77,64.5,20.64,95.78,33.75,17.36,7.27,34.42,15.13,51.07,23.87,25.59,13.44,50,28.6,71.67,48,17,15.18,31.06,32.24,39.74,53.53,8.48,20.79,8.41,41.76,2.19,63-.49,1.67-.92,3.35-1.38,5-23.23.51-46.42.73-69.28-4.52-37.55-8.62-68.86-26.26-88.85-60.61a8.48,8.48,0,0,1-1.6-4.82c-1.44-1.77-2-4-3-6-7.33-17.92-13.64-36.27-23-53.29-4.41-8-9.16-15.74-16-21.94-8.7-7.84-16.62-7.61-24.9.74-6.72,6.78-10.38,15.33-13.69,24-3.58,9.41-6.12,19.16-9,28.8-13.48,5.21-25,1.17-35.1-8-16.12-14.51-23-34-28.4-54.17-6.18-23.18-9.14-46.88-10-70.85C1.09,1530,1.11,1527.27,1.13,1524.54Z"/><path class="cls-46" d="M341.49,1760c10.67-3.69,17.84-11.3,23.12-20.92,6.91-12.59,9.94-26.43,11.4-40.47,1.74-16.71,3.21-33.47,3.89-50.29.93-22.88-10.46-37.52-30.21-47.06-15.89-7.69-33.18-10-50.15-13.59-38.45-8-75.82-19.78-112.83-32.73C135.58,1537,85.36,1516.84,36.24,1494c-10.87-5.06-21.4-10.85-32.07-16.35-1.34-.69-2.92-1.26-3.13-3.13,10-15,25.25-21.15,42.07-24.51,7.37,17.83,23.3,26.37,38.8,35.07,11,6.15,22.13,12,34.05,16.27a4.74,4.74,0,0,1,3.13,2.4c9.75,5.69,20.52,8.92,31,12.66,70.38,25,142.85,42.28,215.67,58.31,17.93,4,36.25,6.3,53.68,12.53,2.08.74,4.59.31,6.9.42a10,10,0,0,0,3.28,3.25c12.67,8.93,17.5,21.73,18.12,36.65a117.84,117.84,0,0,1-2.31,26c-3.5,19.09-6.64,38.26-11.55,57.06-2.82,10.78-6.6,21.12-14.23,29.59-9.25,7.68-20.46,10.64-31.84,13.16a402.48,402.48,0,0,1-45.23,7.79C341.4,1761.57,341.14,1761.06,341.49,1760Z"/><path class="cls-47" d="M419.69,1740.24c-.2-.47-.7-1.18-.54-1.37,11.36-14,14.19-31.13,17.62-48,3.46-17,7.05-34,9-51.21,2.2-19.21-.71-37.34-19.06-48.93-1.71-1.09-2.23-1.85-.35-3.12,46.52-5.21,92.48-13,136.62-29.35a50.7,50.7,0,0,1,18.77-3.49c8.7.2,12.79,3.63,14.29,12.21.91,5.23.34,10.43-.63,15.62a88.91,88.91,0,0,1-12.61,32.27c-2.22,3.45-4.71,6.69-8.25,8.89-4.82,3-8.87,2-11.82-2.89-2.24-3.68-2.79-7.93-4-12.42-7.73,9.81-15.06,19.51-22.82,28.86-31.56,38-67.51,71.22-108.79,98.52C424.77,1737.46,422.19,1738.79,419.69,1740.24Z"/><path class="cls-48" d="M119.09,1503.73C95.08,1495,72.5,1483.66,53,1467c-5.05-4.28-9.9-9.46-9.84-17,19.39-4,39-6.83,58.59-9.17a554,554,0,0,1,88.93-3.65c32.73,1.4,65,5.75,95,19.8,20.81,9.74,35.37,26.12,44.65,47.1a39.92,39.92,0,0,1,2.86,21.68c-.87,6.47-4.84,11.67-9.73,12.56-6.18,1.13-10.42-2.17-13.74-6.84-4.2-5.91-6.61-12.79-8.9-19.51-9.07-26.55-27.75-37.28-55.21-36.67-28.85.63-56.41,7.07-83.82,15.15C147.47,1494.65,133.67,1500.43,119.09,1503.73Z"/><path class="cls-49" d="M74.56,1665.7c-1.18-3.15.37-6,1.13-8.88,3.11-11.79,6.81-23.38,12.67-34.16a49.38,49.38,0,0,1,8-11.32c8.32-8.48,17.1-8.86,26.1-1,7,6.07,11.91,13.71,16.29,21.71A313.38,313.38,0,0,1,162,1687.55c.52,1.2-.06,1.36-1.06,1.14-6.48-11.94-13.31-23.66-22.58-33.73-4.49-4.87-9.36-9.3-15.3-12.37-10.69-5.52-21.62-4.32-30.88,3.41a51,51,0,0,0-11.66,13.63C79.07,1662.22,77.38,1664.49,74.56,1665.7Z"/><path class="cls-50" d="M161,1688.69l1.06-1.14c1.47,1.64,1.62,3.77,2.17,5.76C162.11,1692.48,161.58,1690.56,161,1688.69Z"/><path class="cls-51" d="M341.49,1760l1.13,1.21c-1.8,1.31-3.85,1.07-5.88.9Z"/></g></g></svg>