<svg xmlns="http://www.w3.org/2000/svg" viewBox="0 0 354.49 383.19"><defs><style>.cls-1{fill:#ecf5fe;}.cls-2{fill:#57b4e5;}.cls-3{fill:#e4e4e4;}.cls-4{fill:#626c78;}.cls-5{fill:#f6f6f6;}</style></defs><g id="Слой_2" data-name="Слой 2"><g id="Layer_1" data-name="Layer 1"><path class="cls-1" d="M93.43,0H285.72c1.41,1.53,1.3,3.45,1.3,5.31q0,100.41,0,200.81a8.65,8.65,0,0,1-.86,4.72,3.45,3.45,0,0,1-3.42,1,106,106,0,0,0-17.08-1.13,4.63,4.63,0,0,1-3.45-1.14c-1.68-3.17-.78-6.6-1-9.92-.22-4.07-.47-4.38-4.6-4.52-1,0-2,0-3,0H33.77c-7.89,0-7.89,0-7.89,8,0,3,0,6,0,9,0,2.54,1.16,3.63,3.63,3.58,1.5,0,3,0,4.49,0H222.5c2.35,0,4.74-.28,7,.61,2,1.39.55,2.32-.55,3-1.86,1.25-3.88,2.25-5.78,3.45-7.62,4.81-14.71,10.27-20.43,17.34-1.4,1.73-2.84,3.51-5.24,4a38.23,38.23,0,0,1-7.09.3H34.52c-1.37,0-2.74,0-4.11,0-4.11.13-4.45.44-4.51,4.55s0,8,0,12c-.05,2.77,1,4.23,3.91,4.07,1.49-.08,3,0,4.49,0q71.78,0,143.57,0c2.46,0,5-.39,7.33.85,1.72,1.59.94,3.45.43,5.21A87.86,87.86,0,0,0,182,298.5a84.35,84.35,0,0,0,20.46,53.37A83.2,83.2,0,0,0,230,373.21a9.4,9.4,0,0,1,2.81,1.81c1,1,.61,1.73-.58,2.22a19.23,19.23,0,0,1-6,.47q-108.85,0-217.72,0c-8.07,0-8.52-.44-8.52-8.39q0-135.06,0-270.13c0-2.51-.76-5.31,1.56-7.38a30.63,30.63,0,0,1,5.58-.31q39.44,0,78.87,0c1.25,0,2.49,0,3.74-.1A2.18,2.18,0,0,0,92.16,89c0-1.37,0-2.74,0-4.11V6.79a20,20,0,0,1,.49-5.56A5,5,0,0,1,93.43,0Z"/><path class="cls-2" d="M285.73,211c10,2.68,19.77,6,28.44,11.84,28.14,18.94,41.91,45.48,40.17,79.3-2.08,40.26-33.66,74.16-73.68,80.08A86.41,86.41,0,0,1,237,377.52c-1.16-.43-2.36-.78-3.53-1.16-9.11-4.63-17.85-9.76-25.3-16.91a86.34,86.34,0,0,1-26.46-51.35c-2-13.93-.27-27.49,3.9-40.82-.22-2.17.67-4.08,1.47-6a92.61,92.61,0,0,1,8.47-15.16,11,11,0,0,1,3.27-2.94,93.33,93.33,0,0,1,31.51-25.49c.73-1.67,2.33-2.15,3.81-2.76a92.77,92.77,0,0,1,24.52-6.25,4.87,4.87,0,0,1,3.91.73A130.39,130.39,0,0,1,285.73,211Z"/><path class="cls-3" d="M143.71,167.63c-38.27,0-76.53,0-114.8.08-3.41,0-4.63-.87-4.39-4.37.3-4.21.07-8.47.07-12.71,0-6.19,0-6.19,6-6.19H153.27c34.9,0,69.8,0,104.7-.08,3.5,0,4.9.77,4.63,4.49-.32,4.34-.05,8.72-.08,13.09,0,6.3.67,5.69-5.51,5.69Z"/><path class="cls-3" d="M262.55,209.41a96.67,96.67,0,0,0-32.24,8.28c-1.41-1.22-3.11-.64-4.67-.64q-98.16-.06-196.32,0c-3.68,0-5.13-.76-4.81-4.7a107,107,0,0,0,0-14.21c-.19-3.53,1.17-4.44,4.55-4.43,33.9.1,67.81.06,101.71.06H257.56c5,0,5,0,5,5.12Q262.53,204.18,262.55,209.41Z"/><path class="cls-4" d="M2.11,92c.64-.76,1.24-1.56,1.93-2.26Q47.6,46.21,91.17,2.64c.7-.69,1.5-1.28,2.26-1.92q0,44.87.16,89.75c0,1.72-.43,2.27-2,2.3-.75,0-1.5,0-2.25,0q-41.68,0-83.39,0C4.69,92.76,3.23,93.22,2.11,92Z"/><path class="cls-3" d="M198.8,243.18a104.64,104.64,0,0,0-13.21,24.1c-1.31-1.45-3-.85-4.58-.85q-75.93,0-151.86.05c-3.5,0-4.9-.77-4.63-4.49.32-4.34.05-8.73.08-13.09,0-6.31-.67-5.69,5.52-5.69H193.93Z"/><path class="cls-3" d="M95.3,292.59c21.94,0,43.89.07,65.84-.07,3.31,0,4.36.87,4.18,4.19-.27,5.1-.23,10.23,0,15.33.13,3-.83,3.82-3.79,3.81-26.07-.11-52.13-.06-78.19-.06-18.34,0-36.67-.06-55,.06-3,0-3.92-.83-3.8-3.8.22-5.23.22-10.48,0-15.71-.12-3,.83-3.83,3.8-3.81C50.65,292.64,73,292.59,95.3,292.59Z"/><path class="cls-5" d="M199.61,296a68.13,68.13,0,1,1,136.26.76c-.11,37.56-30.83,67.82-68.72,67.7C229.81,364.31,199.53,333.63,199.61,296Z"/><path class="cls-2" d="M267.69,308.68c-1-.37-2.05-.66-3-1.08q-17.91-7.86-35.81-15.74c-2.23-1-4.17-2.13-4.11-4.91,0-2.61,1.85-3.78,4-4.72,12-5.26,24.07-10.52,36.06-15.87a6.91,6.91,0,0,1,6.05,0q18.13,8.06,36.33,16c2.09.92,3.56,2.24,3.53,4.73s-1.45,3.62-3.43,4.49q-18.44,8.09-36.87,16.19A27.47,27.47,0,0,1,267.69,308.68Z"/><path class="cls-2" d="M273.78,326.71a75.17,75.17,0,0,1-12.19,0,64.56,64.56,0,0,1-18.2-7c-4.76-2.67-6.58-6.67-6.47-11.92,0-1.81.46-2.17,2.16-1.4,7.17,3.22,14.45,6.23,21.57,9.56a15.83,15.83,0,0,0,14.12.06c7.05-3.26,14.24-6.23,21.3-9.47,2.18-1,2.44-.4,2.49,1.71.13,5.37-2.12,9.09-6.82,11.7A65.9,65.9,0,0,1,273.78,326.71Z"/></g></g></svg>