<svg xmlns="http://www.w3.org/2000/svg" viewBox="0 0 332.45 408.61"><defs><style>.cls-1{fill:#fdc957;}.cls-2{fill:#f3b437;}.cls-3{fill:#89c1fe;}.cls-4{fill:#549ffe;}.cls-5{fill:#cbd1da;}.cls-6{fill:#e49c1f;}.cls-7{fill:#e3e9f7;}.cls-8{fill:#338cee;}.cls-9{fill:#1c78d2;}.cls-10{fill:#2782e0;}.cls-11{fill:#5ea6fd;}.cls-12{fill:#3e4b5a;}.cls-13{fill:#3287e3;}.cls-14{fill:#ed5253;}.cls-15{fill:#fe6b6b;}</style></defs><g id="Слой_2" data-name="Слой 2"><g id="Layer_1" data-name="Layer 1"><path class="cls-1" d="M198.18,0c5.85,2.37,8.38,6.56,8.09,13-.35,8-.05,15.92-.09,23.89,0,7.09-4,11-11.05,11.22-3.53.13-7.13-.75-10.6.58-4,.89-8,.16-12,.32-3.84,0-7.68.06-11.52,0-6.51-.17-10.92-4.46-11.06-11-.19-8.87-.13-17.74,0-26.61C150,4.88,152.18,2.06,158.27,0Z"/><path class="cls-2" d="M158.27,0c-5.83,2.94-7.61,7.73-7.29,14.08.41,7.94.07,15.92.11,23.89,0,5.88,4.08,9.87,10,9.91,3.85,0,7.7,0,11.54,0a.93.93,0,0,1-.45,1.28c-8.11.89-16.22,1.8-24.26-.53-3.44,0-6.88-.06-10.32-.18C130.5,48.25,126.34,44,126.29,37c-.06-7.81.29-15.63-.11-23.42-.32-6.27,1.73-10.77,7.35-13.59Z"/><path class="cls-3" d="M184.54,77.33c15.67,2.22,31,5.59,45.62,12a197,197,0,0,1,22.32,11.41c7.34,2.43,13.11,7.14,18.34,12.64,24.68,20.87,42.82,46.28,53.14,77a159.94,159.94,0,0,1,8.13,62c-2.68,39.82-17.52,74.57-44.94,103.77-26.3,28-58.59,44.7-96.42,50.77a124.2,124.2,0,0,1-19,1.69c-12.56-.77-24.6-3.84-36.46-7.89a163.63,163.63,0,0,1-52.16-29.41,166.7,166.7,0,0,1-48.19-66,162.55,162.55,0,0,1-11.12-46.38A166.78,166.78,0,0,1,28,202.25,161.56,161.56,0,0,1,55.43,144.2C78.1,113.76,107.58,93,144.12,82.4a151.44,151.44,0,0,1,26.15-5.25c2.52,0,4.91-.84,7.37-1.24C180,75.91,182.42,76,184.54,77.33Z"/><path class="cls-4" d="M170.24,78.17a162,162,0,0,0-42.88,11.12,163.59,163.59,0,0,0-60.92,42.93,165.6,165.6,0,0,0-33,55.73,165.19,165.19,0,0,0,4.89,122.34A166.9,166.9,0,0,0,78.6,366a159.26,159.26,0,0,0,44.14,28.64,185.91,185.91,0,0,0,39.8,12.13c3.07.58,6.37,0,9.21,1.8q-67.5,1.79-117.5-43.59c-28.66-26-46.15-58.41-52.13-96.55-5.3-33.75-.71-66.35,14.24-97.35A172.1,172.1,0,0,1,60.9,114c5.46-5.75,11.43-10.79,19.09-13.4A167.2,167.2,0,0,1,147.91,77.3a5.92,5.92,0,0,1,3.56-1.54c6.55-.44,13.09-.82,19.62.19C173.19,77.59,170.94,77.59,170.24,78.17Z"/><path class="cls-5" d="M270.82,113.33c-6.16-4.15-11.85-9-18.34-12.64,2.86-.7,3.42-3.53,4.86-5.47,3.7-5,7.1-10.24,10.74-15.29,1.14-1.57,1.09-2.43-.61-3.45-1.93-1.15-3.67-2.6-5.51-3.9-5.54-3.93-6.51-8.84-2.71-14.42,1.94-2.85,3.93-5.67,6.09-8.35,4.23-5.26,8.64-5.9,14.28-2.18,2.44,1.61,4.76,3.37,7.14,5.06,1,1.31.46,2.49-.33,3.63a30.12,30.12,0,0,0-2.18,3.32c-2.37,4.62-1.57,8.38,2.53,11.54,7.37,5.67,15.11,10.81,22.55,16.37,1.43,1.06,3.31,1.92,3,4.25-.82,1.2-1.57,2.46-2.49,3.58-4,4.85-7.91,5.45-13.14,2-2-1.31-3.9-2.73-5.82-4.15-4-3-4-3-7,1.21C279.54,100.71,275.19,107,270.82,113.33Z"/><path class="cls-5" d="M44.17,91c-2.44,2.67-5.55,4.46-8.51,6.43-5.14,3.43-9.22,2.75-13.12-2.18-2.22-2.81-4.31-5.72-6.31-8.68-3.82-5.65-3.19-10,2.24-14.11,6.25-4.68,12.66-9.15,19-13.71,4-2.86,8-5.65,11.92-8.6C59.11,42.8,63,43.41,69.64,53.47c-.94,2.59-3.41,3.59-5.4,5-6.45,4.63-12.91,9.25-19.28,14s-6.87,8.1-2.45,14.75C43.27,88.36,44.67,89.29,44.17,91Z"/><path class="cls-6" d="M171.81,76.75a151.39,151.39,0,0,0-23.9.55q0-14.31,0-28.62l24.7,0a4.14,4.14,0,0,1,1.19,3.23c.13,7.35.19,14.69,0,22a4.75,4.75,0,0,1-.64,2.25A1.11,1.11,0,0,1,171.81,76.75Z"/><path class="cls-7" d="M312.36,91.8c-3.05-4.17-7.81-6.24-11.72-9.35-4.54-3.62-9.39-6.84-14.08-10.28-5.29-3.86-6.05-8.42-2.65-14,1-1.73,3.27-2.93,2.85-5.45q13.1,9.53,26.19,19.06c6.88,5,7.5,9.06,2.39,15.88C314.32,89,313.35,90.41,312.36,91.8Z"/><path class="cls-7" d="M44.17,91c-1.49-2.17-3.16-4.25-4.44-6.55-2-3.67-1.51-7.13,1.51-10.11,4.35-4.29,9.72-7.27,14.51-11,4.46-3.5,9.25-6.59,13.89-9.86,1,1.38,2.08,2.73,3,4.16,4.18,6.26,3.4,10.24-2.36,14.93-2.34,1.91-5.46,2.88-7.05,5.69A117.86,117.86,0,0,1,45.77,91Z"/><path class="cls-5" d="M45.77,91a88,88,0,0,1,17.49-12.7Q70.34,88.63,77.43,99a3.11,3.11,0,0,0,2.57,1.6c-6.78,3.88-12.75,8.92-19.1,13.4a4.44,4.44,0,0,0-1.2-3.25C55,104.18,50.41,97.56,45.77,91Z"/><path class="cls-2" d="M172.63,76.49q0-13.89,0-27.78c0-.26,0-.52,0-.79,4,.31,8-.81,11.9.77q0,14.31,0,28.64l-7.15-.5C175.79,77,174.15,77.49,172.63,76.49Z"/><path class="cls-8" d="M171.08,103.71a133.11,133.11,0,0,1,69.45,21.39q40.1,25.59,56.55,70.37a137.31,137.31,0,0,1,7.85,58.3,135.36,135.36,0,0,1-12.06,46.32,139.41,139.41,0,0,1-78.05,72.77A132.62,132.62,0,0,1,171,381.44c-5.88-.77-11.85-.55-17.71-1.85a141.78,141.78,0,0,1-60.51-29.72c-2-1.65-4.61-2.82-5.11-5.81a1.49,1.49,0,0,1,1.21-1.29c1.74-.08,3,1,4.26,1.92a123.64,123.64,0,0,0,59.73,22.78c22.49,2.29,44.22-.91,64.91-10.45,34-15.69,56.66-41.54,68.37-76.94a121.59,121.59,0,0,0,5.35-28.94,125.86,125.86,0,0,0-4-41c-4.52-17.85-13-33.62-24.72-47.79a125.79,125.79,0,0,0-128.72-41.18,117.43,117.43,0,0,0-41.51,19.79c-2.09,1.56-3.88,3.73-6.77,3.95-2.43-1.86-.09-3,.82-4a86.87,86.87,0,0,1,14.62-12.31,138.3,138.3,0,0,1,54.94-23.54,57.7,57.7,0,0,1,11.43-1.3C168.76,103.51,169.93,104.34,171.08,103.71Z"/><path class="cls-9" d="M167.83,104.54c-12.63.85-24.66,4.18-36.35,8.82A131.28,131.28,0,0,0,87.4,141.58c-.75.74-2.67,1.11-1.7,2.95.26,1.81-1.2,2.51-2.25,3.47-18.82,17.15-32.1,37.67-38.66,62.47a120.38,120.38,0,0,0-4.23,29.88c-.16,22.27,4.82,43.44,15.76,63.06,7,12.55,16.2,23.3,26.22,33.45,1.4,2.71,4.33,4.24,5.48,7.15,7.2,7.75,16,13.44,25,18.79a134.59,134.59,0,0,0,45.21,16.67c4.24.76,8.52,1.32,12.78,2a131.88,131.88,0,0,1-78.35-20.9C58.1,338.61,36.67,307.3,29.27,267.1c-5.83-31.66-1.07-62.2,14.48-90.52,16.94-30.87,42-52.74,75.26-64.87,14.18-5.17,28.78-8.23,44-8C164.63,103.72,166.57,102.17,167.83,104.54Z"/><path class="cls-10" d="M167.83,104.54c-1.42-1.44-3.26-.45-4.86-.83,2.7-1.21,5.4-.86,8.11,0C170.23,104.92,169,104.46,167.83,104.54Z"/><path class="cls-11" d="M172.63,76.49l4.76.34a22.09,22.09,0,0,1-7.15,1.34l1.57-1.42Z"/><path class="cls-12" d="M82.47,337.78c-15.08-13.83-26.76-30-34.27-49.15A122.54,122.54,0,0,1,39.51,244c-.1-24.24,5.9-47,18.79-67.68a123,123,0,0,1,26.4-30.58,7.48,7.48,0,0,0,1-1.22c8.4-6.05,16.83-12,26.29-16.44a128.46,128.46,0,0,1,44.75-11.76,122.53,122.53,0,0,1,68.43,14.15q41.88,22.32,59.33,66.72A121.36,121.36,0,0,1,293,245.09c-.75,28-9.49,53.43-27,75.49-21.19,26.67-48.64,42.76-82.47,47.36-34.07,4.63-65-3.49-92.77-23.81a18.27,18.27,0,0,0-1.71-1C86,342.31,84.39,339.86,82.47,337.78Z"/><path class="cls-13" d="M82.47,337.78l6.5,5.34L88,344C85.89,342.18,83.39,340.68,82.47,337.78Z"/><path class="cls-7" d="M110.38,157.22q9.78,3.08,9.54-7.1c-.81-1.58.21-2.55,1.26-3.35,9.88-7.47,20.06-14.38,32.3-17.49.64-.17,1.29-.32,1.93-.5,3.55-1,5.24,0,4.64,3.94a20.68,20.68,0,0,0,0,4.38c.26,4.3,2.62,7,6.15,7s6-2.64,6.28-6.86a52.23,52.23,0,0,0,0-6.38c-.11-1.94.59-2.53,2.53-2.37a116.33,116.33,0,0,1,41.27,11.18c1.49.71,1.57,1.39.77,2.68A70.09,70.09,0,0,0,213.3,149c-1.65,3.44-.73,6.6,2.2,8.31s6.09.84,8.34-2.22a18.48,18.48,0,0,0,1-1.7c3.9-6.58,3.92-6.61,10.25-1.93a114.55,114.55,0,0,1,25.55,26.67c1.07,1.53,1.23,2.3-.63,3.22a47.82,47.82,0,0,0-6.5,3.87c-2.87,2-3.68,4.85-2,8,1.56,3,4.85,4,8.24,2.34a62.8,62.8,0,0,0,6.58-3.73c1.5-1,2.13-.62,2.89,1a118.31,118.31,0,0,1,11.1,40.89c.19,2.16-.46,2.84-2.57,2.7a47.8,47.8,0,0,0-6.77,0c-3.73.3-6.23,2.77-6.33,6s2.35,5.85,6,6.25a41.87,41.87,0,0,0,7.17.11c2.25-.13,2.64.82,2.46,2.83a118.6,118.6,0,0,1-11,40.52c-1,2.19-1.92,1.86-3.5.87a49.82,49.82,0,0,0-6.25-3.5c-3.2-1.44-6-.75-8,2.28-1.74,2.68-1.05,6,1.8,8.08a35.54,35.54,0,0,0,5.81,3.47c2.23,1.07,2.78,1.94,1.12,4.28a122.73,122.73,0,0,1-29.21,29.16c-2.17,1.54-3,1.14-4-1a42.61,42.61,0,0,0-3.43-5.83c-2-2.89-4.84-3.7-8-2.12s-4,4.82-2.39,8.22c1.37,2.85,3,5.56,4.65,8.49a107.43,107.43,0,0,1-37.22,11.38c-2.58.28-5.83,2-7.62.31s-.43-5-.56-7.67c-.16-2.93-.82-5.55-3.74-6.94a5.67,5.67,0,0,0-6.34.83c-1.85,1.44-2.27,3.51-2.4,5.68-.07,1.06,0,2.13,0,3.19,0,5.93,0,5.93-5.73,4.66-12.56-3-22.91-10.13-33.14-17.51-1.12-.8-2-1.79-1.25-3.35.25-6.33-2-8.42-8.45-7.71-2.63.91-4-1.07-5.31-2.59A136.41,136.41,0,0,1,90.83,304,120.55,120.55,0,0,1,83.3,196.31a124,124,0,0,1,21.16-34C106.17,160.36,107.65,158,110.38,157.22Z"/><path class="cls-5" d="M110.38,157.22a180,180,0,0,0-15.72,19.93,117.58,117.58,0,0,0-16.13,37.4,116.23,116.23,0,0,0-3.26,33.09,123.84,123.84,0,0,0,9.34,41.6c5.17,12.49,12.63,23.56,21.31,33.83,1.49,1.75,2.87,3.92,5.52,4.32-3.09,2.14-4.47,5.52-6.22,8.61-.89,1.59-1.43,2.42-3.45,1a118.69,118.69,0,0,1-30-30c-1.15-1.66-1-2.36.72-3.23a51.42,51.42,0,0,0,6.17-3.63c3.12-2.16,3.93-5.5,2.26-8.33s-4.94-3.76-8.34-2.24a16.34,16.34,0,0,0-1.75.94c-6.74,3.82-6.77,3.84-9.77-3.08a118.59,118.59,0,0,1-8.89-35.35c-.29-2.77.66-3.46,3.21-3.32a37.87,37.87,0,0,0,7.14-.28,5.58,5.58,0,0,0,5.2-6,5.77,5.77,0,0,0-5.4-5.93,42.28,42.28,0,0,0-7.55-.16c-2,.08-2.84-.47-2.64-2.68a119.5,119.5,0,0,1,11.07-40.88c1-2,1.78-1.68,3.24-.77a60,60,0,0,0,6.62,3.64c3.17,1.44,6.38.42,7.87-2.45s1-5.77-1.71-7.77a58.73,58.73,0,0,0-6.79-4.16c-1.38-.75-2-1.31-.89-2.92a120.21,120.21,0,0,1,30.57-30.53c1.32-.91,2-.71,2.72.66A49.09,49.09,0,0,0,110.38,157.22Z"/><path class="cls-5" d="M119.89,335.1c1.27,3.6,4.9,4.58,7.55,6.57,8.17,6.15,17.53,10.21,26.84,14.29-13.51-.62-26-5-38.12-10.56-1.56-.71-1.38-1.52-.64-2.73C117,340.18,118.44,337.62,119.89,335.1Z"/><path class="cls-5" d="M153.48,129.28c-7.82,3.57-15.71,7-22.83,11.89-3.85,2.64-8.19,4.73-10.73,9L119,148.4c-1.39-2.54-4.44-5.69-3.78-7.46,1-2.61,5.14-3.2,8-4.33C133,132.81,142.89,129.59,153.48,129.28Z"/><path class="cls-12" d="M160.11,226.8c0-19.38-.1-38.76-.07-58.14,0-4.81,2.56-7.58,6.41-7.46,3.69.12,6,2.78,6,7.46,0,19.38,0,38.76-.07,58.14A35.66,35.66,0,0,1,160.11,226.8Z"/><path class="cls-14" d="M160.11,226.8a22.67,22.67,0,0,1,12.28,0c1.23,1.28,3.21,1.53,4.22,3.11.44,1.38-.54,2.26-1.2,3.21-4.25,6.16-4.32,12.33-.25,18.61.7,1.06,1.82,2,1.4,3.56-7.54,6.09-17.88,4.87-23.52-2.77A16.44,16.44,0,0,1,156.79,229C157.88,228.21,159,227.52,160.11,226.8Z"/><path class="cls-15" d="M176.56,255.28c-7.38-9.33-7.37-15.85.05-25.38C184.87,237.08,184.85,247.83,176.56,255.28Z"/></g></g></svg>