<svg xmlns="http://www.w3.org/2000/svg" viewBox="0 0 383.6 334.39"><defs><style>.cls-1{fill:#549ffe;}.cls-2{fill:#edeeed;}.cls-3{fill:#ee5261;}</style></defs><g id="Слой_2" data-name="Слой 2"><g id="Layer_1" data-name="Layer 1"><path class="cls-1" d="M0,318.35V16.05C2.68,4.53,8.29.06,20.58,0q81.18-.11,162.34,0H359.48a45.44,45.44,0,0,1,9.31.58c8.79,1.83,14.13,7.88,14.65,16.78.06,1,0,2,0,3,0,97.88-.14,195.77.15,293.66,0,14.87-10.23,20.29-20,20.33l-5.24,0H24.69c-1.5,0-3,0-4.49,0C8.26,334.2,2.66,329.75,0,318.35Z"/><path class="cls-2" d="M191.5,226.45q-86,0-172.07.09c-3.65,0-4.48-1-4.47-4.54q.16-98.77.08-197.53c0-6.27,1.08-7.34,7.46-7.34H360.66c6.3,0,7.38,1.1,7.38,7.43q0,98.76.09,197.52c0,3.71-1,4.46-4.56,4.45Q277.53,226.36,191.5,226.45Z"/><path class="cls-2" d="M95.74,269.82l195.6-.05q26,0,52,0c3,0,5.73.5,7.52,3.2a6.69,6.69,0,0,1-4.19,10.27,20.64,20.64,0,0,1-4.09.28H95.72a2.21,2.21,0,0,1-1.29-2.06,81.11,81.11,0,0,0,.12-9.86A2.12,2.12,0,0,1,95.74,269.82Z"/><path class="cls-3" d="M95.74,269.82a29.78,29.78,0,0,1,0,13.67c-3.23,7.51-8.34,13-16.63,14.61-11.15,2.22-20.34-3.14-25.42-14.63-3.94-4-4-10.33,0-13.64,6.19-17.13,27.45-20.13,38.19-6.77C93.5,265.12,94.45,267.56,95.74,269.82Z"/><path class="cls-2" d="M53.65,269.83a25.18,25.18,0,0,0,0,13.64c-4.84,0-9.69.09-14.52,0-5.11-.08-8-2.62-8-6.81s3-6.84,8-6.89S48.8,269.81,53.65,269.83Z"/><path class="cls-3" d="M159.5,120.54q0-19.83,0-39.65c0-6.83,2.69-8.45,8.52-5.15l70.25,39.8c2,1.16,4.33,2.15,4.24,5.12-.08,2.76-2.24,3.67-4.18,4.77q-35.28,20-70.57,40c-5.4,3.06-8.24,1.39-8.25-4.85C159.48,147.23,159.5,133.88,159.5,120.54Z"/><path class="cls-2" d="M86,276.79a11.36,11.36,0,1,1-11.34-11.53A11.46,11.46,0,0,1,86,276.79Z"/></g></g></svg>