<svg xmlns="http://www.w3.org/2000/svg" viewBox="0 0 383.6 334.39"><defs><style>.cls-1{fill:#549ffe;}.cls-2{fill:#edeeed;}.cls-3{fill:#ee5261;}</style></defs><g id="Слой_2" data-name="Слой 2"><g id="Layer_1" data-name="Layer 1"><path class="cls-1" d="M242.52,120.66c-.09,2.76-2.25,3.67-4.19,4.77q-35.28,20-70.56,40c-5.41,3.06-8.24,1.39-8.26-4.85,0-13.35,0-26.69,0-40s0-26.44,0-39.65c0-6.83,2.69-8.45,8.52-5.15q35.13,19.89,70.24,39.8C240.33,116.7,242.61,117.69,242.52,120.66Z"/><path class="cls-1" d="M383.45,20.37c0-1,.05-2,0-3-.51-8.9-5.86-15-14.65-16.78A45.39,45.39,0,0,0,359.48,0Q271.21,0,182.93,0,101.76,0,20.59,0C8.29.06,2.68,4.53,0,16.05v302.3c2.66,11.4,8.27,15.84,20.2,16,1.5,0,3,0,4.49,0H358.35l5.24,0c9.78,0,20.06-5.46,20-20.33C383.31,216.15,383.45,118.26,383.45,20.37ZM363.57,226.53q-86-.18-172.07-.08t-172.07.08c-3.65,0-4.48-1-4.47-4.54q.16-98.76.09-197.52c0-6.28,1.07-7.34,7.46-7.34H360.66c6.3,0,7.39,1.1,7.39,7.42q0,98.76.09,197.53C368.14,225.78,367.09,226.53,363.57,226.53Z"/><path class="cls-2" d="M242.52,120.66c-.09,2.76-2.25,3.67-4.19,4.77q-35.28,20-70.56,40c-5.41,3.06-8.24,1.39-8.26-4.85,0-13.35,0-26.69,0-40s0-26.44,0-39.65c0-6.83,2.69-8.45,8.52-5.15q35.13,19.89,70.24,39.8C240.33,116.7,242.61,117.69,242.52,120.66Z"/><path class="cls-2" d="M95.74,269.82l195.61-.05q26,0,52,0c3,0,5.73.49,7.53,3.2a6.7,6.7,0,0,1-4.19,10.27,20.74,20.74,0,0,1-4.1.27H95.73a2.23,2.23,0,0,1-1.3-2.07,81.09,81.09,0,0,0,.13-9.86A2.07,2.07,0,0,1,95.74,269.82Z"/><path class="cls-3" d="M95.74,269.82a29.78,29.78,0,0,1,0,13.67c-3.23,7.51-8.34,13-16.64,14.61-11.15,2.22-20.33-3.14-25.42-14.63-3.93-4-3.94-10.34,0-13.64,6.2-17.13,27.46-20.13,38.19-6.77C93.5,265.12,94.46,267.56,95.74,269.82Z"/><path class="cls-2" d="M53.65,269.83a25.28,25.28,0,0,0,0,13.64c-4.84,0-9.68.09-14.52,0-5.11-.08-8-2.62-8-6.82s3-6.83,8-6.88S48.81,269.81,53.65,269.83Z"/><path class="cls-3" d="M242.52,120.66c-.09,2.76-2.25,3.67-4.19,4.77q-35.28,20-70.56,40c-5.41,3.06-8.24,1.39-8.26-4.85,0-13.35,0-26.69,0-40s0-26.44,0-39.65c0-6.83,2.69-8.45,8.52-5.15q35.13,19.89,70.24,39.8C240.33,116.7,242.61,117.69,242.52,120.66Z"/><path class="cls-2" d="M86,276.79a11.36,11.36,0,1,1-11.34-11.53A11.56,11.56,0,0,1,86,276.79Z"/></g></g></svg>