<svg xmlns="http://www.w3.org/2000/svg" viewBox="0 0 383.09 260.63"><defs><style>.cls-1{fill:#b4d8f6;}.cls-2{fill:#cce3fa;}.cls-3{fill:#85bdf0;}.cls-4{fill:#4f95ca;}.cls-5{fill:#387eae;}.cls-6{fill:#569cd5;}</style></defs><g id="Слой_2" data-name="Слой 2"><g id="Слой_1-2" data-name="Слой 1"><path class="cls-1" d="M185.74,259.94c-1.2,1-2.62.61-4,.61-47,0-93.93.24-140.89-.17-10-.09-20.12-.32-30.17-.63-5.46-.17-8-4.32-10.72-8.23V9.82C2.18,5.3,5,1.47,10.46.82,13,.22,13.41,2,13.72,3.76a30.91,30.91,0,0,1,.18,5.61q0,106.8-.06,213.6c0,9.6,4.73,15.92,12.35,20.75a14.56,14.56,0,0,0,2.36,1.12c6,2.34,6.93,1.75,6.93-4.58,0-9.85-.06-19.7.07-29.55,0-1.72-.82-4.12,2-4.76a5.58,5.58,0,0,1,1,3.87c0,12.63.16,25.26-.06,37.89a53.66,53.66,0,0,1,.07,6.71c-.14,3.09,1.29,4.3,4.25,4.13,1.37-.07,2.74,0,4.11,0H176.2c2.36,0,4.73-.07,7.09.12a5.11,5.11,0,0,1,1.4.33A2.28,2.28,0,0,1,185.74,259.94Z"/><path class="cls-2" d="M37.32,205.86c-1.13,1.29-.66,2.86-.67,4.3,0,11.35-.09,22.69,0,34,0,3-.54,3.78-3.82,3.07-12.48-2.71-20.15-11.77-20.15-24.46q0-108.45,0-216.91c0-1.88,1.09-4.51-2.21-5.07,2.27-1.35,4.53.1,6.8.1q99.5-.16,199-.09c1.22,1.16,1.2,2.71,1.2,4.19,0,41.74.16,83.49-.07,125.23.23,13.32.07,26.64.09,40q0,35.49,0,71c0,2.21.36,4.51-1,6.54a3.22,3.22,0,0,1-2.33,1.05c-9.31.16-18.63.72-27.92-.29-2.18-1.27-1.68-3.45-1.69-5.36-.07-10.47,0-21-.05-31.42-.07-9.53-3.73-17.18-12.07-22.22a42.53,42.53,0,0,0-8.62-3.59c-10.18-3.37-20.33-6.81-30.51-10.18-4.52-1.5-4.84-2-4.89-6.66,0-4.48.14-9-.06-13.46a9.57,9.57,0,0,1,4.32-8.91c7.44-5.32,11.68-12.77,13.81-21.54a29.42,29.42,0,0,0,.63-7.06c0-7.35-.39-14.73.08-22.06.85-13.37-7.49-25.54-23.38-26.49-9.43-.57-18.94-1-28.35.44A23.5,23.5,0,0,0,75.16,93.23c-.14,8.47-.21,17,0,25.43.32,11.71,5.46,21.12,14.8,28.08a8.61,8.61,0,0,1,3.9,7.87c-.16,5-.15,10,0,15,.09,3.4-1.32,5.26-4.54,6.3-10.32,3.34-20.53,7-30.9,10.19-9.43,2.88-16.52,8-19.62,17.71A3.4,3.4,0,0,1,37.32,205.86Z"/><path class="cls-3" d="M216.36,130.38q-.06-43.3-.1-86.61,0-21.47,0-42.94h0c1.05-.6,2.2-.34,3.3-.34q75.27,0,150.54,0a7,7,0,0,1,3.31.3c6.32,2.21,9.68,6.05,9.69,11.78q0,58.9-.06,117.8a5.16,5.16,0,0,1-3.83,1.1q-17.82.09-35.64,0a8.26,8.26,0,0,1-3.27-.53c-1.84-1.1-1.58-3-1.6-4.67-.09-5.23,0-10.46-.05-15.69-.08-8.44-4-14.13-11.88-17.21a148,148,0,0,0-14.32-4.24c-3.16-.88-4.41-2.7-4.5-5.91-.12-4.23.3-8.1,3.13-11.57a14,14,0,0,0,2.89-9.1c0-5.73.06-11.46,0-17.19-.07-4.7-1.83-6.56-6.57-6.71-5.48-.19-11-.25-16.44,0-7.22.35-11.39,4.85-11.47,12,0,3,.14,6,0,9a20.36,20.36,0,0,0,4.38,14.61c2.84,3.59,1.89,8.08,1,12.23-.34,1.59-2.06,2-3.51,2.47-4.87,1.52-9.85,2.7-14.68,4.36-7.45,2.57-11.79,8.52-11.87,16.34-.06,5.48,0,11,0,16.44,0,1.69.26,3.56-1.47,4.76a10,10,0,0,1-4.39.63q-13.77,0-27.55,0C219.6,131.48,217.8,131.67,216.36,130.38Z"/><path class="cls-4" d="M216.36,130.38l37.1-.14c1.61-1.21,3.5-1.16,5.36-1.16q37.85,0,75.68,0c1.86,0,3.76-.09,5.34,1.19l43.19.1,0,117.42c-1.54,1.43-3.47,1.14-5.3,1.15-9.91,0-19.82,0-29.74,0-6.18,0-6.17,0-6.32,6.06,0,1.59.12,3.25-1,4.63-2.15.2-1.85-1.6-2-2.73a59.37,59.37,0,0,1-.06-8.54c0-3,.07-6,0-9A17,17,0,0,0,326.71,223c-4.84-1.63-9.79-2.93-14.72-4.28-2.68-.72-3.93-2.21-4-5-.12-4.54-.08-8.86,3.27-12.61,2-2.24,2.64-5.35,2.68-8.41.09-5.86.13-11.72,0-17.58-.11-4.74-1.72-6.28-6.38-6.33-5.61-.06-11.22-.08-16.83,0-7.16.11-11.09,4-11.27,11.13-.08,3.24.12,6.49-.05,9.73a19.85,19.85,0,0,0,4.11,14c2.89,3.68,2,8.07,1.54,12.26-.23,1.9-2.05,2.35-3.62,2.8-4.31,1.25-8.64,2.44-12.94,3.73-9.51,2.84-13.74,8.53-13.76,18.34,0,2.49,0,5,0,7.49a68.24,68.24,0,0,1,0,8.09c-.08,1.36.18,3.08-1.84,3.5-1.65-1.91-1-4.24-1.12-6.41-.16-4.17-.35-4.47-4.46-4.5-8.3,0-16.6,0-24.9,0a19.09,19.09,0,0,1-5.17-.35,2.55,2.55,0,0,1-1.14-.77c0-5.73.13-11.46.14-17.19Q216.32,180.51,216.36,130.38Z"/><path class="cls-3" d="M339.65,247.75c.63,3.92-.89,8,.81,11.85a6.44,6.44,0,0,1,4.26-1c7.82,0,15.64-.05,23.46,0,1.59,0,3.28-.11,4.5,1.28-1.47,1-3.14.59-4.72.57-35.38-.52-70.77-.91-106.14-.43q-20.73.28-41.46.43c-1.45,0-3,.44-4.33-.61l.53-.52a8.47,8.47,0,0,1,4.33-.72q13.71,0,27.41,0c1.6,0,3.24-.07,4.62,1,1.59-3.84.21-7.85.74-11.75,1.43-1.28,3.21-1.22,4.94-1.22q38.06,0,76.1,0C336.42,246.58,338.22,246.43,339.65,247.75Z"/><path class="cls-5" d="M372.68,259.85l-32.22-.25a68,68,0,0,0,0-7.82c-.38-3.45,1.08-4.11,4.23-4.07,12.79.17,25.57.08,38.36.08C382.72,254.33,379.31,258.31,372.68,259.85Z"/><path class="cls-1" d="M185.64,247.77l30.48,0,.29-.07a16,16,0,0,1,0,12,1.8,1.8,0,0,0-.4.1l-30.29.13-.26-.28C184.12,255.68,183.75,251.71,185.64,247.77Z"/><path class="cls-2" d="M373.4.79,216.25.83c1.1-1.24,2.57-.72,3.87-.73q74.69,0,149.37,0C370.81.1,372.26-.35,373.4.79Z"/><path class="cls-4" d="M185.64,247.77q-.07,5.94-.16,11.89l-.32,0-.32,0c-1.75-2-1.19-4.5-1.2-6.81,0-2.66-1.08-3.93-3.78-3.84-1.37.05-2.74,0-4.11,0Q110,249,44.18,249c-2.33,0-4.78.45-6.83-1.21l0-41.91c2.22-10.33,8.49-16.84,18.51-20.06,11.38-3.64,22.67-7.57,34-11.25,2.09-.67,3-1.54,2.93-3.88-.18-6-.15-12,0-17.95a4.44,4.44,0,0,0-2.32-4.2C79.6,140.88,74.16,130.34,74.12,117q0-11,0-22.07c0-15,8.86-25.26,23.82-26.36a156.66,156.66,0,0,1,29.13.27c11.65,1.34,21,11.36,21.06,23.05.08,10.95,1.08,22-.6,32.85-1.54,9.95-6.93,17.78-15.19,23.5a5.48,5.48,0,0,0-2.73,5.21c.16,5.61.17,11.23,0,16.84-.07,2.39.7,3.47,3,4.21,11.26,3.6,22.46,7.38,33.68,11.14,13.07,4.39,19.12,12.82,19.16,26.56C185.51,224.09,185.59,235.93,185.64,247.77Z"/><path class="cls-5" d="M37.35,247.77q71.47,0,143-.07c3.53,0,5,.82,4.57,4.5a66.27,66.27,0,0,0,0,7.46c-1.23.07-2.47.21-3.71.21-46.44,0-92.88,0-139.32.1-3.83,0-5.13-1-4.66-4.75A68.44,68.44,0,0,0,37.35,247.77Z"/><path class="cls-6" d="M95.74,43.64c-7,0-13.94,0-20.9,0-4.31,0-6.84-2.43-6.77-6.18s2.55-5.94,6.67-6q21.09-.08,42.17,0c4.08,0,6.56,2.42,6.58,6s-2.44,6-6.48,6.08C109.92,43.7,102.83,43.64,95.74,43.64Z"/><path class="cls-6" d="M37,25.4A12.07,12.07,0,0,1,49.39,37.53,12.62,12.62,0,0,1,37.16,50.08c-6.54.08-12.39-5.74-12.45-12.39A12.1,12.1,0,0,1,37,25.4Z"/><path class="cls-5" d="M339.84,130.27l-86.38,0c0-7,0-14,.12-20.94a17.55,17.55,0,0,1,12.35-16.92c5.2-1.7,10.47-3.22,15.77-4.59,1.93-.5,2.66-1.32,2.65-3.3,0-4.44.43-8.8-3.27-12.43-2.25-2.22-2.83-5.46-2.8-8.69,0-4.49-.06-9,0-13.47.09-6.92,4.94-12.07,11.91-12.31,6.1-.21,12.22-.15,18.33,0,4.38.11,6.5,2.46,6.54,6.93.05,5.74-.11,11.48.05,17.21a17.87,17.87,0,0,1-4.34,12.41c-3.21,3.8-1.31,8.08-1.53,12.15-.06,1.13,1.38,1.17,2.34,1.44,4.9,1.41,9.82,2.77,14.67,4.33,8.8,2.81,13.47,9.25,13.52,18.39C339.81,117.05,339.82,123.66,339.84,130.27Z"/><path class="cls-1" d="M339.65,247.75l-86,.05c0-3-.18-6-.1-9a17.55,17.55,0,0,1,12.23-16.61c5.18-1.72,10.49-3.11,15.77-4.55,1.92-.52,2.84-1.31,2.83-3.56,0-4.49.18-8.77-3.42-12.44-2.05-2.09-2.72-5.26-2.71-8.36,0-4.74-.12-9.47,0-14.2a11.44,11.44,0,0,1,11.36-11.51c6.35-.18,12.71-.13,19.07,0,4,.05,6.29,2.25,6.34,6.22.1,6.61.1,13.21,0,19.82a13.78,13.78,0,0,1-3.74,9.54c-3.85,3.88-1.74,8.46-2.12,12.73-.14,1.52,1.58,1.39,2.54,1.68,4.52,1.38,9.09,2.56,13.62,3.93,9.88,3,14.46,9.19,14.48,19.53C339.79,243.26,339.7,245.51,339.65,247.75Z"/><path class="cls-5" d="M216.43,259.71q0-6,0-12c10.78,0,21.55.18,32.32-.05,3.57-.07,4.55,1.13,4.23,4.43-.23,2.46,0,4.95,0,7.43Z"/></g></g></svg>