<svg xmlns="http://www.w3.org/2000/svg" viewBox="0 0 383.19 332.18"><defs><style>.cls-1{fill:#277bd5;}.cls-2{fill:#3e84ca;}.cls-3{fill:#84c1f3;}.cls-4{fill:#e6effa;}.cls-5{fill:#fefefe;}</style></defs><g id="Слой_2" data-name="Слой 2"><g id="Слой_1-2" data-name="Слой 1"><path class="cls-1" d="M344.06,291.53c13.22-9.24,32.34-2.64,37.75,13,.42,1.23.13,2.76,1.38,3.68v11.22a3.18,3.18,0,0,1-2,.92c-7.31.07-14.67.94-21.9-.67A20,20,0,0,1,344,300.83,74,74,0,0,1,344.06,291.53Z"/><path class="cls-2" d="M344.06,291.53c1.95,2.42.91,5.27.9,7.88,0,8.69,4.18,14.53,11.68,18.27a18.48,18.48,0,0,0,8.28,1.7c6.09,0,12.18,0,18.27,0v3c-3.08,7.39-8.69,10.16-16.55,9.75-6.94-.37-13.92,0-20.88-.09-8.27-.07-13.23-5.28-13.62-13.5-.48-10.05,1.37-19.06,9.72-25.68A20.49,20.49,0,0,1,344.06,291.53Z"/><path class="cls-1" d="M149.83,15.66C174.18-6.28,212.91-5,236.63,18.51c23.43,23.22,25.21,62.2,3.94,86.18-8.22,7.48-18.23,11.17-28.94,12.67-18.07,2.53-34.54-1.89-49.13-13C137.25,85.29,130,48.47,145.93,21.12,147.07,19.17,148.74,17.63,149.83,15.66Z"/><path class="cls-3" d="M110,178.73h70c4.95,0,4.95,0,4.95-5.12,0-6.24-.12-12.47,0-18.7.16-6.49,5-9.81,10.06-7,2.91,1.62,3.26,4.58,3.31,7.44.12,6.36.23,12.73,0,19.07-.14,3.44.89,4.39,4.36,4.39q70.7-.18,141.39-.07c7.17,0,13,2.76,17,9a16.64,16.64,0,0,1,2.78,9.52c-.15,6.35,0,12.72-.05,19.07,0,4.43-2.13,7.07-5.79,7.28s-6.51-2.71-6.9-6.91c-.08-.86,0-1.74,0-2.62,0-5.23,0-10.47,0-15.71,0-4.42-2.13-6.81-6.6-6.83-20.32-.1-40.65,0-61-.09-2.53,0-2.8,1.22-2.78,3.24.07,7.36.05,14.72,0,22.07,0,4-1.92,6.56-5.47,6.75-3.32.19-5.65-1.4-6.59-4.83a17.61,17.61,0,0,1-.67-4.77c0-6.49,0-13,0-19.45,0-1.92-.35-3-2.64-3q-32.18.09-64.34,0c-2.25,0-2.7,1-2.68,3,.07,6.74.06,13.47,0,20.2,0,2.79-.42,5.6-2.81,7.38-1.92,1.44-4,2.15-6.58.8-3.18-1.67-3.9-4.47-4-7.46-.18-6.6-.19-13.22,0-19.82.09-3-.59-4.13-3.86-4.1q-31.05.21-62.09,0c-3,0-3.86.89-3.77,3.82.19,6.48.15,13,0,19.45-.07,3.11-.46,6.22-3.79,7.92-4.44,2.27-8.79-.18-8.86-5.21-.11-7.36-.13-14.72,0-22.07.06-3-1-3.9-3.93-3.89-19.7.09-39.4,0-59.1.07-5.32,0-7.34,2.2-7.35,7.62,0,5.61.1,11.22,0,16.83-.15,6.22-5.13,9.27-10.08,6.4a5.15,5.15,0,0,1-2.61-5c0-7.23-.12-14.47,0-21.7.19-9.25,9-16.89,19.37-16.9Q74.49,178.7,110,178.73Z"/><path class="cls-2" d="M149.83,15.66c.55,1.47-.7,2.19-1.3,3.18C136.93,38,134.85,58,143.9,78.61c9.53,21.73,26.58,34.27,49.85,37.87,15.79,2.44,30.49-1.51,43.93-10.13.93-.6,1.92-1.11,2.89-1.66a60.71,60.71,0,0,1-39.35,22.24c-34,4.94-65-16.31-71.92-50C124.33,52.93,131.51,32.26,149.83,15.66Z"/><path class="cls-1" d="M11.91,291.59c7.89-5.26,16.24-5.74,24.66-1.74s13.33,10.92,14.36,20.27a82.06,82.06,0,0,1,0,9.28,2.8,2.8,0,0,1-1.64.84c-7.69.12-15.45,1.2-23-.91A19.93,19.93,0,0,1,11.89,302,51.31,51.31,0,0,1,11.91,291.59Z"/><path class="cls-1" d="M94.94,291.57c8-5.34,16.49-5.71,25-1.54S133.05,301.16,134,310.5a85.45,85.45,0,0,1,0,8.91,2.71,2.71,0,0,1-1.63.83c-7.45.16-15,1.13-22.31-.73a19.93,19.93,0,0,1-15.19-19A55.71,55.71,0,0,1,94.94,291.57Z"/><path class="cls-1" d="M178,291.55c8.09-5.34,16.6-5.73,25.11-1.43s13.1,11.29,13.95,20.71c.25,2.83,0,5.72,0,8.58a2.62,2.62,0,0,1-1.63.84c-7.33.15-14.72,1.09-22-.66a20,20,0,0,1-15.56-19.83A57.7,57.7,0,0,1,178,291.55Z"/><path class="cls-1" d="M261,291.56c7.93-5.4,16.35-5.66,24.74-1.59,8.59,4.15,13.39,11.32,14.28,20.86a81.87,81.87,0,0,1,0,8.58,2.54,2.54,0,0,1-1.63.84c-7.33.15-14.71,1.09-21.94-.66a20,20,0,0,1-15.54-19.83A56.13,56.13,0,0,1,261,291.56Z"/><path class="cls-2" d="M261,291.56c1.73,1.65,1,3.82.87,5.66-1.3,13.15,9,23,22.43,22.22,5.21-.31,10.46,0,15.69,0-.27,7.22-5.28,12.44-12.53,12.6q-12.87.27-25.76,0a12.48,12.48,0,0,1-12.53-12.64c-.07-5.2-.54-10.46,1.56-15.47C252.94,298.72,256,294.34,261,291.56Z"/><path class="cls-2" d="M94.94,291.57c1.78,1.78,1,4.06.86,6-.89,12.63,8.48,22.3,21.72,21.82,5.48-.2,11,0,16.45,0-.12,7-5.08,12.39-12.07,12.57-8.83.23-17.67.25-26.49,0-7.14-.2-12-5.72-12.31-12.91-.4-8.83.56-17.18,7.19-23.83C91.69,293.82,93,292.32,94.94,291.57Z"/><path class="cls-2" d="M11.91,291.59c1.75,1.8,1,4.07.84,6-.87,12.59,8.47,22.28,21.75,21.79,5.48-.2,11,0,16.45,0-.11,7-5,12.39-12.05,12.58q-13.23.36-26.48,0c-7.13-.2-12-5.71-12.34-12.9-.4-8.82.57-17.17,7.18-23.83C8.66,293.84,10,292.34,11.91,291.59Z"/><path class="cls-2" d="M178,291.55c1.69,1.52,1.06,3.56.88,5.28-1.39,13.81,9.21,23.51,22.81,22.61,5.09-.33,10.22,0,15.33,0-.2,7-5.08,12.36-12.12,12.56-8.82.26-17.66.24-26.49,0-6.93-.17-11.89-5.65-12.26-12.58-.49-9.24.56-17.93,7.72-24.73C175.1,293.48,176.26,292.14,178,291.55Z"/><path class="cls-1" d="M178.92,255.21a12.73,12.73,0,1,1,12.64,13A12.78,12.78,0,0,1,178.92,255.21Z"/><path class="cls-1" d="M95.88,255.28a12.74,12.74,0,1,1,25.47.4,12.74,12.74,0,0,1-25.47-.4Z"/><path class="cls-1" d="M261.94,255.46a12.73,12.73,0,1,1,12.87,12.72A12.76,12.76,0,0,1,261.94,255.46Z"/><path class="cls-1" d="M38.32,255.24a12.74,12.74,0,0,1-12.63,12.94,12.82,12.82,0,0,1-.31-25.63A12.88,12.88,0,0,1,38.32,255.24Z"/><path class="cls-1" d="M345,255.52a12.88,12.88,0,0,1,12.65-13,13,13,0,0,1,12.82,12.89,12.9,12.9,0,0,1-12.55,12.74A12.75,12.75,0,0,1,345,255.52Z"/><path class="cls-4" d="M214.07,57.55a6.2,6.2,0,0,1,4.57,6.1c.1,3.13-1.53,5.05-4.15,6.49-10.35,5.7-20.79,11.25-30.92,17.31-6.29,3.76-11.88-.61-11.58-6.75.56-11,.22-22.15.13-33.22,0-3.3.28-6.28,3.55-8s6-.53,8.6,1.47c.37,6.85,0,13.7.15,20.55s3.84,9.13,10.06,5.88c4.52-2.37,9-4.92,13.42-7.4C209.84,58.93,211.68,57.52,214.07,57.55Z"/><path class="cls-5" d="M214.07,57.55c-7,4-13.9,8.1-21,11.79-4.8,2.49-9.59-.84-9.61-6.29q0-9.33,0-18.64c0-1.19-.37-2.53.85-3.44C194.33,46.28,204.32,51.69,214.07,57.55Z"/></g></g></svg>