<svg xmlns="http://www.w3.org/2000/svg" viewBox="0 0 383.15 383.15"><defs><style>.cls-1{fill:#b4daf6;}.cls-2{fill:#579fd5;}.cls-3{fill:#3d91ca;}.cls-4{fill:#6fb4ee;}.cls-5{fill:#87c1f0;}.cls-6{fill:#86c0f0;}</style></defs><g id="Слой_2" data-name="Слой 2"><g id="Слой_1-2" data-name="Слой 1"><path class="cls-1" d="M193.84,0c2.82,1.89,3.87,4.42,3.83,7.89-.15,15.55-.26,31.12.06,46.67.09,4.5-3.64,7.4-6.31,7.24s-6-2.94-5.94-7.24c.29-15.56.2-31.12.05-46.67,0-3.47,1-6,3.82-7.89Z"/><path class="cls-1" d="M383.15,193.8c-1.88,2.81-4.42,3.86-7.88,3.83-15.56-.16-31.12-.27-46.67.06-4.54.09-7.41-3.66-7.25-6.32a6.88,6.88,0,0,1,7.25-5.94c15.55.29,31.11.2,46.67,0,3.46,0,6,1,7.88,3.83Z"/><path class="cls-2" d="M160.17,129.46c3.25-.46,6.13.65,8.88,2.18q41.05,22.79,82.09,45.62a13.44,13.44,0,0,1,5.57,5.31c-6.61,4.46-13.78,7.94-20.72,11.81-12.94,7.21-25.93,14.33-38.83,21.61-13.46,7.59-28.73,3.12-35.19-10.33a20.58,20.58,0,0,1-2.09-9c-.07-21.79.11-43.58-.09-65.37A3.67,3.67,0,0,1,160.17,129.46Z"/><path class="cls-3" d="M160.17,129.46c.93,1.47.74,3.12.74,4.73,0,20.33.05,40.65,0,61,0,9,3.7,15.86,11.43,20.38,8.06,4.7,16.25,4,24.18-.33,15.15-8.31,30.22-16.79,45.31-25.21,3.26-1.81,6.46-3.72,9.73-5.52,1.62-.9,3.16-2.07,5.17-1.92,5.56,8.69,3,18.57-6.42,23.79Q213.75,226.73,177.14,247c-2.93,1.63-5.82,3.37-8.82,4.87-11.32,5.64-23.93-1.62-24-14.19-.2-30.79-.15-61.58,0-92.37A15.54,15.54,0,0,1,160.17,129.46Z"/><path class="cls-4" d="M61.45,199.11c-.47,2.9-2.36,4.24-5.1,4.6a33.07,33.07,0,0,1-4.08.37q-21.5,0-43,0c-7.32,0-9.23-2-9.23-9.35,0-3.11-.13-6.24.05-9.34s1.63-5.45,5.09-5.88c.93-.5,1.95-.19,2.92-.31,3.29-.4,5.36.35,6.58,4.07,1.64,5,5.87,7.1,11.11,7.12,9.19,0,18.37,0,27.56,0,1.11,0,2.23,0,3.35,0,4.85.11,5.08.32,5,5C61.74,196.67,62,197.93,61.45,199.11Z"/><path class="cls-4" d="M199.16,321.7c2.9.47,4.24,2.36,4.59,5.1a39.25,39.25,0,0,1,.37,4.46q0,21.12,0,42.23c0,7.82-1.84,9.62-9.71,9.62-3,0-6,.13-9-.05-3.15-.2-5.45-1.64-5.88-5.09-.51-.94-.19-2-.31-2.93-.41-3.29.35-5.35,4.07-6.58,5-1.64,7.1-5.87,7.12-11.11,0-9.31,0-18.62,0-27.93,0-1,0-2,0-3,.11-4.85.32-5.08,5-5C196.72,321.41,198,321.12,199.16,321.7Z"/><path class="cls-4" d="M126.47,79.22c-9.61,6-10.68,5.71-16.38-4.16q-10.38-18-20.79-35.91c-3.2-5.52-2.4-8.38,3.19-11.57,2.6-1.48,5.16-3,7.8-4.43,4.57-2.46,7.31-1.68,9.95,2.77.75,1.28,1.41,2.62,2.12,3.93.38,1.47-.72,2.26-1.49,3.19-4.09,4.88-4.54,9.13-1.23,14.7,5.35,9,10.37,18.13,15.63,27.15C126,76.16,127.61,77.37,126.47,79.22Z"/><path class="cls-4" d="M79.27,256.68c6,9.67,5.66,10.74-4.16,16.39q-17.8,10.24-35.57,20.58c-5.9,3.43-8.74,2.67-12.12-3.31-1.41-2.5-2.88-5-4.23-7.48-2.46-4.58-1.67-7.32,2.78-9.94,1.28-.76,2.62-1.42,3.92-2.12,1.48-.39,2.27.71,3.19,1.49,4.89,4.09,9.13,4.54,14.7,1.22,9-5.35,18.14-10.37,27.16-15.63C76.21,257.13,77.41,255.55,79.27,256.68Z"/><path class="cls-4" d="M256.73,303.89c9.71-5.95,10.72-5.68,16.38,4.14q10.36,18,20.78,35.9c3.17,5.49,2.37,8.45-3.17,11.62-2.6,1.48-5.17,3-7.81,4.41-4.58,2.46-7.3,1.68-9.94-2.78-.76-1.28-1.42-2.61-2.13-3.92-.39-1.47.73-2.26,1.48-3.2,4.14-5.2,4.56-9.11,1.22-14.71-5.34-9-10.36-18.12-15.62-27.14C257.18,306.94,255.59,305.74,256.73,303.89Z"/><path class="cls-4" d="M78.7,127.34c-.65,1.2-1.26,2.42-2,3.59-2.61,4.43-5.46,5.32-10,2.76q-18.51-10.53-36.89-21.27c-10.11-5.91-10.19-6.48-4.14-16.69a2.8,2.8,0,0,0,.2-.32c4.78-10.36,8.6-9.55,16.67-4,.54,1.27-.18,2.43-.34,3.64-.67,5.45,1,9.76,5.93,12.58,9.37,5.38,18.7,10.82,28,16.24C77.53,124.61,79.53,125,78.7,127.34Z"/><path class="cls-4" d="M304.49,255.79c.65-1.2,1.26-2.42,1.95-3.6,2.63-4.44,5.44-5.34,10-2.78,11.16,6.32,22.24,12.76,33.35,19.16,2.59,1.49,5.2,2.95,7.76,4.5,4.07,2.47,4.88,5.25,2.7,9.4-1.57,3-3.24,5.9-4.94,8.79-2.84,4.84-5.91,5.62-10.89,2.8-1.3-.74-2.54-1.57-3.8-2.36-.54-1.27.19-2.43.34-3.65.67-5.46-1-9.77-5.95-12.62-9.05-5.23-18.13-10.43-27.13-15.75C306.31,258.78,304.24,258.25,304.49,255.79Z"/><path class="cls-4" d="M127.37,304.44c1.2.65,2.42,1.26,3.59,1.95,4.44,2.64,5.34,5.47,2.78,10q-10.52,18.51-21.25,36.89c-5.89,10.08-6.57,10.19-16.69,4.15-.11-.06-.2-.15-.31-.2-10.08-4.64-9.79-8.4-4-16.67,1.28-.53,2.44.2,3.65.35,5.46.67,9.79-1,12.62-5.95q7.88-13.79,15.9-27.48C124.46,306,125.11,304.19,127.37,304.44Z"/><path class="cls-1" d="M309.71,129.48c-3.12.07-5.33-1.16-6.25-4-1-3.17.36-5.66,3-7.28,6.37-3.85,12.81-7.58,19.26-11.3,7.63-4.4,15.3-8.74,22.95-13.1,3.45-2,6.78-1.2,8.66,2s1.23,6.3-2.11,8.28c-10.55,6.28-21.21,12.4-31.83,18.58-2.78,1.62-5.57,3.24-8.38,4.83C313.32,128.46,311.67,129.65,309.71,129.48Z"/><path class="cls-1" d="M253.65,73.53c.09-3.74,2.69-6.37,4.36-9.35,6.49-11.61,13.24-23.09,19.86-34.63,1.64-2.85,3.68-5.22,7.3-4.68,4.44.67,6.48,5.22,4.1,9.48C283,45.53,276.57,56.6,270.18,67.7c-1.86,3.23-3.65,6.52-5.75,9.59-1.59,2.31-4,3.43-6.85,2.39S253.57,76.48,253.65,73.53Z"/><path class="cls-5" d="M61.45,199.11c-.22-7.56-.22-7.56-7.75-7.56h-28c-7,0-11.3-3.23-12.91-9.91-.38-1.56-.95-2.08-2.43-2-1.73,0-3.47,0-5.21-.07,1.83-1.16,3.88-.58,5.82-.59,13.54-.05,27.08,0,40.62,0,8.42,0,10.42,1.93,10.38,10.25C62,192.51,62.8,195.88,61.45,199.11Z"/><path class="cls-5" d="M199.16,321.7c-7.56.22-7.56.22-7.56,7.75q0,14,0,28c0,7-3.23,11.31-9.91,12.91-1.57.38-2.09.95-2.05,2.43,0,1.74,0,3.48-.07,5.22-1.16-1.84-.58-3.89-.59-5.82,0-13.54,0-27.09,0-40.63,0-8.42,1.92-10.42,10.24-10.38C192.56,321.16,195.93,320.34,199.16,321.7Z"/><path class="cls-6" d="M304.49,255.79c3.07,3.76,7.71,5.19,11.64,7.65,6.27,3.95,12.8,7.47,19.21,11.19s8.5,10.22,5.24,17.07c-12.35-7.1-24.74-14.14-37-21.34-3.78-2.21-4.41-5.25-2.3-9.19C302.24,259.33,303.4,257.58,304.49,255.79Z"/><path class="cls-6" d="M126.47,79.22c-5.54-9.8-11-19.65-16.63-29.38-5-8.54-4.75-11.67,1.91-19.06a5.68,5.68,0,0,0,.6-.93c7,11.94,14,23.85,20.81,35.84,3.35,5.86,2.64,8.13-3.12,11.53C128.87,77.91,127.66,78.55,126.47,79.22Z"/><path class="cls-6" d="M78.7,127.34c-1.13-2.89-4.17-3.31-6.38-4.66-8-4.89-16.27-9.46-24.41-14.18-6.61-3.84-8.56-10.22-5.29-17.09,12.35,7.1,24.74,14.14,37,21.34C83.44,115,84.06,118,82,122,81,123.79,79.79,125.54,78.7,127.34Z"/><path class="cls-6" d="M79.27,256.68c-9.8,5.54-19.65,11-29.38,16.63-8.55,5-11.67,4.75-19.06-1.91a6.85,6.85,0,0,0-.94-.6c12.06-7,24.08-14.05,36.19-21,5.49-3.14,7.91-2.38,11,2.94C77.84,254.07,78.54,255.38,79.27,256.68Z"/><path class="cls-6" d="M127.37,304.44c-3.89,3-5.2,7.72-7.66,11.65-3.94,6.27-7.47,12.79-11.19,19.2s-10.22,8.51-17.07,5.24c7.1-12.35,14.15-24.73,21.34-37,2.22-3.78,5.25-4.41,9.19-2.3C123.82,302.19,125.57,303.36,127.37,304.44Z"/><path class="cls-6" d="M256.73,303.89c5.53,9.78,10.7,19.79,16.69,29.29,4.6,7.27,4.31,13.48-2,19.15a4.27,4.27,0,0,0-.61.93c-6.94-11.95-13.94-23.86-20.8-35.85-3.36-5.88-2.66-8.1,3.13-11.51C254.34,305.21,255.54,304.56,256.73,303.89Z"/></g></g></svg>