<svg xmlns="http://www.w3.org/2000/svg" viewBox="0 0 311.41 311.42"><defs><style>.cls-1{fill:#d34539;}.cls-2{fill:#5994ef;}.cls-3{fill:#c2cbd0;}.cls-4{fill:#ebedef;}.cls-5{fill:#d58f8b;}</style></defs><g id="Слой_2" data-name="Слой 2"><g id="Layer_1" data-name="Layer 1"><path class="cls-1" d="M36.06,239.53c0-1.13-.07-2.25-.07-3.37q0-115.95-.08-231.9C35.9.89,36.7,0,40.14,0Q155.7.17,271.27,0c3.4,0,4.24.85,4.24,4.25q-.18,117.63-.12,235.27c-1.77,1.65-4,1.15-6,1.15-29,0-58,.13-86.92,0-11.6-.07-19.86,4.53-24.34,15.42a6.33,6.33,0,0,1-1.36,2.21,1.72,1.72,0,0,1-2,.08,10.15,10.15,0,0,1-2-3.52c-4.32-9.81-12.11-14.11-22.53-14.13-29.36,0-58.72,0-88.07,0C40.05,240.67,37.83,241.17,36.06,239.53Z"/><path class="cls-2" d="M299.43,275.37c3,0,6,.2,9,.06,2.22-.11,3.19.48,3,2.88-.2,2.61,0,5.24-.05,7.85,0,8.47-4.76,13.25-13.19,13.25q-43.18,0-86.37,0c-9.6,0-19.19,0-28.79,0-2.08,0-3.19.23-3.76,2.73-1.37,5.95-5.84,9.21-11.95,9.26q-11.58.11-23.18,0c-5.95-.05-10.47-3.27-11.82-8.93-.64-2.71-1.86-3.07-4.26-3.07q-57,.11-114,.06c-2.38,0-4.75,0-6.93-1.13C2.83,296.16.34,292.78.11,288c-.15-3.23.12-6.49-.09-9.72-.16-2.45.86-2.94,3-2.85,3,.13,6,0,9-.08a6.25,6.25,0,0,1,4.25-1.08q69.15,0,138.28,0c.37,0,.75,0,1.12.06,2.87-.21,5.73-.1,8.6-.1q64.14,0,128.28,0C294.88,274.27,297.33,273.81,299.43,275.37Z"/><path class="cls-3" d="M299.43,275.37q-39.4,0-78.79.09c-21.66,0-43.32-.06-65-.1-1.68-2.17-.95-4.71-1-7.1s-.16-4.65-.14-7c.12-1.34,1.2-2.09,1.88-3.09,2.74-11.27,11.84-18.6,23.46-18.63q47.78-.09,95.55,0c3.85,0,7.69,0,11.54,0,7.45.07,12.38,4.94,12.43,12.36C299.42,259.73,299.41,267.55,299.43,275.37Z"/><path class="cls-4" d="M155.14,260.4c1.12,5,.35,10,.53,15q-35.17.06-70.33.1-36.66,0-73.32-.11,0-11.55,0-23.1c0-7.9,4.86-12.67,12.84-12.7l11.18,0q47.57,0,95.14,0c11.94,0,20.79,7,23.86,18.63A1.83,1.83,0,0,1,155.14,260.4Z"/><path class="cls-4" d="M101.84,101.65a53.87,53.87,0,1,1,53.48,54.08A53.89,53.89,0,0,1,101.84,101.65Z"/><path class="cls-4" d="M126.78,191.66q26.57,0,53.12,0c2,0,3.43,0,4.08-2.52.6-2.34,2.79-3.45,5.25-3.44s4.58,1.13,5.27,3.45,2.15,2.52,4.16,2.52c13.21-.06,26.43,0,39.65-.06,3.37,0,5.9,1.1,6.94,4.45,1.26,4-1.87,7.52-6.75,7.53q-19.45.07-38.91,0c-2.46,0-4.43-.06-5.37,3-.64,2.1-2.88,3-5.18,3s-4.41-1.09-5-3.29c-.74-2.85-2.58-2.67-4.72-2.67q-52.19,0-104.37,0c-1,0-2,.05-3,0-3.58-.25-6-2.6-6-5.88s2.43-5.85,6.23-6.06c1,0,2,0,3,0Z"/><path class="cls-5" d="M155.14,260.4c0-.74,0-1.47-.08-2.2h1.32C156.45,259.21,156.73,260.33,155.14,260.4Z"/><path class="cls-1" d="M177.72,101.86,143.63,121.5c-2.08,1.2-1.94-.31-1.95-1.6,0-12.07,0-24.14,0-36.22,0-2.29.86-2.15,2.42-1.25C155,88.78,166,95.11,177.72,101.86Z"/></g></g></svg>