<svg xmlns="http://www.w3.org/2000/svg" viewBox="0 0 383.2 374.26"><defs><style>.cls-1{fill:#626c78;}.cls-2{fill:#ecf5fe;}.cls-3{fill:#61bd7a;}.cls-4{fill:#f3b377;}.cls-5{fill:#ed4659;}.cls-6{fill:#e4e4e4;}</style></defs><g id="Слой_2" data-name="Слой 2"><g id="Layer_1" data-name="Layer 1"><path class="cls-1" d="M377.22,196.7c-3.07-.41-6.07-1.37-9.14-1.83-1.88-.27-2.64-1-3.14-2.9a89.77,89.77,0,0,0-3.85-11.28c-1.58-3.76-5.25-7.48-5-11,.31-3.7,4.19-7.11,6.52-10.64,1.73-2.64,1.7-5.18-.53-7.47q-5.62-5.75-11.37-11.37c-2.28-2.22-4.79-2.32-7.43-.48s-5.66,3.64-8.36,5.64a3.52,3.52,0,0,1-4.62.22A77.82,77.82,0,0,0,320,140.51c-3.89-1.58-9.22-1.68-11.55-4.43-2.47-2.93-2.13-8.21-3.05-12.46a5.33,5.33,0,0,0-5.24-4.47c-1.48-.13-3-.12-4.47-.18-4.61-1.67-9.3-1.23-13.92-.23-2.53.54-3.85,2.6-4.5,5.05a77.65,77.65,0,0,0-1.8,8.78,4.54,4.54,0,0,1-4,4.23c-3.54.79-7.24,1.71-10.13,3.73-7.26,5.08-13.57,4.7-20.21-1.23-3.23-2.88-6.12-2.21-9.36.79-3.48,3.22-6.78,6.62-10.07,10s-3.51,5.67-1.3,9.76A79.24,79.24,0,0,0,225.2,167a4.49,4.49,0,0,1,.23,5.5A58.17,58.17,0,0,0,218.18,190a5,5,0,0,1-4.55,4.2,71.1,71.1,0,0,0-8.41,1.8c-4.23,1.29-5.48,2.89-5.56,7.26-.09,4.85-.08,9.72,0,14.58.07,4.46,1.77,6.52,6.2,7.57,2.78.66,5.6,1.21,8.44,1.65a3.77,3.77,0,0,1,3.46,2.94c1.6,6.74,4.71,12.85,7.87,18.94a4.3,4.3,0,0,1-.33,4.87c-1.75,2.58-3.56,5.12-5.13,7.81-2,3.51-1.89,5.92.82,8.85,3.56,3.84,7.3,7.51,11.1,11.11,2.5,2.37,5.24,2.6,8.2.84q4-2.38,7.82-5.11a4.91,4.91,0,0,1,6.2-.1c3.33,2.27,6.95,4.31,10.81,5,8,1.38,11.78,5.76,11.83,13.81a6.29,6.29,0,0,0,3.85,6,20.74,20.74,0,0,0,14.86.27c.74-.06,1.48-.16,2.22-.17,5.58-.13,6.72-1,7.86-6.35a88.19,88.19,0,0,0,1.72-8.77c.22-2,1.16-2.75,2.92-3.18a68.68,68.68,0,0,0,19.9-8.22,3.58,3.58,0,0,1,4.67.21c2.67,2,5.59,3.72,8.34,5.64s5.36,1.61,7.71-.72q5.44-5.37,10.85-10.81c2.48-2.49,2.62-5.17.63-8.06s-3.64-5.65-5.64-8.35a3.23,3.23,0,0,1-.15-4.28c3-4.74,5.81-9.78,6.81-15.25,1.11-6,4.16-8.39,10-8.85,3.56-.28,7.61-.43,9.73-4.36v-20.2A7.75,7.75,0,0,0,377.22,196.7Zm-76.94,50a30.19,30.19,0,0,1-3.69.42c-1.37-1-.92-2.47-.92-3.78q0-32.58,0-65.16c0-1.47-.73-3.41,1.69-3.89,14.87,1.08,28.79,14.86,31.09,30.79A37.14,37.14,0,0,1,300.28,246.69Z"/><path class="cls-2" d="M295.65,119c-3.73,0-7.47.12-11.21.13-3.47,0-5.66,1.53-6.31,5.06-.6,3.18-1.42,6.32-1.85,9.52-.28,2.14-1,3.27-3.24,3.78a66.47,66.47,0,0,0-19.92,8.28,3.09,3.09,0,0,1-4-.06c-2.92-2.14-6-4.07-9-6.07-2.68-1.77-5.17-1.48-7.43.77-3.71,3.7-7.4,7.41-11.11,11.11-2.3,2.29-2.43,4.79-.72,7.44,2.29,3.55,6.26,7,6.51,10.64s-3.4,7.47-5,11.34a52.94,52.94,0,0,0-3.47,10.23c-.54,2.77-1.94,3.65-4.38,4-2.95.46-5.86,1.14-8.8,1.66-3.44.6-5.3,2.43-5.25,6.08.07,5.11.09,10.22,0,15.33-.07,3.66,1.81,5.53,5.19,6.17,3.17.61,6.36,1.19,9.55,1.73a3.65,3.65,0,0,1,3.47,3.18,64.89,64.89,0,0,0,8.09,19.59,3.8,3.8,0,0,1-.22,5c-1.95,2.59-3.62,5.38-5.45,8.05-2,2.89-1.83,5.53.72,8,3.55,3.5,7.09,7,10.57,10.58,2.47,2.54,5.07,2.9,8,.88s5.83-3.84,8.67-5.85a3.22,3.22,0,0,1,4-.12,66.31,66.31,0,0,0,20.28,8.35c1.87.41,2.6,1.48,2.85,3.34.39,3,1,5.88,1.62,8.81.94,4.78,2.5,6.08,7.34,6.18,3.48.07,7,.11,10.46.17,0,22.56-.06,45.13.07,67.69,0,3.19-.68,4.26-4.1,4.26q-143.82-.15-287.64,0c-3.13,0-4-.9-4-4Q.12,187.18,0,4.09C0,.67,1.09,0,4.26,0Q147.9.12,291.53,0c3.27,0,4.21.82,4.19,4.15Q295.56,61.57,295.65,119Z"/><path class="cls-2" d="M296.58,247.11c-13.16,3-29.73-5-37-18.34-7.1-13-6.75-26.18,1.4-38.53s20.25-17.51,35-16.45a5.74,5.74,0,0,1,1.38.5,54.37,54.37,0,0,0-.53,8.56c0,20.18,0,40.37,0,60.55A17.7,17.7,0,0,1,296.58,247.11Z"/><path class="cls-3" d="M64.05,128.6c-12.08,0-24.17-.07-36.25.05-2.7,0-3.69-.64-3.68-3.53q.15-37,0-74c0-2.39.6-3.21,3.12-3.2q37.18.14,74.38,0c2.35,0,3.23.52,3.22,3.07q-.14,37.18,0,74.37c0,2.73-.93,3.29-3.44,3.27C89,128.54,76.51,128.6,64.05,128.6Z"/><path class="cls-4" d="M104.81,286.29c0,12.21-.06,24.42.06,36.62,0,2.55-.63,3.43-3.32,3.42q-37-.15-74,0c-2.92,0-3.49-1-3.48-3.66q.13-36.63,0-73.25c0-2.88.76-3.91,3.79-3.89q36.81.15,73.63,0c2.61,0,3.4.76,3.38,3.38C104.75,261.37,104.81,273.83,104.81,286.29Z"/><path class="cls-5" d="M104.8,187.45c0,12.21-.06,24.42.06,36.62,0,2.51-.53,3.44-3.26,3.42q-37-.15-74,0c-2.52,0-3.46-.61-3.45-3.31q.13-37,0-74c0-2.57.69-3.43,3.35-3.42q37,.15,74,0c2.59,0,3.39.67,3.36,3.32C104.73,162.53,104.8,175,104.8,187.45Z"/><path class="cls-6" d="M194.09,94.34c-24.05,0-48.11,0-72.15.07-3.29,0-4.59-.65-4.47-4.27.27-7.76.06-7.77,8-7.77H266c4.93,0,4.93,0,4.93,4.76,0,7.21,0,7.21-7.34,7.21Z"/><path class="cls-6" d="M194.4,70.41c-24.3,0-48.61,0-72.92.07-3.1,0-4.07-.86-4-4,.26-9.15-.94-8,8-8q70.3,0,140.6,0c4.91,0,4.91,0,4.91,4.79,0,7.18,0,7.18-7,7.18Z"/><path class="cls-6" d="M170.52,117.55c-16.44,0-32.89-.06-49.33,0-2.68,0-3.71-.6-3.7-3.51,0-8.52-.09-8.52,8.34-8.52,31.15,0,62.29.06,93.43-.07,3.49,0,4.78.74,4.65,4.46-.27,7.58-.07,7.59-7.8,7.59Z"/><path class="cls-6" d="M159.24,181.14c12.46,0,24.91.08,37.36-.06,3,0,4.16.61,4.09,3.87-.16,8.16,0,8.16-8.32,8.16-23.41,0-46.83-.07-70.23.08-3.47,0-4.8-.71-4.66-4.45.27-7.59.06-7.6,7.77-7.6Z"/><path class="cls-6" d="M159,279.91c12.71,0,25.41.07,38.11-.06,2.77,0,3.63.76,3.62,3.58-.05,8.45.07,8.45-8.4,8.45-23.53,0-47.07-.07-70.6.07-3.28,0-4.29-.81-4.2-4.15.21-7.89,0-7.89,7.85-7.89Z"/><path class="cls-6" d="M158.91,157.94c12.72,0,25.43.07,38.15-.06,2.78,0,3.68.77,3.61,3.59-.24,9.73,1,8.4-8.31,8.42q-34.77.08-69.56,0c-5.23,0-5.23,0-5.24-5.1,0-6.87,0-6.87,6.94-6.87Z"/><path class="cls-6" d="M159.46,256.7c12.47,0,24.94.09,37.4-.06,2.93,0,3.9.77,3.82,3.77-.27,9.43,1,8.24-8.12,8.25q-35,.06-69.94,0c-5,0-5,0-5.06-4.9,0-7.07,0-7.07,7.12-7.07Z"/><path class="cls-6" d="M147.18,315.81c-8.6,0-17.2-.09-25.8.05-3,.05-3.92-1.06-3.86-3.95.22-10.26-1.18-8.74,8.67-8.78,15.58-.07,31.16.05,46.74-.08,2.93,0,3.85.78,3.82,3.77-.1,9,0,9-9,9Z"/><path class="cls-6" d="M146.73,216.31c-8.6,0-17.19-.08-25.79.05-2.57,0-3.48-.71-3.43-3.37.23-10-1.1-8.59,8.46-8.63,15.69-.06,31.39,0,47.08-.07,2.69,0,3.71.6,3.7,3.5,0,8.52.09,8.52-8.35,8.52Z"/></g></g></svg>