<svg xmlns="http://www.w3.org/2000/svg" viewBox="0 0 610.89 527.95"><g id="Слой_2" data-name="Слой 2"><g id="Слой_1-2" data-name="Слой 1"><g id="jEIo1I.tif"><path d="M305.42,527.92q-128.31,0-256.61,0c-7.3,0-14.45-.63-21.18-3.75-14.21-6.58-23.29-17.35-26.56-32.74a48,48,0,0,1-1-9.64Q0,264,0,46.09A45.84,45.84,0,0,1,32.58,2,57.66,57.66,0,0,1,48.6.11C97.24,0,145.88,0,194.52,0Q378.17,0,561.81,0c7.57,0,15,.68,21.91,3.93,12.13,5.68,20.48,14.8,24.79,27.53a47.47,47.47,0,0,1,2.38,15.41q-.07,217.11,0,434.23c0,17.13-7.26,30.42-21.48,39.84-8,5.26-16.88,7-26.34,7-27.16-.09-54.31,0-81.46,0ZM587,111.29H27.6c-4.15,0-3.72-.42-3.72,3.78V479.56c0,1.09,0,2.17,0,3.25a21.43,21.43,0,0,0,5.64,14c4.92,5.48,11.18,7.22,18.38,7.22Q305.38,504,562.85,504a25.79,25.79,0,0,0,5-.23,25.41,25.41,0,0,0,6.65-1.9c8.68-4.37,12.5-11.63,12.5-21.25q0-183,0-366ZM305.27,87.41H477.93q53,0,105.94,0c2.31,0,3.17-.49,3.15-3-.13-13.07.05-26.15-.13-39.22-.1-7.47-3.5-13.34-9.64-17.67-4.69-3.3-10-3.67-15.48-3.67q-256.35,0-512.71,0c-2.25,0-4.49.11-6.74.25a10.29,10.29,0,0,0-2.68.54c-10.27,3.56-15.73,11.18-15.75,22q0,18.5,0,37c0,4.12-.42,3.7,3.8,3.7Z"/><path d="M453.39,284.88c-3.35,1.65-6,2.94-8.64,4.27-3.86,1.93-7.77,3.78-11.52,5.91-1,.54-1.54,1.92-2,3a6.77,6.77,0,0,0-.06,2.47q0,45.6,0,91.2c0,5.84-2.17,10.13-7.45,12.71-1.79.88-3.62,1.69-5.43,2.52q-30.76,14.14-61.53,28.28Q333.47,446,310.1,456.52c-3.83,1.73-7.62,1-11.32-.74Q265.9,440.57,233,425.41c-15.23-7-30.52-13.89-45.75-20.9-4.38-2-7.16-5.35-7.48-10.36-.09-1.41-.11-2.83-.11-4.24q0-45.35.06-90.69c0-2.86-1-4.28-3.49-5.51q-18.08-9-36-18.25c-4.36-2.27-6.83-6-6.65-11.14s3.11-8.57,7.57-10.84L232.64,207q33.54-17,67.09-34c4.53-2.29,8.85-1.45,13.13.73l95.69,48.65q30.4,15.47,60.82,30.93c5.35,2.71,8,6.77,7.95,12.92-.12,26.4-.07,52.8,0,79.2,0,5.4-2,9.5-7,11.85a11.91,11.91,0,0,1-16.76-9.75c-.11-1.24-.08-2.49-.08-3.74V284.88Zm-281.12-20.3c1.27.82,2,1.37,2.78,1.78,3.47,1.78,7,3.52,10.44,5.29q30,15.23,59.93,30.48,28.86,14.67,57.71,29.37a4.74,4.74,0,0,0,4.72,0q24.66-12.47,49.36-24.87,39.8-20.1,79.56-40.26a13.48,13.48,0,0,0,1.93-1.57c-.7-.44-1-.69-1.37-.87q-23.76-12.08-47.51-24.16-41.29-21-82.6-42a4.13,4.13,0,0,0-3.23-.15q-30.69,15.45-61.29,31.08-26.52,13.47-53,26.94C184,258.54,178.45,261.42,172.27,264.58Zm234.64,43.91c-1.19.47-1.91.69-2.56,1q-12.14,6.12-24.24,12.25L311.2,356.51a12.16,12.16,0,0,1-11.52,0q-17.65-8.94-35.3-17.94-29-14.71-57.95-29.43c-2.52-1.28-2.85-1.1-2.85,1.64q0,36.22,0,72.45a3.4,3.4,0,0,0,2.21,3.49q16.86,7.72,33.71,15.5,32,14.68,64.07,29.3a5,5,0,0,0,3.74.1c9.48-4.21,18.89-8.57,28.32-12.91q34.49-15.87,69-31.71a4,4,0,0,0,2.75-4.14q-.07-35.6-.05-71.19A28.27,28.27,0,0,0,406.91,308.49Z"/><path d="M175.14,68.47a12.88,12.88,0,1,1,.16-25.76,13.09,13.09,0,0,1,12.93,12.88A12.92,12.92,0,0,1,175.14,68.47Z"/><path d="M72.44,68.47a12.88,12.88,0,0,1-.22-25.76,12.84,12.84,0,0,1,13,12.93A12.67,12.67,0,0,1,72.44,68.47Z"/><path d="M123.57,68.47A12.88,12.88,0,0,1,124,42.71a13,13,0,0,1,12.75,13A12.8,12.8,0,0,1,123.57,68.47Z"/></g></g></g></svg>