<svg xmlns="http://www.w3.org/2000/svg" viewBox="0 0 106.18 174.36"><defs><style>.cls-1{fill:#fff;}</style></defs><g id="Слой_2" data-name="Слой 2"><g id="Слой_1-2" data-name="Слой 1"><g id="_9gl672.tif" data-name="9gl672.tif"><path class="cls-1" d="M106.18,20.61V37a11,11,0,0,1,0,1.28c-.28,2.26-1.85,3.31-4.08,2.82-3.32-.74-6.66-1.42-10-2.15-3.77-.83-7.53-1.71-11.3-2.52-3-.65-6-1.21-9-1.85s-5.88-1.29-8.82-2a18.57,18.57,0,0,1-2.11-.52,2.6,2.6,0,0,1-1.78-2.43C59,28.9,59,28.14,59,27.38s-.25-1-.93-.95q-2,0-4,0c-.56,0-.87.19-.87.78q0,6,0,12.07c0,.5.22.74.75.84,12.28,2.24,21.77,8.76,28.79,19a34.89,34.89,0,0,1,5,11,29.41,29.41,0,0,1,.77,7.43c0,26.88,0,53.77,0,80.65,0,4.32-2.13,7.07-5.52,9.19a36.67,36.67,0,0,1-9.85,4,80.56,80.56,0,0,1-14.19,2.45,96.81,96.81,0,0,1-15.79.4c-3.19-.24-6.39-.38-9.55-.81A51.16,51.16,0,0,1,23,170.87a22,22,0,0,1-7.93-4.51,9.25,9.25,0,0,1-3-9.08,13.69,13.69,0,0,1,1.4-3.34,1.53,1.53,0,0,0,0-1.95,8.76,8.76,0,0,1-1.67-5.57c0-7.87,0-15.73,0-23.59V81.49a31.89,31.89,0,0,1,1-8.87,27.47,27.47,0,0,1,4.39-8.85A33.19,33.19,0,0,1,31,52.89a35.21,35.21,0,0,1,14.87-2.75c1.27,0,1.29,0,1.29-1.23,0-.92,0-1.83,0-2.75,0-.52-.23-.76-.78-.75a33.72,33.72,0,0,0-8.48,1.09c-1.12.32-2.26,1-3.54.39a3,3,0,0,1-2-2.9,3.25,3.25,0,0,1,2.34-2.74,37.18,37.18,0,0,1,11.42-1.69c.76,0,1-.24,1-1q0-5.56,0-11.15c0-.76-.26-1-1-1-3.89.21-7.81.2-11.67.62A36.94,36.94,0,0,0,23.77,30.1a34.26,34.26,0,0,0-12.45,9A32.7,32.7,0,0,0,6,47.64c-.72,1.7-1.75,2.44-3.29,2.36A3,3,0,0,1,.21,46a40.15,40.15,0,0,1,10.1-14.23,42.61,42.61,0,0,1,11.26-7.13,44.48,44.48,0,0,1,12.78-3.55c3.65-.44,7.35-.4,11-.53,1.88-.06,1.81.18,1.8-1.77,0-1.25,0-2.5,0-3.75a3.23,3.23,0,0,1,2.88-3.41c3.15-.66,6.29-1.4,9.43-2.08,2.85-.63,5.71-1.22,8.56-1.85,2-.45,4-1,6-1.4s4-.86,6.06-1.31L86.3,3.61l6-1.34c2.17-.49,4.33-1,6.5-1.45a39.64,39.64,0,0,1,4-.79c1.93-.22,3,.73,3.32,2.66a10,10,0,0,1,.08,1.55ZM19,149.18c2.88-2.47,6.39-3.46,9.94-4.12a94.87,94.87,0,0,1,12.66-1.62c9-.45,18,0,26.7,2.52a18.38,18.38,0,0,1,6,2.83,5.42,5.42,0,0,1,2,6.2,7.32,7.32,0,0,1-3.53,3.64,26.39,26.39,0,0,1-8.69,2.61,88.49,88.49,0,0,1-15.76,1,103.21,103.21,0,0,1-16.73-1.49c-2-.36-3.9-.92-5.86-1.37a21,21,0,0,1-6.26-2.63.93.93,0,0,0-.86.19c-.88,1.12-1.37,2.4-.53,3.71a8.5,8.5,0,0,0,2.13,2.3c2.94,2.12,6.4,3,9.87,3.82a73.63,73.63,0,0,0,13.23,1.56,95.37,95.37,0,0,0,29.32-3,27.84,27.84,0,0,0,7-2.89c1.52-.92,2.88-1.93,2.88-4.08,0-27.06,0-54.13-.07-81.19a24.3,24.3,0,0,0-.93-6.57A31,31,0,0,0,76,59.94,38.29,38.29,0,0,0,65.7,50.7a33.93,33.93,0,0,0-11.42-4.61c-1.05-.2-1.14-.1-1.14,1,0,1.74,0,3.48,0,5.21,0,2.73-1.57,4-4.25,3.55a20.8,20.8,0,0,0-2.72-.32,26.58,26.58,0,0,0-7.67.94,30.89,30.89,0,0,0-10.73,5A23.27,23.27,0,0,0,17.6,81.69c.17,20,0,40,0,60.07,0,1.7,0,3.41,0,5.12A2.55,2.55,0,0,0,19,149.18ZM100.3,20.54V7.93c0-1.31-.16-1.39-1.43-1.09-2.19.53-4.39,1-6.58,1.47l-5.7,1.26L80,11.05l-5.88,1.28-6.49,1.46L61.77,15.1c-2,.46-4.07,1-6.13,1.37-2.52.44-2.53.37-2.5,2.86,0,1.12.08,1.21,1.18,1.21,2.41,0,4.82,0,7.22,0a3,3,0,0,1,3.29,3.2c0,.61,0,1.22,0,1.83,0,1.35.08,1.47,1.4,1.78.26.07.54.09.81.14,2.11.44,4.22.86,6.33,1.31s4.33,1,6.5,1.44,4.16.87,6.24,1.32L92.53,33c2.14.46,4.29.87,6.42,1.36,1.22.28,1.35.24,1.35-1C100.31,29.07,100.3,24.8,100.3,20.54ZM24.74,152.68l.09.48c3.28.71,6.55,1.53,9.86,2.09,2.6.44,5.26.53,7.9.81a86.78,86.78,0,0,0,17.87-.29,47,47,0,0,0,6.1-1.09,35.32,35.32,0,0,0,3.59-1.21c-.31-.36-.45-.67-.68-.77a26,26,0,0,0-2.88-1.13,57.62,57.62,0,0,0-13.22-2.13,94.75,94.75,0,0,0-16.24.28,56.88,56.88,0,0,0-11.5,2.37A4.43,4.43,0,0,0,24.74,152.68Z"/></g></g></g></svg>