<svg xmlns="http://www.w3.org/2000/svg" xmlns:xlink="http://www.w3.org/1999/xlink" viewBox="0 0 288.9 319.09"><defs><style>.cls-1{fill:#37404a;}.cls-2{fill:#98a4e0;}.cls-3{isolation:isolate;}.cls-4{clip-path:url(#clip-path);}.cls-5{clip-path:url(#clip-path-2);}.cls-6,.cls-9{fill:#242a31;}.cls-7{fill:#10191b;}.cls-8{fill:#1f84ff;}.cls-9{mix-blend-mode:screen;}.cls-10{clip-path:url(#clip-path-3);}.cls-11{clip-path:url(#clip-path-4);}.cls-12{clip-path:url(#clip-path-5);}.cls-13{fill:#ecf5fe;}.cls-14{fill:#becef9;}.cls-15{fill:#ffd835;}.cls-15,.cls-16,.cls-17,.cls-18,.cls-19,.cls-21,.cls-23,.cls-24,.cls-25,.cls-26,.cls-27,.cls-28{fill-rule:evenodd;}.cls-16{fill:#e0af00;}.cls-17{fill:#575756;}.cls-18,.cls-20{fill:#3c3c3b;}.cls-19{fill:#666;}.cls-21{fill:#ffea82;}.cls-22,.cls-24{fill:#7f7f7f;}.cls-23{fill:#333;}.cls-25{fill:#b2b2b2;}.cls-26{fill:url(#GradientFill_9);}.cls-27{fill:#4c4c4c;}.cls-28{fill:#999;}</style><clipPath id="clip-path"><path class="cls-1" d="M8.92,243.83l-5.29-3.08c-2-1.19-3.32-3.72-3.33-7.31l5.3,3.07C5.61,240.11,6.88,242.64,8.92,243.83Z"/></clipPath><clipPath id="clip-path-2"><path class="cls-1" d="M5.29,129.39,0,126.32c0-7.24,5.06-16,11.35-19.67l5.3,3.07C10.36,113.35,5.27,122.16,5.29,129.39Z"/></clipPath><clipPath id="clip-path-3"><path class="cls-2" d="M288.9,215.18l0,6.12c0,2.36-1.56,4.72-4.66,6.53l0-6.13C287.34,219.9,288.89,217.54,288.9,215.18Z"/></clipPath><clipPath id="clip-path-4"><path class="cls-2" d="M11.18,255.92l0-6.13c0,2.4,1.57,4.8,4.74,6.63v6.12C12.76,260.71,11.17,258.31,11.18,255.92Z"/></clipPath><clipPath id="clip-path-5"><path class="cls-2" d="M131.89,310.24l0,6.12c-6.26,3.64-16.43,3.63-22.72,0l0-6.12C115.46,313.87,125.63,313.88,131.89,310.24Z"/></clipPath><linearGradient id="GradientFill_9" x1="104.9" y1="37.3" x2="116.64" y2="14.25" gradientUnits="userSpaceOnUse"><stop offset="0" stop-color="#c6c6c6"/><stop offset="1" stop-color="#fff"/></linearGradient></defs><g id="Слой_2" data-name="Слой 2"><g id="Layer_1" data-name="Layer 1"><g id="_13" data-name="13"><g class="cls-3"><g class="cls-3"><path class="cls-1" d="M8.92,243.83l-5.29-3.08c-2-1.19-3.32-3.72-3.33-7.31l5.3,3.07C5.61,240.11,6.88,242.64,8.92,243.83Z"/><g class="cls-4"><g class="cls-3"><path class="cls-1" d="M8.92,243.83l-5.29-3.08c-2-1.19-3.32-3.72-3.33-7.31l5.3,3.07C5.61,240.11,6.88,242.64,8.92,243.83Z"/></g></g></g><polygon class="cls-1" points="5.6 236.51 0.3 233.44 0 126.32 5.29 129.39 5.6 236.51"/><polygon class="cls-1" points="16.65 109.72 11.35 106.65 164.7 18.11 169.99 21.19 16.65 109.72"/><g class="cls-3"><path class="cls-1" d="M5.29,129.39,0,126.32c0-7.24,5.06-16,11.35-19.67l5.3,3.07C10.36,113.35,5.27,122.16,5.29,129.39Z"/><g class="cls-5"><g class="cls-3"><path class="cls-1" d="M5.29,129.39,0,126.32a21.39,21.39,0,0,1,2-8.64l5.29,3.08A21.72,21.72,0,0,0,5.29,129.39Z"/><path class="cls-1" d="M7.3,120.76,2,117.68a27.48,27.48,0,0,1,3.83-6.21l5.29,3.08A27.48,27.48,0,0,0,7.3,120.76Z"/><path class="cls-1" d="M11.13,114.55l-5.29-3.08a20.54,20.54,0,0,1,5.51-4.82l5.3,3.07A20.65,20.65,0,0,0,11.13,114.55Z"/></g></g></g><path class="cls-6" d="M170,21.19c6.29-3.63,11.42-.72,11.44,6.51l.3,107.12c0,7.23-5.07,16.05-11.36,19.68L17,243c-6.29,3.64-11.4.71-11.42-6.52L5.29,129.39c0-7.23,5.07-16,11.36-19.67Z"/><path class="cls-7" d="M175.47,134.85c0,5-3.9,11.74-8.23,14.23L13.89,237.62a5.37,5.37,0,0,1-1.76.7,5,5,0,0,1-.28-1.83v-1l-.3-106.14c0-5,3.91-11.75,8.23-14.24L171.69,27.43l1.43-.83a5.34,5.34,0,0,1,1.78-.7,5.31,5.31,0,0,1,.27,1.82Z"/><path class="cls-8" d="M172,133.57c0,5-3.9,11.74-8.22,14.23L11.85,235.52l-.3-106.14c0-5,3.91-11.75,8.23-14.24L171.69,27.43Z"/><polygon class="cls-9" points="49.02 98.26 11.63 158.5 11.7 181.29 78.22 81.39 49.02 98.26"/><polygon class="cls-9" points="11.78 209.64 11.85 235.51 20.05 230.78 151.98 38.81 107.79 64.32 11.78 209.64"/></g><path class="cls-1" d="M172.81,17.32l5.29,3.07c-2.07-1.2-4.94-1-8.11.8l-5.29-3.08C167.87,16.28,170.74,16.11,172.81,17.32Z"/><g class="cls-3"><path class="cls-2" d="M288.9,215.18l0,6.12c0,2.36-1.56,4.72-4.66,6.53l0-6.13C287.34,219.9,288.89,217.54,288.9,215.18Z"/><g class="cls-10"><g class="cls-3"><path class="cls-2" d="M288.9,215.18l0,6.12a5.49,5.49,0,0,1-.46,2.19l0-6.12A5.7,5.7,0,0,0,288.9,215.18Z"/><path class="cls-2" d="M288.44,217.37l0,6.12a9.51,9.51,0,0,1-4.2,4.34l0-6.13A9.55,9.55,0,0,0,288.44,217.37Z"/></g></g><path class="cls-2" d="M11.18,255.92l0-6.13c0,2.4,1.57,4.8,4.74,6.63v6.12C12.76,260.71,11.17,258.31,11.18,255.92Z"/><g class="cls-11"><g class="cls-3"><path class="cls-2" d="M15.94,256.42v6.12c-3.17-1.83-4.76-4.23-4.75-6.62l0-6.13C11.19,252.19,12.77,254.59,15.94,256.42Z"/></g></g><polygon class="cls-2" points="284.24 221.7 284.22 227.82 131.87 316.36 131.89 310.24 284.24 221.7"/><polygon class="cls-2" points="109.17 310.24 109.15 316.36 15.93 262.54 15.95 256.42 109.17 310.24"/><path class="cls-2" d="M131.89,310.24l0,6.12c-6.26,3.64-16.43,3.63-22.72,0l0-6.12C115.46,313.87,125.63,313.88,131.89,310.24Z"/><g class="cls-12"><g class="cls-3"><path class="cls-2" d="M131.89,310.24l0,6.12a23.27,23.27,0,0,1-11.64,2.73l0-6.13A23.16,23.16,0,0,0,131.89,310.24Z"/><path class="cls-2" d="M120.25,313l0,6.13a23.12,23.12,0,0,1-11.08-2.73l0-6.12A23.12,23.12,0,0,0,120.25,313Z"/></g></g><path class="cls-13" d="M284.16,208.55c6.29,3.63,6.33,9.52.08,13.15L131.89,310.24c-6.26,3.64-16.43,3.63-22.72,0L15.94,256.42c-6.29-3.64-6.33-9.53-.07-13.16l152.35-88.54c6.25-3.63,16.42-3.63,22.71,0Z"/><path class="cls-2" d="M252.93,200.94a6.78,6.78,0,0,1-3.61,4.36L104.45,289.4c-5,2.87-13,2.87-18,0L24.25,253.52a7.23,7.23,0,0,1-3.58-4c-.68-2.27.49-4.69,3.51-6.44L169.06,159c4.94-2.88,13-2.88,18,0l62.21,35.87C252.12,196.53,253.35,198.77,252.93,200.94Z"/><path class="cls-14" d="M252.93,200.94a6.78,6.78,0,0,1-3.61,4.36L104.45,289.4c-5,2.87-13,2.87-18,0L24.25,253.52a7.23,7.23,0,0,1-3.58-4,6.87,6.87,0,0,1,3.62-4.37l144.88-84.1c4.94-2.88,13-2.88,18,0L249.37,197A7.13,7.13,0,0,1,252.93,200.94Z"/></g><g class="cls-3"><polygon class="cls-6" points="187.59 166.58 187.59 167.6 178.39 172.94 178.39 171.92 187.59 166.58"/><polygon class="cls-6" points="178.39 171.92 178.39 172.94 169.13 167.6 169.14 166.58 178.39 171.92"/></g><g class="cls-3"><polygon class="cls-6" points="176.04 173.29 176.04 174.31 166.84 179.66 166.84 178.64 176.04 173.29"/><polygon class="cls-6" points="166.84 178.64 166.84 179.66 157.58 174.31 157.58 173.29 166.84 178.64"/></g><g class="cls-3"><polygon class="cls-6" points="164.49 180 164.49 181.02 155.28 186.37 155.28 185.35 164.49 180"/><polygon class="cls-6" points="155.28 185.35 155.28 186.37 146.03 181.03 146.03 180.01 155.28 185.35"/></g><g class="cls-3"><polygon class="cls-6" points="152.93 186.72 152.92 187.74 143.73 193.09 143.73 192.06 152.93 186.72"/><polygon class="cls-6" points="143.73 192.06 143.73 193.09 134.47 187.74 134.48 186.72 143.73 192.06"/></g><g class="cls-3"><polygon class="cls-6" points="141.37 193.44 141.37 194.46 132.18 199.8 132.18 198.78 141.37 193.44"/><polygon class="cls-6" points="132.18 198.78 132.18 199.8 122.92 194.46 122.92 193.44 132.18 198.78"/></g><g class="cls-3"><polygon class="cls-6" points="129.82 200.15 129.82 201.17 120.61 206.52 120.62 205.5 129.82 200.15"/><polygon class="cls-6" points="120.62 205.5 120.61 206.52 111.36 201.18 111.36 200.16 120.62 205.5"/></g><g class="cls-3"><polygon class="cls-6" points="118.27 206.86 118.26 207.88 109.06 213.23 109.06 212.21 118.27 206.86"/><polygon class="cls-6" points="109.06 212.21 109.06 213.23 99.81 207.89 99.81 206.87 109.06 212.21"/></g><g class="cls-3"><polygon class="cls-6" points="106.71 213.58 106.71 214.6 97.51 219.95 97.51 218.93 106.71 213.58"/><polygon class="cls-6" points="97.51 218.93 97.51 219.95 88.25 214.6 88.25 213.58 97.51 218.93"/></g><g class="cls-3"><polygon class="cls-6" points="95.16 220.29 95.16 221.31 85.95 226.66 85.96 225.64 95.16 220.29"/><polygon class="cls-6" points="85.96 225.64 85.95 226.66 76.7 221.32 76.7 220.3 85.96 225.64"/></g><g class="cls-3"><polygon class="cls-6" points="83.6 227.01 83.6 228.03 74.4 233.37 74.4 232.35 83.6 227.01"/><polygon class="cls-6" points="74.4 232.35 74.4 233.37 65.15 228.03 65.15 227.01 74.4 232.35"/></g><g class="cls-3"><polygon class="cls-6" points="72.05 233.72 72.04 234.75 62.85 240.09 62.85 239.07 72.05 233.72"/><polygon class="cls-6" points="62.85 239.07 62.85 240.09 53.59 234.75 53.59 233.72 62.85 239.07"/></g><g class="cls-3"><polygon class="cls-6" points="60.49 240.44 60.49 241.46 51.3 246.8 51.3 245.78 60.49 240.44"/><polygon class="cls-6" points="51.3 245.78 51.3 246.8 42.04 241.46 42.04 240.44 51.3 245.78"/></g><g class="cls-3"><polygon class="cls-6" points="48.94 247.15 48.94 248.17 39.73 253.52 39.74 252.5 48.94 247.15"/><polygon class="cls-6" points="39.74 252.5 39.73 253.52 30.48 248.18 30.48 247.16 39.74 252.5"/></g><g class="cls-3"><polygon class="cls-6" points="198.64 173.55 198.64 174.57 179.92 185.45 179.92 184.43 198.64 173.55"/><polygon class="cls-6" points="179.92 184.43 179.92 185.45 170.66 180.11 170.66 179.09 179.92 184.43"/></g><g class="cls-3"><polygon class="cls-6" points="177.83 185.65 177.83 186.67 168.63 192.01 168.63 191 177.83 185.65"/><polygon class="cls-6" points="168.63 191 168.63 192.01 159.37 186.67 159.37 185.65 168.63 191"/></g><g class="cls-3"><polygon class="cls-6" points="166.81 192.05 166.81 193.07 157.6 198.42 157.61 197.4 166.81 192.05"/><polygon class="cls-6" points="157.61 197.4 157.6 198.42 148.35 193.08 148.35 192.06 157.61 197.4"/></g><g class="cls-3"><polygon class="cls-6" points="155.79 198.46 155.78 199.48 146.58 204.82 146.59 203.81 155.79 198.46"/><polygon class="cls-6" points="146.59 203.81 146.58 204.82 137.33 199.48 137.33 198.46 146.59 203.81"/></g><g class="cls-3"><polygon class="cls-6" points="144.76 204.87 144.76 205.89 135.56 211.23 135.56 210.21 144.76 204.87"/><polygon class="cls-6" points="135.56 210.21 135.56 211.23 126.31 205.89 126.31 204.87 135.56 210.21"/></g><g class="cls-3"><polygon class="cls-6" points="133.74 211.27 133.74 212.29 124.54 217.63 124.54 216.62 133.74 211.27"/><polygon class="cls-6" points="124.54 216.62 124.54 217.63 115.28 212.29 115.29 211.27 124.54 216.62"/></g><g class="cls-3"><polygon class="cls-6" points="122.72 217.68 122.71 218.7 113.52 224.04 113.52 223.02 122.72 217.68"/><polygon class="cls-6" points="113.52 223.02 113.52 224.04 104.26 218.7 104.27 217.68 113.52 223.02"/></g><g class="cls-3"><polygon class="cls-6" points="111.7 224.08 111.69 225.1 102.49 230.45 102.49 229.43 111.7 224.08"/><polygon class="cls-6" points="102.49 229.43 102.49 230.45 93.23 225.1 93.24 224.09 102.49 229.43"/></g><g class="cls-3"><polygon class="cls-6" points="100.67 230.49 100.67 231.51 91.47 236.85 91.47 235.83 100.67 230.49"/><polygon class="cls-6" points="91.47 235.83 91.47 236.85 82.21 231.51 82.22 230.49 91.47 235.83"/></g><g class="cls-3"><polygon class="cls-6" points="89.65 236.89 89.65 237.91 80.45 243.26 80.45 242.24 89.65 236.89"/><polygon class="cls-6" points="80.45 242.24 80.45 243.26 71.19 237.91 71.19 236.9 80.45 242.24"/></g><g class="cls-3"><polygon class="cls-6" points="78.63 243.29 78.63 244.31 69.43 249.66 69.43 248.64 78.63 243.29"/><polygon class="cls-6" points="69.43 248.64 69.43 249.66 60.17 244.32 60.17 243.3 69.43 248.64"/></g><g class="cls-3"><polygon class="cls-6" points="67.5 249.76 67.5 250.78 51.25 260.23 51.25 259.2 67.5 249.76"/><polygon class="cls-6" points="51.25 259.2 51.25 260.23 42 254.88 42 253.86 51.25 259.2"/></g><g class="cls-3"><polygon class="cls-6" points="210.22 180.23 210.21 181.25 186.89 194.81 186.9 193.79 210.22 180.23"/><polygon class="cls-6" points="186.9 193.79 186.89 194.81 177.63 189.46 177.63 188.44 186.9 193.79"/></g><g class="cls-3"><polygon class="cls-6" points="184.81 195 184.8 196.02 175.6 201.37 175.6 200.35 184.81 195"/><polygon class="cls-6" points="175.6 200.35 175.6 201.37 166.34 196.02 166.34 195 175.6 200.35"/></g><g class="cls-3"><polygon class="cls-6" points="173.94 201.32 173.93 202.34 164.74 207.68 164.74 206.66 173.94 201.32"/><polygon class="cls-6" points="164.74 206.66 164.74 207.68 155.47 202.33 155.48 201.31 164.74 206.66"/></g><g class="cls-3"><polygon class="cls-6" points="163.07 207.63 163.07 208.65 153.88 213.99 153.88 212.97 163.07 207.63"/><polygon class="cls-6" points="153.88 212.97 153.88 213.99 144.61 208.65 144.62 207.63 153.88 212.97"/></g><g class="cls-3"><polygon class="cls-6" points="152.21 213.94 152.21 214.96 143.01 220.31 143.02 219.29 152.21 213.94"/><polygon class="cls-6" points="143.02 219.29 143.01 220.31 133.75 214.96 133.75 213.94 143.02 219.29"/></g><g class="cls-3"><polygon class="cls-6" points="141.35 220.25 141.34 221.28 132.15 226.62 132.15 225.6 141.35 220.25"/><polygon class="cls-6" points="132.15 225.6 132.15 226.62 122.89 221.27 122.89 220.25 132.15 225.6"/></g><g class="cls-3"><polygon class="cls-6" points="130.49 226.57 130.48 227.59 121.29 232.93 121.29 231.91 130.49 226.57"/><polygon class="cls-6" points="121.29 231.91 121.29 232.93 112.03 227.58 112.03 226.56 121.29 231.91"/></g><g class="cls-3"><polygon class="cls-6" points="119.62 232.88 119.62 233.9 110.43 239.24 110.43 238.22 119.62 232.88"/><polygon class="cls-6" points="110.43 238.22 110.43 239.24 101.16 233.9 101.17 232.88 110.43 238.22"/></g><g class="cls-3"><polygon class="cls-6" points="108.76 239.19 108.76 240.21 99.56 245.56 99.56 244.54 108.76 239.19"/><polygon class="cls-6" points="99.56 244.54 99.56 245.56 90.29 240.21 90.3 239.19 99.56 244.54"/></g><g class="cls-3"><polygon class="cls-6" points="97.9 245.5 97.9 246.53 88.69 251.87 88.7 250.85 97.9 245.5"/><polygon class="cls-6" points="88.7 250.85 88.69 251.87 79.43 246.53 79.43 245.5 88.7 250.85"/></g><g class="cls-3"><polygon class="cls-6" points="86.27 252.26 86.27 253.28 62.82 266.91 62.83 265.89 86.27 252.26"/><polygon class="cls-6" points="62.83 265.89 62.82 266.91 53.56 261.56 53.56 260.54 62.83 265.89"/></g><g class="cls-3"><polygon class="cls-6" points="209.94 193.59 209.94 194.61 204.66 197.68 204.66 196.66 209.94 193.59"/><polygon class="cls-6" points="204.66 196.66 204.66 197.68 195.57 192.43 195.57 191.41 204.66 196.66"/><polygon class="cls-6" points="221.68 200.37 221.68 201.39 209.94 194.61 209.94 193.59 221.68 200.37"/><polygon class="cls-6" points="233.34 193.59 233.34 194.61 221.68 201.39 221.68 200.37 233.34 193.59"/><polygon class="cls-6" points="193.53 203.33 193.53 204.35 184.26 199 184.26 197.98 193.53 203.33"/><polygon class="cls-6" points="202.72 197.99 202.72 199.01 193.53 204.35 193.53 203.33 202.72 197.99"/><polygon class="cls-6" points="210.17 207.06 210.16 208.08 200.9 202.73 200.9 201.71 210.17 207.06"/><polygon class="cls-6" points="219.37 201.71 219.37 202.73 210.16 208.08 210.17 207.06 219.37 201.71"/></g><g class="cls-3"><polygon class="cls-6" points="245.32 200.5 245.31 201.52 221.99 215.07 222 214.05 245.32 200.5"/><polygon class="cls-6" points="222 214.05 221.99 215.07 212.73 209.72 212.73 208.71 222 214.05"/></g><g class="cls-3"><polygon class="cls-6" points="191.76 204.36 191.75 205.38 182.56 210.72 182.56 209.7 191.76 204.36"/><polygon class="cls-6" points="182.56 209.7 182.56 210.72 173.3 205.37 173.3 204.35 182.56 209.7"/></g><g class="cls-3"><polygon class="cls-6" points="180.79 210.73 180.79 211.75 171.59 217.1 171.59 216.08 180.79 210.73"/><polygon class="cls-6" points="171.59 216.08 171.59 217.1 162.32 211.75 162.33 210.73 171.59 216.08"/></g><g class="cls-3"><polygon class="cls-6" points="169.83 217.1 169.82 218.12 160.62 223.47 160.62 222.45 169.83 217.1"/><polygon class="cls-6" points="160.62 222.45 160.62 223.47 151.36 218.12 151.36 217.1 160.62 222.45"/></g><g class="cls-3"><polygon class="cls-6" points="158.86 223.47 158.86 224.5 149.66 229.84 149.66 228.82 158.86 223.47"/><polygon class="cls-6" points="149.66 228.82 149.66 229.84 140.39 224.5 140.4 223.48 149.66 228.82"/></g><g class="cls-3"><polygon class="cls-6" points="147.9 229.85 147.89 230.87 138.69 236.22 138.69 235.2 147.9 229.85"/><polygon class="cls-6" points="138.69 235.2 138.69 236.22 129.43 230.87 129.43 229.85 138.69 235.2"/></g><g class="cls-3"><polygon class="cls-6" points="136.92 236.23 136.92 237.25 127.72 242.59 127.73 241.57 136.92 236.23"/><polygon class="cls-6" points="127.73 241.57 127.72 242.59 118.46 237.24 118.46 236.22 127.73 241.57"/></g><g class="cls-3"><polygon class="cls-6" points="125.96 242.6 125.95 243.62 116.76 248.96 116.76 247.94 125.96 242.6"/><polygon class="cls-6" points="116.76 247.94 116.76 248.96 107.5 243.61 107.5 242.59 116.76 247.94"/></g><g class="cls-3"><polygon class="cls-6" points="114.99 248.97 114.99 249.99 105.78 255.34 105.79 254.32 114.99 248.97"/><polygon class="cls-6" points="105.79 254.32 105.78 255.34 96.52 249.99 96.53 248.97 105.79 254.32"/></g><g class="cls-3"><polygon class="cls-6" points="104.02 255.34 104.02 256.36 94.82 261.71 94.82 260.69 104.02 255.34"/><polygon class="cls-6" points="94.82 260.69 94.82 261.71 85.56 256.36 85.56 255.34 94.82 260.69"/></g><g class="cls-3"><polygon class="cls-6" points="92.57 262 92.56 263.02 74.39 273.58 74.39 272.56 92.57 262"/><polygon class="cls-6" points="74.39 272.56 74.39 273.58 65.13 268.24 65.13 267.22 74.39 272.56"/></g><g class="cls-3"><polygon class="cls-6" points="208.4 208.08 208.4 209.1 199.2 214.45 199.2 213.43 208.4 208.08"/><polygon class="cls-6" points="199.2 213.43 199.2 214.45 189.94 209.1 189.94 208.08 199.2 213.43"/></g><g class="cls-3"><polygon class="cls-6" points="197.43 214.46 197.43 215.48 188.23 220.82 188.24 219.8 197.43 214.46"/><polygon class="cls-6" points="188.24 219.8 188.23 220.82 178.97 215.47 178.97 214.46 188.24 219.8"/></g><g class="cls-3"><polygon class="cls-6" points="186.47 220.83 186.46 221.85 177.27 227.19 177.27 226.18 186.47 220.83"/><polygon class="cls-6" points="177.27 226.18 177.27 227.19 168 221.85 168.01 220.83 177.27 226.18"/></g><g class="cls-3"><polygon class="cls-6" points="175.5 227.2 175.5 228.22 166.29 233.57 166.3 232.55 175.5 227.2"/><polygon class="cls-6" points="166.3 232.55 166.29 233.57 157.03 228.22 157.03 227.2 166.3 232.55"/></g><g class="cls-3"><polygon class="cls-6" points="164.53 233.58 164.53 234.6 155.33 239.94 155.33 238.93 164.53 233.58"/><polygon class="cls-6" points="155.33 238.93 155.33 239.94 146.07 234.6 146.07 233.58 155.33 238.93"/></g><g class="cls-3"><polygon class="cls-6" points="153.57 239.95 153.57 240.97 144.36 246.32 144.37 245.3 153.57 239.95"/><polygon class="cls-6" points="144.37 245.3 144.36 246.32 135.1 240.97 135.1 239.95 144.37 245.3"/></g><g class="cls-3"><polygon class="cls-6" points="142.6 246.32 142.6 247.34 133.4 252.69 133.4 251.67 142.6 246.32"/><polygon class="cls-6" points="133.4 251.67 133.4 252.69 124.13 247.34 124.14 246.32 133.4 251.67"/></g><g class="cls-3"><polygon class="cls-6" points="131.63 252.7 131.63 253.72 122.43 259.06 122.43 258.04 131.63 252.7"/><polygon class="cls-6" points="122.43 258.04 122.43 259.06 113.17 253.72 113.17 252.69 122.43 258.04"/></g><g class="cls-3"><polygon class="cls-6" points="120.66 259.07 120.66 260.09 111.47 265.44 111.47 264.41 120.66 259.07"/><polygon class="cls-6" points="111.47 264.41 111.47 265.44 102.2 260.09 102.21 259.07 111.47 264.41"/></g><g class="cls-3"><polygon class="cls-6" points="109.4 265.61 109.4 266.63 85.95 280.26 85.96 279.24 109.4 265.61"/><polygon class="cls-6" points="85.96 279.24 85.95 280.26 76.69 274.91 76.69 273.89 85.96 279.24"/></g><g class="cls-3"><polygon class="cls-6" points="219.9 215.27 219.9 216.29 210.69 221.64 210.7 220.62 219.9 215.27"/><polygon class="cls-6" points="210.7 220.62 210.69 221.64 201.43 216.29 201.43 215.27 210.7 220.62"/></g><g class="cls-3"><polygon class="cls-6" points="209.01 221.6 209.01 222.62 199.81 227.97 199.81 226.94 209.01 221.6"/><polygon class="cls-6" points="199.81 226.94 199.81 227.97 190.54 222.62 190.55 221.6 199.81 226.94"/></g><g class="cls-3"><polygon class="cls-6" points="198.13 227.92 198.13 228.94 188.93 234.29 188.93 233.27 198.13 227.92"/><polygon class="cls-6" points="188.93 233.27 188.93 234.29 179.67 228.94 179.67 227.92 188.93 233.27"/></g><g class="cls-3"><polygon class="cls-6" points="187.25 234.25 187.25 235.27 178.04 240.61 178.05 239.59 187.25 234.25"/><polygon class="cls-6" points="178.05 239.59 178.04 240.61 168.78 235.27 168.78 234.25 178.05 239.59"/></g><g class="cls-3"><polygon class="cls-6" points="176.4 240.55 176.4 241.57 134.65 265.83 134.65 264.81 176.4 240.55"/><polygon class="cls-6" points="134.65 264.81 134.65 265.83 125.39 260.48 125.39 259.46 134.65 264.81"/></g><g class="cls-3"><polygon class="cls-6" points="132.48 266.08 132.47 267.1 123.27 272.44 123.27 271.42 132.48 266.08"/><polygon class="cls-6" points="123.27 271.42 123.27 272.44 114.01 267.1 114.01 266.08 123.27 271.42"/></g><g class="cls-3"><polygon class="cls-6" points="121.38 272.53 121.37 273.55 97.92 287.17 97.93 286.15 121.38 272.53"/><polygon class="cls-6" points="97.93 286.15 97.92 287.17 88.66 281.83 88.67 280.81 97.93 286.15"/></g><polygon class="cls-1" points="187.59 166.58 178.39 171.92 169.14 166.58 178.34 161.23 187.59 166.58"/><polygon class="cls-1" points="176.04 173.29 166.84 178.64 157.58 173.29 166.78 167.95 176.04 173.29"/><polygon class="cls-1" points="164.49 180 155.28 185.35 146.03 180.01 155.23 174.66 164.49 180"/><polygon class="cls-1" points="152.93 186.72 143.73 192.06 134.48 186.72 143.67 181.38 152.93 186.72"/><polygon class="cls-1" points="141.37 193.44 132.18 198.78 122.92 193.44 132.12 188.09 141.37 193.44"/><polygon class="cls-1" points="129.82 200.15 120.62 205.5 111.36 200.16 120.56 194.81 129.82 200.15"/><polygon class="cls-1" points="118.27 206.86 109.06 212.21 99.81 206.87 109.01 201.52 118.27 206.86"/><polygon class="cls-1" points="106.71 213.58 97.51 218.93 88.25 213.58 97.46 208.24 106.71 213.58"/><polygon class="cls-1" points="95.16 220.29 85.96 225.64 76.7 220.3 85.91 214.95 95.16 220.29"/><polygon class="cls-1" points="83.6 227.01 74.4 232.35 65.15 227.01 74.34 221.67 83.6 227.01"/><polygon class="cls-1" points="72.05 233.72 62.85 239.07 53.59 233.72 62.79 228.38 72.05 233.72"/><polygon class="cls-1" points="60.49 240.44 51.3 245.78 42.04 240.44 51.24 235.09 60.49 240.44"/><polygon class="cls-1" points="48.94 247.15 39.74 252.5 30.48 247.16 39.68 241.81 48.94 247.15"/><polygon class="cls-1" points="198.64 173.55 179.92 184.43 170.66 179.09 189.39 168.21 198.64 173.55"/><polygon class="cls-1" points="177.83 185.65 168.63 191 159.37 185.65 168.58 180.3 177.83 185.65"/><polygon class="cls-1" points="166.81 192.05 157.61 197.4 148.35 192.06 157.55 186.71 166.81 192.05"/><polygon class="cls-1" points="155.79 198.46 146.59 203.81 137.33 198.46 146.53 193.11 155.79 198.46"/><polygon class="cls-1" points="144.76 204.87 135.56 210.21 126.31 204.87 135.5 199.52 144.76 204.87"/><polygon class="cls-1" points="133.74 211.27 124.54 216.62 115.29 211.27 124.48 205.93 133.74 211.27"/><polygon class="cls-1" points="122.72 217.68 113.52 223.02 104.27 217.68 113.46 212.33 122.72 217.68"/><polygon class="cls-1" points="111.7 224.08 102.49 229.43 93.24 224.09 102.44 218.74 111.7 224.08"/><polygon class="cls-1" points="100.67 230.49 91.47 235.83 82.22 230.49 91.42 225.14 100.67 230.49"/><polygon class="cls-1" points="89.65 236.89 80.45 242.24 71.19 236.9 80.4 231.55 89.65 236.89"/><polygon class="cls-1" points="78.63 243.29 69.43 248.64 60.17 243.3 69.38 237.95 78.63 243.29"/><polygon class="cls-1" points="67.5 249.76 51.25 259.2 42 253.86 58.24 244.42 67.5 249.76"/><polygon class="cls-1" points="210.22 180.23 186.9 193.79 177.63 188.44 200.95 174.89 210.22 180.23"/><polygon class="cls-1" points="184.81 195 175.6 200.35 166.34 195 175.54 189.65 184.81 195"/><polygon class="cls-1" points="173.94 201.32 164.74 206.66 155.48 201.31 164.67 195.97 173.94 201.32"/><polygon class="cls-1" points="163.07 207.63 153.88 212.97 144.62 207.63 153.81 202.28 163.07 207.63"/><polygon class="cls-1" points="152.21 213.94 143.02 219.29 133.75 213.94 142.95 208.59 152.21 213.94"/><polygon class="cls-1" points="141.35 220.25 132.15 225.6 122.89 220.25 132.09 214.91 141.35 220.25"/><polygon class="cls-1" points="130.49 226.57 121.29 231.91 112.03 226.56 121.22 221.22 130.49 226.57"/><polygon class="cls-1" points="119.62 232.88 110.43 238.22 101.17 232.88 110.36 227.53 119.62 232.88"/><polygon class="cls-1" points="108.76 239.19 99.56 244.54 90.3 239.19 99.5 233.84 108.76 239.19"/><polygon class="cls-1" points="97.9 245.5 88.7 250.85 79.43 245.5 88.64 240.16 97.9 245.5"/><polygon class="cls-1" points="86.27 252.26 62.83 265.89 53.56 260.54 77.01 246.91 86.27 252.26"/><polygon class="cls-1" points="233.34 193.59 221.68 200.37 209.94 193.59 204.66 196.66 195.57 191.41 212.52 181.56 233.34 193.59"/><polygon class="cls-1" points="202.72 197.99 193.53 203.33 184.26 197.98 193.46 192.64 202.72 197.99"/><polygon class="cls-1" points="219.37 201.71 210.17 207.06 200.9 201.71 210.11 196.36 219.37 201.71"/><polygon class="cls-1" points="245.32 200.5 222 214.05 212.73 208.71 236.05 195.15 245.32 200.5"/><polygon class="cls-1" points="191.76 204.36 182.56 209.7 173.3 204.35 182.5 199.01 191.76 204.36"/><polygon class="cls-1" points="180.79 210.73 171.59 216.08 162.33 210.73 171.53 205.38 180.79 210.73"/><polygon class="cls-1" points="169.83 217.1 160.62 222.45 151.36 217.1 160.56 211.75 169.83 217.1"/><polygon class="cls-1" points="158.86 223.47 149.66 228.82 140.4 223.48 149.6 218.13 158.86 223.47"/><polygon class="cls-1" points="147.9 229.85 138.69 235.2 129.43 229.85 138.63 224.5 147.9 229.85"/><polygon class="cls-1" points="136.92 236.23 127.73 241.57 118.46 236.22 127.66 230.88 136.92 236.23"/><polygon class="cls-1" points="125.96 242.6 116.76 247.94 107.5 242.59 116.69 237.25 125.96 242.6"/><polygon class="cls-1" points="114.99 248.97 105.79 254.32 96.53 248.97 105.73 243.62 114.99 248.97"/><polygon class="cls-1" points="104.02 255.34 94.82 260.69 85.56 255.34 94.76 250 104.02 255.34"/><polygon class="cls-1" points="92.57 262 74.39 272.56 65.13 267.22 83.3 256.65 92.57 262"/><polygon class="cls-1" points="208.4 208.08 199.2 213.43 189.94 208.08 199.14 202.73 208.4 208.08"/><polygon class="cls-1" points="197.43 214.46 188.24 219.8 178.97 214.46 188.17 209.11 197.43 214.46"/><polygon class="cls-1" points="186.47 220.83 177.27 226.18 168.01 220.83 177.2 215.48 186.47 220.83"/><polygon class="cls-1" points="175.5 227.2 166.3 232.55 157.03 227.2 166.24 221.86 175.5 227.2"/><polygon class="cls-1" points="164.53 233.58 155.33 238.93 146.07 233.58 155.27 228.23 164.53 233.58"/><polygon class="cls-1" points="153.57 239.95 144.37 245.3 135.1 239.95 144.31 234.6 153.57 239.95"/><polygon class="cls-1" points="142.6 246.32 133.4 251.67 124.14 246.32 133.34 240.97 142.6 246.32"/><polygon class="cls-1" points="131.63 252.7 122.43 258.04 113.17 252.69 122.37 247.35 131.63 252.7"/><polygon class="cls-1" points="120.66 259.07 111.47 264.41 102.21 259.07 111.4 253.72 120.66 259.07"/><polygon class="cls-1" points="109.4 265.61 85.96 279.24 76.69 273.89 100.14 260.27 109.4 265.61"/><polygon class="cls-1" points="219.9 215.27 210.7 220.62 201.43 215.27 210.64 209.92 219.9 215.27"/><polygon class="cls-1" points="209.01 221.6 199.81 226.94 190.55 221.6 199.75 216.25 209.01 221.6"/><polygon class="cls-1" points="198.13 227.92 188.93 233.27 179.67 227.92 188.87 222.58 198.13 227.92"/><polygon class="cls-1" points="187.25 234.25 178.05 239.59 168.78 234.25 177.99 228.9 187.25 234.25"/><polygon class="cls-1" points="176.4 240.55 134.65 264.81 125.39 259.46 167.14 235.2 176.4 240.55"/><polygon class="cls-1" points="132.48 266.08 123.27 271.42 114.01 266.08 123.21 260.73 132.48 266.08"/><polygon class="cls-1" points="121.38 272.53 97.93 286.15 88.67 280.81 112.11 267.18 121.38 272.53"/><path class="cls-2" d="M218.89,254.86a3,3,0,0,1-1,.92L181.7,276.65a7.18,7.18,0,0,1-6.48,0l-16.87-9.74a3.06,3.06,0,0,1-1-.9c-.65-.95-.31-2.08,1-2.84l36.16-20.88a7.18,7.18,0,0,1,6.48,0L217.86,252C219.18,252.8,219.52,253.91,218.89,254.86Z"/><path class="cls-14" d="M218.89,254.86a3,3,0,0,1-1,.92L181.7,276.65a7.18,7.18,0,0,1-6.48,0l-16.87-9.74a3.06,3.06,0,0,1-1-.9,2.89,2.89,0,0,1,1-.92l36.16-20.88a7.12,7.12,0,0,1,6.48,0L217.86,254A2.82,2.82,0,0,1,218.89,254.86Z"/></g><path class="cls-15" d="M86.3,100.82c2.09,3.11,3.59,4.11,7.91,3a191.69,191.69,0,0,0,11.12-23.64c2.89-7.6,28.3-39.44,12.91-46.85-9.47-4.56-16,.71-19.07,9.65-2.26,6.52-5.66,23-9,33.14C84,93.84,82.61,98.52,86.3,100.82Z"/><path class="cls-16" d="M105.64,51.19c-2.54,3.53-2.8,8.76-5.49,13.17-6.65,10.91-.51,6.43-1.9,9.28-9,18.44.49,13.58-5.37,22.61-1.61,2.48-3.64,3.83-8.17,2.87,3.05,4.72,5.6,6.46,9.5,4.69,2.41-.19,8.19-15.94,11.12-23.64,2.35-6.18,1.9-7.8,8.53-9.55.66-.36,1.27-.72,1.85-1.08C112.21,63.49,110.77,47.41,105.64,51.19Z"/><path class="cls-17" d="M123.68,208.12c1,4.38,2.7,7.76,1.4,13.43-3.74,3.41-9.4,6.91-14.42,9.71v0c-9.1,5.34-20.33,8.43-23.39,1.39-.48-1.87,1.12-4.46,2.55-5.76,4.33-3.95,11.27-5.18,12.77-11.49a21.59,21.59,0,0,0,.48-5.53Z"/><path class="cls-18" d="M125.54,218.14c-2.46,5.1-5.36,4-7.83,5.83-7.57,5.55-9.29,10.73-20.24,12.25-4.42.61-9.66-1.25-10.33-4l.27,2.88c.81,2.29,6,4.48,10.35,3.75,6.71-1.13,11.82-4.55,18.65-9.31,5.08-3.54,9.07-4.7,10.28-6.87S125.92,219.67,125.54,218.14Z"/><path class="cls-17" d="M158.11,228.27c1,4.38,2.7,7.76,1.4,13.43-3.74,3.41-9.4,6.91-14.42,9.71v0c-9.1,5.35-20.33,8.43-23.39,1.39-.48-1.86,1.12-4.46,2.55-5.76,4.33-3.95,11.27-5.18,12.77-11.49a22,22,0,0,0,.48-5.53Z"/><path class="cls-19" d="M127.34,246.79c6.67-5.87,9.89-2.85,12.1-9.32,4.75,2.45,14.43.17,18-4.9h0c2.28,7.64-2.56,6-7.69,9.42-4.94,3.3-13.15,11.61-19.8,11.61C124.66,253.6,124.46,249.33,127.34,246.79Z"/><path class="cls-18" d="M160,238.29c-2.46,5.1-5.36,4-7.83,5.83-7.57,5.55-9.29,10.73-20.24,12.25-4.42.61-9.66-1.24-10.33-4l.27,2.87c.81,2.29,6,4.48,10.35,3.75,11.93-2,27.76-13.9,28.93-16.17C162.19,240.8,160.35,239.82,160,238.29Z"/><path class="cls-15" d="M157.74,50.43s-1,14.76-1.9,20.64c-1.71,6.83,1.21,20.17-1.77,29.61-2.33,7.36-2.11,10.62-2.49,16.26-12.43,17.61-39.65,12.84-52.19-13.15,1.44-12-1.57-32.48,6.58-53.46,2.42-6.22,4.25-21.17,18.24-15.91C144.64,36.67,158.05,50.12,157.74,50.43Z"/><path class="cls-15" d="M99.65,102.24a451.76,451.76,0,0,0-5.83,66.7c-.15,17.75.13,37,9.09,38.36,1.58,9.7,20.83,8.46,20-3.5,3.35,1.11-3.76-29.78-.55-53,2.14,23.59,4.24,77.88,14.86,76.11,0,8.66,19.6,13.91,20-3.5,7.64-2.82-3.61-40.94-3.73-66.7-1.95-24.76-2-38.84-1.89-43.11-3.33,13.89-46.28,9.45-43.87-5.71Z"/><path class="cls-16" d="M99.65,102.24a451.76,451.76,0,0,0-5.83,66.7c-.15,17.75.13,37,9.09,38.36.85,8,8.24,8.32,15.92,3.91-16.48,1.67,2.77-24.25-8.68-27.6-6-1.77-11.77-5-11.92-7.56-1.32-23,5.29-47.44,4.09-69.1a17.08,17.08,0,0,0-2.26-4.43Z"/><path class="cls-16" d="M122.37,150.79c2.14,23.59,4.24,77.88,14.86,76.11,0,6,10.15,12.12,21.3,3.09-1.29-.49-7.48,2.63-9.34,1.46-12.77-8-1.26-32.47-4.1-35.31-4.18-4.19-9.42-1.09-10.34-6.74-2.66-16.39.84-45.39,5.48-60.8-2.52-1-12.85,13.28-19.73,10.37-1.86-.79-9.9-5.87-13.77-21.66C101.84,122.66,119.46,147.82,122.37,150.79Z"/><path class="cls-20" d="M137,231a24.4,24.4,0,0,1,.23-4.08c1.48,8.38,20.84,6.38,20-3.5a20.42,20.42,0,0,1,1.51,5.86C156.94,237.54,137.65,239.2,137,231Z"/><path class="cls-18" d="M92.3,104.71c-1.59-1-6.24-4.3-6.5-1.67-.7,2.2-3.3,10.69-3.36,11.32a20.11,20.11,0,0,0-.14,2.81,4.75,4.75,0,0,0,1.11,3.32c.65,1.09,2.44,4.27,3.11,5.2,1.37,1.54,2.94,3.78,4.5,4.89a1.14,1.14,0,0,0,.65-1c.58.45,1.37,1.44,2,.8a2.2,2.2,0,0,0,.26-2.5l.55.63c1.4-.08,1.32-2.5,1.07-3.3s-1.79-2.79-2.07-3.58c-.68-1.91-2.29-6.31-.33-1.94.83,1.9,2.34,4.34,3,3.39,1.34-2-.41-3-1.05-5-.56-1.76-1.51-5.39-1.19-7.37C94.62,106.37,94.08,105.84,92.3,104.71Z"/><path class="cls-17" d="M90.57,109.44c.59,1.82-1.37,4-2.32,5.57-1.06,1.76,1,4.37-.9,6.59S85,113.74,85,112.35c0-1.11.8-4.88,2.28-5.13C89.83,106.8,89.8,108.12,90.57,109.44Z"/><path class="cls-17" d="M86.3,100.82c4.2,1.64,3.48,2.27,8.66,2.69-1.14,2.44-.91,2.88-.91,2.88-4.41.67-7.13-.2-8.59-2.26A3.65,3.65,0,0,1,86.3,100.82Z"/><path class="cls-20" d="M102.68,211.39a24.56,24.56,0,0,1,.23-4.09c1.48,8.38,20.84,6.38,20-3.5a20.42,20.42,0,0,1,1.51,5.86C122.62,217.94,103.34,219.6,102.68,211.39Z"/><path class="cls-19" d="M93.08,227.39c6.67-5.88,9.89-2.85,12.1-9.32,4.74,2.44,14.43.16,18-4.9h0c2.29,7.64-2.55,6-7.68,9.42-5,3.3-13.15,11.61-19.8,11.61C90.4,234.2,90.2,229.93,93.08,227.39Z"/><path class="cls-17" d="M154.86,145.31c-.18,2.13-2,2.77-3.74,4-2,1.43-2.21,5.86-5.31,7.44-1.58.81-1.44-1.78-.23-4.14s.73-4.57,1.78-6.45c.63-1.12,3.09-4.81,4.83-4.49C155.22,142.26,154.59,143.63,154.86,145.31Z"/><path class="cls-18" d="M160.65,137.19c-.65-2-3.77-5.24-4.65-2.38-1.3,2.3-7.37,9.55-7.58,10.23-.38,1.14.61,3.57.38,4.76a4.91,4.91,0,0,0,.56,3.84c.53,1.32,1.93,5.13,2.51,6.26,1.27,1.94,3.23,6.52,4.21,6.15.47-.17,1.28-.74,1.37-1.32.47.7.82,2,1.84,1.52a2.42,2.42,0,0,0,.86-2.72l.5.79c1.46.51,1.79-2.2,1.67-3.13s-1.18-3.71-1.34-4.62c-.38-2.23-1.3-7.35.05-2.2.55,2.24,1.9,5.27,2.76,4.24,1.49-1.78,0-3.57-.28-5.88-.28-2-1.24-6.35-.43-8.48C162.91,141.75,161.55,139.94,160.65,137.19Z"/><path class="cls-17" d="M151.56,143.89a24.33,24.33,0,0,0-2.51,6.83c.6,1.63,2,2.59,3.78,1.76,1.26.9,2.85.82,3.46-.08a2.45,2.45,0,0,0,3.22-.83,4.18,4.18,0,0,0,2.11-1.33c.62-1.77.23-3.4.6-5.6C158.22,144.75,153.33,145.5,151.56,143.89Z"/><path class="cls-16" d="M178,103.21c1.06,14.12-7.91,36-14.17,36.57-5.16,1.6-8,3-10.59-1.8-3.45-2.8,2.56-14.53,2.84-24.73.3-11-1.38-22.37-8.57-27.33-13.29-17.39,6.17-38.54,9.67-35.78a19,19,0,0,1,5.83,5C169.29,63.14,176.21,79,178,103.21Z"/><path class="cls-15" d="M178,103.21c1,14.12-8.33,36.51-13.16,35.67-1.22-.54,1.21-3.53-3.65-1.61-.62.25-2.76.25-3.06-.64-.4-1.15.5-2.94,1.41-5.3,2.69-7,5.57-20.12,3.33-28.2-2.53-9.11-19.27-26.18-19-34.07.48-12.42,8.4-23,14.48-18.18.8.54,2,.91,4.63,4.28C169.29,63.14,176.21,79,178,103.21Z"/><path class="cls-17" d="M152.66,137.11a31.19,31.19,0,0,0,11.19,2.67c-1.14,2.43-1.93,3.92-1.93,3.92-5.61.69-9.6-.35-10-3.26C152.13,139.51,152.36,138.38,152.66,137.11Z"/><path class="cls-21" d="M103.35,58.38c-1.2,10.08,12.73,20.54,26.32,18.69,4.92-.67,7.25-1.72,10.52-9.89,3-7.44,6.5-4.36,10.14-3.28,2.68.81,3.37,2.45,6.16,1.79.68-6.69,1.25-15.26,1.25-15.26.31-.31-13.1-13.76-33.53-16-14-5.26-15.82,9.69-18.24,15.91A76.88,76.88,0,0,0,103.35,58.38Z"/><path class="cls-16" d="M144.59,15.89c.06,2.81-1.07,19.85,2.12,26-18.39,17.56-32.44,16.81-26-2.72,3.94-2.9,6-1.38,2.07-12.09C122.08,23.71,144.59,15.89,144.59,15.89Z"/><path class="cls-22" d="M118.84,135.82a1.68,1.68,0,0,1-1.6-1.15c-4-12.06-5-29.4-3.13-53,.71-8.92,3.22-16.25,5.24-22.14,2.17-6.36,3.89-11.38,2.22-15.09A1.68,1.68,0,1,1,124.63,43c2.23,4.92.32,10.5-2.1,17.56-2,6-4.39,12.82-5.07,21.32-1.85,23.17-.88,40.08,3,51.7a1.69,1.69,0,0,1-1.07,2.13A1.67,1.67,0,0,1,118.84,135.82Z"/><path class="cls-15" d="M112.6,18.46c.17,1.48,1.94,1.58.11,7.78-1.12,3.82-.51,3.83,1.51,10.12,1.14,3.56,6.94,10.53,11,7.91,1.26-.81,5.84-8.16,8.84-1.21.89,2.06,3.05-1.75,4.28-7.22.31-1.37,2.34-15.75,2.75-7.06.62,13.28,5.75-15,2.46-20.56-3.25-5.73-12.09-11.54-26-6C112,4.47,106.36,11,109.29,16.68,110.12,18.3,112.75,16.13,112.6,18.46Z"/><path class="cls-21" d="M111.25,9.2c3.1-.44,11.36-1.34,14.58,5.31.65,1.35,7.5,14.52,6.33,5.23-.48-3.82,3.4-3.17,3.65-1.4,3.32,23.47,3.19-4.07,5.73,0a8.45,8.45,0,0,1,.63,3.61c2.22-5.59,1.71-10.6.05-13.38C135.87-2.67,117.13-1.85,111.25,9.2Z"/><path class="cls-21" d="M145.13,61.57a24.81,24.81,0,0,0,9.43,9.35c5.18,2.63,1.1,2.46.89,5.67-.27,4.16,8.54,1.62,7.56,10.58-.54,4.94,5.09,13.14,7.23,16.92,3.62,6.39,5.93,1.33,7.33-5.8-2.32-21.42-8.72-35.7-14.54-43.13-2.64-3.37-3.83-3.74-4.63-4.28C153.6,47.1,147.66,52.86,145.13,61.57Z"/><path class="cls-16" d="M118.09,11.58C123,14.67,130,24.65,130.53,32.69s-.63,8.53-2.27,9.88c-1.39.74-2.53,1.34-3.09,1.7-4,2.62-9.81-4.35-11-7.91-2-6.29-2.63-6.3-1.51-10.12,1.83-6.2.06-6.3-.11-7.78.15-2.33-2.48-.16-3.31-1.78a6.7,6.7,0,0,1-.57-1.5C110.42,10.64,113.15,8.49,118.09,11.58Z"/><path class="cls-23" d="M118,13.12c5.3,3.28,10,12.52,10.31,21.79s-5,12.44-10.31,9.15-9.61-12.88-9.61-21.42S112.7,9.83,118,13.12Z"/><path class="cls-24" d="M108.52,21.65,105.81,35.8l7.34,10.75c2.76-1,4.29-1.32,7-2.38l.07,0c9.3-3.81,2.77-25-3.26-28.79C112.72,12.73,109.19,15.53,108.52,21.65Z"/><path class="cls-25" d="M112.18,45.13c7.34-1.29,10.36-13.72,9.79-22.89-1.44-3.2-3.24-5.79-5-6.88-4.25-2.63-7.78.17-8.45,6.29L105.81,35.8Z"/><path class="cls-26" d="M111.8,15,106.9,37.4l2.15.55,9.34-21.52A11.24,11.24,0,0,0,117,15.36C115,14.15,113.23,14.09,111.8,15Z"/><path class="cls-27" d="M99.94,39.66l5.77-5a1.4,1.4,0,0,1,.26-.16c4.39-2.3,13.27,8.44,9.53,11.85h0l-5.61,4.82Z"/><path class="cls-23" d="M108.82,43.72,114,39.31a9.69,9.69,0,0,1,1.89,4.11l-5.26,4.44A9.65,9.65,0,0,0,108.82,43.72Z"/><path class="cls-23" d="M109.37,51.59c-2,1-5.6-.86-8.11-4.21s-3-6.92-1-8,5.6.85,8.11,4.21S111.34,50.55,109.37,51.59Z"/><path class="cls-23" d="M107.69,42.37,112.91,38c.23.25.45.5.66.76l-5.21,4.4C108.14,42.86,107.92,42.61,107.69,42.37Z"/><path class="cls-27" d="M99.1,41.19l1.14-1,.24-.14c4.07-2.14,12.29,7.82,8.83,11h0l-1,.85Z"/><path class="cls-23" d="M107.85,52.24c-1.83.95-5.19-.79-7.51-3.9s-2.74-6.4-.92-7.36,5.19.79,7.52,3.9S109.67,51.28,107.85,52.24Z"/><path class="cls-28" d="M107.52,34.4,102.09,39a6.12,6.12,0,0,1,2.3.75L110,35.28A5.83,5.83,0,0,0,107.52,34.4Z"/></g></g></svg>