<svg xmlns="http://www.w3.org/2000/svg" xmlns:xlink="http://www.w3.org/1999/xlink" viewBox="0 0 373.57 242.18">
    <defs>
        <style>
            .cls-1,.cls-49{mix-blend-mode:lighten;}.cls-1{opacity:0.5;fill:url(#Безымянный_градиент_45);}.cls-2{fill:none;}.cls-3{isolation:isolate;}.cls-26,.cls-4,.cls-6{opacity:0.3;}.cls-5{fill:url(#Безымянный_градиент_54);}.cls-6,.cls-8{fill:#0f054c;}.cls-7{fill:url(#Безымянный_градиент_55);}.cls-10,.cls-16,.cls-9{fill:#42e8e0;}.cls-10,.cls-54{opacity:0.4;}.cls-11{fill:url(#Безымянный_градиент_54-2);}.cls-12{fill:url(#Безымянный_градиент_55-2);}.cls-13{fill:#fff;}.cls-14{fill:url(#Безымянный_градиент_54-3);}.cls-15{fill:url(#Безымянный_градиент_55-3);}.cls-16{opacity:0.2;}.cls-17{fill:url(#Безымянный_градиент_54-4);}.cls-18{fill:url(#Безымянный_градиент_55-4);}.cls-19{fill:#5351af;}.cls-20{fill:url(#Безымянный_градиент_54-5);}.cls-21{fill:url(#Безымянный_градиент_55-5);}.cls-22{fill:url(#Безымянный_градиент_54-6);}.cls-23{fill:url(#Безымянный_градиент_55-6);}.cls-24{fill:url(#Безымянный_градиент_24);}.cls-25{fill:url(#Безымянный_градиент_3);}.cls-26,.cls-29,.cls-54,.cls-68{fill:#24126a;}.cls-27{fill:url(#Безымянный_градиент_3-2);}.cls-28{fill:url(#Безымянный_градиент_24-2);}.cls-30,.cls-34{opacity:0.51;}.cls-31,.cls-34{fill:#453c9e;}.cls-32{fill:url(#Безымянный_градиент_24-3);}.cls-33{fill:url(#Безымянный_градиент_3-3);}.cls-35{clip-path:url(#clip-path);}.cls-36{fill:url(#Безымянный_градиент_54-7);}.cls-37{fill:url(#Безымянный_градиент_51);}.cls-38{fill:url(#Безымянный_градиент_55-7);}.cls-39{fill:url(#Безымянный_градиент_54-8);}.cls-40{fill:url(#Безымянный_градиент_51-2);}.cls-41{fill:url(#Безымянный_градиент_55-8);}.cls-42{fill:url(#Безымянный_градиент_54-9);}.cls-43{fill:url(#Безымянный_градиент_51-3);}.cls-44{fill:url(#Безымянный_градиент_55-9);}.cls-45{fill:url(#Безымянный_градиент_54-10);}.cls-46{fill:url(#Безымянный_градиент_51-4);}.cls-47{fill:url(#Безымянный_градиент_55-10);}.cls-48{fill:url(#Безымянный_градиент_55-11);}.cls-49,.cls-68{opacity:0.8;}.cls-49{fill:url(#Безымянный_градиент_48);}.cls-50{opacity:0.15;}.cls-51{clip-path:url(#clip-path-2);}.cls-52{fill:url(#Безымянный_градиент_24-4);}.cls-53{fill:url(#Безымянный_градиент_3-4);}.cls-55{fill:url(#Безымянный_градиент_54-11);}.cls-56{fill:url(#Безымянный_градиент_51-5);}.cls-57{fill:url(#Безымянный_градиент_55-12);}.cls-58{fill:url(#Безымянный_градиент_54-12);}.cls-59{fill:url(#Безымянный_градиент_51-6);}.cls-60{fill:url(#Безымянный_градиент_55-13);}.cls-61{fill:url(#Безымянный_градиент_54-13);}.cls-62{fill:url(#Безымянный_градиент_51-7);}.cls-63{fill:url(#Безымянный_градиент_55-14);}.cls-64{fill:url(#Безымянный_градиент_54-14);}.cls-65{fill:url(#Безымянный_градиент_51-8);}.cls-66{fill:url(#Безымянный_градиент_55-15);}.cls-67{fill:url(#Безымянный_градиент_55-16);}.cls-69{fill:url(#Безымянный_градиент_54-15);}.cls-70{fill:url(#Безымянный_градиент_51-9);}.cls-71{fill:url(#Безымянный_градиент_55-17);}.cls-72{fill:url(#Безымянный_градиент_54-16);}.cls-73{fill:url(#Безымянный_градиент_51-10);}.cls-74{fill:url(#Безымянный_градиент_55-18);}.cls-75{fill:url(#Безымянный_градиент_54-17);}.cls-76{fill:url(#Безымянный_градиент_51-11);}.cls-77{fill:url(#Безымянный_градиент_55-19);}.cls-78{fill:url(#Безымянный_градиент_54-18);}.cls-79{fill:url(#Безымянный_градиент_51-12);}.cls-80{fill:url(#Безымянный_градиент_55-20);}.cls-81{fill:url(#Безымянный_градиент_55-21);}
        </style>
        <radialGradient id="Безымянный_градиент_45" cx="193.66" cy="146.23" r="126.6" gradientUnits="userSpaceOnUse">
            <stop offset="0" stop-color="#42e8e0"/>
            <stop offset="0.11" stop-color="#37b6bf"/>
            <stop offset="0.22" stop-color="#2c87a1"/>
            <stop offset="0.34" stop-color="#235f87"/>
            <stop offset="0.46" stop-color="#1c3f72"/>
            <stop offset="0.58" stop-color="#162561"/>
            <stop offset="0.71" stop-color="#121355"/>
            <stop offset="0.85" stop-color="#10084e"/>
            <stop offset="1" stop-color="#0f054c"/>
        </radialGradient>
        <linearGradient id="Безымянный_градиент_54" x1="327.25" y1="182.33" x2="368.06" y2="205.89"
                        gradientUnits="userSpaceOnUse">
            <stop offset="0" stop-color="#bcbeff"/>
            <stop offset="0.23" stop-color="#aaadf8"/>
            <stop offset="0.68" stop-color="#7c83e5"/>
            <stop offset="1" stop-color="#5761d7"/>
        </linearGradient>
        <linearGradient id="Безымянный_градиент_55" x1="322.13" y1="191.24" x2="373.57" y2="191.24"
                        gradientUnits="userSpaceOnUse">
            <stop offset="0" stop-color="#e9e9fd"/>
            <stop offset="0.36" stop-color="#d3d2f9"/>
            <stop offset="0.71" stop-color="#c5c4f7"/>
            <stop offset="1" stop-color="#c0bff6"/>
        </linearGradient>
        <linearGradient id="Безымянный_градиент_54-2" x1="327.25" y1="152.29" x2="368.06" y2="175.85"
                        xlink:href="#Безымянный_градиент_54"/>
        <linearGradient id="Безымянный_градиент_55-2" x1="322.13" y1="161.2" x2="373.57" y2="161.2"
                        xlink:href="#Безымянный_градиент_55"/>
        <linearGradient id="Безымянный_градиент_54-3" x1="39.23" y1="208.47" x2="80.04" y2="232.03"
                        xlink:href="#Безымянный_градиент_54"/>
        <linearGradient id="Безымянный_градиент_55-3" x1="34.11" y1="217.38" x2="85.55" y2="217.38"
                        xlink:href="#Безымянный_градиент_55"/>
        <linearGradient id="Безымянный_градиент_54-4" x1="39.23" y1="176.25" x2="80.04" y2="199.82"
                        xlink:href="#Безымянный_градиент_54"/>
        <linearGradient id="Безымянный_градиент_55-4" x1="34.11" y1="185.16" x2="85.55" y2="185.16"
                        xlink:href="#Безымянный_градиент_55"/>
        <linearGradient id="Безымянный_градиент_54-5" x1="75.8" y1="95.69" x2="116.61" y2="119.25"
                        xlink:href="#Безымянный_градиент_54"/>
        <linearGradient id="Безымянный_градиент_55-5" x1="70.68" y1="104.6" x2="122.12" y2="104.6"
                        xlink:href="#Безымянный_градиент_55"/>
        <linearGradient id="Безымянный_градиент_54-6" x1="75.8" y1="65.69" x2="116.61" y2="89.25"
                        xlink:href="#Безымянный_градиент_54"/>
        <linearGradient id="Безымянный_градиент_55-6" x1="70.68" y1="74.6" x2="122.12" y2="74.6"
                        xlink:href="#Безымянный_градиент_55"/>
        <linearGradient id="Безымянный_градиент_24" x1="287.4" y1="176.26" x2="87.41" y2="176.26"
                        gradientUnits="userSpaceOnUse">
            <stop offset="0" stop-color="#5761d7"/>
            <stop offset="0.18" stop-color="#5c66d9"/>
            <stop offset="0.39" stop-color="#6a73df"/>
            <stop offset="0.61" stop-color="#8289e8"/>
            <stop offset="0.85" stop-color="#a3a7f5"/>
            <stop offset="1" stop-color="#bcbeff"/>
        </linearGradient>
        <linearGradient id="Безымянный_градиент_3" x1="112.62" y1="171.6" x2="312.6" y2="171.6"
                        gradientTransform="matrix(-1, 0, 0, 1, 336.57, 0)" gradientUnits="userSpaceOnUse">
            <stop offset="0" stop-color="#c0bff6"/>
            <stop offset="0.29" stop-color="#c5c4f7"/>
            <stop offset="0.64" stop-color="#d3d2f9"/>
            <stop offset="1" stop-color="#e9e9fd"/>
        </linearGradient>
        <linearGradient id="Безымянный_градиент_3-2" x1="26.5" y1="83.88" x2="168.02" y2="83.88"
                        xlink:href="#Безымянный_градиент_3"/>
        <linearGradient id="Безымянный_градиент_24-2" x1="26.5" y1="120.17" x2="50.8" y2="120.17"
                        gradientTransform="matrix(-1, 0, 0, 1, 336.57, 0)" xlink:href="#Безымянный_градиент_24"/>
        <linearGradient id="Безымянный_градиент_24-3" x1="45.46" y1="159.77" x2="245.34" y2="159.77"
                        gradientTransform="matrix(-1, 0, 0, 1, 336.57, 0)" xlink:href="#Безымянный_градиент_24"/>
        <linearGradient id="Безымянный_градиент_3-3" x1="112.62" y1="154.3" x2="312.6" y2="154.3"
                        xlink:href="#Безымянный_градиент_3"/>
        <clipPath id="clip-path">
            <path class="cls-1"
                  d="M92.27,138.81l121.26,70A5,5,0,0,0,218,209l72.36-41.78c1.15-.66,1-1.82-.32-2.59l-121.27-70a5,5,0,0,0-4.48-.18L92,136.22C90.8,136.89,90.94,138.05,92.27,138.81Z"/>
        </clipPath>
        <linearGradient id="Безымянный_градиент_54-7" x1="158.65" y1="188.01" x2="230.46" y2="229.47"
                        xlink:href="#Безымянный_градиент_54"/>
        <linearGradient id="Безымянный_градиент_51" x1="162.96" y1="185.22" x2="227" y2="222.19"
                        gradientUnits="userSpaceOnUse">
            <stop offset="0.24" stop-color="#5761d7"/>
            <stop offset="0.39" stop-color="#7a82e5"/>
            <stop offset="0.55" stop-color="#979cf0"/>
            <stop offset="0.7" stop-color="#acaff8"/>
            <stop offset="0.85" stop-color="#b8bafd"/>
            <stop offset="1" stop-color="#bcbeff"/>
        </linearGradient>
        <linearGradient id="Безымянный_градиент_55-7" x1="151.04" y1="203.68" x2="238.76" y2="203.68"
                        xlink:href="#Безымянный_градиент_55"/>
        <linearGradient id="Безымянный_градиент_54-8" x1="158.65" y1="170.39" x2="230.46" y2="211.85"
                        xlink:href="#Безымянный_градиент_54"/>
        <linearGradient id="Безымянный_градиент_51-2" x1="162.96" y1="167.6" x2="227" y2="204.57"
                        xlink:href="#Безымянный_градиент_51"/>
        <linearGradient id="Безымянный_градиент_55-8" x1="151.04" y1="186.06" x2="238.76" y2="186.06"
                        xlink:href="#Безымянный_градиент_55"/>
        <linearGradient id="Безымянный_градиент_54-9" x1="158.65" y1="152.77" x2="230.46" y2="194.22"
                        xlink:href="#Безымянный_градиент_54"/>
        <linearGradient id="Безымянный_градиент_51-3" x1="162.96" y1="149.98" x2="227" y2="186.95"
                        xlink:href="#Безымянный_градиент_51"/>
        <linearGradient id="Безымянный_градиент_55-9" x1="151.04" y1="168.44" x2="238.76" y2="168.44"
                        xlink:href="#Безымянный_градиент_55"/>
        <linearGradient id="Безымянный_градиент_54-10" x1="158.65" y1="135.15" x2="230.46" y2="176.6"
                        xlink:href="#Безымянный_градиент_54"/>
        <linearGradient id="Безымянный_градиент_51-4" x1="162.96" y1="132.35" x2="227" y2="169.32"
                        xlink:href="#Безымянный_градиент_51"/>
        <linearGradient id="Безымянный_градиент_55-10" x1="149.65" y1="150.82" x2="240.15" y2="150.82"
                        xlink:href="#Безымянный_градиент_55"/>
        <linearGradient id="Безымянный_градиент_55-11" x1="151.04" y1="150.82" x2="238.76" y2="150.82"
                        xlink:href="#Безымянный_градиент_55"/>
        <linearGradient id="Безымянный_градиент_48" x1="90.88" y1="151.73" x2="291.44" y2="151.73"
                        xlink:href="#Безымянный_градиент_45"/>
        <clipPath id="clip-path-2">
            <polygon class="cls-2" points="306.7 74.1 183.61 3.07 168.15 95.02 291.15 166 306.7 74.1"/>
        </clipPath>
        <linearGradient id="Безымянный_градиент_24-4" x1="-31.4" y1="115.78" x2="168.48" y2="115.78"
                        gradientTransform="matrix(-1, 0, 0, 1, 336.57, 0)" xlink:href="#Безымянный_градиент_24"/>
        <linearGradient id="Безымянный_градиент_3-4" x1="35.76" y1="110.32" x2="235.74" y2="110.32"
                        xlink:href="#Безымянный_градиент_3"/>
        <linearGradient id="Безымянный_градиент_54-11" x1="228.58" y1="84.03" x2="300.38" y2="125.48"
                        xlink:href="#Безымянный_градиент_54"/>
        <linearGradient id="Безымянный_градиент_51-5" x1="232.89" y1="81.24" x2="296.92" y2="118.21"
                        xlink:href="#Безымянный_градиент_51"/>
        <linearGradient id="Безымянный_градиент_55-12" x1="220.96" y1="99.7" x2="308.68" y2="99.7"
                        xlink:href="#Безымянный_градиент_55"/>
        <linearGradient id="Безымянный_градиент_54-12" x1="228.58" y1="66.41" x2="300.38" y2="107.86"
                        xlink:href="#Безымянный_градиент_54"/>
        <linearGradient id="Безымянный_градиент_51-6" x1="232.89" y1="63.62" x2="296.92" y2="100.58"
                        xlink:href="#Безымянный_градиент_51"/>
        <linearGradient id="Безымянный_градиент_55-13" x1="220.96" y1="82.08" x2="308.68" y2="82.08"
                        xlink:href="#Безымянный_градиент_55"/>
        <linearGradient id="Безымянный_градиент_54-13" x1="228.58" y1="48.78" x2="300.38" y2="90.24"
                        xlink:href="#Безымянный_градиент_54"/>
        <linearGradient id="Безымянный_градиент_51-7" x1="232.89" y1="45.99" x2="296.92" y2="82.96"
                        xlink:href="#Безымянный_градиент_51"/>
        <linearGradient id="Безымянный_градиент_55-14" x1="220.96" y1="64.45" x2="308.68" y2="64.45"
                        xlink:href="#Безымянный_градиент_55"/>
        <linearGradient id="Безымянный_градиент_54-14" x1="228.58" y1="31.16" x2="300.38" y2="72.62"
                        xlink:href="#Безымянный_градиент_54"/>
        <linearGradient id="Безымянный_градиент_51-8" x1="232.89" y1="28.37" x2="296.92" y2="65.34"
                        xlink:href="#Безымянный_градиент_51"/>
        <linearGradient id="Безымянный_градиент_55-15" x1="219.57" y1="46.83" x2="310.07" y2="46.83"
                        xlink:href="#Безымянный_градиент_55"/>
        <linearGradient id="Безымянный_градиент_55-16" x1="220.96" y1="46.83" x2="308.68" y2="46.83"
                        xlink:href="#Безымянный_градиент_55"/>
        <linearGradient id="Безымянный_градиент_54-15" x1="158.65" y1="122.9" x2="230.46" y2="164.35"
                        xlink:href="#Безымянный_градиент_54"/>
        <linearGradient id="Безымянный_градиент_51-9" x1="162.96" y1="120.1" x2="227" y2="157.07"
                        xlink:href="#Безымянный_градиент_51"/>
        <linearGradient id="Безымянный_градиент_55-17" x1="151.04" y1="138.57" x2="238.76" y2="138.57"
                        xlink:href="#Безымянный_градиент_55"/>
        <linearGradient id="Безымянный_градиент_54-16" x1="158.65" y1="105.27" x2="230.46" y2="146.73"
                        xlink:href="#Безымянный_градиент_54"/>
        <linearGradient id="Безымянный_градиент_51-10" x1="162.96" y1="102.48" x2="227" y2="139.45"
                        xlink:href="#Безымянный_градиент_51"/>
        <linearGradient id="Безымянный_градиент_55-18" x1="151.04" y1="120.94" x2="238.76" y2="120.94"
                        xlink:href="#Безымянный_градиент_55"/>
        <linearGradient id="Безымянный_градиент_54-17" x1="158.65" y1="87.65" x2="230.46" y2="129.11"
                        xlink:href="#Безымянный_градиент_54"/>
        <linearGradient id="Безымянный_градиент_51-11" x1="162.96" y1="84.86" x2="227" y2="121.83"
                        xlink:href="#Безымянный_градиент_51"/>
        <linearGradient id="Безымянный_градиент_55-19" x1="151.04" y1="103.32" x2="238.76" y2="103.32"
                        xlink:href="#Безымянный_градиент_55"/>
        <linearGradient id="Безымянный_градиент_54-18" x1="158.65" y1="70.03" x2="230.46" y2="111.48"
                        xlink:href="#Безымянный_градиент_54"/>
        <linearGradient id="Безымянный_градиент_51-12" x1="162.96" y1="67.24" x2="227" y2="104.21"
                        xlink:href="#Безымянный_градиент_51"/>
        <linearGradient id="Безымянный_градиент_55-20" x1="149.65" y1="85.7" x2="240.15" y2="85.7"
                        xlink:href="#Безымянный_градиент_55"/>
        <linearGradient id="Безымянный_градиент_55-21" x1="151.04" y1="85.7" x2="238.76" y2="85.7"
                        xlink:href="#Безымянный_градиент_55"/>
    </defs>
    <g class="cls-3">
        <g id="Слой_2" data-name="Слой 2">
            <g id="Слой_1-2" data-name="Слой 1">
                <g class="cls-4">
                    <path class="cls-5"
                          d="M373.57,195.72v-4.48l-1.24-.69c-.35,2.11-2.84,3.51-4.92,3.8l-14.18,8.28-6.18,2.24-19.74-10.19.45-.26c-1.69-.79-2.6-2.6-3.51-4.24l-1.33.79-.79.22v4.6h0a3,3,0,0,0,1.74,2.43l19.78,11.42a9.34,9.34,0,0,0,8.4,0l19.78-11.42a3,3,0,0,0,1.74-2.39v-.11Z"/>
                    <path class="cls-6"
                          d="M367.41,194.35l-14.18,8.28-5.38,2v6.06a8.69,8.69,0,0,0,4.2-1l19.78-11.42a3,3,0,0,0,1.74-2.39v-.11h0v-4.48l-1.13-.63h-.12C371.93,192.69,369.47,194.06,367.41,194.35Z"/>
                    <path class="cls-7"
                          d="M343.65,205.08l-19.78-11.42c-2.32-1.34-2.32-3.51,0-4.85l19.78-11.42a9.28,9.28,0,0,1,8.4,0l19.78,11.42c2.32,1.34,2.32,3.51,0,4.85l-19.78,11.42A9.28,9.28,0,0,1,343.65,205.08Z"/>
                    <g class="cls-4">
                        <path class="cls-8"
                              d="M343.65,205.08l-19.78-11.42c-2.32-1.34-2.32-3.51,0-4.85l19.78-11.42a9.28,9.28,0,0,1,8.4,0l19.78,11.42c2.32,1.34,2.32,3.51,0,4.85l-19.78,11.42A9.28,9.28,0,0,1,343.65,205.08Z"/>
                    </g>
                </g>
                <path class="cls-9"
                      d="M347.85,190.65a7.68,7.68,0,0,1-3.73-.89l-19.78-11.42a2.39,2.39,0,0,1,0-4.51l19.78-11.42a8.24,8.24,0,0,1,7.46,0l19.78,11.42a2.39,2.39,0,0,1,0,4.51l-19.78,11.42A7.68,7.68,0,0,1,347.85,190.65Zm0-28.79a7.31,7.31,0,0,0-3.55.85l-19.78,11.42a2.06,2.06,0,0,0,0,3.91l19.78,11.42a7.88,7.88,0,0,0,7.11,0L371.19,178a2.06,2.06,0,0,0,0-3.91l-19.78-11.42A7.35,7.35,0,0,0,347.85,161.86Z"/>
                <path class="cls-10"
                      d="M373.57,171.7v-6.77l-1.24-.69c-.35,2.11-2.84,3.51-4.92,3.8l-14.18,8.29-6.18,2.23-19.74-10.19.45-.26c-1.69-.79-2.6-2.6-3.51-4.24l-1.33.79-.79.22v6.89h0a3,3,0,0,0,1.74,2.43l19.78,11.42a9.28,9.28,0,0,0,8.4,0l19.78-11.42a3,3,0,0,0,1.74-2.38v-.12Z"/>
                <path class="cls-11"
                      d="M373.57,165.68V161.2l-1.24-.69c-.35,2.11-2.84,3.51-4.92,3.8l-14.18,8.29-6.18,2.23-19.74-10.19.45-.26c-1.69-.79-2.6-2.59-3.51-4.24l-1.33.79-.79.23v4.59h0a3,3,0,0,0,1.74,2.43l19.78,11.42a9.34,9.34,0,0,0,8.4,0l19.78-11.42a3,3,0,0,0,1.74-2.39v-.11Z"/>
                <path class="cls-6"
                      d="M367.41,164.31l-14.18,8.29-5.38,1.94v6.06a8.58,8.58,0,0,0,4.2-1l19.78-11.42a3,3,0,0,0,1.74-2.39v-.11h0V161.2l-1.13-.63h-.12C371.93,162.65,369.47,164,367.41,164.31Z"/>
                <path class="cls-12"
                      d="M343.65,175l-19.78-11.42c-2.32-1.33-2.32-3.51,0-4.85l19.78-11.42a9.34,9.34,0,0,1,8.4,0l19.78,11.42c2.32,1.34,2.32,3.52,0,4.85L352.05,175A9.28,9.28,0,0,1,343.65,175Z"/>
                <path class="cls-13"
                      d="M371.83,163.62,352.05,175a9.28,9.28,0,0,1-8.4,0l-19.78-11.42a3.12,3.12,0,0,1-1.72-2.14,2.81,2.81,0,0,0,1.72,2.7l19.78,11.42a9.28,9.28,0,0,0,8.4,0l19.78-11.42a2.81,2.81,0,0,0,1.72-2.7A3.1,3.1,0,0,1,371.83,163.62Z"/>
                <g class="cls-4">
                    <path class="cls-14"
                          d="M85.55,221.86v-4.48l-1.24-.69c-.35,2.11-2.84,3.51-4.92,3.8l-14.18,8.29L59,231,39.28,220.82l.46-.26c-1.69-.79-2.6-2.59-3.51-4.24l-1.33.79-.79.22v4.6h0a3,3,0,0,0,1.74,2.43l19.78,11.42a9.34,9.34,0,0,0,8.4,0l19.78-11.42A3,3,0,0,0,85.55,222a.45.45,0,0,0,0-.11Z"/>
                    <path class="cls-6"
                          d="M79.39,220.49l-14.18,8.29-5.38,1.94v6.06a8.58,8.58,0,0,0,4.2-1l19.78-11.42A3,3,0,0,0,85.55,222a.45.45,0,0,0,0-.11h0v-4.48l-1.14-.63H84.3C83.91,218.83,81.45,220.2,79.39,220.49Z"/>
                    <path class="cls-15"
                          d="M55.63,231.22,35.85,219.8c-2.32-1.33-2.32-3.51,0-4.85l19.78-11.42a9.34,9.34,0,0,1,8.4,0L83.81,215c2.32,1.34,2.32,3.52,0,4.85L64,231.22A9.28,9.28,0,0,1,55.63,231.22Z"/>
                    <g class="cls-4">
                        <path class="cls-8"
                              d="M55.63,231.22,35.85,219.8c-2.32-1.33-2.32-3.51,0-4.85l19.78-11.42a9.34,9.34,0,0,1,8.4,0L83.81,215c2.32,1.34,2.32,3.52,0,4.85L64,231.22A9.28,9.28,0,0,1,55.63,231.22Z"/>
                    </g>
                </g>
                <path class="cls-10"
                      d="M59.83,234.87c-12.06,0-24.13-2.65-33.31-8-8.93-5.16-13.85-12-13.85-19.33s4.92-14.18,13.85-19.33c18.37-10.61,48.25-10.61,66.62,0,8.93,5.15,13.85,12,13.85,19.33s-4.92,14.17-13.85,19.33l-.09-.15.09.15C84,232.22,71.89,234.87,59.83,234.87Zm0-54.23c-12,0-24,2.64-33.14,7.92C17.88,193.65,13,200.4,13,207.59s4.86,13.94,13.67,19c18.28,10.55,48,10.55,66.28,0,8.81-5.09,13.67-11.85,13.67-19s-4.86-13.94-13.67-19C83.83,183.28,71.83,180.64,59.83,180.64Z"/>
                <path class="cls-16"
                      d="M59.83,242.18c-15.31,0-30.61-3.36-42.27-10.09C6.24,225.55,0,216.85,0,207.59s6.24-18,17.56-24.51c23.31-13.46,61.23-13.45,84.54,0,11.32,6.54,17.56,15.24,17.56,24.51s-6.24,18-17.56,24.5C90.45,238.82,75.14,242.18,59.83,242.18Zm0-68.85c-15.25,0-30.49,3.35-42.1,10C6.52,189.86.35,198.45.35,207.59s6.17,17.73,17.38,24.2c23.22,13.4,61,13.4,84.2,0,11.21-6.47,17.38-15.07,17.38-24.2s-6.17-17.73-17.38-24.21C90.32,176.68,75.07,173.33,59.83,173.33Z"/>
                <path class="cls-9"
                      d="M59.83,229.11c-9.51,0-19-2.09-26.25-6.27-7-4.06-10.93-9.48-10.93-15.25s3.88-11.19,10.93-15.26c14.47-8.35,38-8.35,52.5,0,7,4.07,10.92,9.49,10.92,15.26s-3.88,11.19-10.92,15.25C78.84,227,69.34,229.11,59.83,229.11Zm0-42.71c-9.45,0-18.89,2.08-26.08,6.23-6.93,4-10.75,9.31-10.75,15s3.82,10.95,10.75,14.95c14.38,8.31,37.78,8.31,52.16,0,6.93-4,10.75-9.31,10.75-14.95s-3.82-11-10.75-15C78.72,188.48,69.27,186.4,59.83,186.4Z"/>
                <path class="cls-9"
                      d="M59.83,214.61a7.68,7.68,0,0,1-3.73-.89L36.32,202.3a2.39,2.39,0,0,1,0-4.51L56.1,186.37a8.3,8.3,0,0,1,7.46,0l19.78,11.42a2.39,2.39,0,0,1,0,4.51L63.56,213.72A7.68,7.68,0,0,1,59.83,214.61Zm0-28.79a7.35,7.35,0,0,0-3.56.85L36.49,198.09a2.06,2.06,0,0,0,0,3.91l19.79,11.42a7.86,7.86,0,0,0,7.1,0L83.17,202a2.06,2.06,0,0,0,0-3.91L63.38,186.67A7.31,7.31,0,0,0,59.83,185.82Z"/>
                <path class="cls-10"
                      d="M85.55,195.66v-6.77l-1.24-.69c-.35,2.11-2.84,3.51-4.92,3.8l-14.18,8.29L59,202.52,39.28,192.33l.46-.26c-1.69-.79-2.6-2.59-3.51-4.24l-1.33.79-.79.23v6.88h0a3,3,0,0,0,1.74,2.43l19.78,11.42a9.28,9.28,0,0,0,8.4,0l19.78-11.42a3,3,0,0,0,1.74-2.38.49.49,0,0,0,0-.12Z"/>
                <path class="cls-17"
                      d="M85.55,189.64v-4.48l-1.24-.69c-.35,2.12-2.84,3.51-4.92,3.8l-14.18,8.29L59,198.79,39.28,188.6l.46-.26c-1.69-.79-2.6-2.59-3.51-4.24l-1.33.79-.79.23v4.59h0a3,3,0,0,0,1.74,2.43l19.78,11.42a9.28,9.28,0,0,0,8.4,0l19.78-11.42a3,3,0,0,0,1.74-2.38.49.49,0,0,0,0-.12Z"/>
                <path class="cls-6"
                      d="M79.39,188.27l-14.18,8.29-5.38,1.94v6.06a8.58,8.58,0,0,0,4.2-1l19.78-11.42a3,3,0,0,0,1.74-2.38.49.49,0,0,0,0-.12h0v-4.48l-1.14-.63H84.3C83.91,186.61,81.45,188,79.39,188.27Z"/>
                <path class="cls-18"
                      d="M55.63,199,35.85,187.58c-2.32-1.33-2.32-3.51,0-4.85l19.78-11.42a9.34,9.34,0,0,1,8.4,0l19.78,11.42c2.32,1.34,2.32,3.52,0,4.85L64,199A9.34,9.34,0,0,1,55.63,199Z"/>
                <path class="cls-19"
                      d="M59.83,196.93a7,7,0,0,1-3.37-.8L41,187.2a2.46,2.46,0,0,1-1.45-2,2.49,2.49,0,0,1,1.45-2l15.45-8.92a7.48,7.48,0,0,1,6.74,0l15.45,8.92a2.49,2.49,0,0,1,1.45,2,2.46,2.46,0,0,1-1.45,2L63.2,196.13A7,7,0,0,1,59.83,196.93Zm-3.2-1.1a7.05,7.05,0,0,0,6.39,0l15.46-8.93a1.83,1.83,0,0,0,0-3.48L63,174.49a7.12,7.12,0,0,0-6.39,0l-15.45,8.93a1.83,1.83,0,0,0,0,3.48Z"/>
                <path class="cls-13"
                      d="M83.81,187.58,64,199a9.34,9.34,0,0,1-8.4,0L35.85,187.58a3.1,3.1,0,0,1-1.72-2.14,2.81,2.81,0,0,0,1.72,2.7l19.78,11.42a9.28,9.28,0,0,0,8.4,0l19.78-11.42a2.81,2.81,0,0,0,1.72-2.7A3.1,3.1,0,0,1,83.81,187.58Z"/>
                <g class="cls-4">
                    <path class="cls-20"
                          d="M122.12,109.08V104.6l-1.24-.69c-.35,2.11-2.84,3.51-4.92,3.79L101.78,116l-6.18,2.24L75.85,108l.46-.27c-1.69-.78-2.6-2.59-3.51-4.23l-1.33.79-.79.22v4.6h0a2.93,2.93,0,0,0,1.74,2.42L92.2,123a9.28,9.28,0,0,0,8.4,0l19.78-11.42a3,3,0,0,0,1.74-2.38s0-.07,0-.11Z"/>
                    <path class="cls-6"
                          d="M116,107.7,101.78,116l-5.38,2V124a8.58,8.58,0,0,0,4.2-1l19.78-11.42a3,3,0,0,0,1.74-2.38s0-.07,0-.11h0V104.6L121,104h-.12C120.48,106.05,118,107.42,116,107.7Z"/>
                    <path class="cls-21"
                          d="M92.2,118.44,72.42,107c-2.32-1.34-2.32-3.51,0-4.85L92.2,90.75a9.28,9.28,0,0,1,8.4,0l19.78,11.42c2.32,1.34,2.32,3.51,0,4.85L100.6,118.44A9.28,9.28,0,0,1,92.2,118.44Z"/>
                    <g class="cls-4">
                        <path class="cls-8"
                              d="M92.2,118.44,72.42,107c-2.32-1.34-2.32-3.51,0-4.85L92.2,90.75a9.28,9.28,0,0,1,8.4,0l19.78,11.42c2.32,1.34,2.32,3.51,0,4.85L100.6,118.44A9.28,9.28,0,0,1,92.2,118.44Z"/>
                    </g>
                </g>
                <path class="cls-9"
                      d="M96.4,104a7.57,7.57,0,0,1-3.73-.89L72.89,91.73a2.39,2.39,0,0,1,0-4.5L92.67,75.81a8.24,8.24,0,0,1,7.46,0l19.78,11.42a2.39,2.39,0,0,1,0,4.5l-19.78,11.42A7.57,7.57,0,0,1,96.4,104Zm-3.56-1.19a7.82,7.82,0,0,0,7.11,0l19.78-11.42a2,2,0,0,0,0-3.9L100,76.11a7.88,7.88,0,0,0-7.11,0L73.06,87.53a2,2,0,0,0,0,3.9Z"/>
                <path class="cls-10"
                      d="M122.12,85.1V78.32l-1.24-.68c-.35,2.11-2.84,3.5-4.92,3.79l-14.18,8.29L95.6,92,75.85,81.77l.46-.27c-1.69-.78-2.6-2.59-3.51-4.23l-1.33.79-.79.22v6.89h0a2.93,2.93,0,0,0,1.74,2.42L92.2,99a9.34,9.34,0,0,0,8.4,0L120.38,87.6a3,3,0,0,0,1.74-2.39s0-.07,0-.11Z"/>
                <path class="cls-22"
                      d="M122.12,79.08V74.6l-1.24-.69C120.53,76,118,77.42,116,77.7L101.78,86,95.6,88.23,75.85,78l.46-.27c-1.69-.78-2.6-2.59-3.51-4.23l-1.33.79-.79.22v4.6h0a2.93,2.93,0,0,0,1.74,2.42L92.2,93a9.28,9.28,0,0,0,8.4,0l19.78-11.42a3,3,0,0,0,1.74-2.38s0-.07,0-.11Z"/>
                <path class="cls-6"
                      d="M116,77.7,101.78,86l-5.38,2V94a8.58,8.58,0,0,0,4.2-1l19.78-11.42a3,3,0,0,0,1.74-2.38s0-.07,0-.11h0V74.6L121,74h-.12C120.48,76.05,118,77.42,116,77.7Z"/>
                <path class="cls-23"
                      d="M92.2,88.44,72.42,77c-2.32-1.34-2.32-3.51,0-4.85L92.2,60.75a9.28,9.28,0,0,1,8.4,0l19.78,11.42c2.32,1.34,2.32,3.51,0,4.85L100.6,88.44A9.28,9.28,0,0,1,92.2,88.44Z"/>
                <path class="cls-19"
                      d="M96.4,86.37A6.86,6.86,0,0,1,93,85.56L77.58,76.64a2.17,2.17,0,0,1,0-4.09L93,63.63a7.48,7.48,0,0,1,6.74,0l15.45,8.92a2.17,2.17,0,0,1,0,4.09L99.77,85.56A6.86,6.86,0,0,1,96.4,86.37Zm0-23.2a6.53,6.53,0,0,0-3.2.76L77.75,72.85a1.83,1.83,0,0,0,0,3.49L93.2,85.26a7.05,7.05,0,0,0,6.39,0l15.46-8.92a1.83,1.83,0,0,0,0-3.49L99.59,63.93A6.49,6.49,0,0,0,96.4,63.17Z"/>
                <path class="cls-13"
                      d="M120.38,77,100.6,88.44a9.28,9.28,0,0,1-8.4,0L72.42,77a3.11,3.11,0,0,1-1.72-2.15,2.82,2.82,0,0,0,1.72,2.71L92.2,89a9.28,9.28,0,0,0,8.4,0l19.78-11.42a2.82,2.82,0,0,0,1.72-2.7A3.14,3.14,0,0,1,120.38,77Z"/>
                <path class="cls-9"
                      d="M216.07,241.63a5.36,5.36,0,0,1-2.64-.66L92.16,171a2.05,2.05,0,0,1-1.2-1.64,1.55,1.55,0,0,1,.88-1.31l72.36-41.77a5.19,5.19,0,0,1,4.69.18l121.27,70a2.05,2.05,0,0,1,1.2,1.65,1.53,1.53,0,0,1-.88,1.3l-72.36,41.78A4.25,4.25,0,0,1,216.07,241.63Zm-123.7-71,121.26,70a4.74,4.74,0,0,0,4.28.19L290.27,199a1.13,1.13,0,0,0,.68-.94,1.67,1.67,0,0,0-1-1.29l-121.26-70a4.78,4.78,0,0,0-4.28-.19L92.05,168.37a1.13,1.13,0,0,0-.67.95A1.65,1.65,0,0,0,92.37,170.6Z"/>
                <path class="cls-24"
                      d="M291.15,186l-6.67-1L168.79,118.22a5,5,0,0,0-4.48-.19l-68.9,39.78-4.24-.61v5.63h0a1.83,1.83,0,0,0,1.09,1.45l121.26,70a5,5,0,0,0,4.49.19l72.36-41.78a1.31,1.31,0,0,0,.76-1.14h0Z"/>
                <path class="cls-25"
                      d="M92.27,158.69l121.26,70a5,5,0,0,0,4.49.18l72.36-41.77c1.15-.67,1-1.83-.32-2.59l-121.27-70a5,5,0,0,0-4.48-.18L92,156.1C90.8,156.76,90.94,157.92,92.27,158.69Z"/>
                <path class="cls-26"
                      d="M102.77,160.06l108.39,62.58a4.46,4.46,0,0,0,4,.16l64.68-37.34c1-.59.9-1.63-.29-2.32L171.17,120.57a4.45,4.45,0,0,0-4-.17l-64.68,37.34C101.45,158.34,101.58,159.37,102.77,160.06Z"/>
                <path class="cls-13"
                      d="M290.38,186.5,218,228.28a5,5,0,0,1-4.49-.19l-121.26-70a2.08,2.08,0,0,1-1-1.16c-.19.59.16,1.26,1,1.77l121.26,70a5,5,0,0,0,4.49.18l72.36-41.77a1.25,1.25,0,0,0,.72-1.43A1.54,1.54,0,0,1,290.38,186.5Z"/>
                <path class="cls-27"
                      d="M168.57,92.68,183.9,1.73l-1.23-.52L184.52.15h0a1.34,1.34,0,0,1,1.43.1L308.46,71a3.48,3.48,0,0,1,1.59,3.11L294.6,165.77a1.15,1.15,0,0,1-.65.93h0l-1.81,1-.31-1.69.1,0L170.16,95.79A3.48,3.48,0,0,1,168.57,92.68Z"/>
                <path class="cls-28"
                      d="M307.77,73.48l2-.89a2.88,2.88,0,0,1,.26,1.51L294.6,165.77a1.15,1.15,0,0,1-.65.93h0l-1.81,1-.31-1.69.1,0-6.16-3.56Z"/>
                <path class="cls-29"
                      d="M168.24,96.89l122.51,70.73c.95.55,1.76.23,1.92-.75l15.45-91.66a3.44,3.44,0,0,0-1.59-3.11L184,1.36c-.94-.54-1.75-.23-1.92.75L166.65,93.78A3.48,3.48,0,0,0,168.24,96.89Z"/>
                <g class="cls-30">
                    <polygon class="cls-31" points="183.61 3.07 306.7 74.1 291.15 166 168.15 95.02 183.61 3.07"/>
                </g>
                <path class="cls-32"
                      d="M91.23,140.29l6.69,3.49,67-38.7a4.86,4.86,0,0,1,4.38.18L285,172c1.11-.61,6.15-3,6.15-3l-2.45,4h0a1.43,1.43,0,0,1-.68.76l-70.61,40.76a4.84,4.84,0,0,1-4.37-.18L94.67,146a2.13,2.13,0,0,1-1-1.06h0Z"/>
                <path class="cls-33"
                      d="M92.27,141.39l121.26,70a5,5,0,0,0,4.49.19l72.36-41.78c1.15-.66,1-1.82-.32-2.59l-121.27-70a5,5,0,0,0-4.48-.19L92,138.8C90.8,139.46,90.94,140.62,92.27,141.39Z"/>
                <path class="cls-29"
                      d="M92.27,141.39l121.26,70a5,5,0,0,0,4.49.19l72.36-41.78c1.15-.66,1-1.82-.32-2.59l-121.27-70a5,5,0,0,0-4.48-.19L92,138.8C90.8,139.46,90.94,140.62,92.27,141.39Z"/>
                <path class="cls-34"
                      d="M92.27,141.39l121.26,70a5,5,0,0,0,4.49.19l72.36-41.78c1.15-.66,1-1.82-.32-2.59l-121.27-70a5,5,0,0,0-4.48-.19L92,138.8C90.8,139.46,90.94,140.62,92.27,141.39Z"/>
                <g class="cls-4">
                    <path class="cls-1"
                          d="M92.27,138.81l121.26,70A5,5,0,0,0,218,209l72.36-41.78c1.15-.66,1-1.82-.32-2.59l-121.27-70a5,5,0,0,0-4.48-.18L92,136.22C90.8,136.89,90.94,138.05,92.27,138.81Z"/>
                    <g class="cls-35">
                        <path class="cls-36"
                              d="M240.15,211.57v-7.89L238,202.47c-.62,3.72-5,6.17-8.66,6.68l-24.94,14.59-10.88,3.93-34.74-17.93.8-.46c-3-1.39-4.56-4.56-6.17-7.46l-2.34,1.4-1.39.39v8.08h0c0,1.55,1,3.09,3.06,4.27l34.8,20.09a16.31,16.31,0,0,0,14.78,0L237.09,216c2-1.16,3-2.67,3.06-4.19a1.27,1.27,0,0,0,0-.2Z"/>
                        <path class="cls-6"
                              d="M229.31,209.15l-24.94,14.59-9.47,3.42v10.66a15.07,15.07,0,0,0,7.39-1.77L237.09,216c2-1.16,3-2.67,3.06-4.19a1.27,1.27,0,0,0,0-.2h0v-7.89l-2-1.11H238C237.27,206.24,232.94,208.65,229.31,209.15Z"/>
                        <path class="cls-37"
                              d="M159.55,209.28l33-19.05a5.27,5.27,0,0,1,4.74,0l32.4,18.71-.36.21c3.66-.51,8-3,8.66-6.68L201.6,182.24,191,179.45l-8.62,5.06-29,17.31C155,204.72,156.58,207.89,159.55,209.28Z"/>
                        <path class="cls-6"
                              d="M194.9,180.47l-3.88-1-8.62,5.06-29,17.31c1.61,2.9,3.2,6.07,6.17,7.46l33-19.05a4.94,4.94,0,0,1,2.37-.56Z"/>
                        <path class="cls-19"
                              d="M187.51,228,152.71,208c-4.08-2.35-4.08-6.18,0-8.53l34.8-20.1a16.37,16.37,0,0,1,14.78,0l34.8,20.1c4.08,2.35,4.08,6.18,0,8.53L202.29,228A16.31,16.31,0,0,1,187.51,228Zm9.76-45.82a5.27,5.27,0,0,0-4.74,0l-34.8,20.1c-1.3.75-1.3,2,0,2.73l34.8,20.09a5.21,5.21,0,0,0,4.74,0l34.8-20.09c1.3-.75,1.3-2,0-2.73Z"/>
                        <path class="cls-13"
                              d="M232.07,202.32l-34.8-20.1a5.27,5.27,0,0,0-4.74,0l-34.8,20.1c-.87.5-1.16,1.21-.86,1.85a2,2,0,0,1,.86-.87l34.8-20.09a5.21,5.21,0,0,1,4.74,0l34.8,20.09a2.07,2.07,0,0,1,.87.87C233.23,203.53,232.94,202.82,232.07,202.32Z"/>
                        <path class="cls-13"
                              d="M237.09,208,202.29,228a16.31,16.31,0,0,1-14.78,0L152.71,208a5.49,5.49,0,0,1-3-3.78c-.24,1.71.76,3.46,3,4.76l34.8,20.1a16.37,16.37,0,0,0,14.78,0l34.8-20.1c2.26-1.3,3.26-3.05,3-4.76A5.49,5.49,0,0,1,237.09,208Z"/>
                        <path class="cls-38"
                              d="M188.49,227.48l-34.8-20.1c-3.53-2-3.53-5.36,0-7.4l34.8-20.09a14.19,14.19,0,0,1,12.82,0L236.11,200c3.53,2,3.53,5.36,0,7.4l-34.8,20.1A14.19,14.19,0,0,1,188.49,227.48Zm9.76-45.82a7.39,7.39,0,0,0-6.7,0l-34.8,20.09c-1.85,1.07-1.85,2.8,0,3.87l34.8,20.09a7.39,7.39,0,0,0,6.7,0l34.8-20.09c1.85-1.07,1.85-2.8,0-3.87Z"/>
                        <path class="cls-10"
                              d="M197.27,182.22a5.27,5.27,0,0,0-4.74,0l-34.8,20.1c-1.3.75-1.3,2,0,2.73l34.8,20.09a5.21,5.21,0,0,0,4.74,0l34.8-20.09c1.3-.75,1.3-2,0-2.73Z"/>
                        <path class="cls-10"
                              d="M240.15,204.54V192.62L238,191.41c-.62,3.72-5,6.17-8.66,6.68l-24.94,14.58-10.88,3.94-34.74-17.93.8-.47c-3-1.38-4.56-4.56-6.17-7.45l-2.34,1.4-1.39.39v12.12h0c0,1.54,1,3.09,3.06,4.26l34.8,20.1a16.37,16.37,0,0,0,14.78,0l34.8-20.1c2-1.15,3-2.67,3.06-4.19a1.34,1.34,0,0,0,0-.2Z"/>
                        <path class="cls-39"
                              d="M240.15,194v-7.89L238,184.85c-.62,3.72-5,6.17-8.66,6.68l-24.94,14.58L193.49,210l-34.74-17.92.8-.47c-3-1.38-4.56-4.56-6.17-7.45L151,185.59l-1.39.39v8.09h0c0,1.55,1,3.09,3.06,4.27l34.8,20.09a16.37,16.37,0,0,0,14.78,0l34.8-20.09c2-1.16,3-2.67,3.06-4.19a1.48,1.48,0,0,0,0-.21Z"/>
                        <path class="cls-6"
                              d="M229.31,191.53l-24.94,14.58-9.47,3.42V220.2a15.07,15.07,0,0,0,7.39-1.77l34.8-20.09c2-1.16,3-2.67,3.06-4.19a1.48,1.48,0,0,0,0-.21h0v-7.89l-2-1.11H238C237.27,188.61,232.94,191,229.31,191.53Z"/>
                        <path class="cls-40"
                              d="M159.55,191.65l33-19a5.27,5.27,0,0,1,4.74,0l32.4,18.71-.36.21c3.66-.51,8-3,8.66-6.68L201.6,164.62,191,161.82l-8.62,5.07-29,17.31C155,187.09,156.58,190.27,159.55,191.65Z"/>
                        <path class="cls-6"
                              d="M194.9,162.85l-3.88-1-8.62,5.07-29,17.31c1.61,2.89,3.2,6.07,6.17,7.45l33-19a4.94,4.94,0,0,1,2.37-.56Z"/>
                        <path class="cls-19"
                              d="M187.51,210.42l-34.8-20.09c-4.08-2.36-4.08-6.18,0-8.54l34.8-20.09a16.37,16.37,0,0,1,14.78,0l34.8,20.09c4.08,2.36,4.08,6.18,0,8.54l-34.8,20.09A16.37,16.37,0,0,1,187.51,210.42Zm9.76-45.82a5.27,5.27,0,0,0-4.74,0l-34.8,20.09c-1.3.76-1.3,2,0,2.74l34.8,20.09a5.27,5.27,0,0,0,4.74,0l34.8-20.09c1.3-.76,1.3-2,0-2.74Z"/>
                        <path class="cls-13"
                              d="M232.07,184.69l-34.8-20.09a5.27,5.27,0,0,0-4.74,0l-34.8,20.09c-.87.51-1.16,1.22-.86,1.86a2,2,0,0,1,.86-.87l34.8-20.1a5.27,5.27,0,0,1,4.74,0l34.8,20.1a2.07,2.07,0,0,1,.87.87C233.23,185.91,232.94,185.2,232.07,184.69Z"/>
                        <path class="cls-13"
                              d="M237.09,190.33l-34.8,20.09a16.37,16.37,0,0,1-14.78,0l-34.8-20.09a5.49,5.49,0,0,1-3-3.78c-.24,1.71.76,3.46,3,4.76l34.8,20.09a16.31,16.31,0,0,0,14.78,0l34.8-20.09c2.26-1.3,3.26-3.05,3-4.76A5.49,5.49,0,0,1,237.09,190.33Z"/>
                        <path class="cls-41"
                              d="M188.49,209.85l-34.8-20.09c-3.53-2-3.53-5.36,0-7.4l34.8-20.09a14.19,14.19,0,0,1,12.82,0l34.8,20.09c3.53,2,3.53,5.36,0,7.4l-34.8,20.09A14.19,14.19,0,0,1,188.49,209.85ZM198.25,164a7.46,7.46,0,0,0-6.7,0l-34.8,20.1c-1.85,1.06-1.85,2.8,0,3.86l34.8,20.1a7.46,7.46,0,0,0,6.7,0l34.8-20.1c1.85-1.06,1.85-2.8,0-3.86Z"/>
                        <path class="cls-10"
                              d="M197.27,164.6a5.27,5.27,0,0,0-4.74,0l-34.8,20.09c-1.3.76-1.3,2,0,2.74l34.8,20.09a5.27,5.27,0,0,0,4.74,0l34.8-20.09c1.3-.76,1.3-2,0-2.74Z"/>
                        <path class="cls-10"
                              d="M240.15,186.92V175L238,173.79c-.62,3.72-5,6.17-8.66,6.68l-24.94,14.58L193.49,199l-34.74-17.92.8-.47c-3-1.38-4.56-4.56-6.17-7.45L151,174.53l-1.39.39V187h0c0,1.55,1,3.09,3.06,4.27l34.8,20.09a16.31,16.31,0,0,0,14.78,0l34.8-20.09c2-1.16,3-2.67,3.06-4.19a1.27,1.27,0,0,0,0-.2Z"/>
                        <path class="cls-42"
                              d="M240.15,176.32v-7.88L238,167.23c-.62,3.72-5,6.17-8.66,6.68l-24.94,14.58-10.88,3.93-34.74-17.93.8-.46c-3-1.39-4.56-4.56-6.17-7.45L151,168l-1.39.39v8.09h0c0,1.54,1,3.09,3.06,4.27l34.8,20.09a16.37,16.37,0,0,0,14.78,0l34.8-20.09c2-1.16,3-2.67,3.06-4.19a1.48,1.48,0,0,0,0-.21Z"/>
                        <path class="cls-6"
                              d="M229.31,173.91l-24.94,14.58-9.47,3.42v10.66a15.07,15.07,0,0,0,7.39-1.76l34.8-20.09c2-1.16,3-2.67,3.06-4.19a1.48,1.48,0,0,0,0-.21h0v-7.88l-2-1.11H238C237.27,171,232.94,173.4,229.31,173.91Z"/>
                        <path class="cls-43"
                              d="M159.55,174l33-19a5.27,5.27,0,0,1,4.74,0l32.4,18.71-.36.21c3.66-.51,8-3,8.66-6.68L201.6,147,191,144.2l-8.62,5.07-29,17.31C155,169.47,156.58,172.64,159.55,174Z"/>
                        <path class="cls-6"
                              d="M194.9,145.23l-3.88-1-8.62,5.07-29,17.31c1.61,2.89,3.2,6.06,6.17,7.45l33-19a4.83,4.83,0,0,1,2.37-.57Z"/>
                        <path class="cls-19"
                              d="M187.51,192.8l-34.8-20.1c-4.08-2.35-4.08-6.18,0-8.53l34.8-20.09a16.37,16.37,0,0,1,14.78,0l34.8,20.09c4.08,2.35,4.08,6.18,0,8.54l-34.8,20.09A16.37,16.37,0,0,1,187.51,192.8ZM197.27,147a5.27,5.27,0,0,0-4.74,0l-34.8,20.09c-1.3.75-1.3,2,0,2.73l34.8,20.1a5.27,5.27,0,0,0,4.74,0l34.8-20.1c1.3-.75,1.3-2,0-2.73Z"/>
                        <path class="cls-13"
                              d="M232.07,167.07,197.27,147a5.27,5.27,0,0,0-4.74,0l-34.8,20.09c-.87.5-1.16,1.22-.86,1.86a2,2,0,0,1,.86-.88L192.53,148a5.27,5.27,0,0,1,4.74,0l34.8,20.09a2.14,2.14,0,0,1,.87.88C233.23,168.29,232.94,167.57,232.07,167.07Z"/>
                        <path class="cls-13"
                              d="M237.09,172.71l-34.8,20.09a16.37,16.37,0,0,1-14.78,0l-34.8-20.1a5.47,5.47,0,0,1-3-3.77c-.24,1.7.76,3.46,3,4.76l34.8,20.09a16.37,16.37,0,0,0,14.78,0l34.8-20.09c2.26-1.3,3.26-3.06,3-4.76A5.51,5.51,0,0,1,237.09,172.71Z"/>
                        <path class="cls-44"
                              d="M188.49,192.23l-34.8-20.09c-3.53-2-3.53-5.36,0-7.4l34.8-20.09a14.19,14.19,0,0,1,12.82,0l34.8,20.09c3.53,2,3.53,5.36,0,7.4l-34.8,20.09A14.19,14.19,0,0,1,188.49,192.23Zm9.76-45.82a7.39,7.39,0,0,0-6.7,0l-34.8,20.09c-1.85,1.07-1.85,2.81,0,3.87l34.8,20.1a7.46,7.46,0,0,0,6.7,0l34.8-20.1c1.85-1.06,1.85-2.8,0-3.87Z"/>
                        <path class="cls-10"
                              d="M197.27,147a5.27,5.27,0,0,0-4.74,0l-34.8,20.09c-1.3.75-1.3,2,0,2.73l34.8,20.1a5.27,5.27,0,0,0,4.74,0l34.8-20.1c1.3-.75,1.3-2,0-2.73Z"/>
                        <path class="cls-10"
                              d="M240.15,169.29V157.38L238,156.16c-.62,3.73-5,6.18-8.66,6.69l-24.94,14.58-10.88,3.93-34.74-17.93.8-.46c-3-1.39-4.56-4.56-6.17-7.45L151,156.91l-1.39.39v12.12h0c0,1.55,1,3.09,3.06,4.27l34.8,20.09a16.37,16.37,0,0,0,14.78,0l34.8-20.09c2-1.16,3-2.67,3.06-4.19a1.48,1.48,0,0,0,0-.21Z"/>
                        <path class="cls-45"
                              d="M240.15,158.7v-7.88L238,149.6c-.62,3.72-5,6.18-8.66,6.69l-24.94,14.58-10.88,3.93-34.74-17.93.8-.46c-3-1.39-4.56-4.56-6.17-7.46l-2.34,1.4-1.39.39v8.09h0c0,1.54,1,3.09,3.06,4.26l34.8,20.1a16.37,16.37,0,0,0,14.78,0l34.8-20.1c2-1.15,3-2.67,3.06-4.19a1.41,1.41,0,0,0,0-.2Z"/>
                        <path class="cls-6"
                              d="M229.31,156.29l-24.94,14.58-9.47,3.42V185a15.18,15.18,0,0,0,7.39-1.76l34.8-20.1c2-1.15,3-2.67,3.06-4.19a1.41,1.41,0,0,0,0-.2h0v-7.88l-2-1.11H238C237.27,153.37,232.94,155.78,229.31,156.29Z"/>
                        <path class="cls-46"
                              d="M159.55,156.41l33-19a5.21,5.21,0,0,1,4.74,0l32.4,18.71-.36.21c3.66-.51,8-3,8.66-6.69L201.6,129.38,191,126.58l-8.62,5.06-29,17.31C155,151.85,156.58,155,159.55,156.41Z"/>
                        <path class="cls-6"
                              d="M194.9,127.61l-3.88-1-8.62,5.06-29,17.31c1.61,2.9,3.2,6.07,6.17,7.46l33-19a4.83,4.83,0,0,1,2.37-.57Z"/>
                        <path class="cls-47"
                              d="M187.51,175.18l-34.8-20.1c-4.08-2.35-4.08-6.18,0-8.53l34.8-20.09a16.31,16.31,0,0,1,14.78,0l34.8,20.09c4.08,2.35,4.08,6.18,0,8.53l-34.8,20.1A16.37,16.37,0,0,1,187.51,175.18Zm9.76-45.82a5.21,5.21,0,0,0-4.74,0l-34.8,20.09c-1.3.75-1.3,2,0,2.73l34.8,20.1a5.27,5.27,0,0,0,4.74,0l34.8-20.1c1.3-.75,1.3-2,0-2.73Z"/>
                        <path class="cls-13"
                              d="M232.07,149.45l-34.8-20.09a5.21,5.21,0,0,0-4.74,0l-34.8,20.09c-.87.5-1.16,1.21-.86,1.86a2,2,0,0,1,.86-.88l34.8-20.09a5.27,5.27,0,0,1,4.74,0l34.8,20.09a2.09,2.09,0,0,1,.87.88C233.23,150.67,232.94,150,232.07,149.45Z"/>
                        <path class="cls-13"
                              d="M237.09,155.08l-34.8,20.1a16.37,16.37,0,0,1-14.78,0l-34.8-20.1a5.49,5.49,0,0,1-3-3.77c-.24,1.7.76,3.45,3,4.75l34.8,20.1a16.37,16.37,0,0,0,14.78,0l34.8-20.09c2.26-1.31,3.26-3.06,3-4.76A5.47,5.47,0,0,1,237.09,155.08Z"/>
                        <path class="cls-48"
                              d="M188.49,174.61l-34.8-20.1c-3.53-2-3.53-5.35,0-7.39l34.8-20.1a14.19,14.19,0,0,1,12.82,0l34.8,20.1c3.53,2,3.53,5.36,0,7.4l-34.8,20.09A14.19,14.19,0,0,1,188.49,174.61Zm9.76-45.82a7.39,7.39,0,0,0-6.7,0l-34.8,20.09c-1.85,1.07-1.85,2.8,0,3.87l34.8,20.09a7.39,7.39,0,0,0,6.7,0l34.8-20.09c1.85-1.07,1.85-2.8,0-3.87Z"/>
                        <path class="cls-10"
                              d="M197.27,129.36a5.21,5.21,0,0,0-4.74,0l-34.8,20.09c-1.3.75-1.3,2,0,2.73l34.8,20.1a5.27,5.27,0,0,0,4.74,0l34.8-20.1c1.3-.75,1.3-2,0-2.73Z"/>
                    </g>
                </g>
                <path class="cls-49"
                      d="M216.06,209.75a5.44,5.44,0,0,1-2.67-.68l-121.27-70a2.13,2.13,0,0,1-1.24-1.71A1.62,1.62,0,0,1,91.8,136L164.16,94.2a5.26,5.26,0,0,1,4.78.18l121.26,70a2.13,2.13,0,0,1,1.24,1.72,1.62,1.62,0,0,1-.92,1.37l-72.36,41.78A4.26,4.26,0,0,1,216.06,209.75ZM92.41,138.56l121.26,70a4.67,4.67,0,0,0,4.2.18L290.23,167a1.08,1.08,0,0,0,.64-.87c0-.43-.35-.87-1-1.22l-121.26-70a4.7,4.7,0,0,0-4.2-.19L92.09,136.47a1.09,1.09,0,0,0-.63.88c0,.42.34.86,1,1.21Z"/>
                <path class="cls-13"
                      d="M92.27,140.85l121.26,70A5,5,0,0,0,218,211l72.36-41.77a1.5,1.5,0,0,0,.73-.85,1.25,1.25,0,0,1-.73,1.39L218,211.59a5,5,0,0,1-4.49-.19l-121.26-70c-.86-.5-1.22-1.16-1-1.74A2.05,2.05,0,0,0,92.27,140.85Z"/>
                <g class="cls-50">
                    <g class="cls-51">
                        <path class="cls-52"
                              d="M168.09,96.3l6.69,3.49,67-38.7a4.84,4.84,0,0,1,4.37.18L361.82,128c1.11-.62,6.15-3,6.15-3l-2.45,4h0a1.48,1.48,0,0,1-.68.76l-70.61,40.76a4.84,4.84,0,0,1-4.37-.18L171.53,102a2.15,2.15,0,0,1-1-1h0Z"/>
                        <path class="cls-53"
                              d="M169.13,97.4l121.26,70a5,5,0,0,0,4.48.19l72.37-41.78c1.15-.66,1-1.82-.33-2.59l-121.26-70a5,5,0,0,0-4.48-.19L168.8,94.81C167.65,95.48,167.8,96.63,169.13,97.4Z"/>
                        <path class="cls-29"
                              d="M169.13,97.4l121.26,70a5,5,0,0,0,4.48.19l72.37-41.78c1.15-.66,1-1.82-.33-2.59l-121.26-70a5,5,0,0,0-4.48-.19L168.8,94.81C167.65,95.48,167.8,96.63,169.13,97.4Z"/>
                        <path class="cls-34"
                              d="M169.13,97.4l121.26,70a5,5,0,0,0,4.48.19l72.37-41.78c1.15-.66,1-1.82-.33-2.59l-121.26-70a5,5,0,0,0-4.48-.19L168.8,94.81C167.65,95.48,167.8,96.63,169.13,97.4Z"/>
                        <path class="cls-13"
                              d="M366.91,123.23l-121.26-70a5.32,5.32,0,0,0-3-.61,5.12,5.12,0,0,1,2.11.61l121.26,70c1.33.77,1.47,1.93.32,2.59L294,167.6a3.77,3.77,0,0,1-1.49.42,4.21,4.21,0,0,0,2.38-.42l72.37-41.78C368.39,125.16,368.24,124,366.91,123.23Z"/>
                        <path class="cls-54"
                              d="M258.49,137l-34.8-20.1c-3.53-2-3.53-5.36,0-7.4l34.8-20.09a14.19,14.19,0,0,1,12.82,0l34.8,20.09c3.53,2,3.53,5.36,0,7.4L271.31,137A14.19,14.19,0,0,1,258.49,137Z"/>
                        <path class="cls-55"
                              d="M310.07,107.58V99.7l-2.18-1.21c-.62,3.72-5,6.17-8.66,6.68l-24.94,14.58-10.88,3.93-34.74-17.92.8-.47c-3-1.38-4.56-4.56-6.17-7.45L221,99.23l-1.39.39v8.09h0c0,1.55,1,3.09,3.06,4.27l34.8,20.09a16.37,16.37,0,0,0,14.78,0L307,112c2-1.16,3-2.67,3.05-4.19v-.21Z"/>
                        <path class="cls-6"
                              d="M299.23,105.17l-24.94,14.58-9.47,3.42v10.67a15.07,15.07,0,0,0,7.39-1.77L307,112c2-1.16,3-2.67,3.05-4.19v-.21h0V99.7l-2-1.11h-.21C307.19,102.25,302.86,104.66,299.23,105.17Z"/>
                        <path class="cls-56"
                              d="M229.47,105.29l33-19a5.27,5.27,0,0,1,4.74,0L299.59,105l-.36.21c3.66-.51,8-3,8.66-6.68L271.52,78.26l-10.58-2.8-8.61,5.07-29,17.31C224.91,100.73,226.51,103.91,229.47,105.29Z"/>
                        <path class="cls-6"
                              d="M264.82,76.49l-3.88-1-8.61,5.07-29,17.31c1.61,2.89,3.21,6.07,6.17,7.45l33-19a4.83,4.83,0,0,1,2.37-.56Z"/>
                        <path class="cls-19"
                              d="M257.43,124.06,222.63,104c-4.08-2.36-4.08-6.19,0-8.54l34.8-20.09a16.37,16.37,0,0,1,14.78,0L307,95.43c4.08,2.36,4.08,6.18,0,8.54l-34.81,20.09A16.37,16.37,0,0,1,257.43,124.06Zm9.76-45.82a5.27,5.27,0,0,0-4.74,0l-34.8,20.09c-1.3.76-1.3,2,0,2.74l34.81,20.09a5.25,5.25,0,0,0,4.73,0L302,101.07c1.31-.76,1.31-2,0-2.74Z"/>
                        <path class="cls-13"
                              d="M302,98.33l-34.8-20.09a5.27,5.27,0,0,0-4.74,0l-34.8,20.09c-.87.51-1.15,1.22-.86,1.86a2,2,0,0,1,.86-.87l34.8-20.1a5.27,5.27,0,0,1,4.74,0L302,99.32a2,2,0,0,1,.87.87C303.15,99.55,302.86,98.84,302,98.33Z"/>
                        <path class="cls-13"
                              d="M307,104l-34.81,20.09a16.37,16.37,0,0,1-14.78,0L222.63,104a5.51,5.51,0,0,1-3-3.78c-.24,1.7.77,3.46,3,4.76L257.43,125a16.37,16.37,0,0,0,14.78,0L307,105c2.25-1.3,3.25-3,3-4.76A5.49,5.49,0,0,1,307,104Z"/>
                        <path class="cls-57"
                              d="M258.42,123.49,223.61,103.4c-3.53-2-3.53-5.36,0-7.4l34.8-20.09a14.19,14.19,0,0,1,12.82,0L306,96c3.53,2,3.53,5.36,0,7.4l-34.8,20.09A14.17,14.17,0,0,1,258.42,123.49Zm9.75-45.82a7.46,7.46,0,0,0-6.7,0l-34.8,20.09c-1.85,1.07-1.85,2.81,0,3.87l34.8,20.1a7.46,7.46,0,0,0,6.7,0l34.8-20.1c1.85-1.06,1.85-2.8,0-3.86Z"/>
                        <path class="cls-10"
                              d="M267.19,78.24a5.27,5.27,0,0,0-4.74,0l-34.8,20.09c-1.3.76-1.3,2,0,2.74l34.81,20.09a5.25,5.25,0,0,0,4.73,0L302,101.07c1.31-.76,1.31-2,0-2.74Z"/>
                        <path class="cls-10"
                              d="M310.07,100.56V88.64l-2.18-1.22c-.62,3.73-5,6.18-8.66,6.69l-24.94,14.58-10.88,3.93L228.67,94.69l.8-.46c-3-1.39-4.56-4.56-6.17-7.45L221,88.17l-1.39.39v12.12h0c0,1.55,1,3.09,3.06,4.27L257.43,125a16.37,16.37,0,0,0,14.78,0L307,105c2-1.16,3-2.67,3.05-4.19v-.21Z"/>
                        <path class="cls-58"
                              d="M310.07,90V82.08l-2.18-1.22c-.62,3.73-5,6.18-8.66,6.69l-24.94,14.58-10.88,3.93L228.67,88.13l.8-.46c-3-1.39-4.56-4.56-6.17-7.45L221,81.61l-1.39.39v8.09h0c0,1.54,1,3.09,3.06,4.26l34.8,20.1a16.37,16.37,0,0,0,14.78,0L307,94.36c2-1.16,3-2.68,3.05-4.2V90Z"/>
                        <path class="cls-6"
                              d="M299.23,87.55l-24.94,14.58-9.47,3.42v10.66a15.18,15.18,0,0,0,7.39-1.76L307,94.36c2-1.16,3-2.68,3.05-4.2V90h0V82.08l-2-1.11h-.21C307.19,84.63,302.86,87,299.23,87.55Z"/>
                        <path class="cls-59"
                              d="M229.47,87.67l33-19a5.27,5.27,0,0,1,4.74,0l32.4,18.71-.36.21c3.66-.51,8-3,8.66-6.69L271.52,60.64l-10.58-2.8-8.61,5.06-29,17.32C224.91,83.11,226.51,86.28,229.47,87.67Z"/>
                        <path class="cls-6"
                              d="M264.82,58.87l-3.88-1-8.61,5.06-29,17.32c1.61,2.89,3.21,6.06,6.17,7.45l33-19a4.83,4.83,0,0,1,2.37-.57Z"/>
                        <path class="cls-19"
                              d="M257.43,106.44l-34.8-20.1c-4.08-2.35-4.08-6.18,0-8.53l34.8-20.09a16.31,16.31,0,0,1,14.78,0L307,77.81c4.08,2.35,4.08,6.18,0,8.53l-34.81,20.1A16.37,16.37,0,0,1,257.43,106.44Zm9.76-45.82a5.21,5.21,0,0,0-4.74,0l-34.8,20.09c-1.3.75-1.3,2,0,2.73l34.81,20.1a5.25,5.25,0,0,0,4.73,0L302,83.44c1.31-.75,1.31-2,0-2.73Z"/>
                        <path class="cls-13"
                              d="M302,80.71l-34.8-20.09a5.21,5.21,0,0,0-4.74,0l-34.8,20.09c-.87.5-1.15,1.22-.86,1.86a2,2,0,0,1,.86-.88l34.8-20.09a5.27,5.27,0,0,1,4.74,0L302,81.69a2,2,0,0,1,.87.88C303.15,81.93,302.86,81.21,302,80.71Z"/>
                        <path class="cls-13"
                              d="M307,86.34l-34.81,20.1a16.37,16.37,0,0,1-14.78,0l-34.8-20.1a5.47,5.47,0,0,1-3-3.77c-.24,1.7.77,3.45,3,4.76l34.8,20.09a16.37,16.37,0,0,0,14.78,0L307,87.33c2.25-1.3,3.25-3.06,3-4.76A5.45,5.45,0,0,1,307,86.34Z"/>
                        <path class="cls-60"
                              d="M258.42,105.87,223.61,85.78c-3.53-2-3.53-5.36,0-7.4l34.8-20.1a14.19,14.19,0,0,1,12.82,0L306,78.38c3.53,2,3.53,5.36,0,7.4l-34.8,20.09A14.17,14.17,0,0,1,258.42,105.87Zm9.75-45.82a7.39,7.39,0,0,0-6.7,0l-34.8,20.09c-1.85,1.07-1.85,2.8,0,3.87l34.8,20.09a7.39,7.39,0,0,0,6.7,0L303,84c1.85-1.07,1.85-2.8,0-3.87Z"/>
                        <path class="cls-10"
                              d="M267.19,60.62a5.21,5.21,0,0,0-4.74,0l-34.8,20.09c-1.3.75-1.3,2,0,2.73l34.81,20.1a5.25,5.25,0,0,0,4.73,0L302,83.44c1.31-.75,1.31-2,0-2.73Z"/>
                        <path class="cls-10"
                              d="M310.07,82.93V71l-2.18-1.22c-.62,3.72-5,6.18-8.66,6.69L274.29,91.07,263.41,95,228.67,77.07l.8-.46c-3-1.39-4.56-4.56-6.17-7.46L221,70.55l-1.39.39V83.06h0c0,1.54,1,3.09,3.06,4.27l34.8,20.09a16.37,16.37,0,0,0,14.78,0L307,87.33c2-1.16,3-2.68,3.05-4.2v-.2Z"/>
                        <path class="cls-61"
                              d="M310.07,72.34V64.45l-2.18-1.21c-.62,3.72-5,6.18-8.66,6.68L274.29,84.51l-10.88,3.93L228.67,70.51l.8-.46c-3-1.39-4.56-4.56-6.17-7.46L221,64l-1.39.39v8.09h0c0,1.54,1,3.09,3.06,4.26l34.8,20.1a16.37,16.37,0,0,0,14.78,0L307,76.73c2-1.15,3-2.67,3.05-4.19v-.2Z"/>
                        <path class="cls-6"
                              d="M299.23,69.92,274.29,84.51l-9.47,3.42V98.59a15.18,15.18,0,0,0,7.39-1.76L307,76.73c2-1.15,3-2.67,3.05-4.19v-.2h0V64.45l-2-1.1h-.21C307.19,67,302.86,69.42,299.23,69.92Z"/>
                        <path class="cls-62"
                              d="M229.47,70.05l33-19a5.21,5.21,0,0,1,4.74,0l32.4,18.7-.36.21c3.66-.5,8-3,8.66-6.68L271.52,43l-10.58-2.8-8.61,5.06-29,17.31C224.91,65.49,226.51,68.66,229.47,70.05Z"/>
                        <path class="cls-6"
                              d="M264.82,41.24l-3.88-1-8.61,5.06-29,17.31c1.61,2.9,3.21,6.07,6.17,7.46l33-19a4.83,4.83,0,0,1,2.37-.57Z"/>
                        <path class="cls-19"
                              d="M257.43,88.81l-34.8-20.09c-4.08-2.35-4.08-6.18,0-8.53l34.8-20.1a16.37,16.37,0,0,1,14.78,0L307,60.19c4.08,2.35,4.08,6.18,0,8.53L272.21,88.81A16.31,16.31,0,0,1,257.43,88.81ZM267.19,43a5.27,5.27,0,0,0-4.74,0l-34.8,20.1c-1.3.75-1.3,2,0,2.73l34.81,20.09a5.19,5.19,0,0,0,4.73,0L302,65.82c1.31-.75,1.31-2,0-2.73Z"/>
                        <path class="cls-13"
                              d="M302,63.09,267.19,43a5.27,5.27,0,0,0-4.74,0l-34.8,20.1c-.87.5-1.15,1.21-.86,1.86a2,2,0,0,1,.86-.88L262.45,44a5.21,5.21,0,0,1,4.74,0L302,64.07a2,2,0,0,1,.87.88C303.15,64.3,302.86,63.59,302,63.09Z"/>
                        <path class="cls-13"
                              d="M307,68.72,272.21,88.81a16.31,16.31,0,0,1-14.78,0l-34.8-20.09a5.49,5.49,0,0,1-3-3.77c-.24,1.7.77,3.45,3,4.75l34.8,20.1a16.37,16.37,0,0,0,14.78,0L307,69.7c2.25-1.3,3.25-3,3-4.75A5.47,5.47,0,0,1,307,68.72Z"/>
                        <path class="cls-63"
                              d="M258.42,88.25l-34.81-20.1c-3.53-2-3.53-5.36,0-7.4l34.8-20.09a14.19,14.19,0,0,1,12.82,0L306,60.76c3.53,2,3.53,5.35,0,7.39l-34.8,20.1A14.17,14.17,0,0,1,258.42,88.25Zm9.75-45.82a7.39,7.39,0,0,0-6.7,0l-34.8,20.09c-1.85,1.07-1.85,2.8,0,3.87l34.8,20.09a7.39,7.39,0,0,0,6.7,0L303,66.39c1.85-1.07,1.85-2.8,0-3.87Z"/>
                        <path class="cls-10"
                              d="M267.19,43a5.27,5.27,0,0,0-4.74,0l-34.8,20.1c-1.3.75-1.3,2,0,2.73l34.81,20.09a5.19,5.19,0,0,0,4.73,0L302,65.82c1.31-.75,1.31-2,0-2.73Z"/>
                        <path class="cls-10"
                              d="M310.07,65.31V53.39l-2.18-1.21c-.62,3.72-5,6.17-8.66,6.68L274.29,73.45l-10.88,3.93L228.67,59.45l.8-.46c-3-1.39-4.56-4.56-6.17-7.46L221,52.93l-1.39.39V65.44h0c0,1.54,1,3.09,3.06,4.26l34.8,20.1a16.37,16.37,0,0,0,14.78,0L307,69.7c2-1.15,3-2.67,3.05-4.19v-.2Z"/>
                        <path class="cls-64"
                              d="M310.07,54.72V46.83l-2.18-1.21c-.62,3.72-5,6.17-8.66,6.68L274.29,66.89l-10.88,3.93L228.67,52.89l.8-.47c-3-1.38-4.56-4.55-6.17-7.45L221,46.37l-1.39.39v8.08h0c0,1.55,1,3.09,3.06,4.27l34.8,20.09a16.31,16.31,0,0,0,14.78,0L307,59.11c2-1.16,3-2.67,3.05-4.19v-.2Z"/>
                        <path class="cls-6"
                              d="M299.23,52.3,274.29,66.89l-9.47,3.42V81a15.07,15.07,0,0,0,7.39-1.77L307,59.11c2-1.16,3-2.67,3.05-4.19v-.2h0V46.83l-2-1.11h-.21C307.19,49.39,302.86,51.8,299.23,52.3Z"/>
                        <path class="cls-65"
                              d="M229.47,52.42l33-19a5.27,5.27,0,0,1,4.74,0l32.4,18.71-.36.21c3.66-.51,8-3,8.66-6.68L271.52,25.39,260.94,22.6l-8.61,5.06L223.3,45C224.91,47.87,226.51,51,229.47,52.42Z"/>
                        <path class="cls-6"
                              d="M264.82,23.62l-3.88-1-8.61,5.06L223.3,45c1.61,2.9,3.21,6.07,6.17,7.45l33-19a4.94,4.94,0,0,1,2.37-.56Z"/>
                        <path class="cls-66"
                              d="M257.43,71.19,222.63,51.1c-4.08-2.35-4.08-6.18,0-8.53l34.8-20.1a16.37,16.37,0,0,1,14.78,0L307,42.57c4.08,2.35,4.08,6.18,0,8.53L272.21,71.19A16.31,16.31,0,0,1,257.43,71.19Zm9.76-45.82a5.27,5.27,0,0,0-4.74,0l-34.8,20.1c-1.3.75-1.3,2,0,2.73l34.81,20.09a5.19,5.19,0,0,0,4.73,0L302,48.2c1.31-.75,1.31-2,0-2.73Z"/>
                        <path class="cls-13"
                              d="M302,45.47l-34.8-20.1a5.27,5.27,0,0,0-4.74,0l-34.8,20.1c-.87.5-1.15,1.21-.86,1.85a2,2,0,0,1,.86-.87l34.8-20.1a5.24,5.24,0,0,1,4.74,0L302,46.45a2,2,0,0,1,.87.87C303.15,46.68,302.86,46,302,45.47Z"/>
                        <path class="cls-13"
                              d="M307,51.1,272.21,71.19a16.31,16.31,0,0,1-14.78,0L222.63,51.1a5.49,5.49,0,0,1-3-3.78c-.24,1.71.77,3.46,3,4.76l34.8,20.09a16.31,16.31,0,0,0,14.78,0L307,52.08c2.25-1.3,3.25-3,3-4.76A5.47,5.47,0,0,1,307,51.1Z"/>
                        <path class="cls-67"
                              d="M258.42,70.62,223.61,50.53c-3.53-2-3.53-5.36,0-7.4L258.41,23a14.19,14.19,0,0,1,12.82,0L306,43.13c3.53,2,3.53,5.36,0,7.4l-34.8,20.09A14.17,14.17,0,0,1,258.42,70.62Zm9.75-45.81a7.42,7.42,0,0,0-6.7,0l-34.8,20.1c-1.85,1.06-1.85,2.8,0,3.87l34.8,20.09a7.39,7.39,0,0,0,6.7,0L303,48.77c1.85-1.07,1.85-2.8,0-3.87Z"/>
                        <path class="cls-10"
                              d="M267.19,25.37a5.27,5.27,0,0,0-4.74,0l-34.8,20.1c-1.3.75-1.3,2,0,2.73l34.81,20.09a5.19,5.19,0,0,0,4.73,0L302,48.2c1.31-.75,1.31-2,0-2.73Z"/>
                    </g>
                </g>
                <path class="cls-9"
                      d="M285.91,78.56a1.77,1.77,0,0,1-.89-.25,2.64,2.64,0,0,1-1.26-2.66,1.33,1.33,0,0,1,.75-1,1.61,1.61,0,0,1,1.43.16,2.63,2.63,0,0,1,1.26,2.65h0a1.37,1.37,0,0,1-.76,1A1.32,1.32,0,0,1,285.91,78.56ZM285,75a.86.86,0,0,0-.36.07,1,1,0,0,0-.52.68,2.19,2.19,0,0,0,1.06,2.2,1.21,1.21,0,0,0,1.06.13.9.9,0,0,0,.51-.67h0a2.17,2.17,0,0,0-1.06-2.2A1.43,1.43,0,0,0,285,75Z"/>
                <path class="cls-9"
                      d="M290.81,81.39a1.77,1.77,0,0,1-.89-.25,2.64,2.64,0,0,1-1.26-2.66,1.36,1.36,0,0,1,.75-1,1.61,1.61,0,0,1,1.43.16,2.63,2.63,0,0,1,1.26,2.65h0a1.34,1.34,0,0,1-.76,1A1.32,1.32,0,0,1,290.81,81.39Zm-.87-3.56a1,1,0,0,0-.36.07,1,1,0,0,0-.52.68,2.19,2.19,0,0,0,1.06,2.2,1.21,1.21,0,0,0,1.06.13.93.93,0,0,0,.52-.68,2.21,2.21,0,0,0-1.06-2.2A1.5,1.5,0,0,0,289.94,77.83Z"/>
                <path class="cls-9"
                      d="M296.8,83.11a1.18,1.18,0,0,1-1.88.68,2.42,2.42,0,0,1-1.16-2.43,1.18,1.18,0,0,1,1.88-.68A2.41,2.41,0,0,1,296.8,83.11Z"/>
                <polygon class="cls-9" points="202.81 29.02 200.19 27.51 200.4 26.3 203.02 27.81 202.81 29.02"/>
                <polygon class="cls-9" points="206.62 31.23 204 29.71 204.21 28.5 206.83 30.01 206.62 31.23"/>
                <polygon class="cls-9" points="199.04 26.85 193.29 23.53 193.5 22.32 199.25 25.64 199.04 26.85"/>
                <path class="cls-68"
                      d="M188.28,175.89l-36-20.78c-3.65-2.11-3.65-5.54,0-7.65l36-20.77a14.68,14.68,0,0,1,13.26,0l36,20.77c3.65,2.11,3.65,5.55,0,7.65l-36,20.78A14.66,14.66,0,0,1,188.28,175.89Z"/>
                <path class="cls-69"
                      d="M240.15,146.45v-7.88L238,137.35c-.62,3.72-5,6.18-8.66,6.69l-24.94,14.58-10.88,3.93-34.74-17.93.8-.46c-3-1.39-4.56-4.56-6.17-7.46L151,138.1l-1.39.39v8.09h0c0,1.54,1,3.09,3.06,4.26l34.8,20.1a16.37,16.37,0,0,0,14.78,0l34.8-20.1c2-1.15,3-2.67,3.06-4.19a1.34,1.34,0,0,0,0-.2Z"/>
                <path class="cls-6"
                      d="M229.31,144l-24.94,14.58L194.9,162V172.7a15.18,15.18,0,0,0,7.39-1.76l34.8-20.1c2-1.15,3-2.67,3.06-4.19a1.34,1.34,0,0,0,0-.2h0v-7.88l-2-1.11H238C237.27,141.12,232.94,143.53,229.31,144Z"/>
                <path class="cls-70"
                      d="M159.55,144.16l33-19a5.21,5.21,0,0,1,4.74,0l32.4,18.71-.36.21c3.66-.51,8-3,8.66-6.69L201.6,117.13,191,114.33l-8.62,5.06-29,17.31C155,139.6,156.58,142.77,159.55,144.16Z"/>
                <path class="cls-6"
                      d="M194.9,115.35l-3.88-1-8.62,5.06-29,17.31c1.61,2.9,3.2,6.07,6.17,7.46l33-19a4.83,4.83,0,0,1,2.37-.57Z"/>
                <path class="cls-19"
                      d="M187.51,162.93l-34.8-20.1c-4.08-2.35-4.08-6.18,0-8.53l34.8-20.1a16.34,16.34,0,0,1,14.78,0l34.8,20.09c4.08,2.35,4.08,6.18,0,8.53l-34.8,20.1A16.37,16.37,0,0,1,187.51,162.93Zm9.76-45.82a5.21,5.21,0,0,0-4.74,0l-34.8,20.09c-1.3.75-1.3,2,0,2.73L192.53,160a5.21,5.21,0,0,0,4.74,0l34.8-20.09c1.3-.75,1.3-2,0-2.73Z"/>
                <path class="cls-13"
                      d="M232.07,137.2l-34.8-20.09a5.21,5.21,0,0,0-4.74,0l-34.8,20.09c-.87.5-1.16,1.21-.86,1.86a2,2,0,0,1,.86-.88l34.8-20.09a5.21,5.21,0,0,1,4.74,0l34.8,20.09a2.09,2.09,0,0,1,.87.88C233.23,138.41,232.94,137.7,232.07,137.2Z"/>
                <path class="cls-13"
                      d="M237.09,142.83l-34.8,20.1a16.37,16.37,0,0,1-14.78,0l-34.8-20.1a5.49,5.49,0,0,1-3-3.77c-.24,1.7.76,3.45,3,4.75l34.8,20.1a16.37,16.37,0,0,0,14.78,0l34.8-20.1c2.26-1.3,3.26-3.05,3-4.75A5.49,5.49,0,0,1,237.09,142.83Z"/>
                <path class="cls-71"
                      d="M188.49,162.36l-34.8-20.1c-3.53-2-3.53-5.35,0-7.39l34.8-20.1a14.19,14.19,0,0,1,12.82,0l34.8,20.1c3.53,2,3.53,5.36,0,7.39l-34.8,20.1A14.19,14.19,0,0,1,188.49,162.36Zm9.76-45.82a7.39,7.39,0,0,0-6.7,0l-34.8,20.09c-1.85,1.07-1.85,2.8,0,3.87l34.8,20.09a7.39,7.39,0,0,0,6.7,0l34.8-20.09c1.85-1.07,1.85-2.8,0-3.87Z"/>
                <path class="cls-10"
                      d="M197.27,117.11a5.21,5.21,0,0,0-4.74,0l-34.8,20.09c-1.3.75-1.3,2,0,2.73L192.53,160a5.21,5.21,0,0,0,4.74,0l34.8-20.09c1.3-.75,1.3-2,0-2.73Z"/>
                <path class="cls-10"
                      d="M240.15,139.42V127.5L238,126.29c-.62,3.72-5,6.17-8.66,6.68l-24.94,14.59-10.88,3.93-34.74-17.93.8-.46c-3-1.39-4.56-4.56-6.17-7.46L151,127l-1.39.39v12.12h0c0,1.54,1,3.09,3.06,4.26l34.8,20.1a16.37,16.37,0,0,0,14.78,0l34.8-20.1c2-1.15,3-2.67,3.06-4.19a1.41,1.41,0,0,0,0-.2Z"/>
                <path class="cls-72"
                      d="M240.15,128.83v-7.89L238,119.73c-.62,3.72-5,6.17-8.66,6.68L204.37,141l-10.88,3.93L158.75,127l.8-.46c-3-1.39-4.56-4.56-6.17-7.46l-2.34,1.4-1.39.39V129h0c0,1.55,1,3.09,3.06,4.27l34.8,20.09a16.31,16.31,0,0,0,14.78,0l34.8-20.09c2-1.16,3-2.67,3.06-4.19a1.27,1.27,0,0,0,0-.2Z"/>
                <path class="cls-6"
                      d="M229.31,126.41,204.37,141l-9.47,3.42v10.66a15.07,15.07,0,0,0,7.39-1.77l34.8-20.09c2-1.16,3-2.67,3.06-4.19a1.27,1.27,0,0,0,0-.2h0v-7.89l-2-1.11H238C237.27,123.5,232.94,125.91,229.31,126.41Z"/>
                <path class="cls-73"
                      d="M159.55,126.54l33-19.05a5.27,5.27,0,0,1,4.74,0l32.4,18.71-.36.21c3.66-.51,8-3,8.66-6.68L201.6,99.5,191,96.71l-8.62,5.06-29,17.31C155,122,156.58,125.15,159.55,126.54Z"/>
                <path class="cls-6"
                      d="M194.9,97.73l-3.88-1-8.62,5.06-29,17.31c1.61,2.9,3.2,6.07,6.17,7.46l33-19.05a4.94,4.94,0,0,1,2.37-.56Z"/>
                <path class="cls-19"
                      d="M187.51,145.3l-34.8-20.09c-4.08-2.35-4.08-6.18,0-8.53l34.8-20.1a16.37,16.37,0,0,1,14.78,0l34.8,20.1c4.08,2.35,4.08,6.18,0,8.53l-34.8,20.09A16.31,16.31,0,0,1,187.51,145.3Zm9.76-45.82a5.27,5.27,0,0,0-4.74,0l-34.8,20.1c-1.3.75-1.3,2,0,2.73l34.8,20.09a5.21,5.21,0,0,0,4.74,0l34.8-20.09c1.3-.75,1.3-2,0-2.73Z"/>
                <path class="cls-13"
                      d="M232.07,119.58l-34.8-20.1a5.27,5.27,0,0,0-4.74,0l-34.8,20.1c-.87.5-1.16,1.21-.86,1.85a2,2,0,0,1,.86-.87l34.8-20.09a5.21,5.21,0,0,1,4.74,0l34.8,20.09a2.07,2.07,0,0,1,.87.87C233.23,120.79,232.94,120.08,232.07,119.58Z"/>
                <path class="cls-13"
                      d="M237.09,125.21l-34.8,20.09a16.31,16.31,0,0,1-14.78,0l-34.8-20.09a5.49,5.49,0,0,1-3-3.78c-.24,1.71.76,3.46,3,4.76l34.8,20.1a16.37,16.37,0,0,0,14.78,0l34.8-20.1c2.26-1.3,3.26-3,3-4.76A5.49,5.49,0,0,1,237.09,125.21Z"/>
                <path class="cls-74"
                      d="M188.49,144.74l-34.8-20.1c-3.53-2-3.53-5.36,0-7.4l34.8-20.09a14.19,14.19,0,0,1,12.82,0l34.8,20.09c3.53,2,3.53,5.36,0,7.4l-34.8,20.1A14.19,14.19,0,0,1,188.49,144.74Zm9.76-45.82a7.39,7.39,0,0,0-6.7,0L156.75,119c-1.85,1.07-1.85,2.8,0,3.87L191.55,143a7.39,7.39,0,0,0,6.7,0l34.8-20.09c1.85-1.07,1.85-2.8,0-3.87Z"/>
                <path class="cls-10"
                      d="M197.27,99.48a5.27,5.27,0,0,0-4.74,0l-34.8,20.1c-1.3.75-1.3,2,0,2.73l34.8,20.09a5.21,5.21,0,0,0,4.74,0l34.8-20.09c1.3-.75,1.3-2,0-2.73Z"/>
                <path class="cls-10"
                      d="M240.15,121.8V109.88L238,108.67c-.62,3.72-5,6.17-8.66,6.68l-24.94,14.59-10.88,3.93-34.74-17.93.8-.47c-3-1.38-4.56-4.56-6.17-7.45l-2.34,1.4-1.39.39v12.12h0c0,1.54,1,3.09,3.06,4.26l34.8,20.1a16.37,16.37,0,0,0,14.78,0l34.8-20.1c2-1.15,3-2.67,3.06-4.19a1.34,1.34,0,0,0,0-.2Z"/>
                <path class="cls-75"
                      d="M240.15,111.21v-7.89L238,102.11c-.62,3.72-5,6.17-8.66,6.68l-24.94,14.58-10.88,3.93-34.74-17.92.8-.47c-3-1.38-4.56-4.56-6.17-7.45L151,102.85l-1.39.39v8.09h0c0,1.55,1,3.09,3.06,4.27l34.8,20.09a16.37,16.37,0,0,0,14.78,0l34.8-20.09c2-1.16,3-2.67,3.06-4.19a1.48,1.48,0,0,0,0-.21Z"/>
                <path class="cls-6"
                      d="M229.31,108.79l-24.94,14.58-9.47,3.42v10.67a15.07,15.07,0,0,0,7.39-1.77l34.8-20.09c2-1.16,3-2.67,3.06-4.19a1.48,1.48,0,0,0,0-.21h0v-7.89l-2-1.11H238C237.27,105.87,232.94,108.29,229.31,108.79Z"/>
                <path class="cls-76"
                      d="M159.55,108.91l33-19a5.27,5.27,0,0,1,4.74,0l32.4,18.71-.36.21c3.66-.51,8-3,8.66-6.68L201.6,81.88,191,79.09l-8.62,5.06-29,17.31C155,104.35,156.58,107.53,159.55,108.91Z"/>
                <path class="cls-6"
                      d="M194.9,80.11l-3.88-1-8.62,5.06-29,17.31c1.61,2.89,3.2,6.07,6.17,7.45l33-19a4.94,4.94,0,0,1,2.37-.56Z"/>
                <path class="cls-19"
                      d="M187.51,127.68l-34.8-20.09c-4.08-2.36-4.08-6.18,0-8.54L187.51,79a16.37,16.37,0,0,1,14.78,0l34.8,20.09c4.08,2.36,4.08,6.19,0,8.54l-34.8,20.09A16.37,16.37,0,0,1,187.51,127.68Zm9.76-45.82a5.27,5.27,0,0,0-4.74,0L157.73,102c-1.3.76-1.3,2,0,2.74l34.8,20.09a5.27,5.27,0,0,0,4.74,0l34.8-20.09c1.3-.76,1.3-2,0-2.74Z"/>
                <path class="cls-13"
                      d="M232.07,102l-34.8-20.09a5.27,5.27,0,0,0-4.74,0L157.73,102c-.87.51-1.16,1.22-.86,1.86a2,2,0,0,1,.86-.87l34.8-20.1a5.27,5.27,0,0,1,4.74,0l34.8,20.1a2.07,2.07,0,0,1,.87.87C233.23,103.17,232.94,102.46,232.07,102Z"/>
                <path class="cls-13"
                      d="M237.09,107.59l-34.8,20.09a16.37,16.37,0,0,1-14.78,0l-34.8-20.09a5.49,5.49,0,0,1-3-3.78c-.24,1.71.76,3.46,3,4.76l34.8,20.09a16.31,16.31,0,0,0,14.78,0l34.8-20.09c2.26-1.3,3.26-3,3-4.76A5.49,5.49,0,0,1,237.09,107.59Z"/>
                <path class="cls-77"
                      d="M188.49,127.11,153.69,107c-3.53-2-3.53-5.36,0-7.4l34.8-20.09a14.19,14.19,0,0,1,12.82,0l34.8,20.09c3.53,2,3.53,5.36,0,7.4l-34.8,20.09A14.19,14.19,0,0,1,188.49,127.11Zm9.76-45.82a7.46,7.46,0,0,0-6.7,0l-34.8,20.1c-1.85,1.06-1.85,2.8,0,3.86l34.8,20.1a7.46,7.46,0,0,0,6.7,0l34.8-20.1c1.85-1.06,1.85-2.8,0-3.86Z"/>
                <path class="cls-10"
                      d="M197.27,81.86a5.27,5.27,0,0,0-4.74,0L157.73,102c-1.3.76-1.3,2,0,2.74l34.8,20.09a5.27,5.27,0,0,0,4.74,0l34.8-20.09c1.3-.76,1.3-2,0-2.74Z"/>
                <path class="cls-10"
                      d="M240.15,104.18V92.26L238,91.05c-.62,3.72-5,6.17-8.66,6.68l-24.94,14.58-10.88,3.93L158.75,98.32l.8-.47c-3-1.38-4.56-4.56-6.17-7.45L151,91.79l-1.39.39V104.3h0c0,1.55,1,3.09,3.06,4.27l34.8,20.09a16.31,16.31,0,0,0,14.78,0l34.8-20.09c2-1.16,3-2.67,3.06-4.19a1.27,1.27,0,0,0,0-.2Z"/>
                <path class="cls-78"
                      d="M240.15,93.58V85.7L238,84.49c-.62,3.72-5,6.17-8.66,6.68l-24.94,14.58-10.88,3.93L158.75,91.75l.8-.46c-3-1.39-4.56-4.56-6.17-7.45L151,85.23l-1.39.39v8.09h0c0,1.54,1,3.09,3.06,4.27l34.8,20.09a16.37,16.37,0,0,0,14.78,0L237.09,98c2-1.16,3-2.67,3.06-4.19a1.48,1.48,0,0,0,0-.21Z"/>
                <path class="cls-6"
                      d="M229.31,91.17l-24.94,14.58-9.47,3.42v10.66a15.07,15.07,0,0,0,7.39-1.76L237.09,98c2-1.16,3-2.67,3.06-4.19a1.48,1.48,0,0,0,0-.21h0V85.7l-2-1.11H238C237.27,88.25,232.94,90.66,229.31,91.17Z"/>
                <path class="cls-79"
                      d="M159.55,91.29l33-19a5.27,5.27,0,0,1,4.74,0L229.67,91l-.36.21c3.66-.51,8-3,8.66-6.68L201.6,64.26,191,61.46l-8.62,5.07-29,17.31C155,86.73,156.58,89.9,159.55,91.29Z"/>
                <path class="cls-6"
                      d="M194.9,62.49l-3.88-1-8.62,5.07-29,17.31c1.61,2.89,3.2,6.06,6.17,7.45l33-19a4.72,4.72,0,0,1,2.37-.56Z"/>
                <path class="cls-80"
                      d="M187.51,110.06,152.71,90c-4.08-2.35-4.08-6.18,0-8.53l34.8-20.09a16.37,16.37,0,0,1,14.78,0l34.8,20.09c4.08,2.35,4.08,6.18,0,8.54l-34.8,20.09A16.37,16.37,0,0,1,187.51,110.06Zm9.76-45.82a5.27,5.27,0,0,0-4.74,0l-34.8,20.09c-1.3.76-1.3,2,0,2.73l34.8,20.1a5.27,5.27,0,0,0,4.74,0l34.8-20.1c1.3-.75,1.3-2,0-2.73Z"/>
                <path class="cls-13"
                      d="M232.07,84.33l-34.8-20.09a5.27,5.27,0,0,0-4.74,0l-34.8,20.09c-.87.5-1.16,1.22-.86,1.86a2.05,2.05,0,0,1,.86-.88l34.8-20.09a5.27,5.27,0,0,1,4.74,0l34.8,20.1a2.07,2.07,0,0,1,.87.87C233.23,85.55,232.94,84.84,232.07,84.33Z"/>
                <path class="cls-13"
                      d="M237.09,90l-34.8,20.09a16.37,16.37,0,0,1-14.78,0L152.71,90a5.47,5.47,0,0,1-3-3.77c-.24,1.7.76,3.46,3,4.76L187.51,111a16.37,16.37,0,0,0,14.78,0L237.09,91c2.26-1.3,3.26-3.06,3-4.76A5.51,5.51,0,0,1,237.09,90Z"/>
                <path class="cls-81"
                      d="M188.49,109.49,153.69,89.4c-3.53-2-3.53-5.36,0-7.4l34.8-20.09a14.19,14.19,0,0,1,12.82,0L236.11,82c3.53,2,3.53,5.36,0,7.4l-34.8,20.09A14.19,14.19,0,0,1,188.49,109.49Zm9.76-45.82a7.42,7.42,0,0,0-6.7,0l-34.8,20.09c-1.85,1.07-1.85,2.81,0,3.87l34.8,20.1a7.46,7.46,0,0,0,6.7,0l34.8-20.1c1.85-1.06,1.85-2.8,0-3.86Z"/>
                <path class="cls-10"
                      d="M197.27,64.24a5.27,5.27,0,0,0-4.74,0l-34.8,20.09c-1.3.76-1.3,2,0,2.73l34.8,20.1a5.27,5.27,0,0,0,4.74,0l34.8-20.1c1.3-.75,1.3-2,0-2.73Z"/>
            </g>
        </g>
    </g>
</svg>