<svg xmlns="http://www.w3.org/2000/svg" xmlns:xlink="http://www.w3.org/1999/xlink" viewBox="0 0 260.47 243.6">
    <defs>
        <style>
            .cls-1{isolation:isolate;}.cls-2{fill:#92b4d1;opacity:0.2;}.cls-3{fill:#2672ab;}.cls-4{fill:#d1ebff;}.cls-5,.cls-6{fill:#3f92d1;}.cls-5{opacity:0.5;}.cls-14,.cls-27,.cls-7,.cls-8{fill:#fff;}.cls-8{opacity:0.3;}.cls-9{fill:#a8cff0;}.cls-10{fill:#72b5e8;}.cls-11{fill:#03336e;}.cls-12{fill:#022652;}.cls-13{fill:#4f9fdb;}.cls-14{mix-blend-mode:screen;}.cls-15,.cls-20{fill:#001a46;}.cls-15{opacity:0.1;}.cls-16{fill:#0fbab8;}.cls-17,.cls-19{mix-blend-mode:multiply;}.cls-17{fill:url(#linear-gradient);}.cls-18{fill:#084c94;}.cls-19{fill:url(#radial-gradient);}.cls-21{fill:#f76195;}.cls-22{fill:#eb4680;}.cls-23{fill:#f5b500;}.cls-24{fill:#ffd70f;}.cls-25{fill:#0ba19f;}.cls-26{fill:#3ecfcd;}.cls-27{opacity:0.7;}
        </style>
        <linearGradient id="linear-gradient" x1="94.17" y1="83.02" x2="130.15" y2="72.98"
                        gradientUnits="userSpaceOnUse">
            <stop offset="0.06" stop-color="#92a3b0"/>
            <stop offset="1" stop-color="#fff"/>
        </linearGradient>
        <radialGradient id="radial-gradient" cx="7464.18" cy="1959.21" r="23.23"
                        gradientTransform="matrix(-0.5, -0.87, -0.5, 0.86, 4769.9, 4878.12)"
                        xlink:href="#linear-gradient"/>
    </defs>
    <g class="cls-1">
        <g id="Слой_2" data-name="Слой 2">
            <g id="Layer_1" data-name="Layer 1">
                <path class="cls-2"
                      d="M157.09,226.79,45.29,162.24c-4.41-2.55-3.86-7,1.24-9.94L110,115.66c5.1-2.94,12.81-3.26,17.22-.71L239,179.5c4.42,2.55,3.87,7-1.23,9.94l-63.45,36.64C169.22,229,161.51,229.34,157.09,226.79Z"/>
                <path class="cls-3"
                      d="M157.09,222.5,45.29,158c-2-1.13-2.95-2.65-3-4.24v-5.54c0-1.93,1.46,1.43,4.22-.16L110,111.37c5.1-2.94,12.81-3.26,17.22-.71L239,175.21c1.48.85,2.55-2.76,2.93-1.61.13.38,0,5.45,0,5.84.05,2-1.38,4.08-4.21,5.71l-63.45,36.64C169.22,224.73,161.51,225.05,157.09,222.5Z"/>
                <path class="cls-4"
                      d="M157.09,217.07,45.29,152.52c-4.41-2.55-3.86-7,1.24-10L110,105.94c5.1-2.94,12.81-3.26,17.22-.72L239,169.77c4.42,2.55,3.87,7-1.23,9.95l-63.45,36.63C169.22,219.29,161.51,219.61,157.09,217.07Z"/>
                <path class="cls-5"
                      d="M157.09,222.5c4.42,2.55,12.13,2.23,17.23-.71v-5.44c-5.1,2.94-12.81,3.26-17.23.72Z"/>
                <path class="cls-6"
                      d="M157.09,217.07,45.29,152.52c-2.13-1.24-3.1-2.91-3-4.65a2.36,2.36,0,0,0,0,.3v5.54c0,1.59,1,3.11,3,4.24l111.8,64.55Z"/>
                <path class="cls-7"
                      d="M237.77,178.8l-63.45,36.63c-5.1,2.94-12.81,3.26-17.23.71L45.29,151.59a5.29,5.29,0,0,1-2.95-3.91c-.22,1.8.74,3.56,2.95,4.84l111.8,64.55c4.42,2.54,12.13,2.22,17.23-.72l63.45-36.63c3-1.72,4.4-4,4.18-6C241.72,175.48,240.31,177.33,237.77,178.8Z"/>
                <path class="cls-8"
                      d="M131.64,194.52l-39.79-23c-.79-.46-.69-1.26.23-1.79L107,161.12a3.44,3.44,0,0,1,3.1-.13l39.79,23c.8.46.7,1.26-.22,1.79l-14.94,8.63A3.46,3.46,0,0,1,131.64,194.52Z"/>
                <path class="cls-9"
                      d="M92.08,170.69,107,162.07a3.44,3.44,0,0,1,3.1-.13l39.79,23a1.19,1.19,0,0,1,.37.32.83.83,0,0,0-.37-1.26l-39.79-23a3.44,3.44,0,0,0-3.1.13l-14.94,8.63c-.74.42-.94,1-.59,1.47A1.63,1.63,0,0,1,92.08,170.69Z"/>
                <path class="cls-10"
                      d="M119.92,113.52l6.86,4a3.49,3.49,0,0,0,3.15,0c.87-.5.86-1.31,0-1.81l-6.86-4a3.46,3.46,0,0,0-3.15,0A1,1,0,0,0,119.92,113.52Zm11.75,6.78,3.24,1.87a3.46,3.46,0,0,0,3.15,0c.87-.5.86-1.31,0-1.82l-3.25-1.87a3.44,3.44,0,0,0-3.14,0C130.79,119,130.79,119.79,131.67,120.3ZM139.8,125l3.25,1.88a3.47,3.47,0,0,0,3.14,0c.87-.5.87-1.31,0-1.81l-3.24-1.88a3.49,3.49,0,0,0-3.15,0C138.92,123.68,138.93,124.49,139.8,125Zm8.13,4.7,3.25,1.87a3.46,3.46,0,0,0,3.15,0,1,1,0,0,0,0-1.82l-3.25-1.87a3.46,3.46,0,0,0-3.15,0C147.05,128.37,147.06,129.18,147.93,129.69Zm8.13,4.69,3.25,1.88a3.49,3.49,0,0,0,3.15,0,1,1,0,0,0,0-1.81l-3.25-1.88a3.46,3.46,0,0,0-3.15,0C155.18,133.07,155.19,133.88,156.06,134.38Zm8.13,4.7,3.25,1.87a3.46,3.46,0,0,0,3.15,0,1,1,0,0,0,0-1.82l-3.25-1.87a3.46,3.46,0,0,0-3.15,0A1,1,0,0,0,164.19,139.08Zm8.13,4.69,3.25,1.88a3.49,3.49,0,0,0,3.15,0c.87-.5.86-1.31,0-1.81L175.46,142a3.46,3.46,0,0,0-3.15,0A1,1,0,0,0,172.32,143.77Zm8.14,4.7,3.24,1.87a3.46,3.46,0,0,0,3.15,0,1,1,0,0,0,0-1.82l-3.25-1.87a3.44,3.44,0,0,0-3.14,0C179.58,147.15,179.58,148,180.46,148.47Zm8.13,4.69,3.25,1.88a3.47,3.47,0,0,0,3.14,0c.87-.5.87-1.31,0-1.81l-3.24-1.88a3.5,3.5,0,0,0-3.15,0A1,1,0,0,0,188.59,153.16Zm8.13,4.7,3.25,1.87a3.46,3.46,0,0,0,3.15,0,1,1,0,0,0,0-1.82l-3.25-1.87a3.46,3.46,0,0,0-3.15,0C195.84,156.54,195.85,157.35,196.72,157.86Zm8.13,4.69,3.25,1.88a3.5,3.5,0,0,0,3.15,0,1,1,0,0,0,0-1.81L208,160.74a3.5,3.5,0,0,0-3.15,0A1,1,0,0,0,204.85,162.55Zm8.13,4.7,3.25,1.87a3.46,3.46,0,0,0,3.15,0,1,1,0,0,0,0-1.82l-3.25-1.87a3.46,3.46,0,0,0-3.15,0A1,1,0,0,0,213,167.25Zm8.3,4.79,3.25,1.87a3.46,3.46,0,0,0,3.15,0c.87-.5.86-1.31,0-1.82l-3.25-1.87a3.46,3.46,0,0,0-3.15,0A1,1,0,0,0,221.28,172ZM112.61,118l2.81,1.63a4,4,0,0,0,3.59,0L121.8,118a1.09,1.09,0,0,0,0-2.07L119,114.32a4,4,0,0,0-3.59,0l-2.79,1.62C111.61,116.49,111.62,117.42,112.61,118Zm14.53,6.33,2.79-1.61a1.09,1.09,0,0,0,0-2.07L127.11,119a4,4,0,0,0-3.58,0l-2.8,1.61a1.09,1.09,0,0,0,0,2.07l2.81,1.62A4,4,0,0,0,127.14,124.32Zm1.73,3.06,2.82,1.63a4,4,0,0,0,3.58,0l2.79-1.61a1.09,1.09,0,0,0,0-2.07l-2.81-1.62a4,4,0,0,0-3.58,0l-2.8,1.62A1.09,1.09,0,0,0,128.87,127.38Zm8.14,4.7,2.81,1.62a3.93,3.93,0,0,0,3.58,0l2.8-1.61a1.09,1.09,0,0,0,0-2.07l-2.81-1.63a4,4,0,0,0-3.58,0L137,130A1.09,1.09,0,0,0,137,132.08Zm17.31,2.64-2.82-1.62a3.93,3.93,0,0,0-3.58,0l-2.79,1.61a1.09,1.09,0,0,0,0,2.07L148,138.4a4,4,0,0,0,3.58,0l2.8-1.61A1.09,1.09,0,0,0,154.32,134.72Zm8.13,4.7-2.81-1.63a4,4,0,0,0-3.59,0l-2.79,1.61a1.09,1.09,0,0,0,0,2.07l2.81,1.62a4,4,0,0,0,3.58,0l2.8-1.62C163.45,140.92,163.44,140,162.45,139.42Zm8.13,4.69-2.81-1.62a4,4,0,0,0-3.59,0l-2.79,1.61a1.09,1.09,0,0,0,0,2.07l2.81,1.63a4,4,0,0,0,3.59,0l2.79-1.61A1.09,1.09,0,0,0,170.58,144.11Zm8.13,4.7-2.81-1.63a4,4,0,0,0-3.58,0l-2.8,1.61a1.09,1.09,0,0,0,0,2.07l2.82,1.62a4,4,0,0,0,3.58,0l2.79-1.62C179.71,150.31,179.7,149.38,178.71,148.81Zm8.13,4.69L184,151.88a3.93,3.93,0,0,0-3.58,0l-2.8,1.61a1.09,1.09,0,0,0,0,2.07l2.82,1.63a4,4,0,0,0,3.58,0l2.79-1.61A1.09,1.09,0,0,0,186.84,153.5Zm8.14,4.7-2.82-1.63a4,4,0,0,0-3.58,0l-2.79,1.61c-1,.57-1,1.49,0,2.07l2.81,1.62a4,4,0,0,0,3.58,0l2.8-1.62A1.09,1.09,0,0,0,195,158.2Zm-1,6.74,2.81,1.63a4,4,0,0,0,3.58,0l2.8-1.61a1.09,1.09,0,0,0,0-2.07l-2.82-1.62a3.93,3.93,0,0,0-3.58,0l-2.79,1.61A1.09,1.09,0,0,0,193.93,164.94Zm17.31,2.65L208.43,166a4,4,0,0,0-3.59,0l-2.79,1.61c-1,.57-1,1.49,0,2.07l2.81,1.62a4,4,0,0,0,3.59,0l2.79-1.62C212.24,169.08,212.23,168.16,211.24,167.59Zm11.91,6.87-6.42-3.71a4,4,0,0,0-3.59,0l-2.79,1.61a1.09,1.09,0,0,0,0,2.07l6.42,3.71a4,4,0,0,0,3.59,0l2.79-1.61C224.15,176,224.14,175,223.15,174.46ZM105.08,122.34l6.42,3.71a4,4,0,0,0,3.58,0l2.8-1.62a1.09,1.09,0,0,0,0-2.07l-6.42-3.7a4,4,0,0,0-3.59,0l-2.79,1.61A1.09,1.09,0,0,0,105.08,122.34Zm11.74,6.78,2.81,1.62a3.93,3.93,0,0,0,3.58,0l2.8-1.61a1.09,1.09,0,0,0,0-2.07l-2.81-1.62a4,4,0,0,0-3.59,0l-2.79,1.61A1.09,1.09,0,0,0,116.82,129.12Zm10.94,6.32a4,4,0,0,0,3.59,0l2.79-1.62c1-.57,1-1.49,0-2.07l-2.81-1.62a4,4,0,0,0-3.59,0l-2.79,1.62c-1,.57-1,1.49,0,2.07Zm8.14,4.69a3.93,3.93,0,0,0,3.58,0l2.79-1.61a1.09,1.09,0,0,0,0-2.07l-2.81-1.62a3.93,3.93,0,0,0-3.58,0l-2.8,1.61a1.09,1.09,0,0,0,0,2.07Zm8.1-.61-2.8,1.62c-1,.57-1,1.49,0,2.07l2.81,1.62a4,4,0,0,0,3.58,0l2.79-1.62c1-.57,1-1.49,0-2.07l-2.81-1.62A4,4,0,0,0,144,139.52Zm8.3,4.6-3.14,1.81a1,1,0,0,0,0,1.87l3.16,1.82a3.59,3.59,0,0,0,3.24,0l3.14-1.81a1,1,0,0,0,0-1.87l-3.16-1.82A3.56,3.56,0,0,0,152.3,144.12Zm8.13,4.69-3.13,1.82c-.9.51-.89,1.35,0,1.87l3.15,1.82a3.56,3.56,0,0,0,3.24,0l3.14-1.81c.89-.51.89-1.35,0-1.87l-3.16-1.82A3.59,3.59,0,0,0,160.43,148.81Zm8.14,4.7-3.14,1.81a1,1,0,0,0,0,1.87L168.6,159a3.57,3.57,0,0,0,3.23,0l3.14-1.81a1,1,0,0,0,0-1.87l-3.16-1.82A3.54,3.54,0,0,0,168.57,153.51Zm8.13,4.69L173.56,160c-.89.51-.89,1.35,0,1.87l3.16,1.82a3.56,3.56,0,0,0,3.24,0l3.13-1.81c.89-.51.89-1.35,0-1.87l-3.15-1.82A3.59,3.59,0,0,0,176.7,158.2Zm8.13,4.7-3.14,1.81a1,1,0,0,0,0,1.87l3.16,1.82a3.59,3.59,0,0,0,3.24,0l3.14-1.81a1,1,0,0,0,0-1.87l-3.16-1.83A3.59,3.59,0,0,0,184.83,162.9Zm11.4,10.2,3.14-1.81c.89-.51.88-1.35,0-1.87l-3.16-1.82a3.59,3.59,0,0,0-3.24,0l-3.14,1.82c-.89.51-.88,1.35,0,1.87L193,173.1A3.56,3.56,0,0,0,196.23,173.1Zm8.13,4.7L207.5,176a1,1,0,0,0,0-1.87l-3.16-1.83a3.59,3.59,0,0,0-3.24,0L198,174.1a1,1,0,0,0,0,1.87l3.16,1.82A3.59,3.59,0,0,0,204.36,177.8Zm11.43,1.11-3.16-1.82a3.59,3.59,0,0,0-3.24,0l-3.13,1.81c-.9.52-.89,1.35,0,1.87l3.15,1.83a3.59,3.59,0,0,0,3.24,0l3.14-1.81C216.69,180.27,216.69,179.43,215.79,178.91ZM97.37,126.59l10.2,5.89a3.56,3.56,0,0,0,3.24,0l3.14-1.81c.89-.51.88-1.35,0-1.87l-10.2-5.88a3.59,3.59,0,0,0-3.24,0l-3.14,1.81A1,1,0,0,0,97.37,126.59Zm15.17,8.76,3.16,1.82a3.59,3.59,0,0,0,3.24,0l3.14-1.81a1,1,0,0,0,0-1.87l-3.16-1.83a3.59,3.59,0,0,0-3.24,0l-3.14,1.81C111.64,134,111.65,134.83,112.54,135.35Zm8.14,4.69,3.15,1.83a3.56,3.56,0,0,0,3.24,0l3.14-1.81c.89-.51.89-1.35,0-1.87L127,136.37a3.59,3.59,0,0,0-3.24,0l-3.13,1.81A1,1,0,0,0,120.68,140Zm8.13,4.7,3.16,1.82a3.57,3.57,0,0,0,3.23,0l3.14-1.81a1,1,0,0,0,0-1.87l-3.16-1.83a3.57,3.57,0,0,0-3.23,0l-3.14,1.81C127.91,143.38,127.91,144.22,128.81,144.74Zm14.53,6.52,3.13-1.81c.89-.51.89-1.35,0-1.87l-3.15-1.82a3.59,3.59,0,0,0-3.24,0l-3.14,1.81a1,1,0,0,0,0,1.87l3.16,1.83A3.56,3.56,0,0,0,143.34,151.26Zm8.13,4.7,3.14-1.81a1,1,0,0,0,0-1.87l-3.15-1.83a3.59,3.59,0,0,0-3.24,0l-3.14,1.81c-.89.51-.89,1.35,0,1.87l3.16,1.82A3.59,3.59,0,0,0,151.47,156Zm8.13,4.69,3.14-1.81c.89-.51.88-1.35,0-1.87l-3.16-1.82a3.59,3.59,0,0,0-3.24,0L153.19,157a1,1,0,0,0,0,1.87l3.16,1.83A3.59,3.59,0,0,0,159.6,160.65Zm8.13,4.7,3.14-1.81a1,1,0,0,0,0-1.87l-3.16-1.83a3.59,3.59,0,0,0-3.24,0l-3.14,1.81c-.89.51-.88,1.35,0,1.87l3.16,1.82A3.59,3.59,0,0,0,167.73,165.35Zm8.13,4.69,3.14-1.81c.89-.51.89-1.35,0-1.87l-3.16-1.82a3.59,3.59,0,0,0-3.24,0l-3.13,1.81a1,1,0,0,0,0,1.87l3.15,1.83A3.59,3.59,0,0,0,175.86,170Zm8.13,4.7,3.14-1.81a1,1,0,0,0,0-1.87L184,169.23a3.54,3.54,0,0,0-3.23,0L177.59,171c-.89.51-.89,1.35,0,1.87l3.16,1.82A3.57,3.57,0,0,0,184,174.74Zm1.74,2.86,3.16,1.83a3.59,3.59,0,0,0,3.24,0l3.13-1.81c.9-.51.89-1.35,0-1.87l-3.15-1.82a3.59,3.59,0,0,0-3.24,0l-3.14,1.81A1,1,0,0,0,185.73,177.6Zm22.53,5.66-8-4.64a3.56,3.56,0,0,0-3.24,0l-3.14,1.81c-.89.51-.89,1.35,0,1.87l8,4.63a3.59,3.59,0,0,0,3.24,0l3.14-1.81A1,1,0,0,0,208.26,183.26ZM89.87,131.16l14.47,8.36a4.07,4.07,0,0,0,3.66,0l2.72-1.57a1.12,1.12,0,0,0,0-2.11l-14.47-8.35a4,4,0,0,0-3.66,0l-2.72,1.57A1.12,1.12,0,0,0,89.87,131.16Zm19.86,11.47,2.74,1.58a4,4,0,0,0,3.66,0l2.72-1.57a1.11,1.11,0,0,0,0-2.11L116.1,139a4,4,0,0,0-3.66,0l-2.72,1.57A1.12,1.12,0,0,0,109.73,142.63Zm8.14,4.7,2.73,1.58a4.07,4.07,0,0,0,3.66,0l2.72-1.57c1-.58,1-1.52,0-2.11l-2.74-1.58a4,4,0,0,0-3.65,0l-2.72,1.57A1.12,1.12,0,0,0,117.87,147.33ZM126,152l2.74,1.58a4,4,0,0,0,3.65,0l2.72-1.57a1.11,1.11,0,0,0,0-2.11l-2.74-1.58a4,4,0,0,0-3.65,0L126,149.91A1.11,1.11,0,0,0,126,152Zm8.13,4.7,2.74,1.58a4,4,0,0,0,3.65,0l2.72-1.57c1-.58,1-1.52,0-2.11L140.5,153a4.07,4.07,0,0,0-3.66,0l-2.72,1.57A1.12,1.12,0,0,0,134.13,156.72Zm8.13,4.69L145,163a4,4,0,0,0,3.66,0l2.72-1.57a1.12,1.12,0,0,0,0-2.11l-2.74-1.58a4,4,0,0,0-3.66,0l-2.72,1.57A1.11,1.11,0,0,0,142.26,161.41Zm8.13,4.7,2.74,1.58a4.07,4.07,0,0,0,3.66,0l2.72-1.57c1-.58,1-1.52,0-2.11l-2.74-1.58a4.07,4.07,0,0,0-3.66,0L150.38,164A1.12,1.12,0,0,0,150.39,166.11Zm8.14,4.69,2.73,1.58a4,4,0,0,0,3.66,0l2.72-1.57a1.11,1.11,0,0,0,0-2.11l-2.74-1.58a4,4,0,0,0-3.66,0l-2.72,1.57A1.11,1.11,0,0,0,158.53,170.8Zm8.13,4.7,2.73,1.58a4.07,4.07,0,0,0,3.66,0l2.72-1.57c1-.58,1-1.52,0-2.11L173,171.82a4,4,0,0,0-3.65,0l-2.72,1.57A1.12,1.12,0,0,0,166.66,175.5Zm8.13,4.69,2.74,1.58a4,4,0,0,0,3.65,0l2.72-1.57a1.11,1.11,0,0,0,0-2.11l-2.73-1.58a4,4,0,0,0-3.66,0l-2.72,1.57A1.11,1.11,0,0,0,174.79,180.19Zm8.13,4.7,2.74,1.58a4.07,4.07,0,0,0,3.66,0L192,184.9c1-.58,1-1.52,0-2.11l-2.73-1.58a4.07,4.07,0,0,0-3.66,0l-2.72,1.57A1.12,1.12,0,0,0,182.92,184.89Zm17.42,2.7L197.6,186a4,4,0,0,0-3.66,0l-2.72,1.57a1.11,1.11,0,0,0,0,2.11l2.74,1.58a4,4,0,0,0,3.66,0l2.72-1.57A1.12,1.12,0,0,0,200.34,187.59ZM95.05,135.5l-6.34-3.66a4,4,0,0,0-3.66,0l-2.72,1.57a1.11,1.11,0,0,0,0,2.11l6.35,3.67a4,4,0,0,0,3.66,0l2.72-1.57C96.07,137,96.07,136.09,95.05,135.5Zm8.14,4.7-2.74-1.58a4,4,0,0,0-3.66,0l-2.72,1.57a1.11,1.11,0,0,0,0,2.11l2.74,1.58a4,4,0,0,0,3.66,0l2.72-1.57A1.12,1.12,0,0,0,103.19,140.2Zm8.13,4.69-2.74-1.58a4.07,4.07,0,0,0-3.66,0l-2.72,1.57a1.12,1.12,0,0,0,0,2.12l2.74,1.58a4.07,4.07,0,0,0,3.66,0l2.72-1.57C112.34,146.42,112.33,145.48,111.32,144.89Zm56.92,32.87L116.71,148a4,4,0,0,0-3.66,0l-2.72,1.57a1.11,1.11,0,0,0,0,2.11l51.52,29.75a4,4,0,0,0,3.66,0l2.72-1.57A1.11,1.11,0,0,0,168.24,177.76Zm8.13,4.69-2.74-1.58a4,4,0,0,0-3.65,0l-2.72,1.57a1.12,1.12,0,0,0,0,2.12l2.74,1.58a4,4,0,0,0,3.65,0l2.72-1.57C177.39,184,177.38,183,176.37,182.45Zm8.13,4.7-2.73-1.58a4,4,0,0,0-3.66,0l-2.72,1.57a1.11,1.11,0,0,0,0,2.11l2.74,1.58a4,4,0,0,0,3.66,0l2.71-1.57A1.11,1.11,0,0,0,184.5,187.15Zm8.3,4.79-2.73-1.58a4,4,0,0,0-3.66,0l-2.72,1.57a1.11,1.11,0,0,0,0,2.11l2.74,1.58a4,4,0,0,0,3.66,0l2.72-1.57A1.11,1.11,0,0,0,192.8,191.94Z"/>
                <path class="cls-9"
                      d="M119.92,112.76l6.86,4a3.5,3.5,0,0,0,3.15,0,1,1,0,0,0,0-1.82l-6.86-4a3.5,3.5,0,0,0-3.15,0A1,1,0,0,0,119.92,112.76Zm11.75,6.78,3.24,1.88a3.49,3.49,0,0,0,3.15,0c.87-.5.86-1.31,0-1.82l-3.25-1.87a3.47,3.47,0,0,0-3.14,0A1,1,0,0,0,131.67,119.54Zm8.13,4.7,3.25,1.87a3.47,3.47,0,0,0,3.14,0,1,1,0,0,0,0-1.82l-3.24-1.88a3.49,3.49,0,0,0-3.15,0C138.92,122.92,138.93,123.73,139.8,124.24Zm8.13,4.69,3.25,1.88a3.49,3.49,0,0,0,3.15,0,1,1,0,0,0,0-1.82l-3.25-1.87a3.5,3.5,0,0,0-3.15,0A1,1,0,0,0,147.93,128.93Zm8.13,4.7,3.25,1.87a3.5,3.5,0,0,0,3.15,0,1,1,0,0,0,0-1.82l-3.25-1.88a3.49,3.49,0,0,0-3.15,0C155.18,132.31,155.19,133.12,156.06,133.63Zm8.13,4.69,3.25,1.88a3.49,3.49,0,0,0,3.15,0c.87-.5.86-1.31,0-1.82l-3.25-1.87a3.46,3.46,0,0,0-3.15,0A1,1,0,0,0,164.19,138.32Zm8.13,4.7,3.25,1.87a3.5,3.5,0,0,0,3.15,0,1,1,0,0,0,0-1.82l-3.25-1.88a3.49,3.49,0,0,0-3.15,0A1,1,0,0,0,172.32,143Zm8.14,4.69,3.24,1.88a3.49,3.49,0,0,0,3.15,0c.87-.5.86-1.31,0-1.82l-3.25-1.87a3.44,3.44,0,0,0-3.14,0A1,1,0,0,0,180.46,147.71Zm8.13,4.69,3.25,1.88a3.47,3.47,0,0,0,3.14,0,1,1,0,0,0,0-1.82l-3.24-1.88a3.49,3.49,0,0,0-3.15,0C187.71,151.09,187.72,151.9,188.59,152.4Zm8.13,4.7L200,159a3.5,3.5,0,0,0,3.15,0,1,1,0,0,0,0-1.82l-3.25-1.87a3.46,3.46,0,0,0-3.15,0A1,1,0,0,0,196.72,157.1Zm8.13,4.69,3.25,1.88a3.5,3.5,0,0,0,3.15,0,1,1,0,0,0,0-1.82L208,160a3.49,3.49,0,0,0-3.15,0C204,160.48,204,161.29,204.85,161.79Zm8.13,4.7,3.25,1.87a3.46,3.46,0,0,0,3.15,0c.87-.5.86-1.31,0-1.82l-3.25-1.87a3.46,3.46,0,0,0-3.15,0A1,1,0,0,0,213,166.49Zm8.3,4.79,3.25,1.88a3.5,3.5,0,0,0,3.15,0c.87-.5.86-1.31,0-1.81l-3.25-1.88a3.5,3.5,0,0,0-3.15,0A1,1,0,0,0,221.28,171.28Zm-108.67-54,2.81,1.62a4,4,0,0,0,3.59,0l2.79-1.62c1-.57,1-1.49,0-2.07L119,113.56a4,4,0,0,0-3.59,0l-2.79,1.62C111.61,115.74,111.62,116.66,112.61,117.24Zm14.53,6.32,2.79-1.61a1.09,1.09,0,0,0,0-2.07l-2.81-1.62a3.93,3.93,0,0,0-3.58,0l-2.8,1.61a1.09,1.09,0,0,0,0,2.07l2.81,1.62A4,4,0,0,0,127.14,123.56Zm1.73,3.07,2.82,1.62a4,4,0,0,0,3.58,0l2.79-1.62c1-.57,1-1.49,0-2.07L135.24,123a4,4,0,0,0-3.58,0l-2.8,1.62A1.09,1.09,0,0,0,128.87,126.63Zm8.14,4.69,2.81,1.62a3.93,3.93,0,0,0,3.58,0l2.8-1.61a1.09,1.09,0,0,0,0-2.07l-2.81-1.62a3.93,3.93,0,0,0-3.58,0l-2.8,1.61A1.09,1.09,0,0,0,137,131.32ZM154.32,134l-2.82-1.62a4,4,0,0,0-3.58,0L145.13,134c-1,.57-1,1.49,0,2.07l2.81,1.62a4,4,0,0,0,3.58,0l2.8-1.62A1.09,1.09,0,0,0,154.32,134Zm8.13,4.7L159.64,137a4,4,0,0,0-3.59,0l-2.79,1.61a1.09,1.09,0,0,0,0,2.07l2.81,1.62a3.93,3.93,0,0,0,3.58,0l2.8-1.61A1.09,1.09,0,0,0,162.45,138.66Zm8.13,4.69-2.81-1.62a4,4,0,0,0-3.59,0l-2.79,1.62c-1,.57-1,1.49,0,2.07l2.81,1.62a4,4,0,0,0,3.59,0l2.79-1.62C171.58,144.85,171.57,143.93,170.58,143.35Zm8.13,4.7-2.81-1.62a3.93,3.93,0,0,0-3.58,0l-2.8,1.61a1.09,1.09,0,0,0,0,2.07l2.82,1.62a3.93,3.93,0,0,0,3.58,0l2.79-1.61A1.09,1.09,0,0,0,178.71,148.05Zm8.13,4.69L184,151.12a4,4,0,0,0-3.58,0l-2.8,1.62a1.09,1.09,0,0,0,0,2.07l2.82,1.62a4,4,0,0,0,3.58,0l2.79-1.62C187.84,154.24,187.84,153.32,186.84,152.74Zm8.14,4.7-2.82-1.63a4,4,0,0,0-3.58,0l-2.79,1.61a1.09,1.09,0,0,0,0,2.07l2.81,1.62a3.93,3.93,0,0,0,3.58,0l2.8-1.61A1.09,1.09,0,0,0,195,157.44Zm-1,6.75,2.81,1.62a4,4,0,0,0,3.58,0l2.8-1.62a1.09,1.09,0,0,0,0-2.07l-2.82-1.62a4,4,0,0,0-3.58,0l-2.79,1.62C192.93,162.69,192.94,163.61,193.93,164.19Zm17.31,2.64-2.81-1.63a4,4,0,0,0-3.59,0l-2.79,1.61a1.09,1.09,0,0,0,0,2.07l2.81,1.62a4,4,0,0,0,3.59,0l2.79-1.61A1.09,1.09,0,0,0,211.24,166.83Zm11.91,6.87-6.42-3.7a4,4,0,0,0-3.59,0l-2.79,1.61a1.09,1.09,0,0,0,0,2.07l6.42,3.71a4,4,0,0,0,3.59,0l2.79-1.62C224.15,175.2,224.14,174.28,223.15,173.7ZM105.08,121.59l6.42,3.7a3.93,3.93,0,0,0,3.58,0l2.8-1.61a1.09,1.09,0,0,0,0-2.07l-6.42-3.71a4,4,0,0,0-3.59,0l-2.79,1.62C104.08,120.09,104.09,121,105.08,121.59Zm11.74,6.77,2.81,1.63a4,4,0,0,0,3.58,0l2.8-1.61a1.09,1.09,0,0,0,0-2.07l-2.81-1.62a4,4,0,0,0-3.59,0l-2.79,1.62C115.82,126.86,115.83,127.79,116.82,128.36Zm10.94,6.32a4,4,0,0,0,3.59,0l2.79-1.61a1.09,1.09,0,0,0,0-2.07l-2.81-1.63a4,4,0,0,0-3.59,0L124.94,131a1.09,1.09,0,0,0,0,2.07Zm8.14,4.7a4,4,0,0,0,3.58,0l2.79-1.61a1.09,1.09,0,0,0,0-2.07l-2.81-1.62a3.93,3.93,0,0,0-3.58,0l-2.8,1.61a1.09,1.09,0,0,0,0,2.07Zm8.1-.61-2.8,1.61a1.09,1.09,0,0,0,0,2.07l2.81,1.62a4,4,0,0,0,3.58,0l2.79-1.62c1-.56,1-1.49,0-2.06l-2.81-1.63A4,4,0,0,0,144,138.77Zm8.3,4.59-3.14,1.81a1,1,0,0,0,0,1.87l3.16,1.83a3.59,3.59,0,0,0,3.24,0l3.14-1.81c.89-.51.89-1.35,0-1.87l-3.16-1.82A3.59,3.59,0,0,0,152.3,143.36Zm8.13,4.7-3.13,1.81c-.9.51-.89,1.35,0,1.87l3.15,1.82a3.59,3.59,0,0,0,3.24,0l3.14-1.81a1,1,0,0,0,0-1.87l-3.16-1.83A3.56,3.56,0,0,0,160.43,148.06Zm8.14,4.69-3.14,1.81a1,1,0,0,0,0,1.87l3.16,1.83a3.57,3.57,0,0,0,3.23,0l3.14-1.81c.89-.51.89-1.35,0-1.87l-3.16-1.82A3.57,3.57,0,0,0,168.57,152.75Zm8.13,4.7-3.14,1.81c-.89.51-.89,1.35,0,1.87l3.16,1.82a3.59,3.59,0,0,0,3.24,0l3.13-1.81a1,1,0,0,0,0-1.87l-3.15-1.83A3.56,3.56,0,0,0,176.7,157.45Zm8.13,4.69L181.69,164a1,1,0,0,0,0,1.87l3.16,1.83a3.59,3.59,0,0,0,3.24,0l3.14-1.81c.89-.51.88-1.35,0-1.87l-3.16-1.82A3.59,3.59,0,0,0,184.83,162.14Zm11.4,10.21,3.14-1.81a1,1,0,0,0,0-1.87l-3.16-1.83a3.56,3.56,0,0,0-3.24,0l-3.14,1.81c-.89.51-.88,1.35,0,1.87l3.16,1.82A3.59,3.59,0,0,0,196.23,172.35Zm8.13,4.69,3.14-1.81c.89-.51.89-1.35,0-1.87l-3.16-1.82a3.59,3.59,0,0,0-3.24,0L198,173.34a1,1,0,0,0,0,1.87l3.16,1.83A3.59,3.59,0,0,0,204.36,177Zm11.43,1.11-3.16-1.82a3.59,3.59,0,0,0-3.24,0l-3.13,1.82c-.9.51-.89,1.35,0,1.87l3.15,1.82a3.56,3.56,0,0,0,3.24,0L215.8,180C216.69,179.51,216.69,178.67,215.79,178.15ZM97.37,125.83l10.2,5.89a3.59,3.59,0,0,0,3.24,0l3.14-1.82c.89-.51.88-1.35,0-1.87l-10.2-5.88a3.59,3.59,0,0,0-3.24,0L97.36,124A1,1,0,0,0,97.37,125.83Zm15.17,8.76,3.16,1.83a3.59,3.59,0,0,0,3.24,0l3.14-1.81a1,1,0,0,0,0-1.87l-3.16-1.82a3.59,3.59,0,0,0-3.24,0l-3.14,1.81A1,1,0,0,0,112.54,134.59Zm8.14,4.7,3.15,1.82a3.59,3.59,0,0,0,3.24,0l3.14-1.82c.89-.51.89-1.35,0-1.87L127,135.61a3.56,3.56,0,0,0-3.24,0l-3.13,1.81C119.77,137.93,119.78,138.77,120.68,139.29Zm8.13,4.69L132,145.8a3.54,3.54,0,0,0,3.23,0l3.14-1.81a1,1,0,0,0,0-1.87l-3.16-1.82a3.57,3.57,0,0,0-3.23,0l-3.14,1.81A1,1,0,0,0,128.81,144Zm14.53,6.53,3.13-1.82c.89-.51.89-1.35,0-1.87L143.31,145a3.56,3.56,0,0,0-3.24,0l-3.14,1.81c-.89.51-.89,1.35,0,1.87l3.16,1.82A3.59,3.59,0,0,0,143.34,150.51Zm8.13,4.69,3.14-1.81c.89-.52.88-1.35,0-1.87l-3.15-1.82a3.59,3.59,0,0,0-3.24,0l-3.14,1.81a1,1,0,0,0,0,1.87l3.16,1.82A3.56,3.56,0,0,0,151.47,155.2Zm8.13,4.7,3.14-1.82c.89-.51.88-1.35,0-1.87l-3.16-1.82a3.59,3.59,0,0,0-3.24,0l-3.14,1.82c-.89.51-.88,1.35,0,1.87l3.16,1.82A3.59,3.59,0,0,0,159.6,159.9Zm8.13,4.69,3.14-1.81a1,1,0,0,0,0-1.87l-3.16-1.82a3.59,3.59,0,0,0-3.24,0l-3.14,1.81a1,1,0,0,0,0,1.87l3.16,1.82A3.59,3.59,0,0,0,167.73,164.59Zm8.13,4.7,3.14-1.82c.89-.51.89-1.35,0-1.87l-3.16-1.82a3.59,3.59,0,0,0-3.24,0l-3.13,1.82c-.9.51-.89,1.35,0,1.87l3.15,1.82A3.59,3.59,0,0,0,175.86,169.29ZM184,174l3.14-1.81a1,1,0,0,0,0-1.87L184,168.48a3.54,3.54,0,0,0-3.23,0l-3.14,1.81a1,1,0,0,0,0,1.87l3.16,1.82A3.57,3.57,0,0,0,184,174Zm1.74,2.87,3.16,1.82a3.56,3.56,0,0,0,3.24,0l3.13-1.81c.9-.51.89-1.35,0-1.87l-3.15-1.82a3.59,3.59,0,0,0-3.24,0L185.72,175C184.83,175.49,184.83,176.33,185.73,176.85Zm22.53,5.65-8-4.63a3.56,3.56,0,0,0-3.24,0l-3.14,1.81a1,1,0,0,0,0,1.87l8,4.64a3.59,3.59,0,0,0,3.24,0l3.14-1.81C209.16,183.86,209.15,183,208.26,182.5ZM89.87,130.41l14.47,8.35a4.07,4.07,0,0,0,3.66,0l2.72-1.57a1.12,1.12,0,0,0,0-2.12l-14.47-8.35a4,4,0,0,0-3.66,0l-2.72,1.57A1.12,1.12,0,0,0,89.87,130.41Zm19.86,11.46,2.74,1.58a4,4,0,0,0,3.66,0l2.72-1.57a1.11,1.11,0,0,0,0-2.11l-2.74-1.58a4,4,0,0,0-3.66,0l-2.72,1.57A1.12,1.12,0,0,0,109.73,141.87Zm8.14,4.7,2.73,1.58a4.07,4.07,0,0,0,3.66,0l2.72-1.57a1.12,1.12,0,0,0,0-2.12l-2.74-1.58a4,4,0,0,0-3.65,0l-2.72,1.57C116.85,145,116.85,146,117.87,146.57Zm8.13,4.69,2.74,1.58a4,4,0,0,0,3.65,0l2.72-1.57a1.11,1.11,0,0,0,0-2.11l-2.74-1.58a4,4,0,0,0-3.65,0L126,149.15A1.11,1.11,0,0,0,126,151.26Zm8.13,4.7,2.74,1.58a4,4,0,0,0,3.65,0l2.72-1.57a1.12,1.12,0,0,0,0-2.12l-2.73-1.58a4.07,4.07,0,0,0-3.66,0l-2.72,1.57C133.11,154.43,133.12,155.37,134.13,156Zm8.13,4.69,2.74,1.58a4,4,0,0,0,3.66,0l2.72-1.57a1.12,1.12,0,0,0,0-2.11L148.63,157a4,4,0,0,0-3.66,0l-2.72,1.57A1.11,1.11,0,0,0,142.26,160.65Zm8.13,4.7,2.74,1.58a4.07,4.07,0,0,0,3.66,0l2.72-1.57a1.12,1.12,0,0,0,0-2.12l-2.74-1.58a4.07,4.07,0,0,0-3.66,0l-2.72,1.57A1.12,1.12,0,0,0,150.39,165.35Zm8.14,4.69,2.73,1.58a4,4,0,0,0,3.66,0l2.72-1.57a1.11,1.11,0,0,0,0-2.11l-2.74-1.58a4,4,0,0,0-3.66,0l-2.72,1.57A1.11,1.11,0,0,0,158.53,170Zm8.13,4.7,2.73,1.58a4.07,4.07,0,0,0,3.66,0l2.72-1.58c1-.58,1-1.52,0-2.11L173,171.06a4,4,0,0,0-3.65,0l-2.72,1.57C165.64,173.21,165.64,174.15,166.66,174.74Zm8.13,4.69,2.74,1.58a4,4,0,0,0,3.65,0l2.72-1.57a1.11,1.11,0,0,0,0-2.11l-2.73-1.58a4,4,0,0,0-3.66,0l-2.72,1.57A1.11,1.11,0,0,0,174.79,179.43Zm8.13,4.7,2.74,1.58a4.07,4.07,0,0,0,3.66,0l2.72-1.58c1-.58,1-1.52,0-2.11l-2.73-1.58a4,4,0,0,0-3.66,0L182.91,182C181.9,182.6,181.91,183.54,182.92,184.13Zm17.42,2.7-2.74-1.58a4,4,0,0,0-3.66,0l-2.72,1.57c-1,.58-1,1.52,0,2.11l2.74,1.58a4,4,0,0,0,3.66,0l2.72-1.57A1.12,1.12,0,0,0,200.34,186.83ZM95.05,134.74l-6.34-3.66a4.07,4.07,0,0,0-3.66,0l-2.72,1.57a1.12,1.12,0,0,0,0,2.12l6.35,3.66a4.07,4.07,0,0,0,3.66,0l2.72-1.57A1.12,1.12,0,0,0,95.05,134.74Zm8.14,4.7-2.74-1.58a4,4,0,0,0-3.66,0l-2.72,1.57a1.11,1.11,0,0,0,0,2.11l2.74,1.58a4,4,0,0,0,3.66,0l2.72-1.57A1.12,1.12,0,0,0,103.19,139.44Zm8.13,4.69-2.74-1.58a4.07,4.07,0,0,0-3.66,0l-2.72,1.57a1.12,1.12,0,0,0,0,2.11l2.74,1.58a4.07,4.07,0,0,0,3.66,0l2.72-1.57A1.12,1.12,0,0,0,111.32,144.13ZM168.24,177l-51.53-29.75a4,4,0,0,0-3.66,0l-2.72,1.57a1.11,1.11,0,0,0,0,2.11l51.52,29.75a4,4,0,0,0,3.66,0l2.72-1.57A1.11,1.11,0,0,0,168.24,177Zm8.13,4.69-2.74-1.58a4,4,0,0,0-3.65,0l-2.72,1.57c-1,.58-1,1.52,0,2.11l2.74,1.58a4,4,0,0,0,3.65,0l2.72-1.58C177.39,183.22,177.38,182.28,176.37,181.69Zm8.13,4.7-2.73-1.58a4,4,0,0,0-3.66,0l-2.72,1.57a1.11,1.11,0,0,0,0,2.11l2.74,1.58a4,4,0,0,0,3.66,0l2.71-1.57A1.11,1.11,0,0,0,184.5,186.39Zm8.3,4.79-2.73-1.58a4.07,4.07,0,0,0-3.66,0l-2.72,1.57a1.12,1.12,0,0,0,0,2.12l2.74,1.58a4.07,4.07,0,0,0,3.66,0l2.72-1.57C193.82,192.71,193.82,191.77,192.8,191.18Z"/>
                <path class="cls-9"
                      d="M237.23,168.92,129.51,106.69c-4.17-2.41-7.55-8.87-7.55-14.43V7.75c0-5.56,3.38-8.11,7.55-5.71L237.23,64.27c4.17,2.41,7.55,8.87,7.55,14.43v84.51C244.78,168.77,241.4,171.32,237.23,168.92Z"/>
                <path class="cls-11"
                      d="M238.21,164.57,131.63,103c-3.35-2.13-5.43-6.39-5.43-10.75V7.34a1.34,1.34,0,0,1,2-1.15l.23.14L235.11,68c4,2.3,5.43,6.39,5.43,10.75v84.72a1.44,1.44,0,0,1-2.16,1.25Z"/>
                <path class="cls-12"
                      d="M235.11,68,128.45,6.33l-.23-.14a1.34,1.34,0,0,0-2,1.15V92.26c0,4.36,2.08,8.62,5.43,10.75l106.58,61.56.17.1a1.44,1.44,0,0,0,2.16-1.25V78.7C240.54,74.34,239.11,70.25,235.11,68Zm4.59,95.47a.61.61,0,0,1-.6.6.64.64,0,0,1-.3-.08L132.06,102.28c-3-1.93-5-5.87-5-10V7.34a.5.5,0,0,1,.49-.49.45.45,0,0,1,.25.07l106.9,61.76c4.14,2.39,5,6.77,5,10Z"/>
                <path class="cls-6"
                      d="M239.37,63.14,131.65.91a5.08,5.08,0,0,0-4.42-.65c-.16.06-2.26,1.18-2.41,1.26h0a5,5,0,0,1,4.7.52L237.23,64.27c4.17,2.41,7.55,8.87,7.55,14.43v84.51c0,3.47-1.31,5.77-3.32,6.42a1.25,1.25,0,0,0,.67-.22L244.6,168c1.43-1,2.32-3.07,2.32-5.93V77.56C246.92,72,243.54,65.54,239.37,63.14Z"/>
                <path class="cls-13"
                      d="M239.37,63.14,131.65.91a5.08,5.08,0,0,0-4.42-.65c-.16.06-2.26,1.18-2.41,1.26h0a5,5,0,0,1,4.7.52L237.23,64.27Z"/>
                <path class="cls-14"
                      d="M237.6,64.09,129.87,1.86a5,5,0,0,0-4.54-.58,5.59,5.59,0,0,1,3.64.85L236.69,64.36c4.17,2.41,7.55,8.87,7.55,14.43V163.3c0,3.28-1.18,5.5-3,6.29,2.33-.37,3.91-2.77,3.91-6.56V78.52C245.15,73,241.77,66.5,237.6,64.09Z"/>
                <path class="cls-15"
                      d="M228.17,68.43l-90-51.17c-.23,12,0,49.54-.09,61.82-.11,19.87-3.09,35.52-26,53.48-7.3,5.72-39.51,23.26-65.64,37C35.76,175.13,35,177.48,29.59,182c-5.2,4.4-13.17,8.49-15.5,9.85l89.46,51.73c1.67-1,10.37-5.36,16.09-10.2,5.36-4.54,6.16-9.39,16.77-15,26.13-13.73,70.91-41.23,78.86-46,10.2-6.12,12.8-10,12.8-26.06C228.07,134,227.93,80.19,228.17,68.43Z"/>
                <path class="cls-7"
                      d="M228.17,68.79l-90-51.17c-.23,5.73,0,53.28-.09,65.55-.11,19.88-3.09,25.54-26,43.5-7.3,5.71-39.51,23.26-65.64,37-10.6,5.58-12.32,12.69-17.68,17.23-5.19,4.4-10.95,5.6-13.29,7l89.46,51.73c1.67-1,8.17-2.47,13.88-7.31,5.36-4.55,7.07-11.66,17.68-17.23,26.13-13.73,58.34-31.28,65.64-37,22.94-18,25.92-23.62,26-43.5C228.14,122.21,227.93,74.3,228.17,68.79Z"/>
                <path class="cls-9" d="M80.6,166.43l-2.78,1.49,63.37,36.69L144,203.1Z"/>
                <path class="cls-9" d="M86.49,163.25l-2.78,1.5,63.43,36.69,2.82-1.51Z"/>
                <path class="cls-9" d="M98.17,156.86l-2.74,1.51L159,195.07l2.8-1.53Z"/>
                <path class="cls-9" d="M92.34,160.06l-2.76,1.51,63.49,36.69,2.81-1.51Z"/>
                <path class="cls-9" d="M104,153.63l-2.73,1.53,63.63,36.7,2.79-1.54Z"/>
                <path class="cls-16" d="M58,165.56c-1,.52-3.15,1.53-4,2l49.32,28.37c.83-.55,2.93-1.59,3.87-2.11Z"/>
                <path class="cls-9" d="M50.86,169.2l-1.25.66c-.53.28-1,.56-1.5.85l76.49,44.1q1-.93,2.19-1.86Z"/>
                <path class="cls-16" d="M99.05,143.05c-.89.51-3.11,1.68-4,2.2l51.54,29.54c.94-.52,3.19-1.7,4.1-2.21Z"/>
                <path class="cls-9"
                      d="M37.77,181.32c-.54.7-1.12,1.41-1.73,2.1L113,227.88c.41-.3.82-.62,1.22-1a11.49,11.49,0,0,0,1-.91Z"/>
                <path class="cls-16"
                      d="M145,62.66l46.63,26.09c0-1.33,0-3.63,0-4.91L145,57.29v1.46C145,60.07,145,61.37,145,62.66Z"/>
                <path class="cls-9" d="M145,69.17l76,42.81v-3.13L145,66.1C145,67.15,145,68.17,145,69.17Z"/>
                <path class="cls-9"
                      d="M45.38,172.6a22.89,22.89,0,0,0-2.1,1.88l77.32,44.61c.56-.68,1.16-1.37,1.81-2.08Z"/>
                <path class="cls-9" d="M41.24,176.77c-.57.7-1.11,1.41-1.65,2.14l77.51,44.76.93-1.23.71-1Z"/>
                <path class="cls-9"
                      d="M139.86,108.83c-.44.77-.92,1.52-1.43,2.28l77.9,44.24A26.07,26.07,0,0,0,217.8,153Z"/>
                <path class="cls-9" d="M142.28,103.67c-.31.85-.66,1.68-1,2.5l77.84,44.15a23.42,23.42,0,0,0,.86-2.65Z"/>
                <path class="cls-16" d="M143.84,96.34c-.18.93-.39,3.53-.63,4.41l62.95,35.5c.13-.94.24-3.61.31-4.64Z"/>
                <path class="cls-9" d="M145,72.62v3.07l76,42.86v-3.13Z"/>
                <path class="cls-9" d="M145,79.13c0,1.14,0,2.18,0,3.07l76.06,42.93V122Z"/>
                <path class="cls-9" d="M145,85.62c0,1-.05,2-.1,3l76.19,43.06c0-.94,0-2,0-3.13Z"/>
                <path class="cls-9" d="M119.28,129.84,117,131.63l76.6,43.72q1.47-.93,2.55-1.68Z"/>
                <path class="cls-9" d="M114.38,133.59c-.74.51-1.58,1.07-2.5,1.66L188,178.76l2.68-1.61Z"/>
                <path class="cls-9" d="M109,137.06c-.83.52-1.7,1.05-2.62,1.6l76,43.43,2.72-1.58Z"/>
                <path class="cls-9"
                      d="M136.64,113.55c-.55.69-1.12,1.39-1.74,2.1l77.68,44.15c.68-.7,1.31-1.39,1.88-2.06Z"/>
                <path class="cls-16" d="M129.54,120.94c-.68.62-2.38,2.33-3.12,3l55,31.29c.78-.64,2.52-2.35,3.24-2.95Z"/>
                <path class="cls-9" d="M124,126c-.71.6-1.45,1.21-2.21,1.83l77,43.9,2.3-1.82Z"/>
                <path class="cls-16"
                      d="M101.29,153.49a3.77,3.77,0,0,1-3.43,0,1,1,0,0,1,0-2,3.8,3.8,0,0,1,3.43,0C102.23,152.06,102.24,153,101.29,153.49Z"/>
                <path class="cls-16"
                      d="M95.59,156.64a3.8,3.8,0,0,1-3.43,0c-1-.55-1-1.43,0-2a3.78,3.78,0,0,1,3.42,0C96.52,155.21,96.53,156.09,95.59,156.64Z"/>
                <path class="cls-16"
                      d="M89.88,159.79a3.8,3.8,0,0,1-3.43,0c-1-.55-1-1.44,0-2a3.77,3.77,0,0,1,3.43,0A1,1,0,0,1,89.88,159.79Z"/>
                <path class="cls-16"
                      d="M84.17,162.93a3.77,3.77,0,0,1-3.43,0c-.95-.54-1-1.43,0-2a3.77,3.77,0,0,1,3.43,0A1,1,0,0,1,84.17,162.93Z"/>
                <path class="cls-16"
                      d="M78.46,166.08a3.8,3.8,0,0,1-3.43,0,1,1,0,0,1,0-2,3.8,3.8,0,0,1,3.43,0A1,1,0,0,1,78.46,166.08Z"/>
                <path class="cls-17"
                      d="M91.33,130.38s18.51-5.12,25.65-10.17a34.17,34.17,0,0,0,14.76-27.45c0-5.71.9-36.42.9-36.42s-9.93,9-19.86.6C107,52,96.23,35.87,96.23,35.87v68.32C96.23,115,91.33,130.38,91.33,130.38Z"/>
                <path class="cls-9"
                      d="M127,61.43c-12.63-7.15-25-19.34-35.33-34.87l-.14-.08C81.16,30.06,68.81,28,56.18,20.55l-.48-.28.68,23.6c2.39,36.58,14.87,52.5,34.95,86.51l.49.28c20.08-10.82,32.56-12.34,35-46.15l.68-22.81Z"/>
                <path class="cls-4"
                      d="M134.1,56c-12.64-7.15-25-19.34-35.33-34.87l-.14-.08c-10.35,3.58-22.7,1.51-35.33-5.92l-.48-.29-7,5.51.35.2c12.63,7.44,25,9.51,35.32,5.93l.14.08C102,42.09,114.34,54.28,127,61.43l.48.27-.68,22.81c-1.56,22.07-7.42,30.38-16.89,36.5,11.83-7,22.26-17.12,24-41.93l.68-22.81Z"/>
                <path class="cls-4"
                      d="M134.58,56.27,134.1,56c-12.64-7.15-25-19.34-35.33-34.87l-.14-.08L91.5,26.48l.14.08C102,42.09,114.34,54.28,127,61.43l.48.27Z"/>
                <path class="cls-10"
                      d="M127.45,61.7l-.68,22.81c-1.56,22.07-7.42,30.38-16.89,36.5,11.83-7,22.26-17.12,24-41.93l.68-22.81Z"/>
                <path class="cls-18"
                      d="M89.08,114.89C73.49,89,65.65,76,63.76,47.65l-.43-14.9c10,4.53,19.6,6,28.25,4.25,8.64,11.7,18.23,21.34,28.24,28.37l-.43,14.4c-1.89,26.2-9.73,30.15-25.32,38L91.58,119C90.73,117.63,89.89,116.25,89.08,114.89Z"/>
                <ellipse class="cls-19" cx="90.42" cy="74.81" rx="21.6" ry="37.42"
                         transform="translate(-25.4 55.86) rotate(-30.31)"/>
                <path class="cls-20"
                      d="M95.34,116.65l-2.49,1.27c-.85-1.41-1.68-2.8-2.5-4.15C74.77,87.91,66.93,74.9,65,46.52l-.39-13.19-1.32-.58.43,14.9C65.65,76,73.49,89,89.08,114.89c.81,1.36,1.65,2.74,2.5,4.15l2.49-1.26c6.36-3.21,11.43-5.76,15.33-9.45C105.69,111.43,101,113.79,95.34,116.65Z"/>
                <path class="cls-7"
                      d="M127.42,61c-12.63-7.14-25-19.33-35.32-34.86L92,26c-10.35,3.58-22.7,1.51-35.33-5.93l-.46.49C68.78,28,81.1,30.05,91.43,26.48l.14.08c10.35,15.53,22.7,27.72,35.33,34.87l.48.27-.68,22.81c-1.3,18.31-5.56,27.15-12.38,33.12,7.13-6,11.57-14.79,12.9-33.57l.68-22.81Z"/>
                <path class="cls-9"
                      d="M43.53,61.35a.5.5,0,0,1-.5-.5c0-.69,0-1.36,0-2a.5.5,0,1,1,1,0c0,.65,0,1.31,0,2A.5.5,0,0,1,43.53,61.35Zm.3-5h-.06a.5.5,0,0,1-.44-.56c.09-.68.19-1.35.31-2a.5.5,0,1,1,1,.18c-.11.63-.21,1.28-.3,1.94A.49.49,0,0,1,43.83,56.36Zm1-4.89-.14,0a.49.49,0,0,1-.34-.62c.19-.66.41-1.31.64-1.93a.5.5,0,0,1,.64-.29.5.5,0,0,1,.3.64c-.23.6-.44,1.23-.62,1.86A.49.49,0,0,1,44.82,51.47Zm1.86-4.63a.53.53,0,0,1-.24-.06.49.49,0,0,1-.2-.67,20.35,20.35,0,0,1,1-1.76.51.51,0,0,1,.7-.14.5.5,0,0,1,.14.69c-.36.54-.69,1.1-1,1.67A.5.5,0,0,1,46.68,46.84Zm2.88-4.07a.49.49,0,0,1-.37-.84,16.48,16.48,0,0,1,1.49-1.41.51.51,0,0,1,.71.06.49.49,0,0,1-.06.7,14.82,14.82,0,0,0-1.41,1.34A.51.51,0,0,1,49.56,42.77Zm3.91-3.08a.5.5,0,0,1-.44-.25.49.49,0,0,1,.19-.68,15.79,15.79,0,0,1,1.85-.9.5.5,0,1,1,.38.93,15.49,15.49,0,0,0-1.74.84A.53.53,0,0,1,53.47,39.69ZM58.12,38a.5.5,0,0,1-.1-1,19.08,19.08,0,0,1,2-.32.53.53,0,0,1,.55.45.5.5,0,0,1-.45.55,17.07,17.07,0,0,0-1.92.3Z"/>
                <path class="cls-9"
                      d="M63.51,108.18a.5.5,0,0,1-.37-.16c-.45-.49-.9-1-1.34-1.5a.5.5,0,0,1,.76-.66c.43.5.87,1,1.32,1.48a.5.5,0,0,1-.37.84Zm-3.25-3.79a.48.48,0,0,1-.39-.19c-.42-.52-.83-1-1.24-1.58a.5.5,0,0,1,.79-.61c.4.53.81,1,1.23,1.57a.5.5,0,0,1-.08.7A.51.51,0,0,1,60.26,104.39Zm-3-4a.48.48,0,0,1-.4-.21c-.39-.55-.77-1.1-1.14-1.66a.5.5,0,0,1,.83-.55l1.12,1.64a.49.49,0,0,1-.12.69A.52.52,0,0,1,57.25,100.39Zm-2.74-4.17a.51.51,0,0,1-.43-.24c-.35-.57-.7-1.15-1-1.73a.5.5,0,1,1,.86-.5q.5.85,1,1.71a.49.49,0,0,1-.16.68A.5.5,0,0,1,54.51,96.22ZM52,91.88a.5.5,0,0,1-.44-.26c-.31-.59-.62-1.19-.92-1.79a.49.49,0,0,1,.22-.67.51.51,0,0,1,.67.22c.3.59.6,1.18.91,1.77a.49.49,0,0,1-.2.67A.53.53,0,0,1,52,91.88ZM49.79,87.4a.48.48,0,0,1-.45-.29c-.28-.61-.56-1.22-.82-1.84a.5.5,0,0,1,.92-.39c.26.61.53,1.21.8,1.82a.49.49,0,0,1-.24.66A.52.52,0,0,1,49.79,87.4Z"/>
                <path class="cls-21"
                      d="M76.89,109.47c-14-8.09-25.39-27.73-25.39-43.8,0-7.86,2.68-13.73,7.56-16.55s11.42-2.2,18.33,1.78a41.32,41.32,0,0,1,6.79,5l-.66.74a40.28,40.28,0,0,0-6.63-4.85C70.31,48,64.15,47.34,59.56,50s-7.06,8.2-7.06,15.68c0,15.75,11.17,35,24.89,42.93Z"/>
                <path class="cls-22"
                      d="M78.84,109.92c0,.82-.61,1.18-1.27.8a2.63,2.63,0,0,1-1.12-2.18c0-.82.61-1.18,1.27-.8A2.6,2.6,0,0,1,78.84,109.92Z"/>
                <path class="cls-21"
                      d="M85.18,57.3l-3.87-1a.5.5,0,0,1-.36-.6.51.51,0,0,1,.61-.37l2,.51-.73-1.95a.52.52,0,0,1,.3-.65.5.5,0,0,1,.64.3Z"/>
                <path class="cls-23"
                      d="M63.18,70.5c.27-10,7.55-14,16.49-8.84,4.6,2.66,8.76,7.23,11.76,12.46l3.29-.83C91,66.47,85.61,60.47,79.67,57c-11.25-6.5-20.41-1.36-20.54,11.42l2.63,2.4Z"/>
                <path class="cls-23"
                      d="M88,101.77a14.23,14.23,0,0,1-8.28-2.2C71.2,94.68,64.22,83.3,63.27,73.33l-4-2c0,.07-1.35.34-1.35.42,1.17,12.41,11.24,26.39,21.78,32.47,3.82,2.21,6.41,3.37,9.49,3,.12,0,1.25-.34,1.37-.36Z"/>
                <path class="cls-23"
                      d="M93,77.14a31.59,31.59,0,0,1,3.2,13c0,6-2.44,9.92-6.24,11.21l2.56,5c4.69-1.61,7.7-6.5,7.7-13.93a39.08,39.08,0,0,0-3.95-16.16Z"/>
                <path class="cls-23"
                      d="M85.34,85.45A13.84,13.84,0,0,1,82.44,82c-.48-.8-.46-1.67,0-1.94a3.67,3.67,0,0,0,1.47-1.65c.51.14,1.14,0,1.14-.74a2.76,2.76,0,0,0-.73-1.88,9.22,9.22,0,0,0-4.66-8.18,4.38,4.38,0,0,0-2.83-.8c-.16,0-1.55.4-1.68.47-1,.47-.08,1.49-.15,3.13-.42-.09-.73.32-.73,1a3.36,3.36,0,0,0,1.14,2.06,15.61,15.61,0,0,0,1.48,3.35c.46.81.48,1.7,0,2a3.85,3.85,0,0,1-2.9.13,2.11,2.11,0,0,0-1.21,0c-.1,0-1.34.35-1.44.39-.65.33.09.8.09,1.9v3.14a2.09,2.09,0,0,0,1,1.65l13.43,8.89a5,5,0,0,0,1.72-.4.62.62,0,0,0,.35-.64V90.65A7.46,7.46,0,0,0,85.34,85.45Z"/>
                <path class="cls-7"
                      d="M62.27,70.76c.28-10,7.56-14,16.49-8.84,4.6,2.65,8.77,7.23,11.76,12.45l3.3-.83c-3.75-6.81-9.11-12.81-15.06-16.25-11.24-6.49-20.4-1.36-20.54,11.43Z"/>
                <path class="cls-7"
                      d="M87.05,102a14.26,14.26,0,0,1-8.29-2.2C70.3,94.94,63.31,83.56,62.37,73.59l-4-2C59.42,84,68.17,98.33,78.76,104.45c4,2.3,7.72,3.14,10.87,2.69Z"/>
                <path class="cls-7"
                      d="M92.09,77.4a31.54,31.54,0,0,1,3.19,13c0,6-2.44,9.92-6.23,11.21l2.56,5c4.69-1.61,7.7-6.51,7.7-13.94a39.23,39.23,0,0,0-4-16.15Z"/>
                <path class="cls-7"
                      d="M84.44,85.71a14.21,14.21,0,0,1-2.9-3.47c-.48-.8-.46-1.67,0-1.94A3.63,3.63,0,0,0,83,78.65c.51.14,1.14-.05,1.14-.74A2.74,2.74,0,0,0,83.43,76a9.24,9.24,0,0,0-4.66-8.18c-3.5-2-4.54-.09-4.66,2.8-.42-.09-.73.32-.73,1a3.4,3.4,0,0,0,1.13,2.06A16.67,16.67,0,0,0,76,77.09c.47.81.49,1.7,0,2a3.81,3.81,0,0,1-2.9.12c-1.47-.44-2.56.44-2.56,2.25v3.14a2.12,2.12,0,0,0,1,1.65L86,94.59c.53.31.95.06.95-.54V90.91A7.47,7.47,0,0,0,84.44,85.71Z"/>
                <path class="cls-24"
                      d="M61.76,70.89c.27-10,7.55-14,16.49-8.84C82.85,64.7,87,69.28,90,74.5l3.3-.83c-3.76-6.81-9.12-12.82-15.06-16.25C67,50.93,57.85,56.06,57.71,68.85Z"/>
                <path class="cls-24"
                      d="M86.53,102.16a14.23,14.23,0,0,1-8.28-2.2c-8.46-4.89-15.45-16.27-16.4-26.24l-4-2c1.08,12.47,9.83,26.78,20.43,32.9,4,2.3,7.71,3.14,10.86,2.69Z"/>
                <path class="cls-24"
                      d="M91.57,77.53a31.56,31.56,0,0,1,3.2,13c0,6-2.44,9.92-6.23,11.2l2.55,5.06c4.69-1.61,7.71-6.51,7.71-13.94a39.23,39.23,0,0,0-4-16.15Z"/>
                <path class="cls-24"
                      d="M83.92,85.84A14.21,14.21,0,0,1,81,82.37c-.48-.8-.46-1.67,0-1.94a3.75,3.75,0,0,0,1.48-1.65A.81.81,0,0,0,83.64,78a2.73,2.73,0,0,0-.73-1.87A9.2,9.2,0,0,0,78.25,68c-3.49-2-4.53-.1-4.66,2.8-.42-.09-.73.32-.73,1a3.34,3.34,0,0,0,1.14,2,15.69,15.69,0,0,0,1.48,3.36c.46.81.48,1.7,0,2a3.81,3.81,0,0,1-2.9.12c-1.46-.44-2.55.44-2.55,2.25v3.14a2.11,2.11,0,0,0,1,1.65l14.54,8.39c.53.31,1,.06,1-.55V91A7.44,7.44,0,0,0,83.92,85.84Z"/>
                <path class="cls-16"
                      d="M218.5,91.36,179.64,68.89c-2.22-1.28-4-4.71-4-7.67V52c0-2.95,1.8-4.31,4-3L218.5,71.45c2.22,1.28,4,4.71,4,7.67v9.21C222.51,91.28,220.72,92.64,218.5,91.36Z"/>
                <path class="cls-18"
                      d="M219,87.51,180.76,65.39a6.81,6.81,0,0,1-2.88-5.71v-6.6a.71.71,0,0,1,1.07-.62l.12.08,38.3,22.15c2.13,1.22,2.89,3.39,2.89,5.71v6.5a.76.76,0,0,1-1.15.66Z"/>
                <path class="cls-20"
                      d="M219.75,87l-.09-.05L181.4,64.87a6.84,6.84,0,0,1-2.88-5.72v-6.6a1.1,1.1,0,0,1,0-.18.71.71,0,0,0-.66.71v6.6a6.81,6.81,0,0,0,2.88,5.71L219,87.51l.09,0a.76.76,0,0,0,1.11-.43A.74.74,0,0,1,219.75,87Z"/>
                <path class="cls-25"
                      d="M220.39,70.49,181.52,48a2.7,2.7,0,0,0-2.34-.35c-.09,0-2,1-2,1h0a2.63,2.63,0,0,1,2.5.28L218.5,71.45c2.22,1.28,4,4.71,4,7.67v9.21c0,1.84-.7,3.06-1.76,3.41a.62.62,0,0,0,.35-.12c.05,0,2-1.07,2.07-1.11a3.7,3.7,0,0,0,1.23-3.15V78.15C224.4,75.2,222.61,71.77,220.39,70.49Z"/>
                <path class="cls-26"
                      d="M220.39,70.49,181.52,48a2.7,2.7,0,0,0-2.34-.35c-.09,0-2,1-2,1h0a2.63,2.63,0,0,1,2.5.28L218.5,71.45Z"/>
                <path class="cls-27"
                      d="M218.69,71.36,179.83,48.88a2.69,2.69,0,0,0-2.42-.31,3,3,0,0,1,1.94.46L218.21,71.5c2.22,1.28,4,4.71,4,7.67v9.21c0,1.74-.62,2.92-1.59,3.34,1.24-.2,2.07-1.47,2.07-3.49V79C222.7,76.07,220.91,72.64,218.69,71.36Z"/>
                <path class="cls-20"
                      d="M209.52,75.47a5.34,5.34,0,0,0,2.42,4.18c1.33.77,2.42.15,2.42-1.38a5.36,5.36,0,0,0-2.42-4.18C210.6,73.32,209.52,73.94,209.52,75.47Z"/>
                <path class="cls-20"
                      d="M203.28,71.85A5.32,5.32,0,0,0,205.7,76c1.34.77,2.42.16,2.42-1.38a5.32,5.32,0,0,0-2.42-4.17C204.36,69.7,203.28,70.32,203.28,71.85Z"/>
                <path class="cls-20"
                      d="M197,68.23a5.35,5.35,0,0,0,2.42,4.17c1.34.77,2.42.15,2.42-1.38a5.32,5.32,0,0,0-2.42-4.17C198.13,66.08,197,66.69,197,68.23Z"/>
                <path class="cls-20"
                      d="M190.8,64.6a5.33,5.33,0,0,0,2.42,4.17c1.34.78,2.42.16,2.42-1.37a5.32,5.32,0,0,0-2.42-4.18C191.89,62.45,190.8,63.07,190.8,64.6Z"/>
                <path class="cls-20"
                      d="M184.57,61A5.32,5.32,0,0,0,187,65.15c1.33.77,2.41.15,2.41-1.38A5.34,5.34,0,0,0,187,59.6C185.65,58.83,184.57,59.45,184.57,61Z"/>
                <path class="cls-9"
                      d="M208.77,75.52a5.34,5.34,0,0,0,2.42,4.18c1.34.77,2.42.15,2.42-1.38a5.34,5.34,0,0,0-2.42-4.18C209.85,73.37,208.77,74,208.77,75.52Z"/>
                <path class="cls-9"
                      d="M202.53,71.9A5.35,5.35,0,0,0,205,76.07c1.34.77,2.42.16,2.42-1.38A5.32,5.32,0,0,0,205,70.52C203.62,69.75,202.53,70.37,202.53,71.9Z"/>
                <path class="cls-9"
                      d="M196.29,68.28a5.35,5.35,0,0,0,2.42,4.17c1.34.77,2.42.15,2.42-1.38a5.32,5.32,0,0,0-2.42-4.17C197.38,66.13,196.29,66.74,196.29,68.28Z"/>
                <path class="cls-9"
                      d="M190.06,64.65a5.3,5.3,0,0,0,2.42,4.17c1.33.78,2.41.16,2.41-1.37a5.34,5.34,0,0,0-2.41-4.18C191.14,62.5,190.06,63.12,190.06,64.65Z"/>
                <path class="cls-9"
                      d="M183.82,61a5.32,5.32,0,0,0,2.42,4.17c1.33.77,2.42.15,2.42-1.38a5.35,5.35,0,0,0-2.42-4.17C184.9,58.88,183.82,59.5,183.82,61Z"/>
                <path class="cls-22"
                      d="M106.17,196.92c0,.77,1.08,1.4,2.4,1.4s2.4-.63,2.4-1.4-1.07-1.4-2.4-1.4S106.17,196.15,106.17,196.92Z"/>
                <polygon class="cls-22" points="156.22 235.79 152.91 238.48 158.91 240.48 156.22 235.79"/>
                <path class="cls-9"
                      d="M258,128.75a.5.5,0,0,1-.5-.5v-2a.5.5,0,0,1,1,0v2A.5.5,0,0,1,258,128.75Zm0-5a.5.5,0,0,1-.5-.49,7.19,7.19,0,0,0-.28-1.84.5.5,0,1,1,1-.28,7.86,7.86,0,0,1,.32,2.1.51.51,0,0,1-.49.51Zm-1.68-4.61a.48.48,0,0,1-.39-.19,6.84,6.84,0,0,0-1.36-1.27.51.51,0,0,1-.11-.7.49.49,0,0,1,.7-.11,7.9,7.9,0,0,1,1.55,1.45.5.5,0,0,1-.39.82Zm-4-2.93a.45.45,0,0,1-.25-.07l-1.72-1a.51.51,0,0,1-.18-.69.51.51,0,0,1,.69-.17l1.72,1a.5.5,0,0,1,.17.69A.49.49,0,0,1,252.3,116.21Z"/>
                <path class="cls-22"
                      d="M157.49,239.42a.5.5,0,0,1-.26-.08l-.8-.49a.51.51,0,0,1-.16-.69A.49.49,0,0,1,157,238l.79.49a.5.5,0,0,1-.26.93Zm-3.34-2.08a.5.5,0,0,1-.26-.08l-1.7-1.06a.5.5,0,0,1,.53-.85l1.7,1.06a.51.51,0,0,1,.16.69A.52.52,0,0,1,154.15,237.34Zm-4.24-2.65a.42.42,0,0,1-.26-.08l-1.7-1.06a.48.48,0,0,1-.16-.68.49.49,0,0,1,.69-.16l1.69,1.06a.48.48,0,0,1,.16.68A.47.47,0,0,1,149.91,234.69ZM145.67,232a.52.52,0,0,1-.27-.07l-1.69-1.06a.49.49,0,0,1-.16-.69.5.5,0,0,1,.68-.16l1.7,1.06a.5.5,0,0,1-.26.92Zm-3.6-3.24a.51.51,0,0,1-.49-.39,3.48,3.48,0,0,1-.09-.79V226.3a.5.5,0,0,1,1,0v1.32a2.1,2.1,0,0,0,.07.56.5.5,0,0,1-.38.6Zm-.08-5a.5.5,0,0,1-.5-.5v-2a.5.5,0,0,1,1,0v2A.5.5,0,0,1,142,223.8Zm0-5a.51.51,0,0,1-.5-.44,3.17,3.17,0,0,0-.63-1.59.5.5,0,0,1,.09-.7.49.49,0,0,1,.7.1,4.24,4.24,0,0,1,.84,2.08.5.5,0,0,1-.44.55Zm-3.15-3.58a.47.47,0,0,1-.25-.07l-1.72-1a.5.5,0,0,1,.5-.86l1.73,1a.51.51,0,0,1,.17.69A.49.49,0,0,1,138.82,215.22Zm-4.31-2.53a.47.47,0,0,1-.25-.07l-1.72-1a.5.5,0,0,1,.5-.86l1.73,1a.5.5,0,0,1-.26.93Zm-4.31-2.54a.47.47,0,0,1-.25-.07l-1.72-1a.5.5,0,0,1,.5-.86l1.73,1a.5.5,0,0,1,.17.69A.49.49,0,0,1,130.2,210.15Zm-4.31-2.53a.47.47,0,0,1-.25-.07l-1.72-1a.5.5,0,0,1,.5-.87l1.73,1a.5.5,0,0,1-.26.93Zm-4.31-2.54a.47.47,0,0,1-.25-.07l-1.72-1a.5.5,0,1,1,.5-.86l1.73,1a.51.51,0,0,1,.17.69A.49.49,0,0,1,121.58,205.08Zm-4.31-2.53a.47.47,0,0,1-.25-.07l-1.72-1a.5.5,0,0,1,.5-.87l1.73,1a.48.48,0,0,1,.17.68A.5.5,0,0,1,117.27,202.55ZM113,200a.47.47,0,0,1-.25-.07l-1.72-1a.5.5,0,1,1,.5-.86l1.73,1a.51.51,0,0,1,.17.69A.49.49,0,0,1,113,200Z"/>
                <path class="cls-16"
                      d="M91,153.92a.45.45,0,0,1-.25-.07L89.3,153a.5.5,0,1,1,.5-.86l1.4.82a.5.5,0,0,1-.25.93Zm-4-2.33a.47.47,0,0,1-.25-.07l-1.73-1a.49.49,0,0,1-.18-.68.51.51,0,0,1,.69-.18l1.72,1a.5.5,0,0,1-.25.93Zm-4.32-2.52a.47.47,0,0,1-.25-.07l-1.73-1a.51.51,0,0,1-.18-.68.51.51,0,0,1,.69-.18l1.73,1a.5.5,0,0,1,.17.68A.48.48,0,0,1,82.64,149.07Zm-4.31-2.52a.48.48,0,0,1-.26-.07l-1.72-1a.5.5,0,1,1,.5-.86l1.73,1a.49.49,0,0,1,.18.68A.51.51,0,0,1,78.33,146.55ZM74,144a.43.43,0,0,1-.25-.07L72,143a.5.5,0,0,1-.18-.68.49.49,0,0,1,.68-.18l1.73,1A.5.5,0,0,1,74,144Zm-4.32-2.52a.55.55,0,0,1-.25-.07l-1.73-1a.5.5,0,0,1-.18-.68.49.49,0,0,1,.68-.18l1.73,1a.51.51,0,0,1,.18.69A.5.5,0,0,1,69.69,141.51ZM65.37,139a.57.57,0,0,1-.25-.06l-1.73-1a.5.5,0,1,1,.51-.87l1.72,1a.51.51,0,0,1,.18.69A.49.49,0,0,1,65.37,139Zm-4.32-2.52a.47.47,0,0,1-.25-.07l-1.73-1a.51.51,0,0,1-.17-.69.49.49,0,0,1,.68-.18l1.73,1a.51.51,0,0,1,.17.69A.5.5,0,0,1,61.05,136.46Zm-5.64-1.06a.5.5,0,0,1-.5-.5,1.78,1.78,0,0,1,1.75-1.78h0a.49.49,0,0,1,.5.49.5.5,0,0,1-.49.51.78.78,0,0,0-.77.78A.5.5,0,0,1,55.41,135.4Z"/>
                <path class="cls-16"
                      d="M52.64,138a.48.48,0,0,1-.26-.07l-1.72-1a.5.5,0,0,1,.5-.86l1.73,1a.51.51,0,0,1,.18.69A.5.5,0,0,1,52.64,138Zm-4.32-2.53a.57.57,0,0,1-.25-.06l-1.73-1a.5.5,0,0,1,.51-.86l1.73,1a.51.51,0,0,1,.17.69A.49.49,0,0,1,48.32,135.51ZM44,133a.55.55,0,0,1-.25-.07l-1.73-1a.51.51,0,0,1-.18-.69.51.51,0,0,1,.69-.18l1.72,1a.51.51,0,0,1,.18.69A.5.5,0,0,1,44,133Zm-4.31-2.53a.59.59,0,0,1-.26-.07l-1.72-1a.5.5,0,0,1,.5-.87l1.73,1a.49.49,0,0,1,.18.68A.51.51,0,0,1,39.7,130.46Zm-4.32-2.53a.47.47,0,0,1-.25-.07l-1.73-1a.51.51,0,0,1-.17-.69.5.5,0,0,1,.68-.17l1.73,1a.5.5,0,0,1-.26.93Z"/>
                <polygon class="cls-16" points="37.57 126.83 34.49 129.08 32.37 125.46 37.57 126.83"/>
                <path class="cls-2"
                      d="M241.91,225l-30.7-17.67c-3.19-1.85-2.79-5.07.9-7.2h0c3.68-2.13,15.89-2.14,19.08-.3l27.22,15.71c4.9,2.89,0,6.87-4,8.94h0C250.68,226.58,245.1,226.81,241.91,225Z"/>
                <path class="cls-10"
                      d="M253.87,187.86,209.49,171.3v32.92a2.89,2.89,0,0,0,1.73,2.87l30,17.38c2.6,1.5,7.15,1.32,10.15-.42h0c1.59-.91,2.43-2.08,2.48-3.2h0Z"/>
                <path class="cls-9"
                      d="M241.23,191.4l-30-17.38c-2.6-1.5-2.27-4.13.73-5.86h0c3-1.73,7.54-1.92,10.14-.42l30,17.38c2.6,1.5,2.27,4.13-.73,5.86h0C248.38,192.71,243.83,192.9,241.23,191.4Z"/>
                <path class="cls-7"
                      d="M251.38,190.56c-3,1.74-7.55,1.92-10.15.42l-30-17.38a3.12,3.12,0,0,1-1.74-2.32,2.94,2.94,0,0,0,1.74,2.83l30,17.38c2.6,1.5,7.15,1.31,10.15-.42,1.75-1,2.58-2.32,2.46-3.54A4.37,4.37,0,0,1,251.38,190.56Z"/>
                <path class="cls-3"
                      d="M234.64,147.54h0a12.57,12.57,0,0,0-18.85,10.89v13.64h0v0c0,1.34,1.84,2.41,4.12,2.41s4.13-1.07,4.13-2.4v0h0V160.19a5.33,5.33,0,0,1,8-4.62h0a13.29,13.29,0,0,1,6.67,11.53v18.18h.05c0,1.3,1.87,2.35,4.12,2.35s4.1-1.06,4.12-2.38h0V169A24.74,24.74,0,0,0,234.64,147.54Z"/>
                <path class="cls-6"
                      d="M234.39,153.83a7.85,7.85,0,0,0-.77-.38,14.48,14.48,0,0,1,6.4,12v21.34a5.09,5.09,0,0,0,1.61.59v-21A14.49,14.49,0,0,0,234.39,153.83Z"/>
                <path class="cls-18"
                      d="M226,151.65a6.76,6.76,0,0,0-6.75,6.75v14.25l0,1.47a5.69,5.69,0,0,0,2.37-.28l0-1.48V158.12a6.76,6.76,0,0,1,4.78-6.46Z"/>
                <path class="cls-6"
                      d="M230.07,148.73a13,13,0,0,1,6.13,1.54,23.45,23.45,0,0,0-2.27-1.5,11,11,0,0,0-5.55-1.51,11.2,11.2,0,0,0-11.17,11.17v0A13.49,13.49,0,0,1,230.07,148.73Z"/>
                <path class="cls-18"
                      d="M243.84,171.47v15.95a5,5,0,0,0,2.06-.71,1.42,1.42,0,0,0,.15-.56V169.87C246.05,162.83,243.84,164.29,243.84,171.47Z"/>
                <path class="cls-18"
                      d="M232,197.23a9,9,0,0,0-4.07-7c-2.25-1.3-4.07-.26-4.07,2.32a8.85,8.85,0,0,0,2.06,5.24v8.17l4,2.32v-8.17C231.15,200,232,199,232,197.23Z"/>
                <path class="cls-20"
                      d="M226.6,205.64v-8.17a8.85,8.85,0,0,1-2.06-5.24,2.9,2.9,0,0,1,1.07-2.53c-1.07.22-1.77,1.23-1.77,2.83a8.85,8.85,0,0,0,2.06,5.24v8.17l4,2.32v-.7Z"/>
                <path class="cls-18"
                      d="M18.85,121.93a3,3,0,0,1-2.69,0,.45.45,0,0,0-.42,0L5.28,128l-1.4-.81c-.12-.06-.11-.17,0-.24l11.86-6.85a.45.45,0,0,1,.42,0,3,3,0,0,0,2.69,0,1,1,0,0,0,.55-.77h0v1.83h0A.91.91,0,0,1,18.85,121.93Z"/>
                <path class="cls-18"
                      d="M22.22,114.21a2,2,0,0,0,1.18,1.69,3,3,0,0,0,2.68,0,.82.82,0,0,0,0-1.55c-.11-.07-.11-.18,0-.24L38,107.26a.43.43,0,0,1,.41,0l6.78,3.91c.11.06.11.17,0,.24l-1.4.81-5.38-3.1a.43.43,0,0,0-.41,0l-11.3,6.52V117h0a.94.94,0,0,1-.56.81,3,3,0,0,1-2.68,0,2.09,2.09,0,0,1-1.16-1.49l0,0v-2Z"/>
                <path class="cls-6"
                      d="M15.68,124.27a3.7,3.7,0,0,0,3.35,0l15.15-8.74a1,1,0,0,0,0-1.94,3.72,3.72,0,0,0-3.36,0l-15.14,8.74A1,1,0,0,0,15.68,124.27Z"/>
                <path class="cls-18" d="M22.94,124c.11.07.11.18,0,.24l-.56.33V123.1h0A.88.88,0,0,0,22.94,124Z"/>
                <path class="cls-18"
                      d="M1.19,128.73,8,132.64a6.42,6.42,0,0,0,5.79,0l11.86-6.85A2,2,0,0,0,26.8,124h0v2.08h0a2.13,2.13,0,0,1-1.19,1.56l-11.86,6.85a6.45,6.45,0,0,1-5.79,0l-6.77-3.91A2.1,2.1,0,0,1,0,129.09H0v-1.91A2,2,0,0,0,1.19,128.73Z"/>
                <path class="cls-18"
                      d="M15.68,124.27a3.7,3.7,0,0,0,3.35,0l15.15-8.74a1.28,1.28,0,0,0,.66-.76v1.43c.12.42-.1.86-.66,1.19L19,126.12a3.7,3.7,0,0,1-3.35,0,1.27,1.27,0,0,1-.65-.75h0v0a.62.62,0,0,1,0-.33v-1.53A1.24,1.24,0,0,0,15.68,124.27Z"/>
                <path class="cls-6"
                      d="M23.4,115.9a3,3,0,0,0,2.68,0,.82.82,0,0,0,0-1.55c-.11-.07-.11-.18,0-.24L38,107.26a.43.43,0,0,1,.41,0l6.78,3.91c.11.06.11.17,0,.24l-11.87,6.85a.48.48,0,0,1-.42,0,3,3,0,0,0-2.68,0c-.74.43-.75,1.13,0,1.55a6.39,6.39,0,0,0,5.79,0L47.82,113c1.6-.92,1.61-2.42,0-3.34l-6.77-3.91a6.42,6.42,0,0,0-5.79,0l-11.86,6.85C21.82,113.49,21.81,115,23.4,115.9Z"/>
                <path class="cls-18"
                      d="M30.17,119.81a6.39,6.39,0,0,0,5.79,0L47.82,113A2,2,0,0,0,49,111.2h0v2.11h0a2.11,2.11,0,0,1-1.18,1.5L36,121.66a6.39,6.39,0,0,1-5.79,0,1,1,0,0,1-.53-.66h0v-2h0A1,1,0,0,0,30.17,119.81Z"/>
                <path class="cls-6"
                      d="M1.19,128.73,8,132.64a6.42,6.42,0,0,0,5.79,0l11.86-6.85c1.6-.93,1.61-2.43,0-3.34a3,3,0,0,0-2.69,0,.82.82,0,0,0,0,1.55c.11.07.11.18,0,.24l-11.86,6.85a.45.45,0,0,1-.42,0l-6.77-3.91c-.12-.06-.11-.17,0-.24l11.86-6.85a.45.45,0,0,1,.42,0,3,3,0,0,0,2.69,0,.82.82,0,0,0,0-1.55,6.39,6.39,0,0,0-5.79,0L1.21,125.39C-.39,126.31-.4,127.81,1.19,128.73Z"/>
                <path class="cls-10"
                      d="M15.68,124.12a3.7,3.7,0,0,0,3.35,0l15.15-8.74a1.32,1.32,0,0,0,.66-.77.88.88,0,0,1,0,.16,1.29,1.29,0,0,1-.68.83L19,124.34a3.7,3.7,0,0,1-3.35,0,1.26,1.26,0,0,1-.67-.82s0-.1,0-.15A1.33,1.33,0,0,0,15.68,124.12Z"/>
                <path class="cls-10"
                      d="M45,111.15l-6.62-3.82a.43.43,0,0,0-.41,0L26.23,114.1a.85.85,0,0,0-.14-.1l0,0,0,0L38,107.11a.46.46,0,0,1,.41,0L45.15,111l0,0s0,0,0,0Z"/>
                <path class="cls-10"
                      d="M30.17,119.66a6.42,6.42,0,0,0,5.79,0l11.86-6.85A2.13,2.13,0,0,0,49,111.33a.62.62,0,0,1,0,.13A2.09,2.09,0,0,1,47.82,113L36,119.88a6.45,6.45,0,0,1-5.79,0,1,1,0,0,1-.53-.66.51.51,0,0,1,0-.13A1,1,0,0,0,30.17,119.66Z"/>
                <path class="cls-10"
                      d="M23.4,115.75a3,3,0,0,0,2.68,0,1.1,1.1,0,0,0,.53-.57.49.49,0,0,1,0,.12,1,1,0,0,1-.54.67,3,3,0,0,1-2.68,0,2.05,2.05,0,0,1-1.16-1.55.57.57,0,0,1,0-.13A2.1,2.1,0,0,0,23.4,115.75Z"/>
                <path class="cls-10"
                      d="M15.74,119.93a.45.45,0,0,1,.42,0,3,3,0,0,0,2.69,0,1.1,1.1,0,0,0,.52-.56.5.5,0,0,1,0,.12,1.05,1.05,0,0,1-.54.67,3,3,0,0,1-2.69,0,.51.51,0,0,0-.42,0L4,126.91l-.16-.09,0,0,0,0Z"/>
                <path class="cls-10"
                      d="M1.19,128.57,8,132.48a6.39,6.39,0,0,0,5.79,0l11.86-6.84a2.15,2.15,0,0,0,1.17-1.47.49.49,0,0,1,0,.12,2.07,2.07,0,0,1-1.18,1.57L13.75,132.7a6.42,6.42,0,0,1-5.79,0L1.19,128.8A2,2,0,0,1,0,127.25a.62.62,0,0,1,0-.13A2.1,2.1,0,0,0,1.19,128.57Z"/>
            </g>
        </g>
    </g>
</svg>