<svg xmlns="http://www.w3.org/2000/svg" viewBox="0 0 368.05 383.19"><defs><style>.cls-1{fill:#d6e2f1;}.cls-2{fill:#e3ebf5;}.cls-3{fill:#eb7242;}.cls-4{fill:#ed8251;}.cls-5{fill:#6b98d1;}.cls-6{fill:#3078c1;}.cls-7{fill:#4e87c9;}.cls-8{fill:#dc5235;}.cls-9{fill:#2968ad;}</style></defs><g id="Слой_2" data-name="Слой 2"><g id="Слой_1-2" data-name="Слой 1"><path class="cls-1" d="M189.37,383.19H176.65c-2.2-.81-4.48-.17-6.71-.38-23,.34-44.25-6.49-64.9-15.79a5.64,5.64,0,0,1-3.39-3.27,17.06,17.06,0,0,1-.56-5.18q0-45.72,0-91.44a14,14,0,0,1,.4-4.43,2.79,2.79,0,0,1,.76-1.67c4.25-3.19,4.5-7.7,4.25-12.42a54.86,54.86,0,0,1,0-5.59c.24-4.72,0-9.24-4.28-12.41a2.53,2.53,0,0,1-.65-1.33c-.92-5.41-.42-10.84-.33-16.26a4.41,4.41,0,0,1,1.18-3c1.62-1.22,3.51-1.16,5.38-1.16q70.63,0,141.29,0a39.37,39.37,0,0,0,4.47.23c13.57-.46,27.14-.16,40.71-.18,7,0,14-.37,20.9.26,8.33,0,16.68,0,25,0,1.12,0,2.24,0,3.36,0,3.06.09,5.67-.73,7.32-3.54s.39-5.28-1.14-7.64c-3.87-6-8.12-11.65-12.2-17.46q-19.65-28-39.29-56c-2.73-3.88-2.73-5.62,0-9.47,7.41-10.47,14.72-21,22.12-31.5.94-1.34,1.66-3.23,3.95-2.74a183,183,0,0,1,40.53,85.53,175.57,175.57,0,0,1,3,41.68,182.87,182.87,0,0,1-15,64.86q-29.07,66-94.82,95.74c-15.41,6.94-31.45,11.93-48.35,13.66a90.1,90.1,0,0,1-13,.57C194.19,383,191.74,382.35,189.37,383.19Z"/><path class="cls-2" d="M196.87,382.46c0,.24,0,.48,0,.73h-7.48C191.75,381.69,194.37,382.74,196.87,382.46Z"/><path class="cls-2" d="M169.91,383.19c0-.25,0-.49,0-.73,2.25.25,4.63-.7,6.76.73Z"/><path class="cls-3" d="M102.72,29.06h14.82c10.26-2.24,20.62-1.41,31-.95,2.1.66,3,2.49,4,4.21C185.66,89.93,219,147.4,252.11,205.05c.9,1.57,2.35,3,1.56,5.13-4.86,0-9.71.12-14.57.12H107.55c-1.62,0-3.23.08-4.85.12a5.43,5.43,0,0,1-3.41,1.26c-5.79,0-11.59.38-17.37-.19a6.78,6.78,0,0,1-3.58-.64c-2-1.3-2.54-3.28-2.58-5.46-.14-7.66-.12-15.32,0-23,0-2.18.57-4.17,2.48-5.53a6.08,6.08,0,0,1,3.55-.69,158.1,158.1,0,0,1,20.65,0c6.52-.5,13.07-.07,19.6-.35,6,.26,11.94,0,17.91.08,2.61,0,3.86-1.33,4.35-3.68a20.85,20.85,0,0,0,.21-4.1q0-48.59,0-97.16c0-1,0-2-.06-3-.17-2.8-1.5-4.37-4.47-4.36-6,0-11.94-.12-17.91.06-6.52-.3-13,.18-19.57-.34a161.22,161.22,0,0,1-20.62,0,6.59,6.59,0,0,1-3.55-.64c-2.08-1.4-2.55-3.55-2.58-5.84q-.15-11.13,0-22.25c0-2.29.46-4.44,2.53-5.88A6.36,6.36,0,0,1,81.84,28c5.81-.58,11.64-.24,17.46-.21A5.57,5.57,0,0,1,102.72,29.06Z"/><path class="cls-3" d="M249.23,29.05q26.36.07,52.72.13c14,0,27.92.06,41.88,0,3.51,0,6.45.76,8.25,4,1.94,3.44.63,6.41-1.42,9.34Q337.25,61.6,323.93,80.78,311.11,98.9,298.25,117c-1.73,2.44-.79,4.35.68,6.43q19.57,27.78,39.09,55.61c4.29,6.11,8.56,12.24,12.89,18.32,2,2.84,3,5.78,1.16,9-1.73,3-4.49,4-7.89,3.94-9.21-.14-18.42-.12-27.64-.15-2.05-.77-2.93-2.61-3.92-4.33Q288,163.08,263.29,120.37T214.14,35.21a21.75,21.75,0,0,1-1.74-3.31c-.56-1.55-.63-3,1.27-3.7C225.55,27.64,237.43,26.7,249.23,29.05Z"/><path class="cls-4" d="M212.57,29.3c2.65,6.75,6.91,12.61,10.44,18.87,8.93,15.79,18,31.46,27.11,47.17q12.94,22.44,25.93,44.85,14.73,25.49,29.45,51c3.66,6.34,7.36,12.67,11,19H253.67l-24.75-43q-13.48-23.46-27-46.92c-8.64-15-17.35-29.92-26-44.92q-13.2-23-26.28-46c1.21-1.62,3-1.59,4.75-1.59q26.69-.07,53.36,0C209.54,27.72,211.35,27.69,212.57,29.3Z"/><path class="cls-5" d="M102.42,364.34a174.39,174.39,0,0,1-21.56-12.57,21.24,21.24,0,0,1-.74-5.89q0-38.69,0-77.35c0-2.23-.28-4.52,1-6.54,1.12-1.29,2.77-1,4.18-1.4,4.28-.26,8.56-.12,12.84-.08,1.58,0,3.22,0,4.37,1.44q0,50.26.06,100.54A14.58,14.58,0,0,1,102.42,364.34Z"/><path class="cls-6" d="M102.58,262l-17.26-.07c-4.88-1.51-6.29-3.29-6.49-8.59-.18-4.61,0-9.22-.06-13.82-.07-5.15,1.82-8.95,6.93-10.71,4.5-.83,9-.42,13.56-.36a4.71,4.71,0,0,1,3.33,1.36c4.12,2.15,5.59,5.57,5.28,10.14a91,91,0,0,0,0,11.91C108.18,256.38,106.7,259.8,102.58,262Z"/><path class="cls-5" d="M102.59,229.76l-17.27.07c-1.38.44-2.77,1.11-4.1-.13-1.46-6.46-2.17-12.9.4-19.27H102.7Q102.64,220.09,102.59,229.76Z"/><path class="cls-1" d="M68.85,342.79c-22.27-17.42-39.1-39.23-51.23-64.64A187.38,187.38,0,0,1,.17,192,186.74,186.74,0,0,1,15.31,126.6,188.79,188.79,0,0,1,42.64,82.26a153.6,153.6,0,0,1,19.5-20c2.27-2.15,4.65-1.8,7.07-.3,1.24,1.6,1.19,3.5,1.19,5.36q0,52.5,0,105a9.38,9.38,0,0,1-.83,4.73c-2,2.35-4.8,1.62-7.33,1.73-5.42.22-6.08.77-6.12,6.08,0,6.35-.12,12.71,0,19.07.1,4,1,4.67,4.91,5,2.79.21,5.79-.67,8.28,1.4,1.93,6.24,1,12.57.61,18.88a2.66,2.66,0,0,1-.55,1.36c-7.36,7.23-3.79,16.26-4,24.64,0,1.63,1.26,2.91,2.4,4.08a7,7,0,0,1,2.18,3.4,15,15,0,0,1,.42,4.81q0,34.53,0,69.06C70.38,338.7,70.82,341.06,68.85,342.79Z"/><path class="cls-1" d="M212.57,29.3H149.7l-32.16-.25c8-3.86,16.56-6,25.12-8a173.32,173.32,0,0,1,49.14-4.5,182.29,182.29,0,0,1,55.86,11.52,9.24,9.24,0,0,1,1.57,1Z"/><path class="cls-7" d="M68.85,342.79q0-35.22.11-70.46c0-3.48.05-6.95.08-10.43,4.23-2.15,8.44-2.29,12.63.11q0,42.56-.06,85.13c0,1.55.56,3.26-.75,4.63A79.75,79.75,0,0,1,68.85,342.79Z"/><path class="cls-8" d="M69,62.24H62.14c-1,0-2-.14-3-.13-3,0-4.38-1.54-4.4-4.36q-.07-12.15,0-24.31c0-2.84,1.54-4.3,4.47-4.28,3.24,0,6.48-.07,9.72-.11,3.28-1.86,6.52-2.13,9.7.25a6.31,6.31,0,0,0-1.56,4.78q.11,11.56,0,23.12A6.29,6.29,0,0,0,78.66,62C75.48,64.37,72.24,64.11,69,62.24Z"/><path class="cls-5" d="M102.72,29.06H81.62a4.75,4.75,0,0,1-1.34-3.73c-.09-5.7-.25-11.41.06-17.1.22-4.07,1.14-7.18,6.48-8.11C89.55.08,92.28-.06,95,0c4.79.16,7.58,3,7.65,7.78C102.77,14.89,102.71,22,102.72,29.06Z"/><path class="cls-7" d="M86.82.12c-4,2-5.39,5.28-5.24,9.67.21,6.42,0,12.85,0,19.27l-3,.25L69,29.06c0-6.84,0-13.69,0-20.53C69,2.93,72,0,77.49,0,80.6,0,83.71.08,86.82.12Z"/><path class="cls-8" d="M122,62.78c6.88-1.43,13.83-.7,20.73-.4,2.66.11,3.2,3.08,3.2,5.6q0,10.09,0,20.17v81a14.7,14.7,0,0,1-.7,5.51c-.48,1.25-1.2,2.5-2.5,2.49-6.91,0-13.85.94-20.73-.49-.6-2.61,0-5.21,0-7.81q-.08-49.16,0-98.32C122.08,68,121.44,65.38,122,62.78Z"/><path class="cls-5" d="M102.7,177.25H81.62c-1.44-1.32-1.46-3.1-1.47-4.84q0-52.66,0-105.33c0-1.74,0-3.52,1.47-4.84H102.7c1.37,1.38,1.36,3.15,1.36,4.89q0,52.62,0,105.23C104.06,174.1,104.07,175.87,102.7,177.25Z"/><path class="cls-1" d="M102.7,177.25v-115c6.45.07,12.92-.81,19.33.54,1.34,1.17,1.56,2.69,1.55,4.39q0,52.58,0,105.14c0,1.7-.21,3.22-1.55,4.4C115.62,178.06,109.14,177.18,102.7,177.25Z"/><path class="cls-7" d="M81.62,62.24v115l-3,.24c-3.27,1.45-6.52,2.39-9.68-.24v-115l9.7-.25Z"/><path class="cls-8" d="M69,177.25l9.68.24a6.43,6.43,0,0,0-1.54,4.8q.11,11.55,0,23.11a6.31,6.31,0,0,0,1.56,4.78c-3.17,2.38-6.42,2.11-9.7.25-3.22,0-6.44-.14-9.67-.11s-4.54-1.6-4.55-4.58q0-11.91,0-23.81c0-3,1.42-4.6,4.55-4.57S65.74,177.29,69,177.25Z"/><path class="cls-7" d="M69,210.43l9.7-.25,3,.25q0,9.63,0,19.27a12.56,12.56,0,0,1-12.63.11Q69,220.12,69,210.43Z"/><path class="cls-9" d="M69,229.81l12.63-.11,3.65.13c-4.15,2.12-5.5,5.58-5.23,10.09a102.19,102.19,0,0,1,0,11.87c-.27,4.51,1.09,8,5.23,10.09l-3.65.13L69,261.9c-3.89-2.16-5.43-5.49-5.26-9.89.17-4.1.17-8.22,0-12.32C63.61,235.3,65.14,232,69,229.81Z"/></g></g></svg>