<svg xmlns="http://www.w3.org/2000/svg" viewBox="0 0 408.65 353.52"><defs><style>.cls-1{fill:#fdc957;}.cls-2{fill:#549ffe;}.cls-3{fill:#338cee;}.cls-4{fill:#cbd1da;}.cls-5{fill:#f3b437;}.cls-6{fill:#1c78d2;}.cls-7{fill:#e3e9f7;}.cls-8{fill:#bbc1cb;}</style></defs><g id="Слой_2" data-name="Слой 2"><g id="Layer_1" data-name="Layer 1"><path class="cls-1" d="M408.65,180.79c-1.89,2.64-2.58,6.12-5.59,8-4.77-2.78-7.2-10.08-5.23-16.46.92-3,1.72-6.22,5.23-7.46,3.14,2.11,4.09,5.61,5.59,8.77Z"/><path class="cls-1" d="M408.65,20.36c-2.11,2.45-2.66,6-5.64,7.85-7.1-3.18-8.48-19.5.11-23.9,3.22,2.1,4.06,5.68,5.53,8.87Z"/><path class="cls-1" d="M408.65,341.22c-1.78,2.73-2.49,6.19-5.52,8.07-8.6-4.39-7.23-20.73-.12-23.9,3.13,2.07,3.93,5.65,5.64,8.64Z"/><path class="cls-2" d="M215.47,52.4c5.07.81,7.1,3.05,7.19,8.26.09,5.59.15,11.18,0,16.76-.11,3.25,1.22,4.91,4.3,5.63a91.6,91.6,0,0,1,27.5,11.35c2.78,1.72,5.1,1.53,7.43-1,3.73-4,7.63-7.8,11.55-11.59,4.29-4.15,7.84-4.13,12.1,0q6.84,6.7,13.55,13.54c4.46,4.54,4.41,8-.15,12.68-3.73,3.8-7.45,7.6-11.31,11.26-2.33,2.21-2.62,4.46-1,7.11a93,93,0,0,1,11.51,27.86c.74,3.18,2.57,4.26,5.73,4.16,5.45-.17,10.91-.1,16.36,0,5.87.08,8.58,2.76,8.63,8.54q.09,9.78,0,19.56c-.05,5.77-2.76,8.46-8.63,8.54-5.45.07-10.91.14-16.36,0-3.15-.1-5,1-5.73,4.16a93.13,93.13,0,0,1-11.51,27.86c-1.64,2.65-1.35,4.9,1,7.1,3.86,3.66,7.59,7.47,11.32,11.27,4.56,4.64,4.61,8.14.15,12.68s-9,9.07-13.55,13.54c-4.26,4.17-7.81,4.2-12.1,0-3.92-3.79-7.8-7.63-11.56-11.58-2.16-2.28-4.36-2.81-7.07-1.14a96.16,96.16,0,0,1-28.23,11.67c-2.77.66-4,2.21-3.9,5.09.11,5.72.1,11.44,0,17.16-.09,5.21-2.12,7.46-7.19,8.26-4.18-1-5.7-3.92-5.82-7.86s0-7.93-.08-11.89c-.15-4.62-1.47-6.12-6-6.75s-8.91-1.16-13.37-1.65a22.73,22.73,0,0,1-5.67-1.46c-11-3.12-21.66-6.89-31.42-13-2-1.26-4-.69-5.72,1.08-1.92,2-4,3.87-6,5.8a28.58,28.58,0,0,1-10.14-9.85c-2.45-3.7-.74-7.2,1.88-10.15,3.27-3.68,6.92-7,10.35-10.51s3.73-4.56,1.27-9a110.72,110.72,0,0,1-10-24.25c-1.39-5.15-2-5.42-7.22-5.45-4.51,0-9,.08-13.55,0-7.25-.18-10.36-3.38-10.41-10.63,0-6,0-12,0-17.94.07-6.75,3.21-10,10-10.21,4.78-.16,9.58-.2,14.35,0,3.62.16,5.76-1.09,6.64-4.72a101.15,101.15,0,0,1,10.8-26.07c1.56-2.74,1.16-5-1-7.16-3.29-3.28-6.61-6.54-9.85-9.89-5.76-6-5.8-9.87,0-15.61,2.14-2.11,3.82-4.82,6.89-5.86,2.09,2,4.21,4,6.27,6.07a4.12,4.12,0,0,0,5.43.82c9.75-6.11,20.45-9.87,31.42-13,5.52-2.18,11.44-2,17.19-2.85,6.68-.94,7.89-2.09,7.93-8.86,0-3.46-.09-6.92.07-10.37C209.85,56.09,211.46,53.31,215.47,52.4Z"/><path class="cls-3" d="M141.36,88.11c-2.27,2.41-4.5,4.86-6.82,7.22-4.67,4.76-4.7,8.06,0,12.88,3.54,3.6,7,7.24,10.73,10.69,2.64,2.47,3,4.76,1.1,8a103.23,103.23,0,0,0-11.32,27.44c-.79,3.11-2.39,4.3-5.63,4.16-5.44-.24-10.89-.13-16.34,0-5.82.09-8.51,2.84-8.53,8.58q0,9.75,0,19.52c0,5.74,2.71,8.49,8.53,8.58,5.58.08,11.16.13,16.74,0,2.66-.08,4.3.75,5,3.38a113,113,0,0,0,12.34,29.58c1.28,2.11.56,4.25-1.33,6.06-3.84,3.67-7.56,7.47-11.29,11.25-4.74,4.83-4.71,8.13,0,12.89,2.32,2.36,4.55,4.81,6.82,7.22-2.3,2.39-4.48,4.9-6.91,7.13-3.44,3.15-6.95,3.25-10.32.07q-8-7.54-15.52-15.5c-3.43-3.61-3.26-7.21.3-10.92,3.87-4,7.8-8,11.86-11.83,2.42-2.28,3-4.49,1.15-7.37a92.1,92.1,0,0,1-11.4-27.43c-.8-3.29-2.49-4.63-5.86-4.53-5.58.16-11.17.09-16.76,0-5.33-.07-8-2.77-8.08-8.16q-.1-10.18,0-20.35c.05-5.4,2.75-8.1,8.08-8.17,5.58-.06,11.17-.09,16.75,0,3.08.06,4.95-.89,5.74-4.14a96,96,0,0,1,11.71-28.17c1.6-2.57,1.1-4.66-1-6.72-4-3.86-8-7.82-11.86-11.83s-4.06-7.67,0-11.8c4.72-4.87,9.5-9.68,14.39-14.39,4-3.82,7.5-3.76,11.51.08C137.23,83.62,139.26,85.9,141.36,88.11Z"/><path class="cls-4" d="M31.14,10,101,10c6.35,0,9,2.13,9.07,8.38.2,16.23.08,32.46,0,48.69a20.25,20.25,0,0,1-.53,2.71c-.53,3.58-2.74,5.48-6.19,5.53-3,0-5.66-3-5.91-6.48-.16-2.25,0-4.52,0-6.78,0-11.57-.14-23.15.07-34.72.07-3.59-.83-4.74-4.59-4.71-20.62.15-41.23,0-61.85,0A38.15,38.15,0,0,1,31.14,10Z"/><path class="cls-4" d="M31,331c20.62,0,41.23-.17,61.85,0,3.76,0,4.65-1.13,4.59-4.71-.2-13.17-.06-26.34-.09-39.51a9.91,9.91,0,0,1,1.14-5.37,5.77,5.77,0,0,1,5.62-3.08,5.69,5.69,0,0,1,5.17,4.34,22.21,22.21,0,0,1,.83,5.88c-.06,14.9,0,29.8,0,44.69,0,8.26-2.14,10.38-10.34,10.38l-68.63,0A38.15,38.15,0,0,1,31,331Z"/><path class="cls-4" d="M377.57,22.63l-61,.07c-5.27,0-5.27,0-5.27,5.46,0,12.9,0,25.79,0,38.69a9.88,9.88,0,0,1-1.15,5.36,5.82,5.82,0,0,1-10.78-1.27,22.21,22.21,0,0,1-.83-5.88c.06-14.89,0-29.78,0-44.67,0-8.27,2.14-10.4,10.3-10.4h68.59A35.27,35.27,0,0,1,377.57,22.63Z"/><path class="cls-4" d="M377.47,343.6H307.69c-6.33,0-9-2.15-9-8.41-.19-16.21-.08-32.43,0-48.65a20.39,20.39,0,0,1,.53-2.72c.52-3.57,2.73-5.48,6.18-5.53,3-.05,5.65,3,5.92,6.46.16,2,0,4,.05,6v34.7c0,5.45,0,5.45,5.27,5.46l61,.07A35.27,35.27,0,0,1,377.47,343.6Z"/><path class="cls-3" d="M184.48,271.59c7.19.13,14.24,1.45,21.34,2.4,3.65.48,4.85,2.79,4.9,6.05.05,3.84.25,7.7-.06,11.51a9.54,9.54,0,0,0,4.81,9.65c-7.3.05-14.6.19-21.9.11-4.81-.05-7.48-2.89-7.56-7.83-.08-5.58,0-11.15,0-16.73C186,274.84,185.94,273,184.48,271.59Z"/><path class="cls-3" d="M215.47,52.4a9.46,9.46,0,0,0-4.8,9.62c.3,3.41.07,6.86.06,10.3,0,5.08-1.11,7-6.09,7.56-6.7.8-13.36,2.24-20.16,2.13A6.21,6.21,0,0,0,186,77.24c0-5.57-.06-11.15,0-16.72s2.67-8.21,8-8.25C201.14,52.22,208.31,52.35,215.47,52.4Z"/><path class="cls-5" d="M26.37,28.34c-7,5.71-16.23,5.22-22.13-1.19A16.19,16.19,0,0,1,4.69,4.84,15.67,15.67,0,0,1,26.53,4.2c.38,1.17-.3,2-.89,2.89q-6,8.85,0,17.71C26.3,25.85,27.4,26.88,26.37,28.34Z"/><path class="cls-5" d="M26.53,349.4a15.67,15.67,0,0,1-21.84-.64,16.19,16.19,0,0,1-.45-22.31c5.91-6.41,15.14-6.9,22.13-1.19,1,1.46-.07,2.49-.77,3.54q-5.94,8.88,0,17.71C26.23,347.37,26.91,348.23,26.53,349.4Z"/><path class="cls-5" d="M377.57,22.63a22.79,22.79,0,0,1-.1-12.63c6.21-10.1,16.14-12.87,24.6-6.84a6.41,6.41,0,0,1,1.05,1.15C396.47,12,396.44,20,403,28.21,394.52,35.46,384.44,33.25,377.57,22.63Z"/><path class="cls-5" d="M377.47,343.6a22.79,22.79,0,0,1,.1-12.63c5.51-8.51,12.12-11.42,20.14-8.85a11.82,11.82,0,0,1,5.3,3.27c-6.56,8.15-6.55,16.18.12,23.9-7.2,6.56-17.92,5.36-23.77-2.68C378.66,345.65,378.1,344.6,377.47,343.6Z"/><path class="cls-5" d="M26.44,188.86a15.76,15.76,0,0,1-22.12-1.05,16.21,16.21,0,0,1,0-22,15.77,15.77,0,0,1,22.13-1c.46,1.49-.53,2.52-1.21,3.62q-5.14,8.44,0,16.88C25.92,186.35,26.91,187.37,26.44,188.86Z"/><path class="cls-5" d="M403.06,164.84c-6.64,8.58-6.64,15.33,0,23.92a15.9,15.9,0,0,1-23.85-3c-.6-.87-1.13-1.78-1.69-2.67a10.78,10.78,0,0,1,0-12.66c6.49-10,15.9-12.65,24.47-6.76A7.21,7.21,0,0,1,403.06,164.84Z"/><path class="cls-4" d="M31.1,170.51c7.55,0,15.11-.08,22.67,0a12.59,12.59,0,0,1,4.25.78,5.78,5.78,0,0,1,0,11.08,13.47,13.47,0,0,1-4.25.78c-7.56,0-15.12,0-22.67,0A37.42,37.42,0,0,1,31.1,170.51Z"/><path class="cls-4" d="M377.52,170.47a22.53,22.53,0,0,0,0,12.66l-21.83,0c-.53,0-1.06,0-1.59,0-4.32-.29-7.79-3.27-7.63-6.54s3.48-6,7.63-6.11C361.91,170.36,369.71,170.46,377.52,170.47Z"/><path class="cls-1" d="M31.1,170.51a22.08,22.08,0,0,1,0,12.58c-1.52,2-2.39,4.42-4.66,5.77-6.55-9.59-6.55-14.54,0-24.12C28.71,166.09,29.58,168.55,31.1,170.51Z"/><path class="cls-1" d="M26.37,28.34a3.58,3.58,0,0,0-.26-1.16c-6.29-9.71-6.21-14.22.42-23,2.18,1.43,3.11,3.85,4.61,5.82A21.87,21.87,0,0,1,31,22.59C29.47,24.49,28.66,27,26.37,28.34Z"/><path class="cls-1" d="M26.53,349.4c-6.63-8.78-6.71-13.27-.42-23a3.58,3.58,0,0,0,.26-1.16c2.29,1.32,3.1,3.85,4.67,5.75a21.87,21.87,0,0,1,.1,12.57C29.64,345.55,28.71,348,26.53,349.4Z"/><path class="cls-3" d="M215.43,107.43c10.15,2.28,19.91,5.5,28.46,11.7,17.55,12.72,27.93,29.49,30,51.38a69.78,69.78,0,0,1-56.16,75,23,23,0,0,0-2.28.69,61.28,61.28,0,0,1-26.62-10.93c-16.82-11.69-26.91-27.76-30-47.94-3.61-23.45,3.78-43.65,19.86-60.62,8.26-8.71,18.66-14.44,30.16-18.06C211,107.93,213.37,108.58,215.43,107.43Z"/><path class="cls-6" d="M215.43,107.43c-3.76,2.27-8.19,2.63-12.19,4.35-25.25,10.84-40,29.72-43.57,56.95-2.73,20.62,3.42,38.63,17,54.25a66.25,66.25,0,0,0,36.43,21.82,8.78,8.78,0,0,1,2.34,1.37,67.27,67.27,0,0,1-35.91-3.9C156,232.9,141.17,215.7,135.81,191c-5.18-23.94,1.65-45,18-62.72,11-11.91,25.19-18.63,41.42-21C202.05,106.31,208.71,106.72,215.43,107.43Z"/><path class="cls-4" d="M213.12,209.56c-7.69,0-15.38.06-23.08.11a7.91,7.91,0,0,1-7.4-4.43c-4.61-8.05-9.32-16-13.93-24.09a8.31,8.31,0,0,1,0-8.7c4.61-8,9.32-16,13.93-24.08a7.94,7.94,0,0,1,7.4-4.45c7.7.06,15.39.08,23.08.12.16,2.27-2.17,2.7-3.09,4.2-3.9,6.38-7.87,12.72-10.95,19.57-1.88,2.62-4.11,4.9-4.22,8.6-.12,4,2,6.62,4.23,9.39,3.81,7.62,7.4,15.36,13.18,21.79C212.77,208.15,213.54,208.6,213.12,209.56Z"/><path class="cls-7" d="M198.77,167.27c-.6-3.14,2-5,3.28-7.17,3.26-5.63,5.42-12.07,11.07-16.06,7.23-1.24,12,1.44,15.2,8.24s7.36,13.17,11.2,19.67a8.75,8.75,0,0,1,0,9.71c-3.85,6.49-8,12.86-11.2,19.66s-8,9.48-15.2,8.24c-5.65-4-7.82-10.43-11.07-16.06-1.29-2.22-3.88-4-3.28-7.17,1.33-.65,2.6,0,3.89.16a9.48,9.48,0,0,0,9.92-4.44,9,9,0,0,0,0-10.5,9.48,9.48,0,0,0-9.92-4.44C201.37,167.29,200.1,167.92,198.77,167.27Z"/><path class="cls-8" d="M198.77,167.27c7.3-2.73,13.67-.46,15.84,5.65a10.42,10.42,0,0,1-2.39,11.38c-2.77,2.84-6.27,4.38-10.44,3-1-.33-2-.63-3-.95C192.08,181.32,192.07,172.28,198.77,167.27Z"/></g></g></svg>