<svg width="1146" height="1355" viewBox="0 0 1146 1355" fill="none" xmlns="http://www.w3.org/2000/svg">
    <path d="M1145.58 599.788C1145.42 576.141 1134.95 553.186 1115.78 534.435C1096.61 515.684 1069.79 502.17 1039.43 495.961C1018.3 491.856 996.389 490.478 974.639 491.884C960.535 492.609 956.979 488.985 957.1 478.566C957.763 419.179 957.401 359.746 957.401 300.358C957.691 279.986 955.837 259.628 951.856 239.476C920.392 89.1269 716.363 -21.8114 517.758 3.64686C319.154 29.1052 189.021 145.208 188.479 297.142C188.479 354.854 187.394 412.61 189.081 470.277C189.624 488.396 183.054 492.337 159.728 492.156C59.6115 491.205 0 536.55 0 611.837V1234.84C0 1310.67 58.5266 1354.75 159.366 1354.84C296.912 1354.84 434.419 1354.84 571.885 1354.84C712.385 1354.84 852.885 1355.2 993.385 1354.84C1081.57 1354.57 1145.4 1309.54 1145.58 1246.66C1146.14 1030.98 1146.14 815.353 1145.58 599.788ZM257.131 244.278C283.29 132.614 418.426 48.7198 572.608 48.4933C726.791 48.2668 861.926 131.98 888.809 243.553C892.631 259.701 894.507 276.075 894.414 292.476C894.414 354.129 894.414 415.781 894.414 477.434C894.414 487.49 892.907 492.156 876.754 492.066C824.797 491.794 824.797 492.383 824.797 452.61C824.797 398.839 825.701 345.114 824.797 291.389C822.446 180.405 703.585 95.4236 560.011 101.131C425.779 106.477 322.83 188.514 321.263 292.295C320.299 353.948 320.6 415.645 321.263 477.253C321.263 489.348 316.984 492.156 301.433 491.975C251.526 491.431 251.526 491.975 251.526 454.331V365.68C254.117 330.075 247.126 286.995 257.131 244.278ZM384.552 288.082C386.541 214.335 459.051 156.714 556.455 148.877C645.842 141.765 731.251 187.517 755.361 255.285C759.864 268.407 762.073 281.915 761.931 295.466C761.931 355.941 761.509 416.461 762.292 476.936C762.292 488.578 758.736 492.247 742.643 492.02C686.407 491.25 630.11 491.703 573.874 491.703C517.638 491.703 459.774 491.341 402.755 491.975C388.168 491.975 383.768 489.348 383.889 478.023C384.552 414.694 382.924 351.365 384.552 288.082ZM1082.65 1237.69C1082.65 1282.99 1051.13 1307.23 991.456 1307.23C712.626 1307.41 433.816 1307.41 155.026 1307.23C94.7516 1307.23 63.228 1283.18 63.1677 1238.15C63.1677 1132.87 63.1677 1027.61 63.1677 922.365C63.1677 817.633 63.1677 712.931 63.1677 608.259C63.1677 563.865 96.0776 539.222 155.508 539.222H989.648C1050.28 539.222 1082.65 563.729 1082.65 609.482C1082.73 818.886 1082.73 1028.29 1082.65 1237.69Z"
          fill="black"/>
    <path d="M683.521 722.987C654.107 694.047 614.468 677.882 573.209 678.001C531.95 678.12 492.404 694.513 463.158 723.622C433.912 752.73 417.327 792.203 417.005 833.469C416.683 874.735 432.649 914.463 461.437 944.024C465.261 947.622 468.266 952 470.25 956.862C472.234 961.723 473.149 966.954 472.935 972.2C472.475 1016.02 471.613 1059.83 473.567 1103.59C475.222 1128.96 486.476 1152.75 505.041 1170.11C523.605 1187.48 548.085 1197.12 573.503 1197.08C598.921 1197.03 623.368 1187.31 641.872 1169.88C660.376 1152.45 671.548 1128.62 673.115 1103.25C674.495 1080.25 673.115 1057.25 673.115 1034.25H673.633C673.633 1014.12 674.207 993.994 673.633 973.925C673.185 968.338 673.985 962.721 675.973 957.48C677.962 952.239 681.089 947.506 685.131 943.622C713.976 914.05 729.988 874.287 729.686 832.973C729.385 791.66 712.795 752.134 683.521 722.987ZM635.114 908.086C627.654 913.537 621.739 920.834 617.95 929.262C614.16 937.69 612.626 946.958 613.498 956.157C614.475 976.916 613.498 997.789 613.498 1018.6C613.498 1041.61 613.498 1064.61 613.498 1087.61C613.153 1119.18 597.803 1137.52 572.508 1137.12C547.212 1136.71 533.069 1118.77 532.84 1088.47C532.84 1043.96 532.265 999.399 532.84 954.892C533.487 946.085 531.91 937.256 528.253 929.217C524.596 921.179 518.977 914.189 511.913 908.891C496.601 896.313 485.541 879.317 480.242 860.221C474.942 841.125 475.661 820.859 482.3 802.186C488.939 783.514 501.175 767.344 517.34 755.883C533.504 744.422 552.81 738.228 572.623 738.144C592.437 738.061 611.794 744.093 628.055 755.417C644.315 766.741 656.687 782.807 663.483 801.423C670.279 820.039 671.169 840.298 666.03 859.438C660.891 878.578 649.975 895.667 634.769 908.373L635.114 908.086Z"
          fill="black"/>
</svg>
