<svg xmlns="http://www.w3.org/2000/svg" viewBox="0 0 408.64 406.99"><defs><style>.cls-1{fill:#3e4b5a;}.cls-2{fill:#576574;}.cls-3{fill:#549ffe;}.cls-4{fill:#fdc957;}.cls-5{fill:#338cee;}.cls-6{fill:#303f49;}.cls-7{fill:#e4d1a2;}.cls-8{fill:#e3e9f7;}.cls-9{fill:#cbd1da;}.cls-10{fill:#fef5e8;}.cls-11{fill:#f8e3c6;}.cls-12{fill:#f3b437;}</style></defs><g id="Слой_2" data-name="Слой 2"><g id="Layer_1" data-name="Layer 1"><path class="cls-1" d="M10.11,406.39c-5.25.17-7.61-3.67-10.11-7.31V246.64l7.07-8.17c6.08-.22,12.17-.11,18.25,0a7.33,7.33,0,0,0,6.9-3.68c5.58-8.53,11.2-17,17-25.4.8-1.15,1.5-4.53,4.21-1.65,1,10,.5,20,.24,30a3.39,3.39,0,0,1-.72,1.82c-1.83,1.48-4,1.13-6.12,1.18-3.59.07-7.18-.08-10.76.06-5.82.22-9.35,3.56-10,9.34a52,52,0,0,0-.13,5.58q0,67.6-.06,135.21c0,5.32.6,10.06,5.13,13.51a2.26,2.26,0,0,1,.74,2.28C24.61,406.5,17.37,406.94,10.11,406.39Z"/><path class="cls-2" d="M10.11,406.39H31c-5-3.45-6.39-7.84-6.37-13.49.15-46.92.08-93.83.08-140.75,0-8.7,3.95-12.69,12.51-12.7l15.55,0c1.26-1.22,2.88-1.18,4.45-1.18,5.66,0,11.32-.14,17,.06q12.42-.24,24.84,0c2.25-.22,4.51-.11,6.76-.11h154.5a46.91,46.91,0,0,1,5.17.11c7-.13,14-.16,21,0,15.84-.35,31.68.25,47.52,0,7.25-.29,14.51.14,21.76-.34,7.94.51,15.9.08,23.84.26,5.44,0,10.89,0,16.34,0a13,13,0,0,1,6.16,1.31c5.58,4,6.56,9.5,6.53,16-.2,45.84-.1,91.69-.11,137.53,0,9.4-3.88,13.34-13.19,13.34l-61-.09c-1.93-2.14-1.26-4.79-1.29-7.25C333,389.33,329.7,386,319.81,386q-105.51,0-211,0c-.67,0-1.33,0-2,0q-10.68-.35-21.37,0c-6.31.21-9.83,4.08-10.06,10.38-.11,3,.38,6.07-.47,9.06a1.79,1.79,0,0,1-1,.95c-5.69,0-11.38.05-17.07.1-14.15.12-28.31.27-42.47.37C13,406.84,11.47,407.19,10.11,406.39Z"/><path class="cls-3" d="M286.47,239.27H265.55c-1.67-2.25-1.07-4.87-1.07-7.34q-.06-84.76,0-169.52c0-1.46,0-2.92,0-4.39-.17-4.27-.76-5-5-5.79-12.62-2.52-20-10-22.41-22.83-1.24-6.55-1.24-6.57-7.81-6.57-33.36,0-66.72,0-100.08,0-7.42-.27-14.84,0-22.25-.14-3.26-.08-4.29,1.34-4.54,4.47C101.38,39.67,93.48,49,82,51.52c-1.67.36-3.38.9-4.91-.44a3.43,3.43,0,0,1-.68-1.85c-.21-10.6-.81-21.24.24-31.79.92-9.14,5.77-14.48,13-16.1-5,1.17-10.14.57-15.21.62C73.12,2,71.74,1.91,70.82.7,78.73-.33,86.67.25,94.6.4c1.32,0,2.64.26,4,.26q82.26,0,164.51,0c1.19,0,2.38-.11,3.57-.17a23.93,23.93,0,0,1,6.49.31c7.12,1,13.32,8,14.27,16,.23,2,.07,4,.27,5.95.18,43.72.05,87.44.08,131.16q0,39.26,0,78.53C287.73,234.74,288.27,237.24,286.47,239.27Z"/><path class="cls-4" d="M355.78,238.63c-4,1.66-8.11.5-12.17.74-3,.18-6.1,0-9.15-.05a4.19,4.19,0,0,1-.91-1.22c-.74-2.34-.46-4.75-.46-7.13q0-84.74,0-169.46c0-1.6-.05-3.2,0-4.79.06-2.73-1.14-4.1-3.91-4.46a26.48,26.48,0,0,1-18.07-10.61,5.55,5.55,0,0,1-1.21-3.47c-.07-11.44,1.48-23-2.61-34.14-.41-1.13-1.07-2.53.39-3.57,10,.1,19.93-.37,29.89.25,11.22.66,18.19,8.38,18.21,20.42.05,25.89,0,51.77,0,77.66q0,35.83.11,71.68a17.29,17.29,0,0,1,1.31,7.36c0,18.13,0,36.27,0,54.4C357.15,234.43,357.62,236.8,355.78,238.63Z"/><path class="cls-5" d="M70.82.7H90.75C80.33,4.92,77.18,13.12,77.37,23.47c.16,9.17,0,18.35,0,27.53-2,2.63-1.87,5.7-1.87,8.77q0,86.19,0,172.37c0,2.46.6,5.12-1.43,7.21l-21.26.05q-.12-16.34-.25-32.66c-1.28-1.42-1.14-3.2-1.15-4.9,0-8.34,0-16.68,0-25a16.41,16.41,0,0,1,1.21-6.19c0-10.76.13-21.52.13-32.28q0-58.8,0-117.6c0-9.77,5-16.91,13.41-19.39A30.26,30.26,0,0,1,70.82.7Z"/><path class="cls-1" d="M106.09,384.75q108.29,0,216.56,0c7.09,0,11.66,4.62,11.68,11.66,0,3.32,0,6.65,0,10-1.52.75-3.14.36-4.7.36l-222.42,0c-9.83,0-19.66.12-29.49.14-1.28,0-2.67.43-3.84-.53a1.12,1.12,0,0,0,.59-.17c1.42-1.33,3.22-1.05,4.91-1.08,4.91-.06,9.82-.05,14.73,0,2.49,0,3.69-1,3.62-3.55,0-1.46.07-2.92,0-4.38C97.47,391,100.1,386.73,106.09,384.75Z"/><path class="cls-6" d="M355.78,238.63q.06-34.08.1-68.15c8.57,12.13,16.95,24.39,24.73,37.05a17.23,17.23,0,0,1,1.29,7.31c-.07,6.46,0,12.92-.06,19.37,0,2,.08,4-2,5.21-6.77,0-13.53,0-20.29,0C358.23,239.43,356.82,239.83,355.78,238.63Z"/><path class="cls-6" d="M52.57,170.62l0,36.12c-6.9,8.91-12.75,18.53-18.91,27.94-2.3,3.52-4.69,5.21-9,4.86-4.62-.38-9.3-.07-13.95-.1-1.28,0-2.71.39-3.65-1q15.92-24,31.86-47.91C43.4,183.87,48,177.27,52.57,170.62Z"/><path class="cls-1" d="M379.8,239.42c.93-1.42.81-3,.81-4.59q0-13.65,0-27.3l21.5,32Z"/><path class="cls-7" d="M337.54.72,307.16.93c-1.55,1.38-3.47,1.16-5.29,1.13-9.64-.15-19.29.61-28.89-.76L266.64.49C267.74-.19,269,0,270.13,0q32,0,64,.09C335.27.13,336.51-.16,337.54.72Z"/><path class="cls-8" d="M128.41,21.76q52.6-.06,105.21-.15c3,0,4.15,1,4.29,4.18.63,14.36,9.34,23.59,23.66,25.32,2.78.34,4,1.66,4,4.39,0,.66,0,1.33,0,2q0,90.89,0,181.79c-1.06.05-2.12.15-3.18.15h-161c-.8,0-1.59-.07-2.39-.11-1.46-1.5-1.25-3.43-1.26-5.27q0-88.45,0-176.93c0-5.52.83-6.39,6.18-7.35,12.22-2.18,19.79-10.36,20.91-22.68C125,24.59,125.29,22.24,128.41,21.76Z"/><path class="cls-9" d="M128.41,21.76c-1.83,1-2.4,2.46-2.38,4.57.1,13.16-10.65,24.14-23.15,24.73-3.83.19-4,2.39-4,5.34q.08,75.53,0,151,0,15.94,0,31.88l-24.91,0q0-91.42,0-182.84c0-2.47-.59-5.35,3.3-5.51a24.74,24.74,0,0,0,23.87-24.37c0-4.12,1.41-5.28,5.32-5.12C113.84,21.81,121.13,21.7,128.41,21.76Z"/><path class="cls-9" d="M334.28,238.65a2.66,2.66,0,0,1,.18.67l-48,0q0-106.29,0-212.58c0-1.72.08-3.45.13-5.17,1.66-1.49,3.72-1.1,5.65-1.12,3.69,0,7.38-.17,11.06.11,2.4.18,4.65,1,4.78,3.78.22,4.78,1.91,9.27,2.42,14l.72,2.26c1.43,2.57,1.24,5.38,1.24,8.17q0,90.15,0,180.29c0,9.19-.32,8.16,8.53,8.43C325.44,237.56,330.06,236.21,334.28,238.65Z"/><path class="cls-10" d="M303.21,279.29c19.13,0,38.25-.08,57.37,0,5.29,0,8.09,2.89,8.11,8.23q.1,26.1,0,52.21c0,5.33-2.85,8.24-8.11,8.25-19.13,0-38.25-.05-57.38-.1-4.23-.89-5.71-3.84-6-7.81-.61-9.36,0-10.05,9.32-10.05h34.28a16.18,16.18,0,0,0,5.14-.47,4.68,4.68,0,0,0,3.54-4.33c.16-2.31-1.1-3.72-3.13-4.56a16.77,16.77,0,0,0-6.66-.93c-11.83,0-23.65,0-35.47,0-6.38,0-9.3-4.84-6.55-10.64,1-2.11,2.93-2.1,4.77-2.13,6.11-.13,12.22-.05,18.33-.06h20.73a15.86,15.86,0,0,0,4.35-.33,4.44,4.44,0,0,0,3.66-4.17c.15-2.37-1.3-3.67-3.3-4.44a14.88,14.88,0,0,0-5.52-.56c-12.09,0-24.18,0-36.27,0-6.6,0-7.21-.73-7.28-7.35C297.12,285.21,297.63,280.84,303.21,279.29Z"/><path class="cls-11" d="M303.21,279.29c-6.22,3.66-4.85,9.71-4.67,15.29.07,2.19,2.18,1.51,3.49,1.51q20.54.07,41.06,0c2,0,3.94.11,5.69,1.36a5.37,5.37,0,0,1,2,6.69,5.83,5.83,0,0,1-5.81,4c-14.08-.09-28.17-.06-42.26,0-1.42,0-3.72-.95-4.08,1.21-.46,2.81-.94,5.86.37,8.56.52,1.09,2.21.55,3.36.55q19.55,0,39.07,0a18.73,18.73,0,0,1,5.09.71c3.37.95,4.92,3.12,4.48,6.48a5.85,5.85,0,0,1-6.2,5.54c-7,.1-14.08,0-21.13,0-7.31,0-14.62.09-21.92-.05-2.63-.05-3.47.84-3.41,3.43.11,5-.83,10.31,4.83,13.25-7.44.05-14.88.19-22.32.1-4.27-.06-7.15-3.09-7.17-7.44q-.09-26.92,0-53.86c0-4.32,2.75-7.27,7.19-7.39C288.33,279.09,295.77,279.27,303.21,279.29Z"/><path class="cls-6" d="M106.09,384.75c-.44.47-.79,1.11-1.33,1.4-4.43,2.44-6.06,6.09-5.9,11.15.28,8.91.08,8.92-8.85,8.92-5.17,0-10.33,0-15.5,0a53.81,53.81,0,0,1-.2-12.68c.32-4.78,5.3-8.7,10.7-8.77C92,384.66,99.07,384.74,106.09,384.75Z"/><path class="cls-12" d="M310.53,38.27a22,22,0,0,1-3.3-12.51c.13-3.16-1.24-4.26-4.26-4.21-5.45.09-10.9,0-16.35,0C286,10,282.26,4.48,273,1.31c4.31-1.13,8.7-.4,13.06-.47,7-.11,14.08,0,21.12.09a44.39,44.39,0,0,1,4,21.21C310.85,27.51,312,32.94,310.53,38.27Z"/><path class="cls-8" d="M334.28,238.65c-6.51,0-13-.11-19.53.07-2.8.08-3.63-.86-3.62-3.63.11-16.75.05-33.49.06-50.24l.06-144.32c5.46,6.17,11.84,10.55,20.47,10.76a2.57,2.57,0,0,1,2.66,2.87c0,.66,0,1.32,0,2V236.26C334.39,237.06,334.32,237.85,334.28,238.65Z"/><path class="cls-9" d="M169.53,202.75q28.11,0,56.21,0c5.54,0,8,2.15,8.09,6.48.06,3-1.35,4.64-4,5.61a14.49,14.49,0,0,1-5.09.64H115.07a16.8,16.8,0,0,1-4.71-.54c-3-.88-4.88-2.59-5-5.83-.15-3.41,2-5.06,4.86-5.93a14.76,14.76,0,0,1,4.31-.43Q142,202.73,169.53,202.75Z"/><path class="cls-9" d="M169.15,154.85H114.56a13.21,13.21,0,0,1-3.57-.15c-2.94-.86-5.46-2.4-5.62-5.87s1.81-5.29,5-6.18a14.52,14.52,0,0,1,3.91-.54q55.59,0,111.19,0c5.45,0,8.14,2,8.3,5.84.19,4.5-2.29,6.83-7.66,6.88-9.29.08-18.59,0-27.89,0Z"/><path class="cls-9" d="M169.52,124.52q-27.5,0-55,0a13.47,13.47,0,0,1-3.18-.09c-3.14-.78-5.77-2.34-6-6-.19-3.42,1.84-5.25,5-6.17a16.42,16.42,0,0,1,4.71-.52q54.39,0,108.79,0a23.07,23.07,0,0,1,5.87.79,4.84,4.84,0,0,1,4,4.73c.22,2.76-.4,5-3.08,6.28a13.85,13.85,0,0,1-5.83,1Q197.22,124.49,169.52,124.52Z"/><path class="cls-9" d="M169.9,172.43q27.9,0,55.78,0c5.19,0,7.82,2,8.14,5.62s-1.2,5.87-4.74,6.65a18.39,18.39,0,0,1-3.91.45q-55.18,0-110.38,0a14.28,14.28,0,0,1-5.81-1,5.76,5.76,0,0,1,.11-10.75,15.41,15.41,0,0,1,6.22-1Q142.61,172.47,169.9,172.43Z"/><path class="cls-9" d="M172.79,94.2c-9.84,0-19.67,0-29.51,0-3,0-5.36-1.14-6.49-3.75a6.2,6.2,0,0,1,1.09-6.74c1.83-2,4.47-2.16,7-2.23,4.65-.13,9.3,0,14,0q20.73,0,41.46,0a17.58,17.58,0,0,1,5.09.71c2.94.86,4.56,2.61,4.49,5.73s-1.63,5.26-4.81,5.9a20,20,0,0,1-3.93.4C191.66,94.21,182.22,94.2,172.79,94.2Z"/></g></g></svg>