<svg xmlns="http://www.w3.org/2000/svg" viewBox="0 0 356.62 383.33"><defs><style>.cls-1{fill:#fcb341;}.cls-2{fill:#fda513;}.cls-3{fill:#e9f5fe;}.cls-4{fill:#60b6fe;}.cls-5{fill:#d7ebfd;}.cls-6{fill:#f7bd58;}.cls-7{fill:#b2d9fd;}.cls-8{fill:#26a5fd;}.cls-9{fill:#81ade2;}.cls-10{fill:#82aee2;}</style></defs><g id="Слой_2" data-name="Слой 2"><g id="Layer_1" data-name="Layer 1"><path class="cls-1" d="M321.24,383.33H13c-3.78-1.12-7.72-1.73-10.07-5.67a16.56,16.56,0,0,1-2.8-8c0-1.37-.06-2.75-.06-4.12q0-102.65,0-205.3c0-4.42,0-8.73,3.61-12.1a12.21,12.21,0,0,1,8.65-3.78c7.72,0,15.45-.18,23.17.12,9.06-.62,18.1.33,27.16.45,4.09,0,8.18-.08,12.27-.26a170.8,170.8,0,0,1,25.58-1c1.81.06,3.78-.3,5.2,1.33.45,2.75-1.67,2.56-3.26,2.65-4,.24-7.94.07-11.79.08,2.4,4,4.74,8.14,6.82,12.36,3.18,6.48,6.85,12.7,10,19.2a5.24,5.24,0,0,0,5.26,3.33,90.57,90.57,0,0,0,10.8-.46c3,.27,6,1.43,9.08.53a16.89,16.89,0,0,1,1.87-.11q79.49-.08,159,0c8.21.08,16.42-.34,24.63.18,1.69.05,3.41-.31,5.09.23,4.66,3.13,9.4,6.17,10.59,12.32a23,23,0,0,1,.45,4.45q.09,84.06,0,168.13a19.13,19.13,0,0,1-.86,5.5C331.48,379.43,327.49,382.72,321.24,383.33Z"/><path class="cls-2" d="M322.68,184.15c6.1,0,12.21-.24,18.31-.09,9.38.24,15.46,6.56,15.48,16.05q.07,40,0,80c0,27.93-.23,55.85.13,83.77.12,9.55-3.06,16.12-12.18,19.42h-23.2c3.06-2.37,7.34-3.05,9-7.36a25.65,25.65,0,0,0,2.23-9.72q-.08-82.32.05-164.65c0-7.18-2.72-12.33-8.52-16.17A9.58,9.58,0,0,1,322.68,184.15Z"/><path class="cls-3" d="M293.69,183.75c-1.73.09-3.47.25-5.2.25q-75.72,0-151.42,0c-1.62,0-3.24.06-4.86.09a11.89,11.89,0,0,1-2-1.12c-3.59-4-5.12-9.07-7.57-13.66a2.47,2.47,0,0,1,1.19-3.51c2.56-.75,5.2-.5,7.8-.5q70.14,0,140.27,0a41.87,41.87,0,0,0,6.72-.21c2.35-.38,4.51-1.3,4.47-4.13s-2.09-3.75-4.52-4a47.72,47.72,0,0,0-5.61-.14H126a29.12,29.12,0,0,1-7.8-.55c-.6-.09-1.37,0-1.73-.49-3-3.79-6.8-6.75-10.52-9.78-7.53-.8-15.07-.29-22.61-.26-2.71,0-5.43.31-8.14-.17a2.8,2.8,0,0,1-1.06-1c-1.13-2.23-.74-4.64-.74-7,0-30,.22-60-.16-90.06-.13-10.07,2.39-17.84,12-22.25a25.74,25.74,0,0,1,7.42-.66q76.43,0,152.86,0c2.32,0,4.75-.41,6.93.9,1.78,2.48,1.68,5.38,1.69,8.21,0,13.57.38,27.16-.1,40.71a15.1,15.1,0,0,0,16,16.1c6.58-.31,13.19-.13,19.79,0,1.83,0,3.8-.21,5.19,1.48,1.13,1.78,1.05,3.81,1.05,5.79q.06,39.93,0,79.87C296,179.85,296.78,182.61,293.69,183.75Z"/><path class="cls-4" d="M74.91,145.29l.26.23c-8.46.72-16.93.22-25.4.22-4.85,0-9.71-.15-14.56-.24,0-43.66.18-87.32-.13-131C35,4.25,41.32,0,49.7,0c65.23.23,130.45.13,195.67.13,2.12,0,4.24.08,6.36.13,7.19,1.89,9.67,5.05,9.81,12.64.09,5.44.07,10.88,0,16.32a7.65,7.65,0,0,1-.63,4c-1.38,1.69-2.55.68-3.8-.24-2.27-1.69-3.45-4.15-4.8-6.5-1.73-.12-3.46-.35-5.19-.35q-76.76,0-153.52,0a30.49,30.49,0,0,0-8.13.82c-5.85,1.38-11.83.87-17.75,1.18-6.57.35-11.8,5.8-12.52,12.73a50.73,50.73,0,0,0-.12,5.23v89.74c0,.74,0,1.49,0,2.24.1,4.78.72,5.43,5.38,5.52,3.37.06,6.73,0,10.1.06C72.19,143.71,73.83,143.73,74.91,145.29Z"/><path class="cls-5" d="M293.69,183.75c.77-1.25.61-2.64.61-4l0-87.5A2.79,2.79,0,0,1,297,90.66c6.86,0,13.75-1,20.54.76,1.17,1.56.71,3.36.71,5.06q0,43.65,0,87.31C310.08,184.14,301.89,184.21,293.69,183.75Z"/><path class="cls-2" d="M105.92,146c6.17.12,8.61,4.75,11.17,9.24A13.46,13.46,0,0,1,123.2,167q4,7.89,8,15.78c-.25,2.05-1.85,1.05-2.8,1.08-1.77.06-3.59.38-5.35-.24-4.42,1.25-8.92.46-13.38.57-1.63,0-2.32-1.21-3-2.46q-7.56-14.4-15.12-28.79c-1.25-2.41-2.18-5-5.27-6l.39-.93Z"/><path class="cls-6" d="M123.05,183.57c2.7-.46,5.57.73,8.15-.84l1,1.38C129.15,184,126,184.89,123.05,183.57Z"/><path class="cls-7" d="M317.52,91.42c-2.29,1.44-4.84.67-7.26.73-5.33.14-10.66.08-16,.1-8.47,0-16.95,0-25.43-.06-9.86,0-16.47-6.6-16.49-16.35q-.06-24.69,0-49.39c3,1.94,5.05,4.89,7.63,7.28,1.9-.74,3,.55,4.17,1.65,5.65,5.53,11.18,11.18,16.81,16.73,1.39,1.36,1.9,3.15,2.8,4.75,1.53,2.62,4,4.43,6,6.54Q303.59,77.46,317.52,91.42Z"/><path class="cls-8" d="M283.71,56.86c-3.66-2.24-6.21-5.69-9.24-8.62-4.92-4.76-9.7-9.66-14.54-14.51,0-6.2-.39-12.43,0-18.61.43-6.89-2.09-11.76-8.19-14.86,6.84,0,13.69-.22,20.53-.08s11.4,5.25,11.43,12.61C283.75,27.48,283.71,42.17,283.71,56.86Z"/><path class="cls-8" d="M74.91,145.29c-6,0-12-.09-18,0-2.42,0-3.65-.54-3.65-3.3.07-33.68,0-67.36.12-101a14.9,14.9,0,0,1,15-14.62c5.68.05,11.42-.86,17,.63-7.2,3.19-10.41,8.78-10.4,16.58q.09,48.65,0,97.27C75.08,142.3,75,143.79,74.91,145.29Z"/><path class="cls-9" d="M196.27,128.3H117c-1.25,0-2.5,0-3.74-.05-3.19-.23-5.06-1.92-5.32-5.16a5.52,5.52,0,0,1,4.85-6.07,23.19,23.19,0,0,1,3.73-.13q80.22,0,160.45,0a16.35,16.35,0,0,1,4.09.24c3,.8,4.67,2.81,4.4,6a5.07,5.07,0,0,1-5,5c-1.24.12-2.49.08-3.74.08Z"/><path class="cls-10" d="M123.2,167q-3.06-5.88-6.11-11.76,80.79,0,161.6,0c4.38,0,6.74,2.14,6.78,5.78s-2.25,5.71-6.66,5.95c-1.24.07-2.49,0-3.74,0Z"/></g></g></svg>