<svg xmlns="http://www.w3.org/2000/svg" viewBox="0 0 292.14 266.02"><defs><style>.cls-1{fill:#f7cf76;}.cls-2{fill:#f5bd4e;}.cls-3{fill:#f2a64f;}.cls-4{fill:#fefefe;}.cls-5{fill:#c6effc;}.cls-6{fill:#9fe4fb;}</style></defs><g id="Слой_2" data-name="Слой 2"><g id="Layer_1" data-name="Layer 1"><path class="cls-1" d="M277.74,265.44c-1.55.88-3.25.49-4.88.49q-86.12,0-172.21,0H19c-11.62,0-19-7.38-19-19Q0,132.94,0,19C0,15.83.08,12.69,2,10a2.54,2.54,0,0,1,.2,2.61,26.35,26.35,0,0,0-.9,8.15q0,45.44,0,90.87c0,1.39,0,2.78-.05,4a18.56,18.56,0,0,1,12.06-9.83c3.33-.93,3.34-1,3.34-4.43q0-21.84,0-43.69a15.69,15.69,0,0,1,.12-3c.15-.73,0-1.78,1.32-1.67a3.66,3.66,0,0,1,.68,2.57c0,5,.14,10.07-.06,15.1.08,10.32,0,20.64,0,31,0,3.43.09,3.53,3.47,3.53q60,0,120,0a7.78,7.78,0,0,0,6-2.47c8.59-8.7,17.29-17.3,25.89-26,3.12-3.16,6.56-5.61,11-6.41a22.19,22.19,0,0,1,4.23-.22c21.38,0,42.76,0,64.14,0q8.87,0,17.72.12a5,5,0,0,1,2.91.47c1,1,.82,2.31.84,3.54,0,3.67,0,7.33,0,11q0,81.45,0,162.9c0,7.76-3.8,13-9.67,16.52a99.14,99.14,0,0,1,10.89,0A1.9,1.9,0,0,1,277.74,265.44Z"/><path class="cls-2" d="M18.09,53c-1.08.72-.59,1.83-.6,2.75q0,23.58,0,47.18c0,1.9-.26,2.91-2.45,3.29C8,107.44,3.39,111.74.51,118.36v-2.28q0-48.67,0-97.36C.45,15.64,1.56,12.88,2,10,5.27,3.57,10.59.13,17.62.09,46.24,0,74.87,0,103.49.06A17.43,17.43,0,0,1,116.22,5.5c9.34,9.38,18.73,18.71,28,28.12a5.55,5.55,0,0,0,4.36,1.82q54.29-.07,108.59,0c1,0,2,.05,3,.08,8.16.4,14.43,9,14.7,15.8,0,.81.4,1.67-.38,2.34a2.11,2.11,0,0,1-.86.15c-5.57-.13-11.13.07-16.69-.1-1.17.08-2.33.11-3.49.11q-115.17,0-230.33,0C21.44,53.77,19.63,54.2,18.09,53Z"/><path class="cls-2" d="M274.42,53.42h.14c1.07.87.84,2.1.85,3.23,0,3.48.09,7,0,10.46,0,2,.58,3,2.69,3.32,5.3.88,9.22,3.93,12,8.44a3.56,3.56,0,0,1,.76,2.79c-.08-9.18,0-18.35,0-27.53,0-1.29-.31-2.69.79-3.77.66.89.41,1.93.41,2.9q0,97.44,0,194.89c0,8.69-6.28,16.15-14.34,17.28H262.28a19.79,19.79,0,0,0,9.46-8,14.07,14.07,0,0,0,2.44-7.73q0-88.58,0-177.14c0-.58,0-1.17-.06-1.75a2.48,2.48,0,0,1-.52-.83,123.53,123.53,0,0,1-.16-14.78A1.71,1.71,0,0,1,274.42,53.42Z"/><path class="cls-3" d="M291.68,50.37V83.24c-1.08-1.89-1.83-3.45-2.79-4.86A16,16,0,0,0,276.58,71c-1.56-.13-1.95-.66-1.94-2.11,0-5.14-.05-10.29-.08-15.44-.26-1.62-.4-3.27-.81-4.85-1.86-7.09-6.79-11-13.55-13.09,6.19.07,12.44-.79,18.56.5C285.64,37.45,291.18,43.82,291.68,50.37Z"/><path class="cls-4" d="M184.78,70.92c-4.76,1.27-8.22,4.4-11.58,7.82-8.4,8.55-16.94,17-25.37,25.49a5.28,5.28,0,0,1-4.15,1.73q-61.41-.06-122.82,0c-2.18,0-3-.41-3-2.84C18,92.39,18,81.64,18,70.9c1.28-1.09,2.83-.82,4.3-.82q24.08,0,48.15,0,54.78,0,109.54,0C181.62,70.09,183.35,69.68,184.78,70.92Z"/><path class="cls-5" d="M184.78,70.92,18,70.9c-.08-6-.23-11.94.08-17.9H254.87c.75,0,1.49.09,2.24.14.81,3,.22,6.08.37,9.13.08,1.65,0,3.31,0,5s.72,2.38,2.39,2.38c3.64,0,7.28,0,10.92,0,1.15,0,2.35-.1,3.28.82a1,1,0,0,1,0,.41Z"/><path class="cls-6" d="M274.08,70.45c-5.05,0-10.1-.07-15.14,0-1.71,0-2.33-.49-2.28-2.25.1-4.3,0-8.61,0-12.92a3.65,3.65,0,0,1,.42-2.15c5.39,0,10.78-.1,16.17-.11a4,4,0,0,1,1.14.39q0,7.17-.11,14.35C274.3,68.66,274.16,69.56,274.08,70.45Z"/></g></g></svg>