<svg xmlns="http://www.w3.org/2000/svg" viewBox="0 0 383.28 383.2"><defs><style>.cls-1{fill:#e1b15f;}.cls-2{fill:#d89752;}.cls-3{fill:#d9e1ef;}.cls-4{fill:#e7ebf4;}.cls-5{fill:#eae1cf;}.cls-6{fill:#ded9d5;}</style></defs><g id="Слой_2" data-name="Слой 2"><g id="Слой_1-2" data-name="Слой 1"><path class="cls-1" d="M312.21,339.72c0,8.32,0,16.65-.15,25-.15,7.24-3.2,12.94-9.8,16.37a16.51,16.51,0,0,1-18-1.1,17.84,17.84,0,0,1-8-15.22c-.1-6.34-.09-12.67-.12-19,4.29-2.56,5-6.52,5-11.19-.17-20.19-.07-40.38-.07-60.57a33.54,33.54,0,0,0-.15-4.48c-.38-2.62-1.65-4.52-4.48-4.66s-4.12,1.9-4.75,4.38a15.42,15.42,0,0,0-.3,3.72c0,21.06.09,42.12-.08,63.18,0,4,1.81,6.81,4.17,9.59-5.14,12.78-18.84,14.86-27.39,8.7-6-4.29-7.6-10.47-7.59-17.39q0-43.39,0-86.78c0-2,.23-4-.89-5.82a7.66,7.66,0,0,0-11.88-1.82c-3.3,3-6.34,6.35-9.57,9.47-7.68,7.4-18.7,7.56-25.82.42s-6.93-18.11.63-25.77c9.2-9.31,18.74-18.3,27.65-27.88a72.47,72.47,0,0,0,19.79-47.6c.66-6,.1-12.06.31-18.09.05-1.32-.39-2.72.43-4,1.3-1,2.82-.93,4.31-.93q59.26,0,118.52,0c.38,0,.75.05,1.12.08,4.54-.18,9.08-.07,13.62-.07,1.6,0,3.22,0,4.52,1.18v.75c-3.2,2.1-6.79,1.05-10.2,1.14-6.56.17-6.57,0-6.57,6.62q0,82.59,0,165.19c0,4.56-.38,9-2.78,13-1.61,2.68-3.37,5.27-6.62,6.24-4.15-1.94-6.55-5.52-8.58-9.4-1.59.49-1,1.68-1,2.5-.06,5.85,0,11.7,0,17.54-.06,9.48-5.19,16.1-14,18.15-8.26,1.92-15.95-2.08-20.09-10.44l-.51-1c3.51-3.51,3.43-7.93,3.4-12.47-.1-20.07,0-40.13,0-60.2a17.36,17.36,0,0,0-.33-4.83,4,4,0,0,0-3.59-3.32,4.18,4.18,0,0,0-4.4,2.81,10.63,10.63,0,0,0-.6,4.41c0,21.56.11,43.12-.1,64.68C307.22,335.06,309.31,337.45,312.21,339.72Z"/><path class="cls-1" d="M71.25,43.4c0-6.84.4-13.69,0-20.5-.61-11.1,3.35-19,14.19-22.9H93c8.82,3.33,14.17,9.24,14.19,19.1,0,4.85,0,9.7,0,14.55,0,1.24.06,2.49.09,3.73-4.3,2.56-5,6.52-5,11.19.16,20.19.07,40.38.07,60.57a31.85,31.85,0,0,0,.15,4.48c.38,2.62,1.66,4.52,4.49,4.66s4.1-1.91,4.73-4.39a14.89,14.89,0,0,0,.3-3.71c0-21.07-.06-42.13.08-63.19,0-4-1.6-6.9-4.16-9.58,1.64-3.18,3-6.55,6.47-8.33,2-.41,3,1,4,2.24a20.56,20.56,0,0,1,4.24,13.24c-.08,28.42,0,56.83,0,85.25a24.79,24.79,0,0,0,.34,6c1.24,5.07,6.21,7.1,10.41,4,4.81-3.55,8.16-7.56,8-14.49-.41-26.29-.18-52.6-.14-78.89,0-2.06-.5-4.29,1.17-6,1,1.32.64,2.87.64,4.33q0,44.65-.16,89.31c0,3.65,1.23,6.42,4.5,7.88s6.44.61,9.16-2c3.91-3.82,7.36-8.13,11.9-11.29,6.63,3.67,9.5,13.85,6.13,21.73a21.22,21.22,0,0,1-4.72,6.65c-7.86,7.83-15.74,15.62-23.52,23.53-12,12.21-20.17,26.44-22.84,43.6-1.28,8.17-1,16.38-1.07,24.59,0,2.45,1.16,3.3,3.45,3.27,4,0,8-.07,12,0,2.55.06,3.6-1,3.55-3.55-.09-4.6-.1-9.21,0-13.82,0-1.47-.55-3.34,1.59-4q0,11.49,0,23a3.35,3.35,0,0,1-1.12.89c-6.88.94-13.79.3-20.69.4-10.07.26-20.15.09-30.22.1q-42.15,0-84.31,0c-2.19,0-4.54.47-6.37-1.35q0-58.72-.07-117.46,0-28.8,0-57.61c0-9.83,4.86-17,12.93-19.18,8.68-2.33,16,1.09,21.17,9.83a14.59,14.59,0,0,0,1,1.33c1.13-1.83.59-3.61.62-5.26.08-5,0-10,0-15C36,40.64,41.1,34,49.88,32,58.22,30,65.9,34,70,42.39c.16.34.33.67.49,1-3.38,3.4-3.41,7.67-3.39,12.1.1,20.18,0,40.37,0,60.56a17.35,17.35,0,0,0,.32,4.83,4.06,4.06,0,0,0,3.6,3.32,4.2,4.2,0,0,0,4.4-2.81,10.47,10.47,0,0,0,.59-4.41c0-21.55-.1-43.11.11-64.67C76.23,48.07,74.16,45.67,71.25,43.4Z"/><path class="cls-1" d="M241,56.86c2.22-6.62,6.49-10.39,12.54-10.4q51-.08,102.08.06c7.2,2,10.63,6.31,10.76,14.07.16,10,0,19.91.05,29.86,0,10.89,0,10.87,10.73,11,2.08,0,4.28-.4,6.1,1.11v.75a5.77,5.77,0,0,1-4.14,1.17c-4.65,0-9.3.12-13.95-.06-9.2.25-18.41.1-27.61.1q-45,0-90,0c-2.2,0-4.51.43-6.51-1a5.23,5.23,0,0,1-.36-2.92q0-20.55,0-41.1A5.66,5.66,0,0,1,241,56.86Z"/><path class="cls-2" d="M357.13,322.37c3.32-3.67,7-7.09,7.81-12.4a32.4,32.4,0,0,0,.37-5.18q0-84.89,0-169.76c0-4.82,0-4.82,4.87-4.82h13.09V310.53c-2.53,7.12-6.92,12.21-14.69,13.78A15.88,15.88,0,0,1,357.13,322.37Z"/><path class="cls-2" d="M383.28,102.51c-4.6,0-9.21-.26-13.77.07-3.62.26-4.31-1.16-4.26-4.43.18-11.29-.24-22.6.17-33.88.29-8.14-2-14.33-9.78-17.75,5.09,0,10.17-.22,15.25-.08,6.41.18,9.82,4.45,12.39,9.68Z"/><path class="cls-3" d="M365.31,103.31l18,0v26.19l-18,0a4.8,4.8,0,0,1-1.14-3.43q-.14-9.63,0-19.25A4.73,4.73,0,0,1,365.31,103.31Z"/><path class="cls-1" d="M111.71,336.59c-30.76,0-61.52-.28-92.28.26-14,.24-20.07-4.93-19.38-19.5C.64,304.92.22,292.44.24,280c1.13-1.23,2.64-1.33,4.14-1.33,38.9,0,77.8-.17,116.7.08,6.92.11,13.85-.56,20.75.38a3.51,3.51,0,0,1,1.12.9q0,21.41.08,42.79a4,4,0,0,1-.6,2.84c-1.58-1.47-1.21-3.44-1.22-5.25-.05-11.19,0-22.38,0-33.57,0-4.8-.27-5-5.06-5.07q-4.29,0-8.58,0c-4.72,0-5,.27-5,5.15q0,16.41,0,32.82c0,1.49,0,3-.06,4.48C122,330.9,118.3,335.19,111.71,336.59Z"/><path class="cls-4" d="M121.38,279.8l-72.16.1L.24,280V253.51l115.91.09c1.75,0,3.49.07,5.23.1a4.76,4.76,0,0,1,1.16,3.43q.13,9.62,0,19.24A4.76,4.76,0,0,1,121.38,279.8Z"/><path class="cls-2" d="M143,230.49c-1.36,5.26-.42,10.6-.6,15.9-.25,7.55,1,6.41-6.57,6.5-3.86.05-7.72-.07-11.58,0-2.07.06-2.8-.66-2.86-2.79-.39-15.61.17-31,6.78-45.62a76.1,76.1,0,0,1,11.56-18.15c9.15-10.71,19.61-20.15,29.45-30.19,7.8-8,8.09-17.64.62-25.88-.49-.54-.89-1.17-1.34-1.77,7.46-5.39,17.18-4.2,23.48,2.86a17.67,17.67,0,0,1-.52,24.09c-8.67,9-17.61,17.62-26.36,26.48C151.72,195.42,144.6,211.72,143,230.49Z"/><path class="cls-2" d="M142.38,40.34q0,44.67-.06,89.35c0,5.86-9.81,14.14-14.85,12.6-4.23-1.29-6.06-3.85-6.07-8.66q0-24.3,0-48.61c0-14.2.06-28.41,0-42.62a16.12,16.12,0,0,0-7-13.32c5.12-4.55,11.11-4.79,17-2.53C137.57,28.89,141.55,33.5,142.38,40.34Z"/><path class="cls-2" d="M111.71,336.59c6.84-3.06,10.09-8,9.8-15.82-.45-12.2,0-24.43-.18-36.65,0-2.83.85-3.69,3.63-3.57,4.6.2,9.23.21,13.83,0,2.81-.13,3.62.79,3.6,3.59-.1,13.84,0,27.67,0,41.51-1,6.34-5.85,10.89-12.1,11S117.92,336.63,111.71,336.59Z"/><path class="cls-2" d="M107.92,37.41c3.82.64,5.16,3.47,5.17,6.74q.16,34.39,0,68.79c0,4.2-2.44,6.76-5.91,6.78-3.8,0-6-2.46-6-6.93q0-33.84,0-67.67c0-5.28,1.33-6.9,6-7.74C107.47,37.4,107.69,37.41,107.92,37.41Z"/><path class="cls-2" d="M275.53,345.7c-3.81-1.1-5.24-3.81-5.24-7.57q0-33.63,0-67.26c0-4.74,2.28-7.48,6-7.48,3.88,0,6,2.54,6,7.34q0,33.45,0,66.89c0,5.62-1.24,7.25-6,8.11Z"/><path class="cls-2" d="M71.25,43.4c5.31,1.5,6,2.36,6,7.76q0,33.45,0,66.88a9.19,9.19,0,0,1-.44,4c-1.26,2.73-3.48,4.09-6.31,3.52s-4.5-2.67-4.5-5.92c0-23.16.1-46.33,0-69.49,0-3.64,1.56-5.54,4.58-6.8A6.09,6.09,0,0,0,71.25,43.4Z"/><path class="cls-2" d="M312.21,339.72c-5.33-1.52-6-2.37-6-7.76q0-33.45,0-66.89c0-.63,0-1.25,0-1.87.25-3.55,2.65-5.85,6-5.8,3,.05,5.18,2.52,5.19,6,0,22.92-.08,45.84.1,68.76,0,3.81-1.14,6.2-4.61,7.54h-.71Z"/><path class="cls-5" d="M241,56.86l.1,46.35a59.81,59.81,0,0,1,0,26.29c0,5.93,0,11.86-.1,17.78,0,1.33.32,2.74-.57,3.95q-.06-44.1-.09-88.2C240.36,61,239.68,58.79,241,56.86Z"/><path class="cls-6" d="M143,280a4.24,4.24,0,0,1-.61-.17,4.9,4.9,0,0,1-1.15-3.45q-.15-9.64,0-19.3a4.91,4.91,0,0,1,1.15-3.44,4.27,4.27,0,0,1,.61-.18Z"/><path class="cls-4" d="M241.12,129.5V103.21H362c1.12,0,2.24.06,3.36.1v26.1l-76.31.1Q265.06,129.53,241.12,129.5Z"/><path class="cls-2" d="M342.12,281.38c0-8.08,0-16.17,0-24.25,0-4.74,1.58-6.5,5.68-6.47,3.72,0,5.54,2,5.54,6.32q0,24.43,0,48.88c0,4.53-1.63,6.15-6,6.16-3.7,0-5.22-1.68-5.24-6C342.09,297.8,342.12,289.59,342.12,281.38Z"/><path class="cls-2" d="M41.33,101.92q0,11.94,0,23.88c0,4.85-1.48,6.6-5.5,6.65s-5.72-2-5.73-6.51q0-24.25,0-48.51c0-4.66,1.52-6.28,5.79-6.34,3.9,0,5.4,1.62,5.42,6.2C41.35,85.5,41.33,93.71,41.33,101.92Z"/><path class="cls-3" d="M142.34,253.66v26.19l-21-.05V253.7Z"/></g></g></svg>