<svg xmlns="http://www.w3.org/2000/svg" xmlns:xlink="http://www.w3.org/1999/xlink" viewBox="0 0 85.44 132.82">
    <defs>
        <style>
            .cls-1{isolation:isolate;}.cls-2{opacity:0.2;}.cls-3{opacity:0;}.cls-4{opacity:0.09;}.cls-5{opacity:0.18;}.cls-6{opacity:0.27;}.cls-7{opacity:0.36;}.cls-8{opacity:0.45;}.cls-9{opacity:0.55;}.cls-10{opacity:0.64;}.cls-11{opacity:0.73;}.cls-12{opacity:0.82;}.cls-13{opacity:0.91;}.cls-14{fill:url(#New_Gradient_Swatch_copy_36);}.cls-15{fill:url(#New_Gradient_Swatch_copy_23);}.cls-16{fill:url(#New_Gradient_Swatch_copy_23-2);}.cls-17{fill:url(#New_Gradient_Swatch_copy_34);}.cls-18{fill:url(#linear-gradient);}.cls-19{fill:url(#New_Gradient_Swatch_copy_23-3);}.cls-20{opacity:0.7;fill:url(#New_Gradient_Swatch_copy_26);}.cls-21{mix-blend-mode:multiply;fill:url(#radial-gradient);}.cls-22{fill:url(#New_Gradient_Swatch_copy_23-4);}.cls-23{fill:url(#New_Gradient_Swatch_copy_34-2);}.cls-24,.cls-27{mix-blend-mode:screen;}.cls-24{fill:url(#Radial_Gradient_1);}.cls-25{fill:url(#New_Gradient_Swatch_copy_36-2);}.cls-26{fill:url(#New_Gradient_Swatch_copy_36-3);}.cls-27{opacity:0.5;fill:url(#White_Black_Radial);}.cls-28,.cls-29,.cls-30,.cls-31{mix-blend-mode:color-dodge;}.cls-28{fill:url(#radial-gradient-2);}.cls-29{fill:url(#radial-gradient-3);}.cls-30{fill:url(#radial-gradient-4);}.cls-31{fill:url(#radial-gradient-5);}
        </style>
        <linearGradient id="New_Gradient_Swatch_copy_36" x1="72.02" y1="125.3" x2="81.91" y2="125.3"
                        gradientUnits="userSpaceOnUse">
            <stop offset="0.1" stop-color="#45108a"/>
            <stop offset="1" stop-color="#7c1dc9"/>
        </linearGradient>
        <linearGradient id="New_Gradient_Swatch_copy_23" x1="1087.88" y1="448.74" x2="1099.85" y2="448.74"
                        gradientTransform="translate(-1109.34 229.99) rotate(-28.32)" gradientUnits="userSpaceOnUse">
            <stop offset="0.01" stop-color="#c1a1d5"/>
            <stop offset="0.05" stop-color="#c8abda"/>
            <stop offset="0.11" stop-color="#dac6e6"/>
            <stop offset="0.2" stop-color="#f7f2f9"/>
            <stop offset="0.22" stop-color="#fff"/>
            <stop offset="0.25" stop-color="#f9f5fb"/>
            <stop offset="0.3" stop-color="#e9dbf2"/>
            <stop offset="0.36" stop-color="#d1b4e3"/>
            <stop offset="0.43" stop-color="#b395d6"/>
            <stop offset="0.49" stop-color="#9c7dcb"/>
            <stop offset="0.56" stop-color="#8e6ec5"/>
            <stop offset="0.61" stop-color="#8969c3"/>
            <stop offset="0.76" stop-color="#9471c6"/>
            <stop offset="1" stop-color="#b086cc"/>
        </linearGradient>
        <linearGradient id="New_Gradient_Swatch_copy_23-2" x1="1087.82" y1="448.74" x2="1099.99" y2="448.74"
                        xlink:href="#New_Gradient_Swatch_copy_23"/>
        <linearGradient id="New_Gradient_Swatch_copy_34" x1="43.16" y1="83.97" x2="65.33" y2="85.48"
                        gradientUnits="userSpaceOnUse">
            <stop offset="0" stop-color="#9f79c8"/>
            <stop offset="0.14" stop-color="#a27dca"/>
            <stop offset="0.27" stop-color="#ac88cf"/>
            <stop offset="0.4" stop-color="#bc9bd7"/>
            <stop offset="0.52" stop-color="#d1b4e3"/>
            <stop offset="0.65" stop-color="#dbc4e9"/>
            <stop offset="0.9" stop-color="#f4edf8"/>
            <stop offset="1" stop-color="#fff"/>
        </linearGradient>
        <linearGradient id="linear-gradient" x1="1090.32" y1="420.17" x2="1097.44" y2="420.17"
                        gradientTransform="translate(-1109.34 229.99) rotate(-28.32)" gradientUnits="userSpaceOnUse">
            <stop offset="0.1" stop-color="#45108a"/>
            <stop offset="0.31" stop-color="#7c1dc9"/>
            <stop offset="0.52" stop-color="#5d16a5"/>
            <stop offset="0.67" stop-color="#45108a"/>
            <stop offset="0.89" stop-color="#56149d"/>
        </linearGradient>
        <linearGradient id="New_Gradient_Swatch_copy_23-3" x1="2.55" y1="16.16" x2="49.14" y2="99.09"
                        gradientTransform="matrix(1, 0, 0, 1, 0, 0)" xlink:href="#New_Gradient_Swatch_copy_23"/>
        <linearGradient id="New_Gradient_Swatch_copy_26" x1="33.06" y1="105.86" x2="29.83" y2="22.78"
                        gradientTransform="translate(25.65 -9.63) rotate(30.31)" gradientUnits="userSpaceOnUse">
            <stop offset="0.03" stop-color="#7c1dc9"/>
            <stop offset="0.21" stop-color="#6e41d2"/>
            <stop offset="0.62" stop-color="#4c9be8"/>
            <stop offset="1" stop-color="#2af6ff"/>
        </linearGradient>
        <radialGradient id="radial-gradient" cx="40.05" cy="37.7" r="54.17"
                        gradientTransform="translate(25.65 -9.63) rotate(30.31)" gradientUnits="userSpaceOnUse">
            <stop offset="0.48" stop-color="#fff"/>
            <stop offset="1" stop-color="#8770b8"/>
        </radialGradient>
        <linearGradient id="New_Gradient_Swatch_copy_23-4" x1="22.76" y1="1.66" x2="59.64" y2="72.25"
                        gradientTransform="matrix(1, 0, 0, 1, 0, 0)" xlink:href="#New_Gradient_Swatch_copy_23"/>
        <linearGradient id="New_Gradient_Swatch_copy_34-2" x1="-29.19" y1="28.85" x2="78.29" y2="55.88"
                        xlink:href="#New_Gradient_Swatch_copy_34"/>
        <radialGradient id="Radial_Gradient_1" cx="42.6" cy="19.77" r="31.54" gradientUnits="userSpaceOnUse">
            <stop offset="0" stop-color="#fff"/>
            <stop offset="1"/>
        </radialGradient>
        <linearGradient id="New_Gradient_Swatch_copy_36-2" x1="38.67" y1="64.47" x2="8.34" y2="-4.54"
                        xlink:href="#New_Gradient_Swatch_copy_36"/>
        <linearGradient id="New_Gradient_Swatch_copy_36-3" x1="43.96" y1="62.15" x2="13.63" y2="-6.86"
                        xlink:href="#New_Gradient_Swatch_copy_36"/>
        <radialGradient id="White_Black_Radial" cx="23.81" cy="26.65" r="21.6" xlink:href="#Radial_Gradient_1"/>
        <radialGradient id="radial-gradient-2" cx="23.87" cy="69.94" r="7.28"
                        gradientTransform="translate(56.13 3.74) rotate(45)" gradientUnits="userSpaceOnUse">
            <stop offset="0" stop-color="#364f87"/>
            <stop offset="0.15" stop-color="#263860"/>
            <stop offset="0.31" stop-color="#19243d"/>
            <stop offset="0.48" stop-color="#0e1422"/>
            <stop offset="0.65" stop-color="#06090f"/>
            <stop offset="0.82" stop-color="#020204"/>
            <stop offset="1"/>
        </radialGradient>
        <radialGradient id="radial-gradient-3" cx="58.71" cy="62.02" r="7.28"
                        gradientTransform="translate(60.73 -23.21) rotate(45)" xlink:href="#radial-gradient-2"/>
        <radialGradient id="radial-gradient-4" cx="40.38" cy="15.64" r="7.28"
                        gradientTransform="matrix(1, 0, 0, 1, 0, 0)" xlink:href="#radial-gradient-2"/>
        <radialGradient id="radial-gradient-5" cx="23.91" cy="23.47" r="16.63"
                        gradientTransform="translate(40.05 -5) rotate(76.85)" gradientUnits="userSpaceOnUse">
            <stop offset="0.01" stop-color="#a56ef4"/>
            <stop offset="0.12" stop-color="#8055bd"/>
            <stop offset="0.24" stop-color="#5e3f8b"/>
            <stop offset="0.36" stop-color="#412b60"/>
            <stop offset="0.49" stop-color="#2a1c3e"/>
            <stop offset="0.61" stop-color="#171023"/>
            <stop offset="0.74" stop-color="#0a070f"/>
            <stop offset="0.87" stop-color="#030204"/>
            <stop offset="1"/>
        </radialGradient>
    </defs>
    <g class="cls-1">
        <g id="Слой_2" data-name="Слой 2">
            <g id="Layer_1" data-name="Layer 1">
                <g class="cls-2">
                    <path class="cls-3"
                          d="M77.87,132.82a7.93,7.93,0,0,1-4-.95L54.58,123.3l-19.34-8.57C33.79,113.89,13,104.47,13,103s18.79-6.3,20.53-7.31l2.18-.89C37,94,48.22,100.92,49.3,101.54l16.94,10.87,16.93,10.86a4.2,4.2,0,0,1,2.27,3.62,4.88,4.88,0,0,1-2.73,4.1S79.6,132.82,77.87,132.82Z"/>
                    <path class="cls-4"
                          d="M16.76,104.22c0-.33,1-.86,2.34-1.41,2.57-1,6.79-2.23,10.35-3.25,3.14-.9,6-1.6,6.55-1.93l2-.78c1.24-.71,11.78,5.81,12.77,6.38l5.13,3.3,10.75,6.91,14.06,9,1.83,1.18A4,4,0,0,1,84.75,127a4.35,4.35,0,0,1-2.45,3.85s-2.91,1.69-4.57,1.71a7.58,7.58,0,0,1-3.74-.88l-18.22-8.16L47.88,120l-10.34-4.62c-.85-.5-9.78-4.64-15.49-7.6C18.93,106.15,16.72,104.74,16.76,104.22Z"/>
                    <path class="cls-5"
                          d="M20.56,105.43c0-.3,1-.82,2.19-1.32,2.42-1,6.39-2,9.67-2.94,2.84-.78,5.57-1.31,6.09-1.61l1.9-.66c1.12-.64,11,5.51,11.9,6L57.1,108l10.05,6.46,13.13,8.45L82,124a3.9,3.9,0,0,1,2.07,3.11,3.86,3.86,0,0,1-2.17,3.59s-2.72,1.56-4.32,1.59a6.93,6.93,0,0,1-3.51-.8L57,123.77l-7.4-3.35L39.85,116c-.77-.45-9.42-4.52-14.56-7.19C22.4,107.33,20.37,106,20.56,105.43Z"/>
                    <path class="cls-6"
                          d="M24.36,106.65c0-.27.93-.79,2-1.24a83.87,83.87,0,0,1,9-2.63c2.53-.66,5.17-1,5.64-1.28l1.75-.54c1-.58,10.25,5.2,11,5.65l4.46,2.87,9.34,6,12.2,7.86,1.6,1a3.74,3.74,0,0,1,2,2.86,3.4,3.4,0,0,1-1.89,3.34,12.12,12.12,0,0,1-4,1.46,6.34,6.34,0,0,1-3.3-.72l-16-7.33-6.92-3.16-9.07-4.16c-.69-.4-9.06-4.39-13.62-6.77C25.86,108.51,24.07,107.18,24.36,106.65Z"/>
                    <path class="cls-7"
                          d="M28.16,107.86c0-.23.92-.75,1.88-1.15a67.85,67.85,0,0,1,8.32-2.32c2.22-.54,4.77-.72,5.18-1l1.61-.42c.86-.5,9.48,4.9,10.17,5.29L59.43,111l8.64,5.58,11.27,7.28,1.48.94a3.71,3.71,0,0,1,1.88,2.61,2.94,2.94,0,0,1-1.61,3.08,11.79,11.79,0,0,1-3.8,1.35,5.91,5.91,0,0,1-3.07-.65l-14.88-6.91-6.44-3-8.44-3.92c-.6-.35-8.69-4.27-12.67-6.36C29.33,109.68,27.78,108.41,28.16,107.86Z"/>
                    <path class="cls-8"
                          d="M32,109.07c0-.2.9-.72,1.72-1.06a51.49,51.49,0,0,1,7.65-2c1.92-.43,4.37-.43,4.72-.63l1.46-.31c.75-.43,8.72,4.6,9.31,4.94l3.78,2.44,7.93,5.13,10.34,6.7,1.36.86A3.62,3.62,0,0,1,82,127.49a2.51,2.51,0,0,1-1.32,2.83,11,11,0,0,1-3.54,1.22,5.45,5.45,0,0,1-2.86-.57l-13.76-6.5-6-2.8L46.77,118c-.51-.3-8.32-4.15-11.74-5.94C32.79,110.86,31.48,109.63,32,109.07Z"/>
                    <path class="cls-9"
                          d="M35.77,110.29c0-.17.87-.69,1.56-1a39.06,39.06,0,0,1,7-1.7c1.61-.32,4-.14,4.26-.31l1.32-.19c.62-.35,8,4.29,8.45,4.58l3.44,2.23L69,118.61l9.42,6.11,1.24.79a3.53,3.53,0,0,1,1.68,2.1,2.08,2.08,0,0,1-1,2.57,10.4,10.4,0,0,1-3.28,1.1,4.91,4.91,0,0,1-2.63-.49l-12.65-6.08-5.47-2.63-7.17-3.45c-.43-.25-8-4-10.8-5.53C36.25,112,35.18,110.85,35.77,110.29Z"/>
                    <path class="cls-10"
                          d="M39.57,111.5a4.27,4.27,0,0,1,1.4-.89,29.84,29.84,0,0,1,6.3-1.39c1.29-.22,3.57.15,3.81,0l1.17-.07c.5-.29,7.19,4,7.58,4.21l3.1,2,6.51,4.24,8.48,5.53,1.14.71a3.63,3.63,0,0,1,1.58,1.85,1.74,1.74,0,0,1-.76,2.32,10.33,10.33,0,0,1-3,1,4.56,4.56,0,0,1-2.42-.42l-11.53-5.67-5-2.44-6.55-3.22c-.34-.19-7.58-3.91-9.86-5.11C39.72,113.21,38.89,112.08,39.57,111.5Z"/>
                    <path class="cls-11"
                          d="M43.37,112.71a4.63,4.63,0,0,1,1.25-.8c1.54-.69,4.08-.33,5.62-1.08.88-.44,3.17.44,3.35.34l1,0c.37-.21,6.42,3.68,6.72,3.85l2.76,1.81,5.8,3.8,7.55,4.94,1,.63a3.76,3.76,0,0,1,1.48,1.6c.38.81.38,1.56-.48,2.06a9.86,9.86,0,0,1-2.75.86,4,4,0,0,1-2.2-.34L64.1,125.18l-4.5-2.27-5.91-3c-.26-.14-7.22-3.79-8.92-4.7S42.59,113.3,43.37,112.71Z"/>
                    <path class="cls-12"
                          d="M47.17,113.93a5.07,5.07,0,0,1,1.1-.72,9.75,9.75,0,0,1,4.94-.77c.63-.19,2.77.74,2.89.67l.89.16c.24-.14,5.65,3.38,5.85,3.49l2.43,1.6,5.09,3.35L77,126.07l.9.55A4.28,4.28,0,0,1,79.27,128c.44.71.55,1.37-.2,1.81a9.8,9.8,0,0,1-2.5.73,3.53,3.53,0,0,1-2-.26l-9.3-4.84-4-2.08L56,120.58l-8-4.28C46.65,115.57,46.3,114.52,47.17,113.93Z"/>
                    <path class="cls-13"
                          d="M51,115.14a8.94,8.94,0,0,1,.94-.63,6.6,6.6,0,0,1,4.27-.46,14.55,14.55,0,0,1,2.43,1l.74.29c.13-.08,4.9,3.07,5,3.12l2.09,1.39,4.38,2.9,5.7,3.78c.17.1.56.33.78.48a5.14,5.14,0,0,1,1.29,1.09c.5.6.72,1.18.08,1.55a10.37,10.37,0,0,1-2.23.62,3.14,3.14,0,0,1-1.76-.19l-8.19-4.42L63,123.74l-4.64-2.5-7.05-3.88C50.11,116.74,50,115.75,51,115.14Z"/>
                    <path d="M59.15,115.66l8.45,5.66L76,127c.92.54,3.28,1.92,2.22,2.54,0,0-2.59.91-3.52.38l-10.11-5.73-10.12-5.73c-.92-.53-.81-1.46.26-2.08l.79-.55A4,4,0,0,1,59.15,115.66Z"/>
                </g>
                <path class="cls-14" d="M81.32,123a4.95,4.95,0,1,1-6.7-2A5,5,0,0,1,81.32,123Z"/>
                <path class="cls-15"
                      d="M60.38,81.87,49.67,87.64l21.26,39.45h0l0,0c.93,1.73,4.08,1.83,7,.24s4.6-4.28,3.67-6a.05.05,0,0,1,0,0h0Z"/>
                <path class="cls-16"
                      d="M60.38,81.87,49.67,87.64l21.26,39.45h0l0,0c.93,1.73,4.08,1.83,7,.24s4.6-4.28,3.67-6a.05.05,0,0,1,0,0h0Z"/>
                <path class="cls-17"
                      d="M60.39,81.89c.93,1.73-.71,4.41-3.67,6s-6.11,1.49-7-.24.72-4.41,3.68-6S59.46,80.17,60.39,81.89Z"/>
                <path class="cls-18"
                      d="M53.37,74.06,47,77.49l4.53,8.4h0v0c.55,1,2.43,1.08,4.19.14s2.73-2.55,2.18-3.57v0h0Z"/>
                <path class="cls-19"
                      d="M34.68,73.71C18.55,64.4,5.48,41.86,5.48,23.35c0-7.43,2.11-13.08,5.68-16.58C4.36,9,0,16,0,26.68,0,45.18,13.07,67.73,29.2,77c9.65,5.57,18.2,5.14,23.52-.07C47.75,78.59,41.49,77.64,34.68,73.71Z"/>
                <ellipse class="cls-20" cx="30.6" cy="42.53" rx="22.49" ry="38.96"
                         transform="translate(-17.28 21.26) rotate(-30.31)"/>
                <ellipse class="cls-21" cx="30.6" cy="42.53" rx="22.49" ry="38.96"
                         transform="translate(-17.28 21.26) rotate(-30.31)"/>
                <path class="cls-22"
                      d="M35.39,6.5C27.46,1.92,20.27,1.4,15,4.25c-.15.07-7.7,4.29-7.94,4.65,5.35-4,13.28-4,22.13,1.13,16.12,9.31,29.2,31.86,29.2,50.36,0,9.45-3.41,16-8.89,18.94a6.52,6.52,0,0,0,1.43-.63l5.46-3.3c5.07-3.1,8.19-9.5,8.19-18.54C64.59,38.36,51.51,15.81,35.39,6.5Z"/>
                <path class="cls-23"
                      d="M29.2,10C13.07.72,0,8.18,0,26.68S13.07,67.73,29.2,77,58.4,78.9,58.4,60.39,45.32,19.34,29.2,10ZM29,74.82C14.11,66.23,2,45.41,2,28.33S14.11,4.36,29,13,56,42.37,56,59.45,43.88,83.42,29,74.82Z"/>
                <path class="cls-24"
                      d="M30.6,9.33c-7.73-4.46-14.75-5.06-20-2.45,4.87-1.36,12-.63,18.58,3.15,16.12,9.31,29.2,31.86,29.2,50.36,0,9.64-4.67,16.55-10.35,19.38,7.13-2,11.75-9.08,11.75-20.08C59.8,41.19,46.72,18.64,30.6,9.33Z"/>
                <path class="cls-25"
                      d="M47.64,46.74c-.34-.59-.89-.9-1.22-.71l-2.75,1.56c-1.28.74-3,.56-4.81-.49l-.39-.22c.06-.9.1-1.84.1-2.81L22.51,34.8c0,1,0,2,.09,2.92l-.39-.23a13.84,13.84,0,0,1-4.81-5.06l-2.74-4.74c-.34-.58-.89-.9-1.23-.71s-.34.83,0,1.41l2.74,4.73a17.36,17.36,0,0,0,6,6.36l.58.34c.11,1,.24,1.91.41,2.85l-5.25-3c-.48-.28-.87-.06-.87.49a1.92,1.92,0,0,0,.87,1.5l5.69,3.29c.26,1.12.55,2.21.88,3.24-2.75-.86-5.09.06-6.11,2.59l-1.06,2.64A1.67,1.67,0,0,0,17.86,55a1.36,1.36,0,0,0,.31.24c.35.2.68.15.81-.18L20,52.39c.86-2.15,2.92-2.84,5.3-1.91,1.4,3.54,3.21,6.24,5.2,7.38s3.79.54,5.19-1.38a15.76,15.76,0,0,1,5.3,8l1.06,3.87a1.92,1.92,0,0,0,.82,1.12,1.21,1.21,0,0,0,.3.11c.45.06.68-.38.51-1l-1.06-3.87a20.07,20.07,0,0,0-6.11-9.63,15.16,15.16,0,0,0,.88-2.24l5.69,3.29c.48.28.87.06.87-.49a1.92,1.92,0,0,0-.87-1.5l-5.24-3c.16-.75.29-1.54.4-2.38l.58.33c2.28,1.32,4.43,1.54,6,.62l2.74-1.56C48,48,48,47.32,47.64,46.74Z"/>
                <path class="cls-26"
                      d="M23.43,23.87a7.15,7.15,0,0,1,3.34,4.68L27,29.81c-2,.22-3.33,2-3.33,4.8l13.67,7.9a14.81,14.81,0,0,0-3.32-8.65l.25-1c.4-1.48,1.8-1.83,3.34-.82.49.32.89.13.92-.4a1.92,1.92,0,0,0-.81-1.53c-2.36-1.54-4.51-1-5.12,1.27l-.19.71a11.25,11.25,0,0,0-1.9-1.41,7.47,7.47,0,0,0-1.9-.79l-.2-.92a11,11,0,0,0-5.12-7.19c-.48-.24-.84,0-.81.59A1.87,1.87,0,0,0,23.43,23.87Z"/>
                <path class="cls-27"
                      d="M26.74,32.92A90.3,90.3,0,0,1,42.23,20.48,48.94,48.94,0,0,0,30.6,10.82C15.34,2,3,9.07,3,26.58c0,8.8,3.13,18.58,8.18,27.24A89.08,89.08,0,0,1,26.74,32.92Z"/>
                <circle class="cls-28" cx="23.55" cy="69.63" r="9.96" transform="translate(-42.34 37.04) rotate(-45)"/>
                <circle class="cls-29" cx="58.39" cy="61.71" r="9.96" transform="translate(-26.53 59.36) rotate(-45)"/>
                <circle class="cls-30" cx="40.06" cy="15.32" r="9.96"/>
                <circle class="cls-31" cx="23.18" cy="22.74" r="22.74"
                        transform="translate(-4.25 40.14) rotate(-76.85)"/>
            </g>
        </g>
    </g>
</svg>