<svg xmlns="http://www.w3.org/2000/svg" viewBox="0 0 137.68 137.55"><defs><style>.cls-1{fill:#2e437a;}.cls-2{fill:#405390;}.cls-3{fill:#2a645d;}.cls-4{fill:#448a76;}.cls-5{fill:#415392;}.cls-6{fill:#578ec4;}.cls-7{fill:#f1d874;}.cls-8{fill:#83b8de;}.cls-9{fill:#83b9de;}.cls-10{fill:#478e79;}.cls-11{fill:#458c77;}.cls-12{fill:#578fc5;}.cls-13{fill:#8fa4c1;}.cls-14{fill:#eb945c;}.cls-15{fill:#eb955d;}.cls-16{fill:#325fa4;}.cls-17{fill:#ccd3de;}.cls-18{fill:#e0e6ea;}.cls-19{fill:#f3efec;}.cls-20{fill:#eeeae9;}.cls-21{fill:#22326e;}.cls-22{fill:#122463;}</style></defs><g id="Слой_2" data-name="Слой 2"><g id="Слой_1-2" data-name="Слой 1"><path class="cls-1" d="M40.91,6.09C46.1,2.85,52,1.57,57.87.82,72.08-1,86.05-.21,99,7c1.08,2,3.26,2.85,5,4,4,2.58,5.46,5.66,3.38,9.76.17,1.92,1.56,2.9,1.94,4.41.74,1.61-.65,3.17-.16,5.17,5.52,2.25,11.18,4.78,11.41,11.59-.84,2.39-2.83,2-3.93,3.29,1,1.82.11,3.79.12,5.75,2.29,2.54,7,3.05,6.67,7.37-1.62,2.46-4.15,1.24-6.1,2.85-.2,3.36,3.81,6,2.39,9.6,6.59,4.2,6.65,4.36,3.87,10.64,5.64,9.15,3,9.85-3.61,11.25-1.18,1.47.21,3.24-.77,5.29-1.81,1.52-1.92,4.62-3.67,6.84-6.25,2.62-8.21,2.28-11.17-1.92-.26-2.65,1.81-4.05,3.16-5.84,2.22-2.93,4-6,2.8-9.83-2.45-1.77-6.17,2.33-7.87-1.9,0-9.74-3.23-18.89-5.12-28.28-.16-7.49-1.53-14.63-5.88-21-2-2.88,0-6,0-9.16-2.29.75-4,2.61-6.47,2.42-10.6-1.26-21.18-1.85-31.73.3C50.32,29.55,48,28,45.53,26.37c.49,3.12,2.41,5.74,2.18,8.87a10.52,10.52,0,0,1-1.85,4.1,18.88,18.88,0,0,0-3.41,11.57,19.72,19.72,0,0,1-1,6.75,21.55,21.55,0,0,1-1.43,7.19c-2.51,7-3.06,14.33-3.45,21.67-1.83,2.38-4.41.18-6.8,1.17-3.11,5.63,4.58,8.11,4.33,13.11-2.94,2.14-6.08.92-9.11.79-2.43-.66-4.73-1.55-6.08-3.18-1.31-2-.35-3.69-.77-5.31-1.33-1.64-3.55-.53-5.93-2.27-3.64-3.18.78-6,2-9.15.17-1.92-1.81-2.9-1.73-4.67-.22-3.65,3.09-4.32,5.44-6.26-1-3.46,2.23-6,2.69-9.13C19,59.28,16,61,14.49,58.42c-.63-4.27,3.83-4.79,6.31-7.23.71-1.83-1-4,.42-5.9-1-1.38-3.14-.83-4-3.66.18-6.41,5.67-9.07,11.28-11.17.65-1.86-.62-3.24-.2-4.74.27-1.71,1.77-2.79,2.26-4.39,0-1.69-1.26-3.08-1.05-5.58C31.38,11,37.1,9.58,40.91,6.09Z"/><path class="cls-2" d="M40.91,6.09c-2.5,4.42-8.09,5.84-10.39,10.71l3,4c-.41,2.67-3,3.33-4,5.19.23,1.55,2.42,1.95,1.94,5-4.11,3-12.52,3-12.87,11.4,2,1.89,4.52-1.62,6.49.77.29,2.38-2.42,2.39-3.17,3.85,6.11,8.55-6.54,5.86-6.17,11.32,1.7.81,4.22-1.36,6.09.52C23.28,60.4,23,62.21,22.7,64S20.29,65.67,19.53,67c-.21,1.56,1.75,2.54,1,4.44-.76,3.33-6.26,1.15-6.79,5.31.11,1.88,3,1.48,3,3.61,1.65,4.11-6.68,5.08-3.42,10,2.3.6,4.74-1.36,6.68.59,2.06,2.23-.12,4-.55,6.23L25,100c-.49,3.17.76,6.57-1.26,9.55-3.72,2.29-7.21,1.55-10.6-.74C-9.81,77.33-1.46,34.42,28.78,12.78,32.55,10.09,36.4,7.48,40.91,6.09Z"/><path class="cls-2" d="M115.82,103.94c-.66-1.35-1.29-2.71-.66-4.26.47-1.47,2.15-1.44,3-2.41.45-1.36-.8-2.11-1.07-3.19a3.48,3.48,0,0,1,.42-2.94c1.9-2,4.27-.75,6.59-.54,4-5.08-5-6.24-3.06-10.26.18-2,2.42-1.85,2.95-3.22.14-4.88-6.47-1.75-6.73-5.64-.8-1.93,1.1-2.92,1-4.35-.5-1.53-2.6-1-2.69-1.62-.9-2.74-1-4.5-.16-6.09,2-2.39,4.45-.65,6.94-1-.53-2.88-2.86-3.42-4.88-4.27-3.68-1.56-5-3.67-1.57-6.81-.71-1.71-3.47-1.68-3.27-4,1.89-2.5,4.46,1,6.5-.82-.23-8.41-8.89-8.17-12.78-11.3-.64-3,1.44-3.52,1.91-5.23-1-1.57-3.67-2.35-3.3-4.67-.13-2.15,1.89-2.94,2.25-4.92A32,32,0,0,0,100.56,10c-1-.64-2.7-1.11-1.61-3,35.65,16.6,50.08,62.68,28.78,96.82C123.78,106.47,119.82,107.36,115.82,103.94Z"/><path class="cls-1" d="M110.86,122.94c-22.61,17.41-52.58,19.44-76,5.16a73.06,73.06,0,0,1,10.9-13.58,16.29,16.29,0,0,1,7.82-1.1c5.07.7,9.75-1.87,14.76-1.56,2.47.15,5-.33,7.38.72,2.89,1.71,1.29,3.66.15,5.43-2,3.06-3.83,6.12-3.63,10.06,3.92,1.09,6.53-2.23,8.9-2,2.86.29,4.07,2,6,2.53,2.83-2,5.73-3.91,9.16-3.94a12.53,12.53,0,0,0,4.61-8.27c.37-2.11.45-4.37,2.69-5.61a7.57,7.57,0,0,1,7.41.55C114.07,115.19,112.86,119.07,110.86,122.94Z"/><path class="cls-3" d="M76.91,113.91c-10.73-.37-21.32,1.33-32,2a11.73,11.73,0,0,1-9.19,3c-4.61-.42-9.21,1.24-13.81,0-3.79-2.62-6.17-6.47-8.85-10.06,3.63-.36,7.44,1.1,10.89-1.1,5.72-2,11.65-.19,17.43-1a15.91,15.91,0,0,0,1.94-1.07c4.5-2.69,7.82-1,10.2,2.72,2,.87,3.84,1,5-.23,4.44-4.54,10.25-2.78,15.46-3.61,2.62-.42,3.84,2.25,6.54,3.89,4.32-2.31,8.63-6.16,14.4-6,1.78-.33,2.83-2.3,4.83-2.15,1.71.41,3.57.35,5,1.58a5.26,5.26,0,0,0,3.16,2.82l7.83-.81,11.91-.08c-1.45,3-3,6-5.81,8.1-3.68,1.92-7.37,3.42-11.08,0h-8a7,7,0,0,0-2.84.69C92.53,117.19,84.69,114.81,76.91,113.91Z"/><path class="cls-4" d="M21.94,118.91a16.54,16.54,0,0,1,8.9-2A82,82,0,0,0,44.93,116,20.18,20.18,0,0,1,34.81,128.1,37.11,37.11,0,0,1,21.94,118.91Z"/><path class="cls-5" d="M110.84,112l11.08,0c-2.77,4.58-6.76,7.93-11.06,11Q110.86,117.48,110.84,112Z"/><path class="cls-6" d="M40.13,57.1c.85-4.78.42-9.75,2.09-14.41.64-1.82,1-3.81,2.84-5,1.74,1.61.42,3.47.32,5.17-.77,13,7.17,22.41,20.56,24,11.65,1.4,24.82-6,26.32-17.62a17.43,17.43,0,0,0-.71-8.24,1.88,1.88,0,0,0-2.67-1.36c-3.51,1.11-7,2.52-10.78,1.89a1.66,1.66,0,0,1-.4-2.24c2.65-3.73,4.26-8.23,8.09-11.1l8.51-6.13c0,4.43-1.64,8-2.41,12.15,4.5,6.35,7.66,13.52,6.84,21.89a27.21,27.21,0,0,1-4.79,10.19C91.53,69.65,91,73.66,89.77,77.4c-5,5.79-7,6.23-14.49,3-4,2.41-8.33,3.31-12.54-.22-4.67,2.41-9.16,3.91-12.94-1.1C48.39,71,43.71,64.28,40.13,57.1Z"/><path class="cls-7" d="M88.82,38l1.67-1.77a18.53,18.53,0,0,1-.56,23.35C79.72,72,58.51,72.11,48.08,59.84c-5.74-6.75-5.16-14.31-3-22.11l1.77-2.55c1.65-.69,2.29.45,2.9,1.62.51,2.69-.75,5.2-.83,7.85-.08,3.17.64,6,3.4,7.78s5.67,1.43,8.27-.72c1.41-1.81,1.11-4.58,3.32-5.94,2.13-.25,3.27,1,4.15,2.69a23.92,23.92,0,0,1,.79,7.11c.31-2.58-.09-4.72.14-6.86.78-2.36,2-4.15,4.89-3.94,1.37.69,1.28,2.17,1.83,3.31,1.48,3.09,3.43,5.75,7.38,5.27,3.27-.39,5.7-4,5.74-8.12C88.82,42.81,87.78,40.38,88.82,38Z"/><path class="cls-8" d="M73.77,45.13l-3.85,3.66c-.69,1.14-1.52,1-2.42.28l-3.45-3.16c-2.23.2-3.56-1.39-5.12-2.56-1.86-2.73-4.53-4.81-6.3-7.59-1.49-2.33-3.28-4.78-.72-7.56,11.3-3,22.59-3.34,33.88,0-1,5.4-4.82,9.13-8.07,13.18C77.68,44,75.93,44.78,73.77,45.13Z"/><path class="cls-9" d="M40.13,57.1a29.31,29.31,0,0,1,9.79,16.15c.33,1.58.58,3.18.87,4.77.81,3-.61,5.75-1.28,8.57a70.71,70.71,0,0,0-2.21,8.53,34.6,34.6,0,0,1-1,5.23c-.67,2.24-.65,4.72-2.31,6.61l-1,.87a2.93,2.93,0,0,1-2.49-1.39c-3.15-6.17-7.19-12.15-4.81-19.68-1.49-7.09-.15-13.9,2-20.66C38.55,63.13,39.3,60.1,40.13,57.1Z"/><path class="cls-8" d="M88.77,76.9c-.3-8.65,5.66-14.3,10-20.75,2.62,9.85,6.5,19.5,4.89,30,1.39,5.56.8,10.6-3.84,14.58-1.51.82-1.73,3.2-3.9,3.23-2.23-1.25-1.39-4.11-3-5.69a8.13,8.13,0,0,1-.62-2.83,58.37,58.37,0,0,0-2.62-8C89.27,83.94,86.24,80.65,88.77,76.9Z"/><path class="cls-10" d="M35.65,86.76A72.33,72.33,0,0,0,43,107.83a33.46,33.46,0,0,1-19-.08c-.63-1.63-1.25-3.26-1.73-4.51.44-1.89,1.88-2.25,2.7-3.2a39.29,39.29,0,0,1,8.31.23c-4.23-4.14-8.2-8.33-5.68-14.71C30.68,84,33.13,85.62,35.65,86.76Z"/><path class="cls-11" d="M99.78,100.77l3.84-14.59c2.71.51,4.21-3.4,7.29-1.78,3.67,5.55,1.72,11.35-6.08,17.53C102.91,102.55,100.74,104.3,99.78,100.77Z"/><path class="cls-12" d="M51.91,28.2c-.58,4.7,3.11,7.32,5.29,10.65.88,1.34,2.45,2.19,2.88,3.89a1.14,1.14,0,0,1-.79,1,3,3,0,0,1-2.57-.64c-2.47-2.17-6.58-2.18-7.88-5.91l-2-2c-.92-2.29-1.93-4.54-2.74-6.87-.63-1.81-1-3.72-1.67-6.28Z"/><path class="cls-10" d="M76.91,113.91c6-1.53,11.91-1,18.44-.31l4-3.41c2.1-.42,2.87.63,3.57,1.8.22,4.42-.47,8.55-3.25,12.21-1.91,2.52-4.12,3.73-7.27,2.51-2,1.65-3.17,4.37-6.09,4.51-2.21-.51-2.31-2.88-4-4-2.17,0-3.54,2.07-5.62,2.55s-4,1.75-6.59.14C69.21,123.38,72.92,118.59,76.91,113.91Z"/><path class="cls-6" d="M94.08,98.06C97,99.34,95.39,102,95.88,104c-2.69,1.68-5.91.41-8.69,1.56-1.67,1.1-.84,3.12-1.89,4.81-2.39-.66-4.89.16-7.46.2-1.51-.9-.47-2.91-2.13-4.26l-13.77.61c-1.63,1.1-1.17,3.15-2.34,4.38-2.42.13-4.89-1-7.08.31-1.51-1.52-1.25-3.36-1.9-4.87a7,7,0,0,0-6.68.22c.28-2.39-.78-5,1.1-7.13,11.41-1.62,22.83.23,34.25-.45,3.17-.87,6.36-1.48,9.25.18C90.73,99.47,92.21,98.08,94.08,98.06Z"/><path class="cls-13" d="M88.77,76.9Q89.85,82,90.92,87c-5,1.1-9.94,4.64-15.16.3-4.31,3.46-8.66,4-13.28.63-5.24,2.93-9.92,1-14.49-1.79.94-2.71,1.87-5.43,2.8-8.14,4.64,4.09,5.83,4.07,11.58-.4,2.54,1.64,4.77,4.7,9.42,2.69.64-.5,2-1.62,3.39-2.71C81.79,82.24,82.34,82.21,88.77,76.9Z"/><path class="cls-14" d="M73.77,45.13l4-3.71L88.82,38c1.77,3.48,2.8,7,1.31,10.92-1.25,3.27-3.1,6-6.91,6.2-4.14.26-6.88-2.09-8.56-5.62A18.49,18.49,0,0,1,73.77,45.13Z"/><path class="cls-15" d="M48.84,37.16c2.94,2.09,7.28,1.92,9.19,5.68-2,1.15-5,1.26-4.91,4.6.35,2,1.73,2.59,3.38,2.8,4-1.16,2.17-4.65,3-7a2.63,2.63,0,0,0,.54-.46,9.77,9.77,0,0,1,4,3.17c-.56,3.26-1,6.53-4.44,8.31-5.6,2.94-11.77-.44-12.68-7A17.16,17.16,0,0,1,48.84,37.16Z"/><path class="cls-16" d="M67.5,49.07l2.42-.28c2.14,4.1,1.38,8-1,12.5C66.58,56.89,66,53.1,67.5,49.07Z"/><path class="cls-17" d="M48,86.16l2-1.34c5.13,4.14,6.44,4.2,12.34.67,6.52,4.59,7.75,4.52,12.92-.78,6.27,4.57,7.5,4.56,12.68-.15l3,2.46A16.15,16.15,0,0,1,93.86,95c-2.88,2.72-2.88,2.72-8.27.67-6.41,1.69-6.41,1.69-11.82.4a11.5,11.5,0,0,1-10.64,0c-6.05,1.7-11.72.59-17.35-1.11A16.87,16.87,0,0,1,48,86.16Z"/><path class="cls-18" d="M45.78,94.91c2.28.48,4.16-.67,6.1-1.62l4.88,2.47c2.66,0,4.06-1.72,6.23-2.5,3.34,3.07,7,4,10.52-.1l5.15,2.57c3,.13,4.46-1.93,6.42-3,2.06.2,2.72,2.43,4.51,2.94,1.55.61,2.91-.06,4.27-.68.08,1,.15,2.07.22,3.11-3.37,4.9-5,5.13-10,1.3-3.15,3.16-6.44,3.92-9.82-.11-3.28,3.69-6.76,4-10.18.62-4.92,2.89-5.25,2.88-10.09-.33-2.8,3.18-5.85,3.24-9,.29C44.76,98.11,44.56,96.4,45.78,94.91Z"/><path class="cls-19" d="M59.54,43.2c1.32,1.82,2.4,3.78,1,5.95s-3.29,3.45-5.9,2.33c-2.33-1-4-2.84-3.08-5.49,1-2.9,2.89-4.94,6.43-3.16Z"/><path class="cls-20" d="M86.48,47.13c-.58,2.81-2.18,4.71-5,4.67-3,0-5-1.9-4.83-5a4.46,4.46,0,0,1,4.77-4.59C84.56,42.18,86,44.29,86.48,47.13Z"/><path class="cls-21" d="M59.72,46.83c-3.24,3.53-3.38,3.52-5.91-.29a3.07,3.07,0,0,1,2.86-2.79C58.46,43.9,59.23,45.05,59.72,46.83Z"/><path class="cls-22" d="M81,43.69c2.53.7,3.84,2,2.45,4.31-1,1.63-2.78,2-4.1.4C77.69,46.4,78.57,44.85,81,43.69Z"/></g></g></svg>