<svg xmlns="http://www.w3.org/2000/svg" viewBox="0 0 336.27 383.19"><defs><style>.cls-1{fill:#d73724;}.cls-2{fill:#ecf5fe;}.cls-3{fill:#cce1fe;}.cls-4{fill:#ee5227;}.cls-5{fill:#9c9ea6;}.cls-6{fill:#868490;}.cls-7{fill:#9c9fa7;}.cls-8{fill:#f0f1f1;}.cls-9{fill:#dde0e0;}.cls-10{fill:#868491;}.cls-11{fill:#868390;}.cls-12{fill:#9ea1a9;}.cls-13{fill:#9dc7fb;}.cls-14{fill:#f9ab18;}.cls-15{fill:#f9aa18;}.cls-16{fill:#fccc09;}.cls-17{fill:#fccc08;}.cls-18{fill:#77777e;}.cls-19{fill:#9b9ea6;}.cls-20{fill:#9c9fa6;}</style></defs><g id="Слой_2" data-name="Слой 2"><g id="Layer_1" data-name="Layer 1"><path class="cls-1" d="M256.62,383.19c-2.29-1.32-4.94-1.19-7.41-1.78-9.27-2.23-17.61-6.47-25.5-11.7-4.31-1.87-7.63-5-10.63-8.48-1.22-1.41-2.4-2.85-3.68-4.21A69.53,69.53,0,0,1,194,313.1c-.08-20.75,7.44-38.36,22.67-52.56.94-.88,1.81-2.19,3.48-1.51.86,2.22-.42,4.07-1.08,6a57,57,0,0,0-3.4,16.17,10.77,10.77,0,0,1-1.06,3.46,62.71,62.71,0,0,0-6.7,21.74,47.87,47.87,0,0,0,0,12,59.31,59.31,0,0,0,8.89,25.69,79.81,79.81,0,0,0,7.66,9.62c10.1,9.24,21.57,15.52,35.51,16.49,3.47.37,6.94.84,10.4,0,.39,0,.77,0,1.15,0a53.81,53.81,0,0,0,26.93-9.68c2.14-1.46,4.21-3,6.22-4.69a8.9,8.9,0,0,1,2.84-1.82A65.9,65.9,0,0,0,324,345.65c1.33-.88,2.59-2.59,4.61-1.35-9.44,18.93-24.66,30.8-44.8,36.59-3.28.94-6.66,1.54-10,2.3Z"/><path class="cls-2" d="M219.94,258.88c-13,10.68-20.87,24.5-23.83,40.94-3.8,21.09,1.46,40.11,14.27,57.14-1.39,1.42-3.22,1.21-4.93,1.22q-91.09,0-182.19,0c-7.67,0-11-3.3-11-11-.1-23.32,0-46.64,0-70V95.75c0-8.88.46-9.34,9.25-9.35,12.1,0,24.21-.41,36.28.1C72.7,87.14,86.93,76.35,87,57.43c.1-17.08,0-34.17,0-51.26,0-2.08-.37-4.28,1.16-6.09q87.3,0,174.6,0c9.36,0,15.48,6.31,15.48,15.81q0,96.09,0,192.19c-1.51,1.48-3.45,1.16-5.27,1.18-7.67.07-15.35-.21-23-.1-1.47,0-3-.17-4.35.6a3.57,3.57,0,0,0-2.05,2.9,75.09,75.09,0,0,0,0,11.52c.2,2.33,1.9,2.9,4,3.05s4.52-.53,6.41,1.18c1.4,4.36.65,8.81.54,13.22-.31,1.76-1.62,2.35-3.16,2.69A70.71,70.71,0,0,0,223,257.55,4.86,4.86,0,0,1,219.94,258.88Z"/><path class="cls-3" d="M88.24.08c0,19.58.23,39.16,0,58.73C88,76.1,74.36,88,59.32,87.67c-13.71-.3-27.43-.07-41.14-.06-4.73,0-4.74,0-4.74,4.86q0,127.75,0,255.51c0,6,2.72,9,8.4,9l188.53,0a120.74,120.74,0,0,0,13.33,12.75c-69.58,0-139.16-.06-208.74.15-6.6,0-14.08-7.19-14.46-13.51-.35-6-.48-11.92-.48-17.88Q0,213,0,87.43A58,58,0,0,1,1.49,74.91c1.86-1.33,4-1.2,6.12-1.2h47.1c1.37,0,2.74,0,4.11,0,9.37-.35,14.75-5.77,14.79-15.16.07-17,0-33.89,0-50.84,0-2.11-.17-4.27,1.19-6.12C79.09-.78,83.73.26,88.24.08Z"/><path class="cls-2" d="M74.82,1.56q0,28.94,0,57.85c0,9.12-6.28,15.44-15.46,15.46q-28.92.06-57.85,0a27.74,27.74,0,0,1,4.88-6.08Q38.26,37,70.1,5.12C71.51,3.71,72.86,2.23,74.82,1.56Z"/><path class="cls-4" d="M219.94,258.88c9.09-8.07,19.74-13,31.52-15.59.71-.16,1.4-.41,2.1-.62,2.92-2,6.36-1.54,9.61-2A47.53,47.53,0,0,1,278,242.22c.34.28.66.57,1,.87,11.66,2.24,21.93,7.49,31.41,14.48,6.63,4.72,12.31,10.28,15.62,17.9,7.64,13.43,11.35,27.77,10,43.28a66.06,66.06,0,0,1-7.36,25.55c-3.89,1.15-6.72,4.14-10.22,6a42.24,42.24,0,0,1-11,4.46,1.11,1.11,0,0,1-.14-1c2.35-3.24,5.29-6,7.3-9.54a57.49,57.49,0,0,0,9-26.76c0-3.29,0-6.58,0-9.87A56.15,56.15,0,0,0,313.21,279a40.57,40.57,0,0,0-7.94-9.34c-9.75-8.65-20.94-14-34.08-15a28.74,28.74,0,0,0-11.09,0c-11.4.73-21.39,5-30.32,12-1.27,1-2.52,2-3.78,3-3.15,2.49-5.42,5.75-7.81,8.91-1,1.11-1.46,2.89-3.36,3-.34-6.4,1.68-12.3,3.72-18.21C219.07,261.94,219.48,260.4,219.94,258.88Z"/><path class="cls-5" d="M279,243.09l-.37,0-.33-.15c-1.65-2.32-1-5-1.05-7.53-.1-6,0-6-6.2-6.05-2.44,0-4.93.35-7.32-.54a2.16,2.16,0,0,1-.93-.94c-1.14-4.42-.39-8.93-.57-13.39-.17-4.16-.37-4.45-4.5-4.52-3-.05-6,0-9,0-1.47,0-3,.09-4.17-1.17,6.11-1.44,12.31-.43,18.47-.64,5.09-.17,10.19-.06,15.29-.08,2.61.05,5.22.08,7.83.15s4.11,1.43,4.1,4.19c0,3.86-.07,7.72,0,11.57.08,3.25-1.5,4.34-4.59,4.36-6.73,0-6.73.11-6.73,6.92Z"/><path class="cls-6" d="M326,275.47a109.13,109.13,0,0,0-15.62-17.9l5.26-4.65a2.94,2.94,0,0,1,3.07.85,71.21,71.21,0,0,1,12.55,14.71,1.83,1.83,0,0,1,.21,1.77Z"/><path class="cls-7" d="M331.49,270.25A82.67,82.67,0,0,0,319,255.19a27,27,0,0,0-3.35-2.27c4.61-4.84,5.4-4.8,9.8.25,2.28,2.62,4.61,5.19,6.94,7.75C336.58,265.52,336.52,266.19,331.49,270.25Z"/><path class="cls-8" d="M307.57,354.05c0,.23-.07.46-.11.69l-2.27,1.48c-6.72,3.6-14.08,3.46-21.37,3.45-3.8,0-7.7.32-11.4-1.05a5.3,5.3,0,0,1-2.25-1.84c-3-3.68-4-3.85-8.12-1.63a3.85,3.85,0,0,1-1.05.26c-6.57-1.45-12.2-4.9-17.56-8.72a72.79,72.79,0,0,1-20-21.36,19.59,19.59,0,0,1-3.07-6.73,1.63,1.63,0,0,1,.41-1c2.34-1.48,4.1-3.33,3.17-6.37-.86-2.85-3.2-3.5-5.85-3.54a4.12,4.12,0,0,1-1.8-.44,2.75,2.75,0,0,1-.85-.88c-1.89-7.25-3.9-14.49-1.54-22,.29-.91.59-1.81.88-2.71l2.77-3.27c2,.43,3.35,2,5,3.12a4.51,4.51,0,0,0,6.36-.6c1.84-1.91,1.37-4-.08-6-1.25-1.76-3.64-2.71-3.77-5.27a55.75,55.75,0,0,1,34.67-15.83c1.37,1.89.83,4.07.92,6.15.1,2.23-.16,4.48.38,6.68.6,2.47,1.77,4.57,4.63,4.56,3.1,0,4.21-2.31,4.66-4.92s.13-5.22.21-7.82c0-1.6-.17-3.27,1-4.64,13.48,1.07,25,6.54,34.73,15.78-.12,2.26-2.13,3.19-3.33,4.67-2.06,2.51-2.29,4.59-.45,6.58,2,2.17,4.19,2.11,6.61.53,1.52-1,2.65-2.62,4.59-3,6.64,8.33,9.83,18,10.87,28.46-1.28,1.31-3,1.05-4.54,1.1-2.59.08-5.2-.14-7.78.12-3.12.33-5,2.09-5,4.49s1.95,4.19,5,4.42c2.71.21,5.44,0,8.15.1,1.46,0,3-.15,4.14,1.15a54,54,0,0,1-9.61,26.92c-2.26.18-3.49-1.58-5-2.72-2.9-2.14-5.78-2.18-7.61-.05s-1.32,4.91,1.48,7.35C305.24,351,307,352,307.57,354.05Z"/><path class="cls-9" d="M220.76,318.21c8.62,17.51,21.8,30,40.33,36.53-.77,5.45.63,11.08-1.39,16.42A55.09,55.09,0,0,1,223.83,354c.35-2.1,2.18-2.91,3.57-4.1,2.94-2.51,3.51-5,1.65-7.4s-4.91-2.37-7.92.05c-1.41,1.13-2.51,2.88-4.72,2.54A54.71,54.71,0,0,1,207,318.65a1.54,1.54,0,0,1,1.24-1.24C212.45,316.94,216.73,315.83,220.76,318.21Z"/><path class="cls-9" d="M271.67,357.72a88.81,88.81,0,0,0,33.52-1.5,54,54,0,0,1-33.56,14.9A17.76,17.76,0,0,1,271.67,357.72Z"/><path class="cls-10" d="M259.7,371.16c0-4,0-7.92,0-11.88a9.63,9.63,0,0,1,1.4-4.54l.72-.17a16.51,16.51,0,0,1,3,.18c5.93,1.25,6.48,1.84,6.4,7.87,0,2.84.4,5.71-.31,8.52A28,28,0,0,1,259.7,371.16Z"/><path class="cls-11" d="M220.76,318.21c-4.58.18-9.2-.55-13.76.44a33.31,33.31,0,0,1,0-12.43c3.13-.56,6.26-1.1,9.27.53l.68.25c1.72,3.51,3.68,6.95,3.74,11Z"/><path class="cls-10" d="M216.41,345.1c1.64-1.3,3.27-2.62,4.93-3.89,2.92-2.22,6.22-2.07,8.32.34,2.31,2.64,2,5.84-1,8.47-1.56,1.39-3.23,2.66-4.86,4C220.77,351.53,218.61,348.3,216.41,345.1Z"/><path class="cls-9" d="M216.24,306.75c-3.09-.1-6.25.78-9.27-.53.81-7.77,2.82-15.16,7-21.86C213.51,291.94,214.81,299.35,216.24,306.75Z"/><path class="cls-12" d="M270.87,371.14c0-.25,0-.5,0-.74.47-7.27,1.39-14.79-9.05-15.83,4.1-3.4,6.88-2.51,9.86,3.15q0,6.7,0,13.4Z"/><path class="cls-13" d="M246.82,59.2c.1,9.78.1,9.78-9.48,9.78H113.74c-5.54,0-6-.49-6-5.92,0-3.61,0-7.22,0-10.83,0-4.85,1-5.78,6-5.79,1.5,0,3,0,4.48.05,1.51,1.66,1.15,3.73,1.25,5.69.22,4.29.77,4.85,5.14,5,1.5.06,3,0,4.49,0q55.5,0,111,0C242.42,57.26,245.17,56.48,246.82,59.2Z"/><path class="cls-9" d="M172.44,130.25H115.21a20.87,20.87,0,0,1-3.36-.08c-3.6-.59-5.63-2.79-5.62-5.91s2-5.3,5.64-5.9a16.29,16.29,0,0,1,2.62-.07h116c4.79,0,7.62,1.52,8.18,4.31.91,4.53-1.57,7.47-6.71,7.62s-10.22,0-15.33,0Z"/><path class="cls-3" d="M246.82,59.2c-1.56-1.12-3.35-.76-5.07-.76H124.47c-6.08,0-6.26-.19-6.27-6.34,0-1.86,0-3.73,0-5.6q61.76,0,123.52-.08c3.55,0,5,1.82,5.15,5C247,54,246.84,56.59,246.82,59.2Z"/><path class="cls-9" d="M172.81,177.39h59.4c4.92,0,6.41,1.19,6.46,5.09s-2.26,6.1-6.69,6.13c-8.22,0-16.44,0-24.66,0H115.79c-1,0-2,0-3,0-4.29-.27-6.65-2.47-6.57-6.05.07-3.22,2.61-5.16,6.8-5.16Z"/><path class="cls-9" d="M159.82,235.76h46.72c3.92,0,6.53,2.13,6.67,5.39.15,3.41-2.55,5.82-6.73,5.82q-46.72,0-93.44,0c-4.41,0-6.94-2.35-6.81-6.12.11-3.2,2.65-5.09,6.87-5.09Z"/><path class="cls-9" d="M145.52,305.36c-10.72,0-21.44,0-32.16,0-4.37,0-7-2.05-7.12-5.44s2.63-5.78,7.15-5.78h64.3c4.54,0,6.29,1.54,6.36,5.44.07,4.14-1.69,5.77-6.38,5.78C167,305.38,156.23,305.36,145.52,305.36Z"/><path class="cls-9" d="M139.9,314.35c8.34,0,16.67,0,25,0a12.16,12.16,0,0,1,4.73.83c2.23.91,3.11,2.75,3.18,5s-.77,4.14-3.05,5a15.8,15.8,0,0,1-5.8,1.13c-16.29-.06-32.59,0-48.88,0a16.2,16.2,0,0,1-2.61-.08c-4.44-.74-6.52-2.91-6.23-6.43s2.7-5.39,7.17-5.42C122.24,314.3,131.07,314.35,139.9,314.35Z"/><path class="cls-9" d="M139.63,267.2H112.75c-3.89,0-6.4-2-6.52-5.05-.15-3.64,2.34-6.14,6.39-6.15q26.88-.08,53.76,0c4.09,0,6.52,2.43,6.44,6.11s-1.93,5.08-6.31,5.1C157.55,267.22,148.59,267.2,139.63,267.2Z"/><path class="cls-9" d="M139.41,150.46c-9,0-17.92,0-26.87,0a5.81,5.81,0,0,1-6-4.06c-.94-2.58.09-4.52,2.09-6.22,1.19-1,2.5-1,3.86-1q27,0,54.11,0c3.78,0,6.14,2.06,6.25,5.32.12,3.44-2.26,5.84-6.17,5.88C157.57,150.51,148.49,150.46,139.41,150.46Z"/><path class="cls-9" d="M139.44,208.83c-9,0-17.94,0-26.91,0-3.61,0-6.16-2.24-6.29-5.41s2.38-5.77,6-5.79q27.3-.09,54.58,0c3.68,0,6,2.43,6,5.68s-2.37,5.49-6.09,5.5C157.64,208.85,148.54,208.83,139.44,208.83Z"/><path class="cls-14" d="M73.8,196.13a8.22,8.22,0,0,1,.17,1.09c.23,9.13-.59,10-9.8,10-3.85,0-7.69,0-11.54,0-5.42,0-6.92-1.49-6.94-6.8,0-4.71,0-9.43,0-14.15,0-6.1,1.23-7.31,7.45-7.3,1,0,2,.08,3,.12,1.34,1.42,1,3.22,1.09,4.92s0,3.7,0,5.55c.13,4.68.81,5.37,5.39,5.46,2.34.05,4.69,0,7,0C71.11,195.05,72.65,194.89,73.8,196.13Z"/><path class="cls-15" d="M73.78,312.94a2.37,2.37,0,0,1,.09.36c.44,9.69-.12,11.19-9.88,10.8-4.09-.17-8.2,0-12.3,0-4.33,0-5.94-1.55-6-5.75-.06-5.59,0-11.18,0-16.78,0-3.21,1.42-5.4,4.73-5.52,6.44-.23,12.88-.51,19.31.24-2.34,2.09-5.2,1.07-7.83,1.2-4.39.21-4.64.34-4.7,4.66C57,312.5,57,312.47,67.53,312.51,69.61,312.52,71.75,312.06,73.78,312.94Z"/><path class="cls-15" d="M73.8,254.55a8.4,8.4,0,0,1,.18,1.1c.23,9.13-.6,10-9.73,10-4.35,0-8.69.06-13,0-3.72-.07-5.46-1.79-5.51-5.51-.08-5.46-.05-10.92,0-16.38,0-4.66,1.57-6.21,6.25-6.31,1.61,0,3.21.08,4.82.13.87,3.52.25,7.11.39,10.67.17,4.73,1.18,5.74,6,6C66.68,254.33,70.27,253.69,73.8,254.55Z"/><path class="cls-15" d="M73.81,137.75a4.5,4.5,0,0,1,.15.73c.31,9.3-.36,10-9.61,10-4.23,0-8.47,0-12.7,0-4.53-.05-5.92-1.48-5.95-6.12,0-5.1,0-10.21,0-15.31s1.39-6.52,6.7-6.52c1.24,0,2.48.08,3.73.13,2,2.93,1,6.23,1.06,9.37.2,6.09.56,6.44,6.55,6.66C67.09,136.79,70.64,135.65,73.81,137.75Z"/><path class="cls-10" d="M244.57,208.78c5.2,0,10.4.13,15.6,0,2.4-.06,3.29.69,3.23,3.16-.15,5.45,0,10.9,0,16.35a10.32,10.32,0,0,1-10,.05c-2.35,0-4.7-.09-7.05,0-2.07,0-3.55-.93-3.64-2.9-.21-4.69-.15-9.4-.07-14.1A2.78,2.78,0,0,1,244.57,208.78Z"/><path class="cls-16" d="M73.8,254.55c-4.74,1.27-9.54.74-14.29.36-1.56-.13-3.3-1.24-3.28-3.06,0-4.78-.88-9.6.53-14.32,3.94-.05,7.88-.17,11.82-.12,3.41.05,5.28,1.91,5.32,5.32C74,246.67,73.84,250.61,73.8,254.55Z"/><path class="cls-17" d="M73.81,137.75c-4.37,0-8.74-.14-13.09,0-3.3.15-4.56-1.49-4.6-4.44-.06-4.23,0-8.47,0-12.71,4.21,0,8.41-.17,12.61-.11,3.51,0,5.11,1.71,5.18,5.35C74,129.83,73.85,133.79,73.81,137.75Z"/><path class="cls-16" d="M73.78,312.94c-4.89,1.3-9.85.68-14.77.41-2.13-.12-2.91-2.07-2.9-4.16,0-3.35.08-6.71,0-10.06-.07-2.14.79-2.83,2.86-2.79,3.6.08,7.2,0,10.8-.09,3.26.18,4.13,2.42,4.17,5.12C74,305.22,73.83,309.08,73.78,312.94Z"/><path class="cls-17" d="M73.8,196.13c-4.36,0-8.73-.15-13.08,0-3.29.14-4.55-1.48-4.6-4.43-.06-4.23,0-8.46,0-12.7,4.11,0,8.22-.16,12.33-.09,3.72.06,5.39,1.76,5.46,5.59S73.84,192.26,73.8,196.13Z"/><path class="cls-18" d="M253.4,228.34l10-.05h0a17.11,17.11,0,0,1,0,13.43l-9.8.95Q253.49,235.52,253.4,228.34Z"/><path class="cls-7" d="M271.52,253.76c0,4,.06,7.92,0,11.88-.11,4.17-2.42,6.77-5.82,6.77s-5.59-2.34-5.83-6.42-.08-8.16-.1-12.24A29.94,29.94,0,0,1,271.52,253.76Z"/><path class="cls-10" d="M263.36,241.72q0-6.71,0-13.43c4,0,7.92.12,11.86,0,2.51-.11,3.21.87,3.12,3.24-.15,3.82,0,7.65,0,11.48A99.58,99.58,0,0,0,263.36,241.72Z"/><path class="cls-19" d="M324.54,318.19c-4.24,0-8.48,0-12.72-.08-3.55-.07-5.78-2.19-5.87-5.4s2.15-5.71,5.88-5.82c4.23-.13,8.47-.06,12.71-.08A56.21,56.21,0,0,1,324.54,318.19Z"/><path class="cls-7" d="M307.57,354.05c-1.73-1.41-3.49-2.78-5.17-4.24-2.6-2.26-3-5.43-1-8a5.72,5.72,0,0,1,8-1.06c1.93,1.33,3.72,2.87,5.58,4.32A32.7,32.7,0,0,1,307.57,354.05Z"/><path class="cls-20" d="M225.07,269.58c1.5,1.49,3.07,2.92,4.48,4.49,2.11,2.37,2.24,4.95.22,7.44a5.42,5.42,0,0,1-7.69.77c-1.56-1.2-3.38-2.16-4.48-3.9A31,31,0,0,1,225.07,269.58Z"/><path class="cls-7" d="M313.67,278.35a16,16,0,0,1-4.74,4.15c-2.73,1.88-5.31,1.19-7.32-1.11s-2.09-5,.15-7.38c1.45-1.54,3-3,4.49-4.47A31.41,31.41,0,0,1,313.67,278.35Z"/><path class="cls-7" d="M265.29,317.34a5.15,5.15,0,0,1-4.5-2.85c-1.13-2.21-1.14-4.58.51-6.31,5.94-6.22,11.94-12.4,18.22-18.26,2.14-2,5.13-1.84,7.44.48s2.39,5.39-.37,8.31c-4.7,5-9.62,9.77-14.46,14.64-.79.8-1.57,1.61-2.4,2.36A5.73,5.73,0,0,1,265.29,317.34Z"/><path class="cls-7" d="M220.66,318c-1.45-3.6-3.55-7-3.74-11,2.22-.15,4.43-.54,6.38,1.15a5.56,5.56,0,0,1,1.91,5.69A4.74,4.74,0,0,1,220.66,318Z"/></g></g></svg>