<svg xmlns="http://www.w3.org/2000/svg" viewBox="0 0 256.59 291.27"><defs><style>.cls-1{fill:#9dc7fb;}.cls-2{fill:#ecf5fe;}.cls-3{fill:#cce1fe;}.cls-4{fill:#7e8b96;}.cls-5{fill:#7e8a95;}.cls-6{fill:#7e8b95;}.cls-7{fill:#d73724;}.cls-8{fill:#ee5227;}.cls-9{fill:#9c9ea6;}.cls-10{fill:#868490;}.cls-11{fill:#9c9fa7;}.cls-12{fill:#f0f1f1;}.cls-13{fill:#dde0e0;}.cls-14{fill:#868491;}.cls-15{fill:#868390;}.cls-16{fill:#9ea1a9;}.cls-17{fill:#77777e;}.cls-18{fill:#9b9ea6;}.cls-19{fill:#9c9fa6;}.cls-20{fill:#f9aa18;}.cls-21{fill:#fccc08;}</style></defs><g id="Слой_2" data-name="Слой 2"><g id="Layer_1" data-name="Layer 1"><path class="cls-1" d="M23.88,291.27c-5-2.63-6.91-6.77-6.28-12.3a45.27,45.27,0,0,0,0-5.34c1.54-1.33,3.42-.88,5.17-.88q68.61,0,137.22,0c10.7,0,21.4-.07,32.1,0,4.08,0,7.5-.86,9.64-4.67.35-.62.88-1.43,1.73-1.17.64.2.8,1,.86,1.69a19.37,19.37,0,0,1-.63,8.15,8.63,8.63,0,0,1-5.59,5.7c.5-.55,1.61-.59,2.67-.6,5.68-.05,11.37-.11,17.05,0,1.22,0,3.08-.33,2.86,2-.38,3.94-3.26,5.73-6.32,7.37Z"/><path class="cls-2" d="M9.06,0,194.28,0c5.33,0,9.15,3.88,9.3,9.38.07,2.75,0,5.5,0,8.24,1,1.09.91,2.45.91,3.76q0,33.74,0,67.45a8.25,8.25,0,0,1-.45,3.34c-1.54,1.81-2.29.06-3-.81-2.59-3-4.78-6.36-7.63-9.16-2.72-1.68-4.63-.92-5.32,2.16a27.14,27.14,0,0,0-.23,4.77c-.05,1.1.18,2.28-.8,3.16-1.21.08-1.79-.94-2.63-1.5-2.11-1.43-4.14-.68-4.83,1.76a10.76,10.76,0,0,0-.22,2.83V125c0,4.59,2,8.65,3.45,12.83q8.31,23.91,16.62,47.8c1.64,4.75,3.6,9.38,4.77,14.29a5.43,5.43,0,0,1,.18,1.55c.3,19.25.07,38.48.14,57.72V260c-.05,4.93-.51,5.36-5.31,5.46-59.3,1.29-118.6.21-177.9.56a21.39,21.39,0,0,1-5.64-.49,9.81,9.81,0,0,1-7.46-9c-.07-1,0-2.08,0-3.13q0-124,0-247.92C8.18,3.65,7.75,1.68,9.06,0Z"/><path class="cls-3" d="M9.06,0Q9.07,127.16,9,254.3c0,6.7,4.28,10.87,11,10.86,56.48-.12,113-.05,169.46-.1,4.14,0,8.28-.77,12.44-.53,1.23.06,1.71-.55,1.67-1.73,0-.75,0-1.51,0-2.27q0-29.86,0-59.73c1.4.08,1.5,1.31,1.83,2.22,4.94,13.63,9.58,27.36,14.35,41,.28.8.27,1.68.54,2.48a14.35,14.35,0,0,1-.47-4.07q0-11.8,0-23.6c0-1.13-.1-2.3.69-3.26,1.42,0,1.07.84.72,1.65q0,31.68-.09,63.36c0,1.09.41,2.28-.46,3.27-.37-1.69-1.74-1.15-2.77-1.16-6.82,0-13.64,0-20.83-.2,7.07-3.08,6.73-9.08,6.37-15.1-.77-.08-.8.64-1,1.08-1.73,3.7-4.72,5.13-8.69,5.13q-33.1,0-66.2,0H9.12A8.92,8.92,0,0,1,0,264.74v-.85q0-127,0-254.07C0,3.87,3.27.36,9.06,0Z"/><path class="cls-3" d="M221.16,123.49l-4.51-12c-3.54-4.95-7.33-9.69-11.15-14.42-.86-1.43-2.57-2.38-2.41-4.36.88-1,.48-2.18.48-3.27q0-35.91,0-71.82H211c6.47,0,10.15,3.6,10.22,10.17.07,7.38,0,14.76,0,22.15Q221.19,86.71,221.16,123.49Z"/><path class="cls-4" d="M119.67,128.6h64.26a14,14,0,0,1,2.83.08c2.16.44,3.65,1.74,3.77,4a4,4,0,0,1-3.39,4.55,15.28,15.28,0,0,1-3.1.28H55.54c-4.3,0-6.69-1.6-6.72-4.45s2.23-4.49,6.6-4.49Z"/><path class="cls-5" d="M119.78,102.32H184a16.2,16.2,0,0,1,3.12.12,4.31,4.31,0,0,1-.1,8.45,16.64,16.64,0,0,1-2.83.09h-129c-.57,0-1.14,0-1.71,0-2.78-.13-4.66-1.91-4.62-4.36s1.89-4.15,4.72-4.28c.85,0,1.71,0,2.56,0Z"/><path class="cls-4" d="M113.75,163.82H55.49a13.39,13.39,0,0,1-3.11-.16,4.2,4.2,0,0,1-3.51-4.25,4,4,0,0,1,3.51-4.19,21.56,21.56,0,0,1,3.67-.31q57.83,0,115.66,0a18.76,18.76,0,0,1,3.67.32,4,4,0,0,1,3.48,4.49,4.11,4.11,0,0,1-3.73,4,16.76,16.76,0,0,1-2.84.09Z"/><path class="cls-4" d="M101.8,31.88h41.47a8.15,8.15,0,0,1,3.35.39,4.22,4.22,0,0,1,2.83,4.19,4,4,0,0,1-3.11,4,13.09,13.09,0,0,1-3.36.39q-41.17,0-82.36,0c-.57,0-1.14,0-1.71,0-3.06-.28-4.89-2-4.87-4.49,0-2.7,1.92-4.41,5.16-4.41C73.4,31.87,87.6,31.89,101.8,31.88Z"/><path class="cls-6" d="M97.36,75.63q21.17,0,42.33,0c3.49,0,5.57,2,5.12,4.89-.39,2.51-2,3.75-4.54,3.76q-7,0-13.92,0l-70.72.4c-.47,0-1,0-1.42,0C51,84.64,49,83,48.81,80.43s2.11-4.6,5.38-4.63c10.32-.08,20.64-.07,31-.09H97.36Z"/><path class="cls-3" d="M203.56,199.7l.06-33.14c3.42,9.62,6.86,19.23,10.23,28.87,2.34,6.69,4.57,13.43,6.84,20.14v31.82l-.38.12c-.76-2-1.57-3.9-2.26-5.89q-6.87-19.65-13.71-39.33a13.69,13.69,0,0,0-.73-1.49C203.59,200.43,203.57,200.07,203.56,199.7Z"/><path class="cls-7" d="M176.94,227.53c-2.29-1.32-4.94-1.18-7.4-1.78-9.28-2.23-17.62-6.47-25.51-11.69-4.31-1.87-7.63-5-10.63-8.48-1.22-1.41-2.4-2.86-3.68-4.22a69.53,69.53,0,0,1-15.41-43.92c-.08-20.75,7.44-38.35,22.67-52.56.94-.88,1.81-2.19,3.48-1.5.86,2.21-.42,4.07-1.08,6a57.1,57.1,0,0,0-3.4,16.17,10.77,10.77,0,0,1-1.06,3.46,62.76,62.76,0,0,0-6.7,21.75,47.79,47.79,0,0,0,0,12,59.22,59.22,0,0,0,8.89,25.69,80.71,80.71,0,0,0,7.66,9.63c10.1,9.24,21.57,15.52,35.51,16.48,3.47.37,6.94.84,10.41,0,.38,0,.76,0,1.14,0a53.81,53.81,0,0,0,26.93-9.68c2.14-1.46,4.21-3,6.22-4.69a9.25,9.25,0,0,1,2.84-1.82A65.56,65.56,0,0,0,244.34,190c1.33-.87,2.59-2.59,4.61-1.34-9.44,18.92-24.66,30.8-44.8,36.59-3.28.94-6.66,1.53-10,2.29Z"/><path class="cls-8" d="M140.26,103.23c9.09-8.07,19.74-13,31.52-15.6.71-.15,1.4-.41,2.1-.62,2.92-2,6.36-1.54,9.61-2a47.23,47.23,0,0,1,14.83,1.51c.34.28.67.58,1,.87,11.66,2.25,21.93,7.49,31.41,14.49,6.63,4.72,12.31,10.28,15.62,17.89,7.64,13.44,11.35,27.77,10,43.28A66.15,66.15,0,0,1,249,188.65c-3.89,1.15-6.72,4.13-10.22,6s-7,3.65-10.95,4.46a1.11,1.11,0,0,1-.14-1c2.35-3.24,5.29-6,7.3-9.54a57.49,57.49,0,0,0,9-26.76c0-3.29,0-6.58,0-9.86a56.22,56.22,0,0,0-10.42-28.54,40.31,40.31,0,0,0-7.94-9.33c-9.75-8.66-20.94-14-34.08-15a28.74,28.74,0,0,0-11.09,0c-11.4.73-21.39,5-30.32,12-1.27,1-2.52,2-3.78,3-3.15,2.5-5.42,5.76-7.81,8.91-1,1.12-1.46,2.89-3.36,3-.34-6.39,1.68-12.3,3.72-18.21C139.39,106.28,139.8,104.75,140.26,103.23Z"/><path class="cls-9" d="M199.31,87.43l-.37,0-.33-.14c-1.65-2.33-1-5-1.05-7.54-.1-6,0-6-6.2-6-2.44,0-4.93.35-7.32-.54a2.16,2.16,0,0,1-.93-.94c-1.14-4.42-.39-8.93-.57-13.39-.17-4.16-.37-4.45-4.5-4.52-3,0-6,0-9,0-1.47,0-3,.09-4.17-1.17,6.11-1.45,12.31-.44,18.47-.65,5.09-.17,10.19-.06,15.29-.08,2.61.05,5.22.08,7.83.15s4.11,1.43,4.1,4.2c0,3.85-.07,7.71,0,11.57.08,3.24-1.5,4.34-4.59,4.35-6.73,0-6.73.11-6.73,6.93Z"/><path class="cls-10" d="M246.34,119.81a109.48,109.48,0,0,0-15.62-17.89L236,97.26a2.93,2.93,0,0,1,3.07.86,70.85,70.85,0,0,1,12.55,14.7,1.83,1.83,0,0,1,.21,1.77Z"/><path class="cls-11" d="M251.81,114.59a83,83,0,0,0-12.48-15.06A27,27,0,0,0,236,97.26c4.61-4.84,5.4-4.8,9.8.25,2.28,2.62,4.61,5.19,6.94,7.76C256.9,109.86,256.84,110.54,251.81,114.59Z"/><path class="cls-12" d="M227.89,198.4c0,.22-.07.45-.11.68l-2.27,1.48c-6.72,3.61-14.08,3.47-21.37,3.45-3.8,0-7.7.33-11.4-1a5.23,5.23,0,0,1-2.25-1.84c-3-3.67-4-3.85-8.12-1.63a3.85,3.85,0,0,1-1.05.26c-6.57-1.45-12.2-4.9-17.56-8.71a73,73,0,0,1-20-21.36,19.92,19.92,0,0,1-3.07-6.74,1.6,1.6,0,0,1,.41-1c2.34-1.49,4.1-3.34,3.17-6.38-.86-2.84-3.2-3.5-5.85-3.53a4.27,4.27,0,0,1-1.8-.45,2.82,2.82,0,0,1-.85-.87c-1.89-7.26-3.9-14.49-1.54-22l.88-2.71,2.77-3.27c2,.43,3.35,2,5,3.12a4.51,4.51,0,0,0,6.36-.59c1.84-1.92,1.37-4-.08-6.06-1.25-1.76-3.64-2.71-3.77-5.27a55.86,55.86,0,0,1,34.68-15.83c1.36,1.89.82,4.07.91,6.15.1,2.23-.16,4.49.38,6.69.6,2.46,1.77,4.56,4.63,4.55,3.1,0,4.21-2.31,4.66-4.92s.13-5.21.21-7.82c0-1.6-.17-3.27,1-4.63,13.48,1.06,25,6.54,34.73,15.78-.12,2.25-2.12,3.18-3.33,4.66-2.06,2.51-2.29,4.6-.45,6.58,2,2.17,4.19,2.12,6.61.53,1.52-1,2.65-2.62,4.59-3,6.65,8.33,9.83,18,10.87,28.47-1.28,1.31-3,1.05-4.54,1.09-2.59.08-5.2-.14-7.78.13-3.12.32-5,2.09-5,4.48s1.95,4.2,5,4.43c2.71.2,5.44,0,8.15.09,1.46,0,3-.15,4.14,1.15a54,54,0,0,1-9.61,26.92c-2.26.18-3.49-1.57-5-2.71-2.9-2.15-5.78-2.19-7.61-.06s-1.32,4.91,1.48,7.35C225.56,195.31,227.34,196.32,227.89,198.4Z"/><path class="cls-13" d="M141.08,162.55c8.62,17.51,21.8,30,40.33,36.53-.77,5.45.63,11.08-1.39,16.42a55,55,0,0,1-35.87-17.15c.35-2.09,2.18-2.9,3.57-4.09,2.94-2.52,3.51-5,1.65-7.41s-4.91-2.36-7.92.05c-1.41,1.14-2.51,2.88-4.72,2.54A54.71,54.71,0,0,1,127.32,163a1.54,1.54,0,0,1,1.24-1.24C132.77,161.28,137.05,160.18,141.08,162.55Z"/><path class="cls-13" d="M192,202.06a88.6,88.6,0,0,0,33.52-1.5A54.07,54.07,0,0,1,192,215.47,17.78,17.78,0,0,1,192,202.06Z"/><path class="cls-14" d="M180,215.5c0-4,0-7.92,0-11.87a9.64,9.64,0,0,1,1.4-4.55l.72-.16a16.5,16.5,0,0,1,3,.17c5.93,1.25,6.48,1.84,6.4,7.88,0,2.84.4,5.7-.31,8.52A28,28,0,0,1,180,215.5Z"/><path class="cls-15" d="M141.08,162.55c-4.58.19-9.2-.55-13.76.44a33.25,33.25,0,0,1,0-12.42c3.13-.57,6.26-1.11,9.27.52l.68.25c1.72,3.52,3.68,6.95,3.74,11Z"/><path class="cls-14" d="M136.73,189.44c1.64-1.3,3.27-2.62,4.93-3.89,2.92-2.22,6.22-2.07,8.32.34,2.31,2.64,2,5.85-1,8.47-1.56,1.39-3.23,2.67-4.86,4C141.09,195.88,138.93,192.64,136.73,189.44Z"/><path class="cls-13" d="M136.56,151.09c-3.09-.1-6.25.79-9.27-.52.81-7.77,2.82-15.16,7-21.87C133.83,136.29,135.13,143.7,136.56,151.09Z"/><path class="cls-16" d="M191.19,215.49c0-.25,0-.5,0-.75.47-7.27,1.39-14.79-9.05-15.82,4.1-3.4,6.88-2.52,9.86,3.14q0,6.7,0,13.41Z"/><path class="cls-14" d="M164.89,53.13c5.2,0,10.4.13,15.6,0,2.4-.06,3.29.69,3.23,3.16-.15,5.44-.05,10.9-.05,16.35a10.35,10.35,0,0,1-9.94,0c-2.36,0-4.71-.1-7.06,0-2.07,0-3.55-.93-3.64-2.9-.21-4.69-.15-9.4-.07-14.1A2.76,2.76,0,0,1,164.89,53.13Z"/><path class="cls-17" d="M173.73,72.69l9.94,0h0a17.11,17.11,0,0,1,0,13.43l-9.8.94Z"/><path class="cls-11" d="M191.84,98.11c0,4,.06,7.92,0,11.87-.11,4.17-2.42,6.77-5.82,6.78s-5.59-2.35-5.83-6.42-.08-8.17-.1-12.25A29.76,29.76,0,0,1,191.84,98.11Z"/><path class="cls-14" d="M183.68,86.07q0-6.72,0-13.43c4,0,7.92.12,11.86-.06,2.51-.11,3.21.88,3.12,3.24-.15,3.82,0,7.66,0,11.49A99.58,99.58,0,0,0,183.68,86.07Z"/><path class="cls-18" d="M244.86,162.53c-4.24,0-8.48,0-12.72-.07-3.55-.08-5.78-2.2-5.87-5.41-.1-3.36,2.15-5.7,5.88-5.82,4.23-.13,8.47-.06,12.71-.07A56.11,56.11,0,0,1,244.86,162.53Z"/><path class="cls-11" d="M227.89,198.4c-1.73-1.41-3.49-2.78-5.17-4.25-2.6-2.26-3-5.43-1-8a5.73,5.73,0,0,1,8-1.06c1.93,1.34,3.72,2.88,5.58,4.32A32.9,32.9,0,0,1,227.89,198.4Z"/><path class="cls-19" d="M145.39,113.92c1.5,1.5,3.07,2.92,4.48,4.49,2.11,2.37,2.24,5,.22,7.45a5.43,5.43,0,0,1-7.69.76c-1.56-1.2-3.38-2.15-4.47-3.9A30.77,30.77,0,0,1,145.39,113.92Z"/><path class="cls-11" d="M234,122.69a16,16,0,0,1-4.74,4.16c-2.73,1.87-5.31,1.18-7.32-1.11a5.05,5.05,0,0,1,.15-7.39c1.45-1.54,3-3,4.49-4.47A31.41,31.41,0,0,1,234,122.69Z"/><path class="cls-11" d="M185.61,161.68a5.15,5.15,0,0,1-4.5-2.85c-1.13-2.21-1.14-4.58.51-6.31,5.94-6.21,11.94-12.39,18.22-18.26,2.14-2,5.13-1.83,7.44.49s2.39,5.38-.37,8.3c-4.7,5-9.62,9.78-14.46,14.64-.79.8-1.56,1.61-2.4,2.37A5.75,5.75,0,0,1,185.61,161.68Z"/><path class="cls-11" d="M141,162.37c-1.45-3.61-3.55-7-3.74-11,2.22-.15,4.43-.54,6.39,1.15a5.59,5.59,0,0,1,1.9,5.7A4.75,4.75,0,0,1,141,162.37Z"/><path class="cls-20" d="M39.14,81.52a1.89,1.89,0,0,1,.09.38c.19,4.86-.21,5.22-5.68,5.22-2.5,0-5,0-7.5,0-2.68,0-3.5-.78-3.52-3.2,0-2.66,0-5.33,0-8s.81-3.41,3.95-3.41c.74,0,1.47,0,2.21.07,1.15,1.53.56,3.25.62,4.89.12,3.18.34,3.36,3.87,3.48C35.17,81,37.27,80.42,39.14,81.52Z"/><path class="cls-21" d="M39.14,81.52c-2.58,0-5.16-.07-7.73,0-1.95.07-2.7-.78-2.72-2.32,0-2.22,0-4.43,0-6.64,2.48,0,5-.09,7.45-.06,2.07,0,3,.89,3.06,2.79C39.24,77.39,39.17,79.46,39.14,81.52Z"/><path class="cls-20" d="M39.14,108.35a1.75,1.75,0,0,1,.09.38c.19,4.85-.21,5.22-5.68,5.22-2.5,0-5,0-7.5,0-2.68,0-3.5-.77-3.52-3.19,0-2.67,0-5.33,0-8s.81-3.4,3.95-3.4c.74,0,1.47,0,2.21.06,1.15,1.54.56,3.26.62,4.9.12,3.18.34,3.36,3.87,3.47C35.17,107.85,37.27,107.25,39.14,108.35Z"/><path class="cls-21" d="M39.14,108.35c-2.58,0-5.16-.08-7.73,0-1.95.08-2.7-.78-2.72-2.32,0-2.21,0-4.42,0-6.64,2.48,0,5-.08,7.45,0,2.07,0,3,.89,3.06,2.79C39.24,104.22,39.17,106.28,39.14,108.35Z"/><path class="cls-20" d="M39.14,134.57a1.83,1.83,0,0,1,.09.39c.19,4.85-.21,5.21-5.68,5.21-2.5,0-5,0-7.5,0-2.68,0-3.5-.78-3.52-3.2,0-2.66,0-5.33,0-8s.81-3.41,3.95-3.41c.74,0,1.47.05,2.21.07,1.15,1.53.56,3.26.62,4.89.12,3.19.34,3.37,3.87,3.48C35.17,134.07,37.27,133.48,39.14,134.57Z"/><path class="cls-21" d="M39.14,134.57c-2.58,0-5.16-.07-7.73,0-1.95.07-2.7-.78-2.72-2.32,0-2.21,0-4.43,0-6.64,2.48,0,5-.09,7.45-.06,2.07,0,3,.89,3.06,2.8C39.24,130.44,39.17,132.51,39.14,134.57Z"/><path class="cls-20" d="M39.14,161.06a1.75,1.75,0,0,1,.09.38c.19,4.86-.21,5.22-5.68,5.22-2.5,0-5,0-7.5,0-2.68,0-3.5-.77-3.52-3.19,0-2.67,0-5.33,0-8s.81-3.4,3.95-3.4c.74,0,1.47,0,2.21.06,1.15,1.54.56,3.26.62,4.9.12,3.18.34,3.36,3.87,3.48C35.17,160.56,37.27,160,39.14,161.06Z"/><path class="cls-21" d="M39.14,161.06c-2.58,0-5.16-.07-7.73,0-1.95.08-2.7-.77-2.72-2.31,0-2.22,0-4.43,0-6.65,2.48,0,5-.08,7.45-.05,2.07,0,3,.89,3.06,2.79C39.24,156.93,39.17,159,39.14,161.06Z"/></g></g></svg>