<svg xmlns="http://www.w3.org/2000/svg" viewBox="0 0 131.13 155.55">
    <defs>
        <style>
            .cls-1{fill:#a8cff0;}.cls-2{fill:#72b5e8;}.cls-3{fill:#d1ebff;}.cls-4{fill:#fff;}.cls-5{fill:#0fbab8;}.cls-6{fill:#3ecfcd;}.cls-7{fill:#0ba19f;}.cls-8{fill:#eb4680;}
        </style>
    </defs>
    <g id="Слой_2" data-name="Слой 2">
        <g id="Layer_1" data-name="Layer 1">
            <path class="cls-1"
                  d="M99.09,73.51a15.43,15.43,0,0,0-6.6-2.2c0-.14,0-.26,0-.41,0-20-14.11-44.32-31.53-54.38C47,8.44,35.13,12.08,31,24.2A31.34,31.34,0,0,0,27.72,22C16.24,15.34,6.94,20.65,6.94,33.82s9.3,29.23,20.78,35.86l71.37,41.2c9,5.2,16.29,1,16.29-9.28S108.09,78.7,99.09,73.51Z"/>
            <polygon class="cls-2" points="34.66 81.79 41.13 77.64 41.13 38.8 34.66 42.96 34.66 81.79"/>
            <path class="cls-3"
                  d="M127.59,109.06l-.82-.58a20.33,20.33,0,0,0,3.36-11.85c0-12.58-8.58-27.39-19.53-33.71a25.23,25.23,0,0,0-3.27-1.6l-.28-.11,0-.31c-2.08-21.5-16.6-44.62-34.53-55A33.78,33.78,0,0,0,55.6,1a25.55,25.55,0,0,0-14,4.13L41,4.29A26.56,26.56,0,0,1,55.6,0,34.73,34.73,0,0,1,73,5.06c18.11,10.46,32.79,33.73,35,55.45a28,28,0,0,1,3.11,1.54c11.23,6.49,20,21.68,20,34.58A21.35,21.35,0,0,1,127.59,109.06Z"/>
            <path class="cls-2"
                  d="M123.64,96.63c0-10.31-7.3-22.89-16.29-28.08a15.43,15.43,0,0,0-6.6-2.2c0-.14,0-.27,0-.41,0-20-14.12-44.33-31.53-54.38C59.46,5.92,51,6.67,45,10.68L34.91,16.42c-5.69-3-10.77-2.93-14.35-.46L7,24.07c3.67-1.6,8.48-1.08,13.76,2a32.3,32.3,0,0,1,3.29,2.23c4.11-12.12,16-15.76,30-7.67C71.46,30.64,85.57,55,85.57,75c0,.14,0,.27,0,.41a15.3,15.3,0,0,1,6.6,2.2c9,5.19,16.28,17.76,16.28,28.08,0,4.37-1.31,7.63-3.5,9.54l13.42-7.81,0,0C121.59,105.83,123.64,102.09,123.64,96.63Z"/>
            <path class="cls-4"
                  d="M93.35,77.05a15.52,15.52,0,0,0-6.6-2.2c0-.14,0-.27,0-.41,0-20-14.11-44.33-31.52-54.38-8.35-4.82-15.93-5.47-21.56-2.65,5.49-2.18,12.6-1.31,20.37,3.18C71.46,30.64,85.57,55,85.57,75c0,.14,0,.27,0,.41a15.3,15.3,0,0,1,6.6,2.2c9,5.19,16.28,17.76,16.28,28.08,0,5.22-1.87,8.86-4.88,10.52,3.7-1.29,6.07-5.17,6.07-11.05C109.63,94.81,102.34,82.24,93.35,77.05Z"/>
            <path class="cls-4"
                  d="M20.79,26a32.3,32.3,0,0,1,3.29,2.23c.13-.37.26-.74.4-1.1A29.93,29.93,0,0,0,22,25.51c-5.57-3.22-10.63-3.62-14.36-1.68C11.2,22.53,15.79,23.15,20.79,26Z"/>
            <path class="cls-3"
                  d="M92.16,77.58a15.3,15.3,0,0,0-6.6-2.2c0-.14,0-.27,0-.41,0-20-14.11-44.33-31.52-54.38-14-8.09-25.86-4.45-30,7.67A32.3,32.3,0,0,0,20.79,26C9.31,19.41,0,24.71,0,37.89S9.31,67.11,20.79,73.74l14,8.06V42.68L64.29,59.74V98.86L92.16,115c9,5.19,16.28,1,16.28-9.29S101.15,82.77,92.16,77.58Z"/>
            <path class="cls-5"
                  d="M61,67.83,42.54,57.18v7.57L61,75.4Zm0-6.14L42.54,51v3.24L61,64.93Zm0,54.48V78L42.54,67.31v38.21L29.42,97.94l22.34,46.23,22.35-20.42Z"/>
            <polygon class="cls-6" points="74.11 123.75 71.86 125 58.74 117.43 60.99 116.17 74.11 123.75"/>
            <polygon class="cls-7" points="71.86 125 49.52 145.43 51.76 144.17 74.11 123.75 71.86 125"/>
            <polygon class="cls-7" points="58.74 79.22 58.74 117.43 60.99 116.17 60.99 77.97 58.74 79.22"/>
            <polygon class="cls-7" points="58.74 76.66 60.99 75.4 60.99 67.83 58.74 69.09 58.74 76.66"/>
            <polygon class="cls-7" points="58.74 66.19 60.99 64.93 60.99 61.69 58.74 62.94 58.74 66.19"/>
            <polygon class="cls-6" points="29.42 97.94 27.17 99.2 40.29 106.78 42.54 105.52 29.42 97.94"/>
            <polygon class="cls-6" points="40.29 68.57 42.54 67.31 60.99 77.97 58.74 79.22 40.29 68.57"/>
            <polygon class="cls-6" points="40.29 58.56 42.54 57.3 60.99 67.96 58.74 69.21 40.29 58.56"/>
            <polygon class="cls-6" points="40.29 52.32 42.54 51.06 60.99 61.71 58.74 62.97 40.29 52.32"/>
            <path class="cls-8"
                  d="M58.73,152.54a.5.5,0,0,1-.37-.16.51.51,0,0,1,0-.71l1.48-1.35a.5.5,0,0,1,.68.74l-1.48,1.35A.5.5,0,0,1,58.73,152.54Zm3.69-3.37a.5.5,0,0,1-.33-.87L63.56,147a.5.5,0,1,1,.68.74L62.76,149A.5.5,0,0,1,62.42,149.17Zm3.69-3.37a.48.48,0,0,1-.36-.17.48.48,0,0,1,0-.7l1.47-1.35a.5.5,0,0,1,.68.74l-1.48,1.35A.53.53,0,0,1,66.11,145.8Zm3.69-3.38a.46.46,0,0,1-.36-.16.5.5,0,0,1,0-.71l1.47-1.34a.5.5,0,1,1,.68.73l-1.48,1.35A.48.48,0,0,1,69.8,142.42Zm3.7-3.37a.49.49,0,0,1-.37-.16.5.5,0,0,1,0-.71l1.47-1.35a.51.51,0,0,1,.71,0,.5.5,0,0,1,0,.71l-1.48,1.35A.46.46,0,0,1,73.5,139.05Zm3.69-3.37a.52.52,0,0,1-.37-.16.5.5,0,0,1,0-.71l1.48-1.35a.49.49,0,0,1,.7,0,.5.5,0,0,1,0,.71l-1.48,1.35A.51.51,0,0,1,77.19,135.68Zm3.69-3.38a.49.49,0,0,1-.37-.16.49.49,0,0,1,0-.7L82,130.09a.5.5,0,0,1,.67.73l-1.48,1.35A.46.46,0,0,1,80.88,132.3Zm3.69-3.37a.49.49,0,0,1-.37-.16.5.5,0,0,1,0-.71l1.48-1.35a.5.5,0,0,1,.7,0,.5.5,0,0,1,0,.71l-1.47,1.35A.5.5,0,0,1,84.57,128.93Zm3.69-3.37a.52.52,0,0,1-.37-.16.5.5,0,0,1,0-.71l1.48-1.35a.5.5,0,0,1,.67.74l-1.47,1.35A.5.5,0,0,1,88.26,125.56Zm.63-3a.47.47,0,0,1-.25-.07l-1.73-1a.49.49,0,0,1-.18-.68.51.51,0,0,1,.68-.19l1.73,1a.51.51,0,0,1,.19.69A.5.5,0,0,1,88.89,122.52ZM84.56,120a.47.47,0,0,1-.25-.07l-1.73-1a.49.49,0,0,1-.18-.68.51.51,0,0,1,.68-.19l1.73,1a.51.51,0,0,1,.19.69A.5.5,0,0,1,84.56,120Zm-4.33-2.5a.47.47,0,0,1-.25-.07l-1.73-1a.49.49,0,0,1-.18-.68.51.51,0,0,1,.68-.19l1.73,1a.51.51,0,0,1,.19.69A.5.5,0,0,1,80.23,117.52ZM75.9,115a.47.47,0,0,1-.25-.07l-1.73-1a.49.49,0,0,1-.18-.68.51.51,0,0,1,.68-.19l1.73,1a.51.51,0,0,1,.19.69A.5.5,0,0,1,75.9,115Zm-4.33-2.5a.47.47,0,0,1-.25-.07l-1.73-1a.49.49,0,0,1-.18-.68.51.51,0,0,1,.68-.19l1.73,1a.5.5,0,0,1-.25.94Z"/>
            <polygon class="cls-8"
                     points="48.1 154.92 47.43 154.18 80.36 124.08 63.79 114.51 63.79 101.52 64.79 101.52 64.79 113.93 82.05 123.89 48.1 154.92"/>
            <path class="cls-5"
                  d="M58.74,69.09,40.29,58.44V66L58.74,76.66Zm0-6.15L40.29,52.29v3.25L58.74,66.19Zm0,54.49V79.22L40.29,68.57v38.21L27.17,99.2l22.35,46.23L71.87,125Z"/>
            <path class="cls-8"
                  d="M46.93,155.55a.52.52,0,0,1-.38-.17.5.5,0,0,1-.1-.47l1.33-4.66a.5.5,0,1,1,1,.27l-1.13,3.93,4.25-.56a.5.5,0,0,1,.56.43.51.51,0,0,1-.43.56l-5,.67Z"/>
            <path class="cls-8"
                  d="M65.64,102.82c0,.9-.64,1.26-1.42.81a3.11,3.11,0,0,1-1.41-2.44c0-.89.63-1.26,1.41-.8A3.12,3.12,0,0,1,65.64,102.82Z"/>
        </g>
    </g>
</svg>