<svg xmlns="http://www.w3.org/2000/svg" xmlns:xlink="http://www.w3.org/1999/xlink" viewBox="0 0 99.07 115.9">
    <defs>
        <style>
            .cls-1{isolation:isolate;}.cls-2{opacity:0.2;}.cls-3{opacity:0;}.cls-4{opacity:0.09;}.cls-5{opacity:0.18;}.cls-6{opacity:0.27;}.cls-7{opacity:0.36;}.cls-8{opacity:0.45;}.cls-9{opacity:0.55;}.cls-10{opacity:0.64;}.cls-11{opacity:0.73;}.cls-12{opacity:0.82;}.cls-13{opacity:0.91;}.cls-14{fill:url(#New_Gradient_Swatch_copy_36);}.cls-15{fill:url(#New_Gradient_Swatch_copy_36-2);}.cls-16{fill:url(#New_Gradient_Swatch_copy_36-3);}.cls-17{fill:url(#New_Gradient_Swatch_copy_26);}.cls-18{fill:url(#linear-gradient);}.cls-19{fill:url(#New_Gradient_Swatch_copy_26-2);}.cls-20{fill:url(#New_Gradient_Swatch_copy_34);}.cls-21{fill:url(#New_Gradient_Swatch_copy_34-2);}.cls-22{fill:url(#New_Gradient_Swatch_copy_34-3);}.cls-23{fill:url(#New_Gradient_Swatch_copy_26-3);}.cls-24{fill:url(#linear-gradient-2);}.cls-25{fill:url(#linear-gradient-3);}.cls-26,.cls-31,.cls-33{mix-blend-mode:color-dodge;}.cls-26{fill:url(#radial-gradient);}.cls-27{mix-blend-mode:multiply;}.cls-28{fill:#8969c3;}.cls-29{fill:url(#linear-gradient-4);}.cls-30{fill:url(#linear-gradient-5);}.cls-31{fill:url(#radial-gradient-2);}.cls-32{fill:#25054d;}.cls-33{fill:url(#radial-gradient-3);}
        </style>
        <linearGradient id="New_Gradient_Swatch_copy_36" x1="71.56" y1="104.69" x2="80.52" y2="124.8"
                        gradientUnits="userSpaceOnUse">
            <stop offset="0.1" stop-color="#45108a"/>
            <stop offset="1" stop-color="#7c1dc9"/>
        </linearGradient>
        <linearGradient id="New_Gradient_Swatch_copy_36-2" x1="26.72" y1="91.09" x2="26.72" y2="129.31"
                        xlink:href="#New_Gradient_Swatch_copy_36"/>
        <linearGradient id="New_Gradient_Swatch_copy_36-3" x1="79.34" y1="16.59" x2="37.02" y2="97.25"
                        xlink:href="#New_Gradient_Swatch_copy_36"/>
        <linearGradient id="New_Gradient_Swatch_copy_26" x1="52.19" y1="95.82" x2="124.95" y2="0.82"
                        gradientUnits="userSpaceOnUse">
            <stop offset="0.03" stop-color="#7c1dc9"/>
            <stop offset="0.21" stop-color="#6e41d2"/>
            <stop offset="0.62" stop-color="#4c9be8"/>
            <stop offset="1" stop-color="#2af6ff"/>
        </linearGradient>
        <linearGradient id="linear-gradient" x1="-55.3" y1="83.14" x2="121.42" y2="43.52"
                        gradientUnits="userSpaceOnUse">
            <stop offset="0" stop-color="#25054d"/>
            <stop offset="1" stop-color="#45108a"/>
        </linearGradient>
        <linearGradient id="New_Gradient_Swatch_copy_26-2" x1="79.28" y1="-34.94" x2="40.47" y2="39.02"
                        xlink:href="#New_Gradient_Swatch_copy_26"/>
        <linearGradient id="New_Gradient_Swatch_copy_34" x1="49.43" y1="81.13" x2="92.2" y2="68.32"
                        gradientUnits="userSpaceOnUse">
            <stop offset="0" stop-color="#9f79c8"/>
            <stop offset="0.14" stop-color="#a27dca"/>
            <stop offset="0.27" stop-color="#ac88cf"/>
            <stop offset="0.4" stop-color="#bc9bd7"/>
            <stop offset="0.52" stop-color="#d1b4e3"/>
            <stop offset="0.65" stop-color="#dbc4e9"/>
            <stop offset="0.9" stop-color="#f4edf8"/>
            <stop offset="1" stop-color="#fff"/>
        </linearGradient>
        <linearGradient id="New_Gradient_Swatch_copy_34-2" x1="-61.48" y1="86.6" x2="115.24" y2="46.99"
                        xlink:href="#New_Gradient_Swatch_copy_34"/>
        <linearGradient id="New_Gradient_Swatch_copy_34-3" x1="45.43" y1="2.28" x2="27.45" y2="36.54"
                        xlink:href="#New_Gradient_Swatch_copy_34"/>
        <linearGradient id="New_Gradient_Swatch_copy_26-3" x1="32.86" y1="87.62" x2="16.59" y2="47.4"
                        gradientTransform="translate(37.62 -3.27) rotate(30.31)"
                        xlink:href="#New_Gradient_Swatch_copy_26"/>
        <linearGradient id="linear-gradient-2" x1="16.26" y1="51.01" x2="33.95" y2="83.98"
                        gradientUnits="userSpaceOnUse">
            <stop offset="0.01" stop-color="#c1a1d5"/>
            <stop offset="0.05" stop-color="#c8abda"/>
            <stop offset="0.11" stop-color="#dac6e6"/>
            <stop offset="0.2" stop-color="#f7f2f9"/>
            <stop offset="0.22" stop-color="#fff"/>
            <stop offset="0.25" stop-color="#f9f5fb"/>
            <stop offset="0.3" stop-color="#e9dbf2"/>
            <stop offset="0.36" stop-color="#d1b4e3"/>
            <stop offset="0.43" stop-color="#b395d6"/>
            <stop offset="0.49" stop-color="#9c7dcb"/>
            <stop offset="0.56" stop-color="#8e6ec5"/>
            <stop offset="0.61" stop-color="#8969c3"/>
            <stop offset="0.76" stop-color="#9471c6"/>
            <stop offset="1" stop-color="#b086cc"/>
        </linearGradient>
        <linearGradient id="linear-gradient-3" x1="-133.03" y1="80.43" x2="-115.36" y2="49.95"
                        gradientTransform="translate(165.81 73.63) rotate(30.31)" gradientUnits="userSpaceOnUse">
            <stop offset="0" stop-color="#9f79c8"/>
            <stop offset="0.14" stop-color="#a580cb"/>
            <stop offset="0.33" stop-color="#b492d3"/>
            <stop offset="0.55" stop-color="#cdb0e1"/>
            <stop offset="0.58" stop-color="#d1b4e3"/>
            <stop offset="0.76" stop-color="#dbc4e9"/>
            <stop offset="1" stop-color="#ebdef3"/>
        </linearGradient>
        <radialGradient id="radial-gradient" cx="23.64" cy="69.5" r="14.32" gradientUnits="userSpaceOnUse">
            <stop offset="0" stop-color="#fff"/>
            <stop offset="1"/>
        </radialGradient>
        <linearGradient id="linear-gradient-4" x1="12.83" y1="60.51" x2="24.81" y2="82.16"
                        xlink:href="#linear-gradient-2"/>
        <linearGradient id="linear-gradient-5" x1="-136.24" y1="79.02" x2="-127.16" y2="63.37"
                        gradientTransform="translate(147.87)" xlink:href="#linear-gradient-3"/>
        <radialGradient id="radial-gradient-2" cx="-362.08" cy="-95.98" r="8.59"
                        gradientTransform="translate(344.18 153.61) scale(0.9 0.86)" xlink:href="#radial-gradient"/>
        <radialGradient id="radial-gradient-3" cx="33.33" cy="54.03" r="27.8" xlink:href="#radial-gradient"/>
    </defs>
    <g class="cls-1">
        <g id="Слой_2" data-name="Слой 2">
            <g id="Layer_1" data-name="Layer 1">
                <g class="cls-2">
                    <path class="cls-3"
                          d="M50.41,115.9a10.62,10.62,0,0,1-5.29-1.28L4.73,91.12a5.59,5.59,0,0,1-3-4.84c0-2.15,1.33-4.15,3.66-5.5L43.92,57.62A13.06,13.06,0,0,1,50.35,56a10.62,10.62,0,0,1,5.29,1.27L96,80.76a5.59,5.59,0,0,1,3,4.84c0,2.15-1.33,4.16-3.66,5.5L56.84,114.26A13.07,13.07,0,0,1,50.41,115.9Z"/>
                    <path class="cls-4"
                          d="M43.44,58.3a12.72,12.72,0,0,1,6.36-1.59,11.17,11.17,0,0,1,3.65.59A8.75,8.75,0,0,1,55,58l39.88,23.2A6.11,6.11,0,0,1,98,85.84a6,6,0,0,1-3.32,5.41l-.82.5L56.77,114c-.29.16-.66.36-1,.5a13.17,13.17,0,0,1-5.34,1.13,10.42,10.42,0,0,1-5.2-1.23l-40-23.26A6.17,6.17,0,0,1,2.1,86.48a6,6,0,0,1,3.33-5.42l.69-.41Z"/>
                    <path class="cls-5"
                          d="M43,59a12.52,12.52,0,0,1,6.27-1.56,11.31,11.31,0,0,1,3.6.62,10.1,10.1,0,0,1,1.52.71l39.36,22.9c1.58.91,3.15,2.83,3.29,4.43a5.52,5.52,0,0,1-3,5.32s-.76.47-.81.5L56.7,113.69c-.26.15-.67.37-1,.5a12.83,12.83,0,0,1-5.24,1.14,10,10,0,0,1-5.11-1.2l-39.56-23c-1.58-.92-3.17-2.85-3.32-4.45a5.52,5.52,0,0,1,3-5.33l.67-.41Z"/>
                    <path class="cls-6"
                          d="M42.5,59.66a12.25,12.25,0,0,1,6.19-1.52,10.93,10.93,0,0,1,3.54.64,12.2,12.2,0,0,1,1.5.72L92.57,82.1c1.4.81,3.21,2.81,3.41,4.22a5.06,5.06,0,0,1-2.64,5.23l-.8.49-35.9,21.37c-.24.13-.69.37-.94.49a12.68,12.68,0,0,1-5.13,1.15,9.88,9.88,0,0,1-5-1.16L6.39,91.12C5,90.3,3.14,88.28,2.94,86.87a5.06,5.06,0,0,1,2.67-5.25l.66-.41Z"/>
                    <path class="cls-7"
                          d="M42,60.34a11.85,11.85,0,0,1,6.11-1.48,10.56,10.56,0,0,1,3.48.67,13.32,13.32,0,0,1,1.47.71l38.32,22.3c1.23.71,3.54,2.77,3.54,4,.73,1.78-.13,3.76-2.3,5.14-.07.06-.69.44-.79.49L56.57,113.12c-.21.12-.7.39-.92.49a12.58,12.58,0,0,1-5,1.16,9.65,9.65,0,0,1-4.94-1.12L7,91.11c-1.23-.7-3.6-2.8-3.6-4-.74-1.8.14-3.79,2.34-5.18l.66-.4Z"/>
                    <path class="cls-8"
                          d="M41.55,61a11.7,11.7,0,0,1,6-1.43,10.21,10.21,0,0,1,3.43.69,13.81,13.81,0,0,1,1.44.72l37.8,22c1.06.61,3.67,2.75,3.67,3.81.91,1.7.17,3.67-2,5.06-.09.07-.66.42-.77.48L56.5,112.84c-.18.1-.71.39-.9.48a12.28,12.28,0,0,1-4.93,1.17,9.43,9.43,0,0,1-4.85-1.09L7.51,91.11c-1.06-.6-3.74-2.78-3.74-3.85-.92-1.7-.17-3.69,2-5.09.08-.06.55-.34.65-.4Z"/>
                    <path class="cls-9"
                          d="M41.08,61.69a11.51,11.51,0,0,1,6-1.4A10.35,10.35,0,0,1,50.4,61c.25.1,1.19.59,1.41.72L89.1,83.43c.87.5,3.79,2.71,3.79,3.6,1.09,1.61.47,3.57-1.62,5-.11.09-.62.4-.76.48L56.43,112.56c-.15.08-.73.4-.88.47a12,12,0,0,1-4.83,1.17,9.13,9.13,0,0,1-4.76-1l-37.9-22c-.88-.5-3.87-2.76-3.87-3.65-1.11-1.62-.47-3.6,1.68-5l.63-.4Z"/>
                    <path class="cls-10"
                          d="M40.61,62.37A11.14,11.14,0,0,1,46.48,61a10,10,0,0,1,3.31.74c.2.09,1.2.62,1.38.73L87.94,83.87c.7.41,3.92,2.69,3.92,3.4,1.27,1.52.77,3.47-1.28,4.88-.13.1-.59.38-.75.48L56.36,112.27l-.86.47a11.71,11.71,0,0,1-4.73,1.18,8.91,8.91,0,0,1-4.67-1L8.62,91.11c-.7-.4-4-2.74-4-3.45C3.31,86.13,3.84,84.14,6,82.73c.12-.09.5-.32.63-.4Z"/>
                    <path class="cls-11"
                          d="M40.13,63.05a11,11,0,0,1,5.8-1.32,9.57,9.57,0,0,1,3.25.77c.15.06,1.22.64,1.35.72L86.78,84.31c.53.31,4.06,2.66,4.06,3.2,1.45,1.42,1.06,3.37-1,4.79a7.61,7.61,0,0,1-.73.47L56.29,112l-.84.46a11.57,11.57,0,0,1-4.63,1.19,8.66,8.66,0,0,1-4.58-1L9.17,91.11C8.65,90.81,5,88.39,5,87.85,3.54,86.42,4,84.43,6,83a7.36,7.36,0,0,1,.62-.4Z"/>
                    <path class="cls-12"
                          d="M39.66,63.73a10.7,10.7,0,0,1,5.71-1.28,9.17,9.17,0,0,1,3.2.79c.1,0,1.23.67,1.32.73L85.63,84.76c.35.2,4.18,2.63,4.18,3,1.63,1.33,1.36,3.27-.61,4.7a8.15,8.15,0,0,1-.72.47L56.22,111.7l-.82.47a11.6,11.6,0,0,1-4.52,1.19,8.46,8.46,0,0,1-4.5-.93L9.73,91.11c-.35-.2-4.29-2.7-4.29-3.06-1.67-1.35-1.37-3.33.69-4.77l.6-.38Z"/>
                    <path class="cls-13"
                          d="M39.19,64.4a10.41,10.41,0,0,1,5.63-1.23A8.84,8.84,0,0,1,48,64l1.29.73L84.47,85.2c.18.1,4.31,2.61,4.31,2.79,1.81,1.24,1.66,3.17-.27,4.61a8,8,0,0,1-.71.47L56.15,111.42l-.8.46a11.3,11.3,0,0,1-4.42,1.2,8.33,8.33,0,0,1-4.41-.89L10.29,91.11c-.18-.1-4.44-2.68-4.44-2.86C4,87,4.19,85,6.21,83.56c.17-.12.41-.27.6-.38Z"/>
                    <path d="M46.66,112,6.27,88.45c-2.22-1.28-1.94-3.52.62-5L38.72,65.08c2.55-1.47,6.42-1.63,8.64-.36l40.39,23.5c2.21,1.28,1.93,3.52-.62,5L55.3,111.59C52.74,113.06,48.87,113.22,46.66,112Z"/>
                </g>
                <polygon class="cls-14" points="50.71 106.05 50.71 115.3 88.12 93.7 88.12 84.45 50.71 106.05"/>
                <polygon class="cls-15" points="50.74 106.05 50.74 115.3 2.7 87.29 2.7 78.07 50.74 106.05"/>
                <polygon class="cls-16" points="2.7 78.07 50.74 106.05 88.12 84.45 40.02 56.44 2.7 78.07"/>
                <polygon class="cls-17" points="56.06 48.67 56.06 107.92 90.16 88.34 90.16 29.1 56.06 48.67"/>
                <polygon class="cls-18" points="56.09 48.67 56.09 107.92 6.18 78.82 6.18 19.61 56.09 48.67"/>
                <polygon class="cls-19" points="6.18 19.61 56.09 48.67 90.16 29.1 40.19 0 6.18 19.61"/>
                <polygon class="cls-20" points="49.89 52.14 49.89 111.38 55.47 108.16 55.47 48.92 49.89 52.14"/>
                <polygon class="cls-21" points="49.91 52.14 49.91 111.38 0 82.28 0 23.07 49.91 52.14"/>
                <polygon class="cls-22" points="0 23.07 49.91 52.14 55.47 48.92 5.5 19.82 0 23.07"/>
                <ellipse class="cls-23" cx="24.84" cy="67.81" rx="11.25" ry="19.48"
                         transform="translate(-30.83 21.81) rotate(-30.31)"/>
                <path class="cls-24"
                      d="M37.22,75.82c0,4.11-1.42,7-3.72,8.42l-2.72,1.67c-2.39,1.34-.86-1.7-4.5-3.8C19,77.88,13,67.65,13,59.24c0-4.15-3.85-4.18-1.49-5.57l3.17-1.74c2.39-1.29,5.65-1,9.25,1C31.28,57.18,37.22,67.42,37.22,75.82Z"/>
                <ellipse class="cls-25" cx="20.91" cy="69.94" rx="10.79" ry="18.69"
                         transform="translate(-32.44 20.12) rotate(-30.31)"/>
                <path class="cls-26"
                      d="M21.55,54.41c-3.51-2-6.7-2.3-9.07-1.11,2.21-.62,4.95-.16,7.92,1.56,7.32,4.23,13.26,14.46,13.26,22.87,0,4.37-1.61,7.38-4.19,8.67,3.24-.91,5.33-4.13,5.33-9.12C34.8,68.88,28.87,58.64,21.55,54.41Z"/>
                <g class="cls-27">
                    <path class="cls-28" d="M27.13,61.82l-1.22,1.42.39.5,1.19-1.45-.3-.39Z"/>
                    <path class="cls-28" d="M26.37,60.86l-.3-.33-.09-.1L25,62.1l.05,0,.35.4Z"/>
                    <path class="cls-28" d="M26.15,86.34h.19l-1-3H25l1.06,3Z"/>
                    <path class="cls-28" d="M25.17,59.53l-.35-.35,0,0-.8,1.9.07.07.34.34Z"/>
                    <path class="cls-28" d="M28.53,85.94,27.08,83l-.27.1L28.28,86Z"/>
                    <path class="cls-28" d="M27.26,86.26l.22,0-1.25-3-.3,0,1.27,3Z"/>
                    <path class="cls-28" d="M28.2,63.3l-1.4,1.15.36.54,1.38-1.18-.34-.5Z"/>
                    <path class="cls-28" d="M24.91,86.24l.24,0-.81-2.92L24,83.3l.83,2.93Z"/>
                    <path class="cls-28" d="M30.78,76.52c0,.15,0,.29,0,.43L33,78.38c0-.14,0-.27,0-.41Z"/>
                    <path class="cls-28" d="M21,84.85l.36.19-.1-2.65a3.6,3.6,0,0,1-.39-.2Z"/>
                    <path class="cls-28" d="M21,56.06l-.13,2.49.4.26.11-2.51Z"/>
                    <path class="cls-28" d="M23.9,86l-.57-2.86-.36-.1.6,2.86Z"/>
                    <path class="cls-28" d="M23.53,58,23,60.1l.41.36.56-2.14Z"/>
                    <path class="cls-28" d="M27.62,65.73l.33.57,1.54-.91-.3-.53Z"/>
                    <path class="cls-28" d="M22.62,85.62l-.34-2.77-.38-.15.37,2.78Z"/>
                    <path class="cls-28" d="M22.25,57l-.36,2.32.41.3.34-2.33Z"/>
                    <path class="cls-28" d="M30.4,72.6c0,.18.07.36.1.54l2.15.56c0-.17-.06-.33-.1-.5Z"/>
                    <path class="cls-28" d="M29.5,85.47l-1.63-2.83-.25.14,1.65,2.82Z"/>
                    <path class="cls-28" d="M32.58,81.09l.09-.33-2.2-2-.09.36Z"/>
                    <path class="cls-28" d="M32.28,82,30.15,79.8c0,.1-.08.21-.13.32l2.15,2.16.09-.23Z"/>
                    <path class="cls-28"
                          d="M30.78,75.74,33,76.88c0-.14,0-.29,0-.44l-2.24-1.17C30.77,75.42,30.78,75.58,30.78,75.74Z"/>
                    <path class="cls-28"
                          d="M32.84,74.84,30.64,74c0,.15,0,.31.06.5l2.2.86A3.93,3.93,0,0,0,32.84,74.84Z"/>
                    <path class="cls-28"
                          d="M30.62,78.1l2.25,1.68c0-.12,0-.24.05-.37L30.68,77.7C30.66,77.85,30.64,78,30.62,78.1Z"/>
                    <path class="cls-28"
                          d="M32.12,71.52l-2.07-.3c.05.17.09.34.13.51v0l2.07.26v0C32.21,71.85,32.17,71.68,32.12,71.52Z"/>
                    <path class="cls-28" d="M30.36,84.83l-1.79-2.72-.21.19,1.8,2.7Z"/>
                    <path class="cls-28" d="M30.09,66.48l-1.73.59c.1.19.2.38.29.57L30.36,67h0Z"/>
                    <path class="cls-28" d="M31.09,84.08l0,0-1.93-2.57-.18.23L31,84.25C31,84.19,31,84.13,31.09,84.08Z"/>
                    <path class="cls-28"
                          d="M30.88,68.14l-1.86.3c.09.19.16.38.24.58l1.85-.33,0-.09C31,68.45,31,68.29,30.88,68.14Z"/>
                    <path class="cls-28" d="M31.56,69.83h-2c.06.18.12.35.17.52l0,.06,2,0a.56.56,0,0,1,0-.12Z"/>
                    <path class="cls-28" d="M31.62,83.34a.91.91,0,0,0,.09-.17.41.41,0,0,0,.05-.09l-2-2.39-.15.27Z"/>
                    <path class="cls-28" d="M10.57,67.76c0-.18-.08-.36-.11-.54l-2.14-.56c0,.17.06.33.1.5Z"/>
                    <path class="cls-28" d="M9.4,70.53h2c-.06-.16-.12-.33-.17-.49l0-.08-2,0,0,.13Z"/>
                    <path class="cls-28"
                          d="M9.2,57.28l2,2.39c0-.09.1-.19.16-.28L9.34,57l-.09.16A.47.47,0,0,1,9.2,57.28Z"/>
                    <path class="cls-28" d="M9.89,56.27l-.05.06,1.93,2.57.19-.24-2-2.55Z"/>
                    <path class="cls-28" d="M10.6,55.53l1.79,2.71.22-.18L10.8,55.35Z"/>
                    <path class="cls-28" d="M12.6,73.29l-.29-.58-1.7.62.27.55Z"/>
                    <path class="cls-28"
                          d="M8.84,68.84l2.08.3c-.05-.17-.1-.34-.14-.52v0L8.7,68.31v0C8.75,68.51,8.8,68.67,8.84,68.84Z"/>
                    <path class="cls-28" d="M10.08,72.22l1.86-.3-.24-.58-1.84.33,0,.11Z"/>
                    <path class="cls-28" d="M20,84.3l.13-2.49-.4-.26-.1,2.51Z"/>
                    <path class="cls-28" d="M10.18,63.84l0-.44L8,62c0,.14,0,.27,0,.41Z"/>
                    <path class="cls-28"
                          d="M8,63.92l2.24,1.17c0-.16,0-.31,0-.47L7.94,63.48C7.94,63.62,8,63.77,8,63.92Z"/>
                    <path class="cls-28" d="M8.12,65.51l2.21.89a4.53,4.53,0,0,1-.06-.5L8.06,65Z"/>
                    <path class="cls-28" d="M10.34,62.26,8.1,60.57c0,.13,0,.25,0,.38l2.23,1.71Z"/>
                    <path class="cls-28" d="M8.68,58.38l2.13,2.18c0-.11.08-.21.13-.32L8.8,58.08l-.09.23Z"/>
                    <path class="cls-28" d="M11.47,54.89l1.63,2.83.24-.14L11.7,54.76Z"/>
                    <path class="cls-28" d="M8.38,59.27c0,.11-.06.22-.08.33l2.19,2c0-.12.06-.24.1-.36Z"/>
                    <path class="cls-28" d="M16.05,54.12l-.23,0,.8,2.92.34,0-.83-2.92Z"/>
                    <path class="cls-28" d="M17.43,82.38,18,80.26l-.42-.36L17,82Z"/>
                    <path class="cls-28" d="M15.8,80.83c.11.11.22.23.34.34l0,0,.81-1.9-.06-.06-.35-.35Z"/>
                    <path class="cls-28" d="M17.06,54.32l.58,2.86.36.1-.6-2.86Z"/>
                    <path class="cls-28" d="M18.34,54.73l.34,2.77.38.15-.37-2.77Z"/>
                    <path class="cls-28" d="M13.34,74.62c-.11-.18-.22-.37-.32-.56l-1.55.9c.1.18.2.36.31.54Z"/>
                    <path class="cls-28" d="M18.71,83.41l.36-2.32-.41-.31-.33,2.34Z"/>
                    <path class="cls-28" d="M19.64,55.32,19.75,58l.39.2L20,55.51Z"/>
                    <path class="cls-28" d="M12.77,77.05l1.39-1.15-.36-.53-1.37,1.18.33.49Z"/>
                    <path class="cls-28" d="M12.44,54.42l1.44,2.91.27-.09-1.46-2.9Z"/>
                    <path class="cls-28" d="M13.7,54.1l-.21,0,1.25,2.95L15,57l-1.26-2.94Z"/>
                    <path class="cls-28" d="M14.6,79.5l.3.34.08.09,1-1.67,0,0-.37-.42Z"/>
                    <path class="cls-28" d="M14.81,54h-.19l1,3H16L14.92,54Z"/>
                    <path class="cls-28" d="M13.84,78.54l1.21-1.42c-.13-.16-.26-.33-.38-.5l-1.2,1.44.3.39Z"/>
                </g>
                <path class="cls-29"
                      d="M27.29,75.5c0,2.45-.84,4.18-2.21,5l-5,1.31c-1.29.69-.46-.87-2.42-2-3.93-2.17-7.11-7.42-7.11-11.74,0-2.13-2.07-2.14-.8-2.86l4.11-4c1.46-.79,3.41-.65,5.56.59C23.75,64.38,27.29,70.49,27.29,75.5Z"/>
                <path class="cls-30"
                      d="M21.87,77.57c0,4.31-3.19,6.05-7.12,3.88S7.63,74,7.63,69.71s3.19-6,7.12-3.88S21.87,73.25,21.87,77.57Z"/>
                <path class="cls-31"
                      d="M15.07,65.64c-1.9-1-3.62-1.18-4.9-.57a5.86,5.86,0,0,1,4.28.8c3.95,2.19,7.15,7.47,7.15,11.8,0,2.26-.87,3.81-2.26,4.48,1.75-.47,2.88-2.13,2.88-4.71C22.22,73.11,19,67.83,15.07,65.64Z"/>
                <polygon class="cls-32" points="21.58 63.69 26.51 60.41 23.95 66.2 21.58 63.69"/>
                <polygon class="cls-33"
                         points="49.98 85.74 50.24 52.42 55.47 49.1 49.98 51.89 4.56 25.82 49.59 52.42 49.98 85.74"/>
            </g>
        </g>
    </g>
</svg>