<svg xmlns="http://www.w3.org/2000/svg" viewBox="0 0 288.91 408.79"><defs><style>.cls-1{fill:#c36f5f;}.cls-2{fill:#b35f4a;}.cls-3{fill:#e3e9f7;}.cls-4{fill:#cbd1da;}.cls-5{fill:#fef5e8;}.cls-6{fill:#f8e3c6;}.cls-7{fill:#bbc1cb;}.cls-8{fill:#fefefe;}.cls-9{fill:#338dee;}.cls-10{fill:#54a0fe;}.cls-11{fill:#ed5253;}.cls-12{fill:#8ac1fe;}.cls-13{fill:#fe6b6b;}</style></defs><g id="Слой_2" data-name="Слой 2"><g id="Layer_1" data-name="Layer 1"><path class="cls-1" d="M198.8,45.65c22.08,0,44.16-.14,66.24,0,13.65.08,23.25,9.62,23.84,23.27.06,1.33,0,2.66,0,4V379.8c0,17.11-3.58,22.55-19.09,29H44.72c-11.54-2.2-18.73-9.74-20-21.15-.22-2-.92-4.27,1.52-5.62,8.39-.09,16.78.05,25.16,0q100.75-.14,201.51-.05c9.21,0,9.21,0,9.21-9.09V81.5c0-9.1,0-9.1-8.93-9.11q-24.15,0-48.28,0c-2.11,0-4.29.26-6.21-1a4.92,4.92,0,0,1-1.13-3.33q-.24-9.57,0-19.14A4.18,4.18,0,0,1,198.8,45.65Z"/><path class="cls-2" d="M25.66,382.3C25.17,396,30,402.65,44.72,408.79H17.58c-2.7-2.08-6.16-2.72-8.83-5A23.35,23.35,0,0,1,.08,386.16c-.15-4.25,0-8.51,0-12.76Q0,221.83.05,70.26C.05,56.54,9.3,46,21.94,45.64c7.3-.23,14.62,0,21.93,0,0,1.56-1.24,1.93-2.29,2.34C30,52.56,26.27,61.68,26.79,73.3c.17,22.76.07,45.5.08,68.25q0,116.52,0,233C26.84,377.19,27.48,380,25.66,382.3Z"/><path class="cls-3" d="M198.8,45.65q0,12.7,0,25.41c2.15,4.84-.09,9.66-5.2,11.19a16.37,16.37,0,0,1-4.73.48q-32.58,0-65.16,0a16.2,16.2,0,0,1-4.33-.41c-5.72-2.86-7.53-9.61-4.39-16.35,1.94-1.19,4.12-.9,6.22-.9,15.69,0,31.39,0,47.08,0,1.59,0,3.19,0,4.78-.1,2.81-.26,5-1.39,5.05-4.54s-2-4.39-4.86-4.7a42.33,42.33,0,0,0-4.78-.13c-15.69,0-31.38,0-47.08,0-2.1,0-4.27.28-6.25-.8-3.69-6.88-1.39-14.08,5.28-16.61,7.64-.54,7.55-.54,7.78-8.29.07-2-1.14-4.83,2.11-5.83,1.84,3.08.94,6.48,1,9.72,0,3,1.16,4.28,4.23,4.22q8.94-.18,17.88,0c3,.06,4.24-1.1,4.29-4.17.05-3.25-.84-6.64,1-9.72,2.12-.25,1.83,1.5,2,2.64a32.33,32.33,0,0,1,.16,5.57c0,5.55,0,5.54,5.46,5.67,1.84,0,3.75-.15,5.3,1.21,6.21,0,12.42,0,18.63,0C195.21,39.18,197.2,40.72,198.8,45.65Z"/><path class="cls-1" d="M25.68,72.07C25,61,30.54,50.17,41.87,46.9a9.28,9.28,0,0,0,2-1.21l46.31,0c.19.19.5.37.53.58,1.12,8.35,1.62,16.7-.28,25-1.59,1.24-3.49,1.1-5.32,1.1-11,0-22,.07-32.95,0-7.52-.07-15,0-22.56,0A9.79,9.79,0,0,1,25.68,72.07Z"/><path class="cls-4" d="M130.09,24c-1.62,3.54-.78,7.29-.66,10.9s-1.08,4.81-4.52,4.34a33.35,33.35,0,0,0-4.36-.05c-.24-.31-.6-.61-.64-1-.45-5-1.15-10-1.77-15,.93-10.57,7.29-17.38,16.42-21.08,12.93-5.24,26-.29,33.35,11.53a27.11,27.11,0,0,1,3.67,13.22c.2,4.1,0,8.22,0,12.33-2.65,0-5.32-.17-7.95.05-3.05.26-4.17-.69-4.11-4,.06-3.75.93-7.62-.67-11.3-1-.62-1.22-1.71-1.68-2.64-2.63-5.24-7-8.1-12.73-8.1s-10.09,2.86-12.72,8.1C131.3,22.25,131.06,23.34,130.09,24Z"/><path class="cls-4" d="M118.14,23.16c3.15,5,2.38,10.54,2.41,16-4,.8-5.73,3.31-5.62,7.29.07,2.62,0,5.25,0,7.87a1.25,1.25,0,0,1-.23.31c-6.5,4.67-6.45,7,.23,11.7,0,2.25.14,4.52-.08,6.74a8.3,8.3,0,0,0,4,8.39,2.85,2.85,0,0,1-2.08,1c-6.9.32-13.84.7-20.69-.15-5.73-.71-8.27-6-6-11.28q0-12.69,0-25.4c1.62-5.23,3.2-6.46,8.47-6.48,5,0,10.07-.14,15.1,0,2.72.1,3.65-.72,3.7-3.55C117.52,31.5,116.44,27.24,118.14,23.16Z"/><path class="cls-5" d="M90.19,71.06c.11,8.66,1.87,10.41,10.49,10.41l18.25,0,69.23,0c8.61,0,10.55-1.9,10.63-10.41l58.64.07c5.81,0,5.94.12,5.94,5.71q0,150.44,0,300.86c0,5.25-.24,5.55-4.82,5.55H53.49c-.79,0-1.59-.07-2.38-.11-1.54-.74-1.86-2.15-2-3.66S49,376.56,49,375.1V79.42c0-1.59,0-3.19.13-4.78.17-1.76.89-3,2.76-3.41Z"/><path class="cls-6" d="M51.89,71.23c-1.8,1.08-1.61,2.83-1.61,4.57q0,151.35,0,302.71c0,1.59-.18,3.21.82,4.63-7.38,0-14.76.07-22.14.13a4.68,4.68,0,0,1-3.31-1c0-1.33-.09-2.66-.09-4q0-151.12,0-302.25c0-1.33.07-2.66.11-4a4.93,4.93,0,0,1,3.31-1C36.63,71.15,44.26,71.18,51.89,71.23Z"/><path class="cls-7" d="M115,66.32c-4,0-5.83-2.56-5.86-6s2.07-5.81,5.86-6h57.36c5.1,0,7.4,2,7.31,6.2-.08,4-2.35,5.79-7.3,5.79Z"/><path class="cls-8" d="M130.09,24a14.67,14.67,0,0,1,28.81,0c0,4-.11,8,0,11.92.07,2.29-.53,3.37-3.08,3.33q-11.32-.2-22.65,0c-2.56,0-3.16-1-3.09-3.33C130.2,31.91,130.1,27.93,130.09,24Z"/><path class="cls-6" d="M203.1,207.68c-1.27,1.53-2.43,3.18-3.83,4.58-2.2,2.21-6.27,2.48-8.29.49-2.42-2.39-2.77-5.59-.62-7.95,5.27-5.8,10.86-11.33,16.58-16.69,2.35-2.2,5.29-1.66,7.57.57,5.14,5,10.25,10.06,15.22,15.25,2.45,2.56,2.37,6.62.2,8.68s-6.25,1.77-8.94-.68c-1.23-1.13-2.34-3.6-3.84-3-1.84.79-.87,3.38-.75,5.09.87,12.33-8,25.51-20.61,28.15a51.59,51.59,0,0,1-10.6,1.32c-25.8,0-51.61.21-77.41-.14-8-.1-16,7.29-15.23,15.36a48.15,48.15,0,0,1,0,10c-1.2,10.68,6.63,18.06,18.21,18,26.2-.2,52.41,0,78.62-.1,14.52-.08,27.37,12.5,26.94,27.15-.19,6.49.8,13-.8,19.45a27.1,27.1,0,0,1-26.13,20.5q-48.09,0-96.18,0c-4.41,0-7.27-1.77-7.75-4.72-.65-4,2.32-7.21,7-7.23,9.58-.06,19.16,0,28.73,0h66.25c10.74,0,17-6.31,17-17.17,0-2.79-.2-5.6,0-8.37.9-10.46-7.49-17.85-17.4-17.7-26.07.38-52.15.15-78.22.12-13,0-24.18-7.68-27.31-20.06-2.87-11.32-3.23-23,2.61-33.66,4.22-7.71,11-12.64,20.06-13.28,26.81-1.91,53.68-1,80.5-.58C199.89,231.29,206.3,222,203.1,207.68Z"/><path class="cls-6" d="M144.3,119.8c-6.51,0-13,0-19.53,0-4.61,0-7.39-2.37-7.31-6.07s2.73-5.88,7.09-5.89q19.94-.06,39.87,0c4.36,0,7,2.27,7.1,5.87s-2.69,6.06-7.29,6.09C157.59,119.82,151,119.8,144.3,119.8Z"/><path class="cls-9" d="M222,166.25c-2.38,2.66-4.64,5.44-7.17,7.94-2.94,2.9-6,3.14-8.73.18-6.5-6.93-13.38-13.52-19.25-21a5.35,5.35,0,0,1,4.06-1.21c6.05,0,12.11-.23,18.15.14a5.15,5.15,0,0,1,1.27.32c4.61,3.13,7.83,7.63,11.35,11.82A1.74,1.74,0,0,1,222,166.25Z"/><path class="cls-10" d="M210.74,153.33l-23.85,0a70.67,70.67,0,0,1,9-15.3c1.34-1.83,3.48-2.27,5.69-2.25l19.5.1c.32.27.61.73.41,1C217.64,142.23,215.27,148.49,210.74,153.33Z"/><path class="cls-11" d="M73.46,331.36l-1.76,1.48c-3.93,3-8.43,2.77-11.8-.5-4.95-3.35-7.4-8-6.24-13.91A12.19,12.19,0,0,1,63,308.64a11.4,11.4,0,0,1,10.47,2c1,1.41,0,2.52-.62,3.61-2.5,4.51-2.86,9,0,13.48C73.52,328.79,74.46,330,73.46,331.36Z"/><path class="cls-3" d="M59.9,332.34c3.86,1.89,7.81,1.77,11.8.5a28.48,28.48,0,0,1-.38,17.68c-1,2.72-3.7,3.77-6.58,3-3.49-.89-4.66-3.78-4.79-6.95C59.75,341.86,59.9,337.1,59.9,332.34Z"/><path class="cls-12" d="M210.74,153.33c2.8-6.18,6.73-11.7,10.3-17.43a6.51,6.51,0,0,1,4.45,3c3.07,4.65,6.36,9.2,8.29,14.52-4.14,2.21-8.61,1-12.92,1.15-3.39.1-6.94.77-10.12-1.2Z"/><path class="cls-10" d="M210.74,153.33l23,0A143.19,143.19,0,0,1,222,166.25Z"/><path class="cls-13" d="M73.46,331.36c-4.82-6.9-4.7-13.8,0-20.71C80.81,316.66,80.82,325.31,73.46,331.36Z"/></g></g></svg>