<svg xmlns="http://www.w3.org/2000/svg" viewBox="0 0 408.61 408.8"><defs><style>.cls-1{fill:#338cee;}.cls-2{fill:#3d93f1;}.cls-3{fill:#4999f2;}.cls-4{fill:#549ffe;}.cls-5{fill:#1c78d2;}</style></defs><g id="Слой_2" data-name="Слой 2"><g id="Layer_1" data-name="Layer 1"><path class="cls-1" d="M108.57,242.71a35.14,35.14,0,0,0,8.5-6.51q59.35-59.41,118.82-118.7c7.13-7.07,9.26-15,8.2-24.56-3.23-29.31,6.22-53.84,28.43-73.27a78,78,0,0,1,43-19c.46,0,.88-.47,1.31-.72h4a27.46,27.46,0,0,0,10.38,0h4c.18.84.94.74,1.52.94-.61,2.24-2.72,1.79-4.21,2.13-15.86,3.66-29.58,11.17-40.67,23.05C274.58,44.64,267,66.61,269.8,91.9c1.13,10.33-1,19-8.84,26.73Q201.82,177,143.42,236.18c-7.76,7.86-16.39,10.21-26.7,8.88-1.84-.24-3.67-.53-5.53-.68C110.13,244.29,108.63,244.54,108.57,242.71Z"/><path class="cls-1" d="M0,316.09c2.07-6.61,2.8-13.57,5.54-20,12.45-29.24,34.15-46.7,65.63-51.87,5.82-1,11.62-.78,17.44-.6,1.29.64,2.79-.16,4.06.59a.93.93,0,0,1,.69.09c-.25,2.15-2.12,1.65-3.37,1.94C73.9,250,59.87,257.44,48.5,269.5a81.16,81.16,0,0,0-22.72,54.33c-.06,1.72.13,3.48-1.07,4.95-5.07,5.18-10,10.5-15.25,15.47-3.25,3.08-6.7,1.65-8-2.64-.63-2.11.08-4.5-1.47-6.36v-.8a13.67,13.67,0,0,0,0-7.18Z"/><path class="cls-2" d="M331.22,0a14.3,14.3,0,0,1-10.38,0Z"/><path class="cls-3" d="M0,327.27a7.19,7.19,0,0,1,0,7.18Z"/><path class="cls-4" d="M24.71,328.78c-.33-19.3,4.93-36.81,16.62-52.31,12.94-17.16,29.87-27.76,51.06-31.53.35-.06.64-.43,1-.65,5.12,0,10.34.86,15.21-1.58,12.63,2.4,24.11,3.17,34.67-7.64,38.67-39.58,77.93-78.58,117.32-117.45,7.49-7.4,9.58-15.71,8.26-25.3a76.52,76.52,0,0,1,4.29-37.88c9.43-25.13,27-42.08,52.59-50.54,3.61-1.19,7.35-2,11-3,.92.11,1.84.2,2.75.34,2.35.36,5,.37,5.91,3.18,1,3.1-1.11,5-3,6.84C325.18,28.51,308,45.78,290.7,62.88c-2.89,2.86-3.85,5.51-2.68,9.53,3.21,11.09,6.07,22.28,9,33.46a7.36,7.36,0,0,0,5.8,5.8q17.34,4.48,34.62,9.21a7.32,7.32,0,0,0,5.77-.37c4.53.31,8.84,1.68,13.11,3,3.74,1.18,6.48.5,9.26-2.32,12.73-12.93,25.6-25.72,38.46-38.52,1.26-1.25,2.24-3.07,4.47-2.89a82.68,82.68,0,0,1-68.2,84.31,73,73,0,0,1-24.19.52c-9.83-1.52-18,1-25.26,8.33Q232.18,232.2,173,290.86c-7.37,7.3-9.53,15.4-8.39,25.27,3.17,27.61-5.61,51.06-25.56,70.24C126.9,398,112.17,404.71,95.7,407.68a17,17,0,0,1-2.38.1c-2.23-.46-4.92.13-6-2.88-1.11-3.24.21-5.72,2.38-7.92,10.47-10.6,21.05-21.08,31.57-31.63,6.86-6.87,13.66-13.81,20.64-20.56,2.6-2.52,3.38-5,2.26-8.55-2.42-7.6-4.56-15.3-6.46-23.05-1.17-4.8-3.58-7.64-8.64-8.55-4.69-.84-9.22-2.54-13.9-3.58a13.82,13.82,0,0,1-5.38-2.46c-10.25-3.71-20.89-6-31.39-8.79-13.54-3.62-9.66-4.68-20.06,5.55C47.11,306.45,35.93,317.64,24.71,328.78Z"/><path class="cls-1" d="M109.83,298.6c7.65,2,15.31,4.06,23,6a6.23,6.23,0,0,1,4.77,4.76c2.73,9.67,5.56,19.31,8.32,29,.76,2.64-.56,4.45-2.38,6.27q-25.43,25.28-50.73,50.68L91.1,397c-5.19,5.23-4.56,8.28,2.22,10.76-8.32,1.71-16.62,1-24.91-.25-2.18-.34-4.59-.77-5.31-3.46s.82-4.5,2.57-6.25c17.2-17.16,34.28-34.44,51.62-51.45,3.49-3.43,4.41-6.46,3-11.19-3.19-10.35-5.7-20.92-8.54-31.38C111.23,302,110.46,300.33,109.83,298.6Z"/><path class="cls-1" d="M408.48,79.82C394.27,94,380,108,365.92,122.3c-3,3-5.84,3.71-9.58,2.23-4.27-1.7-9.1-1.58-13.16-4q27.7-27.79,55.43-55.58c3.76-3.75,7.49-2.52,8.57,2.68C408,71.62,409,75.66,408.48,79.82Z"/><path class="cls-4" d="M92.67,244.2c-1.38,0-2.83.48-4.06-.59C90,243.47,91.43,243.28,92.67,244.2Z"/><path class="cls-5" d="M171.66,253.86c-4.79,5.64-11.23,6.3-16.31,1.69-6.49-5.9-7.09-12.28-1.49-17.89q41.79-41.88,83.66-83.67c5.56-5.56,12-5.19,17.15.83.29,2.44-1.77,3.43-3.09,4.76q-37.8,37.9-75.67,75.73a43,43,0,0,0-3.31,3.44c-3,3.69-4.12,7.66-1.74,12.15C171.34,251.81,172.07,252.69,171.66,253.86Z"/><path class="cls-1" d="M171.66,253.86c-4.69-6.76-4.29-11.35,1.59-17.23q39.1-39.15,78.24-78.27c1.12-1.12,2.12-2.36,3.18-3.54,5.68,4.28,4.15,12.35.06,16.39C230,195.7,205.44,220.39,180.81,245,177.81,248,174.71,250.91,171.66,253.86Z"/></g></g></svg>