<svg xmlns="http://www.w3.org/2000/svg" viewBox="0 0 295 383.56"><defs><style>.cls-1{fill:#f37c7c;}.cls-2{fill:#ed6161;}.cls-3{fill:#fcd4d4;}.cls-4{fill:#e84444;}</style></defs><g id="Слой_2" data-name="Слой 2"><g id="Layer_1" data-name="Layer 1"><path class="cls-1" d="M257,383.56H16.76C5.18,380.81.07,374.39.06,362.07Q0,269.9,0,177.72,0,101.25,0,24.78a44.37,44.37,0,0,1,.26-7.47C1.85,8.25,7.61-.28,20.18,0c9.47.25,19,0,28.42,0q81.53,0,163,0c1.45,0,3-.46,4.36.49a34.75,34.75,0,0,1,.81,8.87c0,16.58-.06,33.15,0,49.73,0,8.35,3.4,14.72,11.48,18a25.06,25.06,0,0,0,9.52,1.6c9.35,0,18.7-.06,28,0,2.05,0,4.31-.41,6,1.46,1.5,2.79,1.07,5.83,1.07,8.79q0,102.41,0,204.79,0,32.52,0,65a46.48,46.48,0,0,1-.47,7.81C270.65,377.22,267.07,381.16,257,383.56Z"/><path class="cls-2" d="M293.59,79.1C295.3,80,295,81.58,295,83q0,140,0,280c0,10.79-5.74,17.23-15.58,20.57H257c5.36-2.39,10-5.55,12.25-11.31a32.66,32.66,0,0,0,1.95-12.08V80.55c1-1.94,2.92-1.69,4.59-1.71A168.72,168.72,0,0,1,293.59,79.1Z"/><path class="cls-3" d="M38.34,229.6q0-44.32,0-88.63c0-13.81,7.7-21.49,21.55-21.49q88.64,0,177.27,0c13.64,0,21.41,7.72,21.41,21.27q0,89,0,178c0,13.55-7.79,21.32-21.38,21.32q-88.81,0-177.64,0c-13.35,0-21.2-7.82-21.21-21.1Q38.31,274.28,38.34,229.6Z"/><path class="cls-4" d="M293.59,79.1c-.8,1.82-2.46,1.37-3.87,1.38-6.19.06-12.38,0-18.57.07l-34-.11c-14.27,0-22.1-7.92-22.1-22.26q0-26.13,0-52.26c0-1.58-.4-3.26.69-4.7Z"/><path class="cls-2" d="M110.52,232.09c0-13.72,0-27.44,0-41.15,0-3.4.49-6.51,3.74-8.41s6.16-.55,9.06,1.21q33.75,20.43,67.54,40.8c.74.45,1.5.89,2.22,1.39,5,3.46,5,9.32-.14,12.54-9.31,5.81-18.74,11.42-28.13,17.09-13.87,8.38-27.76,16.72-41.61,25.15-2.81,1.71-5.59,2.81-8.76,1.18-3.4-1.75-3.92-4.89-3.91-8.28Q110.54,252.85,110.52,232.09Z"/></g></g></svg>