<svg xmlns="http://www.w3.org/2000/svg" viewBox="0 0 314.06 383.66"><defs><style>.cls-1{fill:#ecf5fe;}.cls-2{fill:#ed4659;}.cls-3{fill:#e4e4e4;}.cls-4{fill:#626c78;}.cls-5{fill:#f6f6f6;}</style></defs><g id="Слой_2" data-name="Слой 2"><g id="Layer_1" data-name="Layer 1"><path class="cls-1" d="M291.72,383.66H1.39c-1.73-2-1.29-4.48-1.29-6.81q0-42.64,0-85.29Q.08,181.78.12,72c0-2.52-.75-5.31,1.56-7.39,6.82-.66,13.66-.23,20.5-.28,12.31-.08,24.63,0,37,0,6.06,0,6.07,0,6.08-5.92q0-26.13,0-52.27A34.92,34.92,0,0,1,65.47.89c.9-1.33,2.28-.78,3.44-.78q109.8,0,219.61,0c3.68,0,4.18.5,4.44,4.3.12,1.74.06,3.49.06,5.24q0,79.89,0,159.79c0,7.11,0,7.1,7.22,7.11,3.12,0,6.24-.13,9.35.09,1.51.11,3.4-.21,3.91,2-1.89,1.69-4.23,1.24-6.43,1.25q-29.35.06-58.73,0H74.79c-7,0-7,0-7,7q0,65.28,0,130.58c0,6.53,0,6.54,6.62,6.54q116.16,0,232.3,0c2.45,0,5-.52,7.27,1,.09,2.56-2,2.05-3.35,2.16-3.71.29-7.45.1-11.18.11-6.44,0-6.45,0-6.46,6.31,0,14.67,0,29.34,0,44C293,379.7,293.28,381.88,291.72,383.66Z"/><path class="cls-2" d="M313.42,178.51c1,1.34.51,2.89.51,4.33q0,68.88,0,137.75c0,1.5.06,3,.1,4.48-1.43.65-2.95.42-4.43.42q-119.32,0-238.65.11c-3.46,0-4.6-.63-4.59-4.39q.23-69.22,0-138.44c0-3.38.81-4.29,4.25-4.28q119,.16,237.9.09C310.18,178.58,311.8,178.54,313.42,178.51Z"/><path class="cls-3" d="M146.57,113.46H35.51c-4.92,0-4.92,0-4.93-5,0-4.11.08-8.23,0-12.34-.05-2.1.73-3,2.83-2.81.62.06,1.25,0,1.87,0H257.74c4.79,0,4.79,0,4.8,4.92,0,4-.15,8,0,12,.13,2.69-.93,3.41-3.47,3.36-6.85-.14-13.71-.05-20.57-.05Z"/><path class="cls-3" d="M146.6,150.9h-111c-5,0-5,0-5-5.12,0-3.74.12-7.49,0-11.22-.11-2.5.87-3.43,3.27-3.15a14.42,14.42,0,0,0,1.86,0H257.38c5.16,0,5.16,0,5.16,5.31,0,3.74-.11,7.49,0,11.22.09,2.33-.84,3-3.07,3-6.72-.1-13.45,0-20.18,0Z"/><path class="cls-3" d="M197.64,75.3c-20.18,0-40.37-.06-60.55.06-3,0-4.27-.69-4.06-3.92a107.91,107.91,0,0,0,0-12.33c-.15-3.16,1.11-4.07,4.15-4.06,20.68.1,41.37.05,62.05.05,19.69,0,39.38.09,59.06-.08,3.56,0,4.51,1.09,4.3,4.44a105.67,105.67,0,0,0,0,12.33c.15,2.87-.91,3.58-3.65,3.56C238.51,75.25,218.08,75.3,197.64,75.3Z"/><path class="cls-4" d="M2.16,64.82Q32.4,34.54,62.65,4.24C63.7,3.18,64.7,2.07,65.73,1c1.14.64.74,1.75.74,2.68,0,19.55,0,39.1,0,58.65,0,1.8,0,3-2.48,3-20.17-.08-40.33,0-60.5-.07A4.59,4.59,0,0,1,2.16,64.82Z"/><path class="cls-5" d="M157.92,251.89c0-9.22,0-18.45,0-27.67,0-6,2-10.75,7.59-13.49s10.56-1.27,15.25,2.42c11.85,9.32,23.79,18.52,35.66,27.82,8,6.26,8.09,15.78,0,22.2-12.09,9.61-24.36,19-36.54,28.51-4.45,3.46-9.32,4.12-14.38,1.75S158,286.61,158,281.06C157.85,271.34,157.92,261.62,157.92,251.89Z"/></g></g></svg>