<svg xmlns="http://www.w3.org/2000/svg" viewBox="0 0 359.27 359.27"><defs><style>.cls-1{fill:#fb6067;}.cls-2{fill:#e6eaee;}.cls-3{fill:#dae0e6;}.cls-4{fill:#fa4f56;}.cls-5{fill:#68b0fb;}.cls-6{fill:#59e68a;}.cls-7{fill:#41e27a;}.cls-8{fill:#4fa3fa;}.cls-9{fill:#fcd4a5;}.cls-10{fill:#fccb92;}.cls-11{fill:#fbbb60;}.cls-12{fill:#faaf4f;}.cls-13{fill:#5a626e;}.cls-14{fill:#515663;}</style></defs><g id="Слой_2" data-name="Слой 2"><g id="Layer_1" data-name="Layer 1"><path class="cls-1" d="M168.49,12.09C172.55,3.49,179.28,0,188.83,0c43,.22,86,.09,128.93.1,1.12,0,2.24.07,3.36.12,9.4,1.82,15.2,8.64,15.23,18.34q.12,41.34,0,82.66a19.41,19.41,0,0,1-19.74,19.66q-34.61.14-69.19,0a12.84,12.84,0,0,0-9.13,3.31q-17.35,15.08-34.93,29.91c-5,4.19-9.48,3.35-12.46-2.32-.84-4.71-.28-9.45-.42-14.18-.12-4.22-.27-4.44-4.39-4.65-11.6-.62-19.51-8.71-19.53-20.29-.05-21.57-.11-43.13,0-64.7q-.17-6,0-12c-.16-6-.08-12.08,0-18.12C166.55,15.74,166.73,13.64,168.49,12.09Z"/><path class="cls-2" d="M168.49,12.09c-1.64,7.93-.32,16-.93,23.92-2,1.74-4.51,1.18-6.82,1.18q-62.45.06-124.9,0c-10,0-10.62.58-10.62,10.52q0,78.16,0,156.32c0,9.67.67,10.31,10.44,10.34,4.12,0,8.23-.12,12.34.08,22.16-.24,44.32-.08,66.47-.09,13.69,0,27.39-.17,41.08.09,8-.13,16.07-.15,24.11,0,13.19-.22,26.38-.07,39.57-.09,23,0,46.06,0,69.08,0,7.43,0,14.91.72,22.24-1.16,1.47,2,.45,3.87-.56,5.55-3.51,5.77-8.53,9.3-15.4,9.91-1.24.11-2.49.09-3.74.09q-135.14,0-270.28,0c-6.14,0-11.48-1.46-16-5.85-2.77-2.7-3.84-6-4.48-9.57q0-91.82,0-183.64c0-9.35,8.32-17.65,17.67-17.65Q93.13,12.05,168.49,12.09Z"/><path class="cls-3" d="M.09,213.37c1.62,3.46,3.08,7,6.13,9.57a17.19,17.19,0,0,0,11.47,4.62h276c8.32,0,16.09-6.74,16.82-14.44a4.09,4.09,0,0,1-.49-2.52c.26-24.39,0-48.78.13-73.17,0-2-.26-4,1-5.78a5.87,5.87,0,0,1,3.85-1q8.13-.12,16.26,0c1.46,0,3,0,4.07,1.29,0,29.66-.24,59.33.11,89,.11,9.83-9,18.77-18.58,18.75q-149.19-.27-298.37,0c-9.6,0-19.14-8.91-18.43-18.43C.23,218.62.08,216,.09,213.37Z"/><path class="cls-4" d="M335.31,131.91h-24c-1.64,1.25-3.57.93-5.41.93-19.42,0-38.85.06-58.27,0a13.32,13.32,0,0,0-9.45,3.45c-11.38,9.87-22.76,19.73-34.31,29.4a14.5,14.5,0,0,1-3.38,2.32c-3.43,1.49-7.65.34-8.92-3-1.59-4.2-1.9-8.65.13-12.94,3.71,4.87,6.83,4.9,11.44.87,9.41-8.24,19-16.24,28.57-24.34,2.08-1.77,4.44-3.3,6.16-5.37,2.43-2.94,5.32-3.43,8.89-3.41,23.29.13,46.58.07,69.87.07a18.35,18.35,0,0,0,18.63-18.66c0-26.16-.32-52.32.15-78.47.2-11.18-3.85-18.61-14.32-22.47,7.22,0,14.45-.25,21.67-.07C351.38.38,359.18,8.34,359.2,17q.12,49,0,97.94c0,8.77-8.06,16.63-16.8,16.86C340,131.84,337.67,131.87,335.31,131.91Z"/><path class="cls-5" d="M125.88,343.6c-.86-18.77,10.62-33.28,29.92-37.82a4.31,4.31,0,0,1,3.68-1.48c6.35,0,12.71-.38,19.05.23,8.79,1.68,16.49,5.31,22.58,12.12a37.07,37.07,0,0,1,9.46,21.88c.63,6.77-2.21,9.81-9,9.83q-34,.11-68,0C128.58,348.35,127.39,347.53,125.88,343.6Z"/><path class="cls-1" d="M.19,343.59c-.84-18.73,11.15-33.94,29.71-37.67a4.56,4.56,0,0,1,3.6-1.61c6.43,0,12.86-.39,19.27.21,8.79,1.68,16.5,5.28,22.6,12.1a37.1,37.1,0,0,1,9.49,21.87c.64,6.8-2.19,9.85-9,9.87q-34,.11-68,0C2.86,348.35,1.66,347.52.19,343.59Z"/><path class="cls-6" d="M251.6,343.59c-.78-18.8,10.84-33.5,29.86-37.76a4.39,4.39,0,0,1,3.61-1.52c6.39,0,12.78-.39,19.15.22,8.79,1.68,16.5,5.3,22.59,12.11a37.08,37.08,0,0,1,9.47,21.88c.63,6.78-2.21,9.82-9,9.84q-34,.11-68,0C254.28,348.35,253.08,347.52,251.6,343.59Z"/><path class="cls-4" d="M.19,343.59c1.71,2.84,4.19,3.77,7.51,3.75,22.9-.1,45.81,0,68.71,0,5.47,0,7.45-2,7.46-7.35,0-15.54-13.45-31.26-29-33.82a9.83,9.83,0,0,1-1.69-.62,2.55,2.55,0,0,1,1.15-.87c6.93-.85,13.88-.34,20.82-.3a3.34,3.34,0,0,1,2.67,1.11c8.87,2.28,16.73,6.19,22.43,13.69,4.73,6.23,7.5,13.14,7.54,21,0,4.37.1,8.73,0,13.09-.1,3.84-2.27,6-6.14,6q-47.69.06-95.38,0c-4,0-6.15-2.25-6.22-6.31C0,349.82.15,346.7.19,343.59Z"/><path class="cls-7" d="M251.6,343.59c1.72,2.84,4.2,3.77,7.52,3.76,22.9-.11,45.8-.06,68.7-.06,5.48,0,7.46-2,7.47-7.35,0-15.54-13.46-31.26-29-33.82a9.78,9.78,0,0,1-1.69-.61,2.39,2.39,0,0,1,1.14-.87c6.94-.86,13.89-.35,20.84-.31a3.5,3.5,0,0,1,2.66,1.16c8.94,2.16,16.73,6.22,22.43,13.68a34.34,34.34,0,0,1,7.53,21c0,4.24.07,8.48,0,12.71s-2.18,6.33-6.18,6.33q-47.67.06-95.34,0c-4,0-6.14-2.25-6.21-6.31C251.45,349.82,251.56,346.71,251.6,343.59Z"/><path class="cls-8" d="M125.88,343.6c1.73,2.81,4.2,3.76,7.52,3.75,22.91-.11,45.81-.06,68.71-.06,5.48,0,7.46-2,7.47-7.35,0-15.54-13.46-31.27-29-33.82a9.78,9.78,0,0,1-1.69-.61,2.39,2.39,0,0,1,1.14-.87c6.94-.86,13.89-.35,20.84-.31a3.43,3.43,0,0,1,2.65,1.18c10.74,2.54,19.47,8,25.15,17.69a33.66,33.66,0,0,1,4.83,17.39c0,4.11.06,8.22,0,12.33s-2.18,6.31-6.19,6.32q-47.67.06-95.32,0c-4,0-6.14-2.23-6.21-6.31C125.73,349.82,125.84,346.71,125.88,343.6Z"/><path class="cls-9" d="M54,305.29l-.74.21c-7.77,0-15.56-.64-23.31.42a41.55,41.55,0,0,1-6-23c.48-13.64,6.16-23.53,18.83-29.09,9.45,3.34,14.71,10.67,17,19.77,2.41,9.51,2.3,19.21-2.58,28.27C56.39,303.3,55.58,304.66,54,305.29Z"/><path class="cls-9" d="M179.68,305.27l-.76.24c-7.71-.09-15.42-.46-23.12.27-7.62-11.78-8.26-24.24-3.15-37,2.91-7.26,8.58-12,15.79-15,9.66,3.53,15,11,17.17,20.49,2.14,9.29,2.09,18.74-2.71,27.55C182.11,303.27,181.32,304.65,179.68,305.27Z"/><path class="cls-9" d="M305.39,305.28l-.76.23c-7.73-.07-15.46-.52-23.17.32-6.12-8.94-7.22-18.89-5.49-29.24,1.82-10.88,8-18.51,18.19-22.79,9.66,3.53,15,11,17.16,20.5,2.11,9.28,2.23,18.75-2.71,27.53C307.8,303.27,307,304.65,305.39,305.28Z"/><path class="cls-10" d="M54,305.29c9.21-12,8.48-35.86-4.06-46.32-2.28-1.91-5.23-2.81-7.15-5.16,18.93-8.22,40.86,6,41.18,26.56.14,8.94,0,17.7-6.07,25.07Z"/><path class="cls-10" d="M305.39,305.28c9.41-12,8.14-36.16-3.88-46-2.37-1.93-4.9-3.66-7.35-5.49,19.11-8.27,40.9,6.1,41.18,27,.12,8.84-.23,17.41-6.07,24.72Z"/><path class="cls-10" d="M179.68,305.27c9.19-11.84,8.34-35.94-3.89-46-2.36-1.94-4.89-3.66-7.35-5.49,19.09-8.19,40.9,6.21,41.19,27,.13,8.84-.29,17.4-6.08,24.71Z"/><path class="cls-5" d="M191.73,152c0,3,0,6-.15,9-.1,2.73.73,4.93,3.3,6.15s5,.68,7.22-1.21q12.6-10.83,25.24-21.62c4.16-3.56,8.29-7.16,12.44-10.73a5.78,5.78,0,0,1,3.94-1.79q33.81.13,67.62.15,0,37.88,0,75.74a15.59,15.59,0,0,1-.86,5.47,8.13,8.13,0,0,1-5.63,2.49q-62.61-.09-125.22-.11c-1.61-1.95-1-4.29-1-6.46,0-6.48,0-12.86-2.67-19-5.29-12.42-18.09-21.16-31.57-21.3-2.31,0-4.76.58-6.86-1-1.14-7-2.6-13.75,3.06-19.86,5.8-6.27,8.16-14,8-22.58,0-1.84-.26-3.74.71-5.46,4.59-2,5.63-5.67,5.35-10.34-.3-5.08,0-10.2-.08-15.29C154.37,77,138.75,61.32,121.51,61c-5.47-.1-10.94,0-16.41,0C85.26,63.68,72.91,77.74,72.91,97.68c0,4.24.22,8.49-.07,12.71-.3,4.39,1.09,7.52,5.25,9.24,1.68,3.64.58,7.58,1.24,11.37a35.21,35.21,0,0,0,8.79,18.17c1.08,1.2,2.24,2.35,2.61,4a79.58,79.58,0,0,1,0,13.19,3.73,3.73,0,0,1-.47,1.17c-1.37,1.46-3.2,1.12-4.9,1.14-17.83.28-30.23,9.65-35.47,26.83-.93,3.05-.93,3.05-2.75,1.83a19.87,19.87,0,0,1-.44-6q0-66.33,0-132.66c0-.75,0-1.49,0-2.24.15-7.19,2.56-9.69,9.74-9.7q53.07-.07,106.13,0c1.72,0,3.53-.18,4.94,1.19,0,21.06.47,42.14,0,63.19-.3,12.74,9.16,21.82,20.56,20.59,2.72-.29,3.69.51,3.57,3.42C191.47,140.78,191.69,146.39,191.73,152Z"/><path class="cls-8" d="M167.56,48H56.14C49.66,48,48,49.68,48,56.13q0,69.54,0,139.09c0,1.12.07,2.24.1,3.36A27.4,27.4,0,0,1,48,215.5c-5.48,0-11,.09-16.45.09-5.64,0-7.52-1.92-7.52-7.68q0-77.4,0-154.81c0-3.25,0-6.49,0-9.73C24,37.91,25.94,36,31.44,36H167.56Z"/><path class="cls-2" d="M233.53,65.87c0-9.46,0-18.93,0-28.4,0-2.77.41-5.22,3.11-6.67s5-.58,7.34.9q22.47,14.09,45,28.11c6.1,3.83,6.08,8.47-.06,12.32-15,9.38-30,18.69-45,28.09-2.37,1.49-4.71,2.31-7.33.79s-3.07-4-3.06-6.73C233.57,84.81,233.53,75.34,233.53,65.87Z"/><path class="cls-11" d="M48,215.5l.09-16.92c2.19-10.53,7.27-19.15,16.42-25.14,7.75-5.08,16.4-6,25.34-5.77a3.48,3.48,0,0,1,1,3.09c-.22,7.64,4,12.84,10,16.39,9.93,5.82,24.23,4.95,32.43-5.56,2.12-2.72,2.69-6.13,4.57-8.91,1.53-.53,2.69.32,3.76,1.15,9.13,7.13,14.56,16.39,15.05,28,.19,4.49,1.21,9.19-.89,13.59q-34.49.06-69,.11C73.82,215.58,60.89,215.53,48,215.5Z"/><path class="cls-12" d="M155.72,215.46c-.29-8,.93-16.16-2.17-24-3.18-8-8-14.52-15.73-18.58-1.4-1.47-1.17-3.1-.48-4.78l.47-.44c8.67-.41,17.12.3,24.66,5.2,10.94,7.13,17,17.09,17.17,30.31.06,4.1,0,8.2,0,12.29Z"/><path class="cls-13" d="M77.91,119.93c-4.72-1.16-6.1-2.7-6-7.46.19-7.8-.72-15.64.67-23.41,2.76-15.42,16.39-27.69,32.21-29,6.9,2.07,13,5.33,18,10.75a36,36,0,0,1,9.9,24c.13,5,.6,10-.41,14.88a49.92,49.92,0,0,1-6.9,3.93c-14,6.87-29,8.08-44.33,7.29A5,5,0,0,1,77.91,119.93Z"/><path class="cls-10" d="M125.77,112.41c2-.75,3.41-3,6-2.29s4.1,3.09,5.85,4.92c2.44,2.54,5.06,4.22,8.75,3.87,1.18-.11,2.5-.16,3.36,1,.92,12.26-2,23.19-11.11,32-1,.93-.85,2-.85,3.1,0,4.23,0,8.47.06,12.7l-.05.06c-6,4.76-13.2,6.17-20.48,6.85a47,47,0,0,1-23.21-4.1c-1.73-.76-3.37-1.6-4.09-3.53l0-14.21c2.77-.14,4.51,1.89,6.5,3.23,3.48,2.35,6.66,2.55,10.35.32,11.32-6.85,17.29-16.8,18-29.95.16-3.22,0-6.46,0-9.69C124.8,115.18,124.78,113.68,125.77,112.41Z"/><path class="cls-9" d="M125.77,112.41c-.25,8.52,1,17.16-2.15,25.47a36.19,36.19,0,0,1-19.94,21.06,4.68,4.68,0,0,1-4.25-.26A74.72,74.72,0,0,1,90,152.77c-9.47-9-13-20.09-12-32.84,7.67-.1,15.37.16,23-.41C109.62,118.87,117.76,115.74,125.77,112.41Z"/><path class="cls-14" d="M149.71,119.94c-8.63,1.57-13.26-4.19-18-9.82-.33-6.92.75-13.89-.69-20.79-2.93-14-11.27-23.1-24.67-27.76-.72-.25-2.37.4-1.58-1.49,7.43.06,14.89-.83,22.28.59A35.78,35.78,0,0,1,155.7,95q.06,8.94,0,17.89C155.68,117.39,154.28,119,149.71,119.94Z"/><path class="cls-9" d="M90,167c9.3,5.73,19.35,7.61,30.18,6.26,6.25-.77,11.8-3.46,17.6-5.48l.06,5.16c-1.16,8.16-6.11,13.42-13.3,16.65-9.87,4.44-21.93,1.87-29.55-5.81-4.52-4.54-5.59-10-5.15-16.09A2.31,2.31,0,0,1,90,167Z"/></g></g></svg>