<svg xmlns="http://www.w3.org/2000/svg" viewBox="0 0 383.23 278.37"><defs><style>.cls-1{fill:#e6f0fa;}.cls-2{fill:#f0f6fc;}.cls-3{fill:#cde3f6;}.cls-4{fill:#4a95d5;}.cls-5{fill:#91c2f0;}.cls-6{fill:#7eb8ee;}.cls-7{fill:#2b84ca;}</style></defs><g id="Слой_2" data-name="Слой 2"><g id="Слой_1-2" data-name="Слой 1"><path class="cls-1" d="M309.15,4.47c4.74-5.46,12.12-6,17.12-1.23,13.82,13.13,24.83,28.33,34,45,11.22,20.38,17.9,42.2,21.3,65.08.54,3.64,1.3,7.34,1,11.11-.11,1.17-.43,2.52.7,3.5v18.71c-1,2.16.23,4.57-.74,6.74-.72,16.07-4.15,31.61-9.22,46.82A187.16,187.16,0,0,1,337.78,263c-3.56,4.18-7.46,8-11.29,11.86-5,5.11-12.5,4.62-17.34-.95.33-1.34,1.52-1.93,2.41-2.76,32-30.05,51.79-66.61,56.94-110.32,4.3-36.4-1.61-71.24-18.85-104A188.67,188.67,0,0,0,311.28,7C310.47,6.23,309.43,5.67,309.15,4.47Z"/><path class="cls-2" d="M382.49,153.39c.31-2.24-.75-4.63.74-6.74v6.73Z"/><path class="cls-1" d="M74.21,273.86c-4.84,5.58-12.17,5.94-17.39,1a178,178,0,0,1-37.22-51.3A186.07,186.07,0,0,1,2.21,167.25,188.55,188.55,0,0,1,14.32,66.59,184.61,184.61,0,0,1,53.18,7.1c1.81-1.85,3.24-4,5.58-5.37C62.94-.7,69.24-1.11,74.21,4.47,73.83,6.25,72.18,6.9,71,8A183.3,183.3,0,0,0,30.9,62.39a168,168,0,0,0-16,54.6c-2.45,22-1.61,44,3.9,65.64a179.45,179.45,0,0,0,35.11,69.49,171.71,171.71,0,0,0,18.29,19.17C73,272,74,272.63,74.21,273.86Z"/><path class="cls-3" d="M74.21,273.86C64,266.31,55.94,256.71,48.39,246.69a181,181,0,0,1-30.81-64.42c-4.88-19-5.87-38.34-4.53-57.67A167.32,167.32,0,0,1,29.77,62.5,181.36,181.36,0,0,1,56.91,21.31c5.35-6.06,10.69-12.1,17.3-16.84,4.42,5.73,4.08,11.93-.93,17.05C51.79,43.51,37,69.3,29.6,99.2a161,161,0,0,0-4.69,48c2,33.94,12.73,64.87,33.3,92.12a161.62,161.62,0,0,0,15.05,17.51C78.35,261.88,78.64,268.13,74.21,273.86Z"/><path class="cls-3" d="M309.15,4.47C315,8,319.27,13.3,323.81,18.18A167.27,167.27,0,0,1,346.3,48.67a192.51,192.51,0,0,1,18.26,43.09c5.68,19.84,6.94,40.11,5.81,60.48a165.63,165.63,0,0,1-13.13,55.43,177.58,177.58,0,0,1-27.35,45.45c-6.28,7.49-12.55,15.11-20.74,20.75-4.43-5.74-4.07-11.92.93-17.06,21.42-22,36.36-47.76,43.68-77.68a161.36,161.36,0,0,0,4.68-48c-2-33.94-12.72-64.87-33.29-92.12a171.56,171.56,0,0,0-15.06-17.5C305,16.43,304.72,10.2,309.15,4.47Z"/><path class="cls-4" d="M170,109.23c14.9-10.56,33.73-9.33,47.25,3.08,12.4,11.38,15.06,30.76,6.25,45.83-.73,1.26-1.12,2.79-2.51,3.61-15.68,8.1-30.44,6.53-44-4.6A34.35,34.35,0,0,1,165.06,137C163,127.1,164,117.7,170,109.23Z"/><path class="cls-3" d="M109.39,238.71c-5.17,5.8-13,6.15-18.36.7a139.38,139.38,0,0,1-39.25-75.85,129.32,129.32,0,0,1-2.2-29.25c1-18.34,4.74-36.06,12.3-52.94A140.7,140.7,0,0,1,91,38.92c5.42-5.43,13.18-5.1,18.37.7a8.18,8.18,0,0,1-2.5,2.73c-24.7,21.94-39.49,49.21-43,82.1-4,37.89,6.35,71.41,31.57,100.27C99.85,229.71,105,233.77,109.39,238.71Z"/><path class="cls-3" d="M274,39.62c5.23-5.86,12.91-6.24,18.34-.72,21.24,21.64,34.69,47.24,39.41,77.34,1.37,8.73,2.46,17.47,2.08,26.29-.82,18.87-4.53,37.1-12.34,54.44a141.4,141.4,0,0,1-29.15,42.47c-5.47,5.47-13.11,5.13-18.34-.73a9.32,9.32,0,0,1,2.78-3c21.93-19.42,36.16-43.45,41.3-72.25,7.09-39.74-1.94-75.68-27.75-107-4.1-5-8.24-10-13.54-13.87A7.72,7.72,0,0,1,274,39.62Z"/><path class="cls-5" d="M109.39,238.71c-4.45-2.35-7.94-5.87-11.28-9.51-9.28-10.11-17.39-21.07-23.3-33.53a127.89,127.89,0,0,1-11.9-41.26c-2.83-26.26,1.24-51.26,13.43-74.75a126.76,126.76,0,0,1,31.08-39.12,8.36,8.36,0,0,1,2-.92c4.39,6.4,3.94,11.88-1.78,17.72a114,114,0,0,0-26.33,42A116.18,116.18,0,0,0,79,171.88,113.91,113.91,0,0,0,107.62,221C113.35,226.82,113.79,232.31,109.39,238.71Z"/><path class="cls-5" d="M274,39.62c4.34,2.29,7.75,5.72,11,9.24a135.37,135.37,0,0,1,23,32.8,127.08,127.08,0,0,1,12.46,43c2.7,26-1.42,50.76-13.49,74a125.93,125.93,0,0,1-31.06,39.14,8.34,8.34,0,0,1-2,.91c-4.4-6.41-3.94-11.86,1.78-17.71,12.92-13.24,22.4-28.56,27.67-46.31q17.91-60.27-21-109.83c-2.23-2.83-4.81-5.38-7.23-8C270.08,51.18,269.69,45.83,274,39.62Z"/><path class="cls-5" d="M144.47,203.49c-5,6.1-13.31,6.54-18.93.66-13.43-14-22.15-30.5-25.19-49.81-4.24-27,2.14-51.29,18.83-72.88a74.62,74.62,0,0,1,6.64-7.57c5.65-5.51,13.71-5,18.66,1-2.39,3.07-5.67,5.16-8.42,7.86-13.3,13.09-21.38,28.91-23.17,47.33-2.72,28,6.53,51.64,28.19,70.06C142.3,201.13,143.73,202,144.47,203.49Z"/><path class="cls-5" d="M238.88,74.84c5.27-6.37,13.52-6.49,19.46-.17,12,12.79,20.38,27.61,23.83,44.89q9.07,45.52-21.11,81c-3.58,4.19-7.1,8.05-13.29,7.59-3.67-.27-6.73-1.52-8.87-4.63,1.37-2.34,3.82-3.52,5.71-5.3,17.11-16,26.3-35.49,26.21-59.22-.09-25.06-10.24-45.17-29.13-61.19A9.08,9.08,0,0,1,238.88,74.84Z"/><path class="cls-6" d="M144.47,203.49c-5.56-2.8-9.62-7.4-13.57-11.94a76.6,76.6,0,0,1-18-37.06c-3.53-19.38-.8-37.8,9-55a80.42,80.42,0,0,1,20.63-23.75,3.36,3.36,0,0,1,2-.89c4.07,5.7,3.6,11.56-1.41,16.81-9.45,9.88-15.7,21.42-18.08,34.93-4,22.91,2.11,42.82,17.84,59.82C148,192,148.64,197.7,144.47,203.49Z"/><path class="cls-6" d="M238.88,74.84c5.48,2.7,9.47,7.22,13.33,11.66,9.43,10.88,16,23.37,18.35,37.68,4,24-.83,45.83-16.25,65a87.3,87.3,0,0,1-13.16,13.12,3.51,3.51,0,0,1-2.25,1.16c-4.1-5.7-3.63-11.55,1.4-16.81,12.81-13.41,19.41-29.45,19.3-47.91-.1-18.17-6.67-34-19.33-47.15C235.21,86.35,234.75,80.56,238.88,74.84Z"/><path class="cls-7" d="M170,109.23c-1.11,4-3.13,7.58-4,11.66-4.71,21.5,10.62,42.71,32.56,44.59A41.4,41.4,0,0,0,219,161.8c.62-.27,1.28-.94,1.95-.05-9.53,11.94-22,16.63-36.8,13.56-15.62-3.26-25.62-13.33-28.7-29C152.47,131.26,157.53,118.63,170,109.23Z"/></g></g></svg>