<svg xmlns="http://www.w3.org/2000/svg" viewBox="0 0 383.53 383.64"><defs><style>.cls-1{fill:#f4e5fd;}.cls-2{fill:#bd63f8;}.cls-3{fill:#e2f7f9;}.cls-4{fill:#d8a3fb;}</style></defs><g id="Слой_2" data-name="Слой 2"><g id="Layer_1" data-name="Layer 1"><path class="cls-1" d="M319.18,383.64H64.76c-8-.58-15.72-1.88-23-5.43Q10,362.79,1.19,328.73C.05,324.29.05,319.6.05,315Q0,192.32,0,69.63C0,46.85,9.85,29,27,15,39.51,4.87,53.94,0,70.27.07,151.56.24,232.85.44,314.14,0,346-.17,374,23.56,382,52.35c1.14,4.09.75,8.38,1.54,12.52V319.29a59.16,59.16,0,0,1-5.88,23.59c-10.06,20.31-25.93,33.6-47.85,39.54C326.34,383.36,322.68,382.88,319.18,383.64Z"/><path class="cls-2" d="M287.75,192.05q0,35,0,69.93c0,15.9-10,25.87-25.91,25.88H122c-15.68,0-25.77-10-25.77-25.64q0-70.13,0-140.25c0-15.64,10-25.67,25.72-25.67H262.15c15.45,0,25.57,10.06,25.59,25.44Q287.78,156.9,287.75,192.05Z"/><path class="cls-1" d="M191.94,224.11c-25.18,0-50.36-.06-75.54.07-3.35,0-4.45-.78-4.44-4.32.14-32.41.08-64.82.09-97.23,0-7.47,3-10.47,10.39-10.47H261.55c7.39,0,10.33,3,10.34,10.54,0,32.28-.05,64.57.08,96.85,0,3.51-.8,4.67-4.5,4.64C242.3,224,217.12,224.11,191.94,224.11Z"/><path class="cls-3" d="M213,263.91c-13.71,0-27.42,0-41.13,0-2.33,0-3.78.25-4.54,2.92-1,3.52-4,5.16-7.48,5s-6.36-2-7.21-5.49c-.58-2.36-1.79-2.48-3.67-2.46q-9.91.09-19.82,0c-5.33,0-8.9-3.29-8.95-8s3.5-7.83,9-7.87c6.6,0,13.21-.07,19.81,0,2,0,3.05-.42,3.68-2.61a7.2,7.2,0,0,1,7.23-5.45c3.74-.05,6.67,1.74,7.58,5.42.69,2.78,2.35,2.62,4.4,2.62q40.2,0,80.39,0c1.24,0,2.49,0,3.74,0,4.58.25,7.87,3.56,7.84,7.85a7.89,7.89,0,0,1-7.84,7.91c-7,.17-13.95.06-20.93.06Z"/><path class="cls-4" d="M191.58,216c-10.71,0-21.42,0-32.13,0-5.23,0-7.17-2-7.19-7.2,0-4,0-8,0-11.95a21.15,21.15,0,0,1,20.58-20.51q19-.14,38.11,0a21.18,21.18,0,0,1,20.69,20.82c0,3.86,0,7.73,0,11.59,0,5.21-2,7.25-7.2,7.26C213.51,216,202.54,216,191.58,216Z"/><path class="cls-4" d="M215.91,144.21a23.94,23.94,0,1,1-24-24A24.09,24.09,0,0,1,215.91,144.21Z"/></g></g></svg>