<svg xmlns="http://www.w3.org/2000/svg" viewBox="0 0 383.11 278.2"><defs><style>.cls-1{fill:#4f8ed5;}.cls-2{fill:#545f56;}.cls-3{fill:#404d43;}.cls-4{fill:#518dca;}.cls-5{fill:#fefefe;}.cls-6{fill:#86b4ee;}.cls-7{fill:#9ec3f0;}</style></defs><g id="Слой_2" data-name="Слой 2"><g id="Слой_1-2" data-name="Слой 1"><path class="cls-1" d="M383.11,103.19c-1.05.39-.77,1.67-1.53,2.25-1.45,1.28-3.23,1.17-5,1.17q-72,0-143.92,0a38.72,38.72,0,0,1-7.05-.78c-9.91-1.86-16.32-9.22-16.52-19.29-.19-9.47-.05-18.94-.05-28.41q0-23.37,0-46.73a70.69,70.69,0,0,0-.45-9.32C211.19.29,214.16,0,217.15,0Q290.38,0,363.6,0c9,0,15.75,5,18.67,13.35.19.57.1,1.27.84,1.52Z"/><path class="cls-2" d="M333.73,117.5q0,51.58-.06,103.17c0,1.57.47,3.25-.57,4.72-2.28-2.32-5.22-2-8.07-2H106.27q-51,0-102.09,0c-1.36,0-2.75.19-4-.49,0-1.36-.14-2.73-.14-4.1Q0,141.6,0,64.4c0-10.45,4.54-15,15.08-15H197.53a16.23,16.23,0,0,1,.11,12.84c-2.16,1.39-4.59.95-6.92.95q-83.2,0-166.4,0c-10.1,0-10.39.29-10.39,10.23V198.74c0,1.24,0,2.49,0,3.73.18,4.75,1.61,6.21,6.3,6.47,1.12.06,2.25,0,3.37,0H309.68c1.12,0,2.24,0,3.36,0,3.54.07,6-1.36,7-4.92a13.23,13.23,0,0,0,.68-5.51c0-24.63,0-49.26,0-73.88,0-2.62-1.27-6.22,1.59-7.55A12.08,12.08,0,0,1,333.73,117.5Z"/><path class="cls-3" d="M.15,222.9c1.33-.93,2.85-.73,4.34-.73q162.14,0,324.27,0c2.38,0,4.64-.2,4.34,3.24-1.52,6.11-5.85,9.46-12.5,9.48q-28.77,0-57.55,0c-18.06,0-36.12.12-54.18-.09-3.82,0-4.09,1.1-3.54,4.41,1.4,8.46,2.37,17,3.51,25.5,0,1.58-1.28,1.64-2.33,1.87a16.54,16.54,0,0,1-3.72.21c-24,0-48,0-72-.06-2.09,0-4.86,1.06-6-2.09,1.16-8.62,2.16-17.27,3.57-25.85.51-3.1.07-4-3.25-4-37.23.11-74.45,0-111.68.15C6.74,235,0,230.07.15,222.9Z"/><path class="cls-4" d="M333.73,117.5c-3,0-6,.07-9-.12-2.51-.17-3.18.84-3.15,3.23.11,10,0,19.93,0,29.9q0,24.86,0,49.7c0,1.34.36,2.76-.48,4-1.83-1.68-1.32-3.93-1.32-6q-.07-36.28,0-72.58c0-7.05,0-7.05-6.9-7.05q-46.77,0-93.53,0c-14.85,0-22.91-8-23-22.85-.06-9.47,0-18.95,0-28.43,0-1.86-.15-3.77,1.17-5.36V49.43c0-9.94,0-19.88.16-29.82.15-7.93,3.39-14.11,10.93-17.52,2.45.52,1.6,2.51,1.6,4,.05,25.93.32,51.88-.08,77.81-.22,13.79,8.34,21.53,21.81,21.55q53.12.09,106.24,0l43.39,0a18,18,0,0,1-16.82,12C354.42,117.51,344.07,117.48,333.73,117.5Z"/><path class="cls-2" d="M124.84,264.63c1,1.37,2.48.92,3.78.92q38.2,0,76.4,0c1.31,0,2.78.47,3.82-.85,1.09,1.54,2.72,1,4.14,1,12.59,0,25.18,0,37.77,0a16.34,16.34,0,0,1,4.42.48,5.63,5.63,0,0,1,4.32,5.85,5.91,5.91,0,0,1-4.11,5.68,12.4,12.4,0,0,1-4.8.46H83a23.45,23.45,0,0,1-3.36-.1A6.21,6.21,0,0,1,74.17,272a5.94,5.94,0,0,1,5.09-6A17.68,17.68,0,0,1,83,265.7c12.59,0,25.18,0,37.77,0C122.16,265.66,123.8,266.24,124.84,264.63Z"/><path class="cls-5" d="M327.14,58.53c0-6.86,0-13.72,0-20.57,0-5.34,2.2-7.51,7.47-7.56,5.61-.06,11.22-.07,16.83,0,4.34.06,7,2.54,6.91,6.15s-2.83,6-7.12,6c-3,0-6,.09-9,0-1.85-.06-2.6.41-2.68,2.47-.31,7.42-.39,7.41,7.08,7.42a31.85,31.85,0,0,1,4.48.14c3.7.53,6,3.23,5.76,6.6-.21,3.18-2.68,5.54-6.27,5.73-2.86.15-5.74.11-8.6,0-1.73,0-2.33.51-2.44,2.32-.47,7.54-.54,7.53,6.92,7.53,1.87,0,3.75-.09,5.61,0a6.43,6.43,0,0,1,6.22,5.85,5.93,5.93,0,0,1-5.53,6.39c-6.71.3-13.46.33-20.17,0-3.68-.19-5.45-2.92-5.5-7.22C327.09,72.74,327.14,65.63,327.14,58.53Z"/><path class="cls-5" d="M298.46,64.11c3.18-9.52,6-18,8.84-26.43.28-.83.53-1.67.84-2.48,1.53-4.12,4.5-5.84,8-4.66s5,4.42,3.65,8.52c-3.67,11.24-7.43,22.45-11.16,33.67-1.06,3.19-2.1,6.39-3.21,9.55s-3.34,5-6.67,5.1c-3.51.08-5.87-1.84-7-5.11q-7.65-21.85-15.21-43.73a6.14,6.14,0,0,1,3.88-8.13c3.14-1.09,6.38.44,7.69,4.06C291.5,43.94,294.75,53.48,298.46,64.11Z"/><path class="cls-5" d="M222.36,58.77c0-7,0-14,0-21,0-4.78,2.5-7.79,6.24-7.79s6.24,3,6.26,7.76c0,11.23.1,22.45-.06,33.67,0,2.82.78,3.75,3.58,3.54a31.41,31.41,0,0,1,7.44.28c3.5.58,5.2,3,5,6.33a5.77,5.77,0,0,1-5.75,5.75c-5.6.18-11.22.21-16.83,0-3.72-.16-5.84-2.8-5.88-6.87C222.31,73.24,222.36,66,222.36,58.77Z"/><path class="cls-5" d="M257.41,58.61c0-7,0-14,0-20.93,0-4.51,2.37-7.51,5.93-7.65,3.79-.15,6.47,2.73,6.5,7.53q.13,21.12,0,42.24c0,4.84-2.63,7.72-6.37,7.62s-6.05-3-6.07-7.87C257.39,72.57,257.41,65.59,257.41,58.61Z"/><path class="cls-6" d="M197.53,62c0,11.47.17,22.94,0,34.41-.19,12.36,8.18,21.32,21.09,21.18,32.66-.38,65.33-.07,98-.21,3.69,0,4.5,1.08,4.48,4.61-.15,25.93-.08,51.86-.07,77.8,0,1.49.09,3,.14,4.48-1,4.68-2.64,6-7.87,6H21.48c-7.45,0-8.93-1.49-8.93-9q0-65.28,0-130.57c0-7.3,1.38-8.67,8.76-8.67Z"/><path class="cls-7" d="M166.79,197.48c-41.26,0-82.53-.2-123.8.14-9.61.08-18.3-8.88-18.3-18.3,0-29,0-58.1,0-87.15C24.74,81.92,33.57,74,44.86,74q59.1,0,118.19,0c3,0,6,0,9,0,7.69.12,13.3,5.82,13.56,13.51.2,6.07-.78,12.2.67,18.23,3.19,13.32,13.23,21.92,26.84,23.74,6.36.85,12.67.54,19,.57,21.44.11,42.88,0,64.33.05,7.32,0,12.47,4.87,12.56,12.28q.21,18.69,0,37.4c-.14,10.35-10.15,17.88-18,17.82C249.58,197.31,208.18,197.48,166.79,197.48Z"/></g></g></svg>