<svg xmlns="http://www.w3.org/2000/svg" viewBox="0 0 250.67 134.45">
    <defs>
        <style>.cls-1{fill:#006fba;}.cls-2{fill:#fff;}</style>
    </defs>
    <g id="Слой_2" data-name="Слой 2">
        <g id="Слой_1-2" data-name="Слой 1">
            <g id="Слой_2-2" data-name="Слой 2">
                <g id="Layer_1" data-name="Layer 1">
                    <path class="cls-1" d="M86,41.43h15.61v5.09H94.17V82.44H86Z"/>
                    <path class="cls-1"
                          d="M110.5,67l1.4-20.52h.47L113.78,67Zm-9.08,15.41h8l.76-10.9h3.87l.77,10.9h8l-4.28-41H105.7Z"/>
                    <path class="cls-1"
                          d="M133.61,68.08v7.73a1.28,1.28,0,0,0,1.18,1.34h.11a1.31,1.31,0,0,0,1.29-1.33h0V66.27c0-1.29-.24-2.69-3.28-2.69h-3.3V59.06h3.45c2.35,0,3.17-.52,3.17-3v-8.2A1.31,1.31,0,0,0,135,46.52h0a1.26,1.26,0,0,0-1.33,1.19V54.6h-8.2V48.8c0-2.87.35-7.32,6.09-7.32h6.8c5.75,0,6.09,4.45,6.09,7.32v6.57c0,4.45-3.1,5.68-5.56,5.56v.41c5.51-.12,5.56,4.1,5.56,5.57v8.26c0,2.86-.34,7.32-6.09,7.32h-6.8c-5.74,0-6.09-4.46-6.09-7.32v-7Z"/>
                    <path class="cls-1" d="M148.74,41.43h19v41h-8.2V46.52H157V82.44h-8.2Z"/>
                    <path class="cls-1"
                          d="M180.71,64V46.52h1.06c.88,0,1.52.76,1.52,2V61.93c0,1.29-.64,2.06-1.52,2.06Zm-8.2,18.45h8.2V68.5h4.69c5.74,0,6.09-4.46,6.09-7.33V48.75c0-2.87-.35-7.32-6.09-7.32H172.51Z"/>
                    <path class="cls-1"
                          d="M206.26,75.81A1.31,1.31,0,0,1,205,77.15h0a1.26,1.26,0,0,1-1.29-1.23V47.86a1.28,1.28,0,0,1,1.18-1.34H205a1.31,1.31,0,0,1,1.29,1.33h0Zm-10.78-.69c0,2.86.35,7.32,6.09,7.32h6.8c5.74,0,6.09-4.46,6.09-7.32V48.75c0-2.87-.35-7.32-6.09-7.32h-6.76c-5.74,0-6.09,4.45-6.09,7.32Z"/>
                    <path class="cls-1"
                          d="M240,41.43h10.66v41h-8.2V56.72h-.29L238,82.44H231.4l-4.22-25.72h-.29V82.44h-8.21v-41h10.67l5.33,28.82Z"/>
                    <path class="cls-1"
                          d="M74.35,24.29c-2.84-12.48-10-22.62-11-24.29A84.46,84.46,0,0,0,53.22,21.24a77,77,0,0,0-2.53,30.61,84.34,84.34,0,0,0,5.18,19.63A68.86,68.86,0,0,0,63.42,85c3.11-4,10.27-16.09,12.49-31.84,1.24-8.75,1.29-16.41-1.56-28.9m-11,57.64a34.16,34.16,0,0,1-3.74-15.42,32.45,32.45,0,0,1,3.83-15.28,34.5,34.5,0,0,1,3.68,14.6,32.87,32.87,0,0,1-3.72,16.1M73.53,45.48a67.86,67.86,0,0,1-1.4,12.79,78.66,78.66,0,0,0-1.52-18.18c-1.2-5.71-4.57-15.22-7.25-19.64C60.87,24.65,57.81,32.89,56.2,40s-1.65,15.8-1.65,18.39A91.79,91.79,0,0,1,53.32,40.6a79.63,79.63,0,0,1,2.6-16.16A86.36,86.36,0,0,1,63.33,6.68a79.18,79.18,0,0,1,7.51,17.5A77.74,77.74,0,0,1,73.53,45.48Z"/>
                    <path class="cls-1"
                          d="M68.22,87.94H46.54v14.49a13.08,13.08,0,0,1,18.83,18.16l-.33.33L65,121h0l-.07.07A26.12,26.12,0,1,1,46.54,76.4v-35a46.52,46.52,0,1,0,33.95,78.3V87.94H68.22"/>
                    <rect class="cls-1" x="86" y="87.95" width="164.67" height="25.63"/>
                    <path class="cls-2"
                          d="M96.28,93.08l1.2,6.23c.25,1.26.38,3.4.55,4.86h0c.17-1.39.34-3.77.55-4.86l1.2-6.23h5.16v15.37h-3.53v-5.4c0-1.47.11-5.41.19-6.7h0l-2.29,12.1H96.74l-2.29-12.1h0c.06,1.07.19,4.61.19,6.68v5.42H91.11V93.08Z"/>
                    <path class="cls-2" d="M108.73,93.08h8.61V96h-4.9v3h4.39v2.91h-4.39v3.62h4.9v2.91h-8.61Z"/>
                    <path class="cls-2"
                          d="M130,93.08V99.2l2.59-6.12h4l-3.41,6.78,3.41,8.59h-3.9l-1.71-5.35-1,1.77v3.58H126.4v-3.58l-1-1.77-1.71,5.35h-3.9l3.41-8.59-3.41-6.78h4l2.59,6.12V93.08Z"/>
                    <path class="cls-2"
                          d="M143.26,108.45h-3.65V93.08H145c2.14,0,4.49.77,4.49,4.68s-2.31,4.7-4.49,4.7h-1.68Zm0-8.76h.67c.92,0,1.8-.45,1.8-2s-.79-1.88-1.87-1.88h-.6Z"/>
                    <path class="cls-2" d="M152.23,93.08h8.61V96h-4.9v3h4.39v2.91h-4.39v3.62h4.9v2.91h-8.61Z"/>
                    <path class="cls-2" d="M172.61,93.08V96h-4.9v12.46H164V93.08Z"/>
                    <path class="cls-2"
                          d="M178.46,93.08v3.81c0,1.69-.47,4.15-.56,5.84h0L181,93.08h3.58v15.37h-3.53v-3.58c0-1.64.51-4.15.68-5.78h0l-3.19,9.36H175V93.08Z"/>
                    <path class="cls-2"
                          d="M198.13,97.08V104c0,3.06-1.52,4.83-5,4.83s-5-1.77-5-4.83V97.06c0-2.42,1.52-4.33,5-4.33S198.13,94.68,198.13,97.08Zm-6.27-.26v7.78A1.28,1.28,0,0,0,193,106h.11a1.3,1.3,0,0,0,1.3-1.29s0-.05,0-.08V96.8a1.21,1.21,0,0,0-1.17-1.26h-.12a1.2,1.2,0,0,0-1.28,1.11Z"/>
                    <path class="cls-2" d="M205.39,99h2.42V93.08h3.7v15.37h-3.7v-6.53h-2.42v6.53h-3.71V93.08h3.71Z"/>
                    <path class="cls-2" d="M223.86,93.08V96H219v12.46h-3.71V93.08Z"/>
                    <path class="cls-2"
                          d="M231.48,93.08l3.41,15.37h-3.64l-.56-3.08h-2.83l-.47,3.08h-3.68l3.34-15.37Zm-1.28,9.52-1-6.76h0l-1,6.76Z"/>
                    <path class="cls-2"
                          d="M236.34,97.76c0-3.18,2-5,4.65-5,2.93,0,4.58,1.91,4.58,4.07a3.31,3.31,0,0,1-2.19,3.56h.05c1.56.57,2.67,1.22,2.67,4,0,3-2,4.47-4.9,4.47-2.29,0-4.86-1-4.86-5h3.4c0,1.71.5,2.2,1.31,2.2s1.35-.49,1.35-2.2c0-1.44-.45-2-1.63-2h-.53V99.1h.87c.54,0,1.12-.6,1.12-1.69s-.37-1.88-1.24-1.88-1.25.68-1.25,2.26Z"/>
                    <path class="cls-1"
                          d="M87.71,119.07v14.24h0a21.52,21.52,0,0,1,.62-2.12L93.11,119h2.5v15.38H93.9V119.84h0a12,12,0,0,1-.6,2.5l-4.8,12.11H86V119.07Z"/>
                    <path class="cls-1"
                          d="M104.83,125.6h5.87v-6.54h1.71v15.38H110.7v-7.3h-5.87v7.3h-1.71V119.07h1.71Z"/>
                    <path class="cls-1"
                          d="M128.25,119.07V127l5.6-7.9H136l-4.91,6.43,5.06,8.95h-2l-4.1-7.6-1.8,2.24v5.36h-1.71v-5.36l-1.79-2.24-4.1,7.6h-2l5.06-8.95-4.91-6.43h2.14l5.59,7.9v-7.9Z"/>
                    <path class="cls-1"
                          d="M144.09,119.07v14.24h0a21.52,21.52,0,0,1,.62-2.12L149.49,119H152v15.38h-1.71V119.84h0a12,12,0,0,1-.6,2.5l-4.8,12.11h-2.48V119.07Z"/>
                    <path class="cls-1" d="M161.21,125.6h5.88v-6.54h1.7v15.38h-1.7v-7.3h-5.88v7.3H159.5V119.07h1.71Z"/>
                    <path class="cls-1"
                          d="M178,119.07V131.6c0,.55,0,1.15,0,1.71h0a21.48,21.48,0,0,1,.61-2.12L183.44,119h2.47v15.38h-1.7V119.84h0a12,12,0,0,1-.6,2.5l-4.81,12.11h-2.47V119.07Z"/>
                    <path class="cls-1"
                          d="M195.16,134.45h-1.71V119.07h4.27c2.8,0,4.63,1.31,4.63,4.34,0,3.59-2.17,4.53-5,4.53h-2.24Zm0-8h1.66c2.35,0,3.76-.37,3.76-3,0-2.18-1.22-2.8-3.27-2.8h-2.15Z"/>
                    <path class="cls-1"
                          d="M211.17,119.07v14.24h0a21.52,21.52,0,0,1,.62-2.12l4.82-12.12h2.48v15.38h-1.71V119.84h0a12,12,0,0,1-.6,2.5L212,134.45H209.5V119.07Z"/>
                    <path class="cls-1"
                          d="M228.29,125.6h5.87v-6.54h1.71v15.38h-1.71v-7.3h-5.87v7.3h-1.68V119.07h1.71Z"/>
                    <path class="cls-1" d="M250.67,119.07v1.53h-5.51v13.84h-1.71V119.07Z"/>
                </g>
            </g>
        </g>
    </g>
</svg>