<svg width="149" height="77" viewBox="0 0 149 77" fill="none" xmlns="http://www.w3.org/2000/svg">
    <path d="M51.652 56.152L50.456 60H38.236V59.48C38.4093 57.088 38.496 54.3147 38.496 51.16V43.776H24.144V51.16C24.144 53.8987 24.2307 56.672 24.404 59.48V60H15.876V59.48C16.084 57.088 16.188 54.3147 16.188 51.16V26.824C15.7373 26.824 14.992 26.928 13.952 27.136C12.912 27.344 11.9933 27.5347 11.196 27.708L10.988 27.396L12.184 23.6H24.404V24.12C24.2307 26.928 24.144 29.7013 24.144 32.44V39.824H38.496V32.44C38.496 29.2853 38.4093 26.512 38.236 24.12V23.6H46.764V24.12C46.556 26.928 46.452 29.7013 46.452 32.44V56.776C46.9027 56.776 47.648 56.672 48.688 56.464C49.728 56.256 50.6467 56.048 51.444 55.84L51.652 56.152ZM73.9763 60.78C70.3363 60.78 67.0776 59.9827 64.2003 58.388C61.3576 56.7587 59.1216 54.5053 57.4923 51.628C55.8976 48.716 55.1003 45.44 55.1003 41.8C55.1003 38.16 55.8976 34.9013 57.4923 32.024C59.1216 29.112 61.3576 26.8587 64.2003 25.264C67.0776 23.6347 70.3363 22.82 73.9763 22.82C77.6163 22.82 80.8576 23.6347 83.7003 25.264C86.5776 26.8587 88.8136 29.112 90.4083 32.024C92.0376 34.9013 92.8523 38.16 92.8523 41.8C92.8523 45.44 92.0376 48.716 90.4083 51.628C88.8136 54.5053 86.5776 56.7587 83.7003 58.388C80.8576 59.9827 77.6163 60.78 73.9763 60.78ZM73.9763 57.036C76.0216 57.036 77.8416 56.3947 79.4363 55.112C81.0309 53.8293 82.2789 52.044 83.1803 49.756C84.0816 47.4333 84.5323 44.7813 84.5323 41.8C84.5323 38.8187 84.0816 36.184 83.1803 33.896C82.2789 31.5733 81.0309 29.7707 79.4363 28.488C77.8416 27.2053 76.0216 26.564 73.9763 26.564C71.9309 26.564 70.1109 27.2053 68.5163 28.488C66.9216 29.7707 65.6736 31.5733 64.7723 33.896C63.8709 36.184 63.4203 38.8187 63.4203 41.8C63.4203 44.7813 63.8709 47.4333 64.7723 49.756C65.6736 52.044 66.9216 53.8293 68.5163 55.112C70.1109 56.3947 71.9309 57.036 73.9763 57.036ZM133.585 66.864C133.307 65.72 132.735 64.6107 131.869 63.536C131.037 62.496 130.031 61.6467 128.853 60.988C127.674 60.3293 126.513 60 125.369 60H101.189V59.48C101.397 57.088 101.501 54.3147 101.501 51.16V26.824C101.05 26.824 100.305 26.928 99.2645 27.136C98.2245 27.344 97.3058 27.5347 96.5085 27.708L96.3005 27.396L97.4965 23.6H109.717V24.12C109.543 26.928 109.457 29.7013 109.457 32.44V56.048H123.809V32.44C123.809 29.2853 123.722 26.512 123.549 24.12V23.6H132.077V24.12C131.869 26.928 131.765 29.7013 131.765 32.44V49.704C131.765 50.8133 131.782 51.94 131.817 53.084C131.851 54.1933 131.886 55.2853 131.921 56.36H134.105L134.209 55.112L136.393 54.956L137.641 68.424L134.001 68.944L133.585 66.864Z"
          fill="#006FBA"/>
</svg>
