<svg width="149" height="77" viewBox="0 0 149 77" fill="none" xmlns="http://www.w3.org/2000/svg">
    <path d="M51.652 53.152L50.456 57H38.236V56.48C38.4093 54.088 38.496 51.3147 38.496 48.16V40.776H24.144V48.16C24.144 50.8987 24.2307 53.672 24.404 56.48V57H15.876V56.48C16.084 54.088 16.188 51.3147 16.188 48.16V23.824C15.7373 23.824 14.992 23.928 13.952 24.136C12.912 24.344 11.9933 24.5347 11.196 24.708L10.988 24.396L12.184 20.6H24.404V21.12C24.2307 23.928 24.144 26.7013 24.144 29.44V36.824H38.496V29.44C38.496 26.2853 38.4093 23.512 38.236 21.12V20.6H46.764V21.12C46.556 23.928 46.452 26.7013 46.452 29.44V53.776C46.9027 53.776 47.648 53.672 48.688 53.464C49.728 53.256 50.6467 53.048 51.444 52.84L51.652 53.152ZM73.9763 57.78C70.3363 57.78 67.0776 56.9827 64.2003 55.388C61.3576 53.7587 59.1216 51.5053 57.4923 48.628C55.8976 45.716 55.1003 42.44 55.1003 38.8C55.1003 35.16 55.8976 31.9013 57.4923 29.024C59.1216 26.112 61.3576 23.8587 64.2003 22.264C67.0776 20.6347 70.3363 19.82 73.9763 19.82C77.6163 19.82 80.8576 20.6347 83.7003 22.264C86.5776 23.8587 88.8136 26.112 90.4083 29.024C92.0376 31.9013 92.8523 35.16 92.8523 38.8C92.8523 42.44 92.0376 45.716 90.4083 48.628C88.8136 51.5053 86.5776 53.7587 83.7003 55.388C80.8576 56.9827 77.6163 57.78 73.9763 57.78ZM73.9763 54.036C76.0216 54.036 77.8416 53.3947 79.4363 52.112C81.0309 50.8293 82.2789 49.044 83.1803 46.756C84.0816 44.4333 84.5323 41.7813 84.5323 38.8C84.5323 35.8187 84.0816 33.184 83.1803 30.896C82.2789 28.5733 81.0309 26.7707 79.4363 25.488C77.8416 24.2053 76.0216 23.564 73.9763 23.564C71.9309 23.564 70.1109 24.2053 68.5163 25.488C66.9216 26.7707 65.6736 28.5733 64.7723 30.896C63.8709 33.184 63.4203 35.8187 63.4203 38.8C63.4203 41.7813 63.8709 44.4333 64.7723 46.756C65.6736 49.044 66.9216 50.8293 68.5163 52.112C70.1109 53.3947 71.9309 54.036 73.9763 54.036ZM133.585 63.864C133.307 62.72 132.735 61.6107 131.869 60.536C131.037 59.496 130.031 58.6467 128.853 57.988C127.674 57.3293 126.513 57 125.369 57H101.189V56.48C101.397 54.088 101.501 51.3147 101.501 48.16V23.824C101.05 23.824 100.305 23.928 99.2645 24.136C98.2245 24.344 97.3058 24.5347 96.5085 24.708L96.3005 24.396L97.4965 20.6H109.717V21.12C109.543 23.928 109.457 26.7013 109.457 29.44V53.048H123.809V29.44C123.809 26.2853 123.722 23.512 123.549 21.12V20.6H132.077V21.12C131.869 23.928 131.765 26.7013 131.765 29.44V46.704C131.765 47.8133 131.782 48.94 131.817 50.084C131.851 51.1933 131.886 52.2853 131.921 53.36H134.105L134.209 52.112L136.393 51.956L137.641 65.424L134.001 65.944L133.585 63.864Z"
          fill="white"/>
</svg>
